<svg width="57" height="60" viewBox="0 0 57 60" fill="none" xmlns="http://www.w3.org/2000/svg">
<path fill-rule="evenodd" clip-rule="evenodd" d="M56.809 34.8771C56.809 34.8604 56.809 34.8437 56.809 34.827C56.9314 34.0592 57.0416 33.283 56.9845 32.4568C56.9559 32.5152 56.9396 32.582 56.9192 32.6488C56.9273 32.4818 56.9314 32.3107 56.911 32.1647L56.8906 32.0562L56.9029 31.9143C56.911 31.2717 56.9192 30.6332 56.9233 29.9531C56.9029 29.8487 56.8866 29.7444 56.8539 29.565C56.6825 27.7247 56.3642 25.8052 55.8827 24.0109C55.8337 23.8731 55.7725 23.7146 55.7358 23.6103C55.291 22.0621 54.7973 20.6517 54.1852 19.0952C54.1281 19.0076 54.026 18.8615 53.9689 18.7739C53.9036 18.6111 53.8546 18.4818 53.8016 18.3566C53.7649 18.1104 53.6343 17.8642 53.4547 17.6013C52.9569 16.6499 52.5488 15.6025 51.9204 14.9348C51.0553 13.8457 50.0923 12.4352 49.0558 11.3837C48.5498 10.8328 48.256 10.2653 47.7378 9.76458C47.2358 9.30556 47.1502 9.485 46.4279 8.87575C45.6526 8.27903 44.9017 7.59467 44.0652 6.97709L44.0162 7.04385C44.004 7.00212 43.9713 6.93953 44.0652 6.97709L43.7387 6.7434L43.6898 6.81017C43.3348 6.5598 43.0083 6.32611 42.6778 6.09243C42.5839 6.05487 42.4289 5.98811 42.3024 5.93803L42.184 5.87961L42.1106 5.81285C41.8209 5.57916 41.4046 5.43729 41.2537 5.23699C41.4454 5.23699 42.0738 5.61672 42.131 5.52074C40.9721 4.78631 40.2457 4.49838 39.752 4.52759C39.5234 4.39406 39.2011 4.22297 39.2256 4.1729C39.4133 4.01433 38.9032 3.83907 38.2421 3.60956C37.7035 3.43012 37.5443 3.4802 37.5607 3.61373C37.4097 3.54696 37.3199 3.50941 37.1975 3.45933C37.0547 3.37587 36.8996 3.31745 36.8017 3.29659L36.8547 3.34249C36.7078 3.26738 36.5854 3.21313 36.463 3.1714C35.9978 3.00449 35.2633 2.81253 35.5081 2.69152C35.704 2.60806 35.402 2.47036 34.8593 2.29927C34.4104 2.16991 33.9779 1.96543 33.4882 2.01551C34.0309 2.19077 34.6593 2.50791 34.4553 2.62475C34.2227 2.58302 33.9534 2.51208 33.68 2.44532C33.5249 2.29509 33.4025 2.14904 33.1536 1.99465C33.0964 1.91536 33.0312 1.84859 32.77 1.78183C32.7374 1.59822 32.6068 1.41044 32.3211 1.231C32.5782 1.2477 32.8557 1.27691 33.1291 1.30612C33.9656 1.45217 34.8144 1.71089 35.5163 2.0781C35.9692 2.32013 36.5528 2.49539 37.0914 2.58302C37.8382 2.90851 38.5482 3.21313 39.2949 3.53862C41.1312 4.40241 42.8614 5.4039 44.4733 6.4054L44.4406 6.38871C45.3751 6.98126 46.1831 7.84922 47.089 8.54192C47.4399 8.77143 47.8561 9.19289 48.2601 9.6227C48.3866 9.74372 48.5376 9.88977 48.6845 10.0358C48.9701 10.2945 49.268 10.6367 49.5455 10.9497C50.4106 12.0388 51.239 12.9902 51.9653 14.0251C51.9245 13.925 51.9245 13.925 51.9 13.8624C51.9 13.8624 51.9 13.8624 51.9367 13.9208L51.9653 14.0251C52.202 14.3798 52.4631 14.8305 52.6835 15.0266L52.8059 15.2019L52.9079 15.3855C53.263 16.0406 53.5608 16.7917 53.9403 17.2758C54.0301 17.4302 54.0546 17.4552 54.1362 17.618C54.3321 18.0686 54.5443 18.5193 54.732 18.8615C54.7728 18.9616 54.7769 18.9616 54.7973 18.9533C54.8299 18.9783 54.8299 18.9408 54.8095 18.8323C54.5687 17.7432 54.0832 16.6499 53.3405 15.4773C53.1528 15.1727 52.8875 14.7512 52.6835 14.4174C51.4062 12.0221 49.7699 10.3071 47.9826 8.82985C47.7378 8.57948 47.5378 8.38335 47.3419 8.2832C47.1012 8.07873 46.8564 7.87843 46.685 7.81167C46.4442 7.61137 46.2565 7.45697 46.0688 7.30257C45.726 7.00212 45.4159 6.72671 45.0731 6.43044C43.6327 5.15353 41.9596 4.18959 40.2376 3.40091C39.4622 3.02535 38.6053 2.76246 37.7851 2.32013C37.1812 1.97378 36.3814 1.64412 36.6425 2.05307C36.6833 2.14487 36.1569 1.9863 35.8305 1.88198C35.2102 1.70254 34.5002 1.44382 33.831 1.30194C33.7616 1.29777 33.631 1.26856 33.5657 1.23518C33.4392 1.17676 33.3046 1.14755 33.1005 1.13503C33.0271 1.1392 32.9291 1.11834 32.7986 1.07243C32.2191 0.880481 31.6315 0.713566 31.0357 0.584206C30.848 0.521612 30.6032 0.467365 30.2686 0.41729C30.2318 0.342178 30.1217 0.283757 29.8075 0.246201C29.6605 0.212818 29.5585 0.196126 29.379 0.179435L29.2729 0.196126C29.2362 0.200299 29.2362 0.200299 29.2362 0.200299C29.2729 0.196126 29.3096 0.18778 29.3749 0.179435C29.3055 0.112668 29.1586 0.0751122 28.8036 0.0709393L28.7669 0.0584206V0.0667664C28.7302 0.0208645 28.5873 0.0041729 28.3343 0C28.265 0.0208645 28.0895 0.0333832 28.0487 0.0166916C27.3836 0.0667664 26.7184 0.166916 26.0573 0.283757C25.6901 0.250374 25.2861 0.271238 24.9148 0.31714C23.3029 0.413117 21.7808 0.655145 20.1731 1.01401L20.1772 1.02653L20.1812 1.03905L20.1731 1.00984C19.4671 1.0015 18.5735 1.40627 17.7737 1.58987C17.4146 1.60239 16.9575 1.76096 16.574 1.91119C16.3332 1.94874 16.0027 2.05724 15.6477 2.19494C15.2274 2.35351 15.3947 2.40359 15.1498 2.52878C14.9621 2.62058 14.7907 2.73742 14.7418 2.80419C14.6316 2.89182 14.1011 3.13385 14.2358 3.18809C14.297 3.234 14.4112 3.24234 14.6805 3.17558C14.7948 3.25903 15.109 3.2173 15.5661 3.08794L15.6517 3.0337L15.6558 3.04204C15.6232 3.05456 15.5905 3.06708 15.5661 3.08794C15.8762 3.14219 16.2189 3.20061 16.5291 3.25486C16.5699 3.36753 16.7005 3.4343 17.1167 3.34666C16.8923 3.48854 16.6678 3.63459 16.4638 3.79316C15.8558 4.15203 15.0356 4.43996 14.6969 4.90733C13.8726 5.52074 12.8973 6.1133 12.2403 6.82686L12.2934 6.78513C11.9057 7.20659 11.2691 7.59467 10.9957 7.98693L10.9917 7.98275C10.8203 8.16636 10.5142 8.40004 10.3469 8.63373L10.2898 8.72553L10.1837 8.81733C9.81236 9.18872 9.43693 9.56428 9.05335 9.94819C8.55551 10.353 8.05361 10.7869 7.66595 11.3711C7.14771 12.0889 6.14794 13.2114 5.58073 14.1169C5.00944 15.0809 4.12802 16.0072 3.81789 17.0213L3.8628 16.9795C3.83831 17.0379 3.83423 17.0338 3.83423 17.0338L3.81789 17.0213C3.23028 18.052 2.70798 19.1327 2.25503 20.2469C1.93266 20.8937 1.67556 21.6198 1.47153 22.4377C1.4144 22.6296 1.3532 22.8216 1.30015 23.0135C0.790068 24.4866 0.373841 26.0639 0.226938 27.6955C0.124922 28.5426 0.0310698 29.2979 0.177973 29.9948C0.198376 30.12 0.190224 30.1867 0.161659 30.2452C0.096369 30.4329 0.0759528 30.6875 0.0718722 31.0046C-0.0995144 31.7683 0.0841161 32.5862 0.124922 33.3707L0.145321 33.3999H0.149405H0.145321C0.14124 33.3999 0.129003 33.3957 0.124922 33.3707C0.0596323 33.6961 0.104512 34.2052 0.194286 34.6392H0.202455C0.157569 34.9355 0.312632 35.4863 0.328954 35.8744C0.361599 35.9662 0.369767 36.058 0.361606 36.1248C0.32488 36.2959 0.361607 36.5796 0.439139 36.9218C0.496268 37.4309 0.622768 37.9609 0.847203 38.3281C0.920654 38.6995 1.01451 39.05 1.17773 39.3504C1.30831 39.7969 1.43073 40.2059 1.55723 40.619C1.81431 41.2449 2.01426 42.1171 2.34479 42.6762C2.4468 42.9391 2.55289 43.2062 2.64267 43.4357C2.83038 43.8947 2.98138 44.3704 3.22213 44.65C3.30375 44.8086 3.38127 44.9671 3.44656 45.0965C3.49961 45.23 3.56082 45.3552 3.64651 45.4721C3.71588 45.5973 3.76486 45.6891 3.83423 45.8101C4.37287 46.9326 4.98497 47.9716 5.695 48.9481C5.88271 49.2068 6.01736 49.3278 6.07041 49.2903C6.12346 49.2527 6.0337 49.0524 5.85415 48.7937C5.31551 47.9299 4.70339 46.9451 4.18107 46.1063C4.00153 45.7642 3.80567 45.3886 3.6098 45.0172C3.09564 44.3203 2.89976 43.3272 2.50802 42.6095L2.51211 42.6846C2.35296 42.2548 2.2183 41.8876 2.05508 41.4577C1.87961 41.1072 1.78166 40.5814 1.62659 40.2226C1.57354 40.0264 1.52051 39.8345 1.46338 39.6425C1.4797 39.6759 1.49603 39.7135 1.51643 39.7427L1.50826 39.7469C1.55315 39.8303 1.58171 39.8846 1.63068 39.968C1.61027 39.8762 1.59803 39.8178 1.58171 39.7302C1.58171 39.7343 1.58171 39.7427 1.58171 39.7469V39.7176C1.58171 39.7218 1.58172 39.726 1.5858 39.7302C1.59804 39.6509 1.56539 39.5132 1.56131 39.3922C1.58172 39.2169 1.50826 38.9164 1.43073 38.6118L1.41442 38.616H1.40625L1.43073 38.6077C1.43481 38.5367 1.42665 38.4491 1.41033 38.3489C1.63885 39.2544 1.92449 40.1474 2.25094 41.0154C2.54067 41.8416 2.96505 42.647 3.23845 43.5525C3.42616 44.2369 3.76486 45.0464 3.8628 44.5665C3.89952 44.4747 4.1566 44.963 4.31574 45.2718C4.62995 45.8476 4.95231 46.5445 5.32773 47.1287C5.37262 47.1788 5.44608 47.2956 5.47057 47.3666C5.51954 47.5001 5.59297 47.6169 5.73171 47.7755C5.78476 47.8256 5.8419 47.9132 5.89903 48.0384C6.72332 49.6909 7.73939 51.2557 9.28595 52.5034C9.48998 52.6912 9.73075 52.9416 9.87765 53.1335C10.1184 53.5341 10.5469 53.9431 10.9509 54.2685C12.1587 55.366 13.3992 56.2966 14.7826 57.2021L14.7907 57.1896L14.7989 57.177L14.7826 57.2021C15.2722 57.7195 16.1863 58.0784 16.8841 58.5249C17.1453 58.7753 17.5778 58.9923 17.9573 59.1633C18.1532 59.3136 18.4633 59.4721 18.8061 59.6349C19.2141 59.8268 19.1284 59.6683 19.3896 59.7601C19.5855 59.831 19.7895 59.8727 19.867 59.8602C20.0058 59.8769 20.5485 60.0897 20.4914 59.9562C20.4832 59.8811 20.4057 59.7893 20.169 59.6432C20.1445 59.5055 19.8956 59.3052 19.4835 59.0632L19.3855 59.0382L19.3896 59.0298C19.4222 59.0423 19.4549 59.059 19.4835 59.059C19.3039 58.7961 19.0999 58.504 18.9203 58.2453C18.9775 58.116 18.9081 57.9407 18.3409 57.611C18.2878 57.4942 18.1695 57.3565 18.1205 57.2313C18.5327 57.4274 18.9856 57.611 19.3814 57.7529C19.8099 57.9031 20.0588 57.8906 20.0915 57.8072C20.1935 57.7154 19.716 57.5359 19.4304 57.3857C19.0876 57.2104 18.8224 57.0143 18.8061 56.91C18.7653 56.7681 19.2631 56.9851 19.512 57.0393C20.3771 57.2563 21.4748 57.8322 22.4583 57.9657C22.9153 58.07 23.4947 58.3496 23.8946 58.2954L23.866 58.2745L23.8987 58.2829L23.8946 58.2954C24.5679 58.4373 25.2575 58.6543 25.8329 58.6417C25.7717 58.6167 25.7146 58.6 25.686 58.5791C25.7187 58.5875 25.7187 58.5875 25.7187 58.5875L25.8329 58.6459C26.445 58.7461 27.1877 58.8838 27.6937 58.8087L27.6325 58.7878L27.6937 58.7961V58.8087C28.6812 58.8546 29.7014 59.13 30.795 58.9171C31.656 58.7836 33.1413 58.7127 34.1697 58.4832C35.2429 58.2161 36.5038 58.1994 37.426 57.7028L37.3648 57.6987C37.4219 57.6736 37.4219 57.682 37.4219 57.682L37.426 57.7028C39.4663 57.1478 41.474 56.3466 43.3511 55.2826C44.5671 54.69 45.7791 53.9764 46.8931 53.1001H46.8971C46.942 53.1502 47.0563 53.1252 47.2807 52.9541L47.3909 52.8164L47.395 52.8205C47.395 52.8205 47.3256 52.8998 47.2807 52.9541C47.3827 52.9541 47.5092 52.9332 47.6643 52.8706C47.3827 53.096 47.0767 53.3881 46.7992 53.5299L46.8237 53.5091C46.5217 53.6802 46.1014 54.014 45.8076 54.135C45.1384 54.3645 44.4488 55.028 43.7102 55.3744C43.547 55.4578 43.3184 55.5705 43.0981 55.6832C42.6859 55.8209 42.1718 56.1964 41.7229 56.3258C41.4944 56.4218 41.323 56.4927 41.1516 56.5636C40.4049 56.9267 39.6704 57.2772 38.8828 57.4483L38.7685 57.4984L38.6788 57.5192C36.3528 58.0993 34.6553 58.7294 32.8598 59.1592C36.2712 58.7961 39.5887 57.7487 42.6411 56.2298C42.8655 56.113 43.0614 56.0128 43.3103 55.8834C43.8734 55.7416 44.4814 55.341 45.0527 54.9404C45.371 54.7359 45.6607 54.5481 45.9831 54.3437C46.2932 54.1851 46.6646 53.893 46.9665 53.7094C47.089 53.6092 47.1665 53.555 47.2481 53.5049C47.5501 53.3755 47.8806 53.0709 48.2234 52.7872C48.3254 52.7079 48.4519 52.6119 48.5253 52.5493C48.6559 52.4617 48.8314 52.3699 48.9334 52.2906C49.0803 52.1445 49.2231 52.0027 49.3659 51.8566C49.4557 51.8232 49.5781 51.7356 49.7781 51.5353L49.8107 51.5144L49.8066 51.5103C49.8638 51.5186 49.9739 51.4226 50.1576 51.2432C50.1943 51.1806 50.3086 51.0429 50.3494 51.0262C51.2961 49.8953 52.1163 48.6184 52.8753 47.354C53.1691 46.9117 53.4303 46.4193 53.6465 45.9686C53.8628 45.6765 54.0587 45.3552 54.1729 45.0423C54.2668 44.9087 54.3606 44.7835 54.4627 44.6625C55.0503 43.1019 55.695 41.4911 55.9235 39.9722C56.1071 39.2795 56.4866 38.4825 56.405 37.9066C56.5642 36.8759 56.8457 35.7534 56.8131 34.7728L56.809 34.8771ZM51.3206 12.8567L51.3042 12.8692C51.3042 12.8692 51.3124 12.865 51.3042 12.8317L51.3206 12.8567ZM15.6028 2.64979C15.5946 2.62893 15.5538 2.61641 15.6436 2.56633C15.6721 2.54129 15.7374 2.52878 15.766 2.50374C15.6844 2.57468 15.5905 2.62893 15.6028 2.64979ZM19.1488 59.3803C19.1407 59.4012 19.1611 59.4388 19.0632 59.4054C19.0264 59.4054 18.9693 59.3636 18.9326 59.3595C19.0387 59.3762 19.1407 59.4054 19.1488 59.3803ZM55.0421 29.5984H55.0299V29.5316L55.0421 29.5984ZM54.8626 33.5584C54.8993 32.9283 54.9523 32.2941 54.8544 31.7265C54.9727 32.2315 54.9034 32.895 54.8626 33.5584ZM54.9074 21.6031C54.8789 21.5739 54.8177 21.4111 54.7809 21.3903C54.7646 21.3193 54.7401 21.2192 54.7238 21.1524C54.7932 21.3152 54.8707 21.5113 54.9074 21.6031ZM54.6748 25.246L54.6871 25.2419C54.6789 25.2794 54.6667 25.3796 54.6422 25.3211C54.6422 25.3211 54.6626 25.2836 54.6748 25.246ZM54.1199 31.2133H54.128L54.1199 31.2467V31.2133ZM53.4751 28.9641C53.4833 29.0893 53.5241 29.1519 53.5078 29.2478C53.4915 29.5024 53.4466 29.2228 53.4099 29.0934C53.4384 29.0893 53.467 29.0893 53.4751 28.9641ZM53.0915 33.404H53.112L53.0997 33.4666C53.0875 33.5 53.0915 33.404 53.0915 33.404ZM47.2073 48.9231C47.2522 48.8354 47.3012 48.7436 47.3501 48.656C47.3787 48.2262 47.9132 47.4625 48.3172 46.5862C48.154 47.2205 47.7296 47.9508 47.3501 48.656C47.346 48.6935 47.3256 48.7436 47.3297 48.7728C47.3134 48.802 47.2726 48.8521 47.2073 48.9231ZM10.9957 48.4891C10.9631 48.4682 10.9223 48.4223 10.8896 48.4098L10.8856 48.414L10.8692 48.3931C10.8039 48.3263 10.8243 48.3514 10.8039 48.3263L10.808 48.3222C10.808 48.3222 10.8325 48.343 10.8692 48.3889C10.8937 48.4056 10.8937 48.4056 10.8937 48.4056L10.9468 48.439C10.9631 48.4599 10.9794 48.4724 10.9957 48.4891ZM6.04593 46.9868C6.02552 46.9618 6.00919 46.9409 6.00919 46.9409C6.06224 46.9743 6.08265 46.9576 6.07041 46.895C6.06633 46.8867 6.05818 46.8783 6.0541 46.87C6.06226 46.8783 6.06633 46.8867 6.07449 46.895C5.81333 46.3818 5.58889 45.6974 5.80924 45.7642C6.07448 46.1523 6.35605 46.7156 6.6825 47.1037C6.82941 47.3248 6.99671 47.5752 7.16402 47.8214C7.4211 48.464 7.47006 48.5892 7.33948 48.7812C7.18034 48.5016 6.95183 48.2178 6.70699 47.8757C6.60089 47.5627 6.31932 47.2414 6.06632 46.8992C6.08265 46.9576 6.06633 46.9701 6.04593 46.9868ZM6.82532 37.6103L6.84982 37.6062V37.6687L6.82532 37.6103ZM6.45399 39.3379C6.40502 39.292 6.37237 39.2795 6.3438 39.2753C6.31524 39.4464 6.27036 39.5883 6.20099 39.6717C6.23364 39.5048 6.22547 39.2544 6.3438 39.2753C6.36013 39.171 6.38054 39.0625 6.37646 38.9248C6.42951 39.0959 6.39278 39.171 6.45399 39.3379ZM5.55216 44.4247C5.55216 44.4247 5.53586 44.3955 5.52362 44.3662C5.60115 44.5123 5.72764 44.7043 5.81741 44.8044L5.79701 44.8169C5.72356 44.7084 5.65418 44.5958 5.55216 44.4247ZM5.10739 41.6998C5.0421 41.5871 5.00944 41.5329 4.99312 41.5036C4.97271 41.4452 4.95231 41.3826 4.94007 41.3492C4.98495 41.441 5.05434 41.5829 5.10739 41.6998ZM4.22596 37.9567C4.20147 37.9609 4.16069 37.9066 4.11988 37.819C4.11988 37.819 4.11987 37.819 4.10763 37.7564C4.14027 37.8482 4.19331 37.965 4.22596 37.9567ZM1.66333 35.5614C1.64293 35.5322 1.62251 35.4488 1.62251 35.4488H1.63068C1.64292 35.5322 1.65109 35.5322 1.66333 35.5614ZM2.39784 38.3239C2.34479 38.3406 2.37337 38.52 2.43458 38.7537C2.37337 38.616 2.30398 38.4783 2.28765 38.2905C2.2999 38.1987 2.35703 38.2738 2.39784 38.3239ZM3.74853 36.7173C3.68324 36.6005 3.61794 36.4461 3.56081 36.1289C3.6261 36.3793 3.68732 36.5629 3.74853 36.7173ZM3.95664 38.2571C3.94032 38.061 3.91584 37.9024 3.98521 37.8857C3.92808 37.8983 3.93624 38.061 3.95664 38.2571ZM1.28383 29.1936L1.27975 29.252H1.2675V29.2228C1.27158 29.1936 1.27158 29.1936 1.27158 29.1936H1.28383ZM1.11243 30.3662V30.3954C1.10835 30.4037 1.10837 30.4163 1.10428 30.4288C1.08388 30.5873 1.07164 30.7167 1.05532 30.8544C1.05124 30.8961 1.05123 30.9337 1.04715 30.9754C1.04715 30.9128 1.04715 30.9128 1.04715 30.9128C1.05123 30.892 1.05124 30.8711 1.05532 30.8502C1.06348 30.6833 1.07572 30.5456 1.10428 30.4246C1.10837 30.4079 1.11243 30.387 1.11243 30.3662ZM0.643171 34.9564C0.667655 34.9605 0.692132 34.948 0.712535 34.923C0.720696 35.019 0.728856 35.0774 0.737018 35.1734C0.712534 35.0899 0.675816 35.0231 0.643171 34.9564C0.56972 34.948 0.488104 34.8187 0.410572 34.6851C0.488104 34.7394 0.56972 34.8354 0.643171 34.9564ZM4.30349 42.8139C4.3647 42.9683 4.40144 43.0601 4.45041 43.1853C4.4953 43.3481 4.56466 43.5025 4.6177 43.5859L4.61362 43.515C4.66667 43.6735 4.71564 43.7987 4.77277 43.9198C4.98496 44.3746 5.37672 45.0423 5.11555 44.9505C5.0421 44.9212 5.01352 44.9421 5.0176 45.0089C4.94007 44.8503 4.85846 44.6917 4.78908 44.5457L4.785 44.5499C4.785 44.3329 4.4912 43.949 4.35245 43.611C4.30757 43.3564 4.23006 43.081 4.0954 42.7639C4.18925 42.8724 4.2586 42.8765 4.30349 42.8139ZM11.4976 10.4406C11.5017 10.4364 11.5017 10.4322 11.5058 10.4281C11.5058 10.4322 11.5017 10.4364 11.4976 10.4406ZM30.6195 4.41075L30.6154 4.44831C30.6114 4.48169 30.4644 4.45666 30.4604 4.47752C30.4644 4.44414 30.6154 4.44414 30.6195 4.41075ZM28.7506 4.14786C28.6894 4.13951 28.7506 4.14369 28.722 4.13951C28.6894 4.13951 28.571 4.13951 28.571 4.13951L28.6322 4.13117C28.7546 4.10613 28.9628 4.10196 29.1464 4.10613C29.0525 4.13534 28.8159 4.11865 28.7506 4.14786ZM29.1464 4.43579C29.1464 4.43996 29.1138 4.44414 29.0525 4.43579C29.024 4.43996 29.024 4.43996 29.024 4.43996L28.9628 4.45666C28.9383 4.45666 28.9179 4.46083 28.8975 4.46083C28.9342 4.45248 28.9995 4.45666 29.0281 4.44414V4.43579L29.0566 4.43996C29.1464 4.43579 29.1178 4.43579 29.1464 4.43579ZM49.2843 41.4452C49.2966 41.3826 49.3455 41.3117 49.37 41.2908L49.3864 41.2992C49.3537 41.3492 49.2762 41.537 49.2843 41.4452ZM49.3496 41.6455L49.3251 41.6914L49.3292 41.6372C49.3211 41.6455 49.3129 41.658 49.3047 41.6664C49.3047 41.6622 49.3047 41.6539 49.3047 41.6455C49.3129 41.6497 49.3251 41.633 49.3374 41.6121C49.3333 41.6205 49.3292 41.6247 49.3251 41.633L49.3496 41.6455ZM52.2469 33.1954C52.2346 33.283 52.2305 33.3164 52.2142 33.4333C52.2142 33.3122 52.1938 33.3122 52.1897 33.2789C52.2142 33.1912 52.2306 33.2246 52.2469 33.1954ZM51.696 18.6695C51.7041 18.6821 51.7001 18.6779 51.7123 18.7071L51.696 18.6779C51.696 18.6695 51.696 18.6695 51.696 18.6695C51.6797 18.6403 51.6674 18.6111 51.6593 18.5903C51.6429 18.5235 51.6388 18.4943 51.6388 18.4943C51.6429 18.5193 51.6593 18.5861 51.696 18.6695ZM51.5695 15.8361C51.5817 15.857 51.5817 15.857 51.5817 15.857C51.5777 15.8487 51.5736 15.8403 51.5695 15.8361C51.5695 15.8361 51.5695 15.8361 51.5654 15.832L51.5491 15.8028C51.5491 15.8028 51.5613 15.8153 51.5695 15.8361ZM51.1777 15.4773L51.1655 15.4856C51.1655 15.4856 51.1655 15.4856 51.1492 15.4564C51.1737 15.4815 51.1777 15.4773 51.1777 15.4773ZM42.7023 7.82001C42.4819 7.69065 42.3146 7.60302 42.1636 7.54043C42.2901 7.58216 42.4452 7.6364 42.7023 7.82001ZM41.0088 7.00212C41.0414 7.00212 41.0823 7.01047 41.1394 7.03133C41.1394 7.03133 41.1394 7.03133 41.1924 7.06889C41.1312 7.03968 41.0537 7.01047 41.0088 7.00212ZM41.1924 6.88111C41.221 6.83521 41.1067 6.72671 40.9557 6.60152C41.1026 6.72671 41.2251 6.82269 41.1924 6.88111ZM37.9728 5.05755C38.0299 5.08676 38.0871 5.1118 38.1156 5.12849C38.0259 5.09511 37.879 5.04503 37.7565 5.0033C37.883 5.03252 37.9402 5.04921 37.9728 5.05755ZM35.1164 3.28824C35.2429 3.31745 35.3694 3.34666 35.5612 3.38839C35.5612 3.38839 35.5938 3.39674 35.6224 3.40926C35.4673 3.36336 35.2429 3.31745 35.1123 3.30911L35.1164 3.28824ZM29.7544 0.25872C29.7258 0.267065 29.7095 0.275411 29.6606 0.283757V0.271238L29.7544 0.25872ZM24.9597 0.421463C24.9597 0.421463 24.9597 0.421463 25.025 0.425636C24.9597 0.429808 24.8209 0.433981 24.7516 0.438154L24.9597 0.421463ZM5.65418 14.6886C5.65418 14.7178 5.65012 14.7595 5.65012 14.7971C5.65012 14.7971 5.65012 14.7971 5.65012 14.8013C5.64196 14.7721 5.64193 14.7387 5.65418 14.6886ZM5.61338 14.8597C5.61338 14.8639 5.6093 14.8639 5.6093 14.868C5.57665 14.8806 5.53584 14.9056 5.49911 14.9223C5.544 14.8931 5.58074 14.8806 5.61338 14.8597ZM0.300387 32.6029C0.288145 32.6446 0.275901 32.6821 0.247336 32.6488C0.247336 32.6488 0.247357 32.6488 0.243277 32.5862C0.271841 32.6529 0.288145 32.6362 0.300387 32.6029ZM0.965532 37.9775C0.965532 37.9817 0.969617 37.9817 0.969617 37.9859H0.965532C0.965532 37.9859 0.965532 37.9817 0.965532 37.9775ZM3.91585 43.878C3.83832 43.6861 3.76484 43.4983 3.69139 43.3063C3.72404 43.3522 3.75262 43.3981 3.78526 43.4399C3.80567 43.5817 3.90361 43.7987 3.99338 43.9907C3.9689 43.9573 3.94441 43.9156 3.91585 43.878ZM5.8419 47.6503C5.35222 46.9409 4.93191 46.1439 4.68707 45.3761C4.6585 45.2801 4.62177 45.1841 4.58097 45.0882C4.66666 45.23 4.74828 45.3719 4.79317 45.5013C4.85846 45.7183 5.07474 46.0229 5.23388 46.2858C5.27061 46.3359 5.32367 46.3734 5.36855 46.4193C5.96841 47.2497 6.50296 48.1219 7.2742 48.8688C7.25788 48.8897 7.24155 48.9105 7.22115 48.9356C7.0008 49.1025 6.40502 48.3514 5.8419 47.6503ZM7.51903 42.0795C7.67001 42.0712 7.71081 41.8625 7.64144 41.4828C7.68633 41.7165 7.73122 41.9501 7.77203 42.1504C7.87404 42.5636 7.65369 42.2464 7.51903 42.0795ZM7.85364 47.2581C7.88629 47.2748 7.81692 47.1287 7.90261 47.2247C7.9883 47.3207 7.92302 47.2915 7.96383 47.3791C7.93935 47.354 7.89445 47.3081 7.85364 47.2581ZM9.74706 47.2789L9.77563 47.2539C9.80012 47.233 9.88989 47.3582 9.90622 47.3457C9.88173 47.3666 9.77155 47.2581 9.74706 47.2789ZM10.5795 48.5558C10.6611 48.6059 10.8203 48.7895 10.8856 48.8146C10.9264 48.8646 10.8815 48.8187 10.9019 48.8396C10.9223 48.8605 11.008 48.9481 11.008 48.9481L10.959 48.9105C10.8611 48.8396 10.706 48.6935 10.5795 48.5558ZM10.9917 54.1934C10.9917 54.1934 10.9917 54.1934 10.9468 54.1434C10.9957 54.1893 11.0978 54.2811 11.1467 54.3311L10.9917 54.1934ZM12.1179 53.6969C12.122 53.6885 12.1097 53.6718 12.1097 53.6635C11.918 53.4465 11.8078 53.2629 11.6241 53.05L11.567 53.0125C11.567 53.0125 11.5997 53.025 11.5752 53.0041C11.5997 53.025 11.5997 53.025 11.6282 53.05C12.0771 53.4173 12.1383 53.5633 12.1138 53.6635C12.1506 53.7052 12.171 53.7428 12.2158 53.7887C12.1669 53.7428 12.1669 53.7428 12.1179 53.6969ZM14.1378 50.2333C14.2521 50.2792 14.2806 50.2876 14.3623 50.321C14.3215 50.3251 14.3745 50.3961 14.3827 50.4295C14.297 50.3544 14.2154 50.3168 14.1378 50.2333ZM15.6068 53.6092L15.615 53.5967L15.6354 53.6217C15.6069 53.6092 15.6068 53.6092 15.6068 53.6092ZM18.6184 53.8512C18.753 53.9097 18.7857 53.8972 18.8754 53.9222C18.7897 53.8972 18.7693 53.9347 18.6184 53.8512ZM20.0915 54.6441C20.12 54.6566 20.12 54.6524 20.12 54.6524V54.6566L20.0915 54.6441C20.0711 54.6399 20.0588 54.6399 20.0384 54.6358C19.9201 54.6942 19.6834 54.6399 19.4182 54.5398C19.3039 54.5106 19.1856 54.4647 19.0387 54.3812C19.0224 54.3729 19.0142 54.377 18.9979 54.3645C18.8918 54.3144 18.8918 54.3144 18.8142 54.2769C18.8877 54.3103 18.9652 54.3436 19.0387 54.377C19.1652 54.4355 19.2958 54.4897 19.4182 54.5356C19.6304 54.5899 19.8099 54.5815 20.0384 54.6316C20.0466 54.6274 20.0588 54.6316 20.067 54.6274C20.0792 54.6274 20.0588 54.6149 20.0711 54.6149C19.9854 54.5189 19.9201 54.4438 19.8344 54.3437C19.8221 54.3353 19.8099 54.327 19.7977 54.3186C19.8222 54.3311 19.8222 54.3311 19.8222 54.3311C19.8099 54.3144 19.7732 54.2852 19.7568 54.2644C19.4712 54.0724 19.2019 53.8763 18.9938 53.6843L18.9856 53.6969C18.6959 53.5132 18.3572 53.2962 18.3572 53.2962C18.3572 53.2962 18.6714 53.4924 18.9122 53.6426C18.9611 53.6718 18.9611 53.6718 18.9897 53.6843C19.3896 53.9013 19.6222 54.1058 19.7528 54.2644C19.7977 54.2936 19.8262 54.327 19.8711 54.3562C19.8711 54.3562 19.8711 54.3562 19.8181 54.3311C19.8221 54.3353 19.8262 54.3395 19.8303 54.3437C20.0221 54.4688 20.2098 54.5899 20.067 54.6149C20.0792 54.6316 20.0833 54.6357 20.0915 54.6441ZM20.8219 54.7735L20.5077 54.6358C20.6138 54.6775 20.7403 54.7484 20.8831 54.786C20.879 54.7818 20.8505 54.7776 20.8219 54.7735ZM22.4419 56.9267L22.446 56.9183V56.9142L22.4419 56.9267ZM23.9844 56.1797C24.017 56.163 23.9109 56.1297 23.915 56.1088C23.9395 56.1338 23.9885 56.1672 24.0701 56.2048C24.013 56.1881 24.013 56.1881 23.9844 56.1797ZM26.1227 56.6888V56.6805L26.1798 56.7055L26.1227 56.6888ZM27.5223 56.8933C27.3836 56.8182 27.2203 56.7431 27.0571 56.6805C27.1714 56.6888 27.3999 56.7013 27.6039 56.7139C27.7141 56.7765 27.7916 56.839 27.5223 56.8933ZM29.7503 55.0864C29.7789 55.1073 29.8564 55.124 29.9666 55.149C29.9666 55.149 29.9911 55.1699 30.0441 55.1782V55.1866C29.9911 55.1699 29.9666 55.149 29.9666 55.149C29.8319 55.1198 29.7789 55.1115 29.7014 55.0948C29.7503 55.0948 29.7503 55.0864 29.7503 55.0864ZM30.036 55.5246C30.0645 55.5246 30.0645 55.5246 30.0645 55.5246C30.036 55.5454 29.9544 55.5663 29.8728 55.583C29.9544 55.5663 29.9788 55.5454 30.036 55.5246ZM34.6145 57.9616C34.6104 57.9657 34.6022 57.9699 34.5981 57.9782C34.5859 58.0075 34.5573 58.0367 34.5084 58.0659C34.5328 58.045 34.5696 58.0075 34.5981 57.9782C34.6063 57.9616 34.6104 57.9449 34.6063 57.9282C34.6104 57.9657 34.7042 57.9866 34.7736 58.0116C34.7124 57.9949 34.6757 57.9657 34.6145 57.9616ZM37.0139 55.0948C36.9037 55.1323 36.7609 55.1949 36.7445 55.1365C36.6915 55.1532 36.7405 55.1156 36.6589 55.1323C36.6629 55.1282 36.667 55.124 36.6711 55.1198C36.6915 55.1115 36.716 55.1031 36.7364 55.0948L36.7486 55.1365L36.9159 55.1156C36.9445 55.1073 36.9771 55.1031 37.0139 55.0948C37.0343 55.0906 37.0547 55.0781 37.071 55.0739V55.0823C37.0628 55.0823 37.0343 55.0906 37.0139 55.0948ZM42.5594 52.4951C42.184 52.6787 41.8535 52.8164 41.727 52.7454C41.5434 52.687 41.9229 52.47 42.2371 52.2614C42.3717 52.1696 42.5472 52.036 42.4452 52.0193C42.2248 52.0652 41.9229 52.3031 41.7596 52.2822C42.0371 52.0611 42.4003 51.9359 42.6941 51.6939C42.6247 51.7105 42.5798 51.7189 42.5594 51.7064C42.5472 51.7105 42.535 51.7147 42.5227 51.7189C42.5472 51.7022 42.5472 51.7022 42.5472 51.7022C42.5472 51.7064 42.5554 51.7022 42.5594 51.7064C42.6247 51.6855 42.6819 51.6688 42.6941 51.6939C42.7349 51.6521 42.8002 51.6104 42.8777 51.5812C43.2613 51.431 43.6612 51.0554 44.0652 50.876C44.6242 50.5922 45.0568 50.1707 45.5179 49.7076L45.5424 49.6909L45.5832 49.6533C45.5628 49.67 45.5628 49.67 45.5628 49.67C45.9015 49.1901 45.4526 49.5824 45.1751 49.791L45.0527 49.8912L44.9792 49.9329C44.7548 49.9913 44.3631 50.3627 44.1386 50.4128C45.0894 49.6366 46.0688 48.8521 46.9012 47.9383C46.9584 47.8798 47.0196 47.8172 47.0849 47.7546C47.0767 47.7713 47.0686 47.7839 47.0686 47.7922C47.0114 47.9049 47.1093 47.8298 47.1828 47.7296C47.2399 47.6587 47.2889 47.5794 47.2889 47.5794C47.2848 47.5752 47.2767 47.571 47.2726 47.5669C47.4277 47.4041 47.5582 47.2497 47.5623 47.1287C47.5827 46.9743 47.6643 46.8074 47.7786 46.628C47.9989 46.5195 48.3254 46.1898 48.4723 46.2232C48.3458 46.436 48.2886 46.5528 48.3009 46.6363C47.8316 47.2956 47.7051 47.6295 47.444 48.1093C47.191 48.5558 47.1134 48.8688 46.689 49.4196C46.4605 49.6825 46.2524 49.9412 46.0525 50.2C45.9953 50.2417 45.9423 50.2834 45.8852 50.321C44.8364 51.1263 43.7061 51.8274 42.5594 52.4951ZM43.7877 52.2614C43.8122 52.2447 43.9101 52.1863 43.9101 52.1863C43.9468 52.1779 43.9836 52.1529 44.0203 52.132C44.0734 52.0986 44.1264 52.0694 44.1631 52.0652C44.1142 52.0778 44.0693 52.107 44.0203 52.132C43.9469 52.1821 43.8652 52.2322 43.7877 52.2614Z" fill="#FAAE5D"/>
<path d="M32.6745 35.5C35.654 30.8246 35.2795 31.4079 35.3653 31.286C36.4501 29.7559 37.0234 27.9551 37.0234 26.0781C37.0234 21.1005 32.9842 17 28 17C23.0321 17 18.9766 21.0924 18.9766 26.0781C18.9766 27.9539 19.5619 29.8019 20.6823 31.3525L23.3254 35.5C20.4994 35.9343 15.6953 37.2285 15.6953 40.0781C15.6953 41.1169 16.3733 42.5973 19.6034 43.7509C21.8588 44.5564 24.8408 45 28 45C33.9076 45 40.3047 43.3336 40.3047 40.0781C40.3047 37.228 35.5062 35.9352 32.6745 35.5ZM22.0527 30.4501C22.0437 30.436 22.0342 30.4222 22.0244 30.4087C21.0921 29.1261 20.6172 27.6061 20.6172 26.0781C20.6172 21.9756 23.9206 18.6406 28 18.6406C32.0709 18.6406 35.3828 21.9771 35.3828 26.0781C35.3828 27.6086 34.9168 29.077 34.035 30.3258C33.956 30.43 34.3682 29.7895 28 39.7822L22.0527 30.4501ZM28 43.3594C21.5472 43.3594 17.3359 41.4626 17.3359 40.0781C17.3359 39.1476 19.4998 37.6175 24.2948 37.021L27.3082 41.7495C27.4588 41.9858 27.7197 42.1289 27.9999 42.1289C28.2802 42.1289 28.5411 41.9858 28.6917 41.7495L31.705 37.021C36.5001 37.6175 38.6641 39.1476 38.6641 40.0781C38.6641 41.4509 34.4907 43.3594 28 43.3594Z" fill="white"/>
<path d="M28 21.9766C25.7384 21.9766 23.8984 23.8165 23.8984 26.0781C23.8984 28.3397 25.7384 30.1797 28 30.1797C30.2616 30.1797 32.1016 28.3397 32.1016 26.0781C32.1016 23.8165 30.2616 21.9766 28 21.9766ZM28 28.5391C26.643 28.5391 25.5391 27.4351 25.5391 26.0781C25.5391 24.7212 26.643 23.6172 28 23.6172C29.357 23.6172 30.4609 24.7212 30.4609 26.0781C30.4609 27.4351 29.357 28.5391 28 28.5391Z" fill="white"/>
</svg>
