<svg width="367" height="503" viewBox="0 0 367 503" fill="none" xmlns="http://www.w3.org/2000/svg">
<g clip-path="url(#clip0)">
<path d="M357.761 31.5301C357.618 30.2835 357.522 28.5174 357.63 25.5046C357.713 34.7247 357.928 20.544 357.761 31.5301Z" fill="#FAAE5D"/>
<path d="M3.58082 411.007C3.54501 409.942 3.52114 408.825 3.5092 407.735V407.371C3.56888 408.903 3.59276 409.683 3.58082 411.007Z" fill="#FAAE5D"/>
<path d="M12.593 17.7907C12.7482 17.7907 12.9033 17.7907 13.0585 17.7648C12.975 17.8166 12.8675 17.8683 12.7482 17.8942L12.211 17.8425C12.3423 17.8166 12.4736 17.8166 12.593 17.7907Z" fill="#FAAE5D"/>
<path d="M97.9987 502.273C98.2016 502.273 98.4045 502.247 98.5955 502.247C98.2255 502.376 97.9748 502.454 97.9987 502.273Z" fill="#FAAE5D"/>
<path d="M120.069 500.948C119.759 501.052 119.353 501.129 118.876 501.207C119.258 501.078 118.171 500.715 120.069 500.948Z" fill="#FAAE5D"/>
<path d="M177.973 0.388245C177.723 0.440002 177.52 0.491759 177.341 0.517638L177.973 0.388245Z" fill="#FAAE5D"/>
<path d="M211.634 1.06487C211.228 1.11656 210.727 1.1424 210.059 1.11656C210.846 1.03902 211.336 1.03902 211.634 1.06487Z" fill="#FAAE5D"/>
<path d="M272.678 1.03891C274.528 1.09085 272.618 1.48043 273.394 1.71418C274.922 1.35057 275.996 1.84404 277.202 1.9739C276.617 2.12973 276.569 2.33751 276.712 2.54529C276.665 2.51931 276.605 2.49334 276.545 2.46737C273.585 2.23362 271.042 1.50641 272.678 1.03891Z" fill="#FAAE5D"/>
<path d="M276.903 2.75229C276.832 2.70053 276.772 2.62289 276.724 2.54526C276.939 2.62289 276.987 2.70053 276.903 2.75229Z" fill="#FAAE5D"/>
<path d="M277.226 1.97299C277.643 1.86947 278.312 1.76596 279.362 1.7142C278.551 2.02475 277.87 2.05062 277.226 1.97299Z" fill="#FAAE5D"/>
<path d="M323.539 500.377C323.205 500.455 323.05 500.558 323.086 500.765C322.441 500.532 322.835 500.455 323.539 500.377Z" fill="#FAAE5D"/>
<path d="M344.118 9.24447C344.034 9.24447 343.819 9.06332 343.533 8.80453C343.724 8.95981 343.927 9.0892 344.118 9.24447Z" fill="#FAAE5D"/>
<path d="M366.976 445.293C366.952 437.476 366.928 429.58 366.905 421.788C366.845 406.205 366.749 391.012 366.523 377.532C366.594 376.182 366.654 377.844 366.725 378.649C366.332 361.845 367.143 344.236 366.379 331.925L366.057 327.484C366.188 323.536 366.403 323.848 366.523 320.783C366.308 317.485 366.463 305.46 366.176 303.512C366.308 301.72 366.344 304.239 366.439 304.187C366.511 296.448 366.033 287.513 366.141 280.215L366.284 282.527C366.821 244.192 367.251 194.559 366.546 163.081C366.427 154.484 366.964 159.263 366.917 155.471C366.63 139.213 366.714 121.344 366.761 103.787C366.785 95.0346 366.797 86.3599 366.737 78.0229C366.714 73.8414 366.678 69.7638 366.606 65.7901C366.523 61.8423 366.546 57.8946 366.212 54.4143C365.783 48.8563 364.66 44.7008 363.503 41.9478C362.357 39.1428 361.211 37.5845 360.316 36.6235C359.396 35.7145 358.728 35.3249 358.298 35.1691C357.869 35.0132 357.678 34.9873 357.678 34.9873C360.328 37.065 362.584 41.3244 363.885 46.6487C364.553 49.2978 364.959 52.2067 365.138 55.1675C365.293 57.9725 365.221 61.5566 365.245 64.881C365.245 78.3605 365.21 91.6062 365.15 104.826C365.019 131.291 364.792 157.627 364.529 185.339C364.601 204.039 364.756 228.531 364.589 245.75C364.637 281.981 364.469 318.29 364.326 354.781C364.279 373.039 364.219 391.349 364.171 409.712C364.171 418.88 364.171 428.074 364.159 437.294L364.171 444.202L364.183 445.942C364.183 446.54 364.183 447.085 364.171 447.501C364.171 448.436 364.123 449.345 364.076 450.28C363.825 453.916 363.192 457.448 362.178 460.487C363.085 457.993 362.488 461.162 361.485 463.526L361.151 463.889C360.686 465.136 360.148 466.279 359.552 467.291C359.325 467.603 359.146 467.863 358.979 468.019C358.752 468.252 358.585 468.408 358.465 468.512C358.095 468.85 357.988 468.824 358.155 468.564C358.251 468.46 358.382 468.252 358.573 467.993C358.668 467.837 358.788 467.655 358.931 467.447C359.158 467.032 359.492 466.616 359.838 465.993C359.516 466.538 359.146 466.954 358.8 467.395L358.465 467.785C358.263 468.019 358.048 468.226 357.821 468.434L356.544 469.655L355.911 470.278C355.887 470.746 355.911 471.291 355.899 471.785L355.911 474.823V479.109C355.911 481.524 355.923 483.888 355.923 486.173L355.768 486.199H354.813C353.667 486.225 352.533 486.225 351.399 486.225C349.967 486.225 348.546 486.251 347.126 486.251C346.696 486.848 346.326 487.757 345.932 488.537L345.574 489.212L345.299 489.679C344.929 490.303 344.547 490.874 344.142 491.368C342.53 493.445 340.68 494.51 338.806 494.536C336.526 494.536 334.246 494.51 331.919 494.51C331.047 495.315 325.055 494.536 324.602 495.393C323.993 495.237 324.566 495.211 324.936 495.03C315.78 495.445 315.148 495.471 306.816 494.432C271.233 493.757 236.916 494.328 201.87 494.095C166.419 494.458 131.564 494.822 95.2056 495.185C89.6432 496.484 82.0038 495.887 75.4149 497.003L75.8327 496.614C70.2106 497.185 68.7782 496.484 61.6521 496.017C61.5805 496.458 58.9186 496.12 59.9452 496.874C57.4624 497.523 55.4809 495.809 51.9238 496.146C51.8045 495.913 52.0074 496.614 51.2554 496.38C42.0643 497.289 53.0101 495.965 41.3481 495.237C38.6743 495.289 35.9886 495.341 33.2909 495.393L29.328 495.471C28.1702 495.419 27.0123 494.978 25.9261 494.173C24.8279 493.367 23.7895 492.173 22.8465 490.666L22.5003 490.095L22.0467 489.212L21.4141 487.965C21.3067 487.809 21.2231 487.472 21.0918 487.446L20.6621 487.472L18.1674 487.498C16.0427 487.55 13.9418 487.602 11.841 487.628C11.8291 485.835 11.8291 484.043 11.8291 482.277L11.8171 477.784L11.8291 474.46V471.707C11.8171 471.551 11.841 471.369 11.8052 471.265L11.6142 471.083L10.0864 469.603C9.95505 469.473 9.82375 469.343 9.70439 469.213L9.41791 468.876C9.28661 468.746 9.15531 468.59 9.03594 468.408C8.52267 467.759 8.03327 467.032 7.57969 466.201C6.74413 464.694 6.00407 462.928 5.40724 460.98C5.7534 462.201 5.68178 462.798 4.96559 460.591C4.83429 459.032 4.23746 456.929 3.78387 454.279C3.30641 451.604 3.04381 448.618 3.17511 445.709C3.29448 446.28 3.31835 448.773 3.48546 450.098C3.3661 446.955 3.48546 442.93 3.46159 439.346C3.44965 435.735 3.44965 432.177 3.43772 428.671C3.41384 421.789 3.38997 414.958 3.50934 407.738C3.25867 393.817 3.77194 377.558 3.47353 368.234C3.70032 370.442 3.64064 362.001 3.74807 359.014C3.07962 348.911 3.9868 331.873 3.53321 319.225L3.65257 319.667C3.60483 281.851 3.76 240.712 3.44965 201.26C3.37803 179.054 3.97486 154.043 3.67645 129.655C3.59289 125.188 3.44965 128.72 3.37803 125.084C3.40191 118.955 3.59289 125.188 3.66451 122.773C3.40191 110.748 3.72419 94.9307 3.71226 79.8669C3.60483 78.0748 3.58095 73.8674 3.42578 75.2958C3.53321 71.1143 3.58095 66.5433 3.59289 61.7904V58.2062C3.61676 57.1674 3.6287 56.1285 3.68838 55.0896C3.80775 53.0118 4.04648 50.96 4.40457 48.9602C5.1327 45.0384 6.35022 41.5062 7.85423 38.935C8.23619 38.3376 8.61816 37.7143 9.024 37.2208C9.22692 36.9352 9.40597 36.7533 9.65664 36.4677C10.0505 36.0261 10.5161 35.6625 10.9219 35.247L11.5426 34.6756L11.853 34.3639C11.9604 34.26 12.0917 34.2341 12.0559 33.9224C12.0559 32.9355 12.0678 31.9745 12.0678 31.0135C12.0798 30.0526 12.0917 29.0916 12.0917 28.1306C12.1036 27.5593 12.1156 26.9879 12.1275 26.4165C11.8768 28.9098 11.7813 27.5333 11.7455 24.6504C11.7336 22.6505 11.7217 19.6378 11.7097 17.2484C11.9604 17.2224 12.1752 17.1964 12.3424 17.1445C12.5572 17.1705 12.6408 17.2224 12.8198 17.2743C13.0585 17.3263 13.2018 17.4042 13.2495 17.4561C13.3331 17.56 13.2495 17.6899 13.0585 17.7678C13.2018 17.7938 13.345 17.7678 13.4883 17.7678C14.288 17.7418 15.04 17.7418 15.7562 17.7159C17.2721 17.6899 18.6448 17.6899 20.0414 17.6639C20.5786 17.586 21.2112 18.0535 21.5573 16.8588L22.178 15.6121L22.5719 14.8849C23.0375 14.0798 23.5507 13.3526 24.1118 12.6773C25.2457 11.3267 26.6065 10.2359 28.2776 9.87231C28.9938 9.63856 29.4832 9.56065 30.1158 9.48273C30.7126 9.37884 31.2498 9.30093 31.8108 9.22301C32.9209 9.06718 34.1265 8.93732 36.0841 9.04121C38.5191 9.89828 44.2367 9.06718 48.0683 9.37884C47.1015 8.65163 51.9954 8.0283 55.8151 8.36594L54.6334 9.43079C66.8206 8.72954 84.3792 9.95023 98.6553 8.62566L99.7296 9.24898C114.447 8.52177 128.926 9.27496 143.083 8.08024C146.915 8.41788 153.026 8.62566 156.798 8.62566C161.955 8.10622 163.793 8.15816 167.302 7.30108C169.236 7.24914 170.418 7.74261 171.158 7.95038C177.639 8.13219 183.846 8.98926 189.051 8.00233L189.253 8.52177C194.398 7.97636 201.858 7.35303 207.66 7.92441C209.283 7.45691 215.096 7.27511 212.458 6.67775C214.75 6.54789 213.938 7.5608 216.266 6.98942L214.081 7.76858C227.116 7.95038 238.121 7.5608 250.715 7.17122C254.379 8.05427 262.735 7.06734 269.873 7.5608C274.062 7.06734 281.332 7.76858 284.447 6.65178L284.65 7.17122C290.248 7.24914 297.804 7.24914 305.133 7.50886C309.418 7.63872 309.418 6.85956 312.784 6.59984L312.987 7.11928C316.688 6.80761 317.678 5.97651 319.051 5.45707C321.904 5.82068 322.226 5.4311 325.067 5.79471C322.31 6.0804 319.97 6.65178 318.132 7.35303C322.656 7.58677 327.216 6.2622 330.009 7.06733C333.661 7.24914 336.55 7.06733 337.111 6.46998C337.457 6.65178 339.272 6.80761 337.541 7.06733C340.322 6.85956 341.981 7.71664 343.533 8.80746C343.055 8.36594 342.387 7.74261 341.826 7.48289C342.506 7.5608 343.485 8.15816 344.225 8.78149C344.965 9.37884 345.467 9.84634 345.299 9.1451C344.655 8.46982 344.285 8.2101 343.879 7.87247C343.473 7.5608 343.032 7.14525 342.148 6.59984C342.554 6.52192 343.951 7.24914 345.252 8.83343C346.577 10.3398 347.675 12.6253 348.009 13.6642C348.319 13.8201 348.284 13.9499 348.057 14.0538C347.925 14.2096 347.806 13.9759 347.663 13.7681C347.52 13.5603 347.364 13.3006 347.209 13.0669C346.589 12.1838 346.087 11.5865 346.875 13.1708C347.173 13.6123 347.496 14.2096 347.782 14.7291C348.164 14.7551 348.57 14.6252 348.94 14.5992L350.957 14.2356L354.073 13.6902C352.497 13.872 350.647 13.5344 351.268 13.0669L348.224 13.4305L348.439 12.8331C348.14 13.0149 347.973 12.5215 347.782 12.1319C347.603 11.8202 347.341 11.3008 347.09 10.9112C346.601 10.0541 346.087 9.3269 345.574 8.65163C344.559 7.32705 343.497 6.31415 342.387 5.6129C341.277 4.88569 340.119 4.49611 338.901 4.47013C337.708 4.47013 336.478 4.52208 335.13 4.65194L337.159 5.22332C334.008 5.24929 330.82 6.05443 327.932 5.37915C329.352 5.14541 328.338 4.85971 328.302 4.54805C327.574 4.65194 326.762 4.85971 325.891 4.7818L327.025 4.00264C325.103 4.98957 318.681 4.26236 317.344 4.47013L317.798 4.28833C313.107 3.87278 318.621 4.85971 315.458 4.85971C312.761 4.70388 314.444 3.79486 311.949 3.37931C307.198 3.40528 299.034 4.15847 293.71 3.40528C289.472 3.56111 284.781 3.92472 280.974 4.36625C277.19 4.36625 281.177 3.35334 277.345 3.79486C277.751 3.45722 277.237 3.09362 276.903 2.75598C276.402 3.14556 269.789 2.70404 272.821 3.58709C267.306 3.37931 261.099 3.30139 255.286 3.4832C257.22 3.43125 257.733 2.78195 256.098 2.47029C253.412 3.09362 248.709 3.45722 243.827 3.27542C243.923 3.92472 245.498 3.92472 244.997 4.54805C244.269 4.65194 243.087 4.93763 241.87 4.91166C241.165 4.23639 241.38 3.1975 236.999 3.17153C238.181 2.10668 244.448 3.30139 242.466 2.26251C244.4 1.40544 252.29 1.35349 254.069 1.87293C257.96 0.989883 251.025 1.76904 251.741 0.885995C248.232 0.963911 246.596 1.43141 241.141 1.56127C241.082 2.00279 242.92 2.08071 240.413 2.44432C235.567 3.37931 234.362 1.76904 233.144 1.74307C233.848 1.66516 234.815 1.56127 235.531 1.50932C232.332 1.19766 231.198 1.79502 227.796 1.74307C226.877 0.548359 233.228 1.61321 234.481 0.860023L232.022 0.00294668C226.794 -0.100941 230.602 0.989883 225.206 0.678219L225.863 0.236695L222.485 0.522387C222.437 0.963911 223.165 1.63918 226.054 1.56127C224.156 2.73001 223.392 1.7171 218.808 1.95085C217.34 2.62612 220.754 1.8989 220.849 2.5482C221.303 3.14556 218.152 3.17153 215.86 3.27542C212.088 3.27542 213.914 2.57418 212.398 2.13265C213.115 2.00279 216.015 1.92488 215.705 2.31446C220.348 1.61321 213.687 0.937939 216.898 0.444471C213.341 0.0548907 213.485 0.834051 211.634 1.0678C212.721 1.14572 211.085 1.74307 211.885 1.97682C205.714 3.76889 207.934 0.678219 202.014 0.989883C203.267 2.13265 194.1 2.60015 198.421 3.84681C197 4.05458 195.21 4.3143 193.73 4.18444C195.305 3.40528 191.08 3.58709 193.885 2.8339H191.724L194.983 1.8989C192.584 1.35349 188.609 0.834051 187.344 0.470443C184.216 0.808079 188.31 1.22363 184.694 1.40544C185.959 1.01586 183.727 0.678219 182.127 0.678219C185.338 0.989883 182.187 1.76904 180.158 1.97682C176.971 1.97682 174.44 1.2496 174.906 1.0678L177.233 0.548359C175.908 0.756135 176.637 0.132807 174.56 0.340583C173.891 0.782107 172.411 1.43141 171.623 2.00279C169.606 2.1846 168.174 1.61321 167.469 1.7171L170.68 1.2496C166.455 1.43141 169.773 0.0548907 165.428 0.366555L164.306 0.963911C163.614 0.885995 163.208 0.704191 163.518 0.496415C162.575 0.782107 160.594 0.730163 159.663 0.860023L159.364 0.470443C157.574 0.730163 155.294 1.61321 153.098 0.834051C154.829 1.79502 155.294 0.834051 158.398 1.27558C160.319 2.00279 155.33 1.95085 154.626 2.05474C154.829 1.01586 149.97 1.95085 147.786 1.95085C146.509 1.58724 145.399 1.40544 144.623 1.19766L143.775 1.87293C142.952 0.548359 139.418 2.1846 136.936 1.76904C138.201 1.35349 138.022 0.834051 136.279 0.626275C138.631 1.63918 132.459 1.87293 133.164 2.5482C128.723 2.1846 134.19 1.27558 132.877 0.574331C130.681 1.35349 127.947 0.0808627 126.491 1.0678C129.69 1.37946 125.99 1.7171 125.321 2.13265C121.287 2.05474 125.99 1.7171 123.137 1.35349C121.454 1.48335 119.246 2.26251 121.86 2.5482C119.508 2.31446 116.858 3.27542 114.22 2.65209C113.146 2.02876 119.15 2.3664 117.622 1.92488C112.024 1.87293 114.817 3.45722 109.613 3.665C111.845 4.00264 109.708 5.09346 107.202 5.48304C101.436 5.19735 109.708 5.09346 107.512 4.3143L105.208 4.41819C102.021 3.35334 112.012 2.65209 108.956 1.76904L106.474 2.13265C107.023 1.82099 107.811 1.27558 106.796 0.963911C106.163 1.7171 100.971 1.17169 100.517 1.32752C100.004 1.97682 102.535 1.14572 102.141 1.66516C99.4789 1.82099 98.3091 2.88584 94.2268 2.49626C96.4709 2.02876 93.3793 1.61321 94.2985 1.2496C92.3051 0.989883 93.6777 2.00279 90.8249 1.66516L91.1472 1.27558C80.5357 1.17169 67.2861 1.22363 58.1666 2.78195C56.5075 2.15862 53.1772 2.08071 48.0206 1.66516C49.9185 1.87293 47.8177 2.31446 46.5405 2.39237L43.998 1.63918C40.8945 1.22363 36.8719 1.92488 34.0071 2.34043C33.4939 2.1846 33.3387 1.97682 33.1954 1.79502C30.4381 1.30155 30.3904 2.1846 29.2325 2.39237C28.5641 2.26251 27.8837 2.23654 27.2033 2.31446L26.8094 2.98973C25.3173 3.76889 23.6582 5.22332 22.4765 6.65178C21.2828 8.00233 20.5189 9.17107 20.5547 8.54774C20.4353 8.75552 20.3279 8.98926 20.2205 9.19704C20.113 9.43079 19.9937 9.66454 19.9937 9.69051C19.9459 9.84634 19.9101 9.9762 19.8862 10.0801C19.8504 10.2619 19.8743 10.3398 20.0414 10.132C19.9817 10.2359 19.9101 10.3918 19.8146 10.4177C19.7549 10.3918 19.6833 10.3658 19.6117 10.3658C19.5162 10.3398 19.5281 10.3398 19.2775 10.3138C18.4777 10.2619 17.5586 10.2359 16.5679 10.184C15.5771 10.158 14.5148 10.158 13.4286 10.132C11.7813 10.158 10.1102 10.158 8.46299 10.184C8.47492 12.8072 8.48686 15.4044 8.4988 17.8977C8.51073 19.6378 8.52267 21.274 8.53461 22.8323C8.55848 21.5597 8.58235 20.6507 8.61816 19.9754C8.6301 19.5339 8.64204 19.1703 8.65397 18.8846C8.67785 18.521 8.68978 18.2353 8.71365 18.0275C8.78527 17.1445 8.86883 17.2224 8.98819 16.9627C9.09562 17.612 9.14337 18.1054 9.15531 18.5989C9.15531 18.8586 9.16724 19.1184 9.15531 19.404C9.15531 19.6118 9.14337 19.8456 9.13143 20.0793C9.09562 21.0403 9.03594 22.3389 9.15531 24.4946C9.00013 24.6244 8.84496 29.5072 8.73753 24.2608C8.66591 25.949 8.61816 28.4423 8.58235 28.702L8.54654 29.2474C8.51073 29.3773 8.39137 29.3773 8.30781 29.4552C8.22426 29.5072 8.1407 29.5851 8.06908 29.663C8.04521 29.663 7.68711 30.0526 7.47226 30.2863C5.57435 32.5719 3.80775 35.9742 2.50667 40.2336C1.19365 44.493 0.334222 49.5576 0.107429 54.7779C0.023873 56.0506 0.0358095 57.4271 0.0119365 58.6218L0.023873 62.102C0.0119365 64.4135 0.0119365 66.6991 0 68.9586C0.0716191 72.6207 0.131302 71.5039 0.23873 73.27C-0.167111 84.6977 0.262603 98.6706 0.0835556 110.981C0.250667 108.228 0.728127 112.098 0.740064 118.955C1.07429 126.435 0.27454 121.942 0.0716191 128.694C0.226794 132.045 0.27454 138.356 0.250667 141.031L0.190984 140.823C0.370032 144.927 0.477461 151.42 0.310349 156.329L0.298413 155.549C0.262603 159.549 0.0477461 164.198 0.0835556 168.38C0.393905 170.275 0.202921 180.482 0.477461 182.95C0.441651 183.469 0.417778 182.69 0.358095 183.833L0.620699 184.171L0.465524 192.482C0.358095 190.689 0.250667 190.248 0.179048 187.91C-0.0119365 196.793 0.417778 190.923 0.561016 195.598C0.752 201.806 0.489397 201.442 0.381968 204.455C0.250667 201.883 0.441651 199.884 0.393905 198.351C0.179048 194.819 0.310349 202.117 0.155175 202.221C0.143238 203.546 0.477461 204.117 0.405841 208.662C0.381968 212.61 0.465524 221.856 0.167111 220.739C0.322286 224.115 0.298413 228.063 0.429715 230.608C0.477461 227.414 0.54908 221.518 0.740064 220.843C0.775873 223.752 0.847492 229.518 0.728127 230.427L0.656508 228.089C0.728127 230.323 0.644572 238.088 0.871365 235.102L0.537143 240.582C0.752 242.815 0.740064 248.919 0.78781 253.905C0.489397 254.139 0.167111 250.113 0.0954921 259.411L0.393905 267.411C0.417778 271.644 0.358095 272.735 0.179048 272.086C0.0119365 286.474 1.00267 286.838 0.740064 298.162C0.381968 293.357 0.358095 297.357 0.250667 302.447C0.310349 302.655 0.429714 303.122 0.441651 305.226C0.608762 303.772 0.202921 302.239 0.429715 298.344C0.656508 297.149 0.584889 302.992 0.656508 305.33C-0.107429 315.407 0.465524 338.834 0.107429 355.222C0.537143 354.105 0.226794 362.52 0.393905 365.845C-0.0596825 364.832 0.465524 375.065 0.202921 379.506L0.632635 377.065C0.381968 387.038 1.28914 393.297 0.763937 399.505C0.632635 405.114 0.453588 397.583 0.381968 395.245C-0.0954921 402.985 0.763937 415.893 0.23873 422.074C0.417778 422.749 0.704254 420.438 0.859429 427.191C0.668445 432.619 0.441651 443.345 0.358095 442.358C0.417778 444.618 0.465524 446.046 0.501334 447.527C0.54908 449.111 0.572953 450.747 0.752 453.37C0.584889 452.981 0.381968 450.669 0.286476 448.981C0.358095 453.267 0.907175 457.084 1.67111 460.383C2.45892 463.707 3.50934 466.538 4.77461 469.006C5.08495 469.915 5.65791 471.239 6.46959 472.564C6.8635 473.239 7.34096 473.862 7.84229 474.512C8.0094 474.719 8.17651 474.901 8.35556 475.109C8.47492 475.239 8.59429 475.343 8.71365 475.473C8.79721 475.499 8.78527 475.68 8.78527 475.81L8.77334 476.278V477.187C8.7614 478.459 8.7614 479.758 8.74946 481.031C8.72559 484.173 8.68978 487.212 8.66591 489.913C8.73753 491.186 8.77334 492.64 8.79721 494.25C9.71632 494.198 10.6474 494.198 11.5784 494.198C12.3304 494.224 13.0585 494.25 13.727 494.276C14.7655 494.276 15.5771 494.224 15.7204 493.783C15.7204 493.887 16.174 494.017 16.4008 494.095C17.1647 493.913 17.857 493.653 18.5971 493.419C18.9432 493.315 19.2894 493.212 19.6714 493.108C19.8146 493.082 19.9698 493.056 20.125 493.004C20.2563 493.082 20.3637 493.419 20.495 493.627C20.3279 493.627 20.1727 493.653 20.0414 493.731C19.9579 493.861 20.0414 494.25 20.2085 494.666C20.2324 494.744 20.5666 495.419 20.8292 495.861C21.1157 496.38 21.4499 496.9 21.7961 497.393C23.0017 499.159 24.4579 500.328 24.9712 500.873C24.434 500.198 24.9712 500.64 25.7113 501.133C26.5229 501.678 27.6211 502.068 27.7166 501.782C28.5283 501.99 29.3996 501.938 30.1516 501.86C33.7923 501.652 30.5813 501.471 35.0695 501.367C37.612 501.341 35.9289 502.25 35.0575 502.146C37.1464 502.535 39.2711 502.328 41.4316 502.172C40.7154 502.146 40.5125 502.094 41.2407 501.938C41.2884 502.042 41.4674 502.094 41.73 502.146C41.6465 502.146 41.5629 502.172 41.4794 502.172H41.9091C41.8494 502.172 41.8017 502.146 41.7539 502.146C42.5895 502.094 43.437 502.016 44.2845 502.016C44.2606 502.042 44.2487 502.042 44.2367 502.068C43.4012 502.12 42.6253 502.146 42.0165 502.172C42.5775 502.224 43.3773 502.224 44.189 502.224C44.2009 502.224 44.2009 502.224 44.2009 502.224C44.2725 502.276 44.4993 502.276 44.8216 502.25H44.8813C45.6214 502.25 46.3137 502.302 46.7792 502.406L46.1585 503.003C47.7222 503.029 52.0551 502.354 51.9238 502.094C57.9518 502.587 67.871 502.198 72.1562 501.86C71.5236 502.016 71.5355 502.146 72.2636 501.964C74.3764 501.834 76.7637 501.341 76.9666 501.73C79.0317 501.471 78.8884 502.146 82.0516 502.198C82.0993 502.302 82.3261 501.938 82.1113 501.756C87.423 502.484 94.0836 501.133 100.386 501.678C99.8728 501.704 99.1089 502.042 98.5956 502.25C103.513 501.938 108.169 501.704 112.585 501.003C112.12 501.263 112.251 501.523 111.093 501.678C113.839 501.652 116.93 501.549 118.876 501.211C118.792 501.237 118.625 501.237 118.339 501.237C115.88 500.717 120.272 500.172 122.528 500.328L122.6 500.458C126.014 500.432 126.169 500.094 129.583 500.094C131.624 500.432 127.804 500.25 128.616 500.64C129.416 501.575 136.41 501.237 137.103 501.341C137.926 501.133 139.084 500.977 138.941 500.717C141.627 500.484 140.17 501.289 142.021 501.237L149.338 499.497C149.027 499.731 151.725 500.302 149.493 500.614C155.043 500.484 158.195 499.393 161.632 498.796C163.28 498.951 168.687 498.562 170.537 498.536C171.432 499.029 168.961 498.51 168.556 498.899L171.349 499.471C167.648 499.575 171.814 500.38 169.821 500.743C172.781 500.406 179.824 500.769 184.264 500.925C181.196 499.834 190.232 500.406 190.041 499.445C195.246 499.263 192.631 500.224 194.601 500.432C200.008 500.068 205.153 500.328 210.071 500.224C210.071 500.224 210.142 500.354 209.88 500.432C214.392 500.12 221.721 500.406 226.245 499.549C226.042 499.73 226.448 499.912 225.278 500.068C230.136 500.432 226.173 498.821 231.795 499.419L230.482 499.886C233.968 499.419 237.25 500.328 241.225 499.575C241.368 499.86 240.485 499.938 239.924 500.068C243.565 499.86 247.671 499.964 250.75 499.315C251.228 499.627 250.75 499.886 249.306 500.12C252.911 500.484 253.221 499.263 256.504 499.575C257.327 499.627 258.748 499.912 258.748 500.016C260.491 499.627 265.289 499.627 267.056 499.471C267.521 499.782 268.822 499.886 270.875 500.224C288.935 500.198 307.425 500.354 325.365 499.497C327.06 500.068 325.485 500.172 324.16 500.328C325.497 500.25 328.063 500.432 331.572 500.25L331.799 500.38C334.127 500.198 335.428 500.743 337.947 500.484L337.851 500.25C339.176 500.068 340.704 500.12 342.053 499.549C343.39 499.029 344.547 498.042 345.073 496.796C345.729 496.25 346.374 495.575 346.994 494.822C347.221 494.276 347.436 493.783 347.651 493.315C347.83 492.952 347.973 492.432 348.164 492.225C348.63 492.173 349.083 492.225 349.68 492.277C350.79 492.354 351.996 492.484 353.607 492.095L353.237 492.251C354.085 492.328 354.92 492.354 355.816 492.328C356.818 492.277 357.785 492.225 358.656 492.121C358.537 485.42 358.37 481.264 358.585 478.901C358.573 477.966 358.573 476.979 358.561 475.992L358.549 474.616C358.561 474.408 358.513 474.096 358.573 473.966L358.859 473.681C359.587 473.005 360.387 471.94 361.068 470.902C362.381 468.746 363.168 466.564 363.252 465.759C363.885 464.642 363.706 465.759 363.419 466.85C365.83 461.214 367.179 453.215 366.976 445.293ZM47.7102 501.86C48.1996 501.808 48.6652 501.756 49.0352 501.782C48.6413 501.808 48.1996 501.834 47.7102 501.86Z" fill="#FAAE5D"/>
<path d="M357.785 14.908C357.713 15.5054 357.654 15.817 357.594 15.7651C357.606 15.6352 357.618 15.4534 357.63 15.2456C357.319 15.0638 356.675 14.908 356.317 14.7262C355.971 14.5704 355.887 14.3886 356.973 14.1029C357.093 14.3626 357.63 14.6483 357.785 14.908Z" fill="#FAAE5D"/>
<path d="M281.75 2.25958C280.771 2.28555 280.914 2.49333 280.46 2.67513C280.365 2.80499 279.338 2.49333 279.088 2.41541C280.067 2.38944 280.974 2.02583 281.75 2.25958Z" fill="#FAAE5D"/>
<path d="M267.426 1.6882L260.252 2.41542C260.55 2.02584 264.871 1.74015 267.426 1.6882Z" fill="#FAAE5D"/>
<path d="M241.404 0.853998C239.769 0.543455 240.222 0.362305 242.418 0.362305C242.574 0.569333 241.857 0.672848 241.404 0.853998Z" fill="#FAAE5D"/>
<path d="M236.964 1.29858C237.059 1.32443 237.155 1.35028 237.25 1.37612C237.083 1.37612 236.976 1.35028 236.964 1.29858Z" fill="#FAAE5D"/>
<path d="M240.067 1.71298C238.706 1.71298 237.942 1.55771 237.262 1.37656C238.121 1.45419 240.497 1.19541 240.067 1.71298Z" fill="#FAAE5D"/>
<path d="M199.161 0.621079C198.182 0.646958 196.045 0.957501 195.138 0.543443C196.165 0.828108 199.913 0.0517501 199.161 0.621079Z" fill="#FAAE5D"/>
<path d="M180.158 1.19296C179.537 1.16708 179.286 1.08944 178.57 1.19296C177.448 1.03769 178.63 0.753021 179.585 0.701263L180.158 1.19296Z" fill="#FAAE5D"/>
<path d="M0.405804 383.009L0.322249 386.827L0.238693 382.36L0.405804 383.009Z" fill="#FAAE5D"/>
<path d="M110.914 502.817C109.064 502.868 111.606 502.351 109.147 502.428C111.2 502.17 110.58 502.765 110.914 502.817Z" fill="#FAAE5D"/>
<path d="M190.913 500.533H190.292L190.495 499.754L190.913 500.533Z" fill="#FAAE5D"/>
<path d="M210.107 17.1663C210.775 17.1915 211.264 17.1663 211.67 17.141C211.396 17.1157 210.93 17.1157 210.107 17.1663Z" fill="#FAAE5D"/>
<path d="M276.366 17.5311C275.602 17.7381 274.969 17.7381 274.361 17.7122C274.755 17.6346 275.387 17.5829 276.366 17.5311Z" fill="#FAAE5D"/>
<path d="M165.619 16.7506C165.75 16.7248 165.858 16.6989 165.941 16.6472C165.786 16.6989 165.679 16.7248 165.619 16.7506Z" fill="#FAAE5D"/>
<path d="M254.272 485.391C254.236 485.391 254.188 485.391 254.164 485.416C254.236 485.416 254.272 485.391 254.272 485.391Z" fill="#FAAE5D"/>
<path d="M101.15 486.845C100.816 486.923 100.577 486.975 100.613 486.871C100.792 486.845 100.971 486.845 101.15 486.845Z" fill="#FAAE5D"/>
<path d="M178.928 16.7506C179.072 16.7248 179.239 16.6989 179.43 16.6731L178.928 16.7506Z" fill="#FAAE5D"/>
<path d="M273.824 18.0504C273.776 18.0504 273.728 18.0245 273.668 18.0245C270.851 17.8686 268.416 17.4011 269.968 17.0895C271.747 17.1414 269.92 17.3752 270.66 17.531C272.141 17.2973 273.191 17.6089 274.361 17.7128C273.764 17.7907 273.692 17.9206 273.824 18.0504Z" fill="#FAAE5D"/>
<path d="M9.66844 397.969C9.66844 398.125 9.66844 398.281 9.66844 398.437C9.68038 399.45 9.69232 400.462 9.71619 401.449C9.71619 400.177 9.69232 399.449 9.66844 397.969Z" fill="#FAAE5D"/>
<path d="M351.256 459.107L350.802 459.523C350.802 459.549 350.802 459.549 350.802 459.575L350.945 459.445C351.327 459.081 351.733 458.666 352.187 458.25L351.256 459.107ZM360.053 416.929C360.017 402.021 359.957 387.502 359.814 374.62C359.862 373.322 359.898 374.932 359.946 375.685C359.683 359.634 360.22 342.805 359.719 331.013L359.516 326.78C359.587 322.988 359.743 323.3 359.814 320.365C359.671 317.222 359.766 305.717 359.587 303.847C359.671 302.132 359.695 304.574 359.755 304.496C359.802 297.094 359.492 288.575 359.564 281.589L359.659 283.796C360.005 247.15 360.28 199.699 359.826 169.597C359.743 161.39 360.089 165.961 360.065 162.325C359.683 131.289 360.327 93.8628 359.659 65.6053C359.444 60.1771 358.43 56.0476 357.415 53.2166C356.365 50.3857 355.302 48.6975 354.443 47.6586C354.18 47.347 353.941 47.0872 353.715 46.8795L353.727 46.7496L352.246 45.5549C352.223 43.7109 352.032 31.1404 351.172 28.2835C351.399 28.3354 351.602 28.3874 351.733 28.4653C352.008 28.2575 351.423 28.0498 350.993 27.842C350.981 27.816 350.969 27.79 350.957 27.7641C350.277 26.9849 347.412 27.1407 345.622 27.3225C345.132 27.2446 344.882 27.1148 345.168 26.9849L343.688 27.0888C343.473 27.0628 343.211 27.2706 343.043 27.0109C342.864 26.6992 342.709 26.3875 342.506 26.0499L342.733 25.972C340.787 22.3619 338.722 20.4399 336.574 19.6608C335.488 19.2452 334.389 19.3232 333.279 19.3232C332.145 19.3232 330.964 19.3491 329.675 19.427L331.62 19.8166C328.612 19.8426 325.568 20.362 322.799 19.8945C324.16 19.7647 323.181 19.5829 323.145 19.3751C322.453 19.427 321.677 19.5829 320.842 19.5309L321.94 19.0115C320.113 19.6868 313.954 19.1933 312.677 19.3232L313.107 19.2193C308.63 18.9336 313.894 19.5569 310.875 19.5829C308.296 19.479 309.896 18.8816 307.52 18.6219C302.973 18.6219 295.178 19.1154 290.081 18.6219C286.035 18.7258 281.547 18.9595 277.906 19.2712C274.289 19.2712 278.097 18.5959 274.444 18.8816C274.838 18.6739 274.337 18.4401 274.015 18.2064C273.442 18.4401 267.235 18.1804 270.111 18.7518C264.847 18.6219 258.903 18.57 253.352 18.6739C255.203 18.6479 255.692 18.2323 254.128 18.0246C251.562 18.4401 247.062 18.6479 242.395 18.544C242.478 18.9595 243.994 18.9595 243.505 19.3751C242.813 19.453 241.69 19.6348 240.533 19.6088C239.852 19.1673 240.055 18.492 235.865 18.4661C236.116 18.3102 236.629 18.2323 237.25 18.1804C234.147 18.3362 233.168 17.583 232.177 17.5571C232.857 17.5051 233.777 17.4272 234.469 17.4012C231.401 17.1934 230.327 17.583 227.068 17.5571C226.185 16.7779 232.261 17.4791 233.454 16.9857L231.115 16.4143C226.113 16.3364 229.742 17.0636 224.585 16.8558L225.218 16.5701L221.995 16.7519C221.947 17.0376 222.64 17.4791 225.409 17.4272C223.595 18.1804 222.855 17.5311 218.474 17.6869C217.065 18.1284 220.336 17.635 220.432 18.0765C220.861 18.4661 217.853 18.4661 215.657 18.544C212.052 18.544 213.807 18.0765 212.351 17.7908C213.031 17.7389 215.812 17.6609 215.514 17.9207C219.954 17.4791 213.58 17.0116 216.648 16.726C213.282 16.4662 213.389 16.9597 211.67 17.1155C212.589 17.1675 211.109 17.5571 211.861 17.7129C205.953 18.8557 208.077 16.8558 202.419 17.0636C203.613 17.7908 194.852 18.1025 198.982 18.9076C197.621 19.0375 195.914 19.2193 194.505 19.1413C196.009 18.6219 191.975 18.7518 194.649 18.2583H192.584L195.699 17.6609C193.407 17.2973 189.611 16.9597 188.394 16.726C185.41 16.9337 189.313 17.2194 185.863 17.3233C187.069 17.0636 184.932 16.8558 183.404 16.8558C186.472 17.0636 183.464 17.583 181.519 17.7129C178.487 17.7129 176.064 17.2194 176.505 17.1155L178.725 16.7779C177.472 16.9078 178.152 16.4922 176.183 16.648C175.526 16.9337 174.118 17.3493 173.378 17.7129C171.444 17.8427 170.059 17.4791 169.391 17.5311L172.459 17.2194C168.424 17.3493 171.599 16.4403 167.445 16.648L166.371 17.0376C165.727 16.9857 165.345 16.8818 165.619 16.7519C164.724 16.9337 162.814 16.8818 161.931 16.9857L161.644 16.726C159.937 16.8818 157.753 17.4791 155.652 16.9597C157.311 17.583 157.753 16.9597 160.713 17.2454C162.563 17.7129 157.789 17.6869 157.12 17.7648C157.311 17.0896 152.668 17.6869 150.579 17.6869C149.362 17.4791 148.299 17.3233 147.559 17.1934L146.736 17.635C145.96 16.7779 142.582 17.8427 140.206 17.5571C141.412 17.2973 141.245 16.9597 139.586 16.8298C141.818 17.4791 135.921 17.635 136.589 18.0765C132.352 17.8427 137.58 17.2454 136.327 16.8039C134.226 17.2973 131.612 16.4662 130.215 17.1155C133.283 17.3233 129.738 17.5311 129.105 17.8168C125.25 17.7648 129.738 17.5311 127.016 17.2973C125.405 17.3753 123.292 17.8687 125.787 18.0765C123.543 17.9207 121.012 18.544 118.482 18.1544C117.455 17.7389 123.209 17.9726 121.74 17.6869C116.393 17.635 119.055 18.6739 114.089 18.8037C116.214 19.0115 114.173 19.7387 111.773 19.9725C106.271 19.7906 114.173 19.7387 112.072 19.2193L109.876 19.2972C106.82 18.5959 116.369 18.1284 113.457 17.5571L111.081 17.7908C111.606 17.609 112.358 17.2454 111.392 17.0376C110.783 17.5311 105.829 17.1675 105.387 17.2973C104.898 17.7129 107.321 17.1675 106.939 17.5051C104.397 17.609 103.275 18.2843 99.3834 18.0246C101.52 17.7389 98.5598 17.4791 99.4431 17.2194C97.5452 17.0636 98.8462 17.7129 96.1247 17.5051L96.4231 17.2454C86.2771 17.1675 73.6244 17.2194 64.8988 18.2323C63.3112 17.8168 60.1361 17.7648 55.1944 17.5051C57.0207 17.6609 55.0154 17.9207 53.7859 17.9726L51.3628 17.4791C48.3906 17.2194 44.5351 17.6609 41.8017 17.9207C41.3123 17.8427 41.169 17.7129 41.0258 17.583C38.4117 17.2714 38.3043 17.8427 37.2777 17.9466L35.5708 17.609L35.1888 17.9466C34.5204 17.9986 33.7803 18.0246 33.0761 18.0765C32.336 18.1544 31.6079 18.3882 30.9991 18.6479C29.7696 19.1673 28.946 19.7906 29.0773 19.3751C28.1105 20.2841 27.2391 21.4529 28.1463 20.6218C27.5614 21.1412 26.8213 21.9983 26.0335 23.219C25.8187 23.5826 25.5799 23.9462 25.3531 24.3617C25.2338 24.5955 25.1025 24.8292 24.9712 25.063C24.9354 25.1409 24.8757 25.0889 24.8279 25.1149L24.5773 25.0889H23.6582C20.8292 25.1149 17.678 25.1409 15.04 25.1669C15.04 26.6732 15.0519 27.9199 15.0519 29.1406C15.0758 27.4524 15.0877 26.1538 15.0997 25.2967C16.8424 25.4266 16.7111 25.5824 16.9737 25.8421C16.5082 26.1538 16.1382 26.1018 15.4339 26.0239C15.422 26.6213 15.41 27.3225 15.41 28.2575C15.41 29.1146 15.422 30.4392 15.4578 31.504C15.3503 31.6079 15.2549 36.2829 15.1832 31.2703C15.1474 32.9844 15.1236 34.8025 15.0877 36.6725C15.0639 38.2308 15.0519 39.867 15.0281 41.5292C15.0997 41.9967 14.8013 41.9707 14.7058 42.1266C14.288 42.5681 13.7986 43.1135 13.3569 43.7368C12.4736 44.9575 11.6262 46.4639 10.8861 48.1781C9.39403 51.6323 8.28393 56.0216 7.75872 60.7485C7.49612 63.086 7.40063 65.5793 7.38869 67.8908C7.38869 70.0984 7.38869 72.2801 7.37675 74.4617C7.4245 77.942 7.47225 76.8771 7.53193 78.5653C7.26933 89.4736 7.5558 102.849 7.43644 114.614C7.54387 111.965 7.85422 115.705 7.86615 122.25C8.08101 129.393 7.5558 125.107 7.4245 131.574C7.53193 134.769 7.5558 140.794 7.54387 143.34L7.50806 143.132C7.61549 147.079 7.6871 153.287 7.57968 157.962L7.56774 157.235C7.5558 161.052 7.41256 165.494 7.43644 169.493C7.63936 171.285 7.50806 181.077 7.6871 183.414C7.66323 183.934 7.65129 183.181 7.60355 184.245L7.7826 184.583L7.6871 192.531C7.61549 190.816 7.54387 190.401 7.49612 188.167C7.37676 196.66 7.65129 191.024 7.74679 195.517C7.86615 201.439 7.69904 201.101 7.62742 203.984C7.54387 201.517 7.66323 199.621 7.63936 198.14C7.49612 194.764 7.57968 201.725 7.48418 201.854C7.47225 203.101 7.6871 203.673 7.65129 208.01C7.62742 211.802 7.67517 220.606 7.49612 219.541C7.59161 222.762 7.56774 226.554 7.65129 228.995C7.6871 225.931 7.73485 220.295 7.85422 219.645C7.87809 222.424 7.93777 227.93 7.85422 228.813L7.80647 226.58C7.85422 228.71 7.79453 236.138 7.94971 233.281L7.72291 238.501C7.86615 240.657 7.86615 246.5 7.89003 251.253C7.69904 251.461 7.48418 247.617 7.43644 256.526L7.63936 264.187C7.65129 268.213 7.61549 269.252 7.49612 268.629C7.38869 282.394 8.03326 282.731 7.85422 293.562C7.62742 288.965 7.60355 292.783 7.54387 297.665C7.57968 297.873 7.66323 298.315 7.66323 300.314C7.77066 298.938 7.50806 297.457 7.66323 293.743C7.80647 292.575 7.75872 298.185 7.80647 300.418C7.30514 310.054 7.6871 332.442 7.44837 348.103C7.72291 347.038 7.53193 355.089 7.62742 358.284C7.34095 357.297 7.6871 367.088 7.50806 371.322L7.79453 368.984C7.62742 378.516 8.22425 384.516 7.87809 390.437C7.79453 395.814 7.67517 388.619 7.62742 386.386C7.31707 393.788 7.87809 406.124 7.53193 412.02C7.65129 412.669 7.84228 410.462 7.93777 416.929C7.81841 422.097 7.66323 432.382 7.61549 431.421C7.65129 433.551 7.67517 434.901 7.69904 436.304C7.72291 437.654 7.6871 439.265 7.79453 441.706C7.69904 441.342 7.57968 439.369 7.54387 437.836C7.54387 445.732 9.01206 451.913 11.2322 456.64C11.5307 457.471 12.0559 458.718 12.8198 459.938C13.1898 460.588 13.6196 461.185 14.0851 461.808C14.3238 462.068 14.5625 462.328 14.8013 462.614C14.9087 462.717 15.0281 462.847 15.1474 462.951C15.231 462.977 15.219 463.159 15.219 463.289L15.2071 463.73V465.107C15.2071 466.354 15.1952 467.6 15.1952 468.847C15.1713 471.704 15.1594 474.457 15.1355 476.898C15.1713 477.729 15.1952 478.638 15.2071 479.625C15.6488 479.599 16.1143 479.573 16.5917 479.547H17.9286C18.5613 479.547 19.1939 479.573 19.7549 479.573C20.865 479.599 21.7364 479.573 21.8916 479.262C21.8916 479.34 22.3213 479.417 22.5361 479.469C23.2643 479.365 23.9327 479.184 24.6369 479.028C24.9115 479.028 25.1622 478.69 25.3531 479.21C25.6516 479.729 25.9738 480.249 26.3319 480.846L25.6993 480.404C25.4248 480.3 26.4871 482.404 27.8717 483.911C29.0415 485.313 30.45 486.066 30.9752 486.404C30.8559 486.3 30.7843 486.248 30.7604 486.196C30.832 486.196 31.214 486.378 31.6676 486.56C32.4434 486.871 33.47 486.923 33.5535 486.742L35.7379 486.586C39.2234 486.456 36.1557 486.352 40.4409 486.274C42.7208 486.248 41.4436 486.768 40.5961 486.768C42.5775 487.027 44.5829 486.897 46.624 486.793C45.8601 486.793 45.6094 486.742 46.3495 486.638C46.3972 486.716 46.5643 486.742 46.8269 486.768C46.8508 486.793 46.8866 486.768 46.9224 486.768C47.6864 486.742 48.4742 486.69 49.25 486.69C49.2381 486.716 49.2262 486.716 49.2142 486.716C48.3309 486.742 47.5192 486.768 46.9224 486.768C47.4596 486.819 48.3071 486.819 49.1665 486.819C49.25 486.871 49.5126 486.871 49.8827 486.845C50.5631 486.845 51.2076 486.871 51.6254 486.949L51.0405 487.313C52.5445 487.339 56.6865 486.897 56.5552 486.742C62.2847 487.053 71.6668 486.793 75.7968 486.612C75.3074 486.69 75.3313 486.768 75.9998 486.664C78.017 486.586 80.3088 486.248 80.4998 486.508C82.4694 486.352 82.3381 486.767 85.358 486.793C85.4057 486.871 85.6564 486.586 85.3341 486.508C90.4071 487.001 96.7812 486.118 102.809 486.482C102.32 486.508 101.627 486.716 101.15 486.845C105.853 486.664 110.317 486.482 114.543 486.014C114.101 486.196 114.232 486.352 113.122 486.456C115.653 486.456 118.494 486.378 120.356 486.196C120.272 486.196 120.177 486.196 120.045 486.196C117.706 485.858 121.896 485.495 124.056 485.573L124.116 485.677C127.386 485.651 127.53 485.443 130.8 485.443C132.758 485.651 129.093 485.547 129.869 485.781C130.645 486.404 137.33 486.17 137.986 486.248C138.774 486.118 139.884 486.014 139.753 485.859C142.307 485.677 140.922 486.222 142.689 486.17L149.696 485.053C149.409 485.209 151.964 485.573 149.827 485.781C155.139 485.703 158.159 484.975 161.429 484.586C163.017 484.69 168.174 484.456 169.952 484.43C170.8 484.742 168.448 484.404 168.054 484.664L170.716 485.027C167.183 485.105 171.17 485.625 169.26 485.859C172.089 485.651 178.821 485.884 183.082 485.988C180.134 485.287 188.776 485.651 188.597 485.027C193.574 484.898 191.068 485.521 192.954 485.677C198.134 485.417 203.04 485.599 207.755 485.521C207.755 485.521 207.815 485.599 207.564 485.651C211.885 485.469 218.88 485.651 223.213 485.079C223.01 485.209 223.404 485.339 222.282 485.417C226.925 485.651 223.141 484.612 228.513 485.001L227.259 485.313C230.59 485.001 233.729 485.599 237.537 485.105C237.668 485.287 236.82 485.339 236.283 485.417C239.757 485.287 243.696 485.365 246.632 484.924C247.098 485.131 246.632 485.313 245.26 485.443C248.709 485.703 248.996 484.898 252.135 485.105C252.911 485.131 254.272 485.339 254.272 485.391C255.943 485.131 260.538 485.131 262.221 485.027C262.663 485.235 263.916 485.287 265.874 485.521C283.134 485.495 300.812 485.625 317.965 485.053C319.731 485.443 317.81 485.495 316.497 485.599C317.678 485.521 320.257 485.677 323.909 485.547L324.112 485.625C326.344 485.521 327.586 485.858 329.985 485.703L329.913 485.547C331.179 485.365 332.587 485.547 333.852 485.677C335.106 485.884 336.299 485.755 336.932 485.105C337.6 484.975 338.257 484.716 338.913 484.326C340.071 483.053 340.955 482.015 341.862 480.664C342.291 480.015 342.817 479.132 343.127 478.431C343.533 478.249 344.249 478.327 345.025 478.171L344.667 478.275C346.028 478.353 347.412 478.327 348.725 478.249C350.098 478.145 351.387 478.067 352.473 477.989C352.449 475.21 352.449 473.158 352.521 471.989C352.509 470.042 352.497 468.042 352.485 466.094C352.485 465.159 352.473 464.224 352.461 463.315C352.461 462.899 352.449 462.484 352.449 462.068C352.509 461.73 352.748 461.679 352.891 461.497C354.252 460.146 355.195 458.302 355.374 457.731C356.006 456.796 355.744 457.705 355.35 458.536C358.048 454.147 359.874 447.004 360.077 439.421C360.125 431.915 360.065 424.383 360.053 416.929ZM358.919 113.913C358.788 139.21 358.656 164.377 358.513 190.868C358.561 208.763 358.668 232.164 358.561 248.63C358.585 283.251 358.477 317.975 358.382 352.882C358.346 370.335 358.31 387.814 358.274 405.371V431.759C358.274 433.914 358.298 436.252 358.274 438.252C358.262 440.148 358.131 442.044 357.881 443.836C357.439 447.29 356.579 450.537 355.422 453.108C356.197 451.601 355.35 454.251 354.228 456.043L353.894 456.38C353.595 456.848 353.297 457.367 352.975 457.757L352.736 458.068C352.688 458.12 352.688 458.146 352.533 458.302L352.27 458.588L351.256 459.627C350.91 459.705 351.017 460.406 350.993 460.873V462.198C350.981 462.951 350.981 463.549 350.969 463.964C350.957 464.587 350.933 464.561 350.91 464.354C350.898 464.302 350.898 464.224 350.886 464.12C350.874 463.964 350.874 463.756 350.862 463.497C350.85 463.029 350.838 462.406 350.826 461.705C350.826 461.341 350.814 460.951 350.814 460.536C350.814 460.328 350.802 460.12 350.802 459.912V459.575C350.766 459.886 350.79 460.276 350.778 460.588V469.029C350.79 470.847 350.79 472.613 350.79 474.327C348.833 474.327 346.911 474.353 345.001 474.353H342.721C342.411 474.171 342.244 474.846 342.029 475.21C341.85 475.6 341.539 476.223 341.492 476.275C341.301 476.664 341.098 477.028 340.883 477.366C340.047 478.716 339.128 479.807 338.137 480.56C337.159 481.313 336.12 481.755 335.082 481.833H331.537C329.125 481.833 326.702 481.807 324.243 481.807C323.408 482.326 317.678 481.833 317.237 482.378C316.652 482.274 317.201 482.248 317.559 482.145C308.798 482.43 308.201 482.43 300.227 481.755C266.208 481.313 233.407 481.703 199.913 481.547C166.013 481.781 132.698 482.015 97.9391 482.248C92.6154 483.079 85.3102 482.69 79.0078 483.417L79.4136 483.157C74.0422 483.547 72.6695 483.105 65.8537 482.794C65.7821 483.079 63.2396 482.872 64.2184 483.339C61.855 483.781 59.9571 482.664 56.5552 482.872C56.4358 482.716 56.6387 483.183 55.9106 483.028C47.1253 483.625 57.5937 482.742 46.445 482.274C43.8428 482.3 41.2406 482.352 38.6265 482.378L34.7114 482.456L33.7326 482.482C33.4342 482.456 33.1357 482.456 32.8493 482.404C32.2644 482.3 31.6795 482.119 31.1065 481.833C29.9726 481.21 28.8744 480.223 27.8837 478.82C27.633 478.482 27.3943 478.119 27.1556 477.703C27.0481 477.521 26.9288 477.34 26.8213 477.106C26.702 476.898 26.6184 476.768 26.3797 476.275C26.1768 475.911 25.9977 475.366 25.759 475.184H23.873C21.6409 475.236 19.4088 475.262 17.2005 475.288C17.2005 473.262 17.1886 471.262 17.1886 469.288V460.198L17.0095 460.042L16.6514 459.705L15.9352 459.029L15.7562 458.848L15.601 458.692L15.41 458.484C15.1474 458.198 14.8968 457.887 14.658 457.549C14.1686 456.9 13.715 456.147 13.2853 455.341C12.4975 453.861 11.8052 452.121 11.2561 450.199C11.5784 451.394 11.5665 451.887 10.898 449.654C10.719 448.199 10.1818 446.017 9.82374 443.342C9.42983 440.641 9.35822 437.577 9.44177 434.616C9.52533 435.031 9.52533 437.888 9.59695 439.135C9.60888 435.473 9.62082 431.967 9.63276 428.564C9.62082 425.084 9.62082 421.708 9.60888 418.331C9.59695 411.76 9.58501 405.293 9.65663 398.437C9.50145 385.113 9.82374 369.504 9.63276 360.544C9.78793 362.673 9.74018 354.596 9.82374 351.739C9.38209 342.077 9.96698 325.793 9.6805 313.69L9.75212 314.106C9.71631 277.978 9.82374 238.631 9.62082 200.919C9.57307 179.7 9.96698 155.78 9.77599 132.457C9.71631 128.198 9.62082 131.574 9.57307 128.12C9.58501 122.25 9.71631 128.198 9.76406 125.886C9.58501 114.407 9.79987 99.265 9.79987 84.8765C9.72825 83.1624 9.70438 79.1367 9.60888 80.4873C9.6805 76.5135 9.70438 72.1502 9.71631 67.5792C9.72825 63.5016 10.2057 59.2941 11.2084 55.6061C12.1991 51.944 13.6912 48.9053 15.3742 47.0093L15.6965 46.6457C15.9233 46.386 16.1143 46.2561 16.3291 46.0484L16.9498 45.477L17.2602 45.1913C17.3796 45.1134 17.296 44.7498 17.3199 44.542C17.3199 42.9057 17.3318 41.2955 17.3318 39.7112C17.3557 37.5036 17.3676 35.3739 17.3915 33.3221C17.2721 35.0362 17.2124 34.8544 17.1766 33.6078C17.1528 33.0104 17.1408 32.0235 17.1408 31.1144C17.1289 30.6989 17.1289 30.2054 17.1289 29.712C17.5705 29.712 18.048 29.712 18.4896 29.686C19.2655 29.686 19.9698 29.66 20.495 29.634C21.987 29.66 22.1542 29.8938 21.7006 30.0496C22.6316 30.0236 23.491 30.0236 24.3027 29.9977H25.6993C25.8545 30.0756 25.938 29.7379 26.0335 29.5821L26.3319 28.9588L26.6184 28.3874L26.7855 28.0757C27.2272 27.2706 27.6808 26.5174 28.1702 25.8941C29.137 24.6214 30.2113 23.6085 31.4766 23.0631C32.1092 22.8034 32.7777 22.6216 33.5058 22.6216C34.3055 22.6476 35.165 22.6735 36.096 22.6995C39.1995 22.5956 40.047 22.1541 43.7831 22.284C46.1107 22.8553 51.5896 22.3099 55.2541 22.5177C54.3231 22.0242 59.0022 21.6347 62.6428 21.8424L61.5208 22.5437C73.1708 22.1022 89.9655 22.8813 103.609 22.0242L104.635 22.4138C118.709 21.9463 132.543 22.4398 146.091 21.6866C149.744 21.8944 155.592 22.0242 159.185 22.0242C164.115 21.6866 165.882 21.7126 169.236 21.1672C171.086 21.1152 172.208 21.4529 172.924 21.5827C179.119 21.6866 185.052 22.258 190.029 21.6087L190.22 21.9723C195.138 21.6087 202.276 21.1931 207.827 21.5827C209.366 21.2711 214.929 21.1412 212.41 20.7516C214.595 20.6737 213.819 21.323 216.051 20.9594L213.95 21.4529C226.424 21.5827 236.94 21.323 248.984 21.0633C252.481 21.6606 260.467 21.0113 267.294 21.323C271.293 21.0113 278.252 21.4788 281.224 20.7256L281.427 21.0892C286.775 21.1412 293.996 21.2191 301.003 21.297C305.097 21.3749 305.097 20.8815 308.32 20.6997L308.511 21.0373C312.056 20.8295 312.999 20.3101 314.312 19.9465C317.034 20.2062 317.344 19.9465 320.066 20.1802C317.428 20.362 315.184 20.7516 313.429 21.1931C317.762 21.349 322.107 20.4919 324.781 21.0113C328.302 21.1412 331.047 21.0113 331.56 20.6218C331.787 20.7256 333.697 20.8295 331.99 21.0113C333.494 21.0373 334.736 20.9074 335.738 21.0633C336.669 21.1931 337.469 21.5308 338.245 21.9723C337.803 21.6866 336.896 21.0892 336.18 20.9334C336.836 20.9334 337.803 21.297 338.531 21.7645C339.26 22.206 339.749 22.5956 339.534 22.1022C338.233 21.1152 338.149 21.0633 336.419 20.3361C336.801 20.2581 338.161 20.6477 339.451 21.8424C340.764 23.0112 341.933 24.9591 342.315 25.8941C342.769 27.0109 342.136 25.946 341.563 25.2188C340.978 24.4656 340.465 23.9202 341.301 25.2448C341.862 26.0239 342.303 26.6732 342.876 27.79C342.936 27.9718 343.031 27.9459 343.127 27.9459L343.402 27.9199L343.915 27.842L344.154 27.816L344.165 28.1536C345.395 27.9718 348.26 27.6602 349.835 27.9459C349.859 27.9978 350.002 28.0497 350.229 28.1017C350.337 28.1277 350.456 28.1277 350.563 28.1536C350.671 28.2056 350.754 28.2835 350.814 28.3354C351.578 29.2185 351.948 42.2305 351.948 45.6588V46.0224L353.559 47.321C355.457 49.6844 357.021 53.2945 357.94 57.554C358.525 60.255 358.883 63.1899 358.943 66.1507C359.003 69.1634 358.967 72.5658 358.979 75.7344C358.955 88.5905 358.943 101.265 358.919 113.913ZM120.356 486.196C120.475 486.196 120.559 486.196 120.595 486.17C120.523 486.196 120.427 486.196 120.356 486.196ZM352.187 458.25L351.256 459.107L350.802 459.523C350.802 459.549 350.802 459.549 350.802 459.575L350.945 459.445C351.327 459.081 351.733 458.666 352.187 458.25ZM315.78 485.884C315.757 485.755 315.9 485.677 316.21 485.625C315.542 485.651 315.16 485.729 315.78 485.884ZM241.094 17.8947C242.932 17.3493 250.488 17.2973 252.195 17.635C255.895 17.0636 249.27 17.583 249.962 16.9857C246.596 17.0376 245.045 17.3493 239.828 17.4272C239.769 17.7389 241.523 17.7648 239.136 17.9986C238.432 18.1025 237.811 18.1544 237.25 18.1804C239.327 18.0765 242.562 18.4141 241.094 17.8947ZM120.618 486.17C121.048 486.118 121.406 486.066 121.693 485.988C120.01 485.858 120.797 486.066 120.618 486.17Z" fill="#FAAE5D"/>
<path d="M21.4141 30.1272C21.5335 30.1014 21.629 30.0755 21.7126 30.0497C21.068 30.0497 20.3995 30.0755 19.6714 30.0755L21.4141 30.1272Z" fill="#FAAE5D"/>
<path d="M274.015 18.2057C273.931 18.154 273.871 18.1022 273.824 18.0504C274.05 18.1281 274.098 18.1798 274.015 18.2057Z" fill="#FAAE5D"/>
<path d="M338.245 21.9722C338.364 22.0498 338.448 22.1016 338.496 22.1016C338.412 22.0498 338.329 22.024 338.245 21.9722Z" fill="#FAAE5D"/>
<path d="M278.646 17.8945C277.703 17.9204 277.846 18.0497 277.417 18.1533C277.321 18.2309 276.342 18.0497 276.104 17.998C277.035 17.9721 277.906 17.7392 278.646 17.8945Z" fill="#FAAE5D"/>
<path d="M264.955 17.5311L258.091 17.9969C258.378 17.7381 262.52 17.557 264.955 17.5311Z" fill="#FAAE5D"/>
<path d="M240.079 16.9837C238.515 16.7766 238.945 16.6472 241.046 16.6472C241.201 16.7766 240.509 16.8543 240.079 16.9837Z" fill="#FAAE5D"/>
<path d="M238.802 17.5303C237.548 17.5303 236.832 17.4526 236.2 17.3233C237.083 17.3491 239.196 17.1939 238.802 17.5303Z" fill="#FAAE5D"/>
<path d="M236.2 17.3229C235.985 17.3229 235.842 17.2971 235.83 17.2454C235.949 17.2712 236.068 17.2971 236.2 17.3229Z" fill="#FAAE5D"/>
<path d="M199.698 16.8284C198.755 16.8284 196.714 17.0354 195.842 16.7766C196.821 16.9578 200.414 16.4661 199.698 16.8284Z" fill="#FAAE5D"/>
<path d="M181.519 17.1906C180.934 17.1647 180.695 17.1389 180.014 17.1906C178.928 17.0871 180.074 16.9059 180.981 16.8801L181.519 17.1906Z" fill="#FAAE5D"/>
<path d="M7.65118 374.698L7.5915 378.334L7.53181 374.075L7.65118 374.698Z" fill="#FAAE5D"/>
<path d="M112.955 487.208C111.248 487.234 113.421 486.949 111.523 486.949C113.17 486.82 112.645 487.182 112.955 487.208Z" fill="#FAAE5D"/>
<path d="M189.432 485.729H188.836L189.039 485.235L189.432 485.729Z" fill="#FAAE5D"/>
<path d="M0.405804 383.009L0.322249 386.827L0.238693 382.36L0.405804 383.009Z" fill="#FAAE5D"/>
<path d="M3.58082 411.007C3.54501 409.942 3.52114 408.825 3.5092 407.735V407.371C3.56888 408.903 3.59276 409.683 3.58082 411.007Z" fill="#FAAE5D"/>
<path d="M7.65129 374.698L7.5916 378.334L7.53192 374.075L7.65129 374.698Z" fill="#FAAE5D"/>
<path d="M12.593 17.7907C12.7482 17.7907 12.9033 17.7907 13.0585 17.7648C12.975 17.8166 12.8675 17.8683 12.7482 17.8942L12.211 17.8425C12.3423 17.8166 12.4736 17.8166 12.593 17.7907Z" fill="#FAAE5D"/>
<path d="M97.9987 502.273C98.2016 502.273 98.4045 502.247 98.5955 502.247C98.2255 502.376 97.9748 502.454 97.9987 502.273Z" fill="#FAAE5D"/>
<path d="M100.613 486.871C100.792 486.845 100.971 486.845 101.15 486.845C100.816 486.923 100.577 486.975 100.613 486.871Z" fill="#FAAE5D"/>
<path d="M110.914 502.817C109.064 502.868 111.606 502.351 109.147 502.428C111.2 502.17 110.58 502.765 110.914 502.817Z" fill="#FAAE5D"/>
<path d="M111.523 486.949C113.17 486.82 112.645 487.182 112.955 487.208C111.248 487.234 113.421 486.949 111.523 486.949Z" fill="#FAAE5D"/>
<path d="M120.069 500.948C119.759 501.051 119.353 501.129 118.876 501.207C119.258 501.077 118.171 500.715 120.069 500.948Z" fill="#FAAE5D"/>
<path d="M120.618 486.169C120.797 486.066 120.01 485.859 121.693 485.988C121.406 486.066 121.048 486.118 120.618 486.169Z" fill="#FAAE5D"/>
<path d="M177.973 0.388214C177.723 0.439971 177.52 0.491728 177.341 0.517607L177.973 0.388214Z" fill="#FAAE5D"/>
<path d="M178.57 1.19296C177.448 1.03769 178.63 0.753021 179.585 0.701263L180.158 1.19296C179.537 1.16708 179.286 1.08944 178.57 1.19296Z" fill="#FAAE5D"/>
<path d="M180.015 17.1924C178.928 17.0889 180.074 16.9077 180.981 16.8818L181.519 17.1924C180.934 17.1665 180.695 17.1406 180.015 17.1924Z" fill="#FAAE5D"/>
<path d="M188.836 485.729L189.039 485.235L189.432 485.729H188.836Z" fill="#FAAE5D"/>
<path d="M190.495 499.754L190.913 500.533H190.292L190.495 499.754Z" fill="#FAAE5D"/>
<path d="M195.138 0.543474C196.165 0.828138 199.913 0.0517806 199.161 0.62111C198.182 0.646988 196.045 0.957531 195.138 0.543474Z" fill="#FAAE5D"/>
<path d="M199.698 16.8293C198.755 16.8293 196.714 17.0364 195.842 16.7776C196.821 16.9587 200.414 16.467 199.698 16.8293Z" fill="#FAAE5D"/>
<path d="M211.634 1.06484C211.228 1.11653 210.727 1.14237 210.059 1.11653C210.846 1.03899 211.336 1.03899 211.634 1.06484Z" fill="#FAAE5D"/>
<path d="M236.2 17.323C235.985 17.323 235.842 17.2971 235.83 17.2454C235.949 17.2713 236.068 17.2971 236.2 17.323Z" fill="#FAAE5D"/>
<path d="M237.25 1.37612C237.083 1.37612 236.976 1.35028 236.964 1.29858C237.059 1.32443 237.155 1.35028 237.25 1.37612Z" fill="#FAAE5D"/>
<path d="M238.802 17.5303C237.548 17.5303 236.832 17.4527 236.2 17.3233C237.083 17.3492 239.196 17.1939 238.802 17.5303Z" fill="#FAAE5D"/>
<path d="M240.067 1.71298C238.706 1.71298 237.942 1.55771 237.262 1.37656C238.121 1.45419 240.497 1.19541 240.067 1.71298Z" fill="#FAAE5D"/>
<path d="M240.079 16.9846C238.516 16.7775 238.945 16.6481 241.046 16.6481C241.201 16.7775 240.509 16.8552 240.079 16.9846Z" fill="#FAAE5D"/>
<path d="M241.404 0.853998C239.769 0.543455 240.222 0.362305 242.418 0.362305C242.574 0.569333 241.857 0.672848 241.404 0.853998Z" fill="#FAAE5D"/>
<path d="M237.25 18.1805C237.811 18.1545 238.432 18.1025 239.136 17.9987C241.524 17.7649 239.769 17.7389 239.829 17.4273C245.045 17.3494 246.597 17.0377 249.963 16.9857C249.27 17.5831 255.895 17.0637 252.195 17.6351C250.488 17.2974 242.932 17.3494 241.094 17.8948C242.562 18.4142 239.327 18.0766 237.25 18.1805Z" fill="#FAAE5D"/>
<path d="M258.091 17.9969C258.378 17.7381 262.52 17.557 264.955 17.5311L258.091 17.9969Z" fill="#FAAE5D"/>
<path d="M267.426 1.6882L260.252 2.41542C260.55 2.02584 264.871 1.74015 267.426 1.6882Z" fill="#FAAE5D"/>
<path d="M273.824 18.0505C273.776 18.0505 273.728 18.0245 273.668 18.0245C270.851 17.8687 268.416 17.4012 269.968 17.0895C271.747 17.1415 269.92 17.3752 270.66 17.5311C272.141 17.2973 273.191 17.609 274.361 17.7129C273.764 17.7908 273.692 17.9206 273.824 18.0505Z" fill="#FAAE5D"/>
<path d="M274.015 18.2058C273.931 18.154 273.871 18.1022 273.823 18.0505C274.05 18.1281 274.098 18.1799 274.015 18.2058Z" fill="#FAAE5D"/>
<path d="M276.366 17.5311C275.602 17.7381 274.969 17.7381 274.361 17.7122C274.755 17.6346 275.387 17.5829 276.366 17.5311Z" fill="#FAAE5D"/>
<path d="M272.678 1.03888C274.528 1.09082 272.618 1.4804 273.394 1.71415C274.922 1.35054 275.996 1.84401 277.202 1.97387C276.617 2.1297 276.569 2.33748 276.712 2.54526C276.665 2.51928 276.605 2.49331 276.545 2.46734C273.585 2.23359 271.042 1.50638 272.678 1.03888Z" fill="#FAAE5D"/>
<path d="M276.903 2.75229C276.832 2.70053 276.772 2.62289 276.724 2.54526C276.939 2.62289 276.987 2.70053 276.903 2.75229Z" fill="#FAAE5D"/>
<path d="M277.226 1.97296C277.643 1.86944 278.312 1.76593 279.362 1.71417C278.551 2.02472 277.87 2.05059 277.226 1.97296Z" fill="#FAAE5D"/>
<path d="M276.104 17.998C277.035 17.9721 277.906 17.7392 278.646 17.8945C277.703 17.9204 277.846 18.0497 277.417 18.1533C277.321 18.2309 276.342 18.0497 276.104 17.998Z" fill="#FAAE5D"/>
<path d="M279.088 2.41541C280.067 2.38944 280.974 2.02583 281.75 2.25958C280.771 2.28555 280.914 2.49333 280.46 2.67513C280.365 2.80499 279.338 2.49333 279.088 2.41541Z" fill="#FAAE5D"/>
<path d="M315.78 485.884C315.16 485.728 315.542 485.651 316.21 485.625C315.9 485.676 315.756 485.754 315.78 485.884Z" fill="#FAAE5D"/>
<path d="M323.539 500.377C323.205 500.455 323.05 500.558 323.086 500.765C322.441 500.532 322.835 500.455 323.539 500.377Z" fill="#FAAE5D"/>
<path d="M344.118 9.2445C344.034 9.2445 343.819 9.06335 343.533 8.80457C343.724 8.95984 343.927 9.08923 344.118 9.2445Z" fill="#FAAE5D"/>
<path d="M356.317 14.7262C355.971 14.5704 355.887 14.3886 356.973 14.1029C357.093 14.3626 357.63 14.6483 357.785 14.908C357.713 15.5054 357.654 15.817 357.594 15.7651C357.606 15.6352 357.618 15.4534 357.63 15.2456C357.319 15.0638 356.675 14.908 356.317 14.7262Z" fill="#FAAE5D"/>
<path d="M357.761 31.5299C357.618 30.2833 357.522 28.5172 357.63 25.5044C357.713 34.7245 357.928 20.5438 357.761 31.5299Z" fill="#FAAE5D"/>
<path d="M120.595 486.17C120.559 486.195 120.475 486.195 120.356 486.195C120.427 486.195 120.523 486.195 120.595 486.17Z" fill="#FAAE5D"/>
<path d="M359.688 162.325C359.712 165.961 359.366 161.39 359.449 169.597C359.903 199.699 359.628 247.15 359.282 283.796L359.187 281.589C359.115 288.575 359.426 297.094 359.378 304.496C359.318 304.574 359.294 302.132 359.211 303.847C359.39 305.717 359.294 317.222 359.437 320.365C359.366 323.3 359.211 322.988 359.139 326.78L359.342 331.013C359.843 342.805 359.306 359.634 359.569 375.685C359.521 374.932 359.485 373.322 359.437 374.62C359.581 387.503 359.64 402.021 359.676 416.929C359.688 424.383 359.748 431.915 359.7 439.421C359.497 447.004 357.671 454.147 354.973 458.536C355.367 457.705 355.63 456.796 354.997 457.731C354.818 458.302 353.875 460.146 352.514 461.497C352.371 461.679 352.132 461.73 352.073 462.068C352.073 462.484 352.085 462.899 352.085 463.315C352.096 464.224 352.108 465.159 352.108 466.094C352.12 468.042 352.132 470.042 352.144 471.989C352.073 473.158 352.073 475.21 352.096 477.989C351.01 478.067 349.721 478.145 348.348 478.249C347.035 478.327 345.651 478.353 344.29 478.275L344.648 478.171C343.872 478.327 343.156 478.249 342.75 478.431C342.44 479.132 341.915 480.015 341.485 480.664C340.578 482.015 339.694 483.053 338.537 484.326C337.88 484.716 337.224 484.975 336.555 485.105C335.922 485.755 334.729 485.884 333.476 485.677C332.21 485.547 330.802 485.365 329.536 485.547L329.608 485.703C327.209 485.858 325.967 485.521 323.735 485.625L323.532 485.547C319.88 485.677 317.302 485.521 316.12 485.599C317.433 485.495 319.355 485.443 317.588 485.053C300.435 485.625 282.757 485.495 265.497 485.521C263.539 485.287 262.286 485.235 261.844 485.027C260.161 485.131 255.566 485.131 253.895 485.391C253.895 485.339 252.534 485.131 251.758 485.105C248.619 484.898 248.332 485.703 244.883 485.443C246.255 485.313 246.721 485.131 246.255 484.924C243.319 485.365 239.38 485.287 235.906 485.417C236.444 485.339 237.291 485.287 237.16 485.105C233.352 485.599 230.213 485.001 226.882 485.313L228.136 485.001C222.764 484.612 226.548 485.651 221.905 485.417C223.027 485.339 222.633 485.209 222.836 485.079C218.503 485.651 211.508 485.469 207.187 485.651C207.438 485.599 207.378 485.521 207.378 485.521C202.663 485.599 197.757 485.417 192.577 485.677C190.691 485.521 193.198 484.898 188.22 485.027C188.399 485.651 179.757 485.287 182.705 485.988C178.444 485.884 171.712 485.651 168.883 485.858C170.793 485.625 166.806 485.105 170.339 485.027L167.677 484.664C168.071 484.404 170.423 484.742 169.575 484.43C167.797 484.456 162.64 484.69 161.053 484.586C157.782 484.975 154.762 485.703 149.45 485.781C151.587 485.573 149.033 485.209 149.319 485.053L142.312 486.17C140.546 486.222 141.93 485.677 139.376 485.858C139.507 486.014 138.397 486.118 137.609 486.248C136.953 486.17 130.268 486.404 129.492 485.781C128.717 485.547 132.381 485.651 130.424 485.443C127.153 485.443 127.01 485.651 123.739 485.677L123.679 485.573C121.519 485.495 117.329 485.859 119.669 486.196C119.8 486.196 119.896 486.196 119.979 486.196C118.117 486.378 115.276 486.456 112.746 486.456C113.856 486.352 113.724 486.196 114.166 486.014C109.94 486.482 105.476 486.664 100.773 486.845C101.251 486.716 101.943 486.508 102.432 486.482C96.4044 486.118 90.0303 487.001 84.9573 486.508C85.2796 486.586 85.029 486.871 84.9812 486.793C81.9613 486.768 82.0926 486.352 80.1231 486.508C79.9321 486.248 77.6403 486.586 75.623 486.664C74.9545 486.768 74.9307 486.69 75.4201 486.612C71.29 486.793 61.9079 487.053 56.1784 486.742C56.3097 486.897 52.1677 487.339 50.6637 487.313L51.2486 486.949C50.8309 486.871 50.1863 486.845 49.5059 486.845C49.1359 486.871 48.8733 486.871 48.7897 486.819C47.9303 486.819 47.0828 486.819 46.5456 486.767C46.5098 486.767 46.474 486.793 46.4502 486.767C46.3785 486.793 46.3069 486.793 46.2472 486.793C44.2061 486.897 42.2008 487.027 40.2193 486.767C41.0668 486.767 42.344 486.248 40.0641 486.274C35.7789 486.352 38.8466 486.456 35.3611 486.586L33.1768 486.742C33.0932 486.923 32.0667 486.871 31.2908 486.56C30.8372 486.378 30.4552 486.196 30.3836 486.196C30.4075 486.248 30.4791 486.3 30.5985 486.404C30.0733 486.066 28.6648 485.313 27.495 483.911C26.1103 482.404 25.048 480.301 25.3225 480.404L25.9552 480.846C25.5971 480.249 25.2748 479.729 24.9764 479.21C24.7854 478.69 24.5347 479.028 24.2602 479.028C23.5559 479.184 22.8875 479.366 22.1594 479.469C21.9445 479.417 21.5148 479.34 21.5148 479.262C21.3596 479.573 20.4882 479.599 19.3781 479.573C18.8171 479.573 18.1845 479.547 17.5519 479.547H16.215C15.7375 479.573 15.272 479.599 14.8303 479.625C14.8184 478.638 14.7945 477.729 14.7587 476.898C14.7826 474.457 14.7945 471.704 14.8184 468.847C14.8184 467.6 14.8303 466.354 14.8303 465.107V463.73L14.8423 463.289C14.8423 463.159 14.8542 462.977 14.7707 462.951C14.6513 462.847 14.5319 462.717 14.4245 462.613C14.1858 462.328 13.947 462.068 13.7083 461.808C13.2428 461.185 12.8131 460.588 12.443 459.938C11.6791 458.718 11.1539 457.471 10.8555 456.64C8.63529 451.913 7.1671 445.732 7.1671 437.836C7.20291 439.369 7.32227 441.342 7.41776 441.706C7.31033 439.265 7.34614 437.654 7.32227 436.304C7.2984 434.901 7.27452 433.551 7.23872 431.421C7.28646 432.382 7.44164 422.097 7.561 416.929C7.46551 410.462 7.27452 412.669 7.15516 412.02C7.50132 406.124 6.9403 393.788 7.25065 386.386C7.2984 388.619 7.41776 395.814 7.50132 390.437C7.84748 384.516 7.25065 378.516 7.41776 368.984L7.13129 371.322C7.31033 367.088 6.96418 357.297 7.25065 358.284C7.15516 355.089 7.34614 347.038 7.0716 348.103C7.31033 332.442 6.92837 310.054 7.4297 300.418C7.38195 298.185 7.4297 292.575 7.28646 293.743C7.13129 297.457 7.39389 298.938 7.28646 300.314C7.28646 298.315 7.20291 297.873 7.1671 297.665C7.22678 292.783 7.25065 288.965 7.47745 293.562C7.65649 282.731 7.01192 282.394 7.11935 268.629C7.23872 269.252 7.27452 268.213 7.26259 264.187L7.05967 256.526C7.10741 247.617 7.32227 251.461 7.51326 251.253C7.48938 246.5 7.48938 240.657 7.34614 238.501L7.57294 233.281C7.41776 236.138 7.47745 228.71 7.4297 226.58L7.47745 228.813C7.561 227.93 7.50132 222.424 7.47745 219.645C7.35808 220.295 7.31033 225.931 7.27452 228.995C7.19097 226.554 7.21484 222.762 7.11935 219.541C7.2984 220.606 7.25065 211.802 7.27452 208.01C7.31033 203.673 7.09548 203.101 7.10741 201.854C7.20291 201.725 7.11935 194.764 7.26259 198.14C7.28646 199.621 7.1671 201.517 7.25065 203.984C7.32227 201.101 7.48938 201.439 7.37002 195.517C7.27452 191.024 6.99999 196.66 7.11935 188.167C7.1671 190.401 7.23872 190.816 7.31033 192.531L7.40583 184.583L7.22678 184.245C7.27452 183.181 7.28646 183.934 7.31033 183.414C7.13129 181.077 7.26259 171.285 7.05967 169.493C7.03579 165.494 7.17903 161.052 7.19097 157.235L7.20291 157.962C7.31033 153.287 7.23872 147.08 7.13129 143.132L7.1671 143.34C7.17903 140.794 7.15516 134.769 7.04773 131.574C7.17903 125.107 7.70424 129.393 7.48938 122.25C7.47745 115.705 7.1671 111.965 7.05967 114.614C7.17903 102.849 6.89256 89.4736 7.15516 78.5653C7.09548 76.8771 7.04773 77.942 6.99998 74.4617C7.01192 72.2801 7.01192 70.0984 7.01192 67.8908C7.02386 65.5793 7.11935 63.086 7.38195 60.7485C7.90716 56.0216 9.01726 51.6323 10.5093 48.1781C11.2494 46.4639 12.0969 44.9575 12.9802 43.7368C13.4218 43.1135 13.9112 42.5681 14.329 42.1266C14.4245 41.9707 14.7229 41.9967 14.6513 41.5292C14.6752 39.867 14.6871 38.2308 14.711 36.6725C14.7468 34.8025 14.7707 32.9844 14.8065 31.2703C14.8781 36.2829 14.9736 31.6079 15.081 31.504C15.0452 30.4392 15.0333 29.1146 15.0333 28.2575C15.0333 27.3225 15.0452 26.6213 15.0571 26.0239C15.7614 26.1018 16.1314 26.1538 16.5969 25.8421C16.3343 25.5824 16.4656 25.4266 14.7229 25.2967C14.711 26.1538 14.699 27.4524 14.6752 29.1406C14.6752 27.9199 14.6632 26.6732 14.6632 25.1669C17.3012 25.1409 20.4524 25.1149 23.2814 25.0889H24.2005L24.4512 25.1149C24.4989 25.0889 24.5586 25.1409 24.5944 25.063C24.7257 24.8292 24.857 24.5955 24.9764 24.3617C25.2032 23.9462 25.4419 23.5826 25.6568 23.219C26.4446 21.9983 27.1846 21.1412 27.7695 20.6218C26.8623 21.4529 27.7337 20.2841 28.7006 19.3751C28.5693 19.7906 29.3929 19.1673 30.6223 18.6479C31.2311 18.3882 31.9592 18.1544 32.6993 18.0765C33.4035 18.0246 34.1436 17.9986 34.8121 17.9466L35.194 17.609L36.9009 17.9466C37.9275 17.8427 38.0349 17.2714 40.649 17.583C40.7922 17.7129 40.9355 17.8427 41.4249 17.9207C44.1583 17.6609 48.0138 17.2194 50.986 17.4791L53.4091 17.9726C54.6386 17.9207 56.6439 17.6609 54.8176 17.5051C59.7594 17.7648 62.9345 17.8168 64.522 18.2323C73.2476 17.2194 85.9003 17.1675 96.0464 17.2454L95.7479 17.5051C98.4695 17.7129 97.1684 17.0636 99.0663 17.2194C98.183 17.4791 101.143 17.7389 99.0066 18.0246C102.898 18.2843 104.02 17.609 106.562 17.5051C106.944 17.1675 104.521 17.7129 105.011 17.2973C105.452 17.1675 110.406 17.5311 111.015 17.0376C111.982 17.2454 111.23 17.609 110.704 17.7908L113.08 17.5571C115.992 18.1284 106.443 18.5959 109.499 19.2972L111.695 19.2193C113.796 19.7387 105.894 19.7906 111.397 19.9725C113.796 19.7387 115.837 19.0115 113.712 18.8037C118.678 18.6739 116.016 17.635 121.364 17.6869C122.832 17.9726 117.078 17.7389 118.105 18.1544C120.636 18.544 123.166 17.9207 125.41 18.0765C122.915 17.8687 125.028 17.3753 126.64 17.2973C129.361 17.5311 124.873 17.7648 128.729 17.8168C129.361 17.5311 132.906 17.3233 129.839 17.1155C131.235 16.4662 133.849 17.2973 135.95 16.8039C137.203 17.2454 131.975 17.8427 136.213 18.0765C135.544 17.635 141.441 17.4791 139.209 16.8298C140.868 16.9597 141.035 17.2973 139.829 17.5571C142.205 17.8427 145.583 16.7779 146.359 17.635L147.182 17.1934C147.922 17.3233 148.985 17.4791 150.202 17.6869C152.291 17.6869 156.935 17.0896 156.744 17.7648C157.412 17.6869 162.187 17.7129 160.336 17.2454C157.376 16.9597 156.934 17.583 155.275 16.9597C157.376 17.4791 159.561 16.8818 161.267 16.726L161.554 16.9857C162.437 16.8818 164.347 16.9337 165.242 16.7519C164.968 16.8818 165.35 16.9857 165.994 17.0376L167.069 16.648C171.223 16.4403 168.047 17.3493 172.082 17.2194L169.014 17.5311C169.683 17.4791 171.067 17.8427 173.001 17.7129C173.741 17.3493 175.15 16.9337 175.806 16.648C177.776 16.4922 177.095 16.9078 178.349 16.7779L176.128 17.1155C175.687 17.2194 178.11 17.7129 181.142 17.7129C183.087 17.583 186.095 17.0636 183.028 16.8558C184.556 16.8558 186.692 17.0636 185.487 17.3233C188.936 17.2194 185.033 16.9337 188.017 16.726C189.235 16.9597 193.031 17.2973 195.322 17.6609L192.207 18.2583H194.272C191.598 18.7518 195.633 18.6219 194.129 19.1413C195.537 19.2193 197.244 19.0375 198.605 18.9076C194.475 18.1025 203.236 17.7908 202.043 17.0636C207.7 16.8558 205.576 18.8557 211.484 17.7129C210.732 17.5571 212.212 17.1675 211.293 17.1155C213.012 16.9597 212.905 16.4662 216.271 16.726C213.203 17.0116 219.577 17.4791 215.137 17.9207C215.435 17.6609 212.654 17.7389 211.974 17.7908C213.43 18.0765 211.675 18.544 215.28 18.544C217.476 18.4661 220.484 18.4661 220.055 18.0765C219.959 17.635 216.689 18.1284 218.097 17.6869C222.478 17.5311 223.218 18.1804 225.032 17.4272C222.263 17.4791 221.571 17.0376 221.618 16.7519L224.841 16.5701L224.209 16.8558C229.365 17.0636 225.737 16.3364 230.738 16.4143L233.078 16.9857C231.884 17.4791 225.808 16.7779 226.691 17.5571C229.95 17.583 231.024 17.1934 234.092 17.4012C233.4 17.4272 232.481 17.5051 231.8 17.5571C232.791 17.583 233.77 18.3362 236.873 18.1804C236.253 18.2323 235.739 18.3102 235.489 18.4661C239.678 18.492 239.475 19.1673 240.156 19.6088C241.314 19.6348 242.436 19.453 243.128 19.3751C243.617 18.9595 242.102 18.9595 242.018 18.544C246.685 18.6479 251.185 18.4401 253.752 18.0246C255.315 18.2323 254.826 18.6479 252.976 18.6739C258.526 18.57 264.471 18.6219 269.735 18.7518C266.858 18.1804 273.065 18.4401 273.638 18.2064C273.96 18.4401 274.461 18.6739 274.067 18.8816C277.72 18.5959 273.912 19.2712 277.529 19.2712C281.17 18.9595 285.658 18.7258 289.704 18.6219C294.801 19.1154 302.596 18.6219 307.144 18.6219C309.519 18.8816 307.919 19.479 310.498 19.5829C313.518 19.5569 308.254 18.9336 312.73 19.2193L312.3 19.3232C313.577 19.1933 319.737 19.6868 321.563 19.0115L320.465 19.5309C321.3 19.5829 322.076 19.427 322.768 19.3751C322.804 19.5829 323.783 19.7647 322.422 19.8945C325.192 20.362 328.235 19.8426 331.243 19.8166L329.298 19.427C330.587 19.3491 331.769 19.3232 332.903 19.3232C334.013 19.3232 335.111 19.2452 336.197 19.6608C338.346 20.4399 340.411 22.3619 342.356 25.972L342.13 26.0499C342.332 26.3875 342.488 26.6992 342.667 27.0109C342.834 27.2706 343.096 27.0628 343.311 27.0888L344.791 26.9849C344.505 27.1148 344.756 27.2446 345.245 27.3225C347.035 27.1407 349.9 26.9849 350.581 27.7641C350.592 27.79 350.604 27.816 350.616 27.842C351.046 28.0498 351.631 28.2575 351.356 28.4653C351.225 28.3874 351.022 28.3354 350.795 28.2835C351.655 31.1404 351.846 43.7109 351.87 45.5549L353.35 46.7496L353.338 46.8795C353.565 47.0872 353.803 47.347 354.066 47.6586C354.925 48.6975 355.988 50.3857 357.038 53.2166C358.053 56.0476 359.067 60.1771 359.282 65.6053C359.951 93.8628 359.306 131.289 359.688 162.325Z" fill="#FAAE5D"/>
</g>
<defs>
<clipPath id="clip0">
<rect width="367" height="503" fill="white"/>
</clipPath>
</defs>
</svg>
