<svg width="759" height="478" viewBox="0 0 759 478" fill="none" xmlns="http://www.w3.org/2000/svg">
<g clip-path="url(#clip0)">
<path d="M739.893 29.963C739.597 28.7783 739.399 27.1 739.621 24.2369C739.794 32.9988 740.238 19.5228 739.893 29.963Z" fill="#FAAE5D"/>
<path d="M7.40568 390.579C7.33163 389.567 7.28225 388.506 7.25757 387.469V387.124C7.381 388.58 7.43037 389.32 7.40568 390.579Z" fill="#FAAE5D"/>
<path d="M26.0439 16.9065C26.3648 16.9065 26.6857 16.9065 27.0066 16.8818C26.8338 16.9312 26.6116 16.9806 26.3648 17.0052L25.2539 16.9559C25.5255 16.9312 25.797 16.9312 26.0439 16.9065Z" fill="#FAAE5D"/>
<path d="M202.673 477.309C203.093 477.309 203.513 477.284 203.907 477.284C203.142 477.408 202.624 477.482 202.673 477.309Z" fill="#FAAE5D"/>
<path d="M248.318 476.05C247.676 476.149 246.837 476.223 245.849 476.297C246.639 476.174 244.393 475.828 248.318 476.05Z" fill="#FAAE5D"/>
<path d="M368.071 0.370239C367.552 0.419602 367.132 0.468964 366.762 0.493645L368.071 0.370239Z" fill="#FAAE5D"/>
<path d="M437.685 1.01195C436.846 1.06132 435.809 1.086 434.427 1.06132C436.056 0.987272 437.068 0.987272 437.685 1.01195Z" fill="#FAAE5D"/>
<path d="M563.93 0.987183C567.756 1.03654 563.806 1.40676 565.411 1.62889C568.571 1.28336 570.792 1.7523 573.286 1.8757C572.076 2.02379 571.977 2.22124 572.274 2.41869C572.175 2.39401 572.051 2.36933 571.928 2.34465C565.806 2.12252 560.548 1.43144 563.93 0.987183Z" fill="#FAAE5D"/>
<path d="M572.669 2.61615C572.521 2.56679 572.398 2.49274 572.299 2.4187C572.743 2.49274 572.842 2.56679 572.669 2.61615Z" fill="#FAAE5D"/>
<path d="M573.335 1.87572C574.199 1.77699 575.582 1.67827 577.754 1.62891C576.076 1.92508 574.669 1.94976 573.335 1.87572Z" fill="#FAAE5D"/>
<path d="M669.117 475.507C668.426 475.581 668.105 475.68 668.179 475.877C666.846 475.655 667.661 475.581 669.117 475.507Z" fill="#FAAE5D"/>
<path d="M711.677 8.7864C711.504 8.7864 711.06 8.61363 710.467 8.36682C710.862 8.51491 711.282 8.63831 711.677 8.7864Z" fill="#FAAE5D"/>
<path d="M758.951 423.159C758.901 415.73 758.852 408.227 758.803 400.823C758.679 386.014 758.482 371.575 758.013 358.766C758.161 357.482 758.284 359.062 758.432 359.827C757.618 343.858 759.296 327.125 757.716 315.426L757.05 311.205C757.321 307.454 757.766 307.75 758.013 304.838C757.568 301.703 757.889 290.276 757.297 288.425C757.568 286.722 757.642 289.116 757.84 289.066C757.988 281.711 757 273.221 757.223 266.286L757.519 268.482C758.63 232.053 759.518 184.887 758.062 154.974C757.815 146.804 758.926 151.345 758.827 147.742C758.235 132.292 758.408 115.311 758.506 98.6265C758.556 90.3089 758.58 82.0654 758.457 74.1428C758.408 70.1691 758.333 66.2942 758.185 62.5179C758.013 58.7664 758.062 55.0149 757.371 51.7076C756.482 46.4258 754.162 42.4768 751.767 39.8606C749.397 37.1951 747.027 35.7142 745.176 34.801C743.275 33.9371 741.893 33.5669 741.004 33.4188C740.115 33.2708 739.72 33.2461 739.72 33.2461C745.2 35.2206 749.866 39.2683 752.557 44.3279C753.939 46.8454 754.779 49.6097 755.149 52.4233C755.47 55.0889 755.322 58.4949 755.371 61.6541C755.371 74.4636 755.297 87.051 755.174 99.6137C754.902 124.764 754.433 149.791 753.89 176.125C754.038 193.896 754.359 217.17 754.013 233.534C754.112 267.964 753.767 302.468 753.47 337.145C753.372 354.496 753.248 371.896 753.149 389.346C753.149 398.058 753.149 406.795 753.125 415.557L753.149 422.122L753.174 423.776C753.174 424.344 753.174 424.862 753.149 425.257C753.149 426.145 753.051 427.009 752.952 427.898C752.434 431.353 751.125 434.71 749.027 437.598C750.903 435.228 749.669 438.239 747.595 440.485L746.904 440.831C745.941 442.015 744.83 443.101 743.596 444.064C743.127 444.36 742.757 444.607 742.411 444.755C741.942 444.977 741.596 445.125 741.349 445.224C740.584 445.545 740.362 445.52 740.708 445.273C740.905 445.175 741.177 444.977 741.572 444.73C741.769 444.582 742.016 444.41 742.312 444.212C742.781 443.817 743.472 443.422 744.188 442.83C743.522 443.348 742.757 443.743 742.041 444.163L741.349 444.533C740.93 444.755 740.485 444.953 740.016 445.15L737.375 446.31L736.067 446.902C736.017 447.347 736.067 447.865 736.042 448.334L736.067 451.222V455.294C736.067 457.589 736.091 459.835 736.091 462.007L735.77 462.032H733.795C731.426 462.057 729.08 462.057 726.735 462.057C723.773 462.057 720.835 462.081 717.898 462.081C717.009 462.649 716.244 463.513 715.429 464.253L714.688 464.895L714.121 465.339C713.355 465.931 712.565 466.474 711.726 466.943C708.393 468.918 704.567 469.93 700.691 469.955C695.976 469.955 691.261 469.93 686.447 469.93C684.645 470.695 672.253 469.955 671.315 470.769C670.056 470.621 671.241 470.596 672.006 470.423C653.072 470.818 651.763 470.843 634.533 469.856C560.943 469.214 489.97 469.757 417.492 469.535C344.174 469.881 272.091 470.226 196.897 470.572C185.393 471.806 169.594 471.238 155.967 472.299L156.831 471.929C145.204 472.472 142.242 471.806 127.504 471.361C127.356 471.781 121.851 471.46 123.974 472.176C118.839 472.793 114.741 471.164 107.385 471.485C107.138 471.263 107.558 471.929 106.002 471.707C86.9939 472.571 109.631 471.312 85.5128 470.621C79.9831 470.67 74.4287 470.72 68.8496 470.769L60.6538 470.843C58.2593 470.794 55.8647 470.374 53.6183 469.609C51.3472 468.844 49.1995 467.709 47.2493 466.277L46.5334 465.734L45.5953 464.895L44.2869 463.71C44.0648 463.562 43.892 463.241 43.6204 463.217L42.7317 463.241L37.5723 463.266C33.1782 463.315 28.8334 463.365 24.4886 463.389C24.464 461.686 24.464 459.983 24.464 458.305L24.4393 454.035L24.464 450.876V448.26C24.4393 448.112 24.4887 447.939 24.4146 447.84L24.0196 447.667L20.8598 446.261C20.5882 446.137 20.3167 446.014 20.0698 445.89L19.4774 445.57C19.2058 445.446 18.9343 445.298 18.6874 445.125C17.6259 444.508 16.6138 443.817 15.6757 443.027C13.9477 441.596 12.4171 439.918 11.1828 438.066C11.8987 439.227 11.7506 439.794 10.2694 437.696C9.99789 436.215 8.76358 434.216 7.82551 431.699C6.83806 429.157 6.29497 426.318 6.56651 423.554C6.81337 424.097 6.86275 426.466 7.20835 427.725C6.96149 424.739 7.20835 420.913 7.15898 417.507C7.13429 414.076 7.13429 410.695 7.10961 407.363C7.06024 400.823 7.01086 394.331 7.25772 387.47C6.73932 374.241 7.80082 358.791 7.18367 349.93C7.6527 352.028 7.52927 344.007 7.75145 341.168C6.36902 331.567 8.24517 315.376 7.3071 303.357L7.55396 303.776C7.45521 267.841 7.77613 228.746 7.13429 191.255C6.98618 170.152 8.22048 146.385 7.60333 123.209C7.43053 118.964 7.13429 122.32 6.98618 118.865C7.03555 113.04 7.43053 118.964 7.57864 116.668C7.03555 105.241 7.70208 90.2102 7.67739 75.8951C7.45521 74.1921 7.40584 70.1938 7.08492 71.5512C7.3071 67.5776 7.40584 63.2337 7.43053 58.717V55.311C7.4799 54.3238 7.50459 53.3365 7.62802 52.3493C7.87488 50.3748 8.3686 48.425 9.10919 46.5245C10.615 42.7977 13.133 39.441 16.2435 36.9976C17.0334 36.4299 17.8234 35.8376 18.6627 35.3687C19.0824 35.0972 19.4527 34.9244 19.9711 34.6529C20.7857 34.2333 21.7485 33.8878 22.5878 33.4929L23.8715 32.9499L24.5133 32.6537C24.7355 32.555 25.0071 32.5303 24.933 32.2341C24.933 31.2963 24.9577 30.3831 24.9577 29.4699C24.9824 28.5567 25.0071 27.6435 25.0071 26.7302C25.0317 26.1873 25.0564 25.6443 25.0811 25.1013C24.5627 27.4707 24.3652 26.1626 24.2912 23.423C24.2665 21.5225 24.2418 18.6595 24.2171 16.3888C24.7355 16.3642 25.1799 16.3395 25.5255 16.2901C25.9698 16.3148 26.1426 16.3642 26.5129 16.4135C27.0066 16.4629 27.3029 16.5369 27.4016 16.5863C27.5744 16.685 27.4016 16.8084 27.0066 16.8825C27.3029 16.9072 27.5991 16.8825 27.8953 16.8825C29.5493 16.8578 31.1045 16.8578 32.5857 16.8331C35.7208 16.8084 38.5597 16.8084 41.448 16.7837C42.5589 16.7097 43.8673 17.154 44.5832 16.0186L45.8668 14.8339L46.6815 14.1429C47.6442 13.3777 48.7058 12.6867 49.866 12.045C52.2112 10.7615 55.0254 9.72493 58.4815 9.37939C59.9626 9.15726 60.9748 9.08322 62.2831 9.00918C63.5174 8.91045 64.6283 8.83641 65.7886 8.76237C68.0844 8.61428 70.5777 8.49087 74.6262 8.5896C79.6622 9.40408 91.4868 8.61428 99.4111 8.91045C97.4115 8.21938 107.533 7.62703 115.432 7.94789L112.988 8.95982C138.193 8.29342 174.506 9.45344 204.031 8.1947L206.253 8.78705C236.691 8.09597 266.635 8.81173 295.913 7.67639C303.837 7.99725 316.476 8.1947 324.277 8.1947C334.942 7.70108 338.743 7.75044 346.001 6.93596C350 6.8866 352.444 7.35554 353.975 7.55299C367.379 7.72576 380.216 8.54023 390.979 7.60235L391.399 8.09597C402.038 7.57767 417.467 6.98532 429.465 7.52831C432.822 7.08405 444.844 6.91128 439.389 6.34361C444.128 6.22021 442.45 7.18277 447.263 6.63979L442.746 7.38022C469.703 7.55299 492.464 7.18277 518.508 6.81255C526.086 7.65171 543.367 6.71383 558.129 7.18277C566.794 6.71383 581.828 7.38022 588.271 6.31893L588.69 6.81255C600.268 6.8866 615.894 6.8866 631.052 7.13341C639.914 7.25681 639.914 6.51638 646.876 6.26957L647.295 6.76319C654.948 6.46702 656.997 5.67722 659.836 5.1836C665.736 5.52913 666.402 5.15892 672.278 5.50445C666.575 5.77595 661.737 6.31893 657.935 6.98532C667.291 7.20745 676.721 5.94871 682.498 6.71383C690.052 6.8866 696.026 6.71383 697.186 6.14616C697.902 6.31893 701.654 6.46702 698.075 6.71383C703.826 6.51638 707.258 7.33086 710.467 8.36747C709.48 7.94789 708.097 7.35554 706.937 7.10873C708.344 7.18277 710.368 7.75044 711.899 8.34279C713.429 8.91045 714.466 9.35471 714.121 8.68832C712.788 8.04661 712.022 7.7998 711.183 7.47895C710.344 7.18277 709.43 6.78787 707.604 6.26957C708.443 6.19552 711.331 6.8866 714.022 8.39215C716.762 9.82366 719.033 11.9956 719.724 12.9828C720.366 13.1309 720.292 13.2543 719.823 13.3531C719.552 13.5011 719.305 13.279 719.008 13.0816C718.712 12.8841 718.391 12.6373 718.07 12.4152C716.787 11.576 715.75 11.0084 717.379 12.5139C717.996 12.9335 718.663 13.5011 719.255 13.9948C720.045 14.0195 720.885 13.896 721.65 13.8714L725.822 13.5258L732.265 13.0075C729.006 13.1803 725.18 12.8594 726.464 12.4152L720.169 12.7607L720.613 12.193C719.996 12.3658 719.65 11.8969 719.255 11.5267C718.885 11.2305 718.342 10.7369 717.824 10.3666C716.811 9.55216 715.75 8.86109 714.688 8.21938C712.59 6.96064 710.393 5.99808 708.097 5.33168C705.801 4.64061 703.407 4.27039 700.889 4.24571C698.42 4.24571 695.878 4.29508 693.088 4.41848L697.285 4.96147C690.768 4.98615 684.176 5.75126 678.202 5.10955C681.14 4.88742 679.042 4.61593 678.968 4.31976C677.462 4.41848 675.783 4.61593 673.981 4.54189L676.326 3.80145C672.352 4.73934 659.07 4.04826 656.306 4.24571L657.244 4.07295C647.542 3.67805 658.947 4.61593 652.405 4.61593C646.826 4.46784 650.307 3.604 645.148 3.2091C635.322 3.23379 618.437 3.94954 607.427 3.23379C598.664 3.38187 588.962 3.72741 581.087 4.14699C573.262 4.14699 581.507 3.18442 573.582 3.604C574.422 3.28315 573.36 2.93761 572.669 2.61676C571.632 2.98697 557.956 2.56739 564.226 3.40655C552.821 3.2091 539.985 3.13506 527.962 3.30783C531.962 3.25847 533.023 2.64144 529.641 2.34526C524.087 2.93761 514.36 3.28315 504.264 3.11038C504.461 3.72741 507.72 3.72741 506.683 4.31976C505.177 4.41848 502.733 4.68997 500.215 4.66529C498.759 4.02358 499.203 3.03634 490.143 3.01166C492.587 1.99973 505.547 3.13506 501.45 2.14781C505.449 1.33334 521.766 1.28397 525.444 1.7776C533.492 0.938438 519.149 1.67887 520.631 0.839713C513.373 0.913757 509.991 1.35802 498.709 1.48142C498.586 1.901 502.388 1.97505 497.204 2.32058C487.181 3.2091 484.688 1.67887 482.17 1.65419C483.626 1.58015 485.626 1.48142 487.107 1.43206C480.491 1.13589 478.146 1.70355 471.11 1.65419C469.209 0.518858 482.342 1.53079 484.935 0.815032L479.849 0.000553811C469.037 -0.0981708 476.911 0.938438 465.753 0.642264L467.111 0.222684L460.125 0.494177C460.026 0.913757 461.532 1.55547 467.506 1.48142C463.581 2.59208 462.001 1.62951 452.522 1.85164C449.485 2.49335 456.545 1.80228 456.743 2.41931C457.681 2.98697 451.164 3.01166 446.424 3.11038C438.623 3.11038 442.4 2.44399 439.265 2.02441C440.746 1.901 446.745 1.82696 446.103 2.19718C455.706 1.53079 441.931 0.889076 448.572 0.420134C441.215 0.0499161 441.512 0.790351 437.685 1.01248C439.932 1.08652 436.55 1.65419 438.204 1.87632C425.441 3.57932 430.033 0.642264 417.788 0.938438C420.38 2.02441 401.421 2.46867 410.358 3.65337C407.42 3.85081 403.717 4.09763 400.656 3.97422C403.915 3.23379 395.176 3.40655 400.977 2.6908H396.509L403.248 1.80228C398.286 1.28397 390.066 0.790351 387.449 0.444815C380.981 0.76567 389.449 1.16057 381.969 1.33334C384.585 0.963119 379.969 0.642264 376.661 0.642264C383.302 0.938438 376.785 1.67887 372.588 1.87632C365.997 1.87632 360.763 1.18525 361.726 1.01248L366.54 0.518858C363.8 0.716307 365.305 0.12396 361.01 0.321409C359.628 0.740989 356.567 1.35802 354.937 1.901C350.765 2.07377 347.803 1.53079 346.347 1.62951L352.987 1.18525C344.248 1.35802 351.111 0.0499161 342.125 0.34609L339.805 0.913757C338.373 0.839713 337.534 0.666945 338.175 0.469496C336.225 0.740989 332.127 0.691626 330.202 0.815032L329.585 0.444815C325.882 0.691626 321.167 1.53079 316.624 0.790351C320.204 1.70355 321.167 0.790351 327.585 1.20993C331.56 1.901 321.241 1.85164 319.784 1.95037C320.204 0.963119 310.157 1.85164 305.639 1.85164C302.998 1.5061 300.702 1.33334 299.097 1.13589L297.345 1.7776C295.641 0.518858 288.334 2.07377 283.199 1.67887C285.816 1.28397 285.446 0.790351 281.842 0.592902C286.705 1.55547 273.942 1.7776 275.399 2.41931C266.215 2.07377 277.522 1.20993 274.806 0.543539C270.264 1.28397 264.611 0.0745973 261.599 1.01248C268.215 1.30866 260.562 1.62951 259.18 2.02441C250.836 1.95037 260.562 1.62951 254.662 1.28397C251.181 1.40738 246.615 2.14781 252.021 2.41931C247.158 2.19718 241.677 3.11038 236.222 2.51803C234 1.92568 246.417 2.24654 243.257 1.82696C231.679 1.7776 237.456 3.28315 226.693 3.4806C231.309 3.80145 226.89 4.83806 221.706 5.20828C209.783 4.93679 226.89 4.83806 222.348 4.09763L217.584 4.19635C210.992 3.18442 231.655 2.51803 225.335 1.67887L220.2 2.02441C221.336 1.72824 222.965 1.20993 220.867 0.913757C219.559 1.62951 208.82 1.11121 207.882 1.25929C206.82 1.87632 212.054 1.08652 211.239 1.58015C205.734 1.72824 203.315 2.74016 194.872 2.36995C199.513 1.92568 193.12 1.53079 195.02 1.18525C190.898 0.938438 193.737 1.901 187.837 1.58015L188.503 1.20993C166.557 1.11121 139.156 1.16057 120.296 2.64144C116.864 2.04909 109.977 1.97505 99.3123 1.58015C103.237 1.7776 98.8927 2.19718 96.2513 2.27122L90.9931 1.55547C84.5747 1.16057 76.2555 1.82696 70.3308 2.22186C69.2693 2.07377 68.9484 1.87632 68.6522 1.70355C62.9497 1.23461 62.8509 2.07377 60.4564 2.27122C59.0739 2.14781 57.6668 2.12313 56.2597 2.19718L55.4451 2.83889C52.3593 3.57932 48.9279 4.96147 46.484 6.31893C44.0154 7.60235 42.4355 8.713 42.5095 8.12066C42.2627 8.3181 42.0405 8.54023 41.8183 8.73768C41.5961 8.95982 41.3493 9.18194 41.3493 9.20663C41.2505 9.35471 41.1765 9.47812 41.1271 9.57684C41.053 9.74961 41.1024 9.82366 41.448 9.62621C41.3246 9.72493 41.1765 9.87302 40.979 9.8977C40.8556 9.87302 40.7074 9.84834 40.5593 9.84834C40.3618 9.82366 40.3865 9.82366 39.8681 9.79897C38.2141 9.74961 36.3133 9.72493 34.2644 9.67557C32.2154 9.65089 30.0183 9.65089 27.7719 9.62621C24.3652 9.65089 20.9092 9.65089 17.5025 9.67557C17.5272 12.1684 17.5518 14.6365 17.5765 17.0059C17.6012 18.6595 17.6259 20.2144 17.6506 21.6953C17.7 20.4859 17.7493 19.6221 17.8234 18.9804C17.8481 18.5608 17.8728 18.2153 17.8975 17.9438C17.9468 17.5982 17.9715 17.3267 18.0209 17.1293C18.169 16.2901 18.3418 16.3642 18.5887 16.1174C18.8108 16.7344 18.9096 17.2033 18.9343 17.6723C18.9343 17.9191 18.959 18.1659 18.9343 18.4374C18.9343 18.6348 18.9096 18.857 18.8849 19.0791C18.8108 19.9923 18.6874 21.2264 18.9343 23.2749C18.6133 23.3983 18.2924 28.0384 18.0703 23.0528C17.9221 24.657 17.8234 27.0264 17.7493 27.2732L17.6753 27.7915C17.6012 27.9149 17.3544 27.9149 17.1816 27.989C17.0087 28.0384 16.8359 28.1124 16.6878 28.1864C16.6385 28.1864 15.8979 28.5567 15.4535 28.7788C11.5284 30.9507 7.87488 34.184 5.18409 38.2317C2.46861 42.2794 0.691212 47.0922 0.222175 52.0531C0.0493723 53.2625 0.0740584 54.5706 0.0246861 55.7059L0.0493723 59.0132C0.0246861 61.2098 0.0246861 63.3818 0 65.529C0.148117 69.0091 0.271548 67.9478 0.493723 69.6261C-0.345606 80.4858 0.543095 93.7643 0.172803 105.463C0.518409 102.847 1.50585 106.524 1.53054 113.04C2.22175 120.148 0.567781 115.879 0.148117 122.296C0.469037 125.48 0.567781 131.477 0.518409 134.019L0.394978 133.822C0.76527 137.721 0.987446 143.892 0.64184 148.556L0.617153 147.816C0.543095 151.617 0.0987446 156.035 0.172803 160.009C0.814643 161.81 0.419664 171.51 0.987446 173.855C0.913387 174.348 0.864015 173.608 0.740584 174.694L1.28368 175.015L0.962759 182.913C0.740584 181.21 0.518409 180.79 0.370292 178.569C-0.0246861 187.01 0.864015 181.432 1.16025 185.874C1.55523 191.773 1.01213 191.428 0.789956 194.291C0.518409 191.847 0.913387 189.947 0.814643 188.491C0.370292 185.134 0.64184 192.069 0.32092 192.168C0.296234 193.427 0.987446 193.97 0.839329 198.289C0.789956 202.041 0.962759 210.827 0.345606 209.766C0.666526 212.974 0.617154 216.726 0.888701 219.145C0.987446 216.109 1.13556 210.506 1.53054 209.864C1.6046 212.629 1.75272 218.108 1.50585 218.972L1.35774 216.751C1.50585 218.873 1.33305 226.253 1.80209 223.414L1.11088 228.622C1.55523 230.745 1.53054 236.545 1.62929 241.284C1.01213 241.506 0.345606 237.68 0.197489 246.516L0.814643 254.118C0.864015 258.141 0.740584 259.177 0.370292 258.56C0.0246862 272.234 2.07364 272.579 1.53054 283.34C0.789956 278.774 0.740584 282.575 0.518409 287.413C0.64184 287.61 0.888701 288.054 0.913387 290.054C1.25899 288.671 0.419664 287.215 0.888701 283.513C1.35774 282.378 1.20962 287.931 1.35774 290.152C-0.222175 299.729 0.962759 321.991 0.222175 337.565C1.11088 336.504 0.469037 344.5 0.814643 347.659C-0.123431 346.697 0.962759 356.421 0.419664 360.642L1.30837 358.322C0.789956 367.799 2.6661 373.747 1.57991 379.646C1.30837 384.977 0.938073 377.82 0.789956 375.598C-0.197489 382.953 1.57991 395.22 0.493723 401.094C0.864015 401.736 1.45648 399.539 1.7774 405.956C1.38242 411.115 0.913387 421.308 0.740584 420.37C0.864015 422.517 0.962759 423.875 1.03682 425.282C1.13556 426.787 1.18493 428.342 1.55523 430.835C1.20962 430.465 0.789956 428.268 0.592467 426.664C0.740584 430.736 1.87615 434.364 3.45606 437.499C5.08534 440.658 7.25772 443.348 9.87446 445.693C10.5163 446.557 11.7012 447.816 13.3799 449.074C14.1945 449.716 15.182 450.308 16.2188 450.925C16.5644 451.123 16.91 451.296 17.2803 451.493C17.5272 451.616 17.774 451.715 18.0209 451.839C18.1937 451.863 18.169 452.036 18.169 452.159L18.1443 452.604V453.467C18.1196 454.677 18.1196 455.911 18.0949 457.12C18.0456 460.107 17.9715 462.994 17.9221 465.561C18.0703 466.771 18.1443 468.153 18.1937 469.683C20.0945 469.634 22.02 469.634 23.9456 469.634C25.5008 469.658 27.0066 469.683 28.3891 469.708C30.5368 469.708 32.2154 469.658 32.5116 469.239C32.5116 469.337 33.4497 469.461 33.9188 469.535C35.4987 469.362 36.9305 469.115 38.461 468.893C39.1769 468.795 39.8928 468.696 40.6828 468.597C40.979 468.572 41.2999 468.548 41.6208 468.498C41.8924 468.572 42.1146 468.893 42.3861 469.091C42.0405 469.091 41.7196 469.115 41.448 469.189C41.2752 469.313 41.448 469.683 41.7936 470.078C41.843 470.152 42.5342 470.794 43.0773 471.213C43.6698 471.707 44.361 472.201 45.0769 472.669C47.5702 474.348 50.5819 475.458 51.6434 475.977C50.5325 475.335 51.6434 475.755 53.1739 476.224C54.8526 476.742 57.1237 477.112 57.3212 476.841C58.9999 477.038 60.802 476.989 62.3572 476.915C69.8865 476.717 63.2459 476.544 72.5279 476.446C77.786 476.421 74.3053 477.285 72.5032 477.186C76.8233 477.556 81.2174 477.359 85.6856 477.211C84.2044 477.186 83.7848 477.137 85.2906 476.989C85.3894 477.087 85.7596 477.137 86.3027 477.186C86.1299 477.186 85.9571 477.211 85.7843 477.211H86.673C86.5496 477.211 86.4509 477.186 86.3521 477.186C88.0801 477.137 89.8329 477.063 91.5856 477.063C91.5362 477.087 91.5115 477.087 91.4868 477.112C89.7588 477.161 88.1542 477.186 86.8952 477.211C88.0555 477.26 89.7094 477.26 91.3881 477.26C91.4128 477.26 91.4128 477.26 91.4128 477.26C91.5609 477.31 92.0299 477.31 92.6964 477.285H92.8199C94.3504 477.285 95.7822 477.334 96.745 477.433L95.4613 478.001C98.6952 478.025 107.656 477.384 107.385 477.137C119.851 477.606 140.365 477.235 149.228 476.915C147.919 477.063 147.944 477.186 149.45 477.013C153.819 476.89 158.757 476.421 159.176 476.791C163.447 476.544 163.151 477.186 169.693 477.235C169.791 477.334 170.26 476.989 169.816 476.816C180.801 477.507 194.576 476.224 207.61 476.742C206.549 476.767 204.969 477.087 203.908 477.285C214.078 476.989 223.706 476.767 232.84 476.1C231.877 476.347 232.148 476.594 229.754 476.742C235.432 476.717 241.825 476.618 245.849 476.298C245.676 476.322 245.331 476.322 244.738 476.322C239.653 475.829 248.738 475.31 253.403 475.458L253.551 475.582C260.612 475.557 260.932 475.236 267.993 475.236C272.214 475.557 264.314 475.384 265.993 475.755C267.647 476.643 282.113 476.322 283.545 476.421C285.248 476.224 287.643 476.075 287.347 475.829C292.901 475.607 289.889 476.372 293.716 476.322L308.848 474.669C308.206 474.891 313.785 475.434 309.169 475.73C320.648 475.607 327.165 474.57 334.275 474.002C337.682 474.15 348.865 473.78 352.691 473.755C354.542 474.224 349.432 473.731 348.593 474.101L354.37 474.644C346.717 474.743 355.332 475.508 351.21 475.853C357.332 475.533 371.897 475.878 381.08 476.026C374.736 474.989 393.423 475.533 393.028 474.619C403.791 474.447 398.385 475.36 402.458 475.557C413.641 475.212 424.281 475.458 434.451 475.36C434.451 475.36 434.599 475.483 434.056 475.557C443.388 475.261 458.545 475.532 467.901 474.718C467.481 474.891 468.321 475.064 465.901 475.212C475.949 475.557 467.753 474.027 479.38 474.595L476.665 475.039C483.873 474.595 490.662 475.458 498.882 474.743C499.178 475.014 497.352 475.088 496.191 475.212C503.721 475.014 512.213 475.113 518.582 474.496C519.569 474.792 518.582 475.039 515.595 475.261C523.05 475.607 523.692 474.447 530.48 474.743C532.184 474.792 535.121 475.064 535.121 475.162C538.726 474.792 548.649 474.792 552.303 474.644C553.266 474.94 555.956 475.039 560.203 475.36C597.553 475.335 635.791 475.483 672.895 474.669C676.4 475.212 673.142 475.31 670.401 475.458C673.166 475.384 678.474 475.557 685.732 475.384L686.201 475.508C691.014 475.335 693.705 475.853 698.914 475.607L698.716 475.384C701.457 475.212 704.616 475.261 707.406 474.718C710.171 474.224 712.565 473.286 713.652 472.102C715.009 471.583 716.342 470.942 717.626 470.226C718.095 469.708 718.539 469.239 718.984 468.795C719.354 468.449 719.65 467.955 720.045 467.758C721.008 467.709 721.946 467.758 723.18 467.807C725.476 467.881 727.97 468.005 731.302 467.635L730.537 467.783C732.29 467.857 734.018 467.881 735.869 467.857C737.943 467.807 739.942 467.758 741.744 467.659C741.498 461.291 741.152 457.342 741.596 455.096C741.572 454.208 741.572 453.27 741.547 452.332L741.522 451.024C741.547 450.827 741.448 450.53 741.572 450.407L742.164 450.136C743.67 449.494 745.324 448.482 746.731 447.495C749.446 445.446 751.076 443.373 751.249 442.608C752.557 441.547 752.187 442.608 751.594 443.644C756.581 438.289 759.37 430.687 758.951 423.159ZM98.6705 476.915C99.6826 476.865 100.645 476.816 101.411 476.841C100.596 476.865 99.6826 476.89 98.6705 476.915Z" fill="#FAAE5D"/>
<path d="M739.942 14.167C739.794 14.7346 739.671 15.0308 739.547 14.9814C739.572 14.858 739.596 14.6853 739.621 14.4878C738.979 14.3151 737.646 14.167 736.906 13.9942C736.19 13.8461 736.017 13.6733 738.263 13.4019C738.51 13.6487 739.621 13.9202 739.942 14.167Z" fill="#FAAE5D"/>
<path d="M582.691 2.14725C580.667 2.17193 580.963 2.36938 580.025 2.54214C579.828 2.66555 577.705 2.36938 577.187 2.29533C579.211 2.27065 581.087 1.92512 582.691 2.14725Z" fill="#FAAE5D"/>
<path d="M553.068 1.60425L538.232 2.29532C538.849 1.9251 547.785 1.65361 553.068 1.60425Z" fill="#FAAE5D"/>
<path d="M499.252 0.814401C495.87 0.518227 496.808 0.345459 501.351 0.345459C501.672 0.542908 500.19 0.641633 499.252 0.814401Z" fill="#FAAE5D"/>
<path d="M490.069 1.23401C490.267 1.25869 490.464 1.28337 490.662 1.30805C490.316 1.30805 490.094 1.28337 490.069 1.23401Z" fill="#FAAE5D"/>
<path d="M496.488 1.62896C493.674 1.62896 492.094 1.48087 490.687 1.30811C492.464 1.38215 497.376 1.13534 496.488 1.62896Z" fill="#FAAE5D"/>
<path d="M411.888 0.592351C409.864 0.617032 405.445 0.913206 403.569 0.518308C405.692 0.7898 413.443 0.0493657 411.888 0.592351Z" fill="#FAAE5D"/>
<path d="M372.588 1.13532C371.304 1.11064 370.786 1.0366 369.305 1.13532C366.984 0.987237 369.428 0.715744 371.403 0.666382L372.588 1.13532Z" fill="#FAAE5D"/>
<path d="M0.839258 363.973L0.666455 367.601L0.493652 363.356L0.839258 363.973Z" fill="#FAAE5D"/>
<path d="M229.384 477.827C225.557 477.877 230.815 477.383 225.73 477.457C229.976 477.21 228.692 477.778 229.384 477.827Z" fill="#FAAE5D"/>
<path d="M394.83 475.655H393.546L393.966 474.915L394.83 475.655Z" fill="#FAAE5D"/>
<path d="M434.525 16.3141C435.908 16.3388 436.92 16.3141 437.759 16.2894C437.191 16.2647 436.229 16.2647 434.525 16.3141Z" fill="#FAAE5D"/>
<path d="M571.558 16.6598C569.978 16.8572 568.67 16.8572 567.411 16.8326C568.225 16.7585 569.534 16.7092 571.558 16.6598Z" fill="#FAAE5D"/>
<path d="M342.52 15.9194C342.792 15.8947 343.014 15.87 343.187 15.8207C342.866 15.87 342.643 15.8947 342.52 15.9194Z" fill="#FAAE5D"/>
<path d="M525.864 461.266C525.79 461.266 525.691 461.266 525.642 461.291C525.79 461.291 525.864 461.266 525.864 461.266Z" fill="#FAAE5D"/>
<path d="M209.19 462.648C208.499 462.722 208.005 462.772 208.079 462.673C208.449 462.648 208.82 462.648 209.19 462.648Z" fill="#FAAE5D"/>
<path d="M370.045 15.9194C370.341 15.8947 370.687 15.87 371.082 15.8453L370.045 15.9194Z" fill="#FAAE5D"/>
<path d="M566.3 17.1533C566.201 17.1533 566.102 17.1286 565.979 17.1286C560.153 16.9805 555.117 16.5363 558.326 16.2401C562.005 16.2895 558.228 16.5116 559.758 16.6597C562.819 16.4376 564.992 16.7337 567.411 16.8325C566.177 16.9065 566.028 17.0299 566.3 17.1533Z" fill="#FAAE5D"/>
<path d="M19.9956 378.189C19.9956 378.337 19.9956 378.486 19.9956 378.634C20.0203 379.596 20.045 380.559 20.0944 381.497C20.0944 380.287 20.045 379.596 19.9956 378.189Z" fill="#FAAE5D"/>
<path d="M726.439 436.289L725.501 436.684C725.501 436.708 725.501 436.708 725.501 436.733L725.797 436.61C726.587 436.264 727.426 435.869 728.364 435.474L726.439 436.289ZM744.633 396.207C744.559 382.04 744.435 368.243 744.139 356.001C744.238 354.767 744.312 356.297 744.41 357.013C743.867 341.76 744.978 325.767 743.941 314.561L743.522 310.538C743.67 306.935 743.991 307.231 744.139 304.442C743.843 301.456 744.04 290.522 743.67 288.745C743.843 287.116 743.892 289.436 744.015 289.362C744.114 282.328 743.472 274.232 743.62 267.593L743.818 269.691C744.534 234.866 745.102 189.773 744.164 161.168C743.991 153.369 744.707 157.713 744.657 154.257C743.867 124.763 745.2 89.1977 743.818 62.3446C743.374 57.1862 741.275 53.2619 739.177 50.5717C737.005 47.8814 734.807 46.2772 733.03 45.2899C732.487 44.9937 731.993 44.7469 731.524 44.5495L731.549 44.4261L728.488 43.2907C728.438 41.5384 728.043 29.5927 726.266 26.8778C726.735 26.9271 727.155 26.9765 727.426 27.0505C727.994 26.8531 726.784 26.6556 725.896 26.4582C725.871 26.4335 725.846 26.4088 725.822 26.3841C724.415 25.6437 718.49 25.7918 714.787 25.9646C713.775 25.8905 713.256 25.7671 713.849 25.6437L710.788 25.7424C710.343 25.7177 709.8 25.9152 709.455 25.6684C709.085 25.3722 708.764 25.076 708.344 24.7552L708.813 24.6811C704.789 21.2505 700.518 19.4241 696.075 18.6836C693.828 18.2887 691.557 18.3628 689.261 18.3628C686.916 18.3628 684.472 18.3874 681.806 18.4615L685.83 18.8317C679.609 18.8564 673.314 19.35 667.587 18.9057C670.401 18.7823 668.377 18.6096 668.303 18.4121C666.871 18.4615 665.267 18.6096 663.539 18.5602L665.81 18.0666C662.033 18.7083 649.295 18.2394 646.653 18.3628L647.542 18.264C638.285 17.9925 649.171 18.5849 642.926 18.6096C637.593 18.5108 640.901 17.9432 635.989 17.6964C626.583 17.6964 610.463 18.1653 599.922 17.6964C591.554 17.7951 582.272 18.0172 574.743 18.3134C567.263 18.3134 575.138 17.6717 567.584 17.9432C568.398 17.7457 567.361 17.5236 566.695 17.3015C565.51 17.5236 552.673 17.2768 558.622 17.8198C547.736 17.6964 535.442 17.647 523.963 17.7457C527.789 17.7211 528.802 17.3262 525.568 17.1287C520.26 17.5236 510.954 17.7211 501.301 17.6223C501.474 18.0172 504.609 18.0172 503.597 18.4121C502.165 18.4862 499.845 18.6589 497.45 18.6343C496.043 18.2147 496.463 17.573 487.798 17.5483C488.316 17.4002 489.378 17.3262 490.662 17.2768C484.243 17.4249 482.219 16.7091 480.17 16.6844C481.577 16.6351 483.478 16.561 484.91 16.5364C478.565 16.3389 476.344 16.7091 469.604 16.6844C467.777 15.944 480.343 16.6104 482.811 16.1415L477.973 15.5985C467.629 15.5244 475.134 16.2155 464.47 16.0181L465.778 15.7466L459.113 15.9193C459.014 16.1908 460.446 16.6104 466.173 16.561C462.421 17.2768 460.89 16.6598 451.83 16.8078C448.917 17.2274 455.681 16.7585 455.879 17.1781C456.767 17.5483 450.547 17.5483 446.004 17.6223C438.549 17.6223 442.178 17.1781 439.166 16.9066C440.573 16.8572 446.325 16.7832 445.708 17.03C454.891 16.6104 441.709 16.1661 448.053 15.8946C441.092 15.6478 441.314 16.1168 437.759 16.2649C439.66 16.3142 436.599 16.6844 438.154 16.8325C425.934 17.9185 430.329 16.0181 418.627 16.2155C421.096 16.9066 402.976 17.2027 411.518 17.9679C408.704 18.0913 405.173 18.264 402.26 18.19C405.371 17.6964 397.027 17.8198 402.557 17.3508H398.286L404.729 16.7832C399.989 16.4376 392.139 16.1168 389.621 15.8946C383.45 16.0921 391.522 16.3636 384.388 16.4623C386.881 16.2155 382.462 16.0181 379.302 16.0181C385.647 16.2155 379.426 16.7091 375.402 16.8325C369.132 16.8325 364.12 16.3636 365.034 16.2649L369.625 15.944C367.033 16.0674 368.44 15.6725 364.367 15.8206C363.01 16.0921 360.097 16.487 358.566 16.8325C354.567 16.9559 351.703 16.6104 350.321 16.6598L356.665 16.3636C348.321 16.487 354.888 15.6232 346.297 15.8206L344.075 16.1908C342.742 16.1415 341.952 16.0427 342.52 15.9193C340.669 16.0921 336.719 16.0427 334.892 16.1415L334.3 15.8946C330.769 16.0427 326.252 16.6104 321.907 16.1168C325.338 16.7091 326.252 16.1168 332.374 16.3883C336.2 16.8325 326.326 16.8079 324.943 16.8819C325.338 16.2402 315.736 16.8078 311.415 16.8078C308.897 16.6104 306.7 16.4623 305.17 16.3389L303.467 16.7585C301.862 15.944 294.876 16.9559 289.963 16.6844C292.457 16.4376 292.111 16.1168 288.68 15.9934C293.296 16.6104 281.101 16.7585 282.483 17.1781C273.72 16.9559 284.532 16.3883 281.94 15.9687C277.595 16.4376 272.189 15.6478 269.301 16.2649C275.645 16.4623 268.313 16.6598 267.005 16.9313C259.031 16.8819 268.313 16.6598 262.685 16.4376C259.352 16.5117 254.983 16.9806 260.142 17.1781C255.501 17.03 250.268 17.6223 245.034 17.2521C242.911 16.8572 254.81 17.0793 251.774 16.8078C240.714 16.7585 246.219 17.7457 235.95 17.8691C240.344 18.0666 236.123 18.7577 231.161 18.9798C219.781 18.807 236.123 18.7577 231.778 18.264L227.236 18.3381C220.916 17.6717 240.665 17.2274 234.642 16.6844L229.729 16.9066C230.815 16.7338 232.37 16.3883 230.371 16.1908C229.112 16.6598 218.867 16.3142 217.954 16.4376C216.942 16.8325 221.953 16.3142 221.163 16.6351C215.905 16.7338 213.584 17.3755 205.537 17.1287C209.955 16.8572 203.833 16.6104 205.66 16.3636C201.735 16.2155 204.426 16.8325 198.797 16.6351L199.414 16.3883C178.431 16.3142 152.264 16.3636 134.218 17.3262C130.935 16.9313 124.369 16.8819 114.149 16.6351C117.926 16.7832 113.778 17.03 111.236 17.0793L106.224 16.6104C100.077 16.3636 92.1038 16.7832 86.4507 17.03C85.4386 16.9559 85.1423 16.8325 84.8461 16.7091C79.4398 16.413 79.2176 16.9559 77.0946 17.0547L73.5645 16.7338L72.7746 17.0547C71.3921 17.104 69.8616 17.1287 68.4051 17.1781C66.8746 17.2521 65.3687 17.4742 64.1097 17.7211C61.5671 18.2147 59.8637 18.807 60.1353 18.4121C58.1357 19.276 56.3336 20.3866 58.2097 19.5968C57.0001 20.0904 55.4696 20.9049 53.8403 22.0649C53.3959 22.4105 52.9022 22.756 52.4332 23.1509C52.1863 23.373 51.9148 23.5952 51.6432 23.8173C51.5692 23.8913 51.4457 23.842 51.347 23.8667L50.8286 23.842H48.9277C43.0771 23.8667 36.56 23.8913 31.1044 23.916C31.1044 25.3475 31.129 26.5322 31.129 27.6922C31.1784 26.088 31.2031 24.8539 31.2278 24.0394C34.832 24.1628 34.5604 24.3109 35.1035 24.5577C34.1408 24.8539 33.3755 24.8045 31.919 24.7305C31.8943 25.2982 31.8696 25.9646 31.8696 26.8531C31.8696 27.6676 31.8943 28.9263 31.9684 29.9382C31.7462 30.037 31.5487 34.4796 31.4006 29.7161C31.3265 31.3451 31.2772 33.0727 31.2031 34.8498C31.1537 36.3306 31.129 37.8856 31.0797 39.4652C31.2278 39.9094 30.6106 39.8847 30.4131 40.0328C29.5491 40.4524 28.537 40.9707 27.6236 41.5631C25.7968 42.7231 24.0441 44.1546 22.5136 45.7835C19.4278 49.0661 17.132 53.2372 16.0458 57.7292C15.5027 59.9505 15.3052 62.3199 15.2805 64.5165C15.2805 66.6144 15.2805 68.6876 15.2559 70.7609C15.3546 74.0681 15.4533 73.0562 15.5768 74.6605C15.0337 85.0266 15.6262 97.7374 15.3793 108.918C15.6015 106.4 16.2433 109.955 16.268 116.174C16.7123 122.962 15.6262 118.889 15.3546 125.035C15.5768 128.071 15.6262 133.797 15.6015 136.215L15.5274 136.018C15.7496 139.769 15.8977 145.668 15.6755 150.111L15.6508 149.42C15.6262 153.048 15.3299 157.268 15.3793 161.069C15.799 162.772 15.5274 172.077 15.8977 174.298C15.8483 174.792 15.8236 174.076 15.7249 175.088L16.0952 175.409L15.8977 182.961C15.7496 181.332 15.6015 180.938 15.5027 178.815C15.2559 186.886 15.8236 181.53 16.0211 185.8C16.268 191.427 15.9224 191.106 15.7743 193.846C15.6015 191.501 15.8483 189.699 15.799 188.293C15.5027 185.084 15.6755 191.699 15.478 191.822C15.4533 193.007 15.8977 193.55 15.8236 197.671C15.7743 201.275 15.873 209.642 15.5027 208.63C15.7002 211.69 15.6508 215.294 15.8236 217.614C15.8977 214.701 15.9964 209.346 16.2433 208.729C16.2927 211.369 16.4161 216.602 16.2433 217.441L16.1446 215.318C16.2433 217.342 16.1199 224.401 16.4408 221.686L15.9718 226.647C16.268 228.696 16.268 234.249 16.3174 238.766C15.9224 238.963 15.478 235.31 15.3793 243.776L15.799 251.057C15.8236 254.882 15.7496 255.87 15.5027 255.277C15.2805 268.358 16.6136 268.679 16.2433 278.971C15.7743 274.603 15.7249 278.231 15.6015 282.871C15.6755 283.068 15.8483 283.488 15.8483 285.388C16.0705 284.08 15.5274 282.673 15.8483 279.144C16.1446 278.033 16.0458 283.364 16.1446 285.487C15.1077 294.644 15.8977 315.919 15.404 330.802C15.9718 329.79 15.5768 337.441 15.7743 340.477C15.1818 339.539 15.8977 348.843 15.5274 352.867L16.1199 350.645C15.7743 359.703 17.0086 365.405 16.2927 371.032C16.1199 376.141 15.873 369.304 15.7743 367.182C15.1324 374.216 16.2927 385.939 15.5768 391.542C15.8236 392.159 16.2186 390.061 16.4161 396.207C16.1692 401.118 15.8483 410.892 15.7496 409.979C15.8236 412.003 15.873 413.286 15.9224 414.619C15.9718 415.902 15.8977 417.432 16.1199 419.752C15.9224 419.407 15.6755 417.531 15.6015 416.075C15.6015 423.578 18.6379 429.452 23.2295 433.944C23.8466 434.734 24.9328 435.919 26.5127 437.079C27.278 437.696 28.1667 438.263 29.1295 438.856C29.6232 439.102 30.1169 439.349 30.6106 439.621C30.8328 439.719 31.0797 439.843 31.3265 439.942C31.4993 439.966 31.4747 440.139 31.4747 440.263L31.45 440.682V441.99C31.45 443.175 31.4253 444.36 31.4253 445.544C31.3759 448.259 31.3512 450.875 31.3019 453.195C31.3759 453.985 31.4253 454.849 31.45 455.787C32.3634 455.762 33.3261 455.738 34.3136 455.713H37.0784C38.3868 455.713 39.6951 455.738 40.8554 455.738C43.1512 455.762 44.9533 455.738 45.2742 455.441C45.2742 455.515 46.1629 455.59 46.6073 455.639C48.1131 455.54 49.4955 455.367 50.952 455.219C51.5198 455.219 52.0382 454.898 52.4332 455.392C53.0503 455.886 53.7169 456.379 54.4574 456.947L53.1491 456.527C52.5813 456.429 54.7784 458.428 57.642 459.859C60.0612 461.192 62.9742 461.908 64.0604 462.229C63.8135 462.13 63.6654 462.081 63.616 462.031C63.7641 462.031 64.5541 462.204 65.4922 462.377C67.0968 462.673 69.2198 462.722 69.3926 462.55L73.9101 462.402C81.1185 462.278 74.7741 462.179 83.6365 462.105C88.3515 462.081 85.7101 462.574 83.9574 462.574C88.0553 462.821 92.2026 462.698 96.4239 462.599C94.844 462.599 94.3256 462.55 95.8561 462.451C95.9548 462.525 96.3005 462.55 96.8435 462.574C96.8929 462.599 96.967 462.574 97.041 462.574C98.6209 462.55 100.25 462.5 101.855 462.5C101.83 462.525 101.805 462.525 101.781 462.525C99.954 462.55 98.2753 462.574 97.041 462.574C98.1519 462.624 99.9046 462.624 101.682 462.624C101.855 462.673 102.398 462.673 103.163 462.648C104.57 462.648 105.903 462.673 106.767 462.747L105.558 463.093C108.668 463.117 117.234 462.698 116.963 462.55C128.812 462.846 148.215 462.599 156.757 462.426C155.745 462.5 155.794 462.574 157.176 462.476C161.348 462.402 166.088 462.081 166.483 462.327C170.556 462.179 170.285 462.574 176.53 462.599C176.629 462.673 177.148 462.402 176.481 462.327C186.973 462.796 200.155 461.957 212.622 462.303C211.609 462.327 210.178 462.525 209.19 462.648C218.917 462.476 228.149 462.303 236.888 461.859C235.975 462.031 236.246 462.179 233.95 462.278C239.184 462.278 245.059 462.204 248.91 462.031C248.737 462.031 248.54 462.031 248.268 462.031C243.43 461.71 252.095 461.365 256.563 461.439L256.686 461.538C263.45 461.513 263.747 461.316 270.511 461.316C274.559 461.513 266.98 461.414 268.585 461.636C270.19 462.229 284.014 462.007 285.372 462.081C287.001 461.957 289.297 461.859 289.025 461.71C294.308 461.538 291.444 462.056 295.098 462.007L309.589 460.945C308.996 461.093 314.279 461.439 309.86 461.636C320.846 461.562 327.091 460.871 333.855 460.501C337.138 460.6 347.803 460.378 351.481 460.353C353.234 460.649 348.371 460.328 347.556 460.575L353.061 460.921C345.754 460.995 353.999 461.488 350.049 461.71C355.9 461.513 369.823 461.735 378.636 461.834C372.538 461.167 390.411 461.513 390.041 460.921C400.335 460.797 395.151 461.39 399.051 461.538C409.765 461.291 419.911 461.464 429.662 461.39C429.662 461.39 429.786 461.464 429.267 461.513C438.203 461.34 452.67 461.513 461.631 460.97C461.211 461.093 462.026 461.217 459.705 461.291C469.308 461.513 461.483 460.526 472.591 460.896L469.999 461.192C476.887 460.896 483.379 461.464 491.254 460.995C491.526 461.167 489.773 461.217 488.662 461.291C495.846 461.167 503.992 461.241 510.065 460.822C511.028 461.019 510.065 461.192 507.226 461.316C514.36 461.562 514.953 460.797 521.445 460.995C523.05 461.019 525.864 461.217 525.864 461.266C529.32 461.019 538.824 461.019 542.305 460.921C543.218 461.118 545.81 461.167 549.859 461.39C585.555 461.365 622.115 461.488 657.589 460.945C661.243 461.316 657.268 461.365 654.553 461.464C656.997 461.39 662.329 461.538 669.883 461.414L670.303 461.488C674.919 461.39 677.486 461.71 682.448 461.562L682.3 461.414C684.917 461.241 687.83 461.414 690.446 461.538C693.039 461.735 695.507 461.612 696.815 460.995C698.198 460.871 699.556 460.624 700.913 460.254C703.308 459.045 705.135 458.058 707.011 456.774C707.9 456.157 708.986 455.318 709.628 454.652C710.467 454.479 711.948 454.553 713.553 454.405L712.812 454.504C715.626 454.578 718.49 454.553 721.205 454.479C724.044 454.38 726.71 454.306 728.957 454.232C728.907 451.591 728.907 449.641 729.056 448.531C729.031 446.68 729.006 444.779 728.982 442.928C728.982 442.04 728.957 441.151 728.932 440.287C728.932 439.892 728.907 439.497 728.907 439.102C729.031 438.782 729.525 438.732 729.821 438.56C732.635 437.276 734.585 435.524 734.956 434.981C736.264 434.092 735.721 434.956 734.906 435.746C740.485 431.575 744.262 424.787 744.682 417.581C744.781 410.448 744.657 403.29 744.633 396.207ZM742.287 108.252C742.016 132.291 741.744 156.207 741.448 181.382C741.547 198.387 741.769 220.625 741.547 236.273C741.596 269.173 741.374 302.171 741.176 335.343C741.102 351.929 741.028 368.539 740.954 385.224V410.3C740.954 412.348 741.004 414.569 740.954 416.47C740.93 418.272 740.658 420.073 740.14 421.776C739.226 425.059 737.449 428.144 735.054 430.587C736.659 429.156 734.906 431.673 732.586 433.376L731.895 433.697C731.277 434.142 730.66 434.635 729.994 435.005L729.5 435.302C729.401 435.351 729.401 435.376 729.08 435.524L728.537 435.795L726.439 436.782C725.723 436.857 725.945 437.523 725.896 437.967V439.226C725.871 439.942 725.871 440.509 725.846 440.904C725.822 441.497 725.772 441.472 725.723 441.274C725.698 441.225 725.698 441.151 725.674 441.052C725.649 440.904 725.649 440.707 725.624 440.46C725.6 440.016 725.575 439.423 725.55 438.757C725.55 438.411 725.525 438.041 725.525 437.646C725.525 437.449 725.501 437.251 725.501 437.054V436.733C725.427 437.029 725.476 437.399 725.451 437.696V445.717C725.476 447.445 725.476 449.123 725.476 450.752C721.428 450.752 717.453 450.777 713.503 450.777H708.788C708.146 450.604 707.801 451.246 707.357 451.591C706.986 451.961 706.344 452.554 706.246 452.603C705.851 452.973 705.431 453.319 704.987 453.64C703.259 454.923 701.358 455.96 699.309 456.675C697.284 457.391 695.137 457.811 692.989 457.885H685.657C680.671 457.885 675.659 457.86 670.574 457.86C668.846 458.354 656.997 457.885 656.083 458.403C654.874 458.304 656.009 458.28 656.75 458.181C638.63 458.453 637.396 458.453 620.906 457.811C550.55 457.391 482.713 457.761 413.443 457.613C343.335 457.835 274.436 458.058 202.55 458.28C191.54 459.07 176.432 458.699 163.397 459.39L164.237 459.144C153.128 459.514 150.289 459.094 136.193 458.798C136.045 459.07 130.787 458.872 132.811 459.316C127.923 459.736 123.998 458.675 116.963 458.872C116.716 458.724 117.136 459.168 115.63 459.02C97.4607 459.588 119.11 458.749 96.0536 458.304C90.672 458.329 85.2904 458.378 79.8842 458.403L71.7871 458.477L69.7629 458.502C69.1457 458.477 68.5285 458.477 67.9361 458.428C66.7265 458.329 65.5168 458.156 64.3319 457.885C61.9867 457.293 59.7156 456.355 57.6666 455.022C57.1482 454.701 56.6545 454.355 56.1608 453.961C55.9386 453.788 55.6918 453.615 55.4696 453.393C55.2227 453.195 55.0499 453.072 54.5562 452.603C54.1365 452.258 53.7662 451.739 53.2725 451.566H49.3721C44.7558 451.616 40.1395 451.641 35.5725 451.665C35.5725 449.74 35.5479 447.84 35.5479 445.964V437.325L35.1776 437.177L34.437 436.857L32.9558 436.215L32.5855 436.042L32.2646 435.894L31.8696 435.696C31.3265 435.425 30.8081 435.129 30.3144 434.808C29.3023 434.191 28.3642 433.475 27.4755 432.71C25.8462 431.303 24.4144 429.65 23.2789 427.823C23.9454 428.959 23.9207 429.427 22.5383 427.305C22.168 425.923 21.0571 423.85 20.3165 421.307C19.5019 418.741 19.3538 415.828 19.5266 413.014C19.6994 413.409 19.6994 416.124 19.8475 417.309C19.8722 413.829 19.8969 410.497 19.9215 407.264C19.8969 403.957 19.8969 400.748 19.8722 397.539C19.8475 391.295 19.8228 385.149 19.9709 378.634C19.65 365.972 20.3165 351.139 19.9215 342.624C20.2425 344.648 20.1437 336.972 20.3165 334.257C19.4031 325.076 20.6128 309.6 20.0203 298.099L20.1684 298.494C20.0943 264.162 20.3165 226.77 19.8969 190.933C19.7981 170.769 20.6128 148.038 20.2178 125.874C20.0943 121.826 19.8969 125.035 19.7981 121.752C19.8228 116.174 20.0943 121.826 20.1931 119.63C19.8228 108.72 20.2671 94.3314 20.2671 80.658C20.119 79.0291 20.0697 75.2035 19.8722 76.4869C20.0203 72.7107 20.0697 68.5642 20.0943 64.2204C20.119 60.3454 21.1065 56.3471 23.1801 52.8423C25.2291 49.3623 28.3148 46.4746 31.7956 44.6729L32.4621 44.3273C32.9311 44.0805 33.3261 43.9571 33.7705 43.7597L35.0541 43.2167L35.696 42.9452C35.9428 42.8712 35.77 42.5256 35.8194 42.3282C35.8194 40.7733 35.8441 39.243 35.8441 37.7375C35.8935 35.6396 35.9182 33.6157 35.9675 31.6659C35.7207 33.2949 35.5972 33.1221 35.5232 31.9374C35.4738 31.3697 35.4491 30.4318 35.4491 29.568C35.4244 29.1731 35.4244 28.7042 35.4244 28.2352C36.3378 28.2352 37.3253 28.2352 38.2387 28.2105C39.8433 28.2105 41.2997 28.1859 42.3859 28.1612C45.4717 28.1859 45.8173 28.408 44.8792 28.5561C46.8047 28.5314 48.5821 28.5314 50.2608 28.5067H53.1491C53.47 28.5808 53.6428 28.2599 53.8403 28.1118L54.4574 27.5195L55.0499 26.9765L55.3955 26.6803C56.3089 25.9152 57.247 25.1994 58.2591 24.6071C60.2587 23.3977 62.4804 22.4352 65.0972 21.9168C66.4055 21.67 67.788 21.4973 69.2938 21.4973C70.9478 21.522 72.7252 21.5466 74.6507 21.5713C81.0691 21.4726 82.8218 21.053 90.5486 21.1764C95.3624 21.7194 106.693 21.2011 114.272 21.3985C112.346 20.9296 122.023 20.5594 129.553 20.7568L127.232 21.4232C151.326 21.0036 186.059 21.7441 214.276 20.9296L216.399 21.2998C245.503 20.8556 274.115 21.3245 302.133 20.6087C309.687 20.8062 321.784 20.9296 329.214 20.9296C339.41 20.6087 343.063 20.6334 350 20.1151C353.826 20.0658 356.147 20.3866 357.628 20.51C370.44 20.6087 382.709 21.1517 393.003 20.5347L393.398 20.8802C403.569 20.5347 418.331 20.1398 429.81 20.51C432.995 20.2139 444.498 20.0904 439.29 19.7202C443.807 19.6462 442.203 20.2632 446.819 19.9177L442.474 20.3866C468.271 20.51 490.02 20.2632 514.928 20.0164C522.161 20.5841 538.676 19.967 552.797 20.2632C561.066 19.967 575.458 20.4113 581.605 19.6955L582.025 20.0411C593.084 20.0904 608.019 20.1645 622.51 20.2385C630.978 20.3126 630.978 19.8436 637.643 19.6709L638.038 19.9917C645.37 19.7943 647.32 19.3006 650.035 18.9551C655.664 19.2019 656.306 18.9551 661.934 19.1772C656.478 19.35 651.837 19.7202 648.208 20.1398C657.169 20.2879 666.155 19.4734 671.685 19.967C678.967 20.0904 684.645 19.967 685.707 19.5968C686.176 19.6955 690.126 19.7943 686.595 19.967C689.706 19.9917 692.273 19.8683 694.347 20.0164C696.272 20.1398 697.926 20.4607 699.531 20.8802C698.618 20.6087 696.741 20.0411 695.26 19.893C696.618 19.893 698.618 20.2385 700.123 20.6828C701.629 21.1024 702.641 21.4726 702.197 21.0036C699.506 20.0658 699.333 20.0164 695.754 19.3253C696.544 19.2513 699.358 19.6215 702.024 20.7568C704.74 21.8675 707.159 23.7186 707.949 24.6071C708.887 25.6684 707.579 24.6565 706.394 23.9654C705.184 23.2496 704.123 22.7313 705.851 23.9901C707.011 24.7305 707.924 25.3475 709.109 26.4088C709.233 26.5816 709.43 26.5569 709.628 26.5569L710.195 26.5322L711.257 26.4582L711.751 26.4335L711.775 26.7544C714.318 26.5816 720.243 26.2854 723.501 26.5569C723.551 26.6063 723.847 26.6556 724.316 26.705C724.538 26.7297 724.785 26.7297 725.007 26.7544C725.229 26.8037 725.402 26.8778 725.525 26.9271C727.105 27.7663 727.871 40.1315 727.871 43.3895V43.735L731.203 44.969C735.128 47.215 738.362 50.6457 740.263 54.6934C741.473 57.2603 742.213 60.0492 742.337 62.8629C742.46 65.7259 742.386 68.9591 742.411 71.9702C742.361 84.1874 742.337 96.2318 742.287 108.252ZM248.91 462.031C249.157 462.031 249.33 462.031 249.404 462.007C249.256 462.031 249.058 462.031 248.91 462.031ZM728.364 435.474L726.439 436.289L725.501 436.684C725.501 436.708 725.501 436.708 725.501 436.733L725.797 436.61C726.587 436.264 727.426 435.869 728.364 435.474ZM653.072 461.735C653.022 461.612 653.318 461.538 653.96 461.488C652.578 461.513 651.788 461.587 653.072 461.735ZM498.61 17.0053C502.412 16.487 518.038 16.4376 521.569 16.7585C529.221 16.2155 515.52 16.7091 516.952 16.1415C509.991 16.1908 506.782 16.487 495.994 16.561C495.87 16.8572 499.499 16.8819 494.562 17.104C493.105 17.2027 491.822 17.2521 490.662 17.2768C494.957 17.1781 501.647 17.4989 498.61 17.0053ZM249.453 462.007C250.342 461.957 251.083 461.908 251.675 461.834C248.194 461.71 249.824 461.908 249.453 462.007Z" fill="#FAAE5D"/>
<path d="M44.2868 28.6302C44.5337 28.6055 44.7311 28.5808 44.9039 28.5562C43.5709 28.5562 42.1885 28.5808 40.6826 28.5808L44.2868 28.6302Z" fill="#FAAE5D"/>
<path d="M566.695 17.3014C566.522 17.252 566.399 17.2027 566.3 17.1533C566.769 17.2274 566.868 17.2767 566.695 17.3014Z" fill="#FAAE5D"/>
<path d="M699.531 20.8801C699.778 20.9542 699.95 21.0035 700.049 21.0035C699.876 20.9542 699.704 20.9295 699.531 20.8801Z" fill="#FAAE5D"/>
<path d="M576.273 17.0052C574.323 17.0299 574.619 17.1533 573.731 17.2521C573.533 17.3261 571.509 17.1533 571.015 17.104C572.941 17.0793 574.743 16.8572 576.273 17.0052Z" fill="#FAAE5D"/>
<path d="M547.958 16.6598L533.764 17.104C534.356 16.8572 542.922 16.6845 547.958 16.6598Z" fill="#FAAE5D"/>
<path d="M496.512 16.1415C493.278 15.9441 494.167 15.8207 498.512 15.8207C498.832 15.9441 497.401 16.0181 496.512 16.1415Z" fill="#FAAE5D"/>
<path d="M493.871 16.6597C491.279 16.6597 489.797 16.5857 488.489 16.4623C490.316 16.4869 494.685 16.3389 493.871 16.6597Z" fill="#FAAE5D"/>
<path d="M488.489 16.4624C488.045 16.4624 487.748 16.4377 487.724 16.3883C487.97 16.413 488.217 16.4377 488.489 16.4624Z" fill="#FAAE5D"/>
<path d="M412.999 15.9935C411.049 15.9935 406.827 16.1909 405.025 15.9441C407.049 16.1169 414.48 15.6479 412.999 15.9935Z" fill="#FAAE5D"/>
<path d="M375.402 16.3389C374.192 16.3142 373.698 16.2895 372.291 16.3389C370.045 16.2402 372.415 16.0674 374.291 16.0427L375.402 16.3389Z" fill="#FAAE5D"/>
<path d="M15.8235 356.075L15.7001 359.53L15.5767 355.483L15.8235 356.075Z" fill="#FAAE5D"/>
<path d="M233.605 462.994C230.075 463.018 234.567 462.747 230.642 462.747C234.049 462.624 232.963 462.969 233.605 462.994Z" fill="#FAAE5D"/>
<path d="M391.769 461.587H390.535L390.954 461.118L391.769 461.587Z" fill="#FAAE5D"/>
<path d="M0.839258 363.973L0.666455 367.601L0.493652 363.356L0.839258 363.973Z" fill="#FAAE5D"/>
<path d="M7.40568 390.579C7.33163 389.567 7.28225 388.506 7.25757 387.469V387.124C7.381 388.58 7.43037 389.321 7.40568 390.579Z" fill="#FAAE5D"/>
<path d="M15.824 356.075L15.7006 359.531L15.5771 355.483L15.824 356.075Z" fill="#FAAE5D"/>
<path d="M26.0439 16.9065C26.3648 16.9065 26.6857 16.9065 27.0066 16.8818C26.8338 16.9312 26.6116 16.9806 26.3648 17.0052L25.2539 16.9559C25.5255 16.9312 25.797 16.9312 26.0439 16.9065Z" fill="#FAAE5D"/>
<path d="M202.673 477.309C203.093 477.309 203.513 477.284 203.907 477.284C203.142 477.408 202.624 477.482 202.673 477.309Z" fill="#FAAE5D"/>
<path d="M208.08 462.673C208.45 462.648 208.82 462.648 209.191 462.648C208.499 462.722 208.006 462.772 208.08 462.673Z" fill="#FAAE5D"/>
<path d="M229.384 477.827C225.557 477.877 230.815 477.383 225.73 477.457C229.976 477.21 228.692 477.778 229.384 477.827Z" fill="#FAAE5D"/>
<path d="M230.643 462.747C234.049 462.624 232.963 462.969 233.605 462.994C230.075 463.019 234.568 462.747 230.643 462.747Z" fill="#FAAE5D"/>
<path d="M248.318 476.05C247.676 476.149 246.837 476.223 245.849 476.297C246.639 476.174 244.393 475.828 248.318 476.05Z" fill="#FAAE5D"/>
<path d="M249.454 462.007C249.824 461.908 248.195 461.71 251.675 461.834C251.083 461.908 250.342 461.957 249.454 462.007Z" fill="#FAAE5D"/>
<path d="M368.071 0.370239C367.552 0.419602 367.132 0.468964 366.762 0.493645L368.071 0.370239Z" fill="#FAAE5D"/>
<path d="M369.305 1.13532C366.984 0.987237 369.428 0.715744 371.403 0.666382L372.588 1.13532C371.304 1.11064 370.786 1.0366 369.305 1.13532Z" fill="#FAAE5D"/>
<path d="M372.292 16.3389C370.045 16.2402 372.415 16.0674 374.291 16.0427L375.402 16.3389C374.193 16.3142 373.699 16.2895 372.292 16.3389Z" fill="#FAAE5D"/>
<path d="M390.535 461.587L390.954 461.118L391.769 461.587H390.535Z" fill="#FAAE5D"/>
<path d="M393.966 474.915L394.83 475.655H393.546L393.966 474.915Z" fill="#FAAE5D"/>
<path d="M403.569 0.518308C405.692 0.7898 413.443 0.0493657 411.888 0.592351C409.864 0.617032 405.445 0.913206 403.569 0.518308Z" fill="#FAAE5D"/>
<path d="M412.999 15.9933C411.049 15.9933 406.828 16.1908 405.026 15.944C407.05 16.1168 414.48 15.6478 412.999 15.9933Z" fill="#FAAE5D"/>
<path d="M437.685 1.01195C436.846 1.06132 435.809 1.086 434.427 1.06132C436.056 0.987272 437.068 0.987272 437.685 1.01195Z" fill="#FAAE5D"/>
<path d="M488.489 16.4624C488.045 16.4624 487.749 16.4377 487.724 16.3883C487.971 16.413 488.218 16.4377 488.489 16.4624Z" fill="#FAAE5D"/>
<path d="M490.662 1.30805C490.316 1.30805 490.094 1.28337 490.069 1.23401C490.267 1.25869 490.464 1.28337 490.662 1.30805Z" fill="#FAAE5D"/>
<path d="M493.871 16.6598C491.279 16.6598 489.798 16.5858 488.489 16.4624C490.316 16.4871 494.685 16.339 493.871 16.6598Z" fill="#FAAE5D"/>
<path d="M496.488 1.62896C493.674 1.62896 492.094 1.48087 490.687 1.30811C492.464 1.38215 497.376 1.13534 496.488 1.62896Z" fill="#FAAE5D"/>
<path d="M496.512 16.1415C493.279 15.9441 494.167 15.8207 498.512 15.8207C498.833 15.9441 497.401 16.0181 496.512 16.1415Z" fill="#FAAE5D"/>
<path d="M499.252 0.814523C495.87 0.518349 496.808 0.345581 501.351 0.345581C501.672 0.54303 500.19 0.641755 499.252 0.814523Z" fill="#FAAE5D"/>
<path d="M490.662 17.2768C491.822 17.2521 493.106 17.2028 494.562 17.104C499.499 16.8819 495.87 16.8572 495.994 16.5611C506.782 16.487 509.991 16.1908 516.952 16.1415C515.521 16.7091 529.221 16.2155 521.569 16.7585C518.039 16.4377 502.412 16.487 498.611 17.0053C501.647 17.4989 494.957 17.1781 490.662 17.2768Z" fill="#FAAE5D"/>
<path d="M533.764 17.104C534.356 16.8572 542.922 16.6845 547.958 16.6598L533.764 17.104Z" fill="#FAAE5D"/>
<path d="M553.068 1.60437L538.232 2.29544C538.849 1.92523 547.785 1.65373 553.068 1.60437Z" fill="#FAAE5D"/>
<path d="M566.3 17.1533C566.201 17.1533 566.102 17.1286 565.979 17.1286C560.153 16.9805 555.117 16.5363 558.326 16.2401C562.005 16.2895 558.228 16.5116 559.758 16.6597C562.819 16.4376 564.992 16.7337 567.411 16.8325C566.177 16.9065 566.028 17.0299 566.3 17.1533Z" fill="#FAAE5D"/>
<path d="M566.695 17.3014C566.522 17.252 566.399 17.2027 566.3 17.1533C566.769 17.2274 566.868 17.2767 566.695 17.3014Z" fill="#FAAE5D"/>
<path d="M571.558 16.6598C569.978 16.8572 568.67 16.8572 567.411 16.8326C568.226 16.7585 569.534 16.7092 571.558 16.6598Z" fill="#FAAE5D"/>
<path d="M563.93 0.987305C567.756 1.03667 563.806 1.40688 565.411 1.62901C568.571 1.28348 570.792 1.75242 573.286 1.87583C572.076 2.02391 571.977 2.22136 572.274 2.41881C572.175 2.39413 572.051 2.36945 571.928 2.34477C565.806 2.12264 560.548 1.43157 563.93 0.987305Z" fill="#FAAE5D"/>
<path d="M572.669 2.61615C572.521 2.56679 572.398 2.49274 572.299 2.4187C572.743 2.49274 572.842 2.56679 572.669 2.61615Z" fill="#FAAE5D"/>
<path d="M573.335 1.87584C574.199 1.77712 575.582 1.67839 577.754 1.62903C576.076 1.9252 574.669 1.94988 573.335 1.87584Z" fill="#FAAE5D"/>
<path d="M571.015 17.104C572.941 17.0793 574.743 16.8572 576.273 17.0052C574.323 17.0299 574.619 17.1533 573.731 17.2521C573.533 17.3261 571.509 17.1533 571.015 17.104Z" fill="#FAAE5D"/>
<path d="M577.187 2.29533C579.211 2.27065 581.087 1.92512 582.691 2.14725C580.667 2.17193 580.963 2.36938 580.025 2.54214C579.828 2.66555 577.705 2.36938 577.187 2.29533Z" fill="#FAAE5D"/>
<path d="M653.072 461.735C651.788 461.587 652.578 461.513 653.961 461.488C653.319 461.538 653.022 461.612 653.072 461.735Z" fill="#FAAE5D"/>
<path d="M669.117 475.507C668.426 475.581 668.105 475.68 668.179 475.877C666.846 475.655 667.661 475.581 669.117 475.507Z" fill="#FAAE5D"/>
<path d="M711.677 8.78652C711.504 8.78652 711.06 8.61376 710.467 8.36694C710.862 8.51503 711.282 8.63844 711.677 8.78652Z" fill="#FAAE5D"/>
<path d="M736.906 13.9943C736.19 13.8462 736.017 13.6735 738.263 13.402C738.51 13.6488 739.621 13.9203 739.942 14.1671C739.794 14.7348 739.671 15.0309 739.547 14.9816C739.572 14.8582 739.596 14.6854 739.621 14.4879C738.979 14.3152 737.646 14.1671 736.906 13.9943Z" fill="#FAAE5D"/>
<path d="M739.893 29.9628C739.597 28.7781 739.399 27.0998 739.621 24.2368C739.794 32.9986 740.238 19.5227 739.893 29.9628Z" fill="#FAAE5D"/>
<path d="M249.404 462.007C249.33 462.031 249.157 462.031 248.91 462.031C249.059 462.031 249.256 462.031 249.404 462.007Z" fill="#FAAE5D"/>
<path d="M744.401 154.257C744.451 157.713 743.735 153.369 743.908 161.168C744.846 189.773 744.278 234.866 743.562 269.691L743.365 267.593C743.216 274.232 743.858 282.328 743.76 289.362C743.636 289.436 743.587 287.116 743.414 288.745C743.784 290.522 743.587 301.456 743.883 304.442C743.735 307.231 743.414 306.935 743.266 310.538L743.685 314.561C744.722 325.767 743.611 341.76 744.154 357.013C744.056 356.297 743.982 354.767 743.883 356.001C744.179 368.243 744.303 382.04 744.377 396.207C744.401 403.29 744.525 410.448 744.426 417.581C744.006 424.787 740.229 431.575 734.65 435.746C735.465 434.956 736.008 434.092 734.7 434.981C734.329 435.524 732.379 437.276 729.565 438.56C729.269 438.732 728.775 438.782 728.652 439.102C728.652 439.497 728.676 439.892 728.676 440.287C728.701 441.151 728.726 442.04 728.726 442.928C728.75 444.779 728.775 446.68 728.8 448.531C728.652 449.641 728.652 451.591 728.701 454.232C726.455 454.306 723.788 454.38 720.95 454.479C718.234 454.553 715.37 454.578 712.556 454.504L713.297 454.405C711.692 454.553 710.211 454.479 709.372 454.652C708.73 455.318 707.644 456.157 706.755 456.774C704.879 458.058 703.052 459.045 700.657 460.254C699.3 460.624 697.942 460.871 696.56 460.995C695.251 461.612 692.783 461.735 690.191 461.538C687.574 461.414 684.661 461.241 682.044 461.414L682.192 461.562C677.23 461.71 674.663 461.39 670.047 461.488L669.627 461.414C662.073 461.538 656.741 461.39 654.297 461.464C657.012 461.365 660.987 461.316 657.333 460.945C621.859 461.488 585.299 461.365 549.603 461.39C545.555 461.167 542.962 461.118 542.049 460.921C538.568 461.019 529.064 461.019 525.608 461.266C525.608 461.217 522.794 461.019 521.189 460.995C514.697 460.797 514.104 461.562 506.97 461.316C509.809 461.192 510.772 461.019 509.809 460.822C503.736 461.241 495.59 461.167 488.406 461.291C489.517 461.217 491.27 461.167 490.998 460.995C483.123 461.464 476.631 460.896 469.743 461.192L472.335 460.896C461.227 460.526 469.052 461.513 459.449 461.291C461.77 461.217 460.955 461.093 461.375 460.97C452.414 461.513 437.948 461.34 429.011 461.513C429.53 461.464 429.406 461.39 429.406 461.39C419.655 461.464 409.509 461.291 398.795 461.538C394.895 461.39 400.079 460.797 389.785 460.921C390.155 461.513 372.283 461.167 378.38 461.834C369.567 461.735 355.644 461.513 349.793 461.71C353.743 461.488 345.498 460.995 352.805 460.921L347.3 460.575C348.115 460.328 352.978 460.649 351.225 460.353C347.547 460.378 336.883 460.6 333.599 460.501C326.835 460.871 320.59 461.562 309.604 461.636C314.023 461.439 308.74 461.093 309.333 460.945L294.842 462.007C291.189 462.056 294.052 461.538 288.769 461.71C289.041 461.859 286.745 461.957 285.116 462.081C283.758 462.007 269.934 462.229 268.329 461.636C266.725 461.414 274.303 461.513 270.255 461.316C263.491 461.316 263.194 461.513 256.43 461.538L256.307 461.439C251.839 461.365 243.174 461.71 248.012 462.031C248.284 462.031 248.482 462.031 248.654 462.031C244.803 462.204 238.928 462.278 233.694 462.278C235.99 462.179 235.719 462.031 236.632 461.859C227.893 462.303 218.661 462.476 208.934 462.648C209.922 462.525 211.354 462.327 212.366 462.303C199.899 461.957 186.717 462.796 176.225 462.327C176.892 462.402 176.373 462.673 176.275 462.599C170.029 462.574 170.301 462.179 166.227 462.327C165.832 462.081 161.093 462.402 156.921 462.476C155.538 462.574 155.489 462.5 156.501 462.426C147.96 462.599 128.556 462.846 116.707 462.55C116.978 462.698 108.412 463.117 105.302 463.093L106.512 462.747C105.647 462.673 104.314 462.648 102.907 462.648C102.142 462.673 101.599 462.673 101.426 462.624C99.6488 462.624 97.8961 462.624 96.7852 462.574C96.7111 462.574 96.6371 462.599 96.5877 462.574C96.4396 462.599 96.2915 462.599 96.168 462.599C91.9467 462.698 87.7994 462.821 83.7015 462.574C85.4542 462.574 88.0957 462.081 83.3806 462.105C74.5183 462.179 80.8626 462.278 73.6543 462.402L69.1367 462.55C68.9639 462.722 66.8409 462.673 65.2363 462.377C64.2982 462.204 63.5083 462.031 63.3601 462.031C63.4095 462.081 63.5576 462.13 63.8045 462.229C62.7183 461.908 59.8053 461.192 57.3861 459.859C54.5225 458.428 52.3254 456.429 52.8932 456.527L54.2016 456.947C53.461 456.379 52.7945 455.886 52.1773 455.392C51.7823 454.898 51.2639 455.219 50.6962 455.219C49.2397 455.367 47.8572 455.54 46.3514 455.639C45.907 455.59 45.0183 455.515 45.0183 455.441C44.6974 455.738 42.8953 455.762 40.5995 455.738C39.4393 455.738 38.1309 455.713 36.8225 455.713H34.0577C33.0703 455.738 32.1075 455.762 31.1941 455.787C31.1694 454.849 31.1201 453.985 31.046 453.195C31.0954 450.875 31.12 448.259 31.1694 445.544C31.1694 444.36 31.1941 443.175 31.1941 441.99V440.682L31.2188 440.263C31.2188 440.139 31.2435 439.966 31.0707 439.942C30.8238 439.843 30.577 439.719 30.3548 439.621C29.8611 439.349 29.3673 439.102 28.8736 438.856C27.9109 438.263 27.0221 437.696 26.2569 437.079C24.677 435.919 23.5908 434.734 22.9736 433.944C18.382 429.452 15.3456 423.578 15.3456 416.075C15.4197 417.531 15.6665 419.407 15.864 419.752C15.6418 417.432 15.7159 415.902 15.6665 414.619C15.6172 413.286 15.5678 412.003 15.4937 409.979C15.5925 410.892 15.9134 401.118 16.1602 396.207C15.9628 390.061 15.5678 392.159 15.3209 391.542C16.0368 385.939 14.8766 374.216 15.5184 367.182C15.6172 369.304 15.864 376.141 16.0368 371.032C16.7527 365.405 15.5184 359.703 15.864 350.645L15.2715 352.867C15.6418 348.843 14.9259 339.539 15.5184 340.477C15.3209 337.441 15.7159 329.79 15.1481 330.802C15.6418 315.919 14.8519 294.644 15.8887 285.487C15.79 283.364 15.8887 278.033 15.5925 279.144C15.2715 282.673 15.8146 284.08 15.5925 285.388C15.5925 283.488 15.4197 283.068 15.3456 282.871C15.469 278.231 15.5184 274.603 15.9874 278.971C16.3577 268.679 15.0247 268.358 15.2469 255.277C15.4937 255.87 15.5678 254.882 15.5431 251.057L15.1234 243.776C15.2222 235.31 15.6665 238.963 16.0615 238.766C16.0121 234.249 16.0121 228.696 15.7159 226.647L16.1849 221.686C15.864 224.401 15.9874 217.342 15.8887 215.318L15.9874 217.441C16.1602 216.602 16.0368 211.369 15.9874 208.729C15.7406 209.346 15.6418 214.701 15.5678 217.614C15.395 215.294 15.4444 211.69 15.2469 208.63C15.6172 209.642 15.5184 201.275 15.5678 197.671C15.6418 193.55 15.1975 193.007 15.2222 191.822C15.4197 191.699 15.2469 185.084 15.5431 188.293C15.5925 189.699 15.3456 191.501 15.5184 193.846C15.6665 191.106 16.0121 191.427 15.7653 185.8C15.5678 181.53 15 186.886 15.2469 178.815C15.3456 180.938 15.4937 181.332 15.6418 182.961L15.8393 175.409L15.469 175.088C15.5678 174.076 15.5925 174.792 15.6418 174.298C15.2715 172.077 15.5431 162.772 15.1234 161.069C15.0741 157.268 15.3703 153.048 15.395 149.42L15.4197 150.111C15.6418 145.668 15.4937 139.769 15.2715 136.018L15.3456 136.215C15.3703 133.797 15.3209 128.071 15.0987 125.035C15.3703 118.889 16.4565 122.962 16.0121 116.174C15.9874 109.955 15.3456 106.4 15.1234 108.918C15.3703 97.7374 14.7778 85.0266 15.3209 74.6605C15.1975 73.0562 15.0987 74.0681 15 70.7609C15.0247 68.6876 15.0247 66.6144 15.0247 64.5165C15.0494 62.3199 15.2469 59.9505 15.79 57.7292C16.8761 53.2372 19.172 49.0661 22.2577 45.7835C23.7883 44.1546 25.541 42.7231 27.3678 41.5631C28.2811 40.9707 29.2933 40.4524 30.1573 40.0328C30.3548 39.8847 30.9719 39.9094 30.8238 39.4652C30.8732 37.8856 30.8979 36.3306 30.9472 34.8498C31.0213 33.0727 31.0707 31.3451 31.1447 29.7161C31.2929 34.4796 31.4903 30.037 31.7125 29.9382C31.6385 28.9263 31.6138 27.6676 31.6138 26.8531C31.6138 25.9646 31.6385 25.2982 31.6631 24.7305C33.1196 24.8045 33.8849 24.8539 34.8477 24.5577C34.3046 24.3109 34.5761 24.1628 30.9719 24.0394C30.9472 24.8539 30.9226 26.088 30.8732 27.6922C30.8732 26.5322 30.8485 25.3475 30.8485 23.916C36.3041 23.8913 42.8213 23.8667 48.6719 23.842H50.5727L51.0911 23.8667C51.1899 23.842 51.3133 23.8913 51.3874 23.8173C51.6589 23.5952 51.9305 23.373 52.1773 23.1509C52.6464 22.756 53.1401 22.4105 53.5844 22.0649C55.2137 20.9049 56.7443 20.0904 57.9539 19.5968C56.0777 20.3866 57.8798 19.276 59.8794 18.4121C59.6079 18.807 61.3112 18.2147 63.8539 17.7211C65.1129 17.4742 66.6187 17.2521 68.1493 17.1781C69.6057 17.1287 71.1363 17.104 72.5187 17.0547L73.3087 16.7338L76.8388 17.0547C78.9618 16.9559 79.184 16.413 84.5902 16.7091C84.8865 16.8325 85.1827 16.9559 86.1948 17.03C91.8479 16.7832 99.8216 16.3636 105.968 16.6104L110.98 17.0793C113.522 17.03 117.67 16.7832 113.893 16.6351C124.113 16.8819 130.679 16.9313 133.963 17.3262C152.008 16.3636 178.175 16.3142 199.159 16.3883L198.541 16.6351C204.17 16.8325 201.479 16.2155 205.404 16.3636C203.577 16.6104 209.7 16.8572 205.281 17.1287C213.328 17.3755 215.649 16.7338 220.907 16.6351C221.697 16.3142 216.686 16.8325 217.698 16.4376C218.611 16.3142 228.856 16.6598 230.115 16.1908C232.115 16.3883 230.559 16.7338 229.473 16.9066L234.386 16.6844C240.409 17.2274 220.66 17.6717 226.98 18.3381L231.522 18.264C235.867 18.7577 219.525 18.807 230.905 18.9798C235.867 18.7577 240.088 18.0666 235.694 17.8691C245.964 17.7457 240.458 16.7585 251.518 16.8078C254.554 17.0793 242.656 16.8572 244.779 17.2521C250.012 17.6223 255.245 17.03 259.886 17.1781C254.727 16.9806 259.097 16.5117 262.429 16.4376C268.058 16.6598 258.776 16.8819 266.749 16.9313C268.058 16.6598 275.389 16.4623 269.045 16.2649C271.933 15.6478 277.34 16.4376 281.684 15.9687C284.276 16.3883 273.464 16.9559 282.227 17.1781C280.845 16.7585 293.04 16.6104 288.424 15.9934C291.855 16.1168 292.201 16.4376 289.707 16.6844C294.62 16.9559 301.606 15.944 303.211 16.7585L304.914 16.3389C306.445 16.4623 308.642 16.6104 311.16 16.8078C315.48 16.8078 325.083 16.2402 324.688 16.8819C326.07 16.8079 335.945 16.8325 332.118 16.3883C325.996 16.1168 325.083 16.7091 321.651 16.1168C325.996 16.6104 330.514 16.0427 334.044 15.8946L334.636 16.1415C336.463 16.0427 340.413 16.0921 342.264 15.9193C341.696 16.0427 342.486 16.1415 343.819 16.1908L346.041 15.8206C354.632 15.6232 348.065 16.487 356.409 16.3636L350.065 16.6598C351.447 16.6104 354.311 16.9559 358.31 16.8325C359.841 16.487 362.754 16.0921 364.111 15.8206C368.185 15.6725 366.777 16.0674 369.37 15.944L364.778 16.2649C363.865 16.3636 368.876 16.8325 375.146 16.8325C379.17 16.7091 385.391 16.2155 379.046 16.0181C382.206 16.0181 386.625 16.2155 384.132 16.4623C391.266 16.3636 383.194 16.0921 389.365 15.8946C391.883 16.1168 399.733 16.4376 404.473 16.7832L398.03 17.3508H402.301C396.771 17.8198 405.115 17.6964 402.005 18.19C404.918 18.264 408.448 18.0913 411.262 17.9679C402.72 17.2027 420.84 16.9066 418.372 16.2155C430.073 16.0181 425.679 17.9185 437.898 16.8325C436.343 16.6844 439.404 16.3142 437.503 16.2649C441.058 16.1168 440.836 15.6478 447.797 15.8946C441.453 16.1661 454.635 16.6104 445.452 17.03C446.069 16.7832 440.317 16.8572 438.91 16.9066C441.922 17.1781 438.293 17.6223 445.748 17.6223C450.291 17.5483 456.512 17.5483 455.623 17.1781C455.425 16.7585 448.661 17.2274 451.574 16.8078C460.634 16.6598 462.165 17.2768 465.917 16.561C460.19 16.6104 458.758 16.1908 458.857 15.9193L465.522 15.7466L464.214 16.0181C474.878 16.2155 467.374 15.5244 477.717 15.5985L482.555 16.1415C480.087 16.6104 467.522 15.944 469.348 16.6844C476.088 16.7091 478.309 16.3389 484.654 16.5364C483.222 16.561 481.321 16.6351 479.914 16.6844C481.963 16.7091 483.987 17.4249 490.406 17.2768C489.122 17.3262 488.061 17.4002 487.542 17.5483C496.207 17.573 495.787 18.2147 497.194 18.6343C499.589 18.6589 501.909 18.4862 503.341 18.4121C504.353 18.0172 501.218 18.0172 501.045 17.6223C510.698 17.7211 520.004 17.5236 525.312 17.1287C528.546 17.3262 527.534 17.7211 523.707 17.7457C535.186 17.647 547.48 17.6964 558.367 17.8198C552.417 17.2768 565.254 17.5236 566.439 17.3015C567.106 17.5236 568.142 17.7457 567.328 17.9432C574.882 17.6717 567.007 18.3134 574.487 18.3134C582.016 18.0172 591.298 17.7951 599.667 17.6964C610.208 18.1653 626.328 17.6964 635.733 17.6964C640.646 17.9432 637.338 18.5108 642.67 18.6096C648.915 18.5849 638.029 17.9925 647.286 18.264L646.397 18.3628C649.039 18.2394 661.777 18.7083 665.554 18.0666L663.283 18.5602C665.011 18.6096 666.615 18.4615 668.047 18.4121C668.121 18.6096 670.145 18.7823 667.331 18.9057C673.058 19.35 679.353 18.8564 685.574 18.8317L681.55 18.4615C684.217 18.3874 686.66 18.3628 689.006 18.3628C691.301 18.3628 693.573 18.2887 695.819 18.6836C700.263 19.4241 704.533 21.2505 708.557 24.6811L708.088 24.7552C708.508 25.076 708.829 25.3722 709.199 25.6684C709.545 25.9152 710.088 25.7177 710.532 25.7424L713.593 25.6437C713.001 25.7671 713.519 25.8905 714.531 25.9646C718.234 25.7918 724.159 25.6437 725.566 26.3841C725.591 26.4088 725.615 26.4335 725.64 26.4582C726.529 26.6556 727.738 26.8531 727.17 27.0505C726.899 26.9765 726.479 26.9271 726.01 26.8778C727.788 29.5927 728.183 41.5384 728.232 43.2907L731.293 44.4261L731.268 44.5495C731.737 44.7469 732.231 44.9937 732.774 45.2899C734.552 46.2772 736.749 47.8814 738.921 50.5717C741.019 53.2619 743.118 57.1862 743.562 62.3446C744.944 89.1977 743.611 124.763 744.401 154.257Z" fill="#FAAE5D"/>
<path d="M751.594 443.644C752.187 442.608 752.557 441.547 751.249 442.608C751.076 443.373 749.446 445.446 746.731 447.495C745.324 448.482 743.67 449.494 742.164 450.136L741.572 450.407C741.448 450.53 741.547 450.827 741.522 451.024L741.547 452.332C741.572 453.27 741.572 454.208 741.596 455.096C741.152 457.342 741.498 461.291 741.744 467.659C739.942 467.758 737.943 467.807 735.869 467.857C734.018 467.881 732.29 467.857 730.537 467.783L731.302 467.635C727.97 468.005 725.476 467.881 723.18 467.807C721.946 467.758 721.008 467.709 720.045 467.758C719.65 467.955 719.354 468.449 718.984 468.795C718.539 469.239 718.095 469.708 717.626 470.226C716.342 470.942 715.009 471.583 713.652 472.102C712.565 473.286 710.171 474.224 707.406 474.718C704.616 475.261 701.457 475.212 698.716 475.384L698.914 475.607C693.705 475.853 691.014 475.335 686.201 475.508L685.732 475.384C678.474 475.557 673.166 475.384 670.401 475.458C673.142 475.31 676.4 475.212 672.895 474.669C635.791 475.483 597.553 475.335 560.203 475.36C555.956 475.039 553.266 474.94 552.303 474.644C548.649 474.792 538.726 474.792 535.121 475.162C535.121 475.064 532.184 474.792 530.48 474.743C523.692 474.447 523.05 475.607 515.595 475.261C518.582 475.039 519.569 474.792 518.582 474.496C512.213 475.113 503.721 475.014 496.191 475.212C497.352 475.088 499.178 475.014 498.882 474.743C490.662 475.458 483.873 474.595 476.665 475.039L479.38 474.595C467.753 474.027 475.949 475.557 465.901 475.212C468.321 475.064 467.481 474.891 467.901 474.718C458.545 475.532 443.388 475.261 434.056 475.557C434.599 475.483 434.451 475.36 434.451 475.36C424.281 475.458 413.641 475.212 402.458 475.557C398.385 475.36 403.791 474.447 393.028 474.619C393.423 475.533 374.736 474.989 381.08 476.026C371.897 475.878 357.332 475.533 351.21 475.853C355.332 475.508 346.717 474.743 354.37 474.644L348.593 474.101C349.432 473.731 354.542 474.224 352.691 473.755C348.865 473.78 337.682 474.15 334.275 474.002C327.165 474.57 320.648 475.607 309.169 475.73C313.785 475.434 308.206 474.891 308.848 474.669L293.716 476.322C289.889 476.372 292.901 475.607 287.347 475.829C287.643 476.075 285.248 476.224 283.545 476.421C282.113 476.322 267.647 476.643 265.993 475.755C264.314 475.384 272.214 475.557 267.993 475.236C260.932 475.236 260.612 475.557 253.551 475.582L253.403 475.458C248.738 475.31 239.653 475.829 244.738 476.322C245.331 476.322 245.676 476.322 245.849 476.298C241.825 476.618 235.432 476.717 229.754 476.742C232.148 476.594 231.877 476.347 232.84 476.1C223.706 476.767 214.078 476.989 203.908 477.285C204.969 477.087 206.549 476.767 207.61 476.742C194.576 476.224 180.801 477.507 169.816 476.816C170.26 476.989 169.791 477.334 169.693 477.235C163.151 477.186 163.447 476.544 159.176 476.791C158.757 476.421 153.819 476.89 149.45 477.013C147.944 477.186 147.919 477.063 149.228 476.915C140.365 477.235 119.851 477.606 107.385 477.137C107.656 477.384 98.6952 478.025 95.4613 478.001L96.745 477.433C95.7822 477.334 94.3504 477.285 92.8199 477.285H92.6964C92.0299 477.31 91.5609 477.31 91.4128 477.26C91.4128 477.26 91.4128 477.26 91.3881 477.26C89.7094 477.26 88.0555 477.26 86.8952 477.211H85.6856C81.2174 477.359 76.8233 477.556 72.5032 477.186C74.3053 477.285 77.786 476.421 72.5279 476.446C63.2459 476.544 69.8865 476.717 62.3572 476.915C60.802 476.989 58.9999 477.038 57.3212 476.841C57.1237 477.112 54.8526 476.742 53.1739 476.224C51.6434 475.755 50.5325 475.335 51.6434 475.977C50.5819 475.458 47.5702 474.348 45.0769 472.669C44.361 472.201 43.6698 471.707 43.0773 471.213C42.5342 470.794 41.843 470.152 41.7936 470.078C41.448 469.683 41.2752 469.313 41.448 469.189C41.7196 469.115 42.0405 469.091 42.3861 469.091C42.1146 468.893 41.8924 468.572 41.6208 468.498C41.2999 468.548 40.979 468.572 40.6828 468.597C39.8928 468.696 39.1769 468.795 38.461 468.893C36.9305 469.115 35.4987 469.362 33.9188 469.535C33.4497 469.461 32.5116 469.337 32.5116 469.239C32.2154 469.658 30.5368 469.708 28.3891 469.708C27.0066 469.683 25.5008 469.658 23.9456 469.634C22.02 469.634 20.0945 469.634 18.1937 469.683C18.1443 468.153 18.0703 466.771 17.9221 465.561C17.9715 462.994 18.0456 460.107 18.0949 457.12C18.1196 455.911 18.1196 454.677 18.1443 453.467V452.604L18.169 452.159C18.169 452.036 18.1937 451.863 18.0209 451.839C17.774 451.715 17.5272 451.616 17.2803 451.493C16.91 451.296 16.5644 451.123 16.2188 450.925C15.182 450.308 14.1945 449.716 13.3799 449.074C11.7012 447.816 10.5163 446.557 9.87446 445.693C7.25772 443.348 5.08534 440.658 3.45606 437.499C1.87615 434.364 0.740584 430.736 0.592467 426.664C0.789956 428.268 1.20962 430.465 1.55523 430.835C1.18493 428.342 1.13556 426.787 1.03682 425.282C0.962759 423.875 0.864015 422.517 0.740584 420.37C0.913387 421.308 1.38242 411.115 1.7774 405.956C1.45648 399.539 0.864015 401.736 0.493723 401.094C1.57991 395.22 -0.197489 382.953 0.789956 375.598C0.938073 377.82 1.30837 384.977 1.57991 379.646C2.6661 373.747 0.789956 367.799 1.30837 358.322L0.419664 360.642C0.962759 356.421 -0.123431 346.697 0.814643 347.659C0.469037 344.5 1.11088 336.504 0.222175 337.565C0.962759 321.991 -0.222175 299.729 1.35774 290.152C1.20962 287.931 1.35774 282.378 0.888701 283.513C0.419664 287.215 1.25899 288.671 0.913387 290.054C0.888701 288.054 0.64184 287.61 0.518409 287.413C0.740584 282.575 0.789956 278.774 1.53054 283.34C2.07364 272.579 0.0246862 272.234 0.370292 258.56C0.740584 259.177 0.864015 258.141 0.814643 254.118L0.197489 246.516C0.345606 237.68 1.01213 241.506 1.62929 241.284C1.53054 236.545 1.55523 230.745 1.11088 228.622L1.80209 223.414C1.33305 226.253 1.50585 218.873 1.35774 216.751L1.50585 218.972C1.75272 218.108 1.6046 212.629 1.53054 209.864C1.13556 210.506 0.987446 216.109 0.888701 219.145C0.617154 216.726 0.666526 212.974 0.345606 209.766C0.962759 210.827 0.789956 202.041 0.839329 198.289C0.987446 193.97 0.296234 193.427 0.32092 192.168C0.64184 192.069 0.370292 185.134 0.814643 188.491C0.913387 189.947 0.518409 191.847 0.789956 194.291C1.01213 191.428 1.55523 191.773 1.16025 185.874C0.864015 181.432 -0.0246861 187.01 0.370292 178.569C0.518409 180.79 0.740584 181.21 0.962759 182.913L1.28368 175.015L0.740584 174.694C0.864015 173.608 0.913387 174.348 0.987446 173.855C0.419664 171.51 0.814643 161.81 0.172803 160.009C0.0987446 156.035 0.543095 151.617 0.617153 147.816L0.64184 148.556C0.987446 143.892 0.76527 137.721 0.394978 133.822L0.518409 134.019C0.567781 131.477 0.469037 125.48 0.148117 122.296C0.567781 115.879 2.22175 120.148 1.53054 113.04C1.50585 106.524 0.518409 102.847 0.172803 105.463C0.543095 93.7643 -0.345606 80.4858 0.493723 69.6261C0.271548 67.9478 0.148117 69.0091 0 65.529C0.0246861 63.3818 0.0246861 61.2098 0.0493723 59.0132L0.0246861 55.7059C0.0740584 54.5706 0.0493723 53.2625 0.222175 52.0531C0.691212 47.0922 2.46861 42.2794 5.18409 38.2317C7.87488 34.184 11.5284 30.9507 15.4535 28.7788C15.8979 28.5567 16.6385 28.1864 16.6878 28.1864C16.8359 28.1124 17.0087 28.0384 17.1816 27.989C17.3544 27.9149 17.6012 27.9149 17.6753 27.7915L17.7493 27.2732C17.8234 27.0264 17.9221 24.657 18.0703 23.0528C18.2924 28.0384 18.6133 23.3983 18.9343 23.2749C18.6874 21.2264 18.8108 19.9923 18.8849 19.0791C18.9096 18.857 18.9343 18.6348 18.9343 18.4374C18.959 18.1659 18.9343 17.9191 18.9343 17.6723C18.9096 17.2033 18.8108 16.7344 18.5887 16.1174C18.3418 16.3642 18.169 16.2901 18.0209 17.1293C17.9715 17.3267 17.9468 17.5982 17.8975 17.9438C17.8728 18.2153 17.8481 18.5608 17.8234 18.9804C17.7493 19.6221 17.7 20.4859 17.6506 21.6953C17.6259 20.2144 17.6012 18.6595 17.5765 17.0059C17.5518 14.6365 17.5272 12.1684 17.5025 9.67557C20.9092 9.65089 24.3652 9.65089 27.7719 9.62621C30.0183 9.65089 32.2154 9.65089 34.2644 9.67557C36.3133 9.72493 38.2141 9.74961 39.8681 9.79897C40.3865 9.82366 40.3618 9.82366 40.5593 9.84834C40.7074 9.84834 40.8556 9.87302 40.979 9.8977C41.1765 9.87302 41.3246 9.72493 41.448 9.62621C41.1024 9.82366 41.053 9.74961 41.1271 9.57684C41.1765 9.47812 41.2505 9.35471 41.3493 9.20663C41.3493 9.18194 41.5961 8.95982 41.8183 8.73768C42.0405 8.54023 42.2627 8.3181 42.5095 8.12066C42.4355 8.713 44.0154 7.60235 46.484 6.31893C48.9279 4.96147 52.3593 3.57932 55.4451 2.83889L56.2597 2.19718C57.6668 2.12313 59.0739 2.14781 60.4564 2.27122C62.8509 2.07377 62.9497 1.23461 68.6522 1.70355C68.9484 1.87632 69.2693 2.07377 70.3308 2.22186C76.2555 1.82696 84.5747 1.16057 90.9931 1.55547L96.2513 2.27122C98.8927 2.19718 103.237 1.7776 99.3123 1.58015C109.977 1.97505 116.864 2.04909 120.296 2.64144C139.156 1.16057 166.557 1.11121 188.503 1.20993L187.837 1.58015C193.737 1.901 190.898 0.938438 195.02 1.18525C193.12 1.53079 199.513 1.92568 194.872 2.36995C203.315 2.74016 205.734 1.72824 211.239 1.58015C212.054 1.08652 206.82 1.87632 207.882 1.25929C208.82 1.11121 219.559 1.62951 220.867 0.913757C222.965 1.20993 221.336 1.72824 220.2 2.02441L225.335 1.67887C231.655 2.51803 210.992 3.18442 217.584 4.19635L222.348 4.09763C226.89 4.83806 209.783 4.93679 221.706 5.20828C226.89 4.83806 231.309 3.80145 226.693 3.4806C237.456 3.28315 231.679 1.7776 243.257 1.82696C246.417 2.24654 234 1.92568 236.222 2.51803C241.677 3.11038 247.158 2.19718 252.021 2.41931C246.615 2.14781 251.181 1.40738 254.662 1.28397C260.562 1.62951 250.836 1.95037 259.18 2.02441C260.562 1.62951 268.215 1.30866 261.599 1.01248C264.611 0.0745973 270.264 1.28397 274.806 0.543539C277.522 1.20993 266.215 2.07377 275.399 2.41931C273.942 1.7776 286.705 1.55547 281.842 0.592902C285.446 0.790351 285.816 1.28397 283.199 1.67887C288.334 2.07377 295.641 0.518858 297.345 1.7776L299.097 1.13589C300.702 1.33334 302.998 1.5061 305.639 1.85164C310.157 1.85164 320.204 0.963119 319.784 1.95037C321.241 1.85164 331.56 1.901 327.585 1.20993C321.167 0.790351 320.204 1.70355 316.624 0.790351C321.167 1.53079 325.882 0.691626 329.585 0.444815L330.202 0.815032C332.127 0.691626 336.225 0.740989 338.175 0.469496C337.534 0.666945 338.373 0.839713 339.805 0.913757L342.125 0.34609C351.111 0.0499161 344.248 1.35802 352.987 1.18525L346.347 1.62951C347.803 1.53079 350.765 2.07377 354.937 1.901C356.567 1.35802 359.628 0.740989 361.01 0.321409C365.305 0.12396 363.8 0.716307 366.54 0.518858L361.726 1.01248C360.763 1.18525 365.997 1.87632 372.588 1.87632C376.785 1.67887 383.302 0.938438 376.661 0.642264C379.969 0.642264 384.585 0.963119 381.969 1.33334C389.449 1.16057 380.981 0.76567 387.449 0.444815C390.066 0.790351 398.286 1.28397 403.248 1.80228L396.509 2.6908H400.977C395.176 3.40655 403.915 3.23379 400.656 3.97422C403.717 4.09763 407.42 3.85081 410.358 3.65337C401.421 2.46867 420.38 2.02441 417.788 0.938438C430.033 0.642264 425.441 3.57932 438.204 1.87632C436.55 1.65419 439.932 1.08652 437.685 1.01248C441.512 0.790351 441.215 0.0499161 448.572 0.420134C441.931 0.889076 455.706 1.53079 446.103 2.19718C446.745 1.82696 440.746 1.901 439.265 2.02441C442.4 2.44399 438.623 3.11038 446.424 3.11038C451.164 3.01166 457.681 2.98697 456.743 2.41931C456.545 1.80228 449.485 2.49335 452.522 1.85164C462.001 1.62951 463.581 2.59208 467.506 1.48142C461.532 1.55547 460.026 0.913757 460.125 0.494177L467.111 0.222684L465.753 0.642264C476.911 0.938438 469.037 -0.0981708 479.849 0.000553811L484.935 0.815032C482.342 1.53079 469.209 0.518858 471.11 1.65419C478.146 1.70355 480.491 1.13589 487.107 1.43206C485.626 1.48142 483.626 1.58015 482.17 1.65419C484.688 1.67887 487.181 3.2091 497.204 2.32058C502.388 1.97505 498.586 1.901 498.709 1.48142C509.991 1.35802 513.373 0.913757 520.631 0.839713C519.149 1.67887 533.492 0.938438 525.444 1.7776C521.766 1.28397 505.449 1.33334 501.45 2.14781C505.547 3.13506 492.587 1.99973 490.143 3.01166C499.203 3.03634 498.759 4.02358 500.215 4.66529C502.733 4.68997 505.177 4.41848 506.683 4.31976C507.72 3.72741 504.461 3.72741 504.264 3.11038C514.36 3.28315 524.087 2.93761 529.641 2.34526C533.023 2.64144 531.962 3.25847 527.962 3.30783C539.985 3.13506 552.821 3.2091 564.226 3.40655C557.956 2.56739 571.632 2.98697 572.669 2.61676C573.36 2.93761 574.422 3.28315 573.582 3.604C581.507 3.18442 573.262 4.14699 581.087 4.14699C588.962 3.72741 598.664 3.38187 607.427 3.23379C618.437 3.94954 635.322 3.23379 645.148 3.2091C650.307 3.604 646.826 4.46784 652.405 4.61593C658.947 4.61593 647.542 3.67805 657.244 4.07295L656.306 4.24571C659.07 4.04826 672.352 4.73934 676.326 3.80145L673.981 4.54189C675.783 4.61593 677.462 4.41848 678.968 4.31976C679.042 4.61593 681.14 4.88742 678.202 5.10955C684.176 5.75126 690.768 4.98615 697.285 4.96147L693.088 4.41848C695.878 4.29508 698.42 4.24571 700.889 4.24571C703.407 4.27039 705.801 4.64061 708.097 5.33168C710.393 5.99808 712.59 6.96064 714.688 8.21938C715.75 8.86109 716.811 9.55216 717.824 10.3666C718.342 10.7369 718.885 11.2305 719.255 11.5267C719.65 11.8969 719.996 12.3658 720.613 12.193L720.169 12.7607L726.464 12.4152C725.18 12.8594 729.006 13.1803 732.265 13.0075L725.822 13.5258L721.65 13.8714C720.885 13.896 720.045 14.0195 719.255 13.9948C718.663 13.5011 717.996 12.9335 717.379 12.5139C715.75 11.0084 716.787 11.576 718.07 12.4152C718.391 12.6373 718.712 12.8841 719.008 13.0816C719.305 13.279 719.552 13.5011 719.823 13.3531C720.292 13.2543 720.366 13.1309 719.724 12.9828C719.033 11.9956 716.762 9.82366 714.022 8.39215C711.331 6.8866 708.443 6.19552 707.604 6.26957C709.43 6.78787 710.344 7.18277 711.183 7.47895C712.022 7.7998 712.788 8.04661 714.121 8.68832C714.466 9.35471 713.429 8.91045 711.899 8.34279C710.368 7.75044 708.344 7.18277 706.937 7.10873C708.097 7.35554 709.48 7.94789 710.467 8.36747C707.258 7.33086 703.826 6.51638 698.075 6.71383C701.654 6.46702 697.902 6.31893 697.186 6.14616C696.026 6.71383 690.052 6.8866 682.498 6.71383C676.721 5.94871 667.291 7.20745 657.935 6.98532C661.737 6.31893 666.575 5.77595 672.278 5.50445C666.402 5.15892 665.736 5.52913 659.836 5.1836C656.997 5.67722 654.948 6.46702 647.295 6.76319L646.876 6.26957C639.914 6.51638 639.914 7.25681 631.052 7.13341C615.894 6.8866 600.268 6.8866 588.69 6.81255L588.271 6.31893C581.828 7.38022 566.794 6.71383 558.129 7.18277C543.367 6.71383 526.086 7.65171 518.508 6.81255C492.464 7.18277 469.703 7.55299 442.746 7.38022L447.263 6.63979C442.45 7.18277 444.128 6.22021 439.389 6.34361C444.844 6.91128 432.822 7.08405 429.465 7.52831C417.467 6.98532 402.038 7.57767 391.399 8.09597L390.979 7.60235C380.216 8.54023 367.379 7.72576 353.975 7.55299C352.444 7.35554 350 6.8866 346.001 6.93596C338.743 7.75044 334.942 7.70108 324.277 8.1947C316.476 8.1947 303.837 7.99725 295.913 7.67639C266.635 8.81173 236.691 8.09597 206.253 8.78705L204.031 8.1947C174.506 9.45344 138.193 8.29342 112.988 8.95982L115.432 7.94789C107.533 7.62703 97.4115 8.21938 99.4111 8.91045C91.4868 8.61428 79.6622 9.40408 74.6262 8.5896C70.5777 8.49087 68.0844 8.61428 65.7886 8.76237C64.6283 8.83641 63.5174 8.91045 62.2831 9.00918C60.9748 9.08322 59.9626 9.15726 58.4815 9.37939C55.0254 9.72493 52.2112 10.7615 49.866 12.045C48.7058 12.6867 47.6442 13.3777 46.6815 14.1429L45.8668 14.8339L44.5832 16.0186C43.8673 17.154 42.5589 16.7097 41.448 16.7837C38.5597 16.8084 35.7208 16.8084 32.5857 16.8331C31.1045 16.8578 29.5493 16.8578 27.8953 16.8825C27.5991 16.8825 27.3029 16.9072 27.0066 16.8825C27.4016 16.8084 27.5744 16.685 27.4016 16.5863C27.3029 16.5369 27.0066 16.4629 26.5129 16.4135C26.1426 16.3642 25.9698 16.3148 25.5255 16.2901C25.1799 16.3395 24.7355 16.3642 24.2171 16.3888C24.2418 18.6595 24.2665 21.5225 24.2912 23.423C24.3652 26.1626 24.5627 27.4707 25.0811 25.1013C25.0564 25.6443 25.0317 26.1873 25.0071 26.7302C25.0071 27.6435 24.9824 28.5567 24.9577 29.4699C24.9577 30.3831 24.933 31.2963 24.933 32.2341C25.0071 32.5303 24.7355 32.555 24.5133 32.6537L23.8715 32.9499L22.5878 33.4929C21.7485 33.8878 20.7857 34.2333 19.9711 34.6529C19.4527 34.9244 19.0824 35.0972 18.6627 35.3687C17.8234 35.8376 17.0334 36.4299 16.2435 36.9976C13.133 39.441 10.615 42.7977 9.10919 46.5245C8.3686 48.425 7.87488 50.3748 7.62802 52.3493C7.50459 53.3365 7.4799 54.3238 7.43053 55.311V58.717C7.40584 63.2337 7.3071 67.5776 7.08492 71.5512C7.40584 70.1938 7.45521 74.1921 7.67739 75.8951C7.70208 90.2102 7.03555 105.241 7.57864 116.668C7.43053 118.964 7.03555 113.04 6.98618 118.865C7.13429 122.32 7.43053 118.964 7.60333 123.209C8.22048 146.385 6.98618 170.152 7.13429 191.255C7.77613 228.746 7.45521 267.841 7.55396 303.776L7.3071 303.357C8.24517 315.376 6.36902 331.567 7.75145 341.168C7.52927 344.007 7.6527 352.028 7.18367 349.93C7.80082 358.791 6.73932 374.241 7.25772 387.47C7.01086 394.331 7.06024 400.823 7.10961 407.363C7.13429 410.695 7.13429 414.076 7.15898 417.507C7.20835 420.913 6.96149 424.739 7.20835 427.725C6.86275 426.466 6.81337 424.097 6.56651 423.554C6.29497 426.318 6.83806 429.157 7.82551 431.699C8.76358 434.216 9.99789 436.215 10.2694 437.696C11.7506 439.794 11.8987 439.227 11.1828 438.066C12.4171 439.918 13.9477 441.596 15.6757 443.027C16.6138 443.817 17.6259 444.508 18.6874 445.125C18.9343 445.298 19.2058 445.446 19.4774 445.57L20.0698 445.89C20.3167 446.014 20.5882 446.137 20.8598 446.261L24.0196 447.667L24.4146 447.84C24.4887 447.939 24.4393 448.112 24.464 448.26V450.876L24.4393 454.035L24.464 458.305C24.464 459.983 24.464 461.686 24.4886 463.389C28.8334 463.365 33.1782 463.315 37.5723 463.266L42.7317 463.241L43.6204 463.217C43.892 463.241 44.0648 463.562 44.2869 463.71L45.5953 464.895L46.5334 465.734L47.2493 466.277C49.1995 467.709 51.3472 468.844 53.6183 469.609C55.8647 470.374 58.2593 470.794 60.6538 470.843L68.8496 470.769C74.4287 470.72 79.9831 470.67 85.5128 470.621C109.631 471.312 86.9939 472.571 106.002 471.707C107.558 471.929 107.138 471.263 107.385 471.485C114.741 471.164 118.839 472.793 123.974 472.176C121.851 471.46 127.356 471.781 127.504 471.361C142.242 471.806 145.204 472.472 156.831 471.929L155.967 472.299C169.594 471.238 185.393 471.806 196.897 470.572C272.091 470.226 344.174 469.881 417.492 469.535C489.97 469.757 560.943 469.214 634.533 469.856C651.763 470.843 653.072 470.818 672.006 470.423C671.241 470.596 670.056 470.621 671.315 470.769C672.253 469.955 684.645 470.695 686.447 469.93C691.261 469.93 695.976 469.955 700.691 469.955C704.567 469.93 708.393 468.918 711.726 466.943C712.565 466.474 713.355 465.931 714.121 465.339L714.688 464.895L715.429 464.253C716.244 463.513 717.009 462.649 717.898 462.081C720.835 462.081 723.773 462.057 726.735 462.057C729.08 462.057 731.426 462.057 733.795 462.032H735.77L736.091 462.007C736.091 459.835 736.067 457.589 736.067 455.294V451.222L736.042 448.334C736.067 447.865 736.017 447.347 736.067 446.902L737.375 446.31L740.016 445.15C740.485 444.953 740.93 444.755 741.349 444.533L742.041 444.163C742.757 443.743 743.522 443.348 744.188 442.83C743.472 443.422 742.781 443.817 742.312 444.212C742.016 444.41 741.769 444.582 741.572 444.73C741.177 444.977 740.905 445.175 740.708 445.273C740.362 445.52 740.584 445.545 741.349 445.224C741.596 445.125 741.942 444.977 742.411 444.755C742.757 444.607 743.127 444.36 743.596 444.064C744.83 443.101 745.941 442.015 746.904 440.831L747.595 440.485C749.669 438.239 750.903 435.228 749.027 437.598C751.125 434.71 752.434 431.353 752.952 427.898C753.051 427.009 753.149 426.145 753.149 425.257C753.174 424.862 753.174 424.344 753.174 423.776L753.149 422.122L753.125 415.557C753.149 406.795 753.149 398.058 753.149 389.346C753.248 371.896 753.372 354.496 753.47 337.145C753.767 302.468 754.112 267.964 754.013 233.534C754.359 217.17 754.038 193.896 753.89 176.125C754.433 149.791 754.902 124.764 755.174 99.6137C755.297 87.051 755.371 74.4636 755.371 61.6541C755.322 58.4949 755.47 55.0889 755.149 52.4233C754.779 49.6097 753.939 46.8454 752.557 44.3279C749.866 39.2683 745.2 35.2206 739.72 33.2461C739.72 33.2461 740.115 33.2708 741.004 33.4188C741.893 33.5669 743.275 33.9371 745.176 34.801C747.027 35.7142 749.397 37.1951 751.767 39.8606C754.162 42.4768 756.482 46.4258 757.371 51.7076C758.062 55.0149 758.013 58.7664 758.185 62.5179C758.333 66.2942 758.408 70.1691 758.457 74.1428C758.58 82.0654 758.556 90.3089 758.506 98.6265C758.408 115.311 758.235 132.292 758.827 147.742C758.926 151.345 757.815 146.804 758.062 154.974C759.518 184.887 758.63 232.053 757.519 268.482L757.223 266.286C757 273.221 757.988 281.711 757.84 289.066C757.642 289.116 757.568 286.722 757.297 288.425C757.889 290.276 757.568 301.703 758.013 304.838C757.766 307.75 757.321 307.454 757.05 311.205L757.716 315.426C759.296 327.125 757.618 343.858 758.432 359.827C758.284 359.062 758.161 357.482 758.013 358.766C758.482 371.575 758.679 386.014 758.803 400.823C758.852 408.227 758.901 415.73 758.951 423.159C759.37 430.687 756.581 438.289 751.594 443.644Z" fill="#FAAE5D"/>
</g>
<defs>
<clipPath id="clip0">
<rect width="759" height="478" fill="white"/>
</clipPath>
</defs>
</svg>
