<svg width="37" height="38" fill="none" xmlns="http://www.w3.org/2000/svg"><path fill-rule="evenodd" clip-rule="evenodd" d="M36.54 22.083v-.031c.078-.486.15-.978.113-1.501-.019.037-.03.08-.042.122a1.693 1.693 0 00-.006-.307l-.013-.069.008-.09c.005-.406.01-.81.013-1.241-.013-.066-.023-.133-.044-.246a21.14 21.14 0 00-.625-3.517l-.095-.253a30.62 30.62 0 00-.997-2.86l-.14-.203c-.041-.103-.073-.185-.107-.264-.023-.156-.107-.312-.223-.478-.32-.603-.582-1.266-.987-1.689-.556-.69-1.176-1.582-1.842-2.248-.326-.349-.515-.708-.848-1.025-.323-.29-.378-.177-.842-.563-.5-.378-.982-.811-1.52-1.202l-.032.042c-.008-.026-.029-.066.032-.042l-.21-.148-.032.042c-.228-.158-.438-.306-.65-.454-.061-.024-.16-.066-.242-.098l-.076-.037-.047-.042c-.187-.148-.454-.238-.552-.365.124 0 .528.24.565.18-.746-.465-1.213-.648-1.53-.63-.147-.084-.355-.192-.34-.224.122-.1-.206-.211-.632-.357-.346-.113-.448-.081-.438.003a8.016 8.016 0 00-.233-.098.963.963 0 00-.255-.103l.034.03a1.892 1.892 0 00-.252-.109c-.3-.106-.772-.227-.614-.304.126-.053-.068-.14-.417-.248-.29-.082-.567-.212-.882-.18.349.111.753.312.622.386-.15-.026-.323-.071-.499-.114-.1-.095-.178-.187-.339-.285-.036-.05-.078-.093-.246-.135-.021-.116-.105-.235-.289-.349.165.011.344.03.52.048a5.447 5.447 0 011.535.489c.291.153.667.264 1.013.32.48.206.937.398 1.418.605 1.18.547 2.294 1.18 3.33 1.815l-.02-.01c.6.374 1.12.924 1.703 1.363.225.145.493.412.753.684l.273.261c.184.164.375.381.554.58.556.689 1.089 1.291 1.556 1.946l-.042-.103.024.037.018.066c.152.225.32.51.462.635l.079.11.066.117c.228.415.42.89.663 1.197.058.097.074.113.127.216.126.286.262.571.383.788.026.063.029.063.042.058.02.016.02-.008.008-.077-.155-.69-.468-1.382-.945-2.124-.121-.193-.292-.46-.423-.671-.821-1.517-1.874-2.603-3.024-3.538-.157-.159-.286-.283-.412-.346-.154-.13-.312-.257-.422-.299l-.396-.322c-.221-.19-.42-.365-.64-.552-.927-.809-2.004-1.42-3.111-1.919-.499-.237-1.05-.404-1.578-.684-.388-.22-.902-.428-.735-.169.027.058-.312-.042-.522-.108-.399-.114-.855-.278-1.286-.368a.558.558 0 01-.17-.042.803.803 0 00-.3-.063.543.543 0 01-.194-.04c-.373-.121-.75-.227-1.134-.31a3.03 3.03 0 00-.493-.105c-.024-.047-.095-.084-.297-.108a1.899 1.899 0 00-.275-.042l-.069.01-.023.003c.023-.003.047-.008.089-.013-.045-.043-.14-.066-.367-.07l-.024-.007v.005c-.024-.029-.116-.04-.278-.042a.499.499 0 01-.184.01 13.19 13.19 0 00-1.28.17 3.605 3.605 0 00-.736.02 19.2 19.2 0 00-3.05.442l.003.008.003.008-.006-.019c-.454-.005-1.028.251-1.543.368-.23.008-.525.108-.772.203a3.237 3.237 0 00-.595.18c-.27.1-.163.132-.32.211a.886.886 0 00-.263.175c-.07.055-.412.208-.326.243.04.029.113.034.287-.008.073.053.275.026.57-.056l.054-.034.003.005a.198.198 0 00-.058.03c.2.034.42.07.62.105.026.071.11.114.377.058-.144.09-.288.182-.42.283-.39.227-.918.41-1.136.705-.53.389-1.157.764-1.58 1.216l.034-.027c-.25.267-.659.513-.835.761l-.002-.002c-.11.116-.307.264-.415.412l-.037.058-.068.058-.727.716c-.32.256-.643.531-.892.901-.334.454-.977 1.165-1.341 1.739-.368.61-.935 1.196-1.134 1.838l.029-.026c-.016.037-.019.034-.019.034l-.01-.008A17.108 17.108 0 001.45 12.82c-.207.41-.372.87-.504 1.387-.036.122-.076.243-.11.365-.328.932-.596 1.931-.69 2.964-.066.537-.126 1.015-.032 1.456.014.08.008.122-.01.159-.042.119-.055.28-.058.48-.11.484.008 1.002.034 1.499l.013.018h.003-.003c-.002 0-.01-.003-.013-.018-.042.206-.013.528.045.803H.13c-.029.187.071.536.082.782a.358.358 0 01.02.159c-.023.108 0 .288.05.504.037.323.119.658.263.89.047.236.108.458.213.648.084.283.162.541.244.803.165.396.294.949.506 1.303l.192.48c.12.291.218.592.372.77.053.1.103.2.145.282.034.085.073.164.128.238l.121.214c.347.71.74 1.369 1.197 1.987.12.164.207.24.242.217.034-.024-.024-.151-.14-.315L2.69 29.194l-.367-.69c-.33-.441-.457-1.07-.709-1.525l.003.048c-.103-.272-.19-.505-.294-.777-.113-.222-.176-.555-.276-.782a15.021 15.021 0 00-.105-.367c.01.021.021.045.034.063l-.005.003c.029.053.047.087.079.14a3.882 3.882 0 01-.032-.15v.01-.019c0 .003 0 .006.003.008.008-.05-.013-.137-.016-.214.013-.11-.034-.3-.084-.494l-.01.003H.904l.016-.005a.773.773 0 00-.013-.164c.147.573.33 1.139.54 1.688.187.523.46 1.033.636 1.607.12.433.339.945.402.642.023-.059.189.25.29.446.203.365.41.806.652 1.176a.577.577 0 01.092.15.796.796 0 00.168.26c.034.031.07.087.107.166.53 1.046 1.184 2.037 2.179 2.827.131.119.286.278.38.399.155.254.43.513.69.719a19.276 19.276 0 002.465 1.857l.005-.008.006-.008-.01.016c.314.328.902.555 1.35.838.169.158.447.296.691.404.126.095.326.196.546.299.263.121.207.02.375.079a.87.87 0 00.307.063c.09.01.439.146.402.061-.005-.047-.055-.106-.207-.198-.016-.087-.176-.214-.441-.367l-.063-.016.002-.006c.021.008.042.019.06.019-.115-.167-.246-.352-.361-.515.036-.082-.008-.193-.373-.402-.034-.074-.11-.161-.142-.24.265.124.557.24.811.33.276.095.436.087.457.034.066-.058-.242-.171-.425-.267-.22-.11-.391-.235-.402-.3-.026-.09.294.047.454.081.557.138 1.263.502 1.895.587.294.066.667.243.924.208l-.018-.013.02.005-.002.008c.433.09.877.228 1.247.22-.04-.016-.076-.027-.095-.04l.021.005.074.037c.393.064.871.151 1.197.103l-.04-.013.04.005v.008c.635.03 1.291.204 1.994.07.554-.085 1.51-.13 2.171-.276.69-.169 1.501-.18 2.095-.494l-.04-.002c.037-.016.037-.011.037-.011l.003.013a16.694 16.694 0 003.81-1.532 12.648 12.648 0 002.279-1.382h.002c.03.032.103.016.247-.093l.07-.087.003.003-.073.084a.668.668 0 00.247-.052c-.181.142-.378.327-.557.417l.016-.013c-.194.108-.465.32-.654.396-.43.145-.873.566-1.349.785l-.393.195c-.265.088-.596.325-.885.407l-.367.15c-.48.23-.953.453-1.46.561l-.073.032-.058.013c-1.496.367-2.588.766-3.742 1.038 2.194-.23 4.328-.893 6.29-1.855l.431-.219c.362-.09.753-.343 1.121-.597l.598-.378c.2-.1.439-.285.633-.401.079-.064.129-.098.181-.13.194-.082.407-.275.627-.454.066-.05.147-.111.195-.15.084-.056.196-.114.262-.165.095-.092.186-.182.278-.275.058-.02.137-.076.265-.203l.021-.013-.002-.003c.036.005.107-.055.225-.169a.532.532 0 01.124-.137c.609-.716 1.136-1.525 1.625-2.325a7.38 7.38 0 00.495-.878c.14-.185.266-.388.34-.586.06-.085.12-.164.186-.24.377-.989.792-2.009.94-2.97.117-.44.361-.944.309-1.308.102-.653.283-1.364.262-1.985l-.002.066zM33.01 8.141l-.011.008s.005-.003 0-.024l.01.016zM10.036 1.678c-.005-.013-.032-.021.026-.053.018-.016.06-.024.079-.04-.053.045-.113.08-.105.093zm2.28 35.92c-.005.014.008.037-.055.016-.023 0-.06-.026-.083-.029.068.01.133.03.139.013zm23.087-18.857h-.008V18.7l.008.042zm-.115 2.508c.023-.4.057-.801-.006-1.16.077.32.032.74.006 1.16zm.029-7.57c-.019-.019-.058-.122-.082-.135a4.124 4.124 0 00-.037-.15c.045.102.095.226.118.285zm-.15 2.306l.008-.002c-.005.023-.013.087-.03.05 0 0 .014-.024.022-.048zm-.357 3.779h.005l-.005.02v-.02zm-.415-1.424c.005.079.032.118.021.18-.01.16-.04-.017-.063-.099.019-.002.037-.002.042-.081zm-.246 2.81h.013l-.008.04c-.008.021-.005-.04-.005-.04zm-3.785 9.827c.029-.055.06-.114.092-.169.018-.272.362-.756.622-1.31-.105.401-.378.863-.622 1.31-.003.024-.016.055-.014.074a.648.648 0 01-.078.095zm-23.292-.275c-.02-.013-.047-.042-.068-.05l-.002.003-.01-.014c-.043-.042-.03-.026-.043-.042l.003-.002s.015.013.04.042l.015.01.034.022c.01.013.021.02.031.031zm-3.183-.95l-.024-.03c.034.021.047.01.04-.03l-.011-.015.013.016c-.168-.325-.312-.758-.17-.716.17.246.351.602.561.848.095.14.202.299.31.454.165.407.197.487.113.608-.103-.177-.25-.357-.407-.573-.068-.198-.25-.402-.412-.618.01.037 0 .044-.013.055zm.501-5.938l.016-.003v.04l-.016-.037zm-.239 1.094c-.031-.03-.052-.037-.07-.04a.545.545 0 01-.093.251c.021-.105.016-.264.092-.25.01-.067.024-.135.021-.223.034.109.01.156.05.262zm-.58 3.22l-.018-.036c.05.092.131.214.189.277l-.013.008a4.99 4.99 0 01-.158-.248zm-.286-1.725c-.042-.07-.063-.105-.073-.124l-.035-.098c.03.059.074.148.108.222zm-.567-2.37c-.016.003-.042-.031-.068-.087l-.008-.04c.021.059.055.133.076.127zM1.07 22.517c-.013-.019-.026-.072-.026-.072h.005c.008.053.013.053.02.072zm.472 1.749c-.034.01-.015.124.024.272-.04-.087-.084-.174-.095-.293.008-.058.045-.01.071.02zm.87-1.017a1.107 1.107 0 01-.122-.373c.042.159.082.275.121.373zm.133.975c-.01-.125-.026-.225.018-.236-.036.008-.031.111-.018.236zm-1.72-5.74l-.002.038H.815v-.019l.003-.018h.008zm-.11.743v.019c-.002.005-.002.013-.005.02-.013.101-.02.183-.031.27-.003.027-.003.05-.005.077v-.04c.002-.013.002-.026.005-.04a1.49 1.49 0 01.031-.269.157.157 0 00.006-.037zm-.301 2.907c.015.002.031-.006.044-.021l.016.158c-.016-.053-.04-.095-.06-.137-.048-.006-.1-.088-.15-.172a.58.58 0 01.15.172zm2.354 4.975l.095.235c.028.103.073.2.107.254l-.003-.045c.035.1.066.18.103.256.136.288.388.71.22.653-.047-.019-.065-.006-.063.037-.05-.1-.102-.201-.147-.294l-.002.003c0-.137-.19-.38-.278-.595a2.41 2.41 0 00-.166-.536c.06.069.105.071.134.032zM7.395 6.61c.003-.003.003-.006.006-.008 0 .002-.003.005-.006.008zm12.3-3.818l-.003.024c-.003.02-.097.005-.1.018.003-.021.1-.021.103-.042zm-1.203-.167c-.039-.005 0-.002-.018-.005h-.097l.04-.005a1.73 1.73 0 01.33-.016c-.06.018-.213.008-.255.026zm.255.183c0 .002-.021.005-.06 0l-.019.002-.04.01c-.015 0-.028.003-.041.003.023-.005.066-.002.084-.01v-.005l.018.002.058-.002zM31.7 26.242a.21.21 0 01.055-.098l.01.006c-.02.032-.07.15-.065.092zm.042.127l-.016.03.003-.035c-.006.005-.01.013-.016.018v-.013c.005.003.013-.008.02-.021l-.007.013.016.008zm1.863-5.35l-.02.15c0-.076-.014-.076-.017-.098.016-.055.027-.034.037-.052zm-.354-9.198c.005.008.003.005.01.024l-.01-.019v-.005a.415.415 0 01-.024-.05l-.013-.06a.512.512 0 00.037.11zm-.081-1.794l.007.013a.059.059 0 00-.007-.013l-.003-.002-.01-.019s.007.008.013.021zm-.252-.227l-.008.005-.01-.018c.015.016.018.013.018.013zm-5.452-4.85a2.88 2.88 0 00-.346-.177c.081.027.18.061.346.177zm-1.09-.517c.022 0 .048.005.085.018l.034.024a.585.585 0 00-.118-.042zm.119-.077c.018-.03-.055-.098-.152-.177.094.08.173.14.152.177zm-2.07-1.155c.036.019.073.035.091.045l-.23-.079c.08.018.117.029.138.034zm-1.838-1.12c.081.019.163.037.286.063 0 0 .021.006.04.014-.1-.03-.245-.058-.329-.064l.003-.013zM19.138.164c-.018.005-.029.01-.06.016V.172l.06-.008zm-3.084.103l.042.003-.176.007.134-.01zM3.637 9.3c0 .018-.003.044-.003.068v.003a.134.134 0 01.003-.071zm-.026.108c0 .002-.003.002-.003.005-.021.008-.047.024-.071.034.029-.018.053-.026.074-.04zM.193 20.643c-.008.027-.016.05-.034.03l-.003-.04c.019.042.03.032.037.01zm.428 3.404c0 .002.003.002.003.005H.62v-.005zm1.898 3.736c-.05-.122-.097-.24-.145-.362.021.029.04.058.06.084.014.09.077.227.135.349-.016-.021-.032-.048-.05-.071zm1.239 2.388a5.604 5.604 0 01-.743-1.44 1.705 1.705 0 00-.069-.182c.056.09.108.18.137.262.042.137.181.33.283.496.024.032.058.056.087.085.386.526.73 1.078 1.226 1.55l-.034.043c-.142.106-.525-.37-.887-.814zm1.078-3.527c.097-.005.124-.137.079-.378l.084.423c.066.261-.076.06-.163-.045zm.215 3.279c.021.01-.023-.082.032-.021.055.06.013.042.04.097a1.153 1.153 0 01-.072-.076zm1.218.013l.019-.016c.015-.013.073.066.084.058-.016.013-.087-.055-.103-.042zm.536.808c.052.032.155.148.197.164.026.032-.003.003.01.016l.068.069-.031-.024a1.949 1.949 0 01-.244-.225zm.265 3.57l-.029-.032c.031.03.097.088.129.12l-.1-.088zM7.794 34c.003-.006-.005-.016-.005-.021-.123-.138-.194-.254-.312-.389l-.037-.024s.02.008.005-.005l.034.03c.289.232.328.324.313.388.023.026.036.05.065.079-.031-.03-.031-.03-.063-.058zm1.3-2.193c.073.029.091.034.144.055-.026.003.008.048.013.069-.055-.048-.108-.072-.158-.124zm.944 2.137l.006-.008.013.016-.019-.008zm1.937.153c.087.038.108.03.166.045-.055-.016-.069.008-.166-.045zm.948.502c.018.008.018.006.018.006v.002l-.018-.008c-.013-.002-.021-.002-.034-.005-.076.037-.229.003-.4-.06a.97.97 0 01-.243-.101c-.01-.005-.016-.003-.027-.01l-.118-.056.145.063c.081.037.165.072.244.1.136.035.252.03.399.062.005-.003.013 0 .018-.003.008 0-.005-.008.003-.008a6.63 6.63 0 01-.152-.172l-.024-.016.016.008c-.008-.01-.032-.029-.042-.042a4.205 4.205 0 01-.491-.367l-.005.008-.405-.254.357.22a.312.312 0 00.05.026c.257.137.407.267.491.367.029.019.047.04.076.058l-.034-.016.008.008c.123.08.244.156.152.172a.13.13 0 00.016.018zm.47.082l-.202-.087c.068.027.15.072.241.095a.214.214 0 00-.04-.008zm1.042 1.364l.002-.006v-.002l-.002.008zm.992-.473c.02-.01-.047-.032-.045-.045a.35.35 0 00.1.06l-.055-.015zm1.375.322v-.005l.037.016-.037-.01zm.9.13a2.63 2.63 0 00-.299-.135l.352.021c.07.04.12.08-.053.114zm1.433-1.144c.019.013.069.023.14.04 0 0 .015.012.05.018v.005a.154.154 0 01-.05-.024l-.171-.034c.032 0 .032-.005.032-.005zm.184.277h.018a.435.435 0 01-.123.037c.053-.01.068-.024.105-.037zm2.945 1.543c-.003.003-.008.005-.01.01-.008.02-.027.038-.058.056.016-.013.04-.037.058-.055a.052.052 0 00.005-.032c.002.024.063.037.107.053-.039-.01-.063-.03-.102-.032zm1.543-1.815c-.07.024-.162.063-.173.026-.034.01-.003-.013-.055-.002l.008-.008.042-.016.008.026.107-.013c.019-.005.04-.008.063-.013.014-.003.027-.01.037-.013v.005c-.005 0-.024.005-.037.008zm3.567-1.646c-.241.116-.454.203-.535.158-.118-.037.126-.174.328-.306.087-.058.2-.143.134-.153-.142.029-.336.18-.441.166.178-.14.412-.22.6-.373-.044.011-.073.016-.086.008l-.023.008.015-.01c0 .002.006 0 .008.002.042-.013.079-.023.087-.008a.334.334 0 01.118-.07c.247-.096.504-.334.764-.447.36-.18.638-.447.934-.74l.016-.01.026-.025-.013.011c.218-.304-.07-.055-.25.077l-.078.063-.047.026c-.145.038-.397.273-.541.304.612-.491 1.241-.988 1.777-1.567l.118-.116c-.005.01-.01.019-.01.024-.037.071.026.024.073-.04.037-.044.068-.095.068-.095-.002-.002-.008-.005-.01-.008.1-.103.184-.2.186-.277a.824.824 0 01.14-.317c.141-.069.351-.278.445-.256-.08.134-.118.208-.11.261-.302.418-.383.629-.551.933-.163.282-.213.48-.486.83a11.6 11.6 0 00-.409.494c-.037.026-.07.052-.108.076-.674.51-1.401.954-2.139 1.377zm.79-.148l.079-.048c.024-.005.047-.02.07-.034a.275.275 0 01.093-.042c-.032.008-.06.026-.092.042a.755.755 0 01-.15.082z" fill="#FAAE5D"/><g clip-path="url(#clip0)"><path d="M13.56 13.09a1.081 1.081 0 00-1.53-.01l-2.709 2.677a1.081 1.081 0 00-.009 1.53l2.713 2.745a1.078 1.078 0 001.53.01c.425-.42.429-1.105.009-1.53l-.88-.89h8.829a3.328 3.328 0 013.324 3.324v.089c0 .888-.346 1.722-.974 2.35a1.082 1.082 0 101.53 1.53A5.451 5.451 0 0027 21.035v-.09a5.45 5.45 0 00-1.607-3.88 5.452 5.452 0 00-3.88-1.606H12.7l.85-.84c.424-.42.428-1.104.009-1.53z" fill="#fff"/></g><defs><clipPath id="clip0"><path fill="#fff" transform="translate(9 12)" d="M0 0h18v14H0z"/></clipPath></defs></svg>