<svg width="268" height="38" fill="none" xmlns="http://www.w3.org/2000/svg"><path d="M267.248 36.797H27.192L0 18.852l27.192-17.67h240.056v35.615z" fill="#FAAE5D"/><path d="M266.662 37.06c.232.17.313-.02-.15-.58l-.599-.274.749.855zm-2.341-4.095c-.64-.612-1.471-1.277-1.416-.718.776.539.776.75 1.647 1.32.463.56.653 1.045.476.992.232.169.6.918 1.022 1.14-.327-.844-1.022-1.794-1.947-2.692-.096-.232.136-.063.218-.042zM232.137.813l.531.031a3.726 3.726 0 00-.531-.031zM180.458.665c.395-.01.559-.032.572-.053-.354.01-.667.032-.572.053zM171.636.38c.191.01.354.01.518.021a1.796 1.796 0 00-.518-.021zm60.501.433l-1.375-.085c-.095.085.708.064 1.375.085zm25.717 24.753c.163.19.313.337.449.464-.136-.158-.258-.306-.381-.454-.027 0-.041 0-.068-.01zM254.913.602h.422c.123-.032.245-.064.354-.106l-.776.106zm10.156 4.254c.232-.254.068-.465.041-.613-.027.19-.136.412-.313.644.041.021.136.01.272-.031zm-8.182 17.638l.286.317a9.641 9.641 0 01-.286-.317zM242.402.549a.397.397 0 00-.163-.085c.013.032.068.064.163.085zm4.574 35.203c-.013.02 0 .02 0 .042.109-.021.136-.042 0-.042zm20.272 1.108l-.286.01c-.027.043-.055.085-.055.127l.341-.137zM155.49.095h.068c.422-.021.177-.021-.068 0zM36.722 14.788c-.667-1.213 1.729 1.668.626-.116.04.2-1.58-1.33-.626.116zM257.65 25.249l-.368-.475c.164.222.272.37.368.475zM37.361 14.672l-.108-.18c.04.075.067.117.108.18zM118.283.222c.082.042.218.074.381.095-.013-.021-.109-.043-.381-.095zm27.718.316l-.68-.031c.258.031.476.031.68.031zm-42.122 0c-.367-.02-.503-.052-1.007-.02.041.01.095.02.15.03.19-.03.435-.041.857-.01zm-14.975 0c.082.01.19.032.272.043.15 0 .327-.011.477-.011l-.749-.032zm112.547 35.319c.327.064.531.127.694.2-.231-.157 1.975-.21-.694-.2z" fill="#FAAE5D"/><path d="M257.99 25.502c-.109-.031-.204-.105-.327-.253.096.116.177.222.259.327.055.021.095.01.068-.074zM103.281 2.29l-2.383-.031a79.78 79.78 0 002.383.032zm-9.285 33.599l.544-.032c-.218 0-.408.01-.544.032zM93.832 2.29a12.876 12.876 0 00-1.334-.158c-.095.021-.218.032-.272.053l1.606.106z" fill="#FAAE5D"/><path d="M217.829 35.53c-2.274-.01-1.062.285-1.552.454-2.709.084-1.253-.211-2.178-.37-1.689.074-2.982.349-4.248.338-.095-.052-.34-.063-.054-.126-1.784.232-5.31.01-7.393.306a.86.86 0 01-.272-.074c.34.148.395.295.313.401-1.021 0-1.892.19-2.274-.01.627.01.681-.075.967-.127l-1.062.084c-.953-.274 1.457-.095 1.457-.295-2.083.084-4.493.316-6.086.242-.326-.264 3.717-.095 1.593-.327l2.464.106c-1.878-.422 1.498.031-.231-.422-3.24-.074-3.621.137-6.862.063-.721.148.245.221-.49.37-4.601.263-3.621-.676-6.997-.317-.872.18-1.212.517-3.622.337l.817-.306c-3.131-.031-1.797.433-5.078.233.586-.117 2.464-.106 1.988-.138-2.124-.242-1.511.17-3.145.17l-.34-.275c-3.336.042-7.025.232-10.728.285.204-.085.844-.17-.027-.243-4.67.137-9.966-.032-14.458-.19l-1.716.232c-.395 0-.749-.105-.313-.148-1.756-.084-.095.148-.939.243-.994.021-1.321-.137-.681-.2-3.09.2-8.822.422-12.076.18l.64-.075c-2.546-.095-2.872.475-5.228.264l.45-.042c-5.514-.106-11.599.116-15.806-.243-.803.338-5.459-.148-5.813.317-3.145-.232-2.247-.317-6.685-.475-1.184-.021-1.77.295-3.226.337l-.041-.242-1.988.253-1.062-.296-1.375.064c.545.01 1.157.105 1.076.18-2.151.105-5.228-.17-5.282-.296l-5.079.21c.11-.094.967-.126 1.634-.19-2.709.254-.49-.252-2.968-.03.327.052-.177.147-.231.19-1.239-.149-4.057-.149-6.14-.085l.395-.17c-3.758-.041-7.937.085-12.157.075 1.51.074 1.17.37-.069.4l-.422-.263c-.803.158 1.294.095-.354.295-1.579-.031-1.062-.295-.15-.38l-1.919.085c-.109-.074.34-.116.45-.211-.79.158-3.309-.264-4.453.021l-.108-.074c-4.22 0-6.14.084-9.571.095-.068.222-1.416.169-2.437.348-2.532-.073-5.337-.242-8.372-.232-2.138.106-.627.19-1.593.317-.164-.2-3.2-.18-1.62-.327-1.58.02-2.669.031-3.799.042-1.524.021-1.375.053-2.246.105 0-.02.068-.147.163-.316-.245.158-.49.4-.558.338.204-.317.694-.708.762-.623l-.013.063.068-.137c.027-.042.054-.085.15-.222.163-.221.34-.454.517-.686.354-.454.735-.918 1.13-1.383.79-.929 1.634-1.857 2.45-2.765 1.648-1.826 3.2-3.568 4.044-5.035l-.095.169 2-2.945c1.076-1.288-.448.865.45-.043.381-.601.763-1.15 1.13-1.657.19-.253.368-.496.545-.728.313-.39.612-.77.898-1.14-.708-.908-1.361-1.752-2.028-2.607a30.876 30.876 0 00-1.838-2.154c-.899-2.259-5.568-6.86-7.256-9.68l-.028.222c-.694-.601-.571-.865-.925-1.372-.069.127.449.802.027.422-.45-.527-.899-1.066-1.362-1.604l3.431.032c1.852.031 3.73.074 5.596.105 3.743.074 7.487.159 11.177.232 3.267.043 1.851-.728 5.963-.39l-1.144.253c6.59-.316 13.478.01 19.917-.253-.381.063-.395.137-1.02.137 1.36.19 5.036.01 5.064-.148 1.007.021.231.138.857.222 1.362.116 3.431-.243 4.152-.053.123.032-.38.064-.64.074.886-.084 4.14.032 3.295-.19 2.424.106 4.629-.095 6.562.032 1.253-.243 4.139.116 4.547-.232-.177.358 4.248.285 5.773.116-.518.105 1.334.116.735.264 1.742 0 3.349-.074 3.036-.254 3.213.433 6.466-.348 8.277.2a787.7 787.7 0 0114.662-.41c-.163.358-5.159.03-4.955.41 4.424-.147 6.984-.453 11.368-.369 1.143.053-.64.159-1.035.211 4.424-.147 8.549.032 12.484-.158-.014.032-.436.074-.831.095.776-.01 1.811.053 1.716-.105l-.763.042c-1.238-.232 3.077-.496 3.213-.612-1.32.464 3.894.116 1.797.707.518-.032 1.158-.106 1.035-.211.762.031.994.095.231.221 2.778-.084 1.798-.264 4.303-.253-.014.074-.518.106-.776.2 1.279-.147 2.559-.306 4.683-.242-.123.042.122.105-.518.105 3.649-.02 6.222-.411 10.238-.264-1.184.338 1.362.117 1.579.412l2.151-.084-.871-.148c1.892 0 3.553-.211 5.173-.116l-1.402.126 3.54-.052-2.001-.116c1.905-.148-.205-.37 2.314-.296-.517.032 1.892 0 2.872.18.94-.096 1.893-.19 3.295-.117.368.095-.286.328-.054.39.925-.242 4.424-.062 5.581-.326-.394.063-.408.221-.286.253l.776-.2c.872.063 1.008.094.858.221 2.628.032-.83-.38 2.287-.211-.245.021-.122.042-.64.074 3.132.084 6.059-.127 8.945-.032.844.296-2.519.074-1.539.327 4.153-.052 8.605-.358 12.621-.285l-.749-.031c.558-.422 2.995.21 5.023.01-.503.032-.653.233-.517.19 2.75.064 5.623-.105 9.802-.232l-.517.106c1.62.095 4.275.052 6.031.105.517-.105 1.525-.095.912-.243 5.405.613 10.306-.327 15.098.18-.572 0-1.361.095-.912.095l4.084-.095c-.327-.18-.531-.106-1.389-.253.518-.106 1.675-.19 2.682-.19-1.838.116.014.295.804.4-.137-.052.136-.115.068-.179 2.137.327.354-.37 3.267-.148l-.15.095c1.089-.052 2.097-.179 3.268-.147.49.21-1.158.095-1.239.274.817-.01 1.661-.105 2.341-.18.722-.073 1.648-.115 2.07-.01l-.014.01v-.01c-.749.063-1.606.063-2.205.116.857.2.939.2 1.415.211-.068.074-.149.159-.245.264l.055-.053-1.13 1.13c.177-.169.245-.2.354-.296.041.2-.259.686-.49 1.024-.245.37-.545.729-.858 1.098-.626.739-1.334 1.52-1.906 2.523 1.13-1.942.041-.401-.109-.665-.463.422-1.143 1.076-1.048.844-.517.96-1.375 1.34-2.097 2.692-.122.01-.789.908-.83.602-.885 1.14.367-.19.395-.043-.586.93-1.525 1.88-2.532 2.945a46.81 46.81 0 00-1.525 1.668c-.245.296-.49.591-.735.908-.273.37-.531.739-.804 1.119-.109.148-.217.295-.286.38.273.327.531.623.763.897.177.19.34.37.504.538.313.328.599.602.871.887.558.56 1.103 1.108 1.892 2.048.381.75-.735-.422-.735-.422.708 1.16 1.348 1.984 2.233 2.987-.232-.18-.136.074.013.433.654.823.736.422 1.43 1.583-.232-.148-.572-.317-.967-.686.817.95 1.702 1.858 2.546 2.84.055.337-.694-.518-1.062-.835.926 1.12 2.369 2.914 2.873 3.167l-.463-.77c.327.411-.041.306-.313.02-.926-.897-.98-1.456-.94-1.551l.599.707c-.054-.97-2.273-2.892-3.335-4.37l.83.444-1.429-1.362c-.15-.359-.095-.676.49.021-.599-1.13-.83-.876-1.293-1.868-.041-.116.013-.074.095.01l-.871-.982c.231.17.136-.284.544.37-1.157-1.921-2.518-2.882-2.723-3.642l.123.116c-.204-.232-.354-.411-.463-.538.354-.507.272-.517.163-.528-.108-.02-.19-.095.382-.981l1.701-.919-.054-.38c.231-.253.681-.739.694-.59.627-1.035-.245.105.055-.529 1.279-1.097 2.777-3.43 3.417-3.493.177-.539-1.157 1.087-.177-.285.762-.148 1.212-1.552 2.369-2.566-.068.465-1.089 1.457.068.444.19-.876 1.947-2.132 2.682-3.114-.136-.095.245-.591.803-1.256.558-.676 1.579-1.826 2.26-2.702-.123 0-.245.01-.368.01.205-.053-1.116-.084-2.995-.127-1.606-.042-3.254-.084-4.424-.137l.068-.053c-.436.296-2.791.233-4.506.296.068-.169.381-.243 1.306-.317h-1.606c-.381.095-.885.138-1.92.18l.409-.222c-2.138.01-4.316.253-7.066.106-.15.2 2.192.56-.721.696-.109-.105-.218-.295.544-.337-.245.01-.885.095-1.388.042l1.157-.18c-1.253-.084-.654.159-1.661.138.013-.159-.749-.117-.599-.233.259-.01.871.064 1.252 0-1.13-.031-2.491-.116-2.954-.242.095.084 0 .21-.83.232-2.138.01-.736-.19-1.974-.264-.518.105-1.879 0-1.92.232-.626 0-.749-.105-.98-.169-1.103.106-5.174.032-3.921.275l.286.02c-.055 0-.109.011-.177.011h.014-.014c-3.635.233-7.542-.137-11.136-.031V.813c-2.151.084-4.793.053-6.317.221-.64 0-1.498-.147-1.226-.232-1.647.064-1.824.148-4.206.021 1.647-.137-.572-.116 1.688-.095-2.138-.063-2.614-.19-4.915.021.776-.2-1.606-.253-2.627-.19l1.497.148c-1.143.032-2.137.01-3.158-.01l.544-.264c-4.37-.317-7.882.549-11.204.01-1.157.18 2.369.127 1.334.349-2.015-.032-4.111-.412-4.737-.412-2.75-.148-2.574.38-5.446.285.368.095.721.348-1.443.433-2.015-.032-2.478-.39-1.198-.465.476-.01.721.021.694.053.654-.032 1.498-.074.708-.18l-.259.096c-.993-.095-3.771-.085-3.117-.243-1.525.084-.654.158.476.2-2.586-.137-4.029 0-6.684-.095.422.053.817.159.395.159-3.894-.116-1.716.18-4.357.221-1.497-.147.531-.337-2.124-.221-1.62-.095-.34-.254.3-.327-2.423.179-4.52-.117-5.909-.148l1.28-.148c-.762.042-1.389.042-2.028.042l.721.19c-.749-.031-1.389-.031-1.375-.116-.776.127.586.317-.939.486-.994-.095-3.036.105-3.39-.148 3.145.084-.341-.253 2.314-.296-.517.032-1.143.032-1.892 0-.109-.031.109-.052.313-.063-3.009-.222-1.375.285-4.493.274.395-.137-.721-.263-1.225-.232 1.253 0 .599.232-.544.338-2.002-.106-2.165.084-3.213.074l1.198.053c-.409.137-1.403.126-2.791.169-.123-.106 1.266-.074.762-.127-1.538.243-3.485-.253-5.65-.085-.993-.095-.095-.263-.966-.327-2.41.18-2.614-.19-5.146-.042.735.19.857.148-.926.327l4.166-.148-2.682.275c1.252 0 2.655-.116 3.417-.085-1.28.159-1.144.106-.545.264-1.729-.285-3.417.17-5.404-.02l.054-.465c-2.995-.211-5.323.243-9.203.126l1.253.085c-.518.19-2.397.021-3.663.105.123-.158-.667-.21-1.211-.306.068.116-2.846-.01-3.2.306l-1.729-.21c-3.144-.085-3.58.443-6.602.39.912-.169-.463-.285 1.565-.401-1.007 0-1.919-.032-1.933.074-.585-.095-2.791.21-3.717.063-.435.053-.571.211-1.701.2-.123-.031 0-.073 0-.073 0 .074-1.77.105-.776.274-3.104-.485-8.672.032-11.382-.38-2.205.053-4.846.106-6.847.116.122-.042 0-.074.38-.063-2.75-.148-1.687.454-4.832.285-1.607-.253 1.66-.137.667-.232-.436-.518-3.785.074-5.895-.233l.517-.031c-1.606-.18-3.934.19-6.562.158 0 0 .123-.042.014-.074-1.797.264-5.214.349-7.746.422.79-.2 1.157-.105.667-.306-1.13.032.326.328-1.934.39-.735-.105-2.368-.21-2.586-.421l2.137-.01c-1.089-.286-2.763.01-3.893-.043l.15-.127C50.13.464 50.09.771 46.564.75l.367.095c-1.92.307-1.62-.168-3.54.053l-.585-.316c-1.266.073-4.452.306-6.725.358C37.375.707 40.043.591 41.69.454c-1.253 0-4.275.021-4.928.18.503-.032 1.143-.106 1.647-.064-1.539.243-3.567.359-6.072.359.15-.2-.504-.285-1.511-.327-.273-.01-.572-.01-.885-.021-.422 0-.872-.011-1.334-.011-.94-.01-3.655 2.618-4.608 2.618.504.644 2.702-1.372 3.096-.802.205.285.382.548.532.802.081.126.15.243.217.359a.635.635 0 01.082.21c2.587 2.798 4.547 5.849 7.324 9.226-.449-1.456.817.982 1.171.518.667.78.899 1.087.926 1.171l1.606 2.555c.3.644-.721-.697-.776-.57 1.348 1.752.354.834 1.144 2.047 0-.116.095-.084.259.043.095.052.122.042.176.105-.013.021-.027.043-.054.053l-.027.032-.014.01-.081.095.095-.084.027-.01.068-.022c.041-.02.096-.042.15-.074a.351.351 0 00-.014-.2c.096.063.177.137.232.2-.041.074-.11.148-.164.211-.136.148-.245.275-.354.39-.258.265-.49.465-.735.687-.476.443-.994.94-1.742 2.111l.449-.855c-.899 1.31-3.676 4.645-4.234 6.08-.232.19-.613.422-.218-.158-1.211 1.467-2.41 3.177-3.567 4.792a70.256 70.256 0 01-1.702 2.312c-.884 1.14-1.487-1.435-2.372-.422 2.662-6.323 2.742-4.9.5 2.5l-.755-4.39-.745-4.634c-.055.064 2.097-5.481 2.597 2.024 1.47-.053.503 8.046 2.028 8.152-.109.053-.667.116.027.126.204-.01.545-.031.994-.052.245-.021.558-.043.871-.064a17.458 17.458 0 011.947-.031l-.966.137c4.438.158 6.82-.327 10.537-.401-.014.348 3.485.464 5.228.517l-.055.053c5.173.042 8.781-.285 13.573-.422 2.968.38 10.075.158 14.853.369-.735-.063.123-.275.967-.306 1.116.074 3.104-.243 2.927.074l-.395-.01c.844.316 3.145.231 4.956.242l.299-.422c4.71.612 12.334-.222 14.907.316 1.13-.105 2.546-.105 3.676-.21l-.054.221c3.144.053 4.724.084 8.604.032l-.804.18c2.192.01 2.778-.645 4.793-.655l.612.337c3.826 0 7.706.285 11.49-.01-.068.053-.177.148-.789.158 1.797.01 6.97.222 6.317-.232.041.296 3.948.032 6.017-.106l-.327.222c1.743-.285 1.797-.359 4.234-.433.572.032.504.18-.258.116 1.919.116 1.497-.21 3.839-.095l-.871.138c1.974.02 1.824-.064 2.913-.222 1.239-.084 3.757.053 4.043.253.273-.126 1.348-.285 2.519-.221.163.074-.272.126-.477.147 3.309.148 4.929-.253 7.202-.042.041.074.191.106.381.127-2.627-.01-4.751-.021-4.547-.032 0 .2 2.124.243.436.517 1.702-.158 4.615-.485 6.698-.39.095.021.204.042.272.074l-.217.02c.476.022.912 0 1.306-.03.668.03 1.076.063 1.716.063.245.168 2.437.095 3.499.095-.082-.222 1.293-.19 0-.37.163.021-.205.032-.899.032-.163.01-.34.01-.449.02.027-.01.041-.01.068-.02-.694 0-1.607.01-2.628.01.831-.116 1.716-.21 2.887-.084a31.874 31.874 0 011.484-.359c1.443.306 4.247.475 4.628.665 3.24-.127 7.624-.085 9.653-.496.925-.053 1.062.116 1.402.19-.531.042-1.157.032-1.443.095 1.838-.106 5.445-.042 5.881-.338 2.314.127-1.307.264 1.879.222l-.436.084c6.263.465 10.183-.75 17.127-.148-.477-.031-.722-.052-.817-.105 7.923.264 16.323-.243 24.137.169 2.219.084 2.464-.106 3.812-.243l.477.243 2.314-.275c3.281-.2 5.691.591 9.857.2l-.531-.157c1.497.031 4.737-.096 4.479.095.149-.032.49-.17 1.075-.085l.041.127 3.676-.211c2.845.095-.449.496 3.703.517 1.538-.053 4.397-.37 3.812-.444-.626-.01-1.593-.073-1.634-.2l1.416-.063c.259-.37 1.348-.75-2.124-1.003l-2.409.221-.776-.179 2.028-.01c-1.157-.17-1.879-.022-2.696.084-.19-.095-.531-.158-1.007-.2l-2.369.348c-.286-.148 1.062-.285-.531-.37-1.116.159 1.062.328-.776.433-1.157-.169-.817-.306-2.178-.158-.191-.095.095-.159.64-.2-1.212.115-3.199.052-3.812.242-1.198-.211-4.071.053-3.962-.296-.381.085-2.124.275-3.24.285 2.029-.422-4.152-.02-3.621-.475-1.498.38-5.419.17-8.073.38.149-.031.435-.095.68-.073-1.497-.032-1.933-.148-2.886-.212-.19.306-2.518.38-3.771.57-1.838-.295 1.116-.369.531-.654.095.253-3.186.253-2.559.464-1.403-.19-1.212-.095-1.934-.348-.245.39-1.307.063-2.464.306-2.028-.19-.517-.359-2.75-.243-1.075-.116.899-.253.899-.253zm-52.972.676c.463-.01.844-.01 1.089-.022-.218.011-.531.011-1.089.022zm-4.452 0c.544 0 1.212.01 1.933.01.15.074-.014.158-.463.148.245-.042-.803-.095-1.47-.158zm9.421 1.54c-.708.032-.94-.01-1.035-.052.327-.01.722-.01 1.239-.032l.082-.031a.58.58 0 01-.286.116z" fill="#FAAE5D"/><path d="M171.092 37.462c.095-.01.163-.01.286-.021-.15-.021-.286-.032-.422-.053-.082.021-.177.053-.245.074h.381zM232.763.844h-.095c.082.011.15.022.191.032-.055-.01-.055-.021-.096-.032zM98.951 35.783v.053l.395-.042-.395-.01zM257.282 1.615c.041.021.136.042.327.053a2.036 2.036 0 00-.327-.053zm8.591.295l-.64.602a8.57 8.57 0 00.64-.601zm-4.098 4.603a.26.26 0 00.013.158l.014-.01-.027-.148zM146.559 2.027c-.108 0-.217.01-.313.01-.735.053-.245.032.313-.01zm38.528-.517c-.408.042-.817.084-1.239.105.681.021 1.212.021 1.239-.105zm-3.036.105c.681.042 1.253.032 1.797 0-.572-.01-1.225-.032-1.797 0zm79.411 28.838l.19.264c.014-.01.041 0 .068.01l-.258-.274zm.258.274l.245.275c-.095-.127-.19-.243-.245-.275zm.763.866l-.518-.591c.164.221.354.485.518.59zm-6.304-8.423l-.149-.043a.189.189 0 00.149.043zm-1.674-2.185c.368.538.79 1.403 1.389 2.11l.122.032c-.381-.285-.98-1.71-1.511-2.142zm4.139-9.036l-1.58 1.742c.354-.264.831-.602.164.21 2.178-2.1-.613.35 1.416-1.952zm4.833-5.436c-.777.97.149.053.149.137.436-.654.545-.813-.149-.137zM213.568.665l.149-.2c-1.143.031-.013.084-.149.2zM201.805 1.72l1.116.117.518-.18-1.634.064zM194.862.274l.504-.031-1.906.074 1.402-.043zM91.572.348l.34.254c.763-.053.926-.328-.34-.254zM46.973.602c-.49-.127-1.743-.2-2.519-.085 1.008.021 2.015.116 2.519.085zM87.12 37.778l-.898.085 1.688-.063-.79-.022z" fill="#FAAE5D"/></svg>