<svg width="148" height="148" viewBox="0 0 148 148" fill="none" xmlns="http://www.w3.org/2000/svg">
<path d="M143.768 20.2329C141.591 18.0519 138.058 18.0482 135.881 20.2237L68.9651 86.963L44.822 60.7413C42.7358 58.4767 39.2087 58.3299 36.9404 60.4158C34.6739 62.5019 34.5288 66.0308 36.6149 68.2974L64.6904 98.788C65.7186 99.9055 67.1576 100.554 68.6748 100.586C68.7156 100.588 68.7549 100.588 68.7939 100.588C70.2684 100.588 71.6869 100.002 72.7318 98.9608L143.757 28.1217C145.94 25.9465 145.944 22.4139 143.768 20.2329Z" fill="white"/>
<path d="M142.422 68.422C139.341 68.422 136.844 70.9189 136.844 74C136.844 108.654 108.654 136.844 74 136.844C39.3483 136.844 11.1558 108.654 11.1558 74C11.1558 39.3483 39.3483 11.1558 74 11.1558C77.0808 11.1558 79.578 8.65887 79.578 5.57804C79.578 2.49692 77.0808 0 74 0C33.1959 0 0 33.1959 0 74C0 114.802 33.1959 148 74 148C114.802 148 148 114.802 148 74C148 70.9192 145.503 68.422 142.422 68.422Z" fill="white"/>
</svg>
