<svg width="35" height="36" viewBox="0 0 35 36" fill="none" xmlns="http://www.w3.org/2000/svg">
<path fill-rule="evenodd" clip-rule="evenodd" d="M34.8827 20.9262C34.8827 20.9162 34.8827 20.9062 34.8827 20.8962C34.9579 20.4355 35.0256 19.9698 34.9905 19.4741C34.9729 19.5091 34.9629 19.5492 34.9504 19.5893C34.9554 19.4891 34.9579 19.3864 34.9454 19.2988L34.9328 19.2337L34.9404 19.1486C34.9454 18.763 34.9504 18.3799 34.9529 17.9718C34.9404 17.9092 34.9303 17.8466 34.9103 17.739C34.8051 16.6348 34.6096 15.4831 34.3139 14.4065C34.2839 14.3239 34.2463 14.2287 34.2237 14.1662C33.9506 13.2373 33.6474 12.391 33.2716 11.4571C33.2365 11.4045 33.1739 11.3169 33.1388 11.2643C33.0987 11.1667 33.0686 11.0891 33.0361 11.0139C33.0135 10.8662 32.9333 10.7185 32.8231 10.5608C32.5174 9.98992 32.2668 9.36148 31.881 8.96088C31.3498 8.30741 30.7584 7.46114 30.122 6.8302C29.8113 6.49971 29.6309 6.1592 29.3127 5.85875C29.0045 5.58334 28.9519 5.691 28.5084 5.32545C28.0323 4.96742 27.5712 4.5568 27.0576 4.18625L27.0275 4.22631C27.02 4.20127 26.9999 4.16372 27.0576 4.18625L26.8571 4.04604L26.8271 4.0861C26.6091 3.93588 26.4086 3.79567 26.2057 3.65546C26.148 3.63293 26.0528 3.59287 25.9751 3.56282L25.9025 3.52777L25.8574 3.48771C25.6795 3.3475 25.4239 3.26237 25.3312 3.14219C25.449 3.14219 25.8348 3.37003 25.8699 3.31245C25.1583 2.87179 24.7123 2.69903 24.4091 2.71656C24.2688 2.63644 24.0708 2.53378 24.0859 2.50374C24.2011 2.4086 23.8879 2.30344 23.482 2.16573C23.1513 2.05807 23.0535 2.08812 23.0636 2.16824C22.9709 2.12818 22.9157 2.10564 22.8406 2.0756C22.7529 2.02552 22.6576 1.99047 22.5975 1.97795L22.6301 2.00549C22.5399 1.96043 22.4647 1.92788 22.3895 1.90284C22.1039 1.80269 21.6529 1.68752 21.8032 1.61491C21.9235 1.56484 21.7381 1.48221 21.4048 1.37956C21.1292 1.30194 20.8636 1.17926 20.5629 1.20931C20.8962 1.31446 21.282 1.50475 21.1568 1.57485C21.0139 1.54981 20.8486 1.50725 20.6807 1.46719C20.5855 1.37706 20.5103 1.28943 20.3575 1.19679C20.3224 1.14922 20.2823 1.10916 20.1219 1.0691C20.1019 0.958932 20.0217 0.846264 19.8463 0.738603C20.0042 0.748618 20.1745 0.766144 20.3424 0.78367C20.8561 0.871301 21.3773 1.02653 21.8082 1.24686C22.0864 1.39208 22.4447 1.49724 22.7754 1.54981C23.234 1.74511 23.6699 1.92788 24.1285 2.12317C25.256 2.64144 26.3184 3.24234 27.3081 3.84324L27.2881 3.83322C27.8619 4.18876 28.358 4.70953 28.9143 5.12515C29.1298 5.26286 29.3853 5.51574 29.6334 5.77362C29.7111 5.84623 29.8038 5.93386 29.894 6.02149C30.0694 6.17672 30.2523 6.38203 30.4227 6.56981C30.9539 7.22329 31.4625 7.79414 31.9085 8.41507C31.8835 8.35498 31.8835 8.35498 31.8684 8.31742C31.8684 8.31742 31.8684 8.31742 31.891 8.35247L31.9085 8.41507C32.0539 8.62788 32.2142 8.89829 32.3495 9.01596L32.4247 9.12112L32.4873 9.23128C32.7053 9.62437 32.8882 10.075 33.1213 10.3655C33.1764 10.4581 33.1914 10.4731 33.2415 10.5708C33.3618 10.8412 33.4921 11.1116 33.6074 11.3169C33.6324 11.377 33.6349 11.377 33.6474 11.372C33.6675 11.387 33.6675 11.3645 33.655 11.2994C33.5071 10.6459 33.209 9.98992 32.7529 9.28637C32.6377 9.10359 32.4748 8.85072 32.3495 8.65042C31.5652 7.21327 30.5605 6.18423 29.463 5.29791C29.3127 5.14769 29.1899 5.03001 29.0696 4.96992C28.9218 4.84724 28.7715 4.72706 28.6662 4.687C28.5184 4.56682 28.4031 4.47418 28.2879 4.38154C28.0774 4.20127 27.887 4.03603 27.6765 3.85826C26.792 3.09212 25.7647 2.51375 24.7073 2.04055C24.2312 1.81521 23.705 1.65747 23.2014 1.39208C22.8305 1.18427 22.3394 0.986473 22.4998 1.23184C22.5248 1.28692 22.2016 1.19178 22.0012 1.12919C21.6203 1.02153 21.1843 0.866294 20.7734 0.781166C20.7308 0.778663 20.6506 0.761137 20.6105 0.741107C20.5329 0.706054 20.4502 0.688528 20.3249 0.681017C20.2798 0.683521 20.2197 0.671002 20.1395 0.643461C19.7837 0.528289 19.4229 0.428139 19.057 0.350523C18.9418 0.312967 18.7914 0.280419 18.586 0.250374C18.5634 0.205307 18.4958 0.170254 18.3028 0.147721C18.2126 0.127691 18.15 0.117676 18.0397 0.107661L17.9746 0.117676C17.952 0.120179 17.952 0.120179 17.952 0.120179C17.9746 0.117676 17.9971 0.112668 18.0372 0.107661C17.9946 0.067601 17.9044 0.0450673 17.6864 0.0425636L17.6639 0.0350523V0.0400598C17.6413 0.0125187 17.5536 0.00250374 17.3983 0C17.3557 0.0125187 17.2479 0.0200299 17.2229 0.010015C16.8145 0.0400598 16.406 0.10015 16.0001 0.170254C15.7746 0.150224 15.5266 0.162743 15.2985 0.190284C14.3088 0.24787 13.3742 0.393087 12.387 0.608409L12.3895 0.61592L12.392 0.623431L12.387 0.605905C11.9535 0.600897 11.4048 0.84376 10.9137 0.953924C10.6932 0.961436 10.4125 1.05658 10.177 1.14671C10.0292 1.16925 9.82621 1.23434 9.60822 1.31697C9.35014 1.41211 9.45286 1.44215 9.30252 1.51727C9.18726 1.57235 9.08202 1.64245 9.05196 1.68251C8.9843 1.73509 8.65857 1.88031 8.74126 1.91286C8.77884 1.9404 8.84899 1.94541 9.01437 1.90535C9.08452 1.95542 9.27747 1.93038 9.5581 1.85277L9.61071 1.82022L9.61322 1.82523C9.59317 1.83274 9.57314 1.84025 9.5581 1.85277C9.74853 1.88532 9.959 1.92037 10.1494 1.95292C10.1745 2.02052 10.2547 2.06058 10.5102 2.008C10.3724 2.09313 10.2346 2.18076 10.1093 2.2759C9.73601 2.49122 9.23237 2.66398 9.0244 2.9444C8.51826 3.31245 7.9194 3.66798 7.51599 4.09612L7.54856 4.07108C7.31053 4.32396 6.91965 4.5568 6.75177 4.79216L6.74926 4.78965C6.64402 4.89982 6.4561 5.04003 6.35336 5.18024L6.3183 5.23532L6.25315 5.2904C6.02513 5.51323 5.79461 5.73857 5.55908 5.96891C5.25339 6.21178 4.9452 6.47216 4.70716 6.82269C4.38895 7.25333 3.77505 7.92684 3.42676 8.47015C3.07597 9.04851 2.53475 9.60434 2.34432 10.2128L2.37189 10.1877C2.35686 10.2228 2.35435 10.2203 2.35435 10.2203L2.34432 10.2128C1.98351 10.8312 1.66279 11.4796 1.38467 12.1481C1.18672 12.5362 1.02885 12.9719 0.903569 13.4626C0.86849 13.5778 0.830909 13.6929 0.798336 13.8081C0.485129 14.6919 0.229552 15.6384 0.139348 16.6173C0.0767068 17.1256 0.019078 17.5787 0.109281 17.9969C0.12181 18.072 0.116804 18.112 0.0992644 18.1471C0.0591739 18.2598 0.0466377 18.4125 0.0441321 18.6028C-0.0611053 19.061 0.0516502 19.5517 0.0767068 20.0224L0.089232 20.0399H0.0917401H0.089232C0.0867263 20.0399 0.0792124 20.0374 0.0767068 20.0224C0.0366163 20.2177 0.0641742 20.5231 0.119299 20.7835H0.124315C0.0967526 20.9613 0.191967 21.2918 0.201989 21.5246C0.222035 21.5797 0.22705 21.6348 0.222039 21.6749C0.199488 21.7775 0.22204 21.9478 0.269647 22.1531C0.304726 22.4585 0.382401 22.7765 0.520212 22.9968C0.565314 23.2197 0.622943 23.43 0.723169 23.6103C0.80335 23.8782 0.878518 24.1235 0.956193 24.3714C1.11405 24.747 1.23682 25.2702 1.43978 25.6057C1.50242 25.7635 1.56757 25.9237 1.62269 26.0614C1.73795 26.3368 1.83067 26.6223 1.9785 26.79C2.02862 26.8851 2.07622 26.9803 2.11631 27.0579C2.14889 27.138 2.18647 27.2131 2.23909 27.2832C2.28168 27.3584 2.31176 27.4134 2.35435 27.486C2.6851 28.1595 3.06095 28.783 3.49693 29.3689C3.61219 29.5241 3.69487 29.5967 3.72744 29.5742C3.76002 29.5516 3.7049 29.4314 3.59465 29.2762C3.26391 28.7579 2.88805 28.1671 2.56733 27.6638C2.45708 27.4585 2.33682 27.2332 2.21654 27.0103C1.90083 26.5922 1.78056 25.9963 1.54001 25.5657L1.54252 25.6107C1.4448 25.3529 1.36212 25.1325 1.26189 24.8746C1.15415 24.6643 1.094 24.3489 0.998785 24.1335C0.966212 24.0159 0.933647 23.9007 0.898568 23.7855C0.908591 23.8055 0.918615 23.8281 0.931143 23.8456L0.926127 23.8481C0.953689 23.8982 0.971225 23.9307 1.00129 23.9808C0.988765 23.9257 0.981249 23.8907 0.971227 23.8381C0.971227 23.8406 0.971227 23.8456 0.971227 23.8481V23.8306C0.971227 23.8331 0.971229 23.8356 0.973735 23.8381C0.981252 23.7905 0.961207 23.7079 0.958701 23.6353C0.97123 23.5301 0.926126 23.3499 0.878519 23.1671L0.868502 23.1696H0.863485L0.878519 23.1646C0.881024 23.122 0.876016 23.0694 0.865993 23.0094C1.00631 23.5527 1.1817 24.0885 1.38216 24.6092C1.56006 25.105 1.82064 25.5882 1.98852 26.1315C2.10378 26.5421 2.31176 27.0279 2.37189 26.7399C2.39444 26.6848 2.5523 26.9778 2.65002 27.1631C2.84295 27.5086 3.04089 27.9267 3.27141 28.2772C3.29898 28.3073 3.34409 28.3774 3.35912 28.4199C3.38919 28.5001 3.43428 28.5702 3.51947 28.6653C3.55204 28.6953 3.58713 28.7479 3.62221 28.823C4.12835 29.8145 4.75226 30.7534 5.7019 31.502C5.82718 31.6147 5.97502 31.7649 6.06522 31.8801C6.21306 32.1205 6.47615 32.3658 6.72421 32.5611C7.46588 33.2196 8.22759 33.7779 9.07701 34.3213L9.08202 34.3137L9.08704 34.3062L9.07701 34.3213C9.37768 34.6317 9.93896 34.847 10.3674 35.1149C10.5278 35.2652 10.7934 35.3954 11.0264 35.498C11.1467 35.5881 11.3371 35.6833 11.5476 35.7809C11.7982 35.8961 11.7455 35.801 11.9059 35.856C12.0262 35.8986 12.1514 35.9236 12.1991 35.9161C12.2842 35.9261 12.6175 36.0538 12.5824 35.9737C12.5774 35.9287 12.5298 35.8736 12.3845 35.7859C12.3694 35.7033 12.2166 35.5831 11.9635 35.4379L11.9034 35.4229L11.9059 35.4179C11.9259 35.4254 11.946 35.4354 11.9635 35.4354C11.8533 35.2777 11.728 35.1024 11.6177 34.9472C11.6528 34.8696 11.6102 34.7644 11.2619 34.5666C11.2294 34.4965 11.1567 34.4139 11.1266 34.3388C11.3797 34.4565 11.6578 34.5666 11.9009 34.6517C12.164 34.7419 12.3168 34.7344 12.3369 34.6843C12.3995 34.6292 12.1063 34.5215 11.9309 34.4314C11.7205 34.3263 11.5576 34.2086 11.5476 34.146C11.5225 34.0609 11.8282 34.1911 11.9811 34.2236C12.5123 34.3538 13.1863 34.6993 13.7902 34.7794C14.0708 34.842 14.4266 35.0098 14.6721 34.9772L14.6546 34.9647L14.6746 34.9697L14.6721 34.9772C15.0856 35.0624 15.509 35.1926 15.8623 35.185C15.8247 35.17 15.7897 35.16 15.7721 35.1475C15.7922 35.1525 15.7922 35.1525 15.7922 35.1525L15.8623 35.1875C16.2382 35.2476 16.6942 35.3303 17.0049 35.2852L16.9673 35.2727L17.0049 35.2777V35.2852C17.6113 35.3127 18.2377 35.478 18.9092 35.3503C19.4379 35.2702 20.3499 35.2276 20.9814 35.0899C21.6404 34.9297 22.4146 34.9196 22.9809 34.6217L22.9433 34.6192C22.9784 34.6042 22.9784 34.6092 22.9784 34.6092L22.9809 34.6217C24.2337 34.2887 25.4665 33.808 26.6191 33.1695C27.3658 32.814 28.1099 32.3859 28.794 31.8601H28.7965C28.8241 31.8901 28.8942 31.8751 29.032 31.7724L29.0997 31.6898L29.1022 31.6923C29.1022 31.6923 29.0596 31.7399 29.032 31.7724C29.0947 31.7724 29.1723 31.7599 29.2676 31.7224C29.0947 31.8576 28.9067 32.0328 28.7364 32.118L28.7514 32.1054C28.566 32.2081 28.3079 32.4084 28.1275 32.481C27.7166 32.6187 27.2931 33.0168 26.8396 33.2246C26.7394 33.2747 26.599 33.3423 26.4637 33.4099C26.2107 33.4925 25.895 33.7179 25.6193 33.7955C25.479 33.8531 25.3738 33.8956 25.2685 33.9382C24.81 34.156 24.359 34.3663 23.8754 34.469L23.8052 34.499L23.7501 34.5115C22.3219 34.8596 21.2795 35.2376 20.1771 35.4955C22.2718 35.2777 24.3089 34.6492 26.1831 33.7379C26.3209 33.6678 26.4412 33.6077 26.594 33.5301C26.9398 33.4449 27.3132 33.2046 27.664 32.9642C27.8594 32.8415 28.0373 32.7289 28.2352 32.6062C28.4257 32.5111 28.6537 32.3358 28.8391 32.2256C28.9143 32.1655 28.9619 32.133 29.012 32.1029C29.1974 32.0253 29.4004 31.8425 29.6108 31.6723C29.6735 31.6247 29.7511 31.5671 29.7962 31.5296C29.8764 31.477 29.9842 31.4219 30.0468 31.3743C30.137 31.2867 30.2247 31.2016 30.3124 31.114C30.3675 31.0939 30.4427 31.0414 30.5655 30.9212L30.5855 30.9087L30.583 30.9061C30.6181 30.9112 30.6858 30.8536 30.7985 30.7459C30.8211 30.7084 30.8912 30.6257 30.9163 30.6157C31.4976 29.9372 32.0012 29.1711 32.4673 28.4124C32.6477 28.147 32.8081 27.8516 32.9409 27.5812C33.0737 27.4059 33.1939 27.2131 33.2641 27.0254C33.3217 26.9452 33.3793 26.8701 33.442 26.7975C33.8028 25.8611 34.1987 24.8947 34.339 23.9833C34.4518 23.5677 34.6848 23.0895 34.6347 22.744C34.7324 22.1255 34.9053 21.452 34.8852 20.8637L34.8827 20.9262ZM31.5126 7.71402L31.5026 7.72153C31.5026 7.72153 31.5076 7.71903 31.5026 7.699L31.5126 7.71402ZM9.58064 1.58987C9.57563 1.57736 9.55059 1.56984 9.60571 1.5398C9.62325 1.52478 9.66334 1.51727 9.68088 1.50224C9.63076 1.54481 9.57313 1.57736 9.58064 1.58987ZM11.7581 35.6282C11.753 35.6407 11.7656 35.6633 11.7054 35.6432C11.6829 35.6432 11.6478 35.6182 11.6253 35.6157C11.6904 35.6257 11.753 35.6432 11.7581 35.6282ZM33.7978 17.759H33.7903V17.719L33.7978 17.759ZM33.6875 20.1351C33.7101 19.757 33.7427 19.3764 33.6825 19.0359C33.7552 19.3389 33.7126 19.737 33.6875 20.1351ZM33.7151 12.9619C33.6976 12.9443 33.66 12.8467 33.6374 12.8342C33.6274 12.7916 33.6124 12.7315 33.6023 12.6915C33.6449 12.7891 33.6925 12.9068 33.7151 12.9619ZM33.5723 15.1476L33.5798 15.1451C33.5748 15.1676 33.5673 15.2277 33.5522 15.1927C33.5522 15.1927 33.5648 15.1702 33.5723 15.1476ZM33.2315 18.728H33.2365L33.2315 18.748V18.728ZM32.8356 17.3784C32.8406 17.4536 32.8657 17.4911 32.8557 17.5487C32.8456 17.7014 32.8181 17.5337 32.7955 17.4561C32.8131 17.4536 32.8306 17.4536 32.8356 17.3784ZM32.6001 20.0424H32.6126L32.6051 20.08C32.5976 20.1 32.6001 20.0424 32.6001 20.0424ZM28.9869 29.3538C29.0145 29.3013 29.0446 29.2462 29.0746 29.1936C29.0922 28.9357 29.4204 28.4775 29.6685 27.9517C29.5682 28.3323 29.3077 28.7705 29.0746 29.1936C29.0721 29.2161 29.0596 29.2462 29.0621 29.2637C29.0521 29.2812 29.027 29.3113 28.9869 29.3538ZM6.75177 29.0934C6.73172 29.0809 6.70667 29.0534 6.68662 29.0459L6.68411 29.0484L6.67409 29.0359C6.634 28.9958 6.64652 29.0108 6.634 28.9958L6.6365 28.9933C6.6365 28.9933 6.65154 29.0058 6.67409 29.0334C6.68913 29.0434 6.68913 29.0434 6.68913 29.0434L6.7217 29.0634C6.73173 29.0759 6.74175 29.0834 6.75177 29.0934ZM3.71241 28.1921C3.69988 28.1771 3.68985 28.1646 3.68985 28.1646C3.72243 28.1846 3.73496 28.1746 3.72744 28.137C3.72494 28.132 3.71993 28.127 3.71743 28.122C3.72244 28.127 3.72494 28.132 3.72995 28.137C3.56959 27.8291 3.43177 27.4184 3.56708 27.4585C3.72995 27.6913 3.90284 28.0294 4.10329 28.2622C4.1935 28.3949 4.29623 28.5451 4.39896 28.6928C4.55681 29.0784 4.58688 29.1535 4.5067 29.2687C4.40898 29.101 4.26866 28.9307 4.11833 28.7254C4.05318 28.5376 3.88029 28.3448 3.72494 28.1395C3.73496 28.1746 3.72494 28.1821 3.71241 28.1921ZM4.19098 22.5662L4.20603 22.5637V22.6012L4.19098 22.5662ZM3.96298 23.6027C3.93291 23.5752 3.91286 23.5677 3.89532 23.5652C3.87778 23.6678 3.85022 23.753 3.80763 23.803C3.82767 23.7029 3.82265 23.5527 3.89532 23.5652C3.90534 23.5026 3.91787 23.4375 3.91537 23.3549C3.94794 23.4575 3.92539 23.5026 3.96298 23.6027ZM3.40922 26.6548C3.40922 26.6548 3.39921 26.6373 3.3917 26.6197C3.4393 26.7074 3.51697 26.8226 3.5721 26.8826L3.55957 26.8902C3.51447 26.8251 3.47186 26.7575 3.40922 26.6548ZM3.13611 25.0199C3.09602 24.9523 3.07597 24.9197 3.06595 24.9022C3.05342 24.8671 3.04089 24.8296 3.03337 24.8095C3.06094 24.8646 3.10354 24.9498 3.13611 25.0199ZM2.59488 22.774C2.57985 22.7765 2.55481 22.744 2.52975 22.6914C2.52975 22.6914 2.52974 22.6914 2.52223 22.6538C2.54227 22.7089 2.57484 22.779 2.59488 22.774ZM1.02134 21.3369C1.00881 21.3193 0.996277 21.2693 0.996277 21.2693H1.00129C1.00881 21.3193 1.01383 21.3193 1.02134 21.3369ZM1.47236 22.9943C1.43978 23.0044 1.45733 23.112 1.49491 23.2522C1.45733 23.1696 1.41472 23.087 1.4047 22.9743C1.41222 22.9192 1.4473 22.9643 1.47236 22.9943ZM2.30173 22.0304C2.26164 21.9603 2.22154 21.8677 2.18646 21.6774C2.22655 21.8276 2.26414 21.9378 2.30173 22.0304ZM2.42952 22.9543C2.4195 22.8366 2.40446 22.7415 2.44706 22.7314C2.41198 22.739 2.41699 22.8366 2.42952 22.9543ZM0.788319 17.5162L0.785811 17.5512H0.778286V17.5337C0.780792 17.5162 0.780795 17.5162 0.780795 17.5162H0.788319ZM0.68307 18.2197V18.2372C0.680565 18.2422 0.680575 18.2498 0.67807 18.2573C0.665541 18.3524 0.658026 18.43 0.648003 18.5126C0.645497 18.5377 0.645492 18.5602 0.642987 18.5853C0.642987 18.5477 0.642987 18.5477 0.642987 18.5477C0.645492 18.5352 0.645497 18.5227 0.648003 18.5101C0.653014 18.41 0.66053 18.3274 0.67807 18.2548C0.680575 18.2447 0.68307 18.2322 0.68307 18.2197ZM0.39493 20.9738C0.409963 20.9763 0.424993 20.9688 0.437521 20.9538C0.442533 21.0114 0.447543 21.0464 0.452555 21.104C0.437521 21.0539 0.414975 21.0139 0.39493 20.9738C0.349828 20.9688 0.299713 20.8912 0.252106 20.8111C0.299713 20.8436 0.349828 20.9012 0.39493 20.9738ZM2.64249 25.6884C2.68008 25.781 2.70264 25.8361 2.73271 25.9112C2.76027 26.0088 2.80286 26.1015 2.83543 26.1516L2.83292 26.109C2.8655 26.2041 2.89557 26.2792 2.93065 26.3519C3.06094 26.6248 3.30149 27.0254 3.14113 26.9703C3.09603 26.9527 3.07848 26.9653 3.08098 27.0053C3.03337 26.9102 2.98326 26.815 2.94067 26.7274L2.93816 26.7299C2.93816 26.5997 2.75775 26.3694 2.67256 26.1666C2.645 26.0138 2.5974 25.8486 2.51472 25.6583C2.57235 25.7234 2.61493 25.7259 2.64249 25.6884ZM7.05996 6.26435C7.06247 6.26185 7.06247 6.25935 7.06498 6.25684C7.06498 6.25935 7.06247 6.26185 7.05996 6.26435ZM18.8015 2.64645L18.799 2.66899C18.7964 2.68902 18.7062 2.67399 18.7037 2.68651C18.7062 2.66648 18.799 2.66648 18.8015 2.64645ZM17.6539 2.48872C17.6163 2.48371 17.6539 2.48621 17.6363 2.48371C17.6163 2.48371 17.5436 2.48371 17.5436 2.48371L17.5812 2.4787C17.6564 2.46368 17.7842 2.46118 17.8969 2.46368C17.8393 2.4812 17.694 2.47119 17.6539 2.48872ZM17.8969 2.66147C17.8969 2.66398 17.8769 2.66648 17.8393 2.66147C17.8217 2.66398 17.8217 2.66398 17.8217 2.66398L17.7841 2.67399C17.7691 2.67399 17.7566 2.6765 17.7441 2.6765C17.7666 2.67149 17.8067 2.67399 17.8242 2.66648V2.66147L17.8418 2.66398C17.8969 2.66147 17.8794 2.66147 17.8969 2.66147ZM30.2623 24.8671C30.2698 24.8296 30.2999 24.787 30.3149 24.7745L30.325 24.7795C30.3049 24.8095 30.2573 24.9222 30.2623 24.8671ZM30.3024 24.9873L30.2874 25.0149L30.2899 24.9823C30.2849 24.9873 30.2798 24.9948 30.2748 24.9998C30.2748 24.9973 30.2748 24.9923 30.2748 24.9873C30.2798 24.9898 30.2874 24.9798 30.2949 24.9673C30.2924 24.9723 30.2899 24.9748 30.2874 24.9798L30.3024 24.9873ZM32.0814 19.9172C32.0739 19.9698 32.0714 19.9898 32.0614 20.06C32.0614 19.9873 32.0488 19.9873 32.0463 19.9673C32.0614 19.9147 32.0714 19.9348 32.0814 19.9172ZM31.7431 11.2017C31.7482 11.2092 31.7456 11.2067 31.7532 11.2243L31.7431 11.2067C31.7431 11.2017 31.7431 11.2017 31.7431 11.2017C31.7331 11.1842 31.7256 11.1667 31.7206 11.1542C31.7106 11.1141 31.7081 11.0966 31.7081 11.0966C31.7106 11.1116 31.7206 11.1517 31.7431 11.2017ZM31.6655 9.50169C31.673 9.51421 31.673 9.51421 31.673 9.51421C31.6705 9.5092 31.668 9.50419 31.6655 9.50169C31.6655 9.50169 31.6655 9.50169 31.663 9.49918L31.6529 9.48166C31.6529 9.48166 31.6605 9.48917 31.6655 9.50169ZM31.4249 9.28637L31.4174 9.29137C31.4174 9.29137 31.4174 9.29137 31.4074 9.27385C31.4224 9.28887 31.4249 9.28637 31.4249 9.28637ZM26.2207 4.69201C26.0854 4.61439 25.9827 4.56181 25.8899 4.52426C25.9676 4.54929 26.0628 4.58184 26.2207 4.69201ZM25.1808 4.20127C25.2009 4.20127 25.2259 4.20628 25.261 4.2188C25.261 4.2188 25.261 4.2188 25.2936 4.24133C25.256 4.22381 25.2084 4.20628 25.1808 4.20127ZM25.2936 4.12866C25.3111 4.10112 25.241 4.03603 25.1483 3.96091C25.2385 4.03603 25.3136 4.09361 25.2936 4.12866ZM23.3166 3.03453C23.3517 3.05206 23.3868 3.06708 23.4043 3.0771C23.3492 3.05707 23.259 3.02702 23.1838 3.00198C23.2615 3.01951 23.2966 3.02952 23.3166 3.03453ZM21.5627 1.97295C21.6404 1.99047 21.718 2.008 21.8358 2.03304C21.8358 2.03304 21.8558 2.03804 21.8734 2.04555C21.7782 2.01801 21.6404 1.99047 21.5602 1.98546L21.5627 1.97295ZM18.2702 0.155232C18.2527 0.160239 18.2427 0.165247 18.2126 0.170254V0.162743L18.2702 0.155232ZM15.3261 0.252878C15.3261 0.252878 15.3261 0.252878 15.3662 0.255381C15.3261 0.257885 15.2409 0.260389 15.1983 0.262893L15.3261 0.252878ZM3.47186 8.81316C3.47186 8.83069 3.46937 8.85572 3.46937 8.87826C3.46937 8.87826 3.46937 8.87826 3.46937 8.88076C3.46436 8.86324 3.46435 8.84321 3.47186 8.81316ZM3.44681 8.91581C3.44681 8.91832 3.4443 8.91832 3.4443 8.92082C3.42426 8.92833 3.3992 8.94336 3.37665 8.95337C3.40421 8.93584 3.42677 8.92833 3.44681 8.91581ZM0.184448 19.5617C0.176931 19.5867 0.169413 19.6093 0.151873 19.5893C0.151873 19.5893 0.151886 19.5893 0.14938 19.5517C0.16692 19.5918 0.176931 19.5817 0.184448 19.5617ZM0.592871 22.7865C0.592871 22.789 0.595379 22.789 0.595379 22.7915H0.592871C0.592871 22.7915 0.592871 22.789 0.592871 22.7865ZM2.40447 26.3268C2.35686 26.2116 2.31175 26.099 2.26664 25.9838C2.28669 26.0113 2.30424 26.0389 2.32429 26.0639C2.33681 26.149 2.39695 26.2792 2.45208 26.3944C2.43704 26.3744 2.42201 26.3493 2.40447 26.3268ZM3.58713 28.5902C3.28645 28.1646 3.02836 27.6863 2.87802 27.2257C2.86049 27.1681 2.83793 27.1105 2.81288 27.0529C2.86549 27.138 2.91561 27.2231 2.94317 27.3008C2.98326 27.431 3.11607 27.6137 3.21379 27.7715C3.23634 27.8015 3.26892 27.824 3.29648 27.8516C3.66481 28.3498 3.99305 28.8731 4.46662 29.3213C4.45659 29.3338 4.44657 29.3463 4.43404 29.3613C4.29874 29.4615 3.93291 29.0108 3.58713 28.5902ZM4.61695 25.2477C4.70966 25.2427 4.73471 25.1175 4.69211 24.8897C4.71968 25.0299 4.74724 25.1701 4.7723 25.2903C4.83494 25.5381 4.69963 25.3478 4.61695 25.2477ZM4.82241 28.3548C4.84246 28.3649 4.79986 28.2772 4.85248 28.3348C4.9051 28.3924 4.86501 28.3749 4.89007 28.4274C4.87504 28.4124 4.84747 28.3849 4.82241 28.3548ZM5.98504 28.3674L6.00258 28.3523C6.01762 28.3398 6.07274 28.4149 6.08276 28.4074C6.06773 28.4199 6.00007 28.3548 5.98504 28.3674ZM6.49619 29.1335C6.5463 29.1635 6.64402 29.2737 6.68411 29.2887C6.70917 29.3188 6.68162 29.2912 6.69414 29.3038C6.70667 29.3163 6.75928 29.3689 6.75928 29.3689L6.72921 29.3463C6.66908 29.3038 6.57386 29.2161 6.49619 29.1335ZM6.74926 32.5161C6.74926 32.5161 6.74926 32.5161 6.7217 32.486C6.75177 32.5135 6.81441 32.5686 6.84448 32.5987L6.74926 32.5161ZM7.44082 32.2181C7.44333 32.2131 7.43581 32.2031 7.43581 32.1981C7.31804 32.0679 7.25039 31.9577 7.13763 31.83L7.10257 31.8075C7.10257 31.8075 7.1226 31.815 7.10757 31.8025C7.1226 31.815 7.1226 31.815 7.14014 31.83C7.41576 32.0504 7.45335 32.138 7.43832 32.1981C7.46087 32.2231 7.47339 32.2457 7.50096 32.2732C7.47089 32.2457 7.47089 32.2457 7.44082 32.2181ZM8.68112 30.14C8.75128 30.1675 8.76882 30.1726 8.81893 30.1926C8.79388 30.1951 8.82645 30.2377 8.83146 30.2577C8.77884 30.2126 8.72873 30.1901 8.68112 30.14ZM9.58315 32.1655L9.58817 32.158L9.60069 32.173C9.58315 32.1655 9.58315 32.1655 9.58315 32.1655ZM11.4323 32.3107C11.515 32.3458 11.5351 32.3383 11.5902 32.3533C11.5376 32.3383 11.525 32.3608 11.4323 32.3107ZM12.3369 32.7865C12.3544 32.794 12.3544 32.7915 12.3544 32.7915V32.794L12.3369 32.7865C12.3243 32.784 12.3168 32.784 12.3043 32.7815C12.2316 32.8165 12.0863 32.784 11.9234 32.7239C11.8533 32.7063 11.7806 32.6788 11.6904 32.6287C11.6804 32.6237 11.6754 32.6262 11.6653 32.6187C11.6002 32.5887 11.6002 32.5887 11.5526 32.5661C11.5977 32.5862 11.6453 32.6062 11.6904 32.6262C11.7681 32.6613 11.8483 32.6938 11.9234 32.7214C12.0537 32.7539 12.164 32.7489 12.3043 32.7789C12.3093 32.7764 12.3168 32.7789 12.3218 32.7764C12.3293 32.7764 12.3168 32.7689 12.3243 32.7689C12.2717 32.7113 12.2316 32.6663 12.179 32.6062C12.1715 32.6012 12.164 32.5962 12.1565 32.5912C12.1715 32.5987 12.1715 32.5987 12.1715 32.5987C12.164 32.5887 12.1414 32.5711 12.1314 32.5586C11.956 32.4434 11.7906 32.3258 11.6628 32.2106L11.6578 32.2181C11.4799 32.1079 11.272 31.9777 11.272 31.9777C11.272 31.9777 11.4649 32.0954 11.6127 32.1856C11.6428 32.2031 11.6428 32.2031 11.6603 32.2106C11.9059 32.3408 12.0487 32.4635 12.1289 32.5586C12.1565 32.5761 12.174 32.5962 12.2016 32.6137C12.2016 32.6137 12.2016 32.6137 12.169 32.5987C12.1715 32.6012 12.174 32.6037 12.1765 32.6062C12.2943 32.6813 12.4095 32.7539 12.3218 32.7689C12.3293 32.7789 12.3319 32.7814 12.3369 32.7865ZM12.7854 32.8641L12.5924 32.7815C12.6576 32.8065 12.7353 32.8491 12.823 32.8716C12.8205 32.8691 12.8029 32.8666 12.7854 32.8641ZM13.7801 34.156L13.7826 34.151V34.1485L13.7801 34.156ZM14.7273 33.7078C14.7473 33.6978 14.6822 33.6778 14.6847 33.6653C14.6997 33.6803 14.7298 33.7003 14.7799 33.7229C14.7448 33.7128 14.7448 33.7128 14.7273 33.7078ZM16.0402 34.0133V34.0083L16.0753 34.0233L16.0402 34.0133ZM16.8997 34.136C16.8145 34.0909 16.7142 34.0458 16.614 34.0083C16.6842 34.0133 16.8245 34.0208 16.9498 34.0283C17.0174 34.0659 17.065 34.1034 16.8997 34.136ZM18.2678 33.0519C18.2853 33.0644 18.3329 33.0744 18.4005 33.0894C18.4005 33.0894 18.4156 33.1019 18.4482 33.1069V33.1119C18.4156 33.1019 18.4005 33.0894 18.4005 33.0894C18.3179 33.0719 18.2853 33.0669 18.2377 33.0569C18.2678 33.0569 18.2678 33.0519 18.2678 33.0519ZM18.4431 33.3147C18.4607 33.3147 18.4607 33.3147 18.4607 33.3147C18.4431 33.3273 18.393 33.3398 18.3429 33.3498C18.393 33.3398 18.4081 33.3273 18.4431 33.3147ZM21.2545 34.7769C21.252 34.7794 21.247 34.7819 21.2445 34.7869C21.237 34.8045 21.2194 34.822 21.1893 34.8395C21.2044 34.827 21.2269 34.8045 21.2445 34.7869C21.2495 34.7769 21.252 34.7669 21.2495 34.7569C21.252 34.7794 21.3096 34.792 21.3522 34.807C21.3146 34.797 21.2921 34.7794 21.2545 34.7769ZM22.7278 33.0569C22.6602 33.0794 22.5725 33.117 22.5624 33.0819C22.5299 33.0919 22.5599 33.0694 22.5098 33.0794C22.5123 33.0769 22.5148 33.0744 22.5173 33.0719C22.5299 33.0669 22.5449 33.0619 22.5574 33.0569L22.5649 33.0819L22.6677 33.0694C22.6852 33.0644 22.7053 33.0619 22.7278 33.0569C22.7403 33.0544 22.7529 33.0468 22.7629 33.0443V33.0494C22.7579 33.0494 22.7403 33.0544 22.7278 33.0569ZM26.133 31.497C25.9025 31.6072 25.6995 31.6898 25.6218 31.6473C25.5091 31.6122 25.7421 31.482 25.935 31.3568C26.0177 31.3017 26.1255 31.2216 26.0628 31.2116C25.9275 31.2391 25.7421 31.3819 25.6419 31.3693C25.8123 31.2366 26.0353 31.1615 26.2157 31.0163C26.1731 31.0263 26.1455 31.0313 26.133 31.0238C26.1255 31.0263 26.118 31.0288 26.1104 31.0313C26.1255 31.0213 26.1255 31.0213 26.1255 31.0213C26.1255 31.0238 26.1305 31.0213 26.133 31.0238C26.1731 31.0113 26.2082 31.0013 26.2157 31.0163C26.2407 30.9913 26.2808 30.9662 26.3284 30.9487C26.564 30.8586 26.8095 30.6332 27.0576 30.5256C27.4008 30.3553 27.6664 30.1024 27.9496 29.8245L27.9646 29.8145L27.9897 29.792C27.9772 29.802 27.9772 29.802 27.9772 29.802C28.1851 29.5141 27.9095 29.7494 27.7391 29.8746L27.664 29.9347L27.6188 29.9597C27.481 29.9948 27.2405 30.2176 27.1027 30.2477C27.6865 29.782 28.2879 29.3113 28.799 28.7629C28.8341 28.7279 28.8717 28.6903 28.9118 28.6528C28.9067 28.6628 28.9017 28.6703 28.9017 28.6753C28.8667 28.7429 28.9268 28.6979 28.9719 28.6378C29.007 28.5952 29.037 28.5476 29.037 28.5476C29.0345 28.5451 29.0295 28.5426 29.027 28.5401C29.1222 28.4425 29.2024 28.3498 29.2049 28.2772C29.2174 28.1846 29.2676 28.0844 29.3377 27.9768C29.473 27.9117 29.6735 27.7139 29.7637 27.7339C29.686 27.8616 29.6509 27.9317 29.6584 27.9818C29.3703 28.3774 29.2926 28.5777 29.1323 28.8656C28.9769 29.1335 28.9293 29.3213 28.6687 29.6518C28.5284 29.8095 28.4006 29.9647 28.2778 30.12C28.2427 30.145 28.2102 30.17 28.1751 30.1926C27.5311 30.6758 26.8371 31.0964 26.133 31.497ZM26.8872 31.3568C26.9022 31.3468 26.9624 31.3118 26.9624 31.3118C26.9849 31.3067 27.0075 31.2917 27.03 31.2792C27.0626 31.2592 27.0952 31.2417 27.1177 31.2391C27.0876 31.2467 27.0601 31.2642 27.03 31.2792C26.9849 31.3093 26.9348 31.3393 26.8872 31.3568Z" fill="white"/>
<path d="M15.8479 18.5L10.2396 12.8911C10.0854 12.7367 10.0002 12.5307 10 12.3111C10 12.0913 10.0851 11.8851 10.2396 11.7309L10.7311 11.2395C10.8856 11.0848 11.0916 11 11.3115 11C11.531 11 11.737 11.0848 11.8915 11.2395L17.4998 16.8481L23.1083 11.2395C23.2626 11.0848 23.4687 11 23.6884 11C23.9079 11 24.114 11.0848 24.2683 11.2395L24.76 11.7309C25.08 12.0509 25.08 12.5714 24.76 12.8911L19.1516 18.5L24.76 24.1087C24.9144 24.2633 24.9994 24.4693 24.9994 24.6889C24.9994 24.9086 24.9144 25.1146 24.76 25.2691L24.2684 25.7605C24.1141 25.9151 23.9079 26 23.6885 26C23.4688 26 23.2627 25.9151 23.1084 25.7605L17.4999 20.1518L11.8916 25.7605C11.7371 25.9151 11.5311 26 11.3116 26H11.3113C11.0917 26 10.8857 25.9151 10.7312 25.7605L10.2398 25.2691C10.0855 25.1147 10.0004 24.9086 10.0004 24.6889C10.0004 24.4693 10.0855 24.2633 10.2398 24.1088L15.8479 18.5Z" fill="#FAAE5D"/>
</svg>
