<svg width="367" height="503" fill="none" xmlns="http://www.w3.org/2000/svg"><g clip-path="url(#clip0)" fill="#FAAE5D"><path d="M357.761 31.53c-.143-1.247-.239-3.013-.131-6.025.083 9.22.298-4.961.131 6.025zM3.58 411.007a145.553 145.553 0 01-.07-3.272v-.364c.059 1.532.083 2.312.07 3.636zM12.593 17.79c.155 0 .31 0 .466-.025a1.004 1.004 0 01-.31.13l-.538-.052c.131-.026.263-.026.382-.052zm85.406 484.483c.203 0 .406-.026.597-.026-.37.129-.621.207-.597.026zm22.07-1.325c-.31.104-.716.181-1.193.259.382-.129-.705-.492 1.193-.259zM177.973.388c-.25.052-.453.104-.632.13l.632-.13zm33.661.677a9.486 9.486 0 01-1.575.052c.787-.078 1.277-.078 1.575-.052zm61.044-.026c1.85.052-.06.441.716.675 1.528-.363 2.602.13 3.808.26-.585.156-.633.364-.49.571-.047-.026-.107-.052-.167-.078-2.96-.233-5.503-.96-3.867-1.428zm4.225 1.713a.734.734 0 01-.179-.207c.215.078.263.156.179.207zm.323-.779c.417-.104 1.086-.207 2.136-.259a4.27 4.27 0 01-2.136.259zm46.313 498.404c-.334.078-.489.181-.453.388-.645-.233-.251-.31.453-.388zM344.118 9.244c-.084 0-.299-.18-.585-.44.191.156.394.285.585.44z"/><path d="M366.976 445.293l-.071-23.505c-.06-15.583-.156-30.776-.382-44.256.071-1.35.131.312.202 1.117-.393-16.804.418-34.413-.346-46.724l-.322-4.441c.131-3.948.346-3.636.466-6.701-.215-3.298-.06-15.323-.347-17.271.132-1.792.168.727.263.675.072-7.739-.406-16.674-.298-23.972l.143 2.312c.537-38.335.967-87.968.262-119.446-.119-8.597.418-3.818.371-7.61-.287-16.258-.203-34.127-.156-51.684.024-8.752.036-17.427-.024-25.764-.023-4.182-.059-8.26-.131-12.233-.083-3.948-.06-7.895-.394-11.376-.429-5.558-1.552-9.713-2.709-12.466-1.146-2.805-2.292-4.364-3.187-5.325-.92-.908-1.588-1.298-2.018-1.454-.429-.156-.62-.182-.62-.182 2.65 2.078 4.906 6.337 6.207 11.662.668 2.649 1.074 5.558 1.253 8.518.155 2.805.083 6.39.107 9.714 0 13.48-.035 26.725-.095 39.945-.131 26.465-.358 52.801-.621 80.513.072 18.7.227 43.192.06 60.411.048 36.231-.12 72.54-.263 109.031-.047 18.258-.107 36.568-.155 54.931 0 9.168 0 18.362-.012 27.582l.012 6.908.012 1.74c0 .598 0 1.143-.012 1.559 0 .935-.048 1.844-.095 2.779-.251 3.636-.884 7.168-1.898 10.207.907-2.494.31.675-.693 3.039l-.334.363a21.575 21.575 0 01-1.599 3.402c-.227.312-.406.572-.573.728a8.615 8.615 0 01-.514.493c-.37.338-.477.312-.31.052.096-.104.227-.312.418-.571.095-.156.215-.338.358-.546.227-.415.561-.831.907-1.454-.322.545-.692.961-1.038 1.402l-.335.39a7.734 7.734 0 01-.644.649l-1.277 1.221-.633.623c-.024.468 0 1.013-.012 1.507l.012 3.038v4.286c0 2.415.012 4.779.012 7.064l-.155.026h-.955c-1.146.026-2.28.026-3.414.026-1.432 0-2.853.026-4.273.026-.43.597-.8 1.506-1.194 2.286l-.358.675-.275.467c-.37.624-.752 1.195-1.157 1.689-1.612 2.077-3.462 3.142-5.336 3.168-2.28 0-4.56-.026-6.887-.026-.872.805-6.864.026-7.317.883-.609-.156-.036-.182.334-.363-9.156.415-9.788.441-18.12-.598-35.583-.675-69.9-.104-104.946-.337-35.451.363-70.306.727-106.664 1.09-5.563 1.299-13.202.702-19.791 1.818l.418-.389c-5.622.571-7.055-.13-14.18-.597-.072.441-2.734.103-1.708.857-2.483.649-4.464-1.065-8.021-.728-.12-.233.083.468-.669.234-9.19.909 1.755-.415-9.907-1.143l-8.057.156-3.963.078c-1.158-.052-2.316-.493-3.402-1.298-1.098-.806-2.136-2-3.08-3.507l-.346-.571-.453-.883-.633-1.247c-.107-.156-.19-.493-.322-.519l-.43.026-2.495.026c-2.124.052-4.225.104-6.326.13-.012-1.793-.012-3.585-.012-5.351l-.012-4.493.012-3.324v-2.753c-.012-.156.012-.338-.024-.442l-.19-.182-1.529-1.48c-.131-.13-.262-.26-.382-.39l-.286-.337a2.891 2.891 0 01-.382-.468 15.541 15.541 0 01-1.456-2.207c-.836-1.507-1.576-3.273-2.173-5.221.346 1.221.275 1.818-.441-.389-.132-1.559-.729-3.662-1.182-6.312-.478-2.675-.74-5.661-.609-8.57.12.571.143 3.064.31 4.389-.119-3.143 0-7.168-.023-10.752-.012-3.611-.012-7.169-.024-10.675-.024-6.882-.048-13.713.071-20.933-.25-13.921.263-30.18-.035-39.504.226 2.208.167-6.233.274-9.22-.668-10.103.239-27.141-.215-39.789l.12.442c-.048-37.816.107-78.955-.203-118.407-.072-22.206.525-47.217.226-71.605-.083-4.467-.226-.935-.298-4.571.024-6.129.215.104.287-2.311-.263-12.025.06-27.842.047-42.906-.107-1.792-.131-6-.286-4.571.107-4.182.155-8.753.167-13.506v-3.584c.024-1.039.036-2.078.095-3.116.12-2.078.358-4.13.717-6.13.728-3.922 1.945-7.454 3.45-10.025.381-.597.763-1.22 1.169-1.714.203-.286.382-.468.633-.753.393-.442.86-.806 1.265-1.221l.62-.571.311-.312c.107-.104.239-.13.203-.442 0-.986.012-1.947.012-2.908.012-.961.024-1.922.024-2.883l.035-1.715c-.25 2.494-.346 1.117-.382-1.766-.011-2-.023-5.012-.035-7.402.25-.026.465-.052.632-.104.215.027.299.078.478.13.239.052.382.13.43.182.083.104 0 .234-.191.312.143.026.286 0 .43 0 .799-.026 1.551-.026 2.267-.052 1.516-.026 2.889-.026 4.285-.052.538-.078 1.17.39 1.516-.805l.621-1.247.394-.727c.466-.805.979-1.532 1.54-2.208 1.134-1.35 2.495-2.441 4.166-2.805.716-.233 1.205-.311 1.838-.39a48.397 48.397 0 011.695-.259c1.11-.156 2.316-.286 4.273-.182 2.435.857 8.153.026 11.984.338-.966-.727 3.927-1.35 7.747-1.013L54.633 9.43c12.188-.701 29.746.52 44.022-.805l1.075.623c14.717-.727 29.196.026 43.353-1.169 3.832.338 9.943.546 13.715.546 5.157-.52 6.995-.468 10.504-1.325 1.934-.052 3.116.442 3.856.65 6.481.181 12.688 1.038 17.893.051l.202.52c5.145-.546 12.605-1.169 18.407-.598 1.623-.467 7.436-.649 4.798-1.246 2.292-.13 1.48.883 3.808.311l-2.185.78c13.035.181 24.04-.208 36.634-.598 3.664.883 12.02-.104 19.158.39 4.189-.494 11.459.208 14.574-.91l.203.52c5.598.078 13.154.078 20.483.338 4.285.13 4.285-.65 7.651-.91l.203.52c3.701-.311 4.691-1.142 6.064-1.662 2.853.364 3.175-.026 6.016.338-2.757.285-5.097.857-6.935 1.558 4.524.234 9.084-1.09 11.877-.286 3.652.182 6.541 0 7.102-.597.346.182 2.161.338.43.597 2.781-.207 4.44.65 5.992 1.74-.478-.441-1.146-1.064-1.707-1.324.68.078 1.659.675 2.399 1.298.74.598 1.242 1.065 1.074.364-.644-.675-1.014-.935-1.42-1.273-.406-.311-.847-.727-1.731-1.272.406-.078 1.803.65 3.104 2.233 1.325 1.507 2.423 3.792 2.757 4.831.31.156.275.286.048.39-.132.156-.251-.078-.394-.286-.143-.208-.299-.467-.454-.701-.62-.883-1.122-1.48-.334.104.298.441.621 1.039.907 1.558.382.026.788-.104 1.158-.13l2.017-.363 3.116-.546c-1.576.182-3.426-.156-2.805-.623l-3.044.364.215-.598c-.299.182-.466-.312-.657-.701-.179-.312-.441-.831-.692-1.22a20.35 20.35 0 00-1.516-2.26c-1.015-1.325-2.077-2.338-3.187-3.04-1.11-.726-2.268-1.116-3.486-1.142a38.85 38.85 0 00-3.771.182l2.029.571c-3.151.026-6.339.831-9.227.156 1.42-.234.406-.52.37-.83-.728.103-1.54.31-2.411.233l1.134-.78c-1.922.988-8.344.26-9.681.468l.454-.182c-4.691-.415.823.572-2.34.572-2.697-.156-1.014-1.065-3.509-1.48-4.751.025-12.915.778-18.239.025a171.7 171.7 0 00-12.736.961c-3.784 0 .203-1.013-3.629-.571.406-.338-.108-.701-.442-1.039-.501.39-7.114-.052-4.082.831-5.515-.208-11.722-.286-17.535-.104 1.934-.052 2.447-.701.812-1.013-2.686.624-7.389.987-12.271.805.096.65 1.671.65 1.17 1.273-.728.104-1.91.39-3.127.364-.705-.676-.49-1.715-4.871-1.74 1.182-1.065 7.449.13 5.467-.91 1.934-.857 9.824-.909 11.603-.39 3.891-.882-3.044-.103-2.328-.986-3.509.078-5.145.545-10.6.675-.059.442 1.779.52-.728.883-4.846.935-6.051-.675-7.269-.7a71.006 71.006 0 012.387-.235c-3.199-.311-4.333.286-7.735.234-.919-1.195 5.432-.13 6.685-.883l-2.459-.857c-5.228-.104-1.42.987-6.816.675l.657-.441-3.378.285c-.048.442.68 1.117 3.569 1.04-1.898 1.168-2.662.155-7.246.389-1.468.675 1.946-.052 2.041.597.454.598-2.697.624-4.989.727-3.772 0-1.946-.7-3.462-1.142.717-.13 3.617-.208 3.307.181 4.643-.7-2.018-1.376 1.193-1.87-3.557-.39-3.413.39-5.264.624 1.087.078-.549.675.251.909-6.171 1.792-3.951-1.299-9.871-.987 1.253 1.143-7.914 1.61-3.593 2.857-1.421.208-3.211.467-4.691.337 1.575-.779-2.65-.597.155-1.35h-2.161l3.259-.935c-2.399-.546-6.374-1.065-7.639-1.429-3.128.338.966.754-2.65.935 1.265-.39-.967-.727-2.567-.727 3.211.312.06 1.091-1.969 1.299-3.187 0-5.718-.727-5.252-.91l2.327-.519c-1.325.208-.596-.415-2.673-.207-.669.441-2.149 1.09-2.937 1.662-2.017.182-3.449-.39-4.154-.286l3.211-.467c-4.225.181-.907-1.195-5.252-.883l-1.122.597c-.692-.078-1.098-.26-.788-.468-.943.286-2.924.234-3.855.364l-.299-.39c-1.79.26-4.07 1.143-6.266.364 1.731.961 2.196 0 5.3.442 1.921.727-3.068.675-3.772.779.203-1.04-4.656-.104-6.84-.104-1.277-.364-2.387-.546-3.163-.753l-.848.675c-.823-1.325-4.357.312-6.839-.104 1.265-.416 1.086-.935-.657-1.143 2.352 1.013-3.82 1.247-3.115 1.922-4.441-.363 1.026-1.272-.287-1.974-2.196.78-4.93-.493-6.386.494 3.199.311-.501.65-1.17 1.065-4.034-.078.669-.416-2.184-.78-1.683.13-3.891.91-1.277 1.195-2.352-.234-5.002.727-7.64.104-1.074-.623 4.93-.286 3.402-.727-5.598-.052-2.805 1.532-8.009 1.74 2.232.338.095 1.428-2.411 1.818-5.766-.286 2.506-.39.31-1.169l-2.304.104c-3.187-1.065 6.804-1.766 3.748-2.649l-2.482.364c.549-.312 1.337-.857.322-1.17-.633.754-5.825.209-6.279.365-.513.649 2.018-.182 1.624.337-2.662.156-3.832 1.22-7.914.831 2.244-.467-.848-.883.072-1.246-1.994-.26-.621.753-3.474.415l.322-.39c-10.611-.103-23.86-.051-32.98 1.507-1.66-.623-4.99-.701-10.146-1.117 1.898.208-.203.65-1.48.727l-2.543-.753c-3.103-.415-7.126.286-9.99.701-.514-.155-.67-.363-.813-.545-2.757-.493-2.805.39-3.962.597a6.645 6.645 0 00-2.03-.078l-.394.676c-1.492.779-3.15 2.233-4.332 3.662-1.194 1.35-1.958 2.52-1.922 1.896-.12.208-.227.441-.334.649-.108.234-.227.468-.227.494a5.838 5.838 0 00-.108.39c-.036.18-.012.259.155.051-.06.104-.13.26-.226.286a.526.526 0 00-.203-.052c-.096-.026-.084-.026-.334-.052-.8-.052-1.72-.078-2.71-.13-.99-.026-2.053-.026-3.14-.052-1.647.026-3.318.026-4.965.052l.036 7.714.036 4.934c.023-1.272.047-2.181.083-2.857.012-.441.024-.805.036-1.09.024-.364.036-.65.06-.858.071-.883.155-.805.274-1.064.108.649.155 1.142.167 1.636 0 .26.012.52 0 .805 0 .208-.012.442-.024.675-.035.961-.095 2.26.024 4.416-.155.13-.31 5.012-.417-.234-.072 1.688-.12 4.181-.156 4.441l-.035.545c-.036.13-.156.13-.24.208-.083.052-.166.13-.238.208-.024 0-.382.39-.597.623-1.898 2.286-3.664 5.688-4.965 9.948-1.313 4.259-2.173 9.324-2.4 14.544-.083 1.273-.071 2.65-.095 3.844l.012 3.48C.012 64.414.012 66.699 0 68.959c.072 3.662.131 2.545.239 4.311-.406 11.428.024 25.4-.155 37.711.167-2.753.644 1.117.656 7.974.334 7.48-.465 2.987-.668 9.739.155 3.351.203 9.662.179 12.337l-.06-.208c.179 4.104.286 10.597.12 15.506l-.013-.78c-.035 4-.25 8.649-.214 12.831.31 1.895.119 12.102.393 14.57-.035.519-.06-.26-.119.883l.263.338-.155 8.311c-.108-1.793-.215-2.234-.287-4.572-.19 8.883.239 3.013.382 7.688.191 6.208-.072 5.844-.179 8.857-.131-2.572.06-4.571.012-6.104-.215-3.532-.084 3.766-.239 3.87-.012 1.325.322 1.896.25 6.441-.023 3.948.06 13.194-.238 12.077.155 3.376.131 7.324.263 9.869.047-3.194.12-9.09.31-9.765.036 2.909.107 8.675-.012 9.584l-.071-2.338c.071 2.234-.012 9.999.214 7.013l-.334 5.48c.215 2.233.203 8.337.25 13.323-.298.234-.62-3.792-.692 5.506l.299 8c.024 4.233-.036 5.324-.215 4.675-.167 14.388.824 14.752.561 26.076-.358-4.805-.382-.805-.49 4.285.06.208.18.675.192 2.779.167-1.454-.24-2.987-.012-6.882.227-1.195.155 4.648.227 6.986-.764 10.077-.191 33.504-.55 49.892.43-1.117.12 7.298.287 10.623-.454-1.013.072 9.22-.191 13.661l.43-2.441c-.251 9.973.656 16.232.13 22.44-.13 5.609-.31-1.922-.381-4.26-.477 7.74.382 20.648-.143 26.829.179.675.465-1.636.62 5.117-.19 5.428-.417 16.154-.5 15.167.059 2.26.107 3.688.142 5.169.048 1.584.072 3.22.251 5.843-.167-.389-.37-2.701-.466-4.389a54.527 54.527 0 001.385 11.402c.788 3.324 1.838 6.155 3.104 8.623.31.909.883 2.233 1.695 3.558.394.675.871 1.298 1.372 1.948.167.207.335.389.514.597.119.13.238.234.358.364.083.026.071.207.071.337l-.012.468v.909c-.012 1.272-.012 2.571-.024 3.844-.023 3.142-.06 6.181-.083 8.882.072 1.273.107 2.727.131 4.337.92-.052 1.85-.052 2.781-.052.752.026 1.48.052 2.149.078 1.038 0 1.85-.052 1.993-.493 0 .104.454.234.68.312.765-.182 1.457-.442 2.197-.676.346-.104.692-.207 1.074-.311.144-.026.299-.052.454-.104.131.078.239.415.37.623a.874.874 0 00-.454.104c-.083.13 0 .519.168.935.023.078.358.753.62 1.195.287.519.62 1.039.967 1.532 1.206 1.766 2.662 2.935 3.175 3.48-.537-.675 0-.233.74.26.812.545 1.91.935 2.006.649.811.208 1.683.156 2.435.078 3.64-.208.43-.389 4.917-.493 2.543-.026.86.883-.012.779 2.09.389 4.214.182 6.375.026-.717-.026-.92-.078-.191-.234.047.104.226.156.489.208-.083 0-.167.026-.25.026h.43c-.06 0-.108-.026-.156-.026.836-.052 1.683-.13 2.53-.13-.023.026-.035.026-.047.052-.836.052-1.612.078-2.22.104.56.052 1.36.052 2.172.052h.012c.072.052.298.052.62.026h.06c.74 0 1.433.052 1.898.156l-.62.597c1.563.026 5.896-.649 5.765-.909 6.028.493 15.947.104 20.232-.234-.632.156-.62.286.108.104 2.112-.13 4.5-.623 4.703-.234 2.065-.259 1.921.416 5.085.468.047.104.274-.26.06-.442 5.311.728 11.972-.623 18.274-.078-.513.026-1.277.364-1.79.572 4.917-.312 9.573-.546 13.989-1.247-.465.26-.334.52-1.492.675 2.746-.026 5.837-.129 7.783-.467-.084.026-.251.026-.537.026-2.459-.52 1.933-1.065 4.189-.909l.072.13c3.414-.026 3.569-.364 6.983-.364 2.041.338-1.779.156-.967.546.8.935 7.794.597 8.487.701.823-.208 1.981-.364 1.838-.624 2.686-.233 1.229.572 3.08.52l7.317-1.74c-.311.234 2.387.805.155 1.117 5.55-.13 8.702-1.221 12.139-1.818 1.648.155 7.055-.234 8.905-.26.895.493-1.576-.026-1.981.363l2.793.572c-3.701.104.465.909-1.528 1.272 2.96-.337 10.003.026 14.443.182-3.068-1.091 5.968-.519 5.777-1.48 5.205-.182 2.59.779 4.56.987 5.407-.364 10.552-.104 15.47-.208 0 0 .071.13-.191.208 4.512-.312 11.841-.026 16.365-.883-.203.181.203.363-.967.519 4.858.364.895-1.247 6.517-.649l-1.313.467c3.486-.467 6.768.442 10.743-.311.143.285-.74.363-1.301.493 3.641-.208 7.747-.104 10.826-.753.478.312 0 .571-1.444.805 3.605.364 3.915-.857 7.198-.545.823.052 2.244.337 2.244.441 1.743-.389 6.541-.389 8.308-.545.465.311 1.766.415 3.819.753 18.06-.026 36.55.13 54.49-.727 1.695.571.12.675-1.205.831 1.337-.078 3.903.104 7.412-.078l.227.13c2.328-.182 3.629.363 6.148.104l-.096-.234c1.325-.182 2.853-.13 4.202-.701 1.337-.52 2.494-1.507 3.02-2.753.656-.546 1.301-1.221 1.921-1.974.227-.546.442-1.039.657-1.507.179-.363.322-.883.513-1.09.466-.052.919 0 1.516.052 1.11.077 2.316.207 3.927-.182l-.37.156c.848.077 1.683.103 2.579.077 1.002-.051 1.969-.103 2.84-.207-.119-6.701-.286-10.857-.071-13.22-.012-.935-.012-1.922-.024-2.909l-.012-1.376c.012-.208-.036-.52.024-.65l.286-.285c.728-.676 1.528-1.741 2.209-2.779 1.313-2.156 2.1-4.338 2.184-5.143.633-1.117.454 0 .167 1.091 2.411-5.636 3.76-13.635 3.557-21.557zM47.71 501.86c.49-.052.955-.104 1.325-.078-.394.026-.835.052-1.325.078zM357.785 14.908c-.072.597-.131.909-.191.857.012-.13.024-.312.036-.52-.311-.181-.955-.337-1.313-.519-.346-.156-.43-.337.656-.623.12.26.657.545.812.805z"/><path d="M281.75 2.26c-.979.026-.836.233-1.29.415-.095.13-1.122-.182-1.372-.26.979-.026 1.886-.39 2.662-.155zm-14.324-.572l-7.174.727c.298-.39 4.619-.675 7.174-.727zM241.404.854c-1.635-.31-1.182-.492 1.014-.492.156.207-.561.31-1.014.492zm-4.44.445l.286.077c-.167 0-.274-.026-.286-.077zm3.103.414c-1.361 0-2.125-.155-2.805-.336.859.077 3.235-.182 2.805.336zM199.161.621c-.979.026-3.116.337-4.023-.078 1.027.285 4.775-.491 4.023.078zm-19.003.572c-.621-.026-.872-.104-1.588 0-1.122-.155.06-.44 1.015-.492l.573.492zM.406 383.009l-.084 3.818-.083-4.467.167.649zm110.508 119.808c-1.85.051.692-.466-1.767-.389 2.053-.258 1.433.337 1.767.389zm79.999-2.284h-.621l.203-.779.418.779zm19.194-483.367c.668.026 1.157 0 1.563-.025-.274-.025-.74-.025-1.563.025zm66.259.365c-.764.207-1.397.207-2.005.181.394-.077 1.026-.13 2.005-.18zm-110.747-.781a.97.97 0 00.322-.103c-.155.052-.262.078-.322.104zm88.653 468.641c-.036 0-.084 0-.108.025.072 0 .108-.025.108-.025zm-153.122 1.454c-.334.078-.573.13-.537.026.179-.026.358-.026.537-.026zM178.928 16.75c.144-.025.311-.051.502-.077l-.502.078zm94.896 1.3c-.048 0-.096-.026-.156-.026-2.817-.155-5.252-.623-3.7-.934 1.779.051-.048.285.692.441 1.481-.234 2.531.078 3.701.182-.597.078-.669.208-.537.337zM9.668 397.969v.468c.012 1.013.024 2.025.048 3.012 0-1.272-.024-2-.048-3.48z"/><path d="M351.256 459.107l-.454.416v.052l.143-.13c.382-.364.788-.779 1.242-1.195l-.931.857zm8.797-42.178c-.036-14.908-.096-29.427-.239-42.309.048-1.298.084.312.132 1.065-.263-16.051.274-32.88-.227-44.672l-.203-4.233c.071-3.792.227-3.48.298-6.415-.143-3.143-.048-14.648-.227-16.518.084-1.715.108.727.168.649.047-7.402-.263-15.921-.191-22.907l.095 2.207c.346-36.646.621-84.097.167-114.199-.083-8.207.263-3.636.239-7.272-.382-31.036.262-68.462-.406-96.72-.215-5.428-1.229-9.557-2.244-12.388-1.05-2.831-2.113-4.52-2.972-5.558a8.597 8.597 0 00-.728-.78l.012-.13-1.481-1.194c-.023-1.844-.214-14.415-1.074-17.271.227.051.43.103.561.181.275-.207-.31-.415-.74-.623l-.036-.078c-.68-.78-3.545-.623-5.335-.441-.49-.078-.74-.208-.454-.338l-1.48.104c-.215-.026-.477.182-.645-.078-.179-.312-.334-.623-.537-.961l.227-.078c-1.946-3.61-4.011-5.532-6.159-6.311-1.086-.416-2.185-.338-3.295-.338-1.134 0-2.315.026-3.604.104l1.945.39c-3.008.026-6.052.545-8.821.078 1.361-.13.382-.312.346-.52-.692.052-1.468.208-2.303.156l1.098-.52c-1.827.676-7.986.182-9.263.312l.43-.104c-4.477-.285.787.338-2.232.364-2.579-.104-.979-.701-3.355-.961-4.547 0-12.342.493-17.439 0-4.046.104-8.534.337-12.175.65-3.617 0 .191-.676-3.462-.39.394-.208-.107-.442-.429-.676-.573.234-6.78-.026-3.904.546-5.264-.13-11.208-.182-16.759-.078 1.851-.026 2.34-.442.776-.65-2.566.416-7.066.624-11.733.52.083.415 1.599.415 1.11.831-.692.078-1.815.26-2.972.234-.681-.442-.478-1.117-4.668-1.143.251-.156.764-.234 1.385-.286-3.103.156-4.082-.597-5.073-.623.68-.052 1.6-.13 2.292-.156-3.068-.208-4.142.182-7.401.156-.883-.78 5.193-.078 6.386-.571l-2.339-.572c-5.002-.078-1.373.65-6.53.442l.633-.286-3.223.182c-.048.286.645.727 3.414.675-1.814.753-2.554.104-6.935.26-1.409.441 1.862-.052 1.958.39.429.39-2.579.39-4.775.467-3.605 0-1.85-.468-3.306-.753.68-.052 3.461-.13 3.163.13 4.44-.442-1.934-.91 1.134-1.195-3.366-.26-3.259.234-4.978.39.919.052-.561.441.191.597-5.908 1.143-3.784-.857-9.442-.65 1.194.728-7.567 1.04-3.437 1.845-1.361.13-3.068.311-4.477.233 1.504-.52-2.53-.39.144-.883h-2.065l3.115-.597c-2.292-.364-6.088-.701-7.305-.935-2.984.208.919.493-2.531.597 1.206-.26-.931-.467-2.459-.467 3.068.208.06.727-1.885.857-3.032 0-5.455-.494-5.014-.598l2.22-.337c-1.253.13-.573-.286-2.542-.13-.657.286-2.065.701-2.805 1.065-1.934.13-3.319-.234-3.987-.182l3.068-.312c-4.035.13-.86-.779-5.014-.571l-1.074.39c-.644-.052-1.026-.156-.752-.286-.895.182-2.805.13-3.688.234l-.287-.26c-1.707.156-3.891.753-5.992.234 1.659.623 2.101 0 5.061.285 1.85.468-2.924.442-3.593.52.191-.675-4.452-.078-6.541-.078-1.217-.208-2.28-.364-3.02-.494l-.823.442c-.776-.857-4.154.208-6.53-.078 1.206-.26 1.039-.597-.62-.727 2.232.65-3.665.805-2.997 1.247-4.237-.234.991-.832-.262-1.273-2.101.493-4.715-.338-6.112.312 3.068.207-.477.415-1.11.7-3.855-.051.633-.285-2.089-.519-1.611.078-3.724.572-1.229.78-2.244-.156-4.775.467-7.305.077-1.027-.415 4.727-.181 3.258-.467-5.347-.052-2.685.987-7.651 1.117 2.125.208.084.935-2.316 1.169-5.502-.182 2.4-.234.299-.754l-2.196.078c-3.056-.701 6.493-1.169 3.581-1.74l-2.376.234c.525-.182 1.277-.546.311-.753-.609.493-5.563.13-6.005.26-.489.415 1.934-.13 1.552.207-2.542.104-3.664.78-7.556.52 2.137-.286-.823-.546.06-.806-1.898-.155-.597.494-3.318.286l.298-.26c-10.146-.078-22.799-.026-31.524.987-1.588-.415-4.763-.467-9.705-.727 1.827.156-.179.416-1.408.468l-2.423-.494c-2.972-.26-6.828.182-9.561.442-.49-.078-.633-.208-.776-.338-2.614-.312-2.722.26-3.748.364l-1.707-.338-.382.338c-.669.052-1.409.078-2.113.13-.74.077-1.468.311-2.077.57-1.23.52-2.053 1.144-1.922.728-.967.91-1.838 2.078-.93 1.247-.586.52-1.326 1.376-2.113 2.597-.215.364-.454.727-.68 1.143-.12.234-.252.467-.383.701-.036.078-.095.026-.143.052l-.25-.026h-.92c-2.829.026-5.98.052-8.618.078 0 1.506.012 2.753.012 3.974.024-1.689.036-2.987.048-3.844 1.742.13 1.611.285 1.874.545-.466.312-.836.26-1.54.182a105.849 105.849 0 00.024 5.48c-.108.104-.203 4.779-.275-.234-.036 1.714-.06 3.533-.095 5.402-.024 1.559-.036 3.195-.06 4.857.072.468-.227.442-.322.598-.418.441-.907.986-1.35 1.61-.882 1.22-1.73 2.727-2.47 4.441-1.492 3.454-2.602 7.844-3.127 12.57-.263 2.338-.358 4.831-.37 7.143 0 2.207 0 4.39-.012 6.57.048 3.481.095 2.416.155 4.104-.263 10.909.024 24.284-.096 36.049.108-2.649.418 1.091.43 7.636.215 7.143-.31 2.857-.441 9.324.107 3.195.13 9.22.119 11.766l-.036-.208c.107 3.947.18 10.155.072 14.83l-.012-.727c-.012 3.817-.155 8.259-.132 12.258.203 1.792.072 11.584.251 13.921-.024.52-.036-.233-.083.831l.179.338-.096 7.948c-.072-1.715-.143-2.13-.19-4.364-.12 8.493.154 2.857.25 7.35.12 5.922-.048 5.584-.12 8.467-.083-2.467.036-4.363.012-5.844-.143-3.376-.06 3.585-.155 3.714-.012 1.247.203 1.819.167 6.156-.024 3.792.024 12.596-.155 11.531.096 3.221.072 7.013.155 9.454.036-3.064.084-8.7.203-9.35.024 2.779.084 8.285 0 9.168l-.048-2.233c.048 2.13-.011 9.558.144 6.701l-.227 5.22c.143 2.156.143 7.999.167 12.752-.191.208-.406-3.636-.454 5.273l.203 7.661c.012 4.026-.024 5.065-.143 4.442-.107 13.765.537 14.102.358 24.933-.227-4.597-.25-.779-.31 4.103.036.208.12.65.12 2.649.107-1.376-.156-2.857 0-6.571.142-1.168.095 4.442.142 6.675-.5 9.636-.119 32.024-.358 47.685.275-1.065.084 6.986.18 10.181-.287-.987.06 8.804-.12 13.038l.287-2.338c-.168 9.532.43 15.532.083 21.453-.083 5.377-.203-1.818-.25-4.051-.31 7.402.25 19.738-.096 25.634.12.649.31-1.558.406 4.909-.12 5.168-.275 15.453-.323 14.492l.084 4.883c.024 1.35-.012 2.961.096 5.402-.096-.364-.215-2.337-.251-3.87 0 7.896 1.468 14.077 3.688 18.804a17.64 17.64 0 001.588 3.298c.37.65.8 1.247 1.265 1.87.239.26.477.52.716.806.108.103.227.233.346.337.084.026.072.208.072.338l-.012.441v1.377c0 1.247-.012 2.493-.012 3.74-.024 2.857-.036 5.61-.06 8.051.036.831.06 1.74.072 2.727.442-.026.907-.052 1.385-.078h1.337c.632 0 1.265.026 1.826.026 1.11.026 1.981 0 2.137-.311 0 .078.43.155.644.207.728-.104 1.397-.285 2.1-.441.276 0 .526-.338.717.182.299.519.62 1.039.979 1.636l-.633-.442c-.274-.104.788 2 2.173 3.507 1.17 1.402 2.578 2.155 3.103 2.493-.12-.104-.19-.156-.215-.208.072 0 .454.182.908.364.775.311 1.802.363 1.886.182l2.184-.156c3.485-.13.418-.234 4.703-.312 2.28-.026 1.003.494.155.494 1.982.259 3.987.129 6.028.025-.764 0-1.015-.051-.275-.155.048.078.215.104.478.13.024.025.06 0 .095 0 .764-.026 1.552-.078 2.328-.078-.012.026-.024.026-.036.026-.883.026-1.695.052-2.292.052.538.051 1.385.051 2.245.051.083.052.346.052.716.026.68 0 1.325.026 1.742.104l-.584.364c1.504.026 5.646-.416 5.514-.571 5.73.311 15.112.051 19.242-.13-.49.078-.466.156.203.052 2.017-.078 4.309-.416 4.5-.156 1.97-.156 1.838.259 4.858.285.048.078.298-.207-.024-.285 5.073.493 11.447-.39 17.475-.026-.489.026-1.182.234-1.659.363 4.703-.181 9.167-.363 13.393-.831-.442.182-.311.338-1.421.442 2.531 0 5.372-.078 7.234-.26h-.311c-2.339-.338 1.851-.701 4.011-.623l.06.104c3.27-.026 3.414-.234 6.684-.234 1.958.208-1.707.104-.931.338.776.623 7.461.389 8.117.467.788-.13 1.898-.234 1.767-.389 2.554-.182 1.169.363 2.936.311l7.007-1.117c-.287.156 2.268.52.131.728 5.312-.078 8.332-.806 11.602-1.195 1.588.104 6.745-.13 8.523-.156.848.312-1.504-.026-1.898.234l2.662.363c-3.533.078.454.598-1.456.832 2.829-.208 9.561.025 13.822.129-2.948-.701 5.694-.337 5.515-.961 4.977-.129 2.471.494 4.357.65 5.18-.26 10.086-.078 14.801-.156 0 0 .06.078-.191.13 4.321-.182 11.316 0 15.649-.572-.203.13.191.26-.931.338 4.643.234.859-.805 6.231-.416l-1.254.312c3.331-.312 6.47.286 10.278-.208.131.182-.717.234-1.254.312 3.474-.13 7.413-.052 10.349-.493.466.207 0 .389-1.372.519 3.449.26 3.736-.545 6.875-.338.776.026 2.137.234 2.137.286 1.671-.26 6.266-.26 7.949-.364.442.208 1.695.26 3.653.494 17.26-.026 34.938.104 52.091-.468 1.766.39-.155.442-1.468.546 1.181-.078 3.76.078 7.412-.052l.203.078c2.232-.104 3.474.233 5.873.078l-.072-.156c1.266-.182 2.674 0 3.939.13 1.254.207 2.447.078 3.08-.572a6.172 6.172 0 001.981-.779c1.158-1.273 2.042-2.311 2.949-3.662.429-.649.955-1.532 1.265-2.233.406-.182 1.122-.104 1.898-.26l-.358.104c1.361.078 2.745.052 4.058-.026 1.373-.104 2.662-.182 3.748-.26-.024-2.779-.024-4.831.048-6l-.036-5.895c0-.935-.012-1.87-.024-2.779 0-.416-.012-.831-.012-1.247.06-.338.299-.389.442-.571 1.361-1.351 2.304-3.195 2.483-3.766.632-.935.37-.026-.024.805 2.698-4.389 4.524-11.532 4.727-19.115.048-7.506-.012-15.038-.024-22.492zm-1.134-303.016c-.131 25.297-.263 50.464-.406 76.955.048 17.895.155 41.296.048 57.762.024 34.621-.084 69.345-.179 104.252l-.108 52.489v26.388c0 2.155.024 4.493 0 6.493a42.723 42.723 0 01-.393 5.584c-.442 3.454-1.302 6.701-2.459 9.272.775-1.507-.072 1.143-1.194 2.935l-.334.337c-.299.468-.597.987-.919 1.377l-.239.311c-.048.052-.048.078-.203.234l-.263.286-1.014 1.039c-.346.078-.239.779-.263 1.246v1.325c-.012.753-.012 1.351-.024 1.766-.012.623-.036.597-.059.39-.012-.052-.012-.13-.024-.234-.012-.156-.012-.364-.024-.623-.012-.468-.024-1.091-.036-1.792 0-.364-.012-.754-.012-1.169 0-.208-.012-.416-.012-.624v-.337c-.036.311-.012.701-.024 1.013v8.441c.012 1.818.012 3.584.012 5.298-1.957 0-3.879.026-5.789.026h-2.28c-.31-.182-.477.493-.692.857-.179.39-.49 1.013-.537 1.065-.191.389-.394.753-.609 1.091-.836 1.35-1.755 2.441-2.746 3.194-.978.753-2.017 1.195-3.055 1.273h-3.545c-2.412 0-4.835-.026-7.294-.026-.835.519-6.565.026-7.006.571-.585-.104-.036-.13.322-.233-8.761.285-9.358.285-17.332-.39-34.019-.442-66.82-.052-100.314-.208-33.9.234-67.215.468-101.974.701-5.324.831-12.629.442-18.931 1.169l.406-.26c-5.372.39-6.745-.052-13.56-.363-.072.285-2.614.078-1.636.545-2.363.442-4.26-.675-7.663-.467-.12-.156.084.311-.644.156-8.786.597 1.683-.286-9.466-.754-2.602.026-5.204.078-7.819.104l-3.915.078-.978.026c-.299-.026-.597-.026-.884-.078a6.377 6.377 0 01-1.742-.571c-1.134-.623-2.233-1.61-3.223-3.013-.251-.338-.49-.701-.728-1.117-.108-.182-.227-.363-.335-.597-.119-.208-.203-.338-.441-.831-.203-.364-.382-.909-.621-1.091h-1.886c-2.232.052-4.464.078-6.672.104 0-2.026-.012-4.026-.012-6v-9.09l-.18-.156-.358-.337-.716-.676-.179-.181-.155-.156-.191-.208a9.392 9.392 0 01-.752-.935c-.49-.649-.943-1.402-1.373-2.208-.787-1.48-1.48-3.22-2.029-5.142.322 1.195.31 1.688-.358-.545-.179-1.455-.716-3.637-1.074-6.312-.394-2.701-.466-5.765-.382-8.726.083.415.083 3.272.155 4.519l.036-10.571c-.012-3.48-.012-6.856-.024-10.233-.012-6.571-.024-13.038.048-19.894-.156-13.324.167-28.933-.024-37.893.155 2.129.107-5.948.19-8.805-.44-9.662.144-25.946-.143-38.049l.072.416c-.036-36.128.072-75.475-.131-113.187-.048-21.219.346-45.139.155-68.462-.06-4.259-.155-.883-.203-4.337.012-5.87.143.078.191-2.234-.179-11.479.036-26.621.036-41.01-.072-1.714-.096-5.74-.191-4.389.072-3.974.095-8.337.107-12.908.012-4.077.49-8.285 1.492-11.973.991-3.662 2.483-6.7 4.166-8.597l.322-.363c.227-.26.418-.39.633-.598l.62-.571.311-.286c.12-.078.036-.441.06-.649 0-1.636.012-3.247.012-4.83.024-2.208.036-4.338.06-6.39-.12 1.714-.18 1.532-.215.286a72.677 72.677 0 01-.036-2.494c-.012-.415-.012-.909-.012-1.402.441 0 .919 0 1.36-.026.776 0 1.48-.026 2.006-.052 1.492.026 1.66.26 1.206.416.93-.026 1.79-.026 2.602-.052h1.396c.155.078.239-.26.334-.416l.299-.623.286-.572.168-.311c.441-.805.895-1.559 1.384-2.182.967-1.273 2.041-2.285 3.307-2.83.632-.26 1.3-.442 2.029-.442.8.026 1.659.052 2.59.078 3.104-.104 3.951-.546 7.687-.416 2.328.571 7.807.026 11.471.234-.93-.494 3.748-.883 7.389-.676l-1.122.702c11.65-.442 28.445.337 42.088-.52l1.026.39c14.074-.468 27.908.026 41.456-.727 3.653.207 9.501.337 13.094.337 4.93-.337 6.697-.311 10.051-.857 1.85-.052 2.972.286 3.688.416 6.195.104 12.128.675 17.105.026l.191.363c4.918-.363 12.056-.779 17.607-.39 1.539-.31 7.102-.44 4.583-.83 2.185-.078 1.409.571 3.641.207l-2.101.494c12.474.13 22.99-.13 35.034-.39 3.497.598 11.483-.052 18.31.26 3.999-.312 10.958.156 13.93-.597l.203.363c5.348.052 12.569.13 19.576.208 4.094.078 4.094-.416 7.317-.597l.191.337c3.545-.207 4.488-.727 5.801-1.09 2.722.26 3.032 0 5.754.233-2.638.182-4.882.572-6.637 1.013 4.333.156 8.678-.701 11.352-.182 3.521.13 6.266 0 6.779-.39.227.105 2.137.209.43.39 1.504.026 2.746-.104 3.748.052.931.13 1.731.468 2.507.91-.442-.286-1.349-.884-2.065-1.04.656 0 1.623.364 2.351.832.729.441 1.218.83 1.003.337-1.301-.987-1.385-1.039-3.115-1.766.382-.078 1.742.312 3.032 1.506 1.313 1.17 2.482 3.117 2.864 4.052.454 1.117-.179.052-.752-.675-.585-.753-1.098-1.299-.262.026.561.779 1.002 1.428 1.575 2.545.06.182.155.156.251.156l.275-.026.513-.078.239-.026.011.338c1.23-.182 4.095-.494 5.67-.208.024.052.167.104.394.156.108.026.227.026.334.052.108.052.191.13.251.181.764.883 1.134 13.895 1.134 17.324v.363l1.611 1.299c1.898 2.363 3.462 5.974 4.381 10.233a45.36 45.36 0 011.003 8.597c.06 3.012.024 6.415.036 9.583-.024 12.857-.036 25.531-.06 38.179zM120.356 486.196c.119 0 .203 0 .239-.026-.072.026-.168.026-.239.026zm231.831-27.946l-.931.857-.454.416v.052l.143-.13c.382-.364.788-.779 1.242-1.195zm-36.407 27.634c-.023-.129.12-.207.43-.259-.668.026-1.05.104-.43.259zm-74.686-467.99c1.838-.545 9.394-.597 11.101-.259 3.7-.571-2.925-.052-2.233-.65-3.366.053-4.917.364-10.134.442-.059.312 1.695.338-.692.572-.704.104-1.325.155-1.886.181 2.077-.104 5.312.234 3.844-.285zM120.618 486.17c.43-.052.788-.104 1.075-.182-1.683-.13-.896.078-1.075.182z"/><path d="M21.414 30.127a3.5 3.5 0 00.299-.077c-.645 0-1.314.026-2.042.026l1.743.051zm252.601-11.921a.86.86 0 01-.191-.156c.226.078.274.13.191.156zm64.23 3.766c.119.078.203.13.251.13-.084-.052-.167-.078-.251-.13zm-59.599-4.077c-.943.025-.8.155-1.229.258-.096.078-1.075-.103-1.313-.155.931-.026 1.802-.259 2.542-.104zm-13.691-.364l-6.864.466c.287-.259 4.429-.44 6.864-.466zm-24.876-.547c-1.564-.207-1.134-.337.967-.337.155.13-.537.207-.967.337zm-1.277.546c-1.254 0-1.97-.077-2.602-.207.883.026 2.996-.13 2.602.207zm-2.602-.207c-.215 0-.358-.026-.37-.078.119.026.238.052.37.078zm-36.502-.495c-.943 0-2.984.207-3.856-.051.979.18 4.572-.31 3.856.051zm-18.179.362c-.585-.025-.824-.051-1.505 0-1.086-.103.06-.284.967-.31l.538.31zM7.651 374.698l-.06 3.636-.06-4.259.12.623zm105.304 112.51c-1.707.026.466-.259-1.432-.259 1.647-.129 1.122.233 1.432.259zm76.477-1.479h-.596l.203-.494.393.494zM.406 383.009l-.084 3.818-.083-4.467.167.649zm3.174 27.998a145.553 145.553 0 01-.07-3.272v-.364c.059 1.532.083 2.312.07 3.636z"/><path d="M7.651 374.698l-.06 3.636-.06-4.259.12.623zM12.593 17.79c.155 0 .31 0 .466-.025a1.004 1.004 0 01-.31.13l-.538-.052c.131-.026.263-.026.382-.052zm85.406 484.483c.203 0 .406-.026.597-.026-.37.129-.621.207-.597.026zm2.614-15.402c.179-.026.358-.026.537-.026-.334.078-.573.13-.537.026zm10.301 15.946c-1.85.051.692-.466-1.767-.389 2.053-.258 1.433.337 1.767.389zm.609-15.868c1.647-.129 1.122.233 1.432.259-1.707.026.466-.259-1.432-.259zm8.546 13.999c-.31.103-.716.181-1.193.259.382-.13-.705-.492 1.193-.259zm.549-14.779c.179-.103-.608-.31 1.075-.181-.287.078-.645.13-1.075.181zM177.973.388c-.25.052-.453.104-.632.13l.632-.13zm.597.805c-1.122-.155.06-.44 1.015-.492l.573.492c-.621-.026-.872-.104-1.588 0zm1.445 15.999c-1.087-.103.059-.284.966-.31l.538.31c-.585-.026-.824-.051-1.504 0zm8.821 468.537l.203-.494.393.494h-.596zm1.659 14.025l.418.779h-.621l.203-.779zM195.138.543c1.027.285 4.775-.491 4.023.078-.979.026-3.116.337-4.023-.078zm4.56 16.287c-.943 0-2.984.206-3.856-.052.979.18 4.572-.311 3.856.051zm11.936-15.765a9.486 9.486 0 01-1.575.052c.787-.078 1.277-.078 1.575-.052zM236.2 17.323c-.215 0-.358-.026-.37-.078.119.026.238.052.37.078zm1.05-15.947c-.167 0-.274-.026-.286-.077l.286.077zm1.552 16.154c-1.254 0-1.97-.077-2.602-.207.883.026 2.996-.13 2.602.207zm1.265-15.817c-1.361 0-2.125-.155-2.805-.336.859.077 3.235-.182 2.805.336zm.012 15.272c-1.563-.207-1.134-.337.967-.337.155.13-.537.207-.967.337zM241.404.854c-1.635-.31-1.182-.492 1.014-.492.156.207-.561.31-1.014.492zM237.25 18.18a18.726 18.726 0 001.886-.181c2.388-.234.633-.26.693-.572 5.216-.078 6.768-.39 10.134-.441-.693.597 5.932.078 2.232.65-1.707-.339-9.263-.287-11.101.259 1.468.52-1.767.182-3.844.285zm20.841-.183c.287-.259 4.429-.44 6.864-.466l-6.864.466zm9.335-16.309l-7.174.727c.298-.39 4.619-.675 7.174-.727zm6.398 16.362c-.048 0-.096-.026-.156-.026-2.817-.155-5.252-.623-3.7-.934 1.779.052-.048.285.692.441 1.481-.234 2.531.078 3.701.182-.597.078-.669.208-.537.337zm.191.156a.899.899 0 01-.192-.155c.227.077.275.129.192.155zm2.351-.675c-.764.207-1.397.207-2.005.181.394-.077 1.026-.13 2.005-.18zm-3.688-16.492c1.85.052-.06.441.716.675 1.528-.363 2.602.13 3.808.26-.585.156-.633.363-.49.571-.047-.026-.107-.052-.167-.078-2.96-.233-5.503-.96-3.867-1.428zm4.225 1.713a.734.734 0 01-.179-.207c.215.078.263.156.179.207zm.323-.779c.417-.104 1.086-.207 2.136-.259a4.27 4.27 0 01-2.136.259zm-1.122 16.025c.931-.026 1.802-.259 2.542-.104-.943.026-.8.156-1.229.26-.096.077-1.075-.104-1.313-.156zm2.984-15.583c.979-.026 1.886-.39 2.662-.155-.979.026-.836.233-1.29.415-.095.13-1.122-.182-1.372-.26zm36.692 483.469c-.62-.156-.238-.233.43-.259-.31.051-.454.129-.43.259zm7.759 14.493c-.334.078-.489.181-.453.388-.645-.233-.251-.31.453-.388zM344.118 9.245c-.084 0-.299-.182-.585-.44.191.155.394.284.585.44zm12.199 5.481c-.346-.156-.43-.337.656-.623.12.26.657.545.812.805-.072.597-.131.909-.191.857.012-.13.024-.312.036-.52-.311-.181-.955-.337-1.313-.519zm1.444 16.804c-.143-1.247-.239-3.013-.131-6.026.083 9.22.298-4.96.131 6.026zM120.595 486.17c-.036.025-.12.025-.239.025.071 0 .167 0 .239-.025z"/><path d="M359.688 162.325c.024 3.636-.322-.935-.239 7.272.454 30.102.179 77.553-.167 114.199l-.095-2.207c-.072 6.986.239 15.505.191 22.907-.06.078-.084-2.364-.167-.649.179 1.87.083 13.375.226 16.518-.071 2.935-.226 2.623-.298 6.415l.203 4.233c.501 11.792-.036 28.621.227 44.672-.048-.753-.084-2.363-.132-1.065.144 12.883.203 27.401.239 42.309.012 7.454.072 14.986.024 22.492-.203 7.583-2.029 14.726-4.727 19.115.394-.831.657-1.74.024-.805-.179.571-1.122 2.415-2.483 3.766-.143.182-.382.233-.441.571 0 .416.012.831.012 1.247.011.909.023 1.844.023 2.779l.036 5.895c-.071 1.169-.071 3.221-.048 6-1.086.078-2.375.156-3.748.26a35.146 35.146 0 01-4.058.026l.358-.104c-.776.156-1.492.078-1.898.26-.31.701-.835 1.584-1.265 2.233-.907 1.351-1.791 2.389-2.948 3.662a6.177 6.177 0 01-1.982.779c-.633.65-1.826.779-3.079.572-1.266-.13-2.674-.312-3.94-.13l.072.156c-2.399.155-3.641-.182-5.873-.078l-.203-.078c-3.652.13-6.23-.026-7.412.052 1.313-.104 3.235-.156 1.468-.546-17.153.572-34.831.442-52.091.468-1.958-.234-3.211-.286-3.653-.494-1.683.104-6.278.104-7.949.364 0-.052-1.361-.26-2.137-.286-3.139-.207-3.426.598-6.875.338 1.372-.13 1.838-.312 1.372-.519-2.936.441-6.875.363-10.349.493.538-.078 1.385-.13 1.254-.312-3.808.494-6.947-.104-10.278.208l1.254-.312c-5.372-.389-1.588.65-6.231.416 1.122-.078.728-.208.931-.338-4.333.572-11.328.39-15.649.572.251-.052.191-.13.191-.13-4.715.078-9.621-.104-14.801.156-1.886-.156.621-.779-4.357-.65.179.624-8.463.26-5.515.961-4.261-.104-10.993-.337-13.822-.13 1.91-.233-2.077-.753 1.456-.831l-2.662-.363c.394-.26 2.746.078 1.898-.234-1.778.026-6.935.26-8.522.156-3.271.389-6.291 1.117-11.603 1.195 2.137-.208-.417-.572-.131-.728l-7.007 1.117c-1.766.052-.382-.493-2.936-.312.131.156-.979.26-1.767.39-.656-.078-7.341.156-8.117-.467-.775-.234 2.889-.13.932-.338-3.271 0-3.414.208-6.685.234l-.06-.104c-2.16-.078-6.35.286-4.01.623h.31c-1.862.182-4.703.26-7.233.26 1.11-.104.978-.26 1.42-.442-4.226.468-8.69.65-13.393.831.478-.129 1.17-.337 1.659-.363-6.028-.364-12.402.519-17.475.026.323.078.072.363.024.285-3.02-.025-2.888-.441-4.858-.285-.19-.26-2.483.078-4.5.156-.669.104-.692.026-.203-.052-4.13.181-13.512.441-19.242.13.132.155-4.01.597-5.514.571l.585-.364c-.418-.078-1.063-.104-1.743-.104-.37.026-.633.026-.716-.026-.86 0-1.707 0-2.244-.052-.036 0-.072.026-.096 0-.072.026-.143.026-.203.026-2.04.104-4.046.234-6.028-.026.848 0 2.125-.519-.155-.493-4.285.078-1.217.182-4.703.312l-2.184.156c-.084.181-1.11.129-1.886-.182-.454-.182-.836-.364-.907-.364.023.052.095.104.215.208-.526-.338-1.934-1.091-3.104-2.493-1.385-1.507-2.447-3.61-2.172-3.507l.632.442c-.358-.597-.68-1.117-.979-1.636-.19-.52-.441-.182-.716-.182-.704.156-1.373.338-2.1.441-.215-.052-.645-.129-.645-.207-.155.311-1.027.337-2.137.311-.56 0-1.194-.026-1.826-.026h-1.337c-.477.026-.943.052-1.385.078a88.478 88.478 0 00-.071-2.727c.024-2.441.035-5.194.06-8.051 0-1.247.011-2.493.011-3.74v-1.377l.012-.441c0-.13.012-.312-.071-.338-.12-.104-.24-.234-.347-.338a22.284 22.284 0 00-.716-.805c-.465-.623-.895-1.22-1.265-1.87a17.631 17.631 0 01-1.588-3.298c-2.22-4.727-3.688-10.908-3.688-18.804.036 1.533.155 3.506.25 3.87-.107-2.441-.07-4.052-.095-5.402l-.083-4.883c.047.961.203-9.324.322-14.492-.095-6.467-.286-4.26-.406-4.909.346-5.896-.215-18.232.096-25.634.047 2.233.167 9.428.25 4.051.346-5.921-.25-11.921-.083-21.453l-.287 2.338c.18-4.234-.167-14.025.12-13.038-.096-3.195.095-11.246-.18-10.181.24-15.661-.143-38.049.359-47.685-.048-2.233 0-7.843-.144-6.675-.155 3.714.108 5.195 0 6.571 0-1.999-.083-2.441-.119-2.649.06-4.882.084-8.7.31-4.103.18-10.831-.465-11.168-.358-24.933.12.623.156-.416.144-4.442l-.203-7.661c.047-8.909.262-5.065.453-5.273-.024-4.753-.024-10.596-.167-12.752l.227-5.22c-.155 2.857-.096-4.571-.143-6.701l.047 2.233c.084-.883.024-6.389 0-9.168-.119.65-.167 6.286-.202 9.35-.084-2.441-.06-6.233-.156-9.454.18 1.065.132-7.739.156-11.531.035-4.337-.18-4.909-.168-6.156.096-.129.012-7.09.156-3.714.023 1.481-.096 3.377-.012 5.844.071-2.883.238-2.545.119-8.467-.095-4.493-.37 1.143-.25-7.35.047 2.234.119 2.649.19 4.364l.096-7.948-.18-.338c.049-1.064.06-.311.084-.831-.179-2.337-.047-12.129-.25-13.921-.024-3.999.119-8.441.131-12.258l.012.727c.107-4.675.036-10.882-.072-14.83l.036.208c.012-2.546-.012-8.571-.12-11.766.132-6.467.657-2.181.442-9.324-.012-6.545-.322-10.285-.43-7.636.12-11.765-.166-25.14.096-36.049-.06-1.688-.107-.623-.155-4.103.012-2.182.012-4.364.012-6.571.012-2.312.107-4.805.37-7.143.525-4.726 1.635-9.116 3.127-12.57.74-1.714 1.588-3.22 2.471-4.441.442-.623.931-1.169 1.349-1.61.095-.156.394-.13.322-.598.024-1.662.036-3.298.06-4.857.036-1.87.06-3.688.095-5.402.072 5.013.168.338.275.234a107.073 107.073 0 01-.024-5.48c.704.078 1.074.13 1.54-.182-.263-.26-.131-.415-1.874-.545-.012.857-.024 2.155-.048 3.844 0-1.221-.012-2.468-.012-3.974 2.638-.026 5.79-.052 8.618-.078h.92l.25.026c.048-.026.108.026.143-.052.132-.234.263-.467.382-.701.227-.416.466-.78.68-1.143.789-1.22 1.529-2.078 2.114-2.597-.908.83-.036-.338.93-1.247-.13.416.693-.208 1.922-.727.61-.26 1.337-.494 2.077-.572.705-.051 1.445-.077 2.113-.13l.382-.337 1.707.338c1.026-.104 1.134-.676 3.748-.364.143.13.286.26.776.338 2.733-.26 6.589-.702 9.561-.442l2.423.494c1.23-.052 3.235-.312 1.409-.468 4.941.26 8.117.312 9.704.727 8.726-1.013 21.378-1.064 31.524-.987l-.298.26c2.721.208 1.42-.441 3.318-.286-.883.26 2.077.52-.06.806 3.892.26 5.014-.416 7.556-.52.382-.337-2.041.208-1.551-.208.441-.13 5.395.234 6.004-.26.967.208.215.572-.311.754l2.376-.234c2.912.571-6.637 1.039-3.581 1.74l2.196-.078c2.101.52-5.801.572-.298.753 2.399-.233 4.44-.96 2.315-1.168 4.966-.13 2.304-1.169 7.652-1.117 1.468.286-4.286.052-3.259.467 2.531.39 5.061-.233 7.305-.078-2.495-.207-.382-.7 1.23-.779 2.721.234-1.767.468 2.089.52.632-.286 4.177-.494 1.11-.701 1.396-.65 4.01.181 6.111-.312 1.253.441-3.975 1.039.263 1.273-.669-.442 5.228-.598 2.996-1.247 1.659.13 1.826.467.62.727 2.376.286 5.754-.78 6.53.078l.823-.442c.74.13 1.803.286 3.02.494 2.089 0 6.733-.597 6.542.078.668-.078 5.443-.052 3.592-.52-2.96-.285-3.402.338-5.061-.285 2.101.52 4.286-.078 5.992-.234l.287.26c.883-.104 2.793-.052 3.688-.234-.274.13.108.234.752.286l1.075-.39c4.154-.208.978.701 5.013.571l-3.068.312c.669-.052 2.053.312 3.987.182.74-.364 2.149-.78 2.805-1.065 1.97-.156 1.289.26 2.543.13l-2.221.338c-.441.103 1.982.597 5.014.597 1.945-.13 4.953-.65 1.886-.857 1.528 0 3.664.208 2.459.467 3.449-.104-.454-.39 2.53-.597 1.218.234 5.014.571 7.305.935l-3.115.597h2.065c-2.674.494 1.361.364-.143.883 1.408.078 3.115-.103 4.476-.233-4.13-.806 4.631-1.117 3.438-1.844 5.657-.208 3.533 1.792 9.441.649-.752-.156.728-.546-.191-.598 1.719-.155 1.612-.649 4.978-.389-3.068.286 3.306.753-1.134 1.195.298-.26-2.483-.182-3.163-.13 1.456.285-.299.753 3.306.753 2.196-.078 5.204-.078 4.775-.468-.096-.441-3.366.052-1.958-.39 4.381-.155 5.121.494 6.935-.259-2.769.052-3.461-.39-3.414-.675l3.223-.182-.632.286c5.156.208 1.528-.52 6.529-.442l2.34.572c-1.194.493-7.27-.208-6.387.571 3.259.026 4.333-.364 7.401-.156-.692.026-1.611.104-2.292.156.991.026 1.97.78 5.073.623-.62.052-1.134.13-1.384.286 4.189.026 3.986.701 4.667 1.143 1.158.026 2.28-.156 2.972-.234.489-.416-1.026-.416-1.11-.831 4.667.104 9.167-.104 11.734-.52 1.563.208 1.074.624-.776.65 5.55-.104 11.495-.052 16.759.078-2.877-.572 3.33-.312 3.903-.546.322.234.823.468.429.676 3.653-.286-.155.39 3.462.39 3.641-.313 8.129-.546 12.175-.65 5.097.493 12.892 0 17.44 0 2.375.26.775.857 3.354.96 3.02-.025-2.244-.648 2.232-.363l-.43.104c1.277-.13 7.437.364 9.263-.311l-1.098.519c.835.052 1.611-.104 2.303-.156.036.208 1.015.39-.346.52 2.77.467 5.813-.052 8.821-.078l-1.945-.39a59.013 59.013 0 013.605-.104c1.11 0 2.208-.078 3.294.338 2.149.779 4.214 2.7 6.159 6.311l-.226.078c.202.337.358.65.537.96.167.26.429.053.644.079l1.48-.104c-.286.13-.035.26.454.338 1.79-.182 4.655-.338 5.336.441l.035.078c.43.208 1.015.416.74.623-.131-.078-.334-.13-.561-.181.86 2.856 1.051 15.427 1.075 17.27l1.48 1.196-.012.13c.227.207.465.467.728.779.859 1.038 1.922 2.727 2.972 5.558 1.015 2.83 2.029 6.96 2.244 12.388.669 28.258.024 65.684.406 96.72z"/></g><defs><clipPath id="clip0"><path fill="#fff" d="M0 0h367v503H0z"/></clipPath></defs></svg>