<svg width="367" height="437" fill="none" xmlns="http://www.w3.org/2000/svg"><g clip-path="url(#clip0)" fill="#FAAE5D"><path d="M357.761 27.393c-.143-1.083-.239-2.617-.131-5.235.083 8.01.298-4.31.131 5.235zM3.58 357.078a110.37 110.37 0 01-.07-2.843v-.316c.059 1.331.083 2.008.07 3.159zm9.013-341.622c.155 0 .31 0 .466-.022-.084.045-.191.09-.31.112l-.538-.045c.131-.022.263-.022.382-.045zm85.406 420.912c.203 0 .406-.022.597-.022-.37.112-.621.18-.597.022zm22.07-1.151c-.31.09-.716.158-1.193.225.382-.112-.705-.427 1.193-.225zM177.973.337c-.25.045-.453.09-.632.113l.632-.113zm33.661.588c-.406.045-.907.067-1.575.045.787-.067 1.277-.067 1.575-.045zm61.044-.022c1.85.045-.06.383.716.586 1.528-.316 2.602.113 3.808.226-.585.135-.633.316-.49.496a2.225 2.225 0 00-.167-.067c-2.96-.203-5.503-.835-3.867-1.241zm4.225 1.488a.673.673 0 01-.179-.18c.215.068.263.135.179.18zm.323-.677c.417-.09 1.086-.18 2.136-.225a4.873 4.873 0 01-2.136.225zm46.313 433.007c-.334.068-.489.157-.453.337-.645-.202-.251-.269.453-.337zm20.579-426.69c-.084 0-.299-.157-.585-.382.191.135.394.248.585.382z"/><path d="M366.976 386.865l-.071-20.421c-.06-13.539-.156-26.739-.382-38.449.071-1.174.131.27.202.97-.393-14.599.418-29.898-.346-40.593l-.322-3.859c.131-3.429.346-3.158.466-5.821-.215-2.866-.06-13.313-.347-15.005.132-1.557.168.632.263.586.072-6.724-.406-14.486-.298-20.826l.143 2.008c.537-33.305.967-76.425.262-103.773-.119-7.468.418-3.317.371-6.611-.287-14.125-.203-29.649-.156-44.903.024-7.604.036-15.14-.024-22.383a735.054 735.054 0 00-.131-10.628c-.083-3.43-.06-6.86-.394-9.883-.429-4.829-1.552-8.44-2.709-10.83-1.146-2.438-2.292-3.792-3.187-4.627-.92-.79-1.588-1.128-2.018-1.263a3.912 3.912 0 00-.62-.158c2.65 1.805 4.906 5.506 6.207 10.131.668 2.302 1.074 4.829 1.253 7.401.155 2.437.083 5.551.107 8.44 0 11.71-.035 23.218-.095 34.703-.131 22.993-.358 45.873-.621 69.949.072 16.246.227 37.524.06 52.484.048 31.477-.12 63.022-.263 94.724-.047 15.863-.107 31.771-.155 47.724 0 7.965 0 15.952-.012 23.963l.012 6.002.012 1.512c0 .519 0 .992-.012 1.354 0 .812-.048 1.602-.095 2.414-.251 3.159-.884 6.228-1.898 8.868.907-2.167.31.586-.693 2.64l-.334.315a17.763 17.763 0 01-1.599 2.956c-.227.271-.406.497-.573.632a7.97 7.97 0 01-.514.429c-.37.293-.477.271-.31.045.096-.09.227-.271.418-.496.095-.136.215-.294.358-.474.227-.361.561-.722.907-1.264-.322.474-.692.835-1.038 1.219l-.335.338a7.24 7.24 0 01-.644.564l-1.277 1.061-.633.541c-.024.406 0 .88-.012 1.309l.012 2.64v3.723c0 2.099.012 4.152.012 6.138l-.155.022h-.955c-1.146.023-2.28.023-3.414.023-1.432 0-2.853.022-4.273.022-.43.519-.8 1.309-1.194 1.986l-.358.587-.275.406c-.37.541-.752 1.038-1.157 1.466-1.612 1.805-3.462 2.731-5.336 2.753-2.28 0-4.56-.022-6.887-.022-.872.699-6.864.022-7.317.767-.609-.136-.036-.158.334-.316-9.156.361-9.788.383-18.12-.519-35.583-.587-69.9-.09-104.946-.293-35.451.315-70.306.631-106.664.947-5.563 1.129-13.202.61-19.791 1.58l.418-.339c-5.622.497-7.055-.113-14.18-.519-.072.384-2.734.091-1.708.745-2.483.564-4.464-.925-8.021-.632-.12-.203.083.406-.669.203-9.19.79 1.755-.361-9.907-.993l-8.057.136-3.963.067c-1.158-.045-2.316-.428-3.402-1.128-1.098-.699-2.136-1.737-3.08-3.046l-.346-.496-.453-.767-.633-1.084c-.107-.135-.19-.428-.322-.451l-.43.023-2.495.022c-2.124.045-4.225.091-6.326.113-.012-1.557-.012-3.114-.012-4.648l-.012-3.904.012-2.888v-2.392c-.012-.135.012-.293-.024-.383l-.19-.158-1.529-1.286a10.925 10.925 0 01-.382-.339l-.286-.293a2.625 2.625 0 01-.382-.406 13.527 13.527 0 01-1.456-1.918c-.836-1.309-1.576-2.843-2.173-4.536.346 1.061.275 1.58-.441-.338-.132-1.354-.729-3.182-1.182-5.483-.478-2.324-.74-4.919-.609-7.446.12.496.143 2.662.31 3.813-.119-2.73 0-6.228-.023-9.342-.012-3.136-.012-6.227-.024-9.274-.024-5.979-.048-11.913.071-18.186-.25-12.095.263-26.22-.035-34.32.226 1.918.167-5.416.274-8.011-.668-8.777.239-23.579-.215-34.568l.12.384c-.048-32.854.107-68.595-.203-102.87-.072-19.293.525-41.022.226-62.21-.083-3.881-.226-.812-.298-3.971.024-5.325.215.09.287-2.008-.263-10.447.06-24.189.047-37.276-.107-1.557-.131-5.213-.286-3.972.107-3.632.155-7.604.167-11.733v-3.114c.024-.902.036-1.805.095-2.707.12-1.805.358-3.588.717-5.325.728-3.408 1.945-6.476 3.45-8.71.381-.52.763-1.06 1.169-1.49.203-.248.382-.406.633-.654.393-.383.86-.7 1.265-1.06l.62-.497.311-.27c.107-.09.239-.113.203-.384 0-.858.012-1.692.012-2.527.012-.835.024-1.67.024-2.505l.035-1.49c-.25 2.167-.346.971-.382-1.534-.011-1.737-.023-4.354-.035-6.43.25-.023.465-.045.632-.09.215.022.299.067.478.112.239.045.382.113.43.158.083.09 0 .203-.191.27.143.024.286 0 .43 0 .799-.022 1.551-.022 2.267-.044 1.516-.023 2.889-.023 4.285-.045.538-.068 1.17.338 1.516-.7l.621-1.083.394-.632c.466-.7.979-1.331 1.54-1.918 1.134-1.173 2.495-2.12 4.166-2.437.716-.203 1.205-.27 1.838-.338.597-.09 1.134-.158 1.695-.226 1.11-.135 2.316-.248 4.273-.158 2.435.745 8.153.023 11.984.294-.966-.632 3.927-1.174 7.747-.88l-1.182.925c12.188-.61 29.746.451 44.022-.7l1.075.542c14.717-.632 29.196.022 43.353-1.016 3.832.294 9.943.474 13.715.474 5.157-.451 6.995-.406 10.504-1.15 1.934-.046 3.116.383 3.856.564 6.481.158 12.688.902 17.893.045l.202.451c5.145-.474 12.605-1.015 18.407-.519 1.623-.406 7.436-.564 4.798-1.083 2.292-.113 1.48.767 3.808.27l-2.185.678c13.035.158 24.04-.18 36.634-.52 3.664.768 12.02-.09 19.158.34 4.189-.43 11.459.18 14.574-.79l.203.45c5.598.068 13.154.068 20.483.294 4.285.113 4.285-.564 7.651-.79l.203.452c3.701-.271 4.691-.993 6.064-1.444 2.853.315 3.175-.023 6.016.293-2.757.248-5.097.744-6.935 1.354 4.524.203 9.084-.948 11.877-.249 3.652.158 6.541 0 7.102-.519.346.158 2.161.294.43.52 2.781-.181 4.44.564 5.992 1.511-.478-.383-1.146-.925-1.707-1.15.68.067 1.659.586 2.399 1.128.74.519 1.242.925 1.074.316-.644-.587-1.014-.813-1.42-1.106-.406-.27-.847-.632-1.731-1.106.406-.067 1.803.564 3.104 1.94 1.325 1.31 2.423 3.295 2.757 4.198.31.135.275.248.048.338-.132.136-.251-.067-.394-.248-.143-.18-.299-.406-.454-.61-.62-.766-1.122-1.285-.334.091.298.384.621.903.907 1.354.382.023.788-.09 1.158-.113l2.017-.316 3.116-.474c-1.576.158-3.426-.135-2.805-.541l-3.044.316.215-.52c-.299.159-.466-.27-.657-.608-.179-.271-.441-.723-.692-1.061a17.752 17.752 0 00-1.516-1.963c-1.015-1.15-2.077-2.03-3.187-2.64-1.11-.632-2.268-.97-3.486-.993-1.193 0-2.423.045-3.771.158l2.029.496c-3.151.023-6.339.722-9.227.136 1.42-.203.406-.451.37-.722-.728.09-1.54.27-2.411.203l1.134-.677c-1.922.857-8.344.226-9.681.406l.454-.158c-4.691-.36.823.497-2.34.497-2.697-.136-1.014-.926-3.509-1.287-4.751.023-12.915.677-18.239.023-4.238.135-8.929.451-12.736.835-3.784 0 .203-.88-3.629-.497.406-.293-.108-.609-.442-.902-.501.338-7.114-.045-4.082.722-5.515-.18-11.722-.248-17.535-.09 1.934-.045 2.447-.61.812-.88-2.686.541-7.389.857-12.271.7.096.563 1.671.563 1.17 1.105-.728.09-1.91.338-3.127.316-.705-.587-.49-1.49-4.871-1.512 1.182-.925 7.449.113 5.467-.79 1.934-.745 9.824-.79 11.603-.338 3.891-.768-3.044-.09-2.328-.858-3.509.068-5.145.474-10.6.587-.059.383 1.779.451-.728.767-4.846.812-6.051-.587-7.269-.61a81.387 81.387 0 012.387-.202c-3.199-.271-4.333.248-7.735.203-.919-1.038 5.432-.113 6.685-.767l-2.459-.745c-5.228-.09-1.42.857-6.816.587l.657-.384-3.378.248c-.048.384.68.97 3.569.903-1.898 1.015-2.662.135-7.246.338-1.468.587 1.946-.045 2.041.52.454.518-2.697.54-4.989.631-3.772 0-1.946-.61-3.462-.993.717-.113 3.617-.18 3.307.158 4.643-.609-2.018-1.196 1.193-1.624-3.557-.339-3.413.338-5.264.541 1.087.068-.549.587.251.79-6.171 1.557-3.951-1.128-9.871-.858 1.253.993-7.914 1.4-3.593 2.483-1.421.18-3.211.406-4.691.293 1.575-.677-2.65-.52.155-1.173h-2.161l3.259-.813c-2.399-.474-6.374-.925-7.639-1.24-3.128.293.966.654-2.65.811 1.265-.338-.967-.631-2.567-.631 3.211.27.06.947-1.969 1.128-3.187 0-5.718-.632-5.252-.79l2.327-.451c-1.325.18-.596-.361-2.673-.18-.669.383-2.149.947-2.937 1.443-2.017.158-3.449-.338-4.154-.248l3.211-.406c-4.225.158-.907-1.038-5.252-.767l-1.122.519c-.692-.068-1.098-.226-.788-.406-.943.248-2.924.203-3.855.316l-.299-.339c-1.79.226-4.07.993-6.266.316 1.731.835 2.196 0 5.3.384 1.921.631-3.068.586-3.772.677.203-.903-4.656-.09-6.84-.09-1.277-.317-2.387-.475-3.163-.655l-.848.587c-.823-1.151-4.357.27-6.839-.09 1.265-.362 1.086-.813-.657-.993 2.352.88-3.82 1.083-3.115 1.67-4.441-.317 1.026-1.106-.287-1.716-2.196.677-4.93-.428-6.386.43 3.199.27-.501.563-1.17.924-4.034-.067.669-.36-2.184-.677-1.683.113-3.891.79-1.277 1.038-2.352-.203-5.002.632-7.64.09-1.074-.541 4.93-.248 3.402-.631-5.598-.045-2.805 1.331-8.009 1.512 2.232.293.095 1.24-2.411 1.58-5.766-.25 2.506-.34.31-1.016l-2.304.09c-3.187-.925 6.804-1.534 3.748-2.302l-2.482.316c.549-.27 1.337-.744.322-1.015-.633.654-5.825.18-6.279.316-.513.564 2.018-.158 1.624.293-2.662.136-3.832 1.06-7.914.722 2.244-.406-.848-.767.072-1.083-1.994-.226-.621.654-3.474.361l.322-.338c-10.611-.09-23.86-.045-32.98 1.308-1.66-.541-4.99-.609-10.146-.97 1.898.18-.203.564-1.48.632l-2.543-.654c-3.103-.361-7.126.248-9.99.609-.514-.136-.67-.316-.813-.474-2.757-.429-2.805.338-3.962.519a7.633 7.633 0 00-2.03-.068l-.394.587c-1.492.677-3.15 1.94-4.332 3.181-1.194 1.174-1.958 2.19-1.922 1.648-.12.18-.227.383-.334.564-.108.203-.227.406-.227.428a4.56 4.56 0 00-.108.339c-.036.158-.012.226.155.045-.06.09-.13.226-.226.248a.59.59 0 00-.203-.045c-.096-.022-.084-.022-.334-.045-.8-.045-1.72-.068-2.71-.113-.99-.022-2.053-.022-3.14-.045-1.647.023-3.318.023-4.965.045l.036 6.702.036 4.287a68.23 68.23 0 01.083-2.482c.012-.384.024-.7.036-.948.024-.316.036-.564.06-.744.071-.768.155-.7.274-.926.108.564.155.993.167 1.422 0 .226.012.451 0 .7 0 .18-.012.383-.024.586-.035.835-.095 1.963.024 3.836-.155.113-.31 4.355-.417-.203-.072 1.467-.12 3.633-.156 3.858l-.035.474c-.036.113-.156.113-.24.18a1.188 1.188 0 00-.238.181c-.024 0-.382.339-.597.542-1.898 1.985-3.664 4.941-4.965 8.642-1.313 3.7-2.173 8.1-2.4 12.636-.083 1.105-.071 2.301-.095 3.34l.012 3.023C.012 55.96.012 57.947 0 59.91c.072 3.181.131 2.211.239 3.746-.406 9.928.024 22.067-.155 32.763.167-2.392.644.97.656 6.927.334 6.498-.465 2.595-.668 8.461.155 2.911.203 8.394.179 10.718l-.06-.18c.179 3.565.286 9.206.12 13.471l-.013-.677c-.035 3.475-.25 7.514-.214 11.146.31 1.648.119 10.515.393 12.659-.035.451-.06-.226-.119.767l.263.293-.155 7.221c-.108-1.557-.215-1.941-.287-3.971-.19 7.717.239 2.617.382 6.679.191 5.393-.072 5.077-.179 7.694-.131-2.234.06-3.971.012-5.302-.215-3.069-.084 3.271-.239 3.362-.012 1.15.322 1.647.25 5.595-.023 3.43.06 11.463-.238 10.493.155 2.933.131 6.363.263 8.574.047-2.775.12-7.897.31-8.484.036 2.527.107 7.537-.012 8.326l-.071-2.031c.071 1.941-.012 8.688.214 6.093l-.334 4.761c.215 1.94.203 7.243.25 11.575-.298.203-.62-3.294-.692 4.784l.299 6.95c.024 3.678-.036 4.625-.215 4.061-.167 12.501.824 12.817.561 22.655-.358-4.175-.382-.7-.49 3.723.06.18.18.586.192 2.414.167-1.264-.24-2.595-.012-5.979.227-1.038.155 4.039.227 6.069-.764 8.755-.191 29.108-.55 43.346.43-.97.12 6.341.287 9.229-.454-.88.072 8.01-.191 11.869l.43-2.122c-.251 8.665.656 14.103.13 19.496-.13 4.874-.31-1.67-.381-3.701-.477 6.725.382 17.939-.143 23.309.179.587.465-1.421.62 4.445-.19 4.716-.417 14.035-.5 13.178.059 1.963.107 3.204.142 4.49.048 1.376.072 2.798.251 5.077-.167-.338-.37-2.347-.466-3.813.072 3.723.621 7.04 1.385 9.905.788 2.889 1.838 5.348 3.104 7.492.31.789.883 1.94 1.695 3.091.394.587.871 1.128 1.372 1.692.167.181.335.339.514.519.119.113.238.203.358.316.083.023.071.181.071.293l-.012.407v.789c-.012 1.106-.012 2.234-.024 3.34-.023 2.73-.06 5.37-.083 7.717a81.17 81.17 0 01.131 3.768c.92-.045 1.85-.045 2.781-.045.752.022 1.48.045 2.149.068 1.038 0 1.85-.046 1.993-.429 0 .09.454.203.68.271.765-.158 1.457-.384 2.197-.587.346-.09.692-.181 1.074-.271.144-.022.299-.045.454-.09.131.068.239.361.37.541a.98.98 0 00-.454.091c-.083.113 0 .451.168.812.023.068.358.654.62 1.038.287.451.62.902.967 1.331 1.206 1.535 2.662 2.55 3.175 3.024-.537-.587 0-.203.74.225.812.474 1.91.813 2.006.565.811.18 1.683.135 2.435.067 3.64-.18.43-.338 4.917-.428 2.543-.023.86.767-.012.676 2.09.339 4.214.158 6.375.023-.717-.023-.92-.068-.191-.203.047.09.226.135.489.18-.083 0-.167.023-.25.023h.43c-.06 0-.108-.023-.156-.023.836-.045 1.683-.112 2.53-.112-.023.022-.035.022-.047.045-.836.045-1.612.067-2.22.09.56.045 1.36.045 2.172.045h.012c.072.045.298.045.62.023h.06c.74 0 1.433.045 1.898.135l-.62.519c1.563.023 5.896-.564 5.765-.79 6.028.429 15.947.091 20.232-.203-.632.136-.62.248.108.091 2.112-.113 4.5-.542 4.703-.204 2.065-.225 1.921.361 5.085.407.047.09.274-.226.06-.384 5.311.632 11.972-.542 18.274-.068-.513.023-1.277.316-1.79.497 4.917-.271 9.573-.474 13.989-1.083-.465.225-.334.451-1.492.586 2.746-.022 5.837-.113 7.783-.406-.084.023-.251.023-.537.023-2.459-.452 1.933-.925 4.189-.79l.072.113c3.414-.023 3.569-.316 6.983-.316 2.041.293-1.779.135-.967.474.8.812 7.794.519 8.487.609.823-.181 1.981-.316 1.838-.542 2.686-.203 1.229.497 3.08.452l7.317-1.512c-.311.203 2.387.699.155.97 5.55-.113 8.702-1.06 12.139-1.579 1.648.135 7.055-.203 8.905-.226.895.429-1.576-.023-1.981.316l2.793.496c-3.701.091.465.79-1.528 1.106 2.96-.293 10.003.023 14.443.158-3.068-.948 5.968-.451 5.777-1.286 5.205-.158 2.59.677 4.56.857 5.407-.316 10.552-.09 15.47-.18 0 0 .071.113-.191.18 4.512-.271 11.841-.022 16.365-.767-.203.158.203.316-.967.451 4.858.316.895-1.083 6.517-.564l-1.313.406c3.486-.406 6.768.384 10.743-.27.143.248-.74.316-1.301.428 3.641-.18 7.747-.09 10.826-.654.478.271 0 .496-1.444.699 3.605.316 3.915-.744 7.198-.473.823.045 2.244.293 2.244.383 1.743-.338 6.541-.338 8.308-.474.465.271 1.766.361 3.819.655 18.06-.023 36.55.113 54.49-.632 1.695.496.12.587-1.205.722 1.337-.068 3.903.09 7.412-.068l.227.113c2.328-.158 3.629.316 6.148.09l-.096-.203c1.325-.158 2.853-.113 4.202-.609 1.337-.451 2.494-1.309 3.02-2.392a13.922 13.922 0 001.921-1.715c.227-.473.442-.902.657-1.308.179-.316.322-.768.513-.948.466-.045.919 0 1.516.045 1.11.068 2.316.181 3.927-.158l-.37.136c.848.067 1.683.09 2.579.067 1.002-.045 1.969-.09 2.84-.18-.119-5.822-.286-9.432-.071-11.485-.012-.813-.012-1.67-.024-2.528l-.012-1.196c.012-.18-.036-.451.024-.564l.286-.248c.728-.587 1.528-1.512 2.209-2.414 1.313-1.873 2.1-3.768 2.184-4.468.633-.97.454 0 .167.948 2.411-4.897 3.76-11.846 3.557-18.728zM47.71 436.009c.49-.045.955-.09 1.325-.067-.394.022-.835.045-1.325.067zM357.785 12.952c-.072.519-.131.79-.191.745.012-.113.024-.271.036-.452-.311-.158-.955-.293-1.313-.451-.346-.136-.43-.293.656-.542.12.226.657.474.812.7z"/><path d="M281.75 1.963c-.979.023-.836.203-1.29.361-.095.113-1.122-.158-1.372-.226.979-.022 1.886-.338 2.662-.135zm-14.324-.496l-7.174.631c.298-.338 4.619-.586 7.174-.631zM241.404.742c-1.635-.27-1.182-.427 1.014-.427.156.18-.561.27-1.014.427zm-4.44.386l.286.067c-.167 0-.274-.022-.286-.067zm3.103.36c-1.361 0-2.125-.135-2.805-.292.859.067 3.235-.157 2.805.292zM199.161.54c-.979.022-3.116.292-4.023-.068 1.027.247 4.775-.427 4.023.068zm-19.003.496c-.621-.022-.872-.09-1.588 0-1.122-.134.06-.382 1.015-.427l.573.427zM.406 332.754l-.084 3.317-.083-3.882.167.565zm110.508 104.087c-1.85.045.692-.405-1.767-.338 2.054-.224 1.433.293 1.767.338zm79.998-1.985h-.62l.203-.676.417.676zm19.194-419.942c.669.021 1.158 0 1.564-.022-.274-.022-.74-.022-1.564.022zm66.26.316c-.764.18-1.397.18-2.005.158.394-.067 1.026-.112 2.005-.157zm-110.747-.678a1.08 1.08 0 00.322-.09c-.155.046-.262.068-.322.09zm88.653 407.15c-.036 0-.084 0-.108.021a.23.23 0 00.108-.021zm-153.122 1.263c-.334.067-.573.111-.537.022.179-.022.358-.022.537-.022zm77.778-408.413c.144-.022.311-.044.502-.067l-.502.067zm94.896 1.13c-.048 0-.096-.023-.156-.023-2.817-.135-5.252-.541-3.7-.812 1.779.045-.048.248.692.384 1.481-.203 2.531.067 3.701.158-.597.067-.669.18-.537.293zM9.668 345.75v.407c.012.88.024 1.76.048 2.617 0-1.106-.024-1.737-.048-3.024z"/><path d="M351.256 398.867l-.454.361v.045l.143-.113c.382-.316.788-.677 1.242-1.038l-.931.745zm8.797-36.645c-.036-12.951-.096-25.565-.239-36.757.048-1.128.084.271.131.926-.262-13.945.275-28.567-.226-38.811l-.203-3.678c.071-3.294.227-3.023.298-5.573-.143-2.73-.048-12.726-.227-14.351.084-1.489.108.632.168.564.047-6.431-.263-13.832-.191-19.901l.095 1.918c.346-31.839.621-73.063.167-99.215-.083-7.13.263-3.159.239-6.318-.382-26.964.262-59.48-.406-84.029-.215-4.716-1.229-8.304-2.244-10.763-1.05-2.46-2.113-3.926-2.972-4.829a8.018 8.018 0 00-.728-.677l.012-.113-1.481-1.038c-.023-1.602-.214-12.523-1.074-15.005.227.046.43.09.561.158.275-.18-.31-.36-.74-.541a41.741 41.741 0 00-.036-.068c-.68-.677-3.545-.541-5.335-.383-.49-.068-.74-.181-.454-.294l-1.48.09c-.215-.022-.477.158-.645-.067-.179-.271-.334-.542-.537-.835l.227-.068c-1.946-3.136-4.011-4.806-6.159-5.483-1.086-.361-2.185-.293-3.295-.293a67.91 67.91 0 00-3.605.09l1.946.338c-3.008.023-6.052.474-8.821.068 1.361-.113.382-.27.346-.451-.692.045-1.468.18-2.304.135l1.099-.451c-1.827.587-7.986.158-9.263.27l.43-.09c-4.477-.248.787.294-2.233.316-2.578-.09-.978-.609-3.354-.835-4.547 0-12.342.43-17.439 0-4.046.09-8.535.294-12.175.565-3.617 0 .191-.587-3.462-.339.394-.18-.107-.384-.429-.586-.573.202-6.78-.023-3.904.473-5.264-.113-11.208-.158-16.759-.067 1.851-.023 2.34-.384.776-.565-2.566.361-7.066.542-11.733.452.083.36 1.599.36 1.11.722-.693.068-1.815.226-2.972.203-.681-.384-.478-.97-4.668-.993.251-.135.764-.203 1.385-.248-3.103.135-4.082-.52-5.073-.542.68-.045 1.6-.113 2.292-.135-3.068-.18-4.142.158-7.401.135-.883-.677 5.193-.067 6.386-.496l-2.339-.496c-5.002-.068-1.373.564-6.53.383l.633-.248-3.223.158c-.048.248.645.632 3.414.586-1.814.655-2.554.09-6.935.226-1.409.384 1.862-.045 1.958.339.429.338-2.579.338-4.775.406-3.605 0-1.85-.406-3.307-.655.681-.045 3.462-.112 3.164.113 4.44-.383-1.934-.79 1.134-1.038-3.366-.225-3.259.203-4.978.339.919.045-.561.383.191.519-5.908.993-3.784-.745-9.442-.564 1.194.631-7.567.902-3.437 1.602-1.361.113-3.068.27-4.477.203 1.504-.451-2.53-.339.144-.767h-2.065l3.115-.52c-2.292-.315-6.088-.609-7.305-.812-2.984.18.919.429-2.531.52 1.206-.226-.931-.407-2.459-.407 3.068.18.06.632-1.886.745-3.031 0-5.455-.429-5.013-.52l2.22-.293c-1.253.113-.573-.248-2.542-.112-.657.248-2.065.609-2.805.925-1.934.113-3.319-.203-3.987-.158l3.068-.271c-4.035.113-.86-.677-5.014-.496l-1.074.338c-.645-.045-1.026-.135-.752-.248-.895.158-2.805.113-3.688.203l-.287-.226c-1.707.136-3.891.655-5.992.203 1.659.542 2.101 0 5.061.249 1.85.406-2.924.383-3.593.45.191-.586-4.452-.067-6.541-.067-1.217-.18-2.28-.316-3.02-.428l-.824.383c-.775-.745-4.153.18-6.529-.068 1.206-.225 1.039-.519-.62-.631 2.232.564-3.665.699-2.997 1.083-4.237-.203.991-.722-.262-1.106-2.101.429-4.715-.293-6.112.27 3.068.181-.477.362-1.11.61-3.855-.045.633-.248-2.089-.451-1.611.067-3.724.496-1.229.677-2.244-.136-4.775.406-7.305.067-1.027-.36 4.727-.158 3.258-.406-5.347-.045-2.685.858-7.651.97 2.125.18.084.813-2.316 1.016-5.502-.158 2.4-.203.299-.654l-2.196.067c-3.056-.61 6.493-1.015 3.58-1.512l-2.375.203c.525-.157 1.277-.473.31-.654-.608.429-5.562.113-6.004.226-.489.36 1.934-.113 1.552.18-2.542.09-3.664.677-7.556.451 2.137-.248-.823-.473.06-.699-1.898-.135-.597.429-3.318.248l.298-.225c-10.146-.068-22.799-.023-31.524.857-1.588-.361-4.763-.406-9.705-.632 1.827.136-.179.361-1.408.406l-2.423-.428c-2.972-.226-6.828.158-9.561.383-.49-.067-.633-.18-.776-.293-2.614-.27-2.722.226-3.748.316l-1.707-.293-.382.293c-.669.045-1.409.067-2.113.113-.74.067-1.468.27-2.077.496-1.23.451-2.053.993-1.922.632-.967.79-1.838 1.805-.93 1.083-.586.451-1.326 1.196-2.113 2.256-.215.316-.454.632-.68.993-.12.203-.252.406-.383.61-.036.067-.095.022-.143.045l-.25-.023h-.92c-2.829.023-5.98.045-8.618.068 0 1.308.012 2.392.012 3.452.024-1.467.036-2.595.048-3.34 1.742.113 1.611.249 1.874.474-.466.271-.836.226-1.54.158a79.379 79.379 0 00.024 4.761c-.108.09-.203 4.152-.275-.203-.036 1.49-.06 3.069-.095 4.694-.024 1.353-.036 2.775-.06 4.22.072.405-.227.383-.322.518-.418.384-.907.858-1.35 1.399-.882 1.06-1.73 2.37-2.47 3.858-1.492 3.002-2.602 6.815-3.127 10.922-.263 2.03-.358 4.197-.37 6.205 0 1.918 0 3.813-.012 5.708.047 3.024.095 2.099.155 3.566-.263 9.477.024 21.097-.096 31.319.108-2.302.418.947.43 6.633.215 6.206-.31 2.483-.442 8.101.108 2.775.132 8.01.12 10.222l-.036-.181c.107 3.43.18 8.823.072 12.884l-.012-.632c-.012 3.317-.155 7.176-.132 10.651.203 1.557.072 10.063.251 12.094-.024.451-.036-.203-.083.722l.179.293-.096 6.905c-.072-1.489-.143-1.85-.19-3.791-.12 7.379.154 2.482.25 6.386.12 5.145-.048 4.851-.12 7.356-.083-2.144.036-3.791.012-5.077-.143-2.933-.06 3.114-.155 3.227-.012 1.083.203 1.579.167 5.347-.024 3.295.024 10.944-.155 10.019.096 2.798.072 6.092.155 8.213.036-2.662.084-7.559.203-8.123.024 2.414.084 7.198 0 7.965l-.048-1.94c.048 1.85-.012 8.303.144 5.821l-.227 4.536c.143 1.872.143 6.949.167 11.079-.191.18-.406-3.159-.454 4.58l.203 6.657c.012 3.497-.024 4.4-.143 3.858-.107 11.959.537 12.252.358 21.662-.227-3.994-.25-.677-.31 3.565.036.18.12.564.12 2.301.107-1.196-.156-2.482 0-5.708.142-1.016.095 3.858.142 5.799-.5 8.371-.119 27.821-.358 41.427.275-.925.084 6.07.18 8.846-.287-.858.06 7.649-.12 11.327l.286-2.031c-.167 8.281.43 13.493.084 18.638-.084 4.671-.203-1.58-.25-3.52-.311 6.431.25 17.149-.096 22.271.12.564.31-1.354.406 4.264-.12 4.491-.275 13.426-.323 12.591l.084 4.242c.024 1.174-.012 2.573.095 4.694-.095-.316-.214-2.031-.25-3.362 0 6.859 1.468 12.229 3.688 16.336a14.56 14.56 0 001.588 2.866c.37.564.8 1.083 1.265 1.624.239.226.477.452.716.7.108.09.227.203.346.293.084.023.072.181.072.293l-.012.384v1.196c0 1.083-.012 2.166-.012 3.249-.024 2.482-.036 4.874-.06 6.995.036.722.06 1.512.072 2.369.442-.022.907-.045 1.385-.067h1.337c.632 0 1.265.022 1.826.022 1.11.023 1.981 0 2.137-.271 0 .068.43.136.644.181.728-.09 1.397-.248 2.1-.384.275 0 .526-.293.717.158.298.452.62.903.979 1.422l-.633-.384c-.274-.09.788 1.738 2.173 3.046 1.17 1.219 2.578 1.873 3.103 2.167-.12-.091-.19-.136-.215-.181.072 0 .454.158.907.316.776.271 1.803.316 1.886.158l2.185-.136c3.485-.112.418-.203 4.703-.27 2.28-.023 1.002.428.155.428 1.982.226 3.987.113 6.028.023-.764 0-1.015-.045-.275-.135.048.067.215.09.478.112.024.023.06 0 .095 0 .764-.022 1.552-.067 2.328-.067-.012.022-.024.022-.036.022-.883.023-1.695.045-2.292.045.538.046 1.385.046 2.244.046.084.045.347.045.717.022.68 0 1.325.023 1.742.09l-.584.316c1.504.023 5.645-.361 5.514-.496 5.73.271 15.112.045 19.242-.113-.49.068-.466.135.203.045 2.017-.068 4.309-.361 4.5-.135 1.97-.136 1.838.225 4.858.248.048.068.298-.181-.024-.248 5.073.428 11.447-.339 17.475-.023-.489.023-1.182.203-1.659.316 4.703-.158 9.167-.316 13.393-.722-.442.158-.311.293-1.421.384 2.531 0 5.372-.068 7.234-.226h-.311c-2.339-.293 1.851-.609 4.011-.542l.06.091c3.27-.023 3.414-.203 6.684-.203 1.958.18-1.707.09-.931.293.776.542 7.461.338 8.117.406.788-.113 1.898-.203 1.767-.338 2.554-.158 1.169.316 2.936.27l7.007-.97c-.287.136 2.268.451.131.632 5.312-.068 8.332-.7 11.602-1.038 1.588.09 6.744-.113 8.523-.135.848.27-1.504-.023-1.898.203l2.662.316c-3.533.067.454.519-1.456.722 2.829-.181 9.561.022 13.822.112-2.948-.609 5.694-.293 5.515-.834 4.977-.113 2.471.428 4.357.564 5.18-.226 10.086-.068 14.801-.136 0 0 .06.068-.191.113 4.321-.158 11.316 0 15.649-.496-.203.113.191.225-.931.293 4.643.203.859-.699 6.231-.361l-1.254.271c3.33-.271 6.47.248 10.278-.181.131.158-.717.203-1.254.271 3.474-.113 7.413-.045 10.349-.429.466.181 0 .339-1.373.452 3.45.225 3.737-.474 6.876-.294.776.023 2.137.203 2.137.249 1.671-.226 6.266-.226 7.949-.316.442.18 1.695.225 3.653.428 17.26-.022 34.938.091 52.091-.406 1.766.339-.155.384-1.468.474 1.181-.068 3.76.068 7.412-.045l.203.068c2.232-.091 3.474.203 5.873.067l-.072-.135c1.265-.158 2.674 0 3.939.113 1.254.18 2.447.067 3.08-.497a6.747 6.747 0 001.981-.677c1.158-1.105 2.041-2.008 2.949-3.181.429-.564.955-1.331 1.265-1.941.406-.158 1.122-.09 1.898-.225l-.358.09c1.36.068 2.745.045 4.058-.023 1.373-.09 2.662-.158 3.748-.225-.024-2.415-.024-4.197.048-5.213l-.036-5.122c0-.812-.012-1.624-.024-2.414 0-.361-.012-.722-.012-1.083.06-.293.299-.339.442-.496 1.361-1.174 2.304-2.776 2.483-3.272.632-.813.37-.023-.024.699 2.698-3.813 4.524-10.018 4.727-16.607.048-6.521-.012-13.065-.024-19.541zm-1.134-263.256c-.131 21.978-.263 43.843-.406 66.858.048 15.547.155 35.877.048 50.183.024 30.078-.084 60.246-.179 90.572l-.108 45.602v22.926c0 1.872.024 3.903 0 5.641a32.204 32.204 0 01-.394 4.851c-.441 3.001-1.301 5.821-2.458 8.055.775-1.308-.072.993-1.194 2.55l-.334.293c-.299.407-.597.858-.919 1.196l-.239.271c-.048.045-.048.068-.203.203l-.263.248-1.014.903c-.346.068-.239.677-.263 1.083v1.151c-.012.654-.012 1.173-.024 1.534-.012.542-.036.519-.059.339-.012-.046-.012-.113-.024-.204-.012-.135-.012-.315-.024-.541-.012-.406-.024-.948-.036-1.557 0-.316-.012-.654-.012-1.015 0-.181-.012-.361-.012-.542v-.293c-.036.271-.012.609-.024.88v7.333c.012 1.58.012 3.114.012 4.603-1.957 0-3.879.023-5.789.023h-2.28c-.31-.158-.477.428-.692.744-.179.339-.49.88-.537.925a9.399 9.399 0 01-.609.948c-.836 1.174-1.755 2.121-2.746 2.776-.978.654-2.017 1.038-3.055 1.105h-3.545c-2.412 0-4.835-.022-7.294-.022-.835.451-6.565.022-7.006.496-.585-.09-.036-.113.322-.203-8.761.248-9.358.248-17.332-.338-34.019-.384-66.82-.046-100.314-.181-33.9.203-67.215.406-101.974.609-5.324.722-12.629.384-18.931 1.016l.406-.226c-5.372.338-6.745-.045-13.56-.316-.072.248-2.614.068-1.636.474-2.363.384-4.261-.587-7.663-.406-.12-.136.084.271-.644.135-8.786.519 1.683-.248-9.466-.654-2.602.022-5.204.067-7.819.09l-3.915.068-.978.022c-.299-.022-.597-.022-.884-.067a7.123 7.123 0 01-1.742-.497c-1.134-.541-2.233-1.399-3.223-2.617a9.76 9.76 0 01-.729-.971c-.107-.157-.226-.315-.334-.518-.12-.181-.203-.294-.441-.723-.203-.315-.382-.789-.621-.947h-1.886c-2.232.045-4.464.067-6.672.09 0-1.76-.012-3.497-.012-5.212v-7.898l-.18-.135-.358-.293-.716-.587-.179-.158-.155-.135-.191-.181a8.494 8.494 0 01-.752-.812c-.49-.564-.943-1.219-1.373-1.918-.787-1.286-1.48-2.798-2.029-4.468.322 1.038.31 1.467-.358-.474-.18-1.263-.716-3.159-1.074-5.483-.394-2.347-.466-5.009-.382-7.581.083.361.083 2.843.155 3.926l.036-9.184c-.012-3.023-.012-5.957-.024-8.89-.012-5.709-.024-11.327.048-17.284-.156-11.576.167-25.137-.024-32.921.155 1.85.107-5.168.19-7.65-.441-8.394.144-22.541-.143-33.056l.072.361c-.036-31.387.072-65.572-.131-98.335-.048-18.435.346-39.216.155-59.479-.06-3.7-.155-.767-.203-3.768.012-5.1.143.068.191-1.941-.179-9.973.036-23.128.036-35.628-.072-1.49-.096-4.987-.191-3.814.071-3.452.095-7.243.107-11.214.012-3.543.49-7.198 1.492-10.402.991-3.182 2.483-5.822 4.166-7.469l.322-.316c.227-.225.418-.338.633-.519l.62-.496.311-.248c.12-.068.036-.384.06-.565 0-1.421.012-2.82.012-4.196.024-1.918.036-3.769.06-5.551-.12 1.489-.18 1.331-.215.248a54.668 54.668 0 01-.036-2.166c-.012-.361-.012-.79-.012-1.219.441 0 .919 0 1.36-.022.776 0 1.48-.023 2.006-.045 1.492.022 1.66.225 1.206.36.93-.022 1.79-.022 2.602-.044h1.396c.155.067.239-.226.334-.361l.299-.542.286-.496.168-.271c.441-.7.895-1.354 1.384-1.896.967-1.105 2.041-1.985 3.306-2.459.633-.226 1.302-.384 2.03-.384.8.023 1.659.046 2.59.068 3.103-.09 3.95-.474 7.687-.361 2.328.496 7.807.023 11.471.203-.931-.429 3.748-.767 7.389-.587l-1.122.61c11.65-.384 28.444.293 42.088-.452l1.026.339c14.074-.406 27.908.022 41.456-.632 3.652.18 9.501.293 13.094.293 4.93-.293 6.697-.27 10.051-.744 1.85-.045 2.972.248 3.688.36 6.195.091 12.128.587 17.105.023l.191.316c4.918-.316 12.056-.677 17.607-.338 1.539-.271 7.102-.384 4.583-.722 2.185-.068 1.409.496 3.641.18l-2.101.429c12.474.113 22.99-.113 35.034-.339 3.497.52 11.483-.045 18.31.226 3.999-.27 10.958.136 13.93-.519l.203.316c5.348.045 12.569.113 19.576.18 4.094.068 4.094-.36 7.317-.518l.191.293c3.545-.18 4.488-.632 5.801-.948 2.722.226 3.032 0 5.754.203-2.638.158-4.882.497-6.637.88 4.333.136 8.678-.609 11.352-.158 3.521.113 6.266 0 6.779-.338.227.09 2.137.18.43.338 1.504.023 2.746-.09 3.748.045.931.113 1.731.407 2.507.79-.442-.248-1.349-.767-2.065-.902.656 0 1.623.316 2.351.722.728.383 1.218.722 1.003.293-1.301-.857-1.385-.903-3.115-1.534.382-.068 1.742.27 3.032 1.308 1.312 1.016 2.482 2.708 2.864 3.52.454.97-.179.046-.752-.586-.585-.655-1.098-1.128-.262.022.561.677 1.002 1.241 1.575 2.212.06.158.155.135.251.135l.274-.023.514-.067.238-.023.012.293c1.23-.157 4.095-.428 5.67-.18.024.045.167.09.394.135.108.023.227.023.334.045.108.046.191.113.251.159.764.767 1.134 12.071 1.134 15.05v.316l1.611 1.128c1.898 2.053 3.462 5.19 4.381 8.89a34.489 34.489 0 011.003 7.469c.059 2.617.024 5.573.036 8.326-.024 11.17-.036 22.18-.06 33.17zM120.356 422.401c.119 0 .203 0 .239-.023-.072.023-.168.023-.239.023zm231.831-24.279l-.931.745-.454.361v.045l.143-.113c.382-.316.788-.677 1.242-1.038zM315.78 422.13c-.023-.113.12-.18.43-.225-.668.022-1.05.09-.43.225zM241.094 15.547c1.838-.474 9.394-.52 11.101-.226 3.7-.496-2.925-.045-2.233-.564-3.366.045-4.917.316-10.134.383-.059.271 1.695.294-.692.497a21.44 21.44 0 01-1.886.158c2.077-.09 5.312.203 3.844-.248zM120.618 422.378c.43-.045.788-.09 1.075-.158-1.683-.112-.896.068-1.075.158z"/><path d="M21.414 26.174c.12-.023.215-.045.298-.067-.644 0-1.313.022-2.04.022l1.742.045zm252.6-10.357a.899.899 0 01-.191-.135c.227.067.275.112.191.135zm64.231 3.273c.119.067.203.112.251.112-.084-.045-.168-.068-.251-.113zm-59.599-3.544c-.943.023-.8.135-1.229.225-.096.068-1.075-.09-1.313-.135.931-.022 1.802-.224 2.542-.09zm-13.691-.316l-6.864.405c.287-.224 4.429-.382 6.864-.404zm-24.876-.475c-1.564-.18-1.134-.292.967-.292.155.112-.537.18-.967.292zm-1.277.475c-1.254 0-1.97-.067-2.602-.18.883.023 2.996-.112 2.602.18zm-2.602-.18c-.215 0-.358-.023-.37-.067.119.022.238.044.37.066zm-36.502-.43c-.943 0-2.984.18-3.856-.045.979.158 4.572-.27 3.856.045zm-18.179.315c-.585-.023-.824-.045-1.505 0-1.086-.09.06-.247.967-.27l.538.27zM7.651 325.533l-.06 3.159-.06-3.7.12.541zm105.304 97.747c-1.707.022.466-.225-1.432-.225 1.647-.112 1.122.203 1.432.225zm76.477-1.285h-.596l.202-.429.394.429zM.406 332.754l-.084 3.316-.083-3.881.167.565zm3.174 24.324a110.37 110.37 0 01-.07-2.843v-.316c.059 1.331.083 2.008.07 3.159z"/><path d="M7.651 325.533l-.06 3.159-.059-3.7.12.541zm4.942-310.077c.155 0 .31 0 .466-.022-.084.045-.191.09-.31.112l-.538-.045c.131-.022.263-.022.382-.045zm85.406 420.912c.203 0 .406-.022.597-.022-.37.112-.621.18-.597.022zm2.614-13.381c.179-.022.358-.022.537-.022-.334.067-.573.111-.537.022zm10.301 13.854c-1.85.045.692-.405-1.767-.338 2.054-.224 1.433.293 1.767.338zm.609-13.786c1.647-.112 1.122.203 1.432.225-1.707.023.466-.225-1.432-.225zm8.546 12.162c-.31.09-.716.158-1.193.225.382-.112-.705-.427 1.193-.225zm.549-12.839c.18-.09-.608-.27 1.075-.158a8.962 8.962 0 01-1.075.158zM177.973.337c-.25.045-.453.09-.632.113l.632-.113zm.597.699c-1.122-.134.06-.382 1.015-.427l.573.427c-.621-.022-.872-.09-1.588 0zm1.445 13.901c-1.087-.09.059-.248.966-.27l.538.27c-.585-.023-.824-.045-1.504 0zm8.821 407.058l.203-.429.393.429h-.596zm1.659 12.185l.417.676h-.62l.203-.676zM195.138.472c1.027.247 4.775-.427 4.023.068-.979.022-3.116.292-4.023-.068zm4.56 14.149c-.943 0-2.984.18-3.855-.045.978.157 4.571-.27 3.855.045zM211.634.925c-.406.045-.907.067-1.575.045.787-.067 1.277-.067 1.575-.045zM236.2 15.05c-.215 0-.358-.023-.37-.067.119.022.238.044.37.066zm1.05-13.855c-.167 0-.274-.022-.286-.067l.286.067zm1.552 14.035c-1.254 0-1.97-.067-2.602-.18.883.023 2.996-.112 2.602.18zm1.265-13.742c-1.361 0-2.125-.135-2.805-.292.859.067 3.235-.157 2.805.292zm.012 13.268c-1.563-.18-1.134-.292.967-.292.155.112-.537.18-.967.292zM241.404.742c-1.635-.27-1.182-.427 1.014-.427.156.18-.561.27-1.014.427zm-4.154 15.053a21.44 21.44 0 001.886-.158c2.388-.203.633-.226.693-.496 5.216-.068 6.768-.339 10.134-.384-.693.519 5.932.068 2.232.564-1.707-.293-9.263-.248-11.101.226 1.468.451-1.767.158-3.844.248zm20.841-.159c.287-.225 4.429-.383 6.864-.405l-6.864.405zm9.335-14.169l-7.174.631c.298-.338 4.619-.586 7.174-.631zm6.398 14.215c-.048 0-.096-.023-.156-.023-2.817-.135-5.252-.541-3.7-.812 1.779.045-.048.248.692.384 1.481-.203 2.531.068 3.701.158-.597.067-.669.18-.537.293zm.191.135a.883.883 0 01-.192-.135c.227.067.275.112.192.135zm2.351-.587c-.764.18-1.397.18-2.005.158.394-.067 1.026-.112 2.005-.157zM272.678.903c1.85.045-.06.383.716.586 1.528-.316 2.602.113 3.808.226-.585.135-.633.316-.49.496a2.225 2.225 0 00-.167-.067c-2.96-.203-5.503-.835-3.867-1.241zm4.225 1.488a.673.673 0 01-.179-.18c.215.068.263.135.179.18zm.323-.677c.417-.09 1.086-.18 2.136-.225a4.873 4.873 0 01-2.136.225zm-1.122 13.922c.931-.022 1.802-.224 2.542-.09-.943.023-.8.135-1.229.225-.096.068-1.075-.09-1.313-.135zm2.984-13.538c.979-.022 1.886-.338 2.662-.135-.979.023-.836.203-1.29.361-.095.113-1.122-.158-1.372-.226zm36.692 420.031c-.62-.135-.238-.202.43-.224-.31.045-.454.112-.43.224zm7.759 12.592c-.334.068-.489.157-.453.337-.645-.202-.251-.269.453-.337zm20.579-426.69c-.084 0-.299-.157-.585-.382.191.135.394.248.585.382zm12.199 4.763c-.346-.136-.43-.293.656-.542.12.226.657.474.812.7-.072.519-.131.79-.191.745.012-.113.024-.271.036-.452-.311-.158-.955-.293-1.313-.451zm1.444 14.599c-.143-1.083-.239-2.618-.131-5.235.083 8.01.298-4.31.131 5.235zM120.595 422.378c-.036.021-.12.021-.239.021.071 0 .167 0 .239-.021z"/><path d="M359.941 141.026c.024 3.159-.322-.812-.239 6.318.454 26.152.179 67.376-.167 99.215l-.095-1.918c-.072 6.069.239 13.47.191 19.901-.06.068-.084-2.053-.167-.564.179 1.625.083 11.621.226 14.351-.071 2.55-.226 2.279-.298 5.573l.203 3.678c.501 10.244-.036 24.866.227 38.811-.048-.655-.084-2.054-.132-.926.144 11.192.203 23.806.239 36.757.012 6.476.072 13.02.024 19.541-.203 6.589-2.029 12.794-4.727 16.607.394-.722.657-1.512.024-.699-.179.496-1.122 2.098-2.483 3.272-.143.157-.382.203-.441.496 0 .361.012.722.012 1.083.012.79.023 1.602.023 2.414l.036 5.122c-.071 1.016-.071 2.798-.047 5.213-1.087.067-2.376.135-3.749.225a40.305 40.305 0 01-4.058.023l.358-.09c-.776.135-1.492.067-1.898.225-.31.61-.835 1.377-1.265 1.941-.907 1.173-1.791 2.076-2.948 3.181a6.753 6.753 0 01-1.982.677c-.632.564-1.826.677-3.079.497-1.266-.113-2.674-.271-3.939-.113l.071.135c-2.399.136-3.641-.158-5.873-.067l-.203-.068c-3.652.113-6.23-.023-7.412.045 1.313-.09 3.235-.135 1.468-.474-17.153.497-34.831.384-52.091.406-1.957-.203-3.211-.248-3.652-.428-1.683.09-6.279.09-7.95.316 0-.046-1.361-.226-2.137-.249-3.139-.18-3.426.519-6.875.294 1.372-.113 1.838-.271 1.372-.452-2.936.384-6.875.316-10.348.429.537-.068 1.384-.113 1.253-.271-3.808.429-6.947-.09-10.277.181l1.253-.271c-5.372-.338-1.588.564-6.231.361 1.122-.068.728-.18.931-.293-4.333.496-11.328.338-15.649.496.251-.045.191-.113.191-.113-4.715.068-9.621-.09-14.801.136-1.886-.136.621-.677-4.357-.564.179.541-8.463.225-5.514.834-4.262-.09-10.994-.293-13.823-.112 1.91-.203-2.077-.655 1.456-.722l-2.662-.316c.394-.226 2.746.067 1.898-.203-1.778.022-6.935.225-8.522.135-3.271.338-6.291.97-11.603 1.038 2.137-.181-.417-.496-.131-.632l-7.007.97c-1.766.046-.382-.428-2.936-.27.131.135-.979.225-1.767.338-.656-.068-7.341.135-8.116-.406-.776-.203 2.888-.113.931-.293-3.271 0-3.414.18-6.685.203l-.06-.091c-2.16-.067-6.35.249-4.01.542h.31c-1.862.158-4.703.226-7.233.226 1.11-.091.978-.226 1.42-.384-4.225.406-8.69.564-13.393.722.478-.113 1.17-.293 1.659-.316-6.028-.316-12.402.452-17.475.023.323.067.072.316.024.248-3.02-.023-2.888-.384-4.858-.248-.19-.226-2.483.067-4.5.135-.668.09-.692.023-.203-.045-4.13.158-13.512.384-19.242.113.132.135-4.01.519-5.514.496l.585-.316c-.418-.067-1.063-.09-1.743-.09-.37.023-.633.023-.716-.022-.86 0-1.707 0-2.244-.046-.036 0-.072.023-.096 0-.071.023-.143.023-.203.023-2.04.09-4.046.203-6.028-.023.848 0 2.125-.451-.155-.428-4.285.067-1.217.158-4.703.271l-2.184.135c-.084.158-1.11.113-1.886-.158-.454-.158-.836-.316-.907-.316.023.045.095.09.215.181-.526-.294-1.934-.948-3.104-2.167-1.385-1.308-2.447-3.136-2.172-3.046l.632.384c-.358-.519-.68-.97-.979-1.422-.19-.451-.441-.158-.716-.158-.704.136-1.373.294-2.1.384-.215-.045-.645-.113-.645-.181-.155.271-1.027.294-2.137.271-.56 0-1.193-.022-1.826-.022h-1.337c-.477.022-.943.045-1.385.067a66.835 66.835 0 00-.071-2.369c.024-2.121.036-4.513.06-6.995 0-1.083.011-2.166.011-3.249v-1.196l.012-.384c0-.112.012-.27-.071-.293-.12-.09-.239-.203-.346-.293a21.344 21.344 0 00-.717-.7c-.465-.541-.895-1.06-1.265-1.624a14.57 14.57 0 01-1.588-2.866c-2.22-4.107-3.688-9.477-3.688-16.336.036 1.331.155 3.046.25 3.362-.107-2.121-.07-3.52-.095-4.694l-.083-4.242c.048.835.203-8.1.322-12.591-.095-5.618-.286-3.7-.406-4.264.346-5.122-.215-15.84.096-22.271.047 1.941.167 8.191.25 3.52.347-5.145-.25-10.357-.083-18.638l-.287 2.031c.18-3.678-.167-12.185.12-11.327-.096-2.776.095-9.771-.18-8.846.24-13.606-.143-33.056.359-41.427-.048-1.941 0-6.815-.143-5.799-.156 3.226.107 4.512 0 5.708 0-1.737-.084-2.121-.12-2.301.06-4.242.084-7.559.31-3.565.18-9.41-.465-9.703-.358-21.662.12.542.156-.361.144-3.858l-.203-6.657c.047-7.739.262-4.4.453-4.58-.024-4.13-.024-9.207-.167-11.079l.227-4.536c-.155 2.482-.095-3.971-.143-5.821l.048 1.94c.083-.767.023-5.551 0-7.965-.12.564-.168 5.461-.203 8.123-.084-2.121-.06-5.415-.156-8.213.18.925.132-6.724.156-10.019.035-3.768-.18-4.264-.168-5.347.096-.113.012-6.16.156-3.227.024 1.286-.096 2.933-.012 5.077.071-2.505.238-2.211.12-7.356-.096-3.904-.37.993-.252-6.386.048 1.941.12 2.302.191 3.791l.096-6.905-.18-.293c.049-.925.06-.271.084-.722-.179-2.031-.047-10.537-.25-12.094-.024-3.475.12-7.334.131-10.651l.012.632c.107-4.061.036-9.454-.072-12.884l.036.181c.012-2.212-.012-7.447-.12-10.222.132-5.618.657-1.895.442-8.101-.011-5.686-.322-8.935-.43-6.633.12-10.222-.166-21.842.096-31.32-.06-1.466-.107-.541-.155-3.565.012-1.895.012-3.79.012-5.708.012-2.008.107-4.175.37-6.205.525-4.107 1.635-7.92 3.127-10.922.74-1.489 1.588-2.797 2.471-3.858.442-.541.931-1.015 1.35-1.399.095-.135.393-.113.321-.519.024-1.444.036-2.866.06-4.22.036-1.624.06-3.203.095-4.693.072 4.355.168.294.275.203a80.845 80.845 0 01-.024-4.76c.705.067 1.074.112 1.54-.159-.263-.225-.131-.36-1.874-.474-.012.745-.024 1.873-.048 3.34 0-1.06-.012-2.144-.012-3.452 2.638-.023 5.79-.045 8.619-.068h.919l.25.023c.048-.023.108.022.143-.046.132-.203.263-.406.382-.609.227-.36.466-.677.68-.993.789-1.06 1.529-1.805 2.114-2.256-.908.722-.036-.293.93-1.083-.13.36.693-.18 1.922-.632.61-.226 1.337-.429 2.077-.496.705-.046 1.445-.068 2.113-.113l.382-.293 1.707.293c1.027-.09 1.134-.587 3.748-.316.143.113.287.226.776.293 2.733-.225 6.589-.609 9.561-.383l2.423.428c1.23-.045 3.235-.27 1.409-.406 4.941.226 8.117.271 9.704.632 8.726-.88 21.378-.925 31.524-.857l-.298.225c2.721.18 1.42-.383 3.318-.248-.883.226 2.077.451-.06.7 3.892.225 5.014-.361 7.556-.452.382-.293-2.041.18-1.551-.18.441-.113 5.395.203 6.004-.226.967.18.215.497-.311.654l2.376-.203c2.912.497-6.637.903-3.581 1.512l2.196-.067c2.101.45-5.801.496-.298.654 2.399-.203 4.44-.835 2.315-1.016 4.966-.112 2.304-1.015 7.652-.97 1.468.248-4.285.045-3.259.406 2.531.339 5.061-.203 7.305-.067-2.494-.18-.382-.61 1.23-.677 2.721.203-1.767.406 2.089.451.632-.248 4.177-.429 1.11-.61 1.396-.563 4.01.159 6.111-.27 1.254.384-3.975.903.263 1.106-.669-.384 5.228-.52 2.996-1.083 1.659.112 1.826.406.621.631 2.375.249 5.753-.677 6.529.068l.823-.383c.741.112 1.803.248 3.02.428 2.089 0 6.733-.519 6.542.068.668-.068 5.443-.045 3.592-.451-2.96-.249-3.401.293-5.061-.249 2.101.452 4.286-.067 5.993-.203l.286.226c.883-.09 2.793-.045 3.688-.203-.274.113.108.203.752.248l1.075-.338c4.154-.18.978.609 5.013.496l-3.068.27c.669-.044 2.053.272 3.987.159.74-.316 2.149-.677 2.805-.925 1.97-.136 1.289.225 2.543.112l-2.221.294c-.441.09 1.982.519 5.014.519 1.945-.113 4.953-.564 1.886-.745 1.528 0 3.664.18 2.459.406 3.449-.09-.454-.338 2.53-.519 1.218.203 5.014.497 7.305.813l-3.115.519h2.065c-2.674.428 1.361.316-.143.767 1.408.068 3.115-.09 4.476-.203-4.13-.7 4.631-.97 3.438-1.602 5.658-.18 3.533 1.557 9.441.564-.752-.136.729-.474-.191-.52 1.719-.135 1.612-.563 4.978-.338-3.068.248 3.306.655-1.134 1.038.298-.225-2.483-.158-3.163-.113 1.456.249-.299.655 3.306.655 2.197-.068 5.205-.068 4.775-.406-.096-.384-3.366.045-1.958-.339 4.381-.135 5.121.429 6.935-.226-2.769.046-3.461-.338-3.413-.586l3.222-.158-.632.248c5.156.18 1.528-.451 6.529-.383l2.34.496c-1.194.429-7.27-.18-6.386.496 3.258.023 4.332-.316 7.4-.135-.692.022-1.611.09-2.292.135.991.023 1.97.677 5.073.542-.62.045-1.134.113-1.384.248 4.189.023 3.987.61 4.667.993 1.158.022 2.28-.136 2.972-.203.49-.361-1.026-.361-1.11-.722 4.667.09 9.167-.09 11.734-.452 1.563.181 1.074.542-.776.565 5.55-.09 11.495-.046 16.759.067-2.877-.496 3.33-.27 3.903-.473.322.202.823.406.43.586 3.652-.248-.156.339 3.461.339 3.641-.271 8.129-.474 12.175-.564 5.097.428 12.892 0 17.44 0 2.375.225.776.744 3.354.834 3.02-.022-2.244-.564 2.232-.316l-.43.09c1.277-.112 7.437.317 9.263-.27l-1.098.451c.835.045 1.611-.09 2.304-.135.035.18 1.014.338-.347.451 2.77.406 5.813-.045 8.821-.068l-1.945-.338a67.885 67.885 0 013.605-.09c1.11 0 2.208-.068 3.294.293 2.149.677 4.214 2.347 6.159 5.483l-.226.068c.202.293.358.564.537.835.167.225.429.045.644.067l1.48-.09c-.286.113-.035.226.454.294 1.79-.159 4.655-.294 5.336.383l.035.068c.43.18 1.015.36.74.541-.131-.067-.334-.113-.561-.158.86 2.482 1.051 13.403 1.075 15.006l1.48 1.037-.012.113c.227.18.465.406.728.677.859.903 1.922 2.37 2.972 4.829 1.015 2.46 2.029 6.047 2.244 10.763.669 24.55.024 57.065.406 84.029z"/></g><defs><clipPath id="clip0"><path fill="#fff" d="M0 0h367v437H0z"/></clipPath></defs></svg>