<svg width="104" height="104" viewBox="0 0 104 104" fill="none" xmlns="http://www.w3.org/2000/svg">
<path d="M71.4351 10.8983C85.5833 17.615 95.7451 31.3733 97.2833 47.6665H103.783C101.573 20.9733 79.2568 0 52.0001 0C51.0251 0 50.0933 0.0867344 49.1183 0.151734L65.6501 16.6833L71.4351 10.8983ZM44.3301 7.56173C41.7951 5.02673 37.6783 5.02673 35.1433 7.56173L7.5618 35.1433C5.0268 37.6783 5.0268 41.795 7.5618 44.33L59.6485 96.4167C62.1835 98.9517 66.3003 98.9517 68.8353 96.4167L96.4168 68.835C98.9518 66.3 98.9518 62.1833 96.4168 59.6483L44.3301 7.56173ZM64.2633 91.8233L12.1551 39.7367L39.7368 12.155L91.8235 64.2417L64.2633 91.8233ZM32.5651 93.1017C18.4168 86.385 8.25506 72.6267 6.7168 56.3333H0.216797C2.4268 83.0267 24.7433 104 52.0001 104C52.9751 104 53.9068 103.913 54.8818 103.848L38.3501 87.3167L32.5651 93.1017Z" fill="#C8A060"/>
</svg>
