<svg width="759" height="278" fill="none" xmlns="http://www.w3.org/2000/svg"><g clip-path="url(#clip0)" fill="#FAAE5D"><path d="M739.893 17.426c-.296-.689-.494-1.665-.272-3.33.173 5.096.617-2.742.272 3.33zM7.406 227.157a21.82 21.82 0 01-.148-1.809v-.201c.123.847.172 1.278.148 2.01zM26.044 9.833c.32 0 .642 0 .963-.015a6.165 6.165 0 01-.642.072l-1.111-.029c.271-.014.543-.014.79-.028zm176.629 267.765c.42 0 .84-.014 1.234-.014-.765.071-1.283.114-1.234.014zm45.645-.732c-.642.057-1.481.1-2.469.143.79-.072-1.456-.272 2.469-.143zM368.07.214c-.518.03-.938.058-1.308.072l1.308-.072zm69.615.375c-.839.028-1.876.042-3.258.028a69.256 69.256 0 013.258-.028zM563.93.574c3.826.029-.123.244 1.481.373 3.16-.2 5.382.072 7.875.144-1.21.086-1.308.2-1.012.316a13.085 13.085 0 00-.346-.043c-6.122-.13-11.38-.532-7.998-.79zm8.739.947a1.77 1.77 0 01-.37-.114c.444.043.543.085.37.114zm.667-.431c.864-.057 2.246-.114 4.418-.143a31.966 31.966 0 01-4.418.143zm95.782 275.46c-.691.043-1.012.1-.938.215-1.333-.129-.519-.172.938-.215zM711.677 5.11c-.173 0-.617-.1-1.21-.244.395.086.815.157 1.21.243z"/><path d="M758.951 246.106l-.148-12.991c-.124-8.613-.321-17.01-.79-24.46.148-.746.271.172.419.617-.814-9.287.864-19.019-.716-25.823l-.666-2.455c.271-2.181.716-2.009.963-3.703-.445-1.823-.124-8.469-.716-9.546.271-.99.345.402.543.374.148-4.278-.84-9.216-.617-13.249l.296 1.277c1.111-21.187 1.999-48.618.543-66.015-.247-4.752.864-2.11.765-4.206-.592-8.986-.419-18.862-.321-28.565.05-4.838.074-9.632-.049-14.24-.049-2.31-.124-4.565-.272-6.76-.172-2.183-.123-4.364-.814-6.288-.889-3.072-3.209-5.368-5.604-6.89-2.37-1.55-4.74-2.412-6.591-2.943-1.901-.502-3.283-.717-4.172-.803-.889-.087-1.284-.1-1.284-.1 5.48 1.147 10.146 3.502 12.837 6.444 1.382 1.464 2.222 3.072 2.592 4.708.321 1.55.173 3.531.222 5.369 0 7.45-.074 14.77-.197 22.077-.272 14.627-.741 29.182-1.284 44.498.148 10.335.469 23.871.123 33.388.099 20.025-.246 40.092-.543 60.26-.098 10.091-.222 20.211-.321 30.359 0 5.067 0 10.149-.024 15.244l.024 3.819.025.961c0 .331 0 .632-.025.862 0 .516-.098 1.019-.197 1.536-.518 2.009-1.827 3.961-3.925 5.641 1.876-1.378.642.373-1.432 1.679l-.691.201a19.638 19.638 0 01-3.308 1.881c-.469.172-.839.315-1.185.402-.469.129-.815.215-1.062.272-.765.187-.987.173-.641.029.197-.057.469-.172.864-.316.197-.086.444-.186.74-.301.469-.23 1.16-.46 1.876-.804-.666.301-1.431.531-2.147.775l-.692.215c-.419.13-.864.244-1.333.359l-2.641.675-1.308.344c-.05.259 0 .56-.025.833l.025 1.679v2.369c0 1.335.024 2.641.024 3.904l-.321.015h-1.975c-2.369.014-4.715.014-7.06.014-2.962 0-5.9.014-8.837.014-.889.33-1.654.833-2.469 1.263l-.741.374-.567.258c-.766.345-1.556.66-2.395.933-3.333 1.148-7.159 1.737-11.035 1.751-4.715 0-9.43-.014-14.244-.014-1.802.445-14.194.014-15.132.488-1.259-.086-.074-.1.691-.201-18.934.23-20.243.244-37.473-.33-73.59-.373-144.563-.057-217.041-.187-73.318.201-145.401.402-220.595.603-11.504.718-27.303.388-40.93 1.005l.864-.215c-11.627.315-14.589-.072-29.327-.33-.148.244-5.653.057-3.53.473-5.135.359-9.233-.588-16.589-.402-.247-.129.173.259-1.383.129-19.008.503 3.629-.229-20.49-.631l-16.662.086-8.196.043a38.947 38.947 0 01-7.036-.718 31.934 31.934 0 01-6.369-1.937l-.716-.316-.938-.488-1.308-.689c-.222-.086-.395-.273-.667-.287l-.888.014-5.16.014c-4.394.029-8.739.058-13.083.072-.025-.99-.025-1.981-.025-2.957l-.025-2.483.025-1.838v-1.521c-.025-.086.025-.187-.05-.244l-.394-.101-3.16-.818c-.272-.072-.543-.143-.79-.215l-.593-.187a6.54 6.54 0 01-.79-.258 25.336 25.336 0 01-3.011-1.22c-1.728-.833-3.259-1.809-4.493-2.885.716.674.568 1.004-.914-.216-.271-.861-1.505-2.024-2.443-3.488-.988-1.478-1.531-3.129-1.26-4.737.247.316.297 1.694.642 2.426-.247-1.737 0-3.962-.049-5.943-.025-1.995-.025-3.961-.05-5.899-.049-3.804-.098-7.579.149-11.57-.519-7.694.543-16.68-.074-21.833.469 1.22.345-3.445.567-5.095-1.382-5.584.494-15.001-.444-21.991l.247.244c-.099-20.9.222-43.637-.42-65.442-.148-12.272 1.086-26.096.47-39.574-.173-2.47-.47-.517-.618-2.527.05-3.387.445.058.593-1.277-.543-6.646.123-15.388.098-23.714-.222-.99-.271-3.316-.592-2.526.222-2.311.32-4.837.346-7.464v-1.981c.049-.574.074-1.148.197-1.723.247-1.148.74-2.282 1.481-3.387 1.506-2.168 4.024-4.12 7.135-5.541.79-.33 1.58-.675 2.419-.947.42-.158.79-.259 1.308-.417.815-.244 1.777-.445 2.617-.674l1.284-.316.641-.172c.222-.058.494-.072.42-.244 0-.546.025-1.077.025-1.608.024-.531.05-1.062.05-1.594l.073-.947c-.518 1.378-.716.617-.79-.976-.024-1.105-.05-2.77-.074-4.09.518-.015.963-.03 1.309-.058.444.014.617.043.987.071.494.03.79.072.889.1.172.058 0 .13-.395.173.296.015.592 0 .888 0 1.654-.014 3.21-.014 4.69-.029 3.136-.014 5.975-.014 8.863-.028 1.11-.043 2.42.215 3.135-.445l1.284-.69.815-.401a28.148 28.148 0 013.184-1.22c2.345-.747 5.16-1.35 8.615-1.55a63.343 63.343 0 013.802-.216c1.234-.057 2.345-.1 3.506-.143a155.81 155.81 0 018.837-.1c5.036.473 16.86.013 24.785.186-2-.402 8.122-.747 16.021-.56l-2.444.588c25.205-.387 61.518.288 91.043-.445l2.222.345c30.438-.402 60.382.014 89.66-.646 7.924.187 20.563.301 28.364.301 10.665-.287 14.466-.258 21.724-.732 3.999-.028 6.443.244 7.974.36 13.404.1 26.241.573 37.004.028l.42.287c10.639-.301 26.068-.646 38.066-.33 3.357-.258 15.379-.359 9.924-.69 4.739-.07 3.061.489 7.874.173l-4.517.43c26.957.101 49.718-.114 75.762-.33 7.578.489 24.859-.057 39.621.216 8.665-.273 23.699.115 30.142-.502l.419.287c11.578.043 27.204.043 42.362.186 8.862.072 8.862-.359 15.824-.502l.419.287c7.653-.172 9.702-.632 12.541-.919 5.9.201 6.566-.014 12.442.187-5.703.158-10.541.474-14.343.861 9.356.13 18.786-.603 24.563-.158 7.554.1 13.528 0 14.688-.33.716.1 4.468.187.889.33 5.751-.115 9.183.36 12.392.962-.987-.244-2.37-.589-3.53-.732 1.407.043 3.431.373 4.962.718 1.53.33 2.567.588 2.222.2-1.333-.373-2.099-.516-2.938-.703-.839-.172-1.753-.402-3.579-.703.839-.043 3.727.359 6.418 1.234 2.74.833 5.011 2.096 5.702 2.67.642.086.568.158.099.215-.271.087-.518-.043-.815-.157-.296-.115-.617-.259-.938-.388-1.283-.488-2.32-.818-.691.057.617.244 1.284.575 1.876.862.79.014 1.63-.058 2.395-.072l4.172-.201 6.443-.301c-3.259.1-7.085-.087-5.801-.345l-6.295.201.444-.33c-.617.1-.963-.172-1.358-.388-.37-.172-.913-.459-1.431-.674-1.013-.474-2.074-.876-3.136-1.25a40.358 40.358 0 00-6.591-1.679 43.1 43.1 0 00-7.208-.631c-2.469 0-5.011.028-7.801.1l4.197.316c-6.517.014-13.109.46-19.083.086 2.938-.129.84-.287.766-.46-1.506.058-3.185.173-4.987.13l2.345-.43c-3.974.545-17.256.143-20.02.258l.938-.1c-9.702-.23 1.703.315-4.839.315-5.579-.086-2.098-.588-7.257-.818-9.826.014-26.711.43-37.721.014-8.763.086-18.465.287-26.34.531-7.825 0 .42-.56-7.505-.315.84-.187-.222-.388-.913-.575-1.037.216-14.713-.028-8.443.46-11.405-.115-24.241-.158-36.264-.058 4-.028 5.061-.387 1.679-.56-5.554.345-15.281.546-25.377.445.197.36 3.456.36 2.419.704-1.506.057-3.95.215-6.468.2-1.456-.372-1.012-.947-10.072-.961 2.444-.588 15.404.072 11.307-.502 3.999-.474 20.316-.503 23.994-.216 8.048-.488-6.295-.057-4.813-.545-7.258.043-10.64.301-21.922.373-.123.244 3.679.287-1.505.488-10.023.517-12.516-.373-15.034-.387a541.9 541.9 0 014.937-.13c-6.616-.172-8.961.158-15.997.13-1.901-.66 11.232-.072 13.825-.488L479.849 0c-10.812-.058-2.938.545-14.096.373l1.358-.244-6.986.158c-.099.244 1.407.617 7.381.574-3.925.646-5.505.086-14.984.215-3.037.374 4.023-.028 4.221.33.938.33-5.579.345-10.319.402-7.801 0-4.024-.387-7.159-.631 1.481-.072 7.48-.115 6.838.1 9.603-.387-4.172-.76 2.469-1.033-7.357-.215-7.06.215-10.887.344 2.247.043-1.135.374.519.503-12.763.99-8.171-.718-20.416-.546 2.592.632-16.367.89-7.43 1.58-2.938.114-6.641.258-9.702.186 3.259-.43-5.48-.33.321-.747h-4.468l6.739-.516c-4.962-.302-13.182-.589-15.799-.79-6.468.187 2 .416-5.48.517 2.616-.215-2-.402-5.308-.402 6.641.172.124.603-4.073.718-6.591 0-11.825-.402-10.862-.503l4.814-.287c-2.74.115-1.235-.23-5.53-.115-1.382.244-4.443.603-6.073.92-4.172.1-7.134-.216-8.59-.159l6.64-.258c-8.739.1-1.876-.66-10.862-.488l-2.32.33c-1.432-.043-2.271-.144-1.63-.258-1.95.157-6.048.129-7.973.2l-.617-.215c-3.703.144-8.418.632-12.961.201 3.58.531 4.543 0 10.961.244 3.975.402-6.344.373-7.801.43.42-.573-9.627-.057-14.145-.057-2.641-.2-4.937-.301-6.542-.416l-1.752.373c-1.704-.732-9.011.173-14.146-.057 2.617-.23 2.247-.517-1.357-.632 4.863.56-7.9.69-6.443 1.063-9.184-.201 2.123-.704-.593-1.091-4.542.43-10.195-.273-13.207.272 6.616.173-1.037.36-2.419.589-8.344-.043 1.382-.23-4.518-.43-3.481.071-8.047.502-2.641.66-4.863-.13-10.344.401-15.799.057-2.222-.345 10.195-.158 7.035-.402-11.578-.029-5.801.847-16.564.962 4.616.186.197.79-4.987 1.005-11.923-.158 5.184-.216.642-.646l-4.764.057c-6.592-.588 14.071-.976 7.751-1.464l-5.135.2c1.136-.171 2.765-.473.667-.645-1.308.416-12.047.115-12.985.2-1.062.36 4.172-.1 3.357.187-5.505.087-7.924.675-16.367.46 4.641-.259-1.752-.488.148-.69-4.122-.143-1.283.417-7.183.23l.666-.215c-21.946-.057-49.347-.029-68.207.833-3.432-.345-10.319-.388-20.984-.618 3.925.115-.42.36-3.06.402l-5.26-.415c-6.418-.23-14.737.158-20.662.388-1.062-.086-1.383-.201-1.679-.302-5.702-.272-5.801.216-8.196.33a51.042 51.042 0 00-4.196-.043l-.815.374c-3.086.43-6.517 1.234-8.961 2.024-2.469.746-4.049 1.392-3.974 1.047-.247.115-.47.244-.692.36-.222.128-.469.258-.469.272a2.281 2.281 0 00-.222.215c-.074.1-.025.144.321.029-.123.057-.272.144-.469.158a3.683 3.683 0 00-.42-.029c-.197-.014-.172-.014-.69-.029-1.655-.028-3.556-.043-5.605-.071-2.049-.015-4.246-.015-6.492-.029-3.407.014-6.863.014-10.27.029l.075 4.263c.024.962.049 1.866.074 2.727.049-.703.098-1.206.172-1.579.025-.244.05-.445.075-.603.049-.2.073-.358.123-.473.148-.488.32-.445.568-.589.222.359.32.632.345.904 0 .144.025.288 0 .445 0 .115-.024.244-.05.374-.073.53-.197 1.248.05 2.44-.32.072-.642 2.77-.864-.13-.148.934-.247 2.312-.32 2.455l-.075.302c-.074.071-.32.071-.493.115a4.383 4.383 0 00-.494.114c-.05 0-.79.216-1.234.345-3.926 1.263-7.58 3.143-10.27 5.498C2.47 24.59.691 27.389.222 30.274c-.173.703-.148 1.464-.197 2.124l.024 1.924c-.024 1.277-.024 2.54-.049 3.79.148 2.023.272 1.406.494 2.382-.84 6.316.05 14.039-.321 20.843.345-1.522 1.333.617 1.358 4.407.69 4.134-.963 1.65-1.383 5.382.321 1.852.42 5.34.37 6.819l-.123-.115c.37 2.268.592 5.856.247 8.57l-.025-.431c-.074 2.21-.518 4.78-.444 7.09.642 1.049.247 6.69.814 8.054-.074.287-.123-.144-.246.488l.543.186-.321 4.594c-.222-.991-.445-1.235-.593-2.527-.395 4.909.494 1.665.79 4.249.395 3.431-.148 3.23-.37 4.895-.272-1.421.123-2.526.025-3.373-.445-1.952-.173 2.081-.494 2.139-.025.732.666 1.047.518 3.559-.049 2.182.124 7.292-.493 6.675.32 1.866.271 4.048.543 5.455.098-1.766.247-5.024.642-5.397.074 1.607.222 4.794-.025 5.296l-.148-1.292c.148 1.235-.025 5.527.444 3.876l-.691 3.029c.444 1.234.42 4.608.518 7.364-.617.129-1.283-2.096-1.432 3.043l.618 4.421c.049 2.34-.074 2.942-.445 2.584-.345 7.952 1.704 8.153 1.16 14.411-.74-2.655-.79-.445-1.012 2.369.124.115.37.373.395 1.536.346-.804-.493-1.651-.024-3.804.469-.66.32 2.569.469 3.861-1.58 5.57-.395 18.517-1.136 27.575.889-.617.247 4.033.593 5.871-.938-.56.148 5.095-.395 7.55l.888-1.349c-.518 5.512 1.358 8.971.272 12.402-.272 3.1-.642-1.062-.79-2.354-.987 4.277.79 11.411-.296 14.828.37.373.962-.905 1.283 2.828-.395 3-.864 8.928-1.036 8.383.123 1.248.222 2.038.296 2.856.099.876.148 1.78.518 3.23-.345-.216-.765-1.493-.963-2.426.149 2.368 1.284 4.478 2.864 6.301 1.63 1.838 3.802 3.402 6.418 4.766.642.502 1.827 1.234 3.506 1.967.814.373 1.802.717 2.839 1.076.345.115.691.215 1.061.33.247.072.494.13.74.201.174.015.149.115.149.187l-.025.258v.503c-.024.703-.024 1.421-.05 2.124-.048 1.737-.123 3.416-.172 4.909.148.704.222 1.507.272 2.397 1.9-.028 3.826-.028 5.752-.028 1.555.014 3.06.028 4.443.043 2.148 0 3.826-.029 4.123-.273 0 .057.938.129 1.407.172 1.58-.1 3.012-.244 4.542-.373.716-.057 1.432-.115 2.222-.172.296-.015.617-.029.938-.058.271.044.494.23.765.345a6.2 6.2 0 00-.938.057c-.173.072 0 .287.346.517.049.043.74.416 1.283.66a25.43 25.43 0 002 .847c2.493.976 5.505 1.622 6.566 1.924-1.11-.373 0-.129 1.53.143 1.68.302 3.95.517 4.148.359 1.679.115 3.481.086 5.036.043 7.53-.115.889-.215 10.17-.273 5.259-.014 1.778.489-.024.431 4.32.215 8.714.101 13.183.015-1.482-.015-1.901-.044-.395-.13.098.058.469.086 1.012.115-.173 0-.346.015-.519.015h.889c-.123 0-.222-.015-.32-.015 1.727-.029 3.48-.072 5.233-.072-.05.015-.075.015-.1.029-1.727.029-3.332.043-4.59.058 1.16.028 2.813.028 4.492.028h.025c.148.029.617.029 1.283.015h.124c1.53 0 2.962.028 3.925.086l-1.284.33c3.234.014 12.195-.359 11.924-.503 12.466.273 32.98.058 41.843-.129-1.309.086-1.284.158.222.058 4.369-.072 9.307-.345 9.726-.13 4.271-.143 3.975.23 10.517.259.098.057.567-.144.123-.244 10.985.402 24.76-.345 37.794-.043-1.061.014-2.641.201-3.702.316 10.17-.173 19.798-.302 28.932-.689-.963.143-.692.287-3.086.373 5.678-.015 12.071-.072 16.095-.259-.173.015-.518.015-1.111.015-5.085-.287 4-.589 8.665-.503l.148.072c7.061-.014 7.381-.201 14.442-.201 4.221.187-3.679.086-2 .302 1.654.516 16.12.33 17.552.387 1.703-.115 4.098-.201 3.802-.344 5.554-.13 2.542.315 6.369.287l15.132-.962c-.642.129 4.937.445.321.617 11.479-.072 17.996-.674 25.106-1.005 3.407.087 14.59-.129 18.416-.143 1.851.273-3.259-.014-4.098.201l5.777.316c-7.653.057.962.502-3.16.703 6.122-.187 20.687.014 29.87.1-6.344-.602 12.343-.287 11.948-.818 10.763-.1 5.357.431 9.43.546 11.183-.201 21.823-.058 31.993-.115 0 0 .148.072-.395.115 9.332-.172 24.489-.015 33.845-.488-.42.1.42.201-2 .287 10.048.201 1.852-.689 13.479-.359l-2.715.258c7.208-.258 13.997.244 22.217-.172.296.158-1.53.201-2.691.273 7.53-.115 16.022-.058 22.391-.416.987.172 0 .315-2.987.445 7.455.2 8.097-.474 14.885-.302 1.704.029 4.641.187 4.641.244 3.605-.215 13.528-.215 17.182-.301.963.172 3.653.229 7.9.416 37.35-.014 75.588.072 112.692-.402 3.505.316.247.373-2.494.459 2.765-.043 8.073.058 15.331-.043l.469.072c4.813-.1 7.504.201 12.713.057l-.198-.129c2.741-.1 5.9-.071 8.69-.387 2.765-.287 5.159-.833 6.246-1.522a43.174 43.174 0 003.974-1.091c.469-.301.913-.574 1.358-.832.37-.201.666-.488 1.061-.603.963-.029 1.901 0 3.135.029 2.296.043 4.79.114 8.122-.101l-.765.086c1.753.043 3.481.058 5.332.043 2.074-.028 4.073-.057 5.875-.115-.246-3.703-.592-6-.148-7.306-.024-.517-.024-1.062-.049-1.608l-.025-.76c.025-.115-.074-.287.05-.359l.592-.158c1.506-.373 3.16-.962 4.567-1.536 2.715-1.191 4.345-2.397 4.518-2.842 1.308-.617.938 0 .345.603 4.987-3.115 7.776-7.536 7.357-11.914zm-660.28 31.263c1.012-.028 1.974-.057 2.74-.043-.815.015-1.728.029-2.74.043zM739.942 8.24c-.148.33-.271.502-.395.473.025-.072.05-.172.074-.287-.641-.1-1.974-.187-2.715-.287-.716-.086-.889-.187 1.358-.345.247.144 1.357.302 1.678.445z"/><path d="M582.692 1.249c-2.025.014-1.728.129-2.666.23-.198.071-2.321-.101-2.839-.144 2.024-.014 3.9-.215 5.505-.086zM553.068.933l-14.836.402c.617-.215 9.553-.373 14.836-.402zM499.252.472C495.87.3 496.808.2 501.351.2c.321.115-1.161.172-2.099.272zm-9.183.246l.593.043c-.346 0-.568-.015-.593-.043zm6.419.229c-2.815 0-4.394-.086-5.802-.186 1.778.043 6.69-.1 5.802.186zm-84.6-.604c-2.024.015-6.443.186-8.319-.043 2.123.158 9.874-.271 8.319.043zm-39.3.317c-1.284-.015-1.802-.058-3.283 0-2.321-.086.123-.244 2.098-.272l1.185.271zM.84 211.683l-.174 2.11-.172-2.469.345.359zm228.544 66.216c-3.827.028 1.431-.258-3.654-.215 4.246-.143 2.962.186 3.654.215zm165.446-1.263h-1.284l.42-.43.864.43zM434.526 9.488c1.382.014 2.394 0 3.233-.014-.567-.014-1.53-.014-3.233.014zm137.032.202c-1.58.114-2.888.114-4.147.1.814-.044 2.123-.072 4.147-.1zM342.52 9.258a6.6 6.6 0 00.667-.057c-.321.028-.543.043-.667.057zm183.344 259.01c-.074 0-.173 0-.222.013.148 0 .222-.013.222-.013zm-316.674.804c-.691.043-1.185.071-1.111.014.371-.014.741-.014 1.111-.014zM370.045 9.258a87.3 87.3 0 011.037-.043l-1.037.043zm196.255.718c-.099 0-.197-.014-.321-.014-5.826-.086-10.862-.345-7.653-.517 3.679.029-.098.158 1.432.244 3.061-.129 5.234.043 7.653.1-1.234.044-1.383.116-1.111.187zM19.996 219.951v.259c.024.559.049 1.119.098 1.665 0-.704-.049-1.106-.098-1.924z"/><path d="M726.439 253.741l-.938.23V254l.296-.072c.79-.201 1.629-.431 2.567-.66l-1.925.473zm18.194-23.311c-.074-8.24-.198-16.264-.494-23.383.099-.718.173.172.271.588-.543-8.871.568-18.172-.469-24.689l-.419-2.34c.148-2.096.469-1.923.617-3.545-.296-1.737-.099-8.096-.469-9.13.173-.947.222.402.346.359.098-4.091-.544-8.799-.395-12.66l.197 1.22c.716-20.254 1.284-46.48.346-63.116-.173-4.536.543-2.01.493-4.02-.79-17.153.543-37.837-.839-53.455-.444-3-2.543-5.282-4.641-6.847-2.172-1.565-4.369-2.498-6.147-3.072a23.436 23.436 0 00-1.506-.43l.025-.072-3.061-.66c-.049-1.02-.444-7.967-2.222-9.546.469.029.889.057 1.16.1.568-.114-.641-.23-1.53-.344l-.074-.043c-1.407-.43-7.332-.345-11.035-.244-1.012-.043-1.53-.115-.938-.187l-3.061.058c-.444-.015-.987.1-1.333-.043-.37-.173-.691-.345-1.111-.532l.469-.043c-4.024-1.995-8.294-3.057-12.738-3.488-2.246-.23-4.518-.186-6.813-.186-2.346 0-4.789.014-7.456.057l4.024.215c-6.221.015-12.516.302-18.243.043 2.814-.071.79-.172.716-.287-1.432.03-3.036.115-4.764.086l2.271-.287c-3.777.374-16.515.1-19.157.173l.889-.058c-9.257-.158 1.629.187-4.616.201-5.332-.057-2.025-.387-6.937-.53-9.405 0-25.525.272-36.066 0-8.369.057-17.651.186-25.18.358-7.48 0 .395-.373-7.159-.215.814-.115-.222-.244-.889-.374-1.185.13-14.022-.014-8.072.302-10.887-.072-23.181-.1-34.66-.043 3.827-.015 4.839-.244 1.605-.36-5.308.23-14.614.345-24.267.288.173.23 3.308.23 2.296.46-1.432.042-3.752.143-6.147.129-1.407-.244-.987-.618-9.652-.632.518-.086 1.58-.13 2.864-.158-6.419.086-8.443-.33-10.492-.344 1.407-.03 3.308-.072 4.74-.087-6.345-.114-8.566.1-15.306.087-1.826-.431 10.739-.043 13.207-.316l-4.838-.316c-10.344-.043-2.839.359-13.503.244l1.308-.158-6.665.1c-.099.158 1.333.403 7.06.374-3.752.416-5.283.057-14.343.143-2.913.244 3.851-.028 4.049.216.889.215-5.332.215-9.875.258-7.455 0-3.826-.258-6.838-.416 1.407-.029 7.159-.072 6.542.072 9.183-.244-3.999-.503 2.345-.66-6.961-.144-6.739.128-10.294.215 1.901.028-1.16.244.395.33-12.219.631-7.825-.474-19.526-.36 2.468.403-15.652.575-7.11 1.02-2.814.072-6.344.172-9.257.13 3.11-.288-5.234-.216.296-.489h-4.271l6.443-.33c-4.74-.201-12.59-.388-15.108-.517-6.171.115 1.901.273-5.233.33 2.493-.143-1.926-.258-5.086-.258 6.345.115.124.402-3.9.474-6.27 0-11.282-.273-10.368-.33l4.592-.187c-2.593.072-1.185-.158-5.259-.072-1.357.158-4.27.388-5.801.589-3.999.071-6.863-.13-8.245-.1l6.344-.173c-8.344.072-1.777-.43-10.368-.316l-2.222.215c-1.333-.028-2.123-.086-1.555-.157-1.851.1-5.801.071-7.628.129l-.592-.144c-3.53.086-8.048.417-12.393.13 3.432.344 4.345 0 10.467.157 3.827.259-6.048.244-7.43.287.395-.373-9.208-.043-13.528-.043-2.518-.114-4.715-.2-6.246-.272l-1.703.244c-1.605-.474-8.591.114-13.504-.043 2.494-.144 2.148-.33-1.283-.402 4.616.359-7.579.445-6.197.689-8.763-.13 2.049-.46-.543-.704-4.344.273-9.751-.186-12.639.173 6.344.114-.987.23-2.296.387-7.973-.029 1.309-.158-4.32-.287-3.332.043-7.702.316-2.543.43-4.641-.085-9.874.259-15.107.044-2.123-.23 9.775-.1 6.739-.259-11.06-.028-5.555.546-15.824.618 4.394.114.173.516-4.789.646-11.38-.101 4.962-.13.617-.417l-4.542.043c-6.32-.387 13.429-.646 7.406-.961l-4.913.129c1.086-.1 2.642-.302.642-.417-1.259.273-11.504.072-12.417.144-1.012.23 3.999-.072 3.209.115-5.258.057-7.579.43-15.626.287 4.419-.158-1.704-.301.123-.445-3.925-.086-1.234.273-6.863.158l.618-.144c-20.984-.043-47.151-.014-65.197.546-3.283-.23-9.849-.259-20.069-.402 3.777.086-.371.23-2.913.258l-5.012-.272c-6.146-.144-14.12.1-19.773.244-1.012-.044-1.309-.115-1.605-.187-5.406-.172-5.628.143-7.751.2l-3.53-.186-.79.187c-1.383.029-2.913.043-4.37.072-1.53.043-3.036.172-4.295.315-2.543.288-4.246.632-3.975.402-2 .503-3.801 1.149-1.925.69-1.21.287-2.74.76-4.37 1.435-.444.2-.938.402-1.407.631-.247.13-.518.259-.79.388-.074.043-.197.014-.296.029l-.518-.015h-1.901l-17.823.043c0 .833.024 1.522.024 2.197.05-.933.074-1.651.099-2.125 3.604.072 3.332.158 3.876.302-.963.172-1.728.143-3.185.1a15.878 15.878 0 00.05 3.029c-.223.057-.42 2.641-.568-.13-.074.948-.124 1.953-.198 2.986-.05.862-.074 1.766-.123 2.685.148.258-.47.244-.667.33-.864.244-1.876.545-2.79.89-1.826.674-3.579 1.507-5.11 2.454-3.085 1.91-5.38 4.335-6.467 6.948-.543 1.292-.74 2.67-.765 3.947 0 1.22 0 2.426-.025 3.632.099 1.923.197 1.335.32 2.268-.542 6.029.05 13.421-.197 19.924.223-1.464.864.603.89 4.22.444 3.947-.643 1.579-.914 5.153.222 1.766.271 5.096.247 6.503l-.075-.115c.223 2.181.37 5.612.149 8.196l-.025-.402c-.025 2.11-.321 4.565-.272 6.775.42.99.149 6.402.519 7.694-.05.287-.074-.129-.173.46l.37.186-.197 4.393c-.148-.948-.296-1.177-.395-2.412-.247 4.694.32 1.579.518 4.062.247 3.273-.099 3.087-.247 4.68-.172-1.364.074-2.412.025-3.23-.296-1.866-.123 1.981-.32 2.053-.025.689.419 1.005.345 3.402-.05 2.095.05 6.962-.321 6.373.197 1.78.148 3.876.32 5.225.075-1.694.174-4.809.42-5.168.05 1.536.173 4.58 0 5.068l-.098-1.235c.098 1.177-.025 5.282.296 3.703l-.47 2.886c.297 1.191.297 4.421.346 7.048-.395.115-.839-2.01-.938 2.914l.42 4.234c.025 2.225-.05 2.799-.296 2.455-.222 7.608 1.11 7.794.74 13.78-.469-2.541-.518-.431-.641 2.268.074.115.246.359.246 1.464.223-.761-.32-1.579 0-3.632.297-.646.198 2.455.297 3.689-1.037 5.326-.247 17.699-.74 26.355.567-.589.172 3.861.37 5.627-.593-.546.123 4.866-.248 7.206l.593-1.292c-.346 5.268.889 8.584.173 11.856-.173 2.972-.42-1.004-.519-2.239-.641 4.091.519 10.909-.197 14.168.247.359.642-.861.84 2.713-.248 2.856-.569 8.541-.667 8.01.074 1.177.123 1.923.172 2.698.05.747-.024 1.637.198 2.986-.198-.201-.444-1.292-.518-2.139 0 4.364 3.036 7.78 7.628 10.393.617.459 1.703 1.148 3.283 1.823.765.358 1.654.689 2.617 1.033.493.144.987.287 1.48.445.223.058.47.129.717.187.172.014.148.115.148.186l-.025.244v.761c0 .689-.025 1.378-.025 2.067-.049 1.579-.074 3.101-.123 4.45.074.459.123.962.148 1.507l2.864-.043h2.764c1.309 0 2.617.014 3.777.014 2.296.015 4.098 0 4.42-.172 0 .043.888.086 1.332.115 1.506-.057 2.889-.158 4.345-.244.568 0 1.086-.187 1.481.101.617.287 1.284.574 2.025.904l-1.309-.244c-.568-.058 1.63 1.105 4.493 1.938 2.42.775 5.332 1.191 6.419 1.378-.247-.058-.396-.086-.445-.115.148 0 .938.1 1.876.201 1.605.172 3.728.201 3.9.1l4.518-.086c7.209-.072.864-.129 9.727-.172 4.715-.014 2.073.273.32.273 4.098.143 8.246.071 12.467.014-1.58 0-2.098-.029-.568-.086.099.043.445.057.988.072.049.014.123 0 .197 0 1.58-.015 3.209-.043 4.814-.043-.025.014-.049.014-.074.014-1.827.014-3.506.029-4.74.029 1.111.028 2.864.028 4.641.028.173.029.716.029 1.481.015 1.407 0 2.74.014 3.604.057l-1.209.201c3.11.014 11.676-.23 11.405-.316 11.849.173 31.253.029 39.794-.071-1.012.043-.963.086.42.028 4.172-.043 8.911-.229 9.306-.086 4.073-.086 3.802.144 10.048.158.098.043.617-.115-.05-.158 10.492.273 23.674-.215 36.141-.014-1.012.014-2.444.129-3.432.201 9.727-.101 18.959-.201 27.698-.46-.913.101-.642.187-2.938.244 5.234 0 11.109-.043 14.96-.143h-.642c-4.838-.187 3.827-.388 8.295-.345l.123.058c6.764-.015 7.061-.129 13.825-.129 4.048.114-3.53.057-1.926.186 1.605.345 15.429.215 16.787.259 1.629-.072 3.925-.13 3.653-.216 5.283-.1 2.419.201 6.073.172l14.491-.617c-.593.086 4.69.287.271.402 10.986-.043 17.231-.445 23.995-.66 3.284.057 13.948-.072 17.626-.086 1.753.172-3.11-.015-3.925.129l5.505.201c-7.307.043.938.33-3.012.459 5.851-.115 19.774.015 28.587.072-6.098-.388 11.775-.187 11.405-.531 10.294-.072 5.11.273 9.01.359 10.714-.144 20.86-.043 30.611-.086 0 0 .124.043-.395.071 8.937-.1 23.403 0 32.364-.315-.42.071.395.143-1.926.186 9.603.129 1.778-.445 12.886-.229l-2.592.172c6.888-.172 13.38.158 21.255-.115.272.1-1.481.129-2.592.172 7.184-.072 15.33-.028 21.403-.273.963.115 0 .216-2.839.288 7.134.143 7.727-.302 14.219-.187 1.605.014 4.419.129 4.419.158 3.456-.144 12.96-.144 16.441-.201.913.115 3.505.143 7.554.273 35.696-.015 72.256.057 107.73-.259 3.654.216-.321.244-3.036.302 2.444-.043 7.776.043 15.33-.029l.42.043c4.616-.057 7.183.129 12.145.043l-.148-.086c2.617-.101 5.53 0 8.147.072 2.592.115 5.06.043 6.369-.316a38.82 38.82 0 004.097-.431c2.395-.703 4.222-1.277 6.098-2.024.889-.358 1.975-.847 2.617-1.234.839-.101 2.32-.058 3.925-.144l-.741.058c2.814.043 5.678.028 8.394-.015 2.838-.057 5.505-.1 7.751-.143-.049-1.536-.049-2.67.099-3.316l-.074-3.258c0-.517-.025-1.034-.05-1.536 0-.23-.024-.46-.024-.689.123-.187.617-.216.913-.316 2.814-.747 4.764-1.766 5.135-2.082 1.308-.516.765-.014-.05.445 5.579-2.425 9.356-6.373 9.776-10.564.099-4.149-.025-8.311-.049-12.431zm-2.346-167.472c-.271 13.981-.543 27.89-.839 42.532.099 9.89.321 22.823.099 31.924.049 19.134-.173 38.326-.37 57.618l-.223 29.01v14.584c0 1.192.05 2.483 0 3.589a6.989 6.989 0 01-.814 3.086c-.914 1.909-2.691 3.703-5.086 5.124 1.605-.832-.148.632-2.468 1.622l-.691.187c-.618.258-1.235.546-1.901.761l-.494.172c-.099.029-.099.043-.42.129l-.543.158-2.098.574c-.716.043-.494.431-.543.689v.732c-.025.417-.025.747-.05.977-.024.344-.074.33-.123.215-.025-.029-.025-.072-.049-.129-.025-.086-.025-.201-.05-.345a37.76 37.76 0 01-.074-.99c0-.201-.024-.417-.024-.646 0-.115-.025-.23-.025-.345V254c-.074.172-.025.387-.049.559v4.666c.024 1.004.024 1.981.024 2.928-4.048 0-8.023.014-11.973.014h-4.715c-.641-.1-.987.273-1.431.474-.371.215-1.013.56-1.111.588-.395.216-.815.417-1.259.603a28.706 28.706 0 01-5.678 1.766c-2.024.416-4.172.66-6.32.703h-7.332c-4.986 0-9.997-.014-15.083-.014-1.728.287-13.577.014-14.491.316-1.209-.058-.074-.072.667-.129-18.12.157-19.354.157-35.844-.216-70.356-.244-138.193-.028-207.463-.115-70.108.13-139.007.259-210.893.388-11.01.459-26.118.244-39.152.646l.839-.144c-11.109.216-13.948-.028-28.044-.201-.148.158-5.406.043-3.382.302-4.887.244-8.813-.373-15.848-.259-.247-.086.173.173-1.333.087-18.17.33 3.481-.158-19.576-.417-5.382.015-10.763.043-16.17.058l-8.097.043-2.024.014c-.617-.014-1.234-.014-1.827-.043a42.48 42.48 0 01-3.604-.316c-2.345-.344-4.616-.89-6.665-1.665a17.637 17.637 0 01-1.506-.617c-.222-.101-.47-.201-.691-.33-.247-.115-.42-.187-.914-.46-.42-.2-.79-.502-1.283-.602h-3.9c-4.617.028-9.233.043-13.8.057 0-1.12-.025-2.225-.025-3.316v-5.024l-.37-.086-.74-.187-1.482-.373-.37-.1-.321-.086-.395-.115a20.776 20.776 0 01-1.556-.517 24.93 24.93 0 01-2.838-1.22c-1.63-.818-3.061-1.78-4.197-2.842.666.66.642.933-.74-.302-.37-.804-1.482-2.009-2.222-3.488-.815-1.493-.963-3.186-.79-4.823.172.23.172 1.809.32 2.498l.075-5.842c-.025-1.924-.025-3.79-.05-5.656-.024-3.632-.05-7.206.099-10.995-.32-7.364.346-15.991-.05-20.943.322 1.177.223-3.287.396-4.866-.914-5.34.296-14.34-.297-21.03l.149.23c-.075-19.967.148-41.714-.272-62.556-.099-11.728.716-24.948.32-37.838-.122-2.354-.32-.488-.419-2.397.025-3.244.297.043.395-1.235-.37-6.344.074-14.713.074-22.665-.148-.947-.197-3.172-.395-2.426.148-2.196.198-4.608.223-7.134.024-2.254 1.012-4.58 3.085-6.617 2.05-2.024 5.135-3.704 8.616-4.752l.666-.2c.47-.144.864-.216 1.309-.33l1.283-.317.642-.157c.247-.044.074-.244.123-.36 0-.904.025-1.794.025-2.67.05-1.22.074-2.396.124-3.53-.247.947-.37.846-.445.157-.05-.33-.074-.875-.074-1.378-.024-.23-.024-.502-.024-.775.913 0 1.9 0 2.814-.014 1.604 0 3.06-.014 4.147-.029 3.086.015 3.431.144 2.493.23 1.926-.014 3.703-.014 5.382-.029h2.888c.321.043.494-.143.691-.23l.618-.344.592-.316.346-.172a24.6 24.6 0 012.863-1.206c2-.703 4.222-1.263 6.838-1.564a38.033 38.033 0 014.197-.244l5.357.043c6.418-.058 8.17-.302 15.898-.23 4.813.316 16.144.014 23.723.13-1.925-.274 7.752-.489 15.281-.374l-2.321.388c24.094-.244 58.827.186 87.044-.288l2.123.216c29.105-.259 57.716.014 85.735-.402 7.554.115 19.65.186 27.08.186C339.41 11.986 343.063 12 350 11.7c3.826-.029 6.147.158 7.628.23 12.812.057 25.081.373 35.375.014l.395.2c10.171-.2 24.933-.43 36.412-.215 3.185-.172 14.689-.244 9.48-.459 4.517-.043 2.913.316 7.529.115l-4.345.273c25.797.072 47.546-.072 72.454-.216 7.233.33 23.748-.028 37.869.144 8.27-.172 22.662.086 28.808-.33l.42.2c11.059.03 25.995.072 40.485.116 8.468.043 8.468-.23 15.133-.33l.395.186c7.332-.115 9.282-.402 11.997-.603 5.629.144 6.271 0 11.899.13-5.455.1-10.097.315-13.725.56 8.961.085 17.946-.388 23.476-.101 7.283.072 12.96 0 14.022-.216.469.058 4.419.115.889.216 3.11.014 5.677-.058 7.751.028 1.925.072 3.579.259 5.184.503-.913-.158-2.789-.488-4.271-.574 1.358 0 3.358.2 4.864.459 1.505.244 2.518.46 2.073.187-2.691-.546-2.863-.575-6.443-.976.79-.044 3.604.172 6.27.832 2.716.646 5.135 1.723 5.925 2.24.938.617-.37.028-1.555-.374-1.21-.416-2.271-.718-.543.014 1.16.431 2.073.79 3.258 1.407.124.1.321.086.519.086l.567-.014 1.062-.043.494-.014.024.186c2.543-.1 8.468-.273 11.726-.115.05.029.346.058.815.086.222.015.469.015.691.03.222.028.395.07.519.1 1.579.488 2.345 7.68 2.345 9.574v.2l3.332.719c3.926 1.306 7.159 3.301 9.06 5.655 1.21 1.493 1.95 3.115 2.074 4.751.123 1.666.049 3.546.074 5.297-.049 7.106-.074 14.11-.124 21.101zM248.91 268.713c.247 0 .42 0 .494-.015-.148.015-.346.015-.494.015zm479.454-15.445l-1.925.473-.938.23V254l.296-.072c.79-.201 1.629-.431 2.567-.66zm-75.292 15.273c-.05-.072.247-.115.888-.144-1.382.014-2.172.057-.888.144zM498.611 9.891c3.801-.302 19.428-.331 22.958-.144 7.652-.316-6.048-.03-4.617-.36-6.961.03-10.17.202-20.958.245-.124.172 3.505.186-1.432.316-1.456.057-2.74.086-3.9.1 4.295-.057 10.985.13 7.949-.158zM249.453 268.697a57.62 57.62 0 002.222-.1c-3.481-.072-1.851.043-2.222.1z"/><path d="M44.287 16.65c.247-.013.444-.028.617-.042-1.333 0-2.715.014-4.221.014l3.604.029zm522.408-6.588a3.408 3.408 0 01-.395-.086c.469.043.568.072.395.086zm132.836 2.082c.247.043.42.071.518.071-.172-.028-.345-.043-.518-.071zM576.273 9.89c-1.95.014-1.654.086-2.542.143-.198.043-2.222-.057-2.716-.086 1.926-.014 3.728-.143 5.258-.057zm-28.315-.2l-14.194.257c.592-.143 9.158-.243 14.194-.258zm-51.446-.303c-3.234-.115-2.345-.186 2-.186.321.071-1.111.114-2 .186zm-2.641.302c-2.592 0-4.073-.043-5.382-.115 1.827.015 6.196-.071 5.382.115zm-5.382-.115c-.444 0-.74-.014-.765-.043.247.015.494.029.765.043zm-75.49-.274c-1.95 0-6.172.115-7.974-.028 2.025.1 9.455-.171 7.974.029zm-37.597.201c-1.21-.014-1.703-.029-3.11 0-2.247-.057.123-.157 1.999-.172l1.111.172zM15.824 207.09l-.124 2.009-.123-2.354.247.345zm217.781 62.182c-3.53.014.963-.143-2.962-.143 3.406-.071 2.32.129 2.962.143zm158.164-.817h-1.234l.419-.273.815.273zM.84 211.683l-.174 2.11-.172-2.469.345.359zm6.566 15.474a21.785 21.785 0 01-.148-1.809v-.201c.123.847.172 1.278.148 2.01z"/><path d="M15.824 207.09l-.123 2.009-.124-2.354.247.345zM26.044 9.833c.32 0 .642 0 .963-.015a6.165 6.165 0 01-.642.072l-1.111-.029c.271-.014.543-.014.79-.028zm176.629 267.765c.42 0 .84-.014 1.234-.014-.765.071-1.283.114-1.234.014zm5.407-8.512c.37-.014.74-.014 1.111-.014-.692.042-1.185.071-1.111.014zm21.304 8.813c-3.827.028 1.431-.258-3.654-.215 4.246-.143 2.962.186 3.654.215zm1.258-8.77c3.407-.071 2.321.129 2.963.143-3.53.014.963-.143-2.963-.143zm17.676 7.737c-.642.057-1.481.1-2.469.143.79-.072-1.456-.272 2.469-.143zm1.136-8.168c.37-.057-1.259-.172 2.221-.1a59.76 59.76 0 01-2.221.1zM368.07.215c-.518.028-.938.057-1.308.071l1.308-.071zm1.235.445c-2.321-.086.123-.244 2.098-.272l1.185.271c-1.284-.014-1.802-.057-3.283 0zm2.987 8.842c-2.247-.057.123-.157 1.999-.172l1.111.172c-1.209-.014-1.703-.029-3.11 0zm18.243 258.952l.419-.272.815.272h-1.234zm3.431 7.752l.864.43h-1.284l.42-.43zM403.569.3c2.123.158 9.874-.271 8.319.043-2.024.015-6.443.186-8.319-.043zm9.43 9.001c-1.95 0-6.171.115-7.973-.028 2.024.1 9.454-.172 7.973.028zM437.685.589c-.839.028-1.876.042-3.258.028a69.256 69.256 0 013.258-.028zm50.804 8.985c-.444 0-.74-.014-.765-.043.247.015.494.029.765.043zM490.662.76c-.346 0-.568-.014-.593-.042l.593.043zm3.209 8.929c-2.592 0-4.073-.043-5.382-.115 1.827.015 6.196-.071 5.382.115zm2.617-8.742c-2.815 0-4.394-.086-5.802-.186 1.778.043 6.69-.1 5.802.186zm.024 8.44c-3.233-.114-2.345-.186 2-.186.321.072-1.111.115-2 .186zm2.74-8.915C495.87.3 496.808.2 501.351.2c.321.115-1.161.172-2.099.272zm-8.59 9.576a142.86 142.86 0 003.9-.1c4.937-.13 1.309-.144 1.432-.316 10.788-.043 13.997-.216 20.958-.244-1.431.33 12.269.043 4.617.359-3.53-.187-19.157-.158-22.958.143 3.036.287-3.654.1-7.949.158zm43.102-.101c.592-.143 9.158-.243 14.194-.258l-14.194.258zM553.068.933l-14.836.402c.617-.215 9.553-.373 14.836-.402zM566.3 9.976c-.099 0-.198-.014-.321-.014-5.826-.086-10.862-.345-7.653-.517 3.679.029-.098.158 1.432.244 3.061-.13 5.234.043 7.653.1-1.234.044-1.383.115-1.111.187zm.395.086a3.408 3.408 0 01-.395-.086c.469.043.568.072.395.086zm4.863-.372c-1.58.114-2.888.114-4.147.1.815-.044 2.123-.072 4.147-.1zM563.93.574c3.826.029-.123.244 1.481.373 3.16-.2 5.382.072 7.875.144-1.21.086-1.308.2-1.012.316a13.046 13.046 0 00-.346-.043c-6.122-.13-11.38-.531-7.998-.79zm8.739.947a1.77 1.77 0 01-.37-.114c.444.043.543.086.37.114zm.667-.431c.864-.057 2.246-.114 4.418-.143a31.966 31.966 0 01-4.418.143zm-2.321 8.857c1.926-.014 3.728-.143 5.258-.057-1.95.014-1.654.086-2.542.143-.198.043-2.222-.057-2.716-.086zm6.172-8.612c2.024-.014 3.9-.215 5.505-.086-2.025.014-1.728.129-2.666.23-.198.071-2.321-.101-2.839-.144zm75.885 267.205c-1.284-.086-.494-.129.888-.143-.641.029-.938.071-.888.143zm16.046 8.01c-.691.043-1.012.1-.938.215-1.333-.129-.519-.172.938-.215zM711.677 5.11c-.173 0-.617-.1-1.21-.244.395.086.815.157 1.21.243zm25.229 3.029c-.716-.086-.889-.187 1.358-.345.247.144 1.357.302 1.678.445-.148.33-.271.503-.395.474.025-.072.05-.172.074-.287-.641-.1-1.974-.187-2.715-.287zm2.987 9.287c-.296-.689-.494-1.665-.272-3.33.173 5.096.617-2.742.272 3.33zM249.404 268.698c-.074.014-.247.014-.494.014.149 0 .346 0 .494-.014z"/><path d="M744.401 89.715c.05 2.01-.666-.517-.493 4.019.938 16.636.37 42.862-.346 63.116l-.197-1.22c-.148 3.861.493 8.569.395 12.66-.124.043-.173-1.306-.346-.359.37 1.034.173 7.393.469 9.13-.148 1.622-.469 1.449-.617 3.545l.42 2.34c1.036 6.517-.074 15.818.469 24.689-.099-.416-.173-1.306-.272-.588.296 7.119.42 15.144.494 23.383.024 4.12.148 8.282.049 12.431-.42 4.191-4.196 8.139-9.775 10.565.814-.46 1.357-.962.049-.445-.37.315-2.321 1.334-5.135 2.081-.296.1-.79.129-.913.316 0 .229.024.459.024.689.025.502.05 1.019.05 1.536l.074 3.258c-.148.646-.148 1.78-.099 3.316-2.246.043-4.912.086-7.751.143-2.716.043-5.579.058-8.394.015l.741-.058c-1.605.086-3.086.043-3.925.144-.642.387-1.728.876-2.617 1.234-1.876.747-3.703 1.321-6.097 2.024a38.867 38.867 0 01-4.098.431c-1.309.359-3.777.431-6.369.316-2.617-.072-5.53-.172-8.147-.072l.148.086c-4.961.086-7.529-.1-12.145-.043l-.42-.043c-7.554.072-12.886-.014-15.33.029 2.716-.058 6.69-.086 3.036-.302-35.474.316-72.034.244-107.73.259-4.048-.13-6.64-.158-7.554-.273-3.481.057-12.985.057-16.441.201 0-.029-2.814-.144-4.419-.158-6.492-.115-7.084.33-14.219.187 2.839-.072 3.802-.173 2.839-.288-6.073.245-14.219.201-21.403.273 1.111-.043 2.864-.072 2.592-.172-7.875.273-14.367-.057-21.255.115l2.593-.172c-11.109-.216-3.284.358-12.887.229 2.321-.043 1.506-.115 1.926-.186-8.961.315-23.427.215-32.364.315.519-.028.395-.071.395-.071-9.751.043-19.897-.058-30.61.086-3.901-.086 1.283-.431-9.011-.359.37.344-17.502.143-11.405.531-8.813-.057-22.736-.187-28.586-.072 3.949-.129-4.296-.416 3.011-.459l-5.505-.201c.815-.144 5.678.043 3.925-.129-3.678.014-14.342.143-17.626.086-6.764.215-13.009.617-23.995.66 4.419-.115-.864-.316-.271-.402l-14.491.617c-3.653.029-.79-.272-6.073-.172.272.086-2.024.144-3.653.216-1.358-.044-15.182.086-16.787-.259-1.604-.129 5.974-.072 1.926-.186-6.764 0-7.06.114-13.824.129l-.124-.058c-4.468-.043-13.133.158-8.294.345h.641c-3.851.1-9.726.143-14.959.143 2.295-.057 2.024-.143 2.937-.244-8.739.259-17.971.359-27.698.46.988-.072 2.42-.187 3.432-.201-12.467-.201-25.649.287-36.141.014.667.043.148.201.05.158-6.246-.014-5.974-.244-10.048-.158-.395-.143-5.134.043-9.306.086-1.383.058-1.432.015-.42-.028-8.541.1-27.945.244-39.794.071.272.086-8.295.33-11.405.316l1.21-.201c-.864-.043-2.197-.057-3.605-.057-.765.014-1.308.014-1.481-.015-1.777 0-3.53 0-4.64-.028-.075 0-.149.014-.198 0a4.456 4.456 0 01-.42.014c-4.221.057-8.369.129-12.466-.014 1.752 0 4.394-.287-.321-.273-8.863.043-2.518.1-9.727.172l-4.517.086c-.173.101-2.296.072-3.9-.1-.939-.101-1.729-.201-1.877-.201.05.029.198.057.445.115-1.087-.187-4-.603-6.419-1.378-2.863-.833-5.06-1.996-4.493-1.938l1.309.244c-.74-.33-1.407-.617-2.025-.904-.395-.288-.913-.101-1.48-.101-1.457.086-2.84.187-4.346.244-.444-.029-1.332-.072-1.332-.115-.322.172-2.123.187-4.42.172-1.16 0-2.468-.014-3.776-.014h-2.765l-2.864.043a13.265 13.265 0 00-.148-1.507c.05-1.349.074-2.871.123-4.45 0-.689.025-1.378.025-2.067v-.761l.025-.244c0-.071.025-.172-.148-.186-.247-.058-.494-.129-.716-.187-.494-.158-.988-.301-1.481-.445-.963-.344-1.852-.675-2.617-1.033-1.58-.675-2.666-1.364-3.283-1.823-4.592-2.613-7.628-6.029-7.628-10.393.074.847.32 1.938.518 2.139-.222-1.349-.148-2.239-.197-2.986-.05-.775-.1-1.521-.173-2.698.099.531.42-5.154.666-8.01-.197-3.574-.592-2.354-.839-2.713.716-3.259-.444-10.077.197-14.168.1 1.235.346 5.211.519 2.239.716-3.272-.518-6.588-.173-11.856l-.592 1.292c.37-2.34-.346-7.752.246-7.206-.197-1.766.198-6.216-.37-5.627.494-8.656-.296-21.029.74-26.355-.098-1.234 0-4.335-.295-3.689-.321 2.053.222 2.871 0 3.632 0-1.105-.173-1.349-.247-1.464.123-2.699.172-4.809.642-2.268.37-5.986-.963-6.172-.741-13.78.247.344.32-.23.296-2.455l-.42-4.234c.1-4.924.544-2.799.939-2.914-.05-2.627-.05-5.857-.346-7.048l.47-2.885c-.322 1.578-.198-2.527-.297-3.704l.099 1.235c.172-.488.049-3.532 0-5.068-.247.359-.346 3.474-.42 5.168-.173-1.349-.123-3.445-.321-5.225.37.589.271-4.278.32-6.373.075-2.397-.37-2.713-.345-3.402.198-.072.025-3.919.321-2.053.05.818-.197 1.866-.024 3.23.148-1.593.493-1.407.246-4.68-.197-2.483-.765.632-.518-4.062.099 1.235.247 1.464.395 2.412l.197-4.393-.37-.186c.099-.589.124-.173.173-.46-.37-1.292-.099-6.703-.518-7.694-.05-2.21.246-4.665.271-6.775l.025.402c.222-2.584.074-6.014-.148-8.196l.074.115c.024-1.407-.025-4.737-.247-6.503.271-3.574 1.358-1.206.913-5.153-.024-3.617-.666-5.684-.888-4.22.246-6.503-.346-13.895.197-19.924-.123-.933-.222-.345-.32-2.268.024-1.206.024-2.412.024-3.632.024-1.277.222-2.655.765-3.947 1.086-2.613 3.382-5.039 6.468-6.948 1.53-.947 3.283-1.78 5.11-2.454.913-.345 1.925-.646 2.79-.89.197-.086.814-.072.666-.33.05-.92.074-1.823.123-2.685.074-1.033.124-2.038.198-2.985.148 2.77.346.186.568.129a15.901 15.901 0 01-.05-3.029c1.457.043 2.222.072 3.185-.1-.543-.144-.272-.23-3.876-.302-.025.474-.05 1.192-.099 2.125 0-.675-.024-1.364-.024-2.197l17.823-.043h1.9l.52.015c.098-.015.221.014.296-.029.271-.13.543-.258.79-.388.469-.23.962-.43 1.407-.631a29.546 29.546 0 014.369-1.436c-1.876.46-.074-.186 1.925-.689-.271.23 1.432-.114 3.975-.402a51.403 51.403 0 014.295-.315c1.457-.03 2.987-.043 4.37-.072l.79-.187 3.53.187c2.123-.058 2.345-.373 7.751-.201.297.072.593.143 1.605.187 5.653-.144 13.627-.388 19.774-.244l5.011.272c2.543-.028 6.69-.172 2.913-.258 10.22.143 16.786.172 20.07.402 18.045-.56 44.212-.589 65.196-.546l-.617.144c5.628.115 2.937-.244 6.862-.158-1.826.144 4.296.287-.123.445 8.048.143 10.368-.23 15.626-.287.79-.187-4.221.115-3.209-.115.913-.072 11.158.13 12.417-.144 2 .115.444.316-.642.417l4.913-.13c6.023.316-13.726.575-7.406.962l4.542-.043c4.345.287-11.997.316-.617.417 4.962-.13 9.183-.532 4.789-.646 10.27-.072 4.765-.646 15.824-.618 3.036.158-8.862.029-6.739.259 5.233.215 10.467-.13 15.108-.043-5.16-.115-.79-.388 2.542-.431 5.629.13-3.653.258 4.32.287 1.309-.158 8.64-.273 2.296-.387 2.888-.36 8.295.1 12.639-.173 2.593.244-8.22.574.544.704-1.383-.244 10.812-.33 6.196-.69 3.431.072 3.777.259 1.283.403 4.913.157 11.899-.431 13.504.043l1.703-.244c1.531.071 3.728.158 6.246.272 4.32 0 13.923-.33 13.528.043 1.382-.043 11.257-.028 7.43-.287-6.122-.158-7.035.187-10.467-.158 4.345.288 8.863-.043 12.393-.129l.592.144c1.827-.058 5.777-.029 7.628-.13-.567.072.222.13 1.556.158l2.221-.215c8.591-.115 2.025.388 10.368.316l-6.344.172c1.383-.028 4.246.172 8.245.1 1.531-.2 4.444-.43 5.802-.588 4.073-.086 2.666.144 5.258.072l-4.592.187c-.913.057 4.098.33 10.368.33 4.024-.072 10.245-.36 3.901-.474 3.159 0 7.578.115 5.085.258 7.134-.057-.938-.215 5.233-.33 2.518.13 10.369.316 15.108.517l-6.443.33h4.271c-5.53.273 2.814.201-.296.488 2.913.043 6.443-.057 9.257-.129-8.541-.445 9.578-.617 7.11-1.02 11.701-.114 7.307.991 19.526.36-1.555-.086 1.506-.302-.395-.33 3.555-.087 3.333-.36 10.295-.216-6.345.158 6.838.417-2.346.66.618-.143-5.134-.1-6.542-.071 3.012.158-.617.416 6.839.416 4.542-.043 10.763-.043 9.874-.258-.197-.244-6.961.028-4.049-.216 9.06-.086 10.591.273 14.343-.143-5.727.029-7.159-.216-7.06-.373l6.665-.1-1.308.157c10.664.115 3.16-.287 13.503-.244l4.839.316c-2.469.273-15.034-.115-13.207.316 6.739.014 8.961-.201 15.305-.087-1.432.015-3.333.058-4.74.087 2.049.014 4.073.43 10.492.344-1.284.029-2.345.072-2.864.158 8.665.014 8.245.388 9.652.632 2.395.014 4.716-.087 6.147-.13 1.012-.23-2.123-.23-2.295-.459 9.652.057 18.958-.057 24.266-.287 3.234.115 2.222.344-1.605.359a3062.52 3062.52 0 0134.66.043c-5.95-.316 6.887-.172 8.072-.302.667.13 1.703.259.889.374 7.554-.158-.321.215 7.159.215a1677.14 1677.14 0 0125.18-.359c10.541.273 26.661 0 36.066 0 4.913.144 1.605.474 6.937.531 6.246-.014-4.641-.359 4.616-.2l-.888.057c2.641-.072 15.379.2 19.156-.173l-2.271.287c1.728.03 3.332-.057 4.764-.086.074.115 2.099.216-.716.287 5.728.259 12.023-.028 18.243-.043l-4.023-.215a455.55 455.55 0 017.455-.057c2.296 0 4.567-.043 6.813.186 4.444.43 8.714 1.493 12.738 3.488l-.469.043c.42.187.741.36 1.111.531.346.144.889.03 1.333.044l3.061-.058c-.592.072-.074.144.938.187 3.703-.1 9.628-.187 11.035.244l.074.043c.889.115 2.098.23 1.531.344a14.224 14.224 0 00-1.161-.1c1.778 1.579 2.173 8.526 2.222 9.545l3.061.66-.025.073c.469.114.963.258 1.506.43 1.778.574 3.975 1.507 6.147 3.072 2.098 1.565 4.197 3.847 4.641 6.847 1.383 15.617.05 36.302.839 53.456z"/></g><defs><clipPath id="clip0"><path fill="#fff" d="M0 0h759v278H0z"/></clipPath></defs></svg>