<svg width="35" height="36" viewBox="0 0 35 36" fill="none" xmlns="http://www.w3.org/2000/svg">
<path fill-rule="evenodd" clip-rule="evenodd" d="M34.8827 20.9262C34.8827 20.9162 34.8827 20.9062 34.8827 20.8962C34.9579 20.4355 35.0256 19.9698 34.9905 19.4741C34.9729 19.5091 34.9629 19.5492 34.9504 19.5893C34.9554 19.4891 34.9579 19.3864 34.9454 19.2988L34.9328 19.2337L34.9404 19.1486C34.9454 18.763 34.9504 18.3799 34.9529 17.9718C34.9404 17.9092 34.9303 17.8466 34.9103 17.739C34.8051 16.6348 34.6096 15.4831 34.3139 14.4065C34.2839 14.3239 34.2463 14.2287 34.2237 14.1662C33.9506 13.2373 33.6474 12.391 33.2716 11.4571C33.2365 11.4045 33.1739 11.3169 33.1388 11.2643C33.0987 11.1667 33.0686 11.0891 33.0361 11.0139C33.0135 10.8662 32.9333 10.7185 32.8231 10.5608C32.5174 9.98992 32.2668 9.36148 31.881 8.96088C31.3498 8.30741 30.7584 7.46114 30.122 6.8302C29.8113 6.49971 29.6309 6.1592 29.3127 5.85875C29.0045 5.58334 28.9519 5.691 28.5084 5.32545C28.0323 4.96742 27.5712 4.5568 27.0576 4.18625L27.0275 4.22631C27.02 4.20127 26.9999 4.16372 27.0576 4.18625L26.8571 4.04604L26.8271 4.0861C26.6091 3.93588 26.4086 3.79567 26.2057 3.65546C26.148 3.63293 26.0528 3.59287 25.9751 3.56282L25.9025 3.52777L25.8574 3.48771C25.6795 3.3475 25.4239 3.26237 25.3312 3.14219C25.449 3.14219 25.8348 3.37003 25.8699 3.31245C25.1583 2.87179 24.7123 2.69903 24.4091 2.71656C24.2688 2.63644 24.0708 2.53378 24.0859 2.50374C24.2011 2.4086 23.8879 2.30344 23.482 2.16573C23.1513 2.05807 23.0535 2.08812 23.0636 2.16824C22.9709 2.12818 22.9157 2.10564 22.8406 2.0756C22.7529 2.02552 22.6576 1.99047 22.5975 1.97795L22.6301 2.00549C22.5399 1.96043 22.4647 1.92788 22.3895 1.90284C22.1039 1.80269 21.6529 1.68752 21.8032 1.61491C21.9235 1.56484 21.7381 1.48221 21.4048 1.37956C21.1292 1.30194 20.8636 1.17926 20.5629 1.20931C20.8962 1.31446 21.282 1.50475 21.1568 1.57485C21.0139 1.54981 20.8486 1.50725 20.6807 1.46719C20.5855 1.37706 20.5103 1.28943 20.3575 1.19679C20.3224 1.14922 20.2823 1.10916 20.1219 1.0691C20.1019 0.958932 20.0217 0.846264 19.8463 0.738603C20.0042 0.748618 20.1745 0.766144 20.3424 0.78367C20.8561 0.871301 21.3773 1.02653 21.8082 1.24686C22.0864 1.39208 22.4447 1.49724 22.7754 1.54981C23.234 1.74511 23.6699 1.92788 24.1285 2.12317C25.256 2.64144 26.3184 3.24234 27.3081 3.84324L27.2881 3.83322C27.8619 4.18876 28.358 4.70953 28.9143 5.12515C29.1298 5.26286 29.3853 5.51574 29.6334 5.77362C29.7111 5.84623 29.8038 5.93386 29.894 6.02149C30.0694 6.17672 30.2523 6.38203 30.4227 6.56981C30.9539 7.22329 31.4625 7.79414 31.9085 8.41507C31.8835 8.35498 31.8835 8.35498 31.8684 8.31742C31.8684 8.31742 31.8684 8.31742 31.891 8.35247L31.9085 8.41507C32.0539 8.62788 32.2142 8.89829 32.3495 9.01596L32.4247 9.12112L32.4873 9.23128C32.7053 9.62437 32.8882 10.075 33.1213 10.3655C33.1764 10.4581 33.1914 10.4731 33.2415 10.5708C33.3618 10.8412 33.4921 11.1116 33.6074 11.3169C33.6324 11.377 33.6349 11.377 33.6474 11.372C33.6675 11.387 33.6675 11.3645 33.655 11.2994C33.5071 10.6459 33.209 9.98992 32.7529 9.28637C32.6377 9.10359 32.4748 8.85072 32.3495 8.65042C31.5652 7.21327 30.5605 6.18423 29.463 5.29791C29.3127 5.14769 29.1899 5.03001 29.0696 4.96992C28.9218 4.84724 28.7715 4.72706 28.6662 4.687C28.5184 4.56682 28.4031 4.47418 28.2879 4.38154C28.0774 4.20127 27.887 4.03603 27.6765 3.85826C26.792 3.09212 25.7647 2.51375 24.7073 2.04055C24.2312 1.81521 23.705 1.65747 23.2014 1.39208C22.8305 1.18427 22.3394 0.986473 22.4998 1.23184C22.5248 1.28692 22.2016 1.19178 22.0012 1.12919C21.6203 1.02153 21.1843 0.866294 20.7734 0.781166C20.7308 0.778663 20.6506 0.761137 20.6105 0.741107C20.5329 0.706054 20.4502 0.688528 20.3249 0.681017C20.2798 0.683521 20.2197 0.671002 20.1395 0.643461C19.7837 0.528289 19.4229 0.428139 19.057 0.350523C18.9418 0.312967 18.7914 0.280419 18.586 0.250374C18.5634 0.205307 18.4958 0.170254 18.3028 0.147721C18.2126 0.127691 18.15 0.117676 18.0397 0.107661L17.9746 0.117676C17.952 0.120179 17.952 0.120179 17.952 0.120179C17.9746 0.117676 17.9971 0.112668 18.0372 0.107661C17.9946 0.067601 17.9044 0.0450673 17.6864 0.0425636L17.6639 0.0350523V0.0400598C17.6413 0.0125187 17.5536 0.00250374 17.3983 0C17.3557 0.0125187 17.2479 0.0200299 17.2229 0.010015C16.8145 0.0400598 16.406 0.10015 16.0001 0.170254C15.7746 0.150224 15.5266 0.162743 15.2985 0.190284C14.3088 0.24787 13.3742 0.393087 12.387 0.608409L12.3895 0.61592L12.392 0.623431L12.387 0.605905C11.9535 0.600897 11.4048 0.84376 10.9137 0.953924C10.6932 0.961436 10.4125 1.05658 10.177 1.14671C10.0292 1.16925 9.82621 1.23434 9.60822 1.31697C9.35014 1.41211 9.45286 1.44215 9.30252 1.51727C9.18726 1.57235 9.08202 1.64245 9.05196 1.68251C8.9843 1.73509 8.65857 1.88031 8.74126 1.91286C8.77884 1.9404 8.84899 1.94541 9.01437 1.90535C9.08452 1.95542 9.27747 1.93038 9.5581 1.85277L9.61071 1.82022L9.61322 1.82523C9.59317 1.83274 9.57314 1.84025 9.5581 1.85277C9.74853 1.88532 9.959 1.92037 10.1494 1.95292C10.1745 2.02052 10.2547 2.06058 10.5102 2.008C10.3724 2.09313 10.2346 2.18076 10.1093 2.2759C9.73601 2.49122 9.23237 2.66398 9.0244 2.9444C8.51826 3.31245 7.9194 3.66798 7.51599 4.09612L7.54856 4.07108C7.31053 4.32396 6.91965 4.5568 6.75177 4.79216L6.74926 4.78965C6.64402 4.89982 6.4561 5.04003 6.35336 5.18024L6.3183 5.23532L6.25315 5.2904C6.02513 5.51323 5.79461 5.73857 5.55908 5.96891C5.25339 6.21178 4.9452 6.47216 4.70716 6.82269C4.38895 7.25333 3.77505 7.92684 3.42676 8.47015C3.07597 9.04851 2.53475 9.60434 2.34432 10.2128L2.37189 10.1877C2.35686 10.2228 2.35435 10.2203 2.35435 10.2203L2.34432 10.2128C1.98351 10.8312 1.66279 11.4796 1.38467 12.1481C1.18672 12.5362 1.02885 12.9719 0.903569 13.4626C0.86849 13.5778 0.830909 13.6929 0.798336 13.8081C0.485129 14.6919 0.229552 15.6384 0.139348 16.6173C0.0767068 17.1256 0.019078 17.5787 0.109281 17.9969C0.12181 18.072 0.116804 18.112 0.0992644 18.1471C0.0591739 18.2598 0.0466377 18.4125 0.0441321 18.6028C-0.0611053 19.061 0.0516502 19.5517 0.0767068 20.0224L0.089232 20.0399H0.0917401H0.089232C0.0867263 20.0399 0.0792124 20.0374 0.0767068 20.0224C0.0366163 20.2177 0.0641742 20.5231 0.119299 20.7835H0.124315C0.0967526 20.9613 0.191967 21.2918 0.201989 21.5246C0.222035 21.5797 0.22705 21.6348 0.222039 21.6749C0.199488 21.7775 0.22204 21.9478 0.269647 22.1531C0.304726 22.4585 0.382401 22.7765 0.520212 22.9968C0.565314 23.2197 0.622943 23.43 0.723169 23.6103C0.80335 23.8782 0.878518 24.1235 0.956193 24.3714C1.11405 24.747 1.23682 25.2702 1.43978 25.6057C1.50242 25.7635 1.56757 25.9237 1.62269 26.0614C1.73795 26.3368 1.83067 26.6223 1.9785 26.79C2.02862 26.8851 2.07622 26.9803 2.11631 27.0579C2.14889 27.138 2.18647 27.2131 2.23909 27.2832C2.28168 27.3584 2.31176 27.4134 2.35435 27.486C2.6851 28.1595 3.06095 28.783 3.49693 29.3689C3.61219 29.5241 3.69487 29.5967 3.72744 29.5742C3.76002 29.5516 3.7049 29.4314 3.59465 29.2762C3.26391 28.7579 2.88805 28.1671 2.56733 27.6638C2.45708 27.4585 2.33682 27.2332 2.21654 27.0103C1.90083 26.5922 1.78056 25.9963 1.54001 25.5657L1.54252 25.6107C1.4448 25.3529 1.36212 25.1325 1.26189 24.8746C1.15415 24.6643 1.094 24.3489 0.998785 24.1335C0.966212 24.0159 0.933647 23.9007 0.898568 23.7855C0.908591 23.8055 0.918615 23.8281 0.931143 23.8456L0.926127 23.8481C0.953689 23.8982 0.971225 23.9307 1.00129 23.9808C0.988765 23.9257 0.981249 23.8907 0.971227 23.8381C0.971227 23.8406 0.971227 23.8456 0.971227 23.8481V23.8306C0.971227 23.8331 0.971229 23.8356 0.973735 23.8381C0.981252 23.7905 0.961207 23.7079 0.958701 23.6353C0.97123 23.5301 0.926126 23.3499 0.878519 23.1671L0.868502 23.1696H0.863485L0.878519 23.1646C0.881024 23.122 0.876016 23.0694 0.865993 23.0094C1.00631 23.5527 1.1817 24.0885 1.38216 24.6092C1.56006 25.105 1.82064 25.5882 1.98852 26.1315C2.10378 26.5421 2.31176 27.0279 2.37189 26.7399C2.39444 26.6848 2.5523 26.9778 2.65002 27.1631C2.84295 27.5086 3.04089 27.9267 3.27141 28.2772C3.29898 28.3073 3.34409 28.3774 3.35912 28.4199C3.38919 28.5001 3.43428 28.5702 3.51947 28.6653C3.55204 28.6953 3.58713 28.7479 3.62221 28.823C4.12835 29.8145 4.75226 30.7534 5.7019 31.502C5.82718 31.6147 5.97502 31.7649 6.06522 31.8801C6.21306 32.1205 6.47615 32.3658 6.72421 32.5611C7.46588 33.2196 8.22759 33.7779 9.07701 34.3213L9.08202 34.3137L9.08704 34.3062L9.07701 34.3213C9.37768 34.6317 9.93896 34.847 10.3674 35.1149C10.5278 35.2652 10.7934 35.3954 11.0264 35.498C11.1467 35.5881 11.3371 35.6833 11.5476 35.7809C11.7982 35.8961 11.7455 35.801 11.9059 35.856C12.0262 35.8986 12.1514 35.9236 12.1991 35.9161C12.2842 35.9261 12.6175 36.0538 12.5824 35.9737C12.5774 35.9287 12.5298 35.8736 12.3845 35.7859C12.3694 35.7033 12.2166 35.5831 11.9635 35.4379L11.9034 35.4229L11.9059 35.4179C11.9259 35.4254 11.946 35.4354 11.9635 35.4354C11.8533 35.2777 11.728 35.1024 11.6177 34.9472C11.6528 34.8696 11.6102 34.7644 11.2619 34.5666C11.2294 34.4965 11.1567 34.4139 11.1266 34.3388C11.3797 34.4565 11.6578 34.5666 11.9009 34.6517C12.164 34.7419 12.3168 34.7344 12.3369 34.6843C12.3995 34.6292 12.1063 34.5215 11.9309 34.4314C11.7205 34.3263 11.5576 34.2086 11.5476 34.146C11.5225 34.0609 11.8282 34.1911 11.9811 34.2236C12.5123 34.3538 13.1863 34.6993 13.7902 34.7794C14.0708 34.842 14.4266 35.0098 14.6721 34.9772L14.6546 34.9647L14.6746 34.9697L14.6721 34.9772C15.0856 35.0624 15.509 35.1926 15.8623 35.185C15.8247 35.17 15.7897 35.16 15.7721 35.1475C15.7922 35.1525 15.7922 35.1525 15.7922 35.1525L15.8623 35.1875C16.2382 35.2476 16.6942 35.3303 17.0049 35.2852L16.9673 35.2727L17.0049 35.2777V35.2852C17.6113 35.3127 18.2377 35.478 18.9092 35.3503C19.4379 35.2702 20.3499 35.2276 20.9814 35.0899C21.6404 34.9297 22.4146 34.9196 22.9809 34.6217L22.9433 34.6192C22.9784 34.6042 22.9784 34.6092 22.9784 34.6092L22.9809 34.6217C24.2337 34.2887 25.4665 33.808 26.6191 33.1695C27.3658 32.814 28.1099 32.3859 28.794 31.8601H28.7965C28.8241 31.8901 28.8942 31.8751 29.032 31.7724L29.0997 31.6898L29.1022 31.6923C29.1022 31.6923 29.0596 31.7399 29.032 31.7724C29.0947 31.7724 29.1723 31.7599 29.2676 31.7224C29.0947 31.8576 28.9067 32.0328 28.7364 32.118L28.7514 32.1054C28.566 32.2081 28.3079 32.4084 28.1275 32.481C27.7166 32.6187 27.2931 33.0168 26.8396 33.2246C26.7394 33.2747 26.599 33.3423 26.4637 33.4099C26.2107 33.4925 25.895 33.7179 25.6193 33.7955C25.479 33.8531 25.3738 33.8956 25.2685 33.9382C24.81 34.156 24.359 34.3663 23.8754 34.469L23.8052 34.499L23.7501 34.5115C22.3219 34.8596 21.2795 35.2376 20.1771 35.4955C22.2718 35.2777 24.3089 34.6492 26.1831 33.7379C26.3209 33.6678 26.4412 33.6077 26.594 33.5301C26.9398 33.4449 27.3132 33.2046 27.664 32.9642C27.8594 32.8415 28.0373 32.7289 28.2352 32.6062C28.4257 32.5111 28.6537 32.3358 28.8391 32.2256C28.9143 32.1655 28.9619 32.133 29.012 32.1029C29.1974 32.0253 29.4004 31.8425 29.6108 31.6723C29.6735 31.6247 29.7511 31.5671 29.7962 31.5296C29.8764 31.477 29.9842 31.4219 30.0468 31.3743C30.137 31.2867 30.2247 31.2016 30.3124 31.114C30.3675 31.0939 30.4427 31.0414 30.5655 30.9212L30.5855 30.9087L30.583 30.9061C30.6181 30.9112 30.6858 30.8536 30.7985 30.7459C30.8211 30.7084 30.8912 30.6257 30.9163 30.6157C31.4976 29.9372 32.0012 29.1711 32.4673 28.4124C32.6477 28.147 32.8081 27.8516 32.9409 27.5812C33.0737 27.4059 33.1939 27.2131 33.2641 27.0254C33.3217 26.9452 33.3793 26.8701 33.442 26.7975C33.8028 25.8611 34.1987 24.8947 34.339 23.9833C34.4518 23.5677 34.6848 23.0895 34.6347 22.744C34.7324 22.1255 34.9053 21.452 34.8852 20.8637L34.8827 20.9262ZM31.5126 7.71402L31.5026 7.72153C31.5026 7.72153 31.5076 7.71903 31.5026 7.699L31.5126 7.71402ZM9.58064 1.58987C9.57563 1.57736 9.55059 1.56984 9.60571 1.5398C9.62325 1.52478 9.66334 1.51727 9.68088 1.50224C9.63076 1.54481 9.57313 1.57736 9.58064 1.58987ZM11.7581 35.6282C11.753 35.6407 11.7656 35.6633 11.7054 35.6432C11.6829 35.6432 11.6478 35.6182 11.6253 35.6157C11.6904 35.6257 11.753 35.6432 11.7581 35.6282ZM33.7978 17.759H33.7903V17.719L33.7978 17.759ZM33.6875 20.1351C33.7101 19.757 33.7427 19.3764 33.6825 19.0359C33.7552 19.3389 33.7126 19.737 33.6875 20.1351ZM33.7151 12.9619C33.6976 12.9443 33.66 12.8467 33.6374 12.8342C33.6274 12.7916 33.6124 12.7315 33.6023 12.6915C33.6449 12.7891 33.6925 12.9068 33.7151 12.9619ZM33.5723 15.1476L33.5798 15.1451C33.5748 15.1676 33.5673 15.2277 33.5522 15.1927C33.5522 15.1927 33.5648 15.1702 33.5723 15.1476ZM33.2315 18.728H33.2365L33.2315 18.748V18.728ZM32.8356 17.3784C32.8406 17.4536 32.8657 17.4911 32.8557 17.5487C32.8456 17.7014 32.8181 17.5337 32.7955 17.4561C32.8131 17.4536 32.8306 17.4536 32.8356 17.3784ZM32.6001 20.0424H32.6126L32.6051 20.08C32.5976 20.1 32.6001 20.0424 32.6001 20.0424ZM28.9869 29.3538C29.0145 29.3013 29.0446 29.2462 29.0746 29.1936C29.0922 28.9357 29.4204 28.4775 29.6685 27.9517C29.5682 28.3323 29.3077 28.7705 29.0746 29.1936C29.0721 29.2161 29.0596 29.2462 29.0621 29.2637C29.0521 29.2812 29.027 29.3113 28.9869 29.3538ZM6.75177 29.0934C6.73172 29.0809 6.70667 29.0534 6.68662 29.0459L6.68411 29.0484L6.67409 29.0359C6.634 28.9958 6.64652 29.0108 6.634 28.9958L6.6365 28.9933C6.6365 28.9933 6.65154 29.0058 6.67409 29.0334C6.68913 29.0434 6.68913 29.0434 6.68913 29.0434L6.7217 29.0634C6.73173 29.0759 6.74175 29.0834 6.75177 29.0934ZM3.71241 28.1921C3.69988 28.1771 3.68985 28.1646 3.68985 28.1646C3.72243 28.1846 3.73496 28.1746 3.72744 28.137C3.72494 28.132 3.71993 28.127 3.71743 28.122C3.72244 28.127 3.72494 28.132 3.72995 28.137C3.56959 27.8291 3.43177 27.4184 3.56708 27.4585C3.72995 27.6913 3.90284 28.0294 4.10329 28.2622C4.1935 28.3949 4.29623 28.5451 4.39896 28.6928C4.55681 29.0784 4.58688 29.1535 4.5067 29.2687C4.40898 29.101 4.26866 28.9307 4.11833 28.7254C4.05318 28.5376 3.88029 28.3448 3.72494 28.1395C3.73496 28.1746 3.72494 28.1821 3.71241 28.1921ZM4.19098 22.5662L4.20603 22.5637V22.6012L4.19098 22.5662ZM3.96298 23.6027C3.93291 23.5752 3.91286 23.5677 3.89532 23.5652C3.87778 23.6678 3.85022 23.753 3.80763 23.803C3.82767 23.7029 3.82265 23.5527 3.89532 23.5652C3.90534 23.5026 3.91787 23.4375 3.91537 23.3549C3.94794 23.4575 3.92539 23.5026 3.96298 23.6027ZM3.40922 26.6548C3.40922 26.6548 3.39921 26.6373 3.3917 26.6197C3.4393 26.7074 3.51697 26.8226 3.5721 26.8826L3.55957 26.8902C3.51447 26.8251 3.47186 26.7575 3.40922 26.6548ZM3.13611 25.0199C3.09602 24.9523 3.07597 24.9197 3.06595 24.9022C3.05342 24.8671 3.04089 24.8296 3.03337 24.8095C3.06094 24.8646 3.10354 24.9498 3.13611 25.0199ZM2.59488 22.774C2.57985 22.7765 2.55481 22.744 2.52975 22.6914C2.52975 22.6914 2.52974 22.6914 2.52223 22.6538C2.54227 22.7089 2.57484 22.779 2.59488 22.774ZM1.02134 21.3369C1.00881 21.3193 0.996277 21.2693 0.996277 21.2693H1.00129C1.00881 21.3193 1.01383 21.3193 1.02134 21.3369ZM1.47236 22.9943C1.43978 23.0044 1.45733 23.112 1.49491 23.2522C1.45733 23.1696 1.41472 23.087 1.4047 22.9743C1.41222 22.9192 1.4473 22.9643 1.47236 22.9943ZM2.30173 22.0304C2.26164 21.9603 2.22154 21.8677 2.18646 21.6774C2.22655 21.8276 2.26414 21.9378 2.30173 22.0304ZM2.42952 22.9543C2.4195 22.8366 2.40446 22.7415 2.44706 22.7314C2.41198 22.739 2.41699 22.8366 2.42952 22.9543ZM0.788319 17.5162L0.785811 17.5512H0.778286V17.5337C0.780792 17.5162 0.780795 17.5162 0.780795 17.5162H0.788319ZM0.68307 18.2197V18.2372C0.680565 18.2422 0.680575 18.2498 0.67807 18.2573C0.665541 18.3524 0.658026 18.43 0.648003 18.5126C0.645497 18.5377 0.645492 18.5602 0.642987 18.5853C0.642987 18.5477 0.642987 18.5477 0.642987 18.5477C0.645492 18.5352 0.645497 18.5227 0.648003 18.5101C0.653014 18.41 0.66053 18.3274 0.67807 18.2548C0.680575 18.2447 0.68307 18.2322 0.68307 18.2197ZM0.39493 20.9738C0.409963 20.9763 0.424993 20.9688 0.437521 20.9538C0.442533 21.0114 0.447543 21.0464 0.452555 21.104C0.437521 21.0539 0.414975 21.0139 0.39493 20.9738C0.349828 20.9688 0.299713 20.8912 0.252106 20.8111C0.299713 20.8436 0.349828 20.9012 0.39493 20.9738ZM2.64249 25.6884C2.68008 25.781 2.70264 25.8361 2.73271 25.9112C2.76027 26.0088 2.80286 26.1015 2.83543 26.1516L2.83292 26.109C2.8655 26.2041 2.89557 26.2792 2.93065 26.3519C3.06094 26.6248 3.30149 27.0254 3.14113 26.9703C3.09603 26.9527 3.07848 26.9653 3.08098 27.0053C3.03337 26.9102 2.98326 26.815 2.94067 26.7274L2.93816 26.7299C2.93816 26.5997 2.75775 26.3694 2.67256 26.1666C2.645 26.0138 2.5974 25.8486 2.51472 25.6583C2.57235 25.7234 2.61493 25.7259 2.64249 25.6884ZM7.05996 6.26435C7.06247 6.26185 7.06247 6.25935 7.06498 6.25684C7.06498 6.25935 7.06247 6.26185 7.05996 6.26435ZM18.8015 2.64645L18.799 2.66899C18.7964 2.68902 18.7062 2.67399 18.7037 2.68651C18.7062 2.66648 18.799 2.66648 18.8015 2.64645ZM17.6539 2.48872C17.6163 2.48371 17.6539 2.48621 17.6363 2.48371C17.6163 2.48371 17.5436 2.48371 17.5436 2.48371L17.5812 2.4787C17.6564 2.46368 17.7842 2.46118 17.8969 2.46368C17.8393 2.4812 17.694 2.47119 17.6539 2.48872ZM17.8969 2.66147C17.8969 2.66398 17.8769 2.66648 17.8393 2.66147C17.8217 2.66398 17.8217 2.66398 17.8217 2.66398L17.7841 2.67399C17.7691 2.67399 17.7566 2.6765 17.7441 2.6765C17.7666 2.67149 17.8067 2.67399 17.8242 2.66648V2.66147L17.8418 2.66398C17.8969 2.66147 17.8794 2.66147 17.8969 2.66147ZM30.2623 24.8671C30.2698 24.8296 30.2999 24.787 30.3149 24.7745L30.325 24.7795C30.3049 24.8095 30.2573 24.9222 30.2623 24.8671ZM30.3024 24.9873L30.2874 25.0149L30.2899 24.9823C30.2849 24.9873 30.2798 24.9948 30.2748 24.9998C30.2748 24.9973 30.2748 24.9923 30.2748 24.9873C30.2798 24.9898 30.2874 24.9798 30.2949 24.9673C30.2924 24.9723 30.2899 24.9748 30.2874 24.9798L30.3024 24.9873ZM32.0814 19.9172C32.0739 19.9698 32.0714 19.9898 32.0614 20.06C32.0614 19.9873 32.0488 19.9873 32.0463 19.9673C32.0614 19.9147 32.0714 19.9348 32.0814 19.9172ZM31.7431 11.2017C31.7482 11.2092 31.7456 11.2067 31.7532 11.2243L31.7431 11.2067C31.7431 11.2017 31.7431 11.2017 31.7431 11.2017C31.7331 11.1842 31.7256 11.1667 31.7206 11.1542C31.7106 11.1141 31.7081 11.0966 31.7081 11.0966C31.7106 11.1116 31.7206 11.1517 31.7431 11.2017ZM31.6655 9.50169C31.673 9.51421 31.673 9.51421 31.673 9.51421C31.6705 9.5092 31.668 9.50419 31.6655 9.50169C31.6655 9.50169 31.6655 9.50169 31.663 9.49918L31.6529 9.48166C31.6529 9.48166 31.6605 9.48917 31.6655 9.50169ZM31.4249 9.28637L31.4174 9.29137C31.4174 9.29137 31.4174 9.29137 31.4074 9.27385C31.4224 9.28887 31.4249 9.28637 31.4249 9.28637ZM26.2207 4.69201C26.0854 4.61439 25.9827 4.56181 25.8899 4.52426C25.9676 4.54929 26.0628 4.58184 26.2207 4.69201ZM25.1808 4.20127C25.2009 4.20127 25.2259 4.20628 25.261 4.2188C25.261 4.2188 25.261 4.2188 25.2936 4.24133C25.256 4.22381 25.2084 4.20628 25.1808 4.20127ZM25.2936 4.12866C25.3111 4.10112 25.241 4.03603 25.1483 3.96091C25.2385 4.03603 25.3136 4.09361 25.2936 4.12866ZM23.3166 3.03453C23.3517 3.05206 23.3868 3.06708 23.4043 3.0771C23.3492 3.05707 23.259 3.02702 23.1838 3.00198C23.2615 3.01951 23.2966 3.02952 23.3166 3.03453ZM21.5627 1.97295C21.6404 1.99047 21.718 2.008 21.8358 2.03304C21.8358 2.03304 21.8558 2.03804 21.8734 2.04555C21.7782 2.01801 21.6404 1.99047 21.5602 1.98546L21.5627 1.97295ZM18.2702 0.155232C18.2527 0.160239 18.2427 0.165247 18.2126 0.170254V0.162743L18.2702 0.155232ZM15.3261 0.252878C15.3261 0.252878 15.3261 0.252878 15.3662 0.255381C15.3261 0.257885 15.2409 0.260389 15.1983 0.262893L15.3261 0.252878ZM3.47186 8.81316C3.47186 8.83069 3.46937 8.85572 3.46937 8.87826C3.46937 8.87826 3.46937 8.87826 3.46937 8.88076C3.46436 8.86324 3.46435 8.84321 3.47186 8.81316ZM3.44681 8.91581C3.44681 8.91832 3.4443 8.91832 3.4443 8.92082C3.42426 8.92833 3.3992 8.94336 3.37665 8.95337C3.40421 8.93584 3.42677 8.92833 3.44681 8.91581ZM0.184448 19.5617C0.176931 19.5867 0.169413 19.6093 0.151873 19.5893C0.151873 19.5893 0.151886 19.5893 0.14938 19.5517C0.16692 19.5918 0.176931 19.5817 0.184448 19.5617ZM0.592871 22.7865C0.592871 22.789 0.595379 22.789 0.595379 22.7915H0.592871C0.592871 22.7915 0.592871 22.789 0.592871 22.7865ZM2.40447 26.3268C2.35686 26.2116 2.31175 26.099 2.26664 25.9838C2.28669 26.0113 2.30424 26.0389 2.32429 26.0639C2.33681 26.149 2.39695 26.2792 2.45208 26.3944C2.43704 26.3744 2.42201 26.3493 2.40447 26.3268ZM3.58713 28.5902C3.28645 28.1646 3.02836 27.6863 2.87802 27.2257C2.86049 27.1681 2.83793 27.1105 2.81288 27.0529C2.86549 27.138 2.91561 27.2231 2.94317 27.3008C2.98326 27.431 3.11607 27.6137 3.21379 27.7715C3.23634 27.8015 3.26892 27.824 3.29648 27.8516C3.66481 28.3498 3.99305 28.8731 4.46662 29.3213C4.45659 29.3338 4.44657 29.3463 4.43404 29.3613C4.29874 29.4615 3.93291 29.0108 3.58713 28.5902ZM4.61695 25.2477C4.70966 25.2427 4.73471 25.1175 4.69211 24.8897C4.71968 25.0299 4.74724 25.1701 4.7723 25.2903C4.83494 25.5381 4.69963 25.3478 4.61695 25.2477ZM4.82241 28.3548C4.84246 28.3649 4.79986 28.2772 4.85248 28.3348C4.9051 28.3924 4.86501 28.3749 4.89007 28.4274C4.87504 28.4124 4.84747 28.3849 4.82241 28.3548ZM5.98504 28.3674L6.00258 28.3523C6.01762 28.3398 6.07274 28.4149 6.08276 28.4074C6.06773 28.4199 6.00007 28.3548 5.98504 28.3674ZM6.49619 29.1335C6.5463 29.1635 6.64402 29.2737 6.68411 29.2887C6.70917 29.3188 6.68162 29.2912 6.69414 29.3038C6.70667 29.3163 6.75928 29.3689 6.75928 29.3689L6.72921 29.3463C6.66908 29.3038 6.57386 29.2161 6.49619 29.1335ZM6.74926 32.5161C6.74926 32.5161 6.74926 32.5161 6.7217 32.486C6.75177 32.5135 6.81441 32.5686 6.84448 32.5987L6.74926 32.5161ZM7.44082 32.2181C7.44333 32.2131 7.43581 32.2031 7.43581 32.1981C7.31804 32.0679 7.25039 31.9577 7.13763 31.83L7.10257 31.8075C7.10257 31.8075 7.1226 31.815 7.10757 31.8025C7.1226 31.815 7.1226 31.815 7.14014 31.83C7.41576 32.0504 7.45335 32.138 7.43832 32.1981C7.46087 32.2231 7.47339 32.2457 7.50096 32.2732C7.47089 32.2457 7.47089 32.2457 7.44082 32.2181ZM8.68112 30.14C8.75128 30.1675 8.76882 30.1726 8.81893 30.1926C8.79388 30.1951 8.82645 30.2377 8.83146 30.2577C8.77884 30.2126 8.72873 30.1901 8.68112 30.14ZM9.58315 32.1655L9.58817 32.158L9.60069 32.173C9.58315 32.1655 9.58315 32.1655 9.58315 32.1655ZM11.4323 32.3107C11.515 32.3458 11.5351 32.3383 11.5902 32.3533C11.5376 32.3383 11.525 32.3608 11.4323 32.3107ZM12.3369 32.7865C12.3544 32.794 12.3544 32.7915 12.3544 32.7915V32.794L12.3369 32.7865C12.3243 32.784 12.3168 32.784 12.3043 32.7815C12.2316 32.8165 12.0863 32.784 11.9234 32.7239C11.8533 32.7063 11.7806 32.6788 11.6904 32.6287C11.6804 32.6237 11.6754 32.6262 11.6653 32.6187C11.6002 32.5887 11.6002 32.5887 11.5526 32.5661C11.5977 32.5862 11.6453 32.6062 11.6904 32.6262C11.7681 32.6613 11.8483 32.6938 11.9234 32.7214C12.0537 32.7539 12.164 32.7489 12.3043 32.7789C12.3093 32.7764 12.3168 32.7789 12.3218 32.7764C12.3293 32.7764 12.3168 32.7689 12.3243 32.7689C12.2717 32.7113 12.2316 32.6663 12.179 32.6062C12.1715 32.6012 12.164 32.5962 12.1565 32.5912C12.1715 32.5987 12.1715 32.5987 12.1715 32.5987C12.164 32.5887 12.1414 32.5711 12.1314 32.5586C11.956 32.4434 11.7906 32.3258 11.6628 32.2106L11.6578 32.2181C11.4799 32.1079 11.272 31.9777 11.272 31.9777C11.272 31.9777 11.4649 32.0954 11.6127 32.1856C11.6428 32.2031 11.6428 32.2031 11.6603 32.2106C11.9059 32.3408 12.0487 32.4635 12.1289 32.5586C12.1565 32.5761 12.174 32.5962 12.2016 32.6137C12.2016 32.6137 12.2016 32.6137 12.169 32.5987C12.1715 32.6012 12.174 32.6037 12.1765 32.6062C12.2943 32.6813 12.4095 32.7539 12.3218 32.7689C12.3293 32.7789 12.3319 32.7814 12.3369 32.7865ZM12.7854 32.8641L12.5924 32.7815C12.6576 32.8065 12.7353 32.8491 12.823 32.8716C12.8205 32.8691 12.8029 32.8666 12.7854 32.8641ZM13.7801 34.156L13.7826 34.151V34.1485L13.7801 34.156ZM14.7273 33.7078C14.7473 33.6978 14.6822 33.6778 14.6847 33.6653C14.6997 33.6803 14.7298 33.7003 14.7799 33.7229C14.7448 33.7128 14.7448 33.7128 14.7273 33.7078ZM16.0402 34.0133V34.0083L16.0753 34.0233L16.0402 34.0133ZM16.8997 34.136C16.8145 34.0909 16.7142 34.0458 16.614 34.0083C16.6842 34.0133 16.8245 34.0208 16.9498 34.0283C17.0174 34.0659 17.065 34.1034 16.8997 34.136ZM18.2678 33.0519C18.2853 33.0644 18.3329 33.0744 18.4005 33.0894C18.4005 33.0894 18.4156 33.1019 18.4482 33.1069V33.1119C18.4156 33.1019 18.4005 33.0894 18.4005 33.0894C18.3179 33.0719 18.2853 33.0669 18.2377 33.0569C18.2678 33.0569 18.2678 33.0519 18.2678 33.0519ZM18.4431 33.3147C18.4607 33.3147 18.4607 33.3147 18.4607 33.3147C18.4431 33.3273 18.393 33.3398 18.3429 33.3498C18.393 33.3398 18.4081 33.3273 18.4431 33.3147ZM21.2545 34.7769C21.252 34.7794 21.247 34.7819 21.2445 34.7869C21.237 34.8045 21.2194 34.822 21.1893 34.8395C21.2044 34.827 21.2269 34.8045 21.2445 34.7869C21.2495 34.7769 21.252 34.7669 21.2495 34.7569C21.252 34.7794 21.3096 34.792 21.3522 34.807C21.3146 34.797 21.2921 34.7794 21.2545 34.7769ZM22.7278 33.0569C22.6602 33.0794 22.5725 33.117 22.5624 33.0819C22.5299 33.0919 22.5599 33.0694 22.5098 33.0794C22.5123 33.0769 22.5148 33.0744 22.5173 33.0719C22.5299 33.0669 22.5449 33.0619 22.5574 33.0569L22.5649 33.0819L22.6677 33.0694C22.6852 33.0644 22.7053 33.0619 22.7278 33.0569C22.7403 33.0544 22.7529 33.0468 22.7629 33.0443V33.0494C22.7579 33.0494 22.7403 33.0544 22.7278 33.0569ZM26.133 31.497C25.9025 31.6072 25.6995 31.6898 25.6218 31.6473C25.5091 31.6122 25.7421 31.482 25.935 31.3568C26.0177 31.3017 26.1255 31.2216 26.0628 31.2116C25.9275 31.2391 25.7421 31.3819 25.6419 31.3693C25.8123 31.2366 26.0353 31.1615 26.2157 31.0163C26.1731 31.0263 26.1455 31.0313 26.133 31.0238C26.1255 31.0263 26.118 31.0288 26.1104 31.0313C26.1255 31.0213 26.1255 31.0213 26.1255 31.0213C26.1255 31.0238 26.1305 31.0213 26.133 31.0238C26.1731 31.0113 26.2082 31.0013 26.2157 31.0163C26.2407 30.9913 26.2808 30.9662 26.3284 30.9487C26.564 30.8586 26.8095 30.6332 27.0576 30.5256C27.4008 30.3553 27.6664 30.1024 27.9496 29.8245L27.9646 29.8145L27.9897 29.792C27.9772 29.802 27.9772 29.802 27.9772 29.802C28.1851 29.5141 27.9095 29.7494 27.7391 29.8746L27.664 29.9347L27.6188 29.9597C27.481 29.9948 27.2405 30.2176 27.1027 30.2477C27.6865 29.782 28.2879 29.3113 28.799 28.7629C28.8341 28.7279 28.8717 28.6903 28.9118 28.6528C28.9067 28.6628 28.9017 28.6703 28.9017 28.6753C28.8667 28.7429 28.9268 28.6979 28.9719 28.6378C29.007 28.5952 29.037 28.5476 29.037 28.5476C29.0345 28.5451 29.0295 28.5426 29.027 28.5401C29.1222 28.4425 29.2024 28.3498 29.2049 28.2772C29.2174 28.1846 29.2676 28.0844 29.3377 27.9768C29.473 27.9117 29.6735 27.7139 29.7637 27.7339C29.686 27.8616 29.6509 27.9317 29.6584 27.9818C29.3703 28.3774 29.2926 28.5777 29.1323 28.8656C28.9769 29.1335 28.9293 29.3213 28.6687 29.6518C28.5284 29.8095 28.4006 29.9647 28.2778 30.12C28.2427 30.145 28.2102 30.17 28.1751 30.1926C27.5311 30.6758 26.8371 31.0964 26.133 31.497ZM26.8872 31.3568C26.9022 31.3468 26.9624 31.3118 26.9624 31.3118C26.9849 31.3067 27.0075 31.2917 27.03 31.2792C27.0626 31.2592 27.0952 31.2417 27.1177 31.2391C27.0876 31.2467 27.0601 31.2642 27.03 31.2792C26.9849 31.3093 26.9348 31.3393 26.8872 31.3568Z" fill="white"/>
<path d="M19.209 23.1729L19.2295 23.2139C19.2295 23.223 19.2272 23.2321 19.2227 23.2412C19.2181 23.2503 19.2113 23.2594 19.2021 23.2686L19.1885 23.2891C19.193 23.2799 19.1953 23.2731 19.1953 23.2686L19.2021 23.2549L19.1953 23.248L19.1338 23.3301C19.1247 23.3255 19.1133 23.3232 19.0996 23.3232C19.0951 23.3278 19.0882 23.3324 19.0791 23.3369H19.0654C19.0654 23.3551 19.0609 23.3734 19.0518 23.3916H19.0312C19.0312 23.4144 19.0244 23.4303 19.0107 23.4395C18.9971 23.4486 18.9834 23.4531 18.9697 23.4531L18.9355 23.4463L18.9219 23.46V23.5215C18.9036 23.5306 18.8809 23.5374 18.8535 23.542H18.8262C18.8125 23.542 18.7943 23.5397 18.7715 23.5352L18.7783 23.5898C18.7692 23.599 18.7533 23.6081 18.7305 23.6172C18.7214 23.6263 18.7077 23.6309 18.6895 23.6309C18.6803 23.6309 18.6689 23.6286 18.6553 23.624L18.6143 23.665L18.6006 23.6514L18.5527 23.7061L18.5049 23.6924L18.4912 23.7471C18.473 23.7425 18.4593 23.738 18.4502 23.7334C18.432 23.7243 18.416 23.7174 18.4023 23.7129L18.4229 23.7881C18.4001 23.8154 18.3659 23.8382 18.3203 23.8564L18.2383 23.8838L18.2178 23.877C18.2132 23.8861 18.2064 23.8906 18.1973 23.8906H18.1836L18.1562 23.9248C18.1426 23.9294 18.1312 23.9316 18.1221 23.9316C18.0947 23.9316 18.0674 23.9225 18.04 23.9043L18.0332 23.918C18.0104 23.9134 17.9899 23.9043 17.9717 23.8906L17.9648 23.8975C17.9557 23.902 17.9466 23.9043 17.9375 23.9043C17.9284 23.918 17.917 23.9271 17.9033 23.9316C17.8942 23.9316 17.8851 23.9316 17.876 23.9316L17.8281 23.9248L17.8213 23.9316C17.8213 23.9453 17.8213 23.9567 17.8213 23.9658C17.8213 23.9749 17.819 23.984 17.8145 23.9932L17.7461 24.0273C17.7279 24.0228 17.7096 24.0137 17.6914 24H17.6777V24.0137C17.6686 24.0137 17.6595 24.0114 17.6504 24.0068H17.6436L17.6367 24.0273C17.6185 24.0319 17.6003 24.0342 17.582 24.0342C17.5684 24.0342 17.5501 24.0319 17.5273 24.0273C17.5046 24.0228 17.4749 24.0068 17.4385 23.9795H17.4111L17.3975 24.041C17.3883 24.0456 17.3792 24.0501 17.3701 24.0547C17.361 24.0592 17.3496 24.0615 17.3359 24.0615L17.3018 24.0684L17.2812 24.0547C17.263 24.0638 17.2471 24.0684 17.2334 24.0684L17.1855 24.0479C17.181 24.0387 17.1764 24.0319 17.1719 24.0273H17.165L17.1582 24.0205H17.1514C17.1058 24.0205 17.0648 23.9932 17.0283 23.9385L17.0078 23.9248C17.0124 23.943 17.0146 23.9613 17.0146 23.9795C17.0146 23.9977 17.0124 24.016 17.0078 24.0342L16.9395 24.0684C16.9167 24.0638 16.8939 24.0524 16.8711 24.0342V24.041C16.8301 24.0228 16.7891 23.9932 16.748 23.9521C16.7253 23.9932 16.6934 24.0137 16.6523 24.0137H16.6318C16.6045 24.0091 16.5771 23.9954 16.5498 23.9727C16.5361 23.9772 16.527 23.9795 16.5225 23.9795C16.4906 23.9795 16.4632 23.9635 16.4404 23.9316L16.4131 23.9521L16.3037 23.8838L16.2969 23.9043C16.2285 23.9043 16.167 23.8747 16.1123 23.8154C16.1032 23.8245 16.0895 23.8291 16.0713 23.8291L16.0508 23.8223L15.8457 23.7266C15.7728 23.6901 15.7135 23.6559 15.668 23.624C15.6361 23.6058 15.5973 23.5716 15.5518 23.5215L15.5039 23.4668L15.4424 23.4189H15.4219L15.3535 23.3848C15.3353 23.3665 15.3171 23.3438 15.2988 23.3164L15.2715 23.2754C15.2578 23.2617 15.2464 23.2549 15.2373 23.2549C15.2282 23.2503 15.2214 23.248 15.2168 23.248L15.1553 23.1934C15.1553 23.1888 15.153 23.1842 15.1484 23.1797L15.1006 23.1729C15.0687 23.1637 15.0459 23.1387 15.0322 23.0977L15.0664 23.0566C15.0573 23.043 15.0413 23.027 15.0186 23.0088L14.9297 22.8994C14.8841 22.8538 14.8522 22.8197 14.834 22.7969C14.8158 22.7695 14.8044 22.749 14.7998 22.7354C14.7861 22.7171 14.7793 22.7035 14.7793 22.6943C14.7793 22.6807 14.7816 22.6693 14.7861 22.6602C14.7861 22.6556 14.7884 22.6533 14.793 22.6533L14.7725 22.6328C14.7406 22.6055 14.7201 22.5781 14.7109 22.5508C14.7064 22.5234 14.7041 22.5007 14.7041 22.4824C14.7041 22.4733 14.7064 22.4665 14.7109 22.4619C14.6699 22.4027 14.6471 22.348 14.6426 22.2979L14.6562 22.2705C14.6517 22.266 14.6494 22.2614 14.6494 22.2568L14.6631 22.25L14.6562 22.2568L14.6631 22.25L14.7383 22.2295V22.2158C14.7474 22.2021 14.7565 22.193 14.7656 22.1885C14.7747 22.1794 14.7839 22.1748 14.793 22.1748C14.7383 22.1247 14.6904 22.0882 14.6494 22.0654L14.6152 22.0176L14.6357 21.9902L14.6289 21.9834C14.597 21.9469 14.5765 21.9128 14.5674 21.8809L14.6221 21.8057H14.6289C14.6243 21.792 14.6198 21.7806 14.6152 21.7715L14.5879 21.7305V21.6895L14.5947 21.6963C14.5947 21.6872 14.5993 21.6781 14.6084 21.6689V21.6211L14.5811 21.6074C14.5856 21.5846 14.5924 21.5664 14.6016 21.5527C14.5879 21.5436 14.5765 21.5322 14.5674 21.5186C14.54 21.4912 14.5218 21.457 14.5127 21.416L14.6016 21.3545V21.3613H14.6084L14.5674 21.3203L14.5264 21.2725C14.5264 21.2679 14.5264 21.2611 14.5264 21.252C14.5264 21.2383 14.5286 21.2269 14.5332 21.2178C14.5241 21.1995 14.5173 21.1813 14.5127 21.1631L14.5332 21.1494C14.5241 21.1266 14.5173 21.1016 14.5127 21.0742L14.54 21.0537C14.5218 21.0264 14.5127 21.0013 14.5127 20.9785L14.5605 20.9375L14.5674 20.9102L14.54 20.8896C14.5309 20.876 14.5241 20.8646 14.5195 20.8555C14.515 20.8418 14.5127 20.8304 14.5127 20.8213L14.5947 20.7803C14.5674 20.7484 14.5469 20.7233 14.5332 20.7051L14.5537 20.6094H14.5742C14.5879 20.6094 14.6016 20.6117 14.6152 20.6162L14.6221 20.5889C14.5765 20.5342 14.5423 20.4795 14.5195 20.4248L14.5537 20.3633C14.5355 20.3268 14.5264 20.2926 14.5264 20.2607L14.6152 20.2129C14.6243 20.2174 14.6449 20.2334 14.6768 20.2607C14.6813 20.2471 14.6882 20.238 14.6973 20.2334C14.6927 20.2288 14.6904 20.222 14.6904 20.2129L14.6973 20.1855C14.6654 20.1536 14.6471 20.1172 14.6426 20.0762L14.6904 20.0557C14.6813 20.042 14.6768 20.0283 14.6768 20.0146L14.7109 19.9805V19.9326C14.7292 19.9144 14.7474 19.9007 14.7656 19.8916L14.793 19.8848L14.8066 19.8916V19.8848C14.8066 19.862 14.8135 19.846 14.8271 19.8369C14.8408 19.8232 14.8545 19.8164 14.8682 19.8164L14.9023 19.8301L14.8818 19.8232L14.8613 19.8301L14.875 19.8574L14.9434 19.8301L14.9844 19.8711C14.9889 19.8665 14.9935 19.8643 14.998 19.8643L14.9912 19.8027C15.0003 19.7936 15.0094 19.7868 15.0186 19.7822L15.0049 19.7344C15.0094 19.7253 15.0163 19.7184 15.0254 19.7139C15.0345 19.7048 15.0459 19.7002 15.0596 19.7002C15.0778 19.6956 15.1006 19.7002 15.1279 19.7139L15.1484 19.7207L15.1895 19.707L15.2236 19.7412V19.7207L15.2783 19.7275C15.2829 19.7002 15.2988 19.6797 15.3262 19.666L15.3535 19.6592L15.3672 19.6797L15.3945 19.6865L15.4424 19.6318C15.4788 19.641 15.5085 19.6546 15.5312 19.6729C15.5495 19.6911 15.5654 19.7116 15.5791 19.7344C15.5837 19.7389 15.5859 19.7435 15.5859 19.748L15.6133 19.707L15.668 19.7207L15.6748 19.6865H15.6953C15.7181 19.6865 15.7409 19.6934 15.7637 19.707L15.7842 19.7207V19.7344C15.7979 19.7344 15.807 19.7389 15.8115 19.748L15.832 19.7617H15.8525L15.8799 19.7891C15.9118 19.7891 15.9505 19.8164 15.9961 19.8711L16.0508 19.9326C16.0645 19.9417 16.0736 19.9463 16.0781 19.9463L16.0918 20.001L16.1328 20.0283C16.151 20.0465 16.1647 20.0671 16.1738 20.0898L16.1328 20.1172C16.1374 20.1217 16.1442 20.1263 16.1533 20.1309L16.167 20.2129C16.1624 20.222 16.1579 20.2311 16.1533 20.2402C16.1533 20.2493 16.1556 20.2562 16.1602 20.2607V20.2676C16.1693 20.2812 16.1829 20.2972 16.2012 20.3154L16.2422 20.3564L16.1807 20.4521L16.1875 20.4795L16.1943 20.4727L16.208 20.541L16.2422 20.5137C16.2559 20.5273 16.2627 20.5501 16.2627 20.582L16.2695 20.5957L16.2285 20.6504C16.2513 20.7005 16.265 20.7552 16.2695 20.8145L16.2148 20.8418H16.2285L16.2217 20.9033L16.2559 20.9307L16.2627 20.999L16.249 21.0195L16.2559 21.0264C16.2559 21.04 16.2536 21.0514 16.249 21.0605C16.2445 21.0697 16.2399 21.0765 16.2354 21.0811L16.2217 21.0879H16.2012L16.1602 21.1357L16.249 21.2246L16.208 21.2998V21.3135L16.1943 21.3203L16.1738 21.3271C16.1693 21.3271 16.1647 21.3294 16.1602 21.334L16.1807 21.3682L16.208 21.3955C16.2445 21.432 16.2695 21.4639 16.2832 21.4912L16.2559 21.5254H16.2627L16.249 21.6279C16.2536 21.6279 16.2559 21.6257 16.2559 21.6211C16.2604 21.6165 16.2627 21.612 16.2627 21.6074V21.6963C16.2536 21.7008 16.2399 21.7031 16.2217 21.7031L16.2285 21.7168L16.2148 21.7236H16.2217C16.2308 21.7282 16.2422 21.735 16.2559 21.7441L16.249 21.7852L16.2627 21.7988L16.2764 21.8057C16.29 21.8148 16.2992 21.8262 16.3037 21.8398C16.3083 21.8535 16.3105 21.8672 16.3105 21.8809C16.3105 21.89 16.3105 21.8968 16.3105 21.9014L16.3037 21.9082L16.4336 22.0176L16.4062 22.0586H16.4404L16.4336 22.0654L16.4404 22.0723H16.4473L16.4404 22.1201H16.4473V22.127L16.4541 22.1133C16.4814 22.1133 16.5179 22.1315 16.5635 22.168V22.1748H16.5703C16.6068 22.1839 16.6432 22.2044 16.6797 22.2363H16.6865C16.6911 22.2318 16.6979 22.2295 16.707 22.2295C16.7161 22.2249 16.7275 22.2227 16.7412 22.2227C16.7594 22.2227 16.7754 22.2272 16.7891 22.2363C16.8027 22.2363 16.8187 22.2432 16.8369 22.2568V22.25C16.8779 22.2591 16.9098 22.2796 16.9326 22.3115C16.9463 22.3115 16.9645 22.3161 16.9873 22.3252L17.0078 22.2979C17.0625 22.2979 17.1126 22.3184 17.1582 22.3594C17.1628 22.3594 17.165 22.3617 17.165 22.3662L17.1855 22.3252C17.1992 22.3252 17.2174 22.3298 17.2402 22.3389C17.2676 22.3434 17.2949 22.3525 17.3223 22.3662C17.3314 22.3525 17.3405 22.3434 17.3496 22.3389C17.3587 22.3298 17.3656 22.3229 17.3701 22.3184C17.3929 22.3001 17.418 22.291 17.4453 22.291C17.459 22.291 17.4727 22.2933 17.4863 22.2979L17.4932 22.3047C17.5068 22.3001 17.5228 22.2979 17.541 22.2979L17.5615 22.3047L17.6162 22.2568C17.6299 22.2614 17.6458 22.2682 17.6641 22.2773V22.2705L17.7598 22.2227V22.2295H17.7666C17.7757 22.2204 17.7848 22.2135 17.7939 22.209L17.8008 22.1816L17.8076 22.1885L17.835 22.1543C17.8304 22.1452 17.8281 22.1361 17.8281 22.127L17.9033 22.0791V22.0518C17.9033 22.0426 17.9033 22.0312 17.9033 22.0176C17.9079 22.0039 17.9124 21.9925 17.917 21.9834L17.9854 21.9629V21.9561H17.999C18.0218 21.9561 18.0469 21.9629 18.0742 21.9766L18.0947 21.9424C18.1084 21.9424 18.1243 21.9469 18.1426 21.9561C18.138 21.9515 18.1357 21.9469 18.1357 21.9424L18.1084 21.9355L18.0605 21.8672L18.0947 21.7783H18.1016V21.7715C18.1198 21.7487 18.1426 21.7373 18.1699 21.7373L18.1152 21.6826L18.1357 21.6416L18.1426 21.6211L18.1221 21.6006C18.1175 21.6051 18.1152 21.6097 18.1152 21.6143V21.6211C18.1107 21.6211 18.1084 21.6165 18.1084 21.6074L18.1631 21.5596C18.154 21.5413 18.1494 21.5208 18.1494 21.498C18.1494 21.4889 18.1517 21.4775 18.1562 21.4639C18.1654 21.4456 18.179 21.4297 18.1973 21.416L18.2383 21.4365V21.4229C18.2428 21.4183 18.2474 21.416 18.252 21.416V21.4092C18.2064 21.3773 18.1768 21.3408 18.1631 21.2998L18.2041 21.252L18.1836 21.2246C18.1973 21.2018 18.2155 21.1904 18.2383 21.1904H18.252C18.2383 21.1813 18.2269 21.1745 18.2178 21.1699L18.1768 21.1152V21.04L18.2383 21.0059C18.2292 20.9922 18.2223 20.9762 18.2178 20.958L18.2314 20.9443L18.2246 20.9375L18.2041 20.8965H18.1973C18.1973 20.8919 18.195 20.8896 18.1904 20.8896V20.8145C18.2041 20.7962 18.2155 20.7848 18.2246 20.7803L18.2451 20.7734L18.2588 20.7803H18.2725L18.2998 20.7256C18.3089 20.7256 18.318 20.7256 18.3271 20.7256C18.3363 20.721 18.3454 20.7188 18.3545 20.7188L18.3066 20.6504C18.2884 20.623 18.2679 20.6025 18.2451 20.5889L18.2588 20.4863C18.2679 20.4818 18.2747 20.4795 18.2793 20.4795C18.2292 20.4339 18.195 20.3861 18.1768 20.3359L18.1973 20.3086V20.3018H18.1904C18.1722 20.2744 18.1631 20.2471 18.1631 20.2197C18.1676 20.2061 18.1699 20.1947 18.1699 20.1855C18.1654 20.1719 18.1631 20.1559 18.1631 20.1377L18.1904 20.1104C18.1585 20.0693 18.1426 20.0215 18.1426 19.9668C18.1426 19.9486 18.1449 19.9303 18.1494 19.9121L18.2041 19.8848L18.1836 19.8779C18.1745 19.8688 18.1676 19.8551 18.1631 19.8369C18.1585 19.8278 18.1562 19.8187 18.1562 19.8096C18.1562 19.8005 18.1585 19.7913 18.1631 19.7822L18.2246 19.748L18.2109 19.7344C18.1882 19.6888 18.1768 19.6478 18.1768 19.6113C18.1585 19.5977 18.1426 19.584 18.1289 19.5703C18.0833 19.5293 18.0605 19.4814 18.0605 19.4268L18.0742 19.4199C18.0605 19.3971 18.0537 19.3766 18.0537 19.3584L18.0879 19.29C18.1016 19.2855 18.113 19.2832 18.1221 19.2832C18.0765 19.2376 18.0378 19.2035 18.0059 19.1807V19.085C18.0104 19.085 18.0127 19.0827 18.0127 19.0781V19.0645L18.0264 19.0508L17.876 18.9072C17.8213 18.8571 17.7734 18.8115 17.7324 18.7705L17.6982 18.8389C17.6481 18.8298 17.582 18.791 17.5 18.7227L17.418 18.6543C17.3952 18.6406 17.3724 18.6292 17.3496 18.6201L17.3428 18.5791L17.3359 18.5859C17.3359 18.5814 17.3337 18.5791 17.3291 18.5791C17.3245 18.5745 17.32 18.5723 17.3154 18.5723H17.3086L17.2402 18.5312C17.2266 18.5312 17.2197 18.529 17.2197 18.5244L17.1924 18.5586C17.1514 18.5449 17.1058 18.5176 17.0557 18.4766C17.0465 18.4674 17.0352 18.4606 17.0215 18.4561H16.9941C16.9759 18.4561 16.9577 18.4538 16.9395 18.4492C16.9212 18.4401 16.903 18.4264 16.8848 18.4082C16.8665 18.39 16.8551 18.3763 16.8506 18.3672C16.8369 18.3535 16.8278 18.3421 16.8232 18.333L16.8096 18.3262C16.8005 18.3216 16.7913 18.3193 16.7822 18.3193C16.7777 18.3148 16.7731 18.3125 16.7686 18.3125L16.7002 18.2715C16.7002 18.2624 16.6934 18.2533 16.6797 18.2441L16.6523 18.2305L16.625 18.2031C16.5931 18.1986 16.5498 18.1621 16.4951 18.0938L16.4199 18.0049L16.3926 17.9775L16.3516 17.8955L16.3721 17.875V17.8613L16.3652 17.8682L16.3379 17.8271H16.3447C16.3493 17.8317 16.3538 17.834 16.3584 17.834L16.3516 17.8271L16.3584 17.8203L16.3311 17.7998H16.3379L16.3105 17.7725L16.3789 17.7246V17.7109H16.4131L16.4062 17.6973L16.4199 17.6836C16.4062 17.6745 16.3903 17.6654 16.3721 17.6562L16.3105 17.6221C16.2741 17.5902 16.2513 17.556 16.2422 17.5195L16.3174 17.4512L16.3652 17.4375H16.3721V17.4238C16.3903 17.4193 16.4062 17.417 16.4199 17.417L16.4062 17.3965C16.4108 17.3919 16.4131 17.3874 16.4131 17.3828C16.3994 17.3691 16.3835 17.3486 16.3652 17.3213L16.3242 17.2051L16.3926 17.1504L16.3857 17.1436L16.3926 17.1367H16.3857V17.0957C16.3857 17.0866 16.388 17.0752 16.3926 17.0615C16.4017 17.0479 16.4176 17.0342 16.4404 17.0205L16.4746 17.0479V17.0205L16.4883 17.0068C16.4792 16.9932 16.4746 16.9749 16.4746 16.9521L16.5566 16.8975C16.5703 16.902 16.5817 16.9066 16.5908 16.9111H16.5977L16.6455 16.8633L16.6523 16.8291H16.6729L16.6934 16.7812L16.7139 16.7744L16.7344 16.7812L16.7412 16.7744V16.7676L16.748 16.7539C16.7526 16.7448 16.7594 16.7357 16.7686 16.7266C16.7686 16.722 16.7708 16.7174 16.7754 16.7129L16.8438 16.6787C16.8665 16.6878 16.8893 16.6992 16.9121 16.7129V16.7061C16.9303 16.6878 16.9531 16.6787 16.9805 16.6787C16.9941 16.6787 17.0078 16.6833 17.0215 16.6924L17.042 16.6582H17.0488L17.0693 16.624C17.1149 16.6377 17.165 16.6719 17.2197 16.7266C17.1969 16.6947 17.1833 16.6628 17.1787 16.6309L17.1924 16.5762C17.1969 16.5671 17.2061 16.5625 17.2197 16.5625V16.5352C17.2471 16.5169 17.2721 16.5078 17.2949 16.5078V16.501L17.3838 16.4463V16.4121L17.4248 16.3711L17.4453 16.3643C17.4544 16.3643 17.4635 16.3665 17.4727 16.3711C17.4818 16.3711 17.4909 16.3734 17.5 16.3779L17.4932 16.3574V16.3369L17.5547 16.2754H17.6025C17.5889 16.2799 17.5775 16.2868 17.5684 16.2959C17.5638 16.305 17.5615 16.3164 17.5615 16.3301H17.582V16.3232L17.5957 16.3164L17.623 16.2686L17.6299 16.2754C17.6253 16.2617 17.623 16.2503 17.623 16.2412C17.623 16.223 17.6276 16.2093 17.6367 16.2002L17.6914 16.1934V16.1523L17.7461 16.1113L17.7939 16.125C17.8076 16.1204 17.8236 16.1182 17.8418 16.1182C17.8646 16.1182 17.8896 16.1227 17.917 16.1318L17.9307 16.125L17.9238 16.1113L17.9375 16.1045C17.9238 16.0954 17.9124 16.084 17.9033 16.0703V16.0156L17.8965 15.9883V16.0156C17.8828 16.002 17.8714 15.9883 17.8623 15.9746C17.8577 15.9609 17.8555 15.9518 17.8555 15.9473C17.8555 15.9382 17.8577 15.9268 17.8623 15.9131C17.8669 15.8994 17.876 15.8857 17.8896 15.8721L17.8965 15.8789V15.8652L17.9648 15.8311L17.9512 15.7969C17.9512 15.7923 17.9512 15.79 17.9512 15.79C17.9557 15.7855 17.958 15.7809 17.958 15.7764L18.0059 15.7148H18.04V15.708L18.0264 15.6807L18.0195 15.6875V15.6943L18.0127 15.6602V15.6465C18.0127 15.6237 18.0218 15.6009 18.04 15.5781L18.0674 15.5713C18.0628 15.5667 18.0583 15.5599 18.0537 15.5508L18.1152 15.4824C18.097 15.4596 18.0856 15.4391 18.0811 15.4209L18.1221 15.3457H18.1289C18.1243 15.3275 18.1198 15.3115 18.1152 15.2979L18.1016 15.168L18.1221 15.1611L18.1084 15.1133C18.1221 15.0814 18.138 15.0632 18.1562 15.0586C18.1426 15.0312 18.1357 15.0016 18.1357 14.9697V14.9492C18.1357 14.931 18.1426 14.915 18.1562 14.9014L18.2109 14.9355V14.9287L18.1289 14.8604L18.1221 14.7988C18.1175 14.7897 18.1152 14.7783 18.1152 14.7646L18.1084 14.7578L18.1221 14.751L18.0947 14.7168L18.1426 14.6689H18.1562L18.1631 14.6621L18.1699 14.6348L18.1631 14.6143L18.1768 14.6006H18.1836V14.5664L18.1699 14.5527C18.1289 14.5026 18.1061 14.4548 18.1016 14.4092L18.1699 14.375L18.0947 14.3066V14.2178L18.1016 14.2109L18.1221 14.1289C18.1175 14.1152 18.1152 14.1038 18.1152 14.0947V14.0811H18.1221C18.1175 14.0719 18.113 14.0651 18.1084 14.0605L18.1289 13.9785L18.1152 13.9648C18.097 13.9421 18.0811 13.917 18.0674 13.8896L18.0879 13.8691C18.0605 13.8327 18.0469 13.8008 18.0469 13.7734H18.1221C18.113 13.7643 18.1016 13.7552 18.0879 13.7461L18.0742 13.6777L18.0332 13.6641C18.0104 13.6367 17.999 13.6025 17.999 13.5615L18.0537 13.5H18.0605C18.015 13.4544 17.9808 13.4043 17.958 13.3496L17.9785 13.3291C17.9648 13.2972 17.9421 13.2653 17.9102 13.2334L17.7871 13.1172C17.7096 13.1081 17.639 13.0693 17.5752 13.001L17.5547 12.9736C17.5365 12.9736 17.5205 12.9714 17.5068 12.9668V12.96L17.4385 12.9395C17.4339 12.9303 17.4271 12.9189 17.418 12.9053L17.4043 12.9258C17.3861 12.9212 17.3678 12.9144 17.3496 12.9053L17.3428 12.9121C17.3245 12.9258 17.304 12.9326 17.2812 12.9326C17.2721 12.9326 17.2607 12.9303 17.2471 12.9258C17.2334 12.9395 17.222 12.9463 17.2129 12.9463C17.2038 12.9508 17.1947 12.9531 17.1855 12.9531C17.1719 12.9531 17.1559 12.9508 17.1377 12.9463L17.1172 12.9258C17.1263 12.9303 17.1331 12.9326 17.1377 12.9326H17.1445L17.1172 12.9189C17.099 12.9508 17.0762 12.9668 17.0488 12.9668H17.0146C17.0238 12.9622 17.0306 12.9531 17.0352 12.9395C17.026 12.9395 17.0169 12.9349 17.0078 12.9258L16.9326 12.9668L16.9189 12.9531L16.8848 12.9395L16.8984 12.9873C16.8893 13.001 16.8802 13.0124 16.8711 13.0215C16.8665 13.026 16.8597 13.0283 16.8506 13.0283L16.8574 13.0352L16.8164 13.0488L16.8027 13.0557C16.7799 13.0557 16.7594 13.0465 16.7412 13.0283L16.7139 13.0693H16.7002C16.7002 13.0876 16.6956 13.1035 16.6865 13.1172C16.682 13.1309 16.6774 13.14 16.6729 13.1445C16.6592 13.1628 16.6432 13.1764 16.625 13.1855C16.6068 13.1901 16.5908 13.1924 16.5771 13.1924L16.5566 13.1787C16.543 13.1833 16.5293 13.1855 16.5156 13.1855C16.5247 13.1947 16.5316 13.2038 16.5361 13.2129L16.4678 13.2881V13.2949C16.4587 13.304 16.4473 13.3109 16.4336 13.3154L16.4404 13.3223C16.4404 13.3405 16.4382 13.361 16.4336 13.3838C16.4336 13.4066 16.4268 13.4271 16.4131 13.4453C16.4131 13.4499 16.4108 13.4567 16.4062 13.4658L16.3789 13.4863C16.3835 13.5091 16.3857 13.5319 16.3857 13.5547L16.3447 13.582C16.3493 13.5866 16.3538 13.5934 16.3584 13.6025L16.2627 13.6709V13.6641C16.2581 13.6686 16.2536 13.6709 16.249 13.6709C16.2946 13.7165 16.3197 13.7666 16.3242 13.8213L16.249 13.8691L16.2627 13.8828V13.8965L16.2559 13.9033C16.2604 13.9033 16.2627 13.901 16.2627 13.8965L16.2764 13.958C16.2627 13.9762 16.2445 13.9876 16.2217 13.9922H16.1943C16.208 14.0013 16.2194 14.015 16.2285 14.0332C16.2695 14.0833 16.29 14.1312 16.29 14.1768C16.29 14.1904 16.2878 14.2041 16.2832 14.2178L16.2559 14.2314L16.2695 14.2588V14.293L16.2627 14.3271C16.2627 14.3226 16.2604 14.318 16.2559 14.3135C16.2559 14.3089 16.2536 14.3044 16.249 14.2998L16.2422 14.4092C16.2331 14.4137 16.2217 14.416 16.208 14.416C16.1989 14.416 16.1875 14.4137 16.1738 14.4092V14.3887L16.167 14.3818L16.1533 14.4023L16.1465 14.4229H16.1533C16.1715 14.4365 16.1921 14.4593 16.2148 14.4912C16.2376 14.5186 16.2559 14.5459 16.2695 14.5732C16.2786 14.596 16.2832 14.6165 16.2832 14.6348C16.2832 14.653 16.2786 14.6689 16.2695 14.6826L16.2627 14.7852L16.2969 14.8398V14.9082C16.2878 14.9264 16.2741 14.9378 16.2559 14.9424C16.2741 14.9606 16.2878 14.9766 16.2969 14.9902L16.29 15.0518C16.3037 15.0745 16.3105 15.0973 16.3105 15.1201L16.2832 15.1338C16.2969 15.1657 16.306 15.1976 16.3105 15.2295L16.2627 15.2568L16.249 15.2773C16.2581 15.2865 16.2673 15.2979 16.2764 15.3115C16.3128 15.3298 16.3356 15.3617 16.3447 15.4072L16.3242 15.4277C16.3333 15.4414 16.3402 15.4574 16.3447 15.4756L16.2832 15.5098C16.2878 15.5189 16.29 15.5303 16.29 15.5439C16.29 15.5576 16.2878 15.5758 16.2832 15.5986H16.2695L16.29 15.667C16.2764 15.6852 16.2627 15.6989 16.249 15.708C16.2354 15.7126 16.224 15.7148 16.2148 15.7148C16.2376 15.7376 16.2513 15.7627 16.2559 15.79L16.2148 15.8174V15.8516L16.1396 15.9062L16.1123 15.8926L16.126 15.9473L16.1123 15.9609C16.1169 15.9609 16.1191 15.9632 16.1191 15.9678L16.126 15.9746L16.1123 16.043C16.0986 16.0566 16.085 16.0658 16.0713 16.0703C16.0576 16.0703 16.0485 16.0703 16.0439 16.0703C16.0394 16.0703 16.0326 16.068 16.0234 16.0635C16.0143 16.0726 16.0052 16.0794 15.9961 16.084C15.9824 16.0885 15.9688 16.0908 15.9551 16.0908C15.9414 16.0908 15.9255 16.0885 15.9072 16.084H15.8936C15.8799 16.084 15.8685 16.0817 15.8594 16.0771C15.8503 16.0726 15.8411 16.068 15.832 16.0635L15.8184 15.9951L15.791 15.9746L15.7637 15.9883C15.7865 16.0202 15.8047 16.043 15.8184 16.0566L15.832 16.0771L15.873 16.1182V16.125C15.873 16.1204 15.8708 16.1182 15.8662 16.1182C15.8617 16.1182 15.8571 16.1182 15.8525 16.1182L15.9072 16.1729C15.9072 16.1865 15.9049 16.2002 15.9004 16.2139C15.8958 16.223 15.8867 16.2367 15.873 16.2549L15.7979 16.2754C15.766 16.2572 15.734 16.2344 15.7021 16.207V16.2139L15.7158 16.2412L15.6338 16.3164C15.6201 16.3118 15.6064 16.305 15.5928 16.2959L15.5791 16.3232H15.5449L15.5312 16.3506C15.5039 16.3506 15.4766 16.3438 15.4492 16.3301L15.415 16.3027C15.3877 16.3164 15.3558 16.3232 15.3193 16.3232C15.2829 16.3232 15.2441 16.3096 15.2031 16.2822L15.1963 16.2959C15.1917 16.2959 15.1849 16.2936 15.1758 16.2891C15.1667 16.2845 15.1553 16.2799 15.1416 16.2754C15.1188 16.2617 15.0983 16.248 15.0801 16.2344C15.0527 16.2116 15.0345 16.1888 15.0254 16.166C14.998 16.1615 14.973 16.1478 14.9502 16.125L14.9365 16.1045C14.9274 16.0999 14.9206 16.0954 14.916 16.0908L14.8887 16.0225V16.0156H14.8955C14.8727 15.9883 14.8477 15.9632 14.8203 15.9404L14.6699 15.8037L14.6836 15.7559C14.6699 15.7467 14.6562 15.7308 14.6426 15.708L14.5879 15.626L14.6221 15.5986L14.5811 15.5576L14.6084 15.5029C14.5902 15.4847 14.5765 15.4665 14.5674 15.4482L14.6084 15.4072C14.5993 15.3936 14.5879 15.3776 14.5742 15.3594L14.6016 15.3389L14.5742 15.3184C14.5697 15.3092 14.5628 15.2979 14.5537 15.2842V15.2227L14.5947 15.1885L14.5879 15.1338L14.6016 15.127C14.5879 15.1087 14.5765 15.0905 14.5674 15.0723H14.5742C14.5469 15.0449 14.5332 15.0176 14.5332 14.9902V14.9697C14.5332 14.9652 14.5355 14.9561 14.54 14.9424C14.5446 14.9287 14.5537 14.915 14.5674 14.9014L14.6152 14.9082V14.9014L14.6699 14.8877L14.6631 14.874L14.6699 14.8604H14.6631C14.6449 14.8467 14.6243 14.8376 14.6016 14.833L14.5537 14.7715C14.5537 14.7487 14.5583 14.7305 14.5674 14.7168L14.5742 14.7031H14.5811L14.6016 14.6689H14.6631C14.6722 14.6735 14.679 14.6803 14.6836 14.6895H14.6973L14.7041 14.6689C14.6904 14.6553 14.679 14.6393 14.6699 14.6211L14.6973 14.6006V14.5938C14.6973 14.5801 14.6836 14.5618 14.6562 14.5391L14.6016 14.4844C14.5788 14.457 14.5628 14.4297 14.5537 14.4023L14.5879 14.3818C14.556 14.3545 14.5355 14.3226 14.5264 14.2861L14.5537 14.252C14.5355 14.2246 14.5264 14.1995 14.5264 14.1768V14.1221L14.5469 14.1152C14.5378 14.1016 14.5309 14.0902 14.5264 14.0811C14.5264 14.0674 14.5264 14.056 14.5264 14.0469L14.54 14.04C14.5309 14.0218 14.5264 14.0013 14.5264 13.9785V13.958L14.5469 13.9512C14.5423 13.9375 14.54 13.9215 14.54 13.9033V13.8691L14.5674 13.8486L14.5879 13.7803C14.5651 13.7301 14.5537 13.6686 14.5537 13.5957L14.6357 13.541C14.6449 13.5456 14.6517 13.5501 14.6562 13.5547L14.6631 13.5342L14.6562 13.5205C14.6198 13.4886 14.5993 13.4476 14.5947 13.3975L14.6221 13.3838L14.5947 13.3496C14.5947 13.304 14.6061 13.2699 14.6289 13.2471L14.6562 13.2334V13.2129C14.6608 13.2083 14.6676 13.2038 14.6768 13.1992C14.6904 13.1901 14.7064 13.1855 14.7246 13.1855C14.7428 13.1855 14.7656 13.1947 14.793 13.2129C14.8021 13.2083 14.8135 13.2061 14.8271 13.2061L14.8545 13.2197C14.8499 13.2015 14.8477 13.1855 14.8477 13.1719C14.8477 13.1582 14.8499 13.1445 14.8545 13.1309L14.8613 13.124C14.8249 13.083 14.7907 13.0374 14.7588 12.9873V12.9189C14.7633 12.9098 14.7702 12.903 14.7793 12.8984L14.7451 12.8711C14.7542 12.862 14.7656 12.8529 14.7793 12.8438L14.7451 12.8096L14.8066 12.7344L14.7998 12.7207C14.8044 12.7207 14.8066 12.7184 14.8066 12.7139V12.7002C14.8066 12.6956 14.8066 12.6888 14.8066 12.6797C14.8066 12.6706 14.8135 12.6592 14.8271 12.6455L14.8408 12.6182L14.8887 12.6045L14.9229 12.5498H14.916L14.9092 12.4746L14.9365 12.4268C14.9502 12.3812 14.9775 12.347 15.0186 12.3242L15.0596 12.3447L15.0664 12.3174C15.0573 12.2946 15.0527 12.2718 15.0527 12.249C15.0527 12.2354 15.055 12.2217 15.0596 12.208L15.1348 12.1807C15.1393 12.1761 15.1462 12.1715 15.1553 12.167V12.1602C15.1598 12.151 15.1644 12.1442 15.1689 12.1396L15.1621 12.126L15.1758 12.1055L15.21 12.0986L15.2168 12.1055H15.2236L15.21 12.0781C15.2191 12.0508 15.2373 12.0326 15.2646 12.0234H15.2715V12.0166L15.3193 11.9961C15.3148 12.0007 15.3125 12.0052 15.3125 12.0098L15.3057 12.0166L15.3467 11.9961L15.3535 11.9414C15.3672 11.9323 15.3854 11.9277 15.4082 11.9277H15.4014L15.4902 11.8594H15.4971L15.5039 11.8662L15.5244 11.832L15.5176 11.8252L15.5449 11.791C15.554 11.7773 15.5632 11.766 15.5723 11.7568C15.5723 11.7523 15.5745 11.7454 15.5791 11.7363L15.6475 11.7227V11.7158L15.6748 11.7021C15.6839 11.693 15.693 11.6885 15.7021 11.6885C15.7158 11.6885 15.7272 11.6885 15.7363 11.6885L15.7295 11.6816C15.7386 11.6634 15.7546 11.652 15.7773 11.6475C15.7865 11.6429 15.7933 11.6406 15.7979 11.6406C15.8161 11.6406 15.8343 11.6475 15.8525 11.6611L15.8594 11.668V11.6543H15.8662L15.8525 11.6338L15.873 11.6133V11.5859L15.9346 11.5381C15.9482 11.5381 15.9596 11.5404 15.9688 11.5449C15.9779 11.5495 15.987 11.5563 15.9961 11.5654V11.5723L16.0029 11.5107C16.012 11.5016 16.0257 11.4948 16.0439 11.4902C16.0531 11.4857 16.0622 11.4834 16.0713 11.4834C16.0804 11.4834 16.0918 11.4857 16.1055 11.4902L16.167 11.4355V11.415L16.208 11.374L16.249 11.3604L16.29 11.3672C16.3128 11.3763 16.3333 11.3877 16.3516 11.4014L16.3584 11.3467C16.3857 11.3239 16.4131 11.3125 16.4404 11.3125C16.4587 11.3125 16.4792 11.3171 16.502 11.3262C16.5156 11.3307 16.5247 11.3376 16.5293 11.3467V11.333C16.5339 11.3239 16.5407 11.3171 16.5498 11.3125C16.5635 11.3034 16.5817 11.2988 16.6045 11.2988C16.6227 11.2988 16.6455 11.3079 16.6729 11.3262L16.6865 11.3193V11.2852C16.6911 11.2852 16.6979 11.2874 16.707 11.292H16.7139L16.7412 11.2715C16.7458 11.276 16.7503 11.2783 16.7549 11.2783L16.748 11.2441C16.7572 11.235 16.7708 11.2305 16.7891 11.2305C16.8073 11.2259 16.8278 11.2282 16.8506 11.2373C16.8734 11.2464 16.8984 11.2669 16.9258 11.2988L16.9463 11.333H16.9531L16.9326 11.2988V11.292H16.9395L16.9258 11.2168H16.9941L17.001 11.2031L17.0352 11.2305L17.0557 11.2168L17.1035 11.2578V11.251L17.1787 11.1826C17.2061 11.1917 17.2311 11.2054 17.2539 11.2236C17.2721 11.21 17.2926 11.2031 17.3154 11.2031C17.3428 11.2031 17.3747 11.2168 17.4111 11.2441C17.443 11.2715 17.4635 11.2965 17.4727 11.3193C17.5 11.3285 17.5251 11.3421 17.5479 11.3604C17.557 11.333 17.5684 11.3171 17.582 11.3125V11.3057L17.6367 11.2168C17.6549 11.2168 17.6732 11.2214 17.6914 11.2305L17.7119 11.2441C17.7028 11.2396 17.696 11.2373 17.6914 11.2373L17.7119 11.2441L17.7324 11.2646C17.7279 11.2555 17.721 11.2487 17.7119 11.2441L17.7666 11.2578L17.8418 11.3809V11.3877L17.8965 11.4355V11.4424C17.8828 11.415 17.8714 11.39 17.8623 11.3672L17.9512 11.2988C17.9694 11.3171 17.9945 11.3376 18.0264 11.3604C18.04 11.3512 18.0628 11.3467 18.0947 11.3467L18.1494 11.4014C18.1494 11.3968 18.1471 11.39 18.1426 11.3809L18.1562 11.3877C18.1654 11.3923 18.1722 11.3968 18.1768 11.4014L18.1836 11.3877C18.2109 11.3923 18.2406 11.4082 18.2725 11.4355V11.4287C18.2952 11.4287 18.3203 11.4333 18.3477 11.4424C18.3704 11.4561 18.3932 11.4743 18.416 11.4971L18.4639 11.5449C18.4639 11.5495 18.4661 11.554 18.4707 11.5586C18.4935 11.5723 18.5163 11.5882 18.5391 11.6064C18.5573 11.6247 18.5687 11.6383 18.5732 11.6475C18.5824 11.6566 18.5892 11.6634 18.5938 11.668H18.6348L18.6553 11.7021C18.6689 11.7021 18.6849 11.709 18.7031 11.7227C18.7214 11.7318 18.7373 11.75 18.751 11.7773L18.7578 11.791C18.7943 11.7956 18.8307 11.8184 18.8672 11.8594L18.9629 11.9688L18.9355 11.9893L18.9766 12.0234C18.9993 12.0508 19.013 12.0804 19.0176 12.1123L19.0107 12.1191H19.0176C19.0267 12.1191 19.0358 12.1214 19.0449 12.126H19.0654C19.0973 12.126 19.1247 12.1351 19.1475 12.1533L19.2158 12.1738C19.2204 12.2057 19.2363 12.2331 19.2637 12.2559L19.2979 12.2695L19.3184 12.29C19.3411 12.3219 19.3594 12.3516 19.373 12.3789V12.3857C19.373 12.3812 19.3708 12.3789 19.3662 12.3789L19.3525 12.3926L19.3594 12.4268L19.3799 12.4404L19.3662 12.5088V12.5293L19.3457 12.543L19.4072 12.6045C19.4163 12.6136 19.4232 12.6227 19.4277 12.6318C19.4551 12.641 19.4824 12.6592 19.5098 12.6865C19.5371 12.7093 19.5576 12.7458 19.5713 12.7959C19.5986 12.8232 19.6123 12.8551 19.6123 12.8916L19.5713 12.9326V12.9395H19.5645L19.5918 13.0078C19.5736 13.0397 19.5508 13.0579 19.5234 13.0625L19.5303 13.083C19.5257 13.0921 19.5189 13.099 19.5098 13.1035C19.5143 13.1126 19.5166 13.1195 19.5166 13.124V13.1309H19.5234C19.5371 13.1309 19.5508 13.14 19.5645 13.1582H19.5713L19.5781 13.1787V13.1855L19.5918 13.2266L19.6055 13.2402V13.2949C19.6146 13.2995 19.6214 13.3063 19.626 13.3154L19.6396 13.3496L19.626 13.3564C19.6305 13.3564 19.6351 13.3587 19.6396 13.3633C19.708 13.3952 19.7559 13.4362 19.7832 13.4863C19.7832 13.4909 19.7855 13.4932 19.79 13.4932L19.7627 13.5068C19.7673 13.5114 19.7695 13.516 19.7695 13.5205C19.7832 13.5342 19.79 13.5479 19.79 13.5615L19.7969 13.5752H19.79L19.7969 13.6094C19.7923 13.6094 19.79 13.6071 19.79 13.6025L19.7969 13.6162L19.8037 13.6641L19.8105 13.6572V13.6367L19.8242 13.6572C19.8242 13.6755 19.8197 13.6937 19.8105 13.7119C19.8151 13.721 19.8197 13.7279 19.8242 13.7324L19.8037 13.8076C19.7946 13.8167 19.7809 13.8236 19.7627 13.8281V13.8555L19.7285 13.8691L19.8311 13.999L19.8037 14.0742C19.8447 14.1243 19.8743 14.1699 19.8926 14.2109L19.8242 14.2588C19.8424 14.2861 19.8584 14.3135 19.8721 14.3408L19.8242 14.4229C19.8379 14.4365 19.8538 14.4479 19.8721 14.457L19.8789 14.5459C19.8516 14.5687 19.8242 14.5801 19.7969 14.5801C19.7786 14.5801 19.7627 14.5778 19.749 14.5732C19.7673 14.5915 19.7855 14.612 19.8037 14.6348L19.8652 14.71L19.8721 14.7646C19.8766 14.7783 19.8789 14.7943 19.8789 14.8125L19.8652 14.8262L19.8447 14.8467H19.8516L19.8379 14.8535C19.8561 14.8809 19.8652 14.9059 19.8652 14.9287L19.8516 14.9561V14.9629C19.8607 14.972 19.8698 14.988 19.8789 15.0107C19.8835 15.0199 19.8857 15.0267 19.8857 15.0312C19.8857 15.0449 19.8812 15.0586 19.8721 15.0723C19.8675 15.0814 19.8607 15.0882 19.8516 15.0928V15.1201C19.8516 15.1475 19.8402 15.1725 19.8174 15.1953C19.8265 15.209 19.8311 15.2249 19.8311 15.2432C19.8447 15.2432 19.8561 15.2477 19.8652 15.2568L19.8789 15.3047C19.8789 15.3229 19.8743 15.3389 19.8652 15.3525L19.8379 15.3867C19.8516 15.4141 19.8584 15.4391 19.8584 15.4619C19.8584 15.471 19.8561 15.4801 19.8516 15.4893L19.8311 15.5029L19.8242 15.5508H19.8174L19.8105 15.6465C19.806 15.6465 19.8014 15.6488 19.7969 15.6533L19.8242 15.6943L19.8105 15.7627C19.7923 15.7809 19.7718 15.79 19.749 15.79C19.7627 15.8083 19.7718 15.8265 19.7764 15.8447L19.7627 15.8721L19.7832 15.8994C19.7832 15.9222 19.7741 15.9427 19.7559 15.9609C19.7513 15.9655 19.7445 15.9678 19.7354 15.9678C19.7399 15.9723 19.7422 15.9769 19.7422 15.9814L19.7559 16.0156C19.7559 16.0293 19.749 16.0452 19.7354 16.0635C19.7262 16.0771 19.7035 16.084 19.667 16.084H19.626L19.5918 16.0498H19.585L19.5645 16.0293L19.5371 16.0498H19.5303V16.043L19.5098 16.0635V16.0771C19.5189 16.0908 19.528 16.1022 19.5371 16.1113C19.5462 16.1068 19.5553 16.1045 19.5645 16.1045C19.5736 16.1045 19.5827 16.1068 19.5918 16.1113L19.6396 16.166V16.2344H19.5781L19.585 16.2754C19.5758 16.2845 19.5667 16.2913 19.5576 16.2959H19.5098L19.5029 16.3301V16.3369L19.4961 16.3711C19.5007 16.3757 19.5029 16.3802 19.5029 16.3848L19.5166 16.4053L19.5234 16.3984L19.5371 16.4189C19.5508 16.4326 19.5599 16.444 19.5645 16.4531C19.569 16.4622 19.5713 16.4714 19.5713 16.4805C19.5713 16.5033 19.5622 16.5238 19.5439 16.542L19.5029 16.5488C19.4893 16.5671 19.4756 16.5785 19.4619 16.583H19.4414C19.4232 16.583 19.4072 16.5807 19.3936 16.5762L19.3799 16.5967L19.3867 16.6035C19.4004 16.6172 19.4095 16.6309 19.4141 16.6445L19.4209 16.6514C19.4255 16.6559 19.43 16.665 19.4346 16.6787L19.4414 16.6992L19.4346 16.7266L19.3799 16.7471L19.3252 16.8223C19.2842 16.8086 19.2432 16.7881 19.2021 16.7607L19.209 16.7676C19.25 16.8132 19.2819 16.8633 19.3047 16.918L19.2432 16.9932H19.2295L19.1816 17.041C19.1497 17.0273 19.1178 17.0046 19.0859 16.9727L19.0586 16.9453C19.0586 16.9544 19.0563 16.9635 19.0518 16.9727C19.0654 16.9772 19.0814 16.9818 19.0996 16.9863L19.1201 17.0889C19.111 17.0934 19.1042 17.098 19.0996 17.1025C19.1087 17.1162 19.1156 17.1299 19.1201 17.1436L19.0928 17.2256H19.0791L19.0723 17.2393C19.0723 17.2575 19.0654 17.2757 19.0518 17.2939L18.9902 17.3281C18.9766 17.3236 18.9674 17.319 18.9629 17.3145L18.9287 17.3213C18.9333 17.335 18.9355 17.3486 18.9355 17.3623L18.8877 17.3965C18.8877 17.4056 18.89 17.4147 18.8945 17.4238L18.8535 17.4854L18.9355 17.5469C18.9948 17.597 19.0404 17.638 19.0723 17.6699L19.0449 17.7109C19.0632 17.7246 19.0745 17.736 19.0791 17.7451V17.752L19.127 17.8066C19.1315 17.8112 19.1406 17.8158 19.1543 17.8203L19.1611 17.9297C19.1702 17.9251 19.1771 17.9206 19.1816 17.916C19.1862 17.9069 19.1885 17.8978 19.1885 17.8887V17.8955C19.1885 17.9001 19.1908 17.9069 19.1953 17.916C19.1999 17.9206 19.2067 17.9274 19.2158 17.9365C19.2158 17.9411 19.2181 17.9434 19.2227 17.9434V17.9365C19.2728 17.9456 19.3229 17.9844 19.373 18.0527L19.4209 18.1211C19.4391 18.1439 19.4551 18.1598 19.4688 18.1689V18.2646C19.5189 18.3148 19.5599 18.3763 19.5918 18.4492L19.5439 18.5381L19.667 18.6475C19.708 18.693 19.7285 18.7477 19.7285 18.8115L19.667 18.8457V18.8594L19.7559 18.9346L19.7422 19.0303C19.7331 19.0348 19.7194 19.0394 19.7012 19.0439C19.7331 19.0576 19.7627 19.0872 19.79 19.1328C19.7992 19.1556 19.806 19.1829 19.8105 19.2148L19.8242 19.29L19.8037 19.3037C19.8311 19.3356 19.847 19.3675 19.8516 19.3994L19.8105 19.4473L19.8584 19.5225L19.8789 19.5908V19.6387L19.8379 19.6523C19.8698 19.707 19.888 19.7663 19.8926 19.8301L19.8311 19.8643L19.8379 19.8711V19.9668L19.8037 19.96C19.8174 19.9736 19.8311 19.985 19.8447 19.9941L19.8311 20.0215H19.8379L19.8584 20.0488L19.8516 20.083C19.8607 20.1058 19.8698 20.124 19.8789 20.1377C19.888 20.1468 19.8949 20.1514 19.8994 20.1514V20.2607C19.8949 20.2607 19.888 20.263 19.8789 20.2676L19.8857 20.2812C19.9131 20.3132 19.929 20.3451 19.9336 20.377L19.8516 20.4385C19.8424 20.4339 19.8311 20.4271 19.8174 20.418C19.863 20.4818 19.8994 20.5479 19.9268 20.6162L19.9131 20.6299C19.9268 20.6527 19.9336 20.6777 19.9336 20.7051V20.7256L19.8926 20.7393C19.888 20.7438 19.8857 20.7484 19.8857 20.7529C19.8994 20.7712 19.9062 20.7894 19.9062 20.8076L19.8105 20.8486L19.7969 20.835V20.8828C19.8014 20.8828 19.8037 20.8851 19.8037 20.8896L19.7832 20.9307C19.7878 20.9398 19.7923 20.9512 19.7969 20.9648L19.8174 20.9922L19.8242 20.9854L19.8379 20.999C19.8379 21.0036 19.8402 21.0059 19.8447 21.0059C19.8584 21.0104 19.8721 21.0173 19.8857 21.0264L19.9268 21.1016L19.8379 21.1699L19.8242 21.1631L19.8105 21.1836V21.1904C19.8516 21.2178 19.888 21.2542 19.9199 21.2998L19.8789 21.3887V21.4023C19.8789 21.4115 19.8766 21.4206 19.8721 21.4297L19.9062 21.4775L19.8789 21.5254C19.888 21.5391 19.8949 21.5505 19.8994 21.5596L19.8652 21.6416C19.8743 21.6598 19.8835 21.6758 19.8926 21.6895L19.8789 21.7578C19.8698 21.7669 19.8538 21.7738 19.8311 21.7783L19.8447 21.8193L19.8174 21.833L19.8311 21.9014C19.8174 21.9059 19.8037 21.9082 19.79 21.9082H19.7695L19.7832 21.9287L19.7969 21.9629C19.7969 21.9857 19.7878 22.0062 19.7695 22.0244H19.7627C19.7855 22.0609 19.7969 22.0905 19.7969 22.1133L19.79 22.1201C19.7946 22.1292 19.7969 22.1383 19.7969 22.1475C19.7969 22.1611 19.7946 22.1748 19.79 22.1885L19.6943 22.209C19.6579 22.1771 19.6214 22.152 19.585 22.1338V22.1406C19.5941 22.1452 19.6032 22.152 19.6123 22.1611L19.626 22.2158C19.6214 22.2295 19.6169 22.2409 19.6123 22.25L19.6328 22.2773C19.6374 22.291 19.6488 22.2979 19.667 22.2979L19.708 22.3799L19.7012 22.3867L19.708 22.4072L19.7012 22.4277L19.6738 22.4482V22.4551H19.6807L19.5986 22.5371C19.5576 22.5143 19.5166 22.4801 19.4756 22.4346L19.4619 22.4551H19.4414L19.4551 22.4619L19.5713 22.5371C19.5758 22.5417 19.5827 22.5485 19.5918 22.5576C19.6009 22.5622 19.6077 22.5713 19.6123 22.585L19.6191 22.6055L19.6123 22.626C19.6032 22.6396 19.5918 22.651 19.5781 22.6602C19.569 22.6647 19.5599 22.667 19.5508 22.667L19.5439 22.7012H19.5371C19.5462 22.7148 19.5508 22.7285 19.5508 22.7422C19.5553 22.7513 19.5576 22.7604 19.5576 22.7695L19.5029 22.8242H19.4756L19.4414 22.8926L19.4619 22.9062C19.4619 22.9199 19.4551 22.9359 19.4414 22.9541V22.9609L19.4277 22.9746C19.4277 22.9701 19.43 22.9655 19.4346 22.9609L19.4209 22.9541L19.4141 22.9609V22.9678H19.4072L19.3594 23.0225V23.0156C19.3639 23.0247 19.3662 23.0316 19.3662 23.0361L19.2979 23.0977C19.3024 23.1022 19.3047 23.109 19.3047 23.1182L19.2295 23.1865C19.2204 23.182 19.2135 23.1774 19.209 23.1729Z" fill="#FAAE5D"/>
</svg>
