<svg width="35" height="36" viewBox="0 0 35 36" fill="none" xmlns="http://www.w3.org/2000/svg">
<path fill-rule="evenodd" clip-rule="evenodd" d="M34.8827 20.9262C34.8827 20.9162 34.8827 20.9062 34.8827 20.8962C34.9579 20.4355 35.0256 19.9698 34.9905 19.4741C34.9729 19.5091 34.9629 19.5492 34.9504 19.5893C34.9554 19.4891 34.9579 19.3864 34.9454 19.2988L34.9328 19.2337L34.9404 19.1486C34.9454 18.763 34.9504 18.3799 34.9529 17.9718C34.9404 17.9092 34.9303 17.8466 34.9103 17.739C34.8051 16.6348 34.6096 15.4831 34.3139 14.4065C34.2839 14.3239 34.2463 14.2287 34.2237 14.1662C33.9506 13.2373 33.6474 12.391 33.2716 11.4571C33.2365 11.4045 33.1739 11.3169 33.1388 11.2643C33.0987 11.1667 33.0686 11.0891 33.0361 11.0139C33.0135 10.8662 32.9333 10.7185 32.8231 10.5608C32.5174 9.98992 32.2668 9.36148 31.881 8.96088C31.3498 8.30741 30.7584 7.46114 30.122 6.8302C29.8113 6.49971 29.6309 6.1592 29.3127 5.85875C29.0045 5.58334 28.9519 5.691 28.5084 5.32545C28.0323 4.96742 27.5712 4.5568 27.0576 4.18625L27.0275 4.22631C27.02 4.20127 26.9999 4.16372 27.0576 4.18625L26.8571 4.04604L26.8271 4.0861C26.6091 3.93588 26.4086 3.79567 26.2057 3.65546C26.148 3.63293 26.0528 3.59287 25.9751 3.56282L25.9025 3.52777L25.8574 3.48771C25.6795 3.3475 25.4239 3.26237 25.3312 3.14219C25.449 3.14219 25.8348 3.37003 25.8699 3.31245C25.1583 2.87179 24.7123 2.69903 24.4091 2.71656C24.2688 2.63644 24.0708 2.53378 24.0859 2.50374C24.2011 2.4086 23.8879 2.30344 23.482 2.16573C23.1513 2.05807 23.0535 2.08812 23.0636 2.16824C22.9709 2.12818 22.9157 2.10564 22.8406 2.0756C22.7529 2.02552 22.6576 1.99047 22.5975 1.97795L22.6301 2.00549C22.5399 1.96043 22.4647 1.92788 22.3895 1.90284C22.1039 1.80269 21.6529 1.68752 21.8032 1.61491C21.9235 1.56484 21.7381 1.48221 21.4048 1.37956C21.1292 1.30194 20.8636 1.17926 20.5629 1.20931C20.8962 1.31446 21.282 1.50475 21.1568 1.57485C21.0139 1.54981 20.8486 1.50725 20.6807 1.46719C20.5855 1.37706 20.5103 1.28943 20.3575 1.19679C20.3224 1.14922 20.2823 1.10916 20.1219 1.0691C20.1019 0.958932 20.0217 0.846264 19.8463 0.738603C20.0042 0.748618 20.1745 0.766144 20.3424 0.78367C20.8561 0.871301 21.3773 1.02653 21.8082 1.24686C22.0864 1.39208 22.4447 1.49724 22.7754 1.54981C23.234 1.74511 23.6699 1.92788 24.1285 2.12317C25.256 2.64144 26.3184 3.24234 27.3081 3.84324L27.2881 3.83322C27.8619 4.18876 28.358 4.70953 28.9143 5.12515C29.1298 5.26286 29.3853 5.51574 29.6334 5.77362C29.7111 5.84623 29.8038 5.93386 29.894 6.02149C30.0694 6.17672 30.2523 6.38203 30.4227 6.56981C30.9539 7.22329 31.4625 7.79414 31.9085 8.41507C31.8835 8.35498 31.8835 8.35498 31.8684 8.31742C31.8684 8.31742 31.8684 8.31742 31.891 8.35247L31.9085 8.41507C32.0539 8.62788 32.2142 8.89829 32.3495 9.01596L32.4247 9.12112L32.4873 9.23128C32.7053 9.62437 32.8882 10.075 33.1213 10.3655C33.1764 10.4581 33.1914 10.4731 33.2415 10.5708C33.3618 10.8412 33.4921 11.1116 33.6074 11.3169C33.6324 11.377 33.6349 11.377 33.6474 11.372C33.6675 11.387 33.6675 11.3645 33.655 11.2994C33.5071 10.6459 33.209 9.98992 32.7529 9.28637C32.6377 9.10359 32.4748 8.85072 32.3495 8.65042C31.5652 7.21327 30.5605 6.18423 29.463 5.29791C29.3127 5.14769 29.1899 5.03001 29.0696 4.96992C28.9218 4.84724 28.7715 4.72706 28.6662 4.687C28.5184 4.56682 28.4031 4.47418 28.2879 4.38154C28.0774 4.20127 27.887 4.03603 27.6765 3.85826C26.792 3.09212 25.7647 2.51375 24.7073 2.04055C24.2312 1.81521 23.705 1.65747 23.2014 1.39208C22.8305 1.18427 22.3394 0.986473 22.4998 1.23184C22.5248 1.28692 22.2016 1.19178 22.0012 1.12919C21.6203 1.02153 21.1843 0.866294 20.7734 0.781166C20.7308 0.778663 20.6506 0.761137 20.6105 0.741107C20.5329 0.706054 20.4502 0.688528 20.3249 0.681017C20.2798 0.683521 20.2197 0.671002 20.1395 0.643461C19.7837 0.528289 19.4229 0.428139 19.057 0.350523C18.9418 0.312967 18.7914 0.280419 18.586 0.250374C18.5634 0.205307 18.4958 0.170254 18.3028 0.147721C18.2126 0.127691 18.15 0.117676 18.0397 0.107661L17.9746 0.117676C17.952 0.120179 17.952 0.120179 17.952 0.120179C17.9746 0.117676 17.9971 0.112668 18.0372 0.107661C17.9946 0.067601 17.9044 0.0450673 17.6864 0.0425636L17.6639 0.0350523V0.0400598C17.6413 0.0125187 17.5536 0.00250374 17.3983 0C17.3557 0.0125187 17.2479 0.0200299 17.2229 0.010015C16.8145 0.0400598 16.406 0.10015 16.0001 0.170254C15.7746 0.150224 15.5266 0.162743 15.2985 0.190284C14.3088 0.24787 13.3742 0.393087 12.387 0.608409L12.3895 0.61592L12.392 0.623431L12.387 0.605905C11.9535 0.600897 11.4048 0.84376 10.9137 0.953924C10.6932 0.961436 10.4125 1.05658 10.177 1.14671C10.0292 1.16925 9.82621 1.23434 9.60822 1.31697C9.35014 1.41211 9.45286 1.44215 9.30252 1.51727C9.18726 1.57235 9.08202 1.64245 9.05196 1.68251C8.9843 1.73509 8.65857 1.88031 8.74126 1.91286C8.77884 1.9404 8.84899 1.94541 9.01437 1.90535C9.08452 1.95542 9.27747 1.93038 9.5581 1.85277L9.61071 1.82022L9.61322 1.82523C9.59317 1.83274 9.57314 1.84025 9.5581 1.85277C9.74853 1.88532 9.959 1.92037 10.1494 1.95292C10.1745 2.02052 10.2547 2.06058 10.5102 2.008C10.3724 2.09313 10.2346 2.18076 10.1093 2.2759C9.73601 2.49122 9.23237 2.66398 9.0244 2.9444C8.51826 3.31245 7.9194 3.66798 7.51599 4.09612L7.54856 4.07108C7.31053 4.32396 6.91965 4.5568 6.75177 4.79216L6.74926 4.78965C6.64402 4.89982 6.4561 5.04003 6.35336 5.18024L6.3183 5.23532L6.25315 5.2904C6.02513 5.51323 5.79461 5.73857 5.55908 5.96891C5.25339 6.21178 4.9452 6.47216 4.70716 6.82269C4.38895 7.25333 3.77505 7.92684 3.42676 8.47015C3.07597 9.04851 2.53475 9.60434 2.34432 10.2128L2.37189 10.1877C2.35686 10.2228 2.35435 10.2203 2.35435 10.2203L2.34432 10.2128C1.98351 10.8312 1.66279 11.4796 1.38467 12.1481C1.18672 12.5362 1.02885 12.9719 0.903569 13.4626C0.86849 13.5778 0.830909 13.6929 0.798336 13.8081C0.485129 14.6919 0.229552 15.6384 0.139348 16.6173C0.0767068 17.1256 0.019078 17.5787 0.109281 17.9969C0.12181 18.072 0.116804 18.112 0.0992644 18.1471C0.0591739 18.2598 0.0466377 18.4125 0.0441321 18.6028C-0.0611053 19.061 0.0516502 19.5517 0.0767068 20.0224L0.089232 20.0399H0.0917401H0.089232C0.0867263 20.0399 0.0792124 20.0374 0.0767068 20.0224C0.0366163 20.2177 0.0641742 20.5231 0.119299 20.7835H0.124315C0.0967526 20.9613 0.191967 21.2918 0.201989 21.5246C0.222035 21.5797 0.22705 21.6348 0.222039 21.6749C0.199488 21.7775 0.22204 21.9478 0.269647 22.1531C0.304726 22.4585 0.382401 22.7765 0.520212 22.9968C0.565314 23.2197 0.622943 23.43 0.723169 23.6103C0.80335 23.8782 0.878518 24.1235 0.956193 24.3714C1.11405 24.747 1.23682 25.2702 1.43978 25.6057C1.50242 25.7635 1.56757 25.9237 1.62269 26.0614C1.73795 26.3368 1.83067 26.6223 1.9785 26.79C2.02862 26.8851 2.07622 26.9803 2.11631 27.0579C2.14889 27.138 2.18647 27.2131 2.23909 27.2832C2.28168 27.3584 2.31176 27.4134 2.35435 27.486C2.6851 28.1595 3.06095 28.783 3.49693 29.3689C3.61219 29.5241 3.69487 29.5967 3.72744 29.5742C3.76002 29.5516 3.7049 29.4314 3.59465 29.2762C3.26391 28.7579 2.88805 28.1671 2.56733 27.6638C2.45708 27.4585 2.33682 27.2332 2.21654 27.0103C1.90083 26.5922 1.78056 25.9963 1.54001 25.5657L1.54252 25.6107C1.4448 25.3529 1.36212 25.1325 1.26189 24.8746C1.15415 24.6643 1.094 24.3489 0.998785 24.1335C0.966212 24.0159 0.933647 23.9007 0.898568 23.7855C0.908591 23.8055 0.918615 23.8281 0.931143 23.8456L0.926127 23.8481C0.953689 23.8982 0.971225 23.9307 1.00129 23.9808C0.988765 23.9257 0.981249 23.8907 0.971227 23.8381C0.971227 23.8406 0.971227 23.8456 0.971227 23.8481V23.8306C0.971227 23.8331 0.971229 23.8356 0.973735 23.8381C0.981252 23.7905 0.961207 23.7079 0.958701 23.6353C0.97123 23.5301 0.926126 23.3499 0.878519 23.1671L0.868502 23.1696H0.863485L0.878519 23.1646C0.881024 23.122 0.876016 23.0694 0.865993 23.0094C1.00631 23.5527 1.1817 24.0885 1.38216 24.6092C1.56006 25.105 1.82064 25.5882 1.98852 26.1315C2.10378 26.5421 2.31176 27.0279 2.37189 26.7399C2.39444 26.6848 2.5523 26.9778 2.65002 27.1631C2.84295 27.5086 3.04089 27.9267 3.27141 28.2772C3.29898 28.3073 3.34409 28.3774 3.35912 28.4199C3.38919 28.5001 3.43428 28.5702 3.51947 28.6653C3.55204 28.6953 3.58713 28.7479 3.62221 28.823C4.12835 29.8145 4.75226 30.7534 5.7019 31.502C5.82718 31.6147 5.97502 31.7649 6.06522 31.8801C6.21306 32.1205 6.47615 32.3658 6.72421 32.5611C7.46588 33.2196 8.22759 33.7779 9.07701 34.3213L9.08202 34.3137L9.08704 34.3062L9.07701 34.3213C9.37768 34.6317 9.93896 34.847 10.3674 35.1149C10.5278 35.2652 10.7934 35.3954 11.0264 35.498C11.1467 35.5881 11.3371 35.6833 11.5476 35.7809C11.7982 35.8961 11.7455 35.801 11.9059 35.856C12.0262 35.8986 12.1514 35.9236 12.1991 35.9161C12.2842 35.9261 12.6175 36.0538 12.5824 35.9737C12.5774 35.9287 12.5298 35.8736 12.3845 35.7859C12.3694 35.7033 12.2166 35.5831 11.9635 35.4379L11.9034 35.4229L11.9059 35.4179C11.9259 35.4254 11.946 35.4354 11.9635 35.4354C11.8533 35.2777 11.728 35.1024 11.6177 34.9472C11.6528 34.8696 11.6102 34.7644 11.2619 34.5666C11.2294 34.4965 11.1567 34.4139 11.1266 34.3388C11.3797 34.4565 11.6578 34.5666 11.9009 34.6517C12.164 34.7419 12.3168 34.7344 12.3369 34.6843C12.3995 34.6292 12.1063 34.5215 11.9309 34.4314C11.7205 34.3263 11.5576 34.2086 11.5476 34.146C11.5225 34.0609 11.8282 34.1911 11.9811 34.2236C12.5123 34.3538 13.1863 34.6993 13.7902 34.7794C14.0708 34.842 14.4266 35.0098 14.6721 34.9772L14.6546 34.9647L14.6746 34.9697L14.6721 34.9772C15.0856 35.0624 15.509 35.1926 15.8623 35.185C15.8247 35.17 15.7897 35.16 15.7721 35.1475C15.7922 35.1525 15.7922 35.1525 15.7922 35.1525L15.8623 35.1875C16.2382 35.2476 16.6942 35.3303 17.0049 35.2852L16.9673 35.2727L17.0049 35.2777V35.2852C17.6113 35.3127 18.2377 35.478 18.9092 35.3503C19.4379 35.2702 20.3499 35.2276 20.9814 35.0899C21.6404 34.9297 22.4146 34.9196 22.9809 34.6217L22.9433 34.6192C22.9784 34.6042 22.9784 34.6092 22.9784 34.6092L22.9809 34.6217C24.2337 34.2887 25.4665 33.808 26.6191 33.1695C27.3658 32.814 28.1099 32.3859 28.794 31.8601H28.7965C28.8241 31.8901 28.8942 31.8751 29.032 31.7724L29.0997 31.6898L29.1022 31.6923C29.1022 31.6923 29.0596 31.7399 29.032 31.7724C29.0947 31.7724 29.1723 31.7599 29.2676 31.7224C29.0947 31.8576 28.9067 32.0328 28.7364 32.118L28.7514 32.1054C28.566 32.2081 28.3079 32.4084 28.1275 32.481C27.7166 32.6187 27.2931 33.0168 26.8396 33.2246C26.7394 33.2747 26.599 33.3423 26.4637 33.4099C26.2107 33.4925 25.895 33.7179 25.6193 33.7955C25.479 33.8531 25.3738 33.8956 25.2685 33.9382C24.81 34.156 24.359 34.3663 23.8754 34.469L23.8052 34.499L23.7501 34.5115C22.3219 34.8596 21.2795 35.2376 20.1771 35.4955C22.2718 35.2777 24.3089 34.6492 26.1831 33.7379C26.3209 33.6678 26.4412 33.6077 26.594 33.5301C26.9398 33.4449 27.3132 33.2046 27.664 32.9642C27.8594 32.8415 28.0373 32.7289 28.2352 32.6062C28.4257 32.5111 28.6537 32.3358 28.8391 32.2256C28.9143 32.1655 28.9619 32.133 29.012 32.1029C29.1974 32.0253 29.4004 31.8425 29.6108 31.6723C29.6735 31.6247 29.7511 31.5671 29.7962 31.5296C29.8764 31.477 29.9842 31.4219 30.0468 31.3743C30.137 31.2867 30.2247 31.2016 30.3124 31.114C30.3675 31.0939 30.4427 31.0414 30.5655 30.9212L30.5855 30.9087L30.583 30.9061C30.6181 30.9112 30.6858 30.8536 30.7985 30.7459C30.8211 30.7084 30.8912 30.6257 30.9163 30.6157C31.4976 29.9372 32.0012 29.1711 32.4673 28.4124C32.6477 28.147 32.8081 27.8516 32.9409 27.5812C33.0737 27.4059 33.1939 27.2131 33.2641 27.0254C33.3217 26.9452 33.3793 26.8701 33.442 26.7975C33.8028 25.8611 34.1987 24.8947 34.339 23.9833C34.4518 23.5677 34.6848 23.0895 34.6347 22.744C34.7324 22.1255 34.9053 21.452 34.8852 20.8637L34.8827 20.9262ZM31.5126 7.71402L31.5026 7.72153C31.5026 7.72153 31.5076 7.71903 31.5026 7.699L31.5126 7.71402ZM9.58064 1.58987C9.57563 1.57736 9.55059 1.56984 9.60571 1.5398C9.62325 1.52478 9.66334 1.51727 9.68088 1.50224C9.63076 1.54481 9.57313 1.57736 9.58064 1.58987ZM11.7581 35.6282C11.753 35.6407 11.7656 35.6633 11.7054 35.6432C11.6829 35.6432 11.6478 35.6182 11.6253 35.6157C11.6904 35.6257 11.753 35.6432 11.7581 35.6282ZM33.7978 17.759H33.7903V17.719L33.7978 17.759ZM33.6875 20.1351C33.7101 19.757 33.7427 19.3764 33.6825 19.0359C33.7552 19.3389 33.7126 19.737 33.6875 20.1351ZM33.7151 12.9619C33.6976 12.9443 33.66 12.8467 33.6374 12.8342C33.6274 12.7916 33.6124 12.7315 33.6023 12.6915C33.6449 12.7891 33.6925 12.9068 33.7151 12.9619ZM33.5723 15.1476L33.5798 15.1451C33.5748 15.1676 33.5673 15.2277 33.5522 15.1927C33.5522 15.1927 33.5648 15.1702 33.5723 15.1476ZM33.2315 18.728H33.2365L33.2315 18.748V18.728ZM32.8356 17.3784C32.8406 17.4536 32.8657 17.4911 32.8557 17.5487C32.8456 17.7014 32.8181 17.5337 32.7955 17.4561C32.8131 17.4536 32.8306 17.4536 32.8356 17.3784ZM32.6001 20.0424H32.6126L32.6051 20.08C32.5976 20.1 32.6001 20.0424 32.6001 20.0424ZM28.9869 29.3538C29.0145 29.3013 29.0446 29.2462 29.0746 29.1936C29.0922 28.9357 29.4204 28.4775 29.6685 27.9517C29.5682 28.3323 29.3077 28.7705 29.0746 29.1936C29.0721 29.2161 29.0596 29.2462 29.0621 29.2637C29.0521 29.2812 29.027 29.3113 28.9869 29.3538ZM6.75177 29.0934C6.73172 29.0809 6.70667 29.0534 6.68662 29.0459L6.68411 29.0484L6.67409 29.0359C6.634 28.9958 6.64652 29.0108 6.634 28.9958L6.6365 28.9933C6.6365 28.9933 6.65154 29.0058 6.67409 29.0334C6.68913 29.0434 6.68913 29.0434 6.68913 29.0434L6.7217 29.0634C6.73173 29.0759 6.74175 29.0834 6.75177 29.0934ZM3.71241 28.1921C3.69988 28.1771 3.68985 28.1646 3.68985 28.1646C3.72243 28.1846 3.73496 28.1746 3.72744 28.137C3.72494 28.132 3.71993 28.127 3.71743 28.122C3.72244 28.127 3.72494 28.132 3.72995 28.137C3.56959 27.8291 3.43177 27.4184 3.56708 27.4585C3.72995 27.6913 3.90284 28.0294 4.10329 28.2622C4.1935 28.3949 4.29623 28.5451 4.39896 28.6928C4.55681 29.0784 4.58688 29.1535 4.5067 29.2687C4.40898 29.101 4.26866 28.9307 4.11833 28.7254C4.05318 28.5376 3.88029 28.3448 3.72494 28.1395C3.73496 28.1746 3.72494 28.1821 3.71241 28.1921ZM4.19098 22.5662L4.20603 22.5637V22.6012L4.19098 22.5662ZM3.96298 23.6027C3.93291 23.5752 3.91286 23.5677 3.89532 23.5652C3.87778 23.6678 3.85022 23.753 3.80763 23.803C3.82767 23.7029 3.82265 23.5527 3.89532 23.5652C3.90534 23.5026 3.91787 23.4375 3.91537 23.3549C3.94794 23.4575 3.92539 23.5026 3.96298 23.6027ZM3.40922 26.6548C3.40922 26.6548 3.39921 26.6373 3.3917 26.6197C3.4393 26.7074 3.51697 26.8226 3.5721 26.8826L3.55957 26.8902C3.51447 26.8251 3.47186 26.7575 3.40922 26.6548ZM3.13611 25.0199C3.09602 24.9523 3.07597 24.9197 3.06595 24.9022C3.05342 24.8671 3.04089 24.8296 3.03337 24.8095C3.06094 24.8646 3.10354 24.9498 3.13611 25.0199ZM2.59488 22.774C2.57985 22.7765 2.55481 22.744 2.52975 22.6914C2.52975 22.6914 2.52974 22.6914 2.52223 22.6538C2.54227 22.7089 2.57484 22.779 2.59488 22.774ZM1.02134 21.3369C1.00881 21.3193 0.996277 21.2693 0.996277 21.2693H1.00129C1.00881 21.3193 1.01383 21.3193 1.02134 21.3369ZM1.47236 22.9943C1.43978 23.0044 1.45733 23.112 1.49491 23.2522C1.45733 23.1696 1.41472 23.087 1.4047 22.9743C1.41222 22.9192 1.4473 22.9643 1.47236 22.9943ZM2.30173 22.0304C2.26164 21.9603 2.22154 21.8677 2.18646 21.6774C2.22655 21.8276 2.26414 21.9378 2.30173 22.0304ZM2.42952 22.9543C2.4195 22.8366 2.40446 22.7415 2.44706 22.7314C2.41198 22.739 2.41699 22.8366 2.42952 22.9543ZM0.788319 17.5162L0.785811 17.5512H0.778286V17.5337C0.780792 17.5162 0.780795 17.5162 0.780795 17.5162H0.788319ZM0.68307 18.2197V18.2372C0.680565 18.2422 0.680575 18.2498 0.67807 18.2573C0.665541 18.3524 0.658026 18.43 0.648003 18.5126C0.645497 18.5377 0.645492 18.5602 0.642987 18.5853C0.642987 18.5477 0.642987 18.5477 0.642987 18.5477C0.645492 18.5352 0.645497 18.5227 0.648003 18.5101C0.653014 18.41 0.66053 18.3274 0.67807 18.2548C0.680575 18.2447 0.68307 18.2322 0.68307 18.2197ZM0.39493 20.9738C0.409963 20.9763 0.424993 20.9688 0.437521 20.9538C0.442533 21.0114 0.447543 21.0464 0.452555 21.104C0.437521 21.0539 0.414975 21.0139 0.39493 20.9738C0.349828 20.9688 0.299713 20.8912 0.252106 20.8111C0.299713 20.8436 0.349828 20.9012 0.39493 20.9738ZM2.64249 25.6884C2.68008 25.781 2.70264 25.8361 2.73271 25.9112C2.76027 26.0088 2.80286 26.1015 2.83543 26.1516L2.83292 26.109C2.8655 26.2041 2.89557 26.2792 2.93065 26.3519C3.06094 26.6248 3.30149 27.0254 3.14113 26.9703C3.09603 26.9527 3.07848 26.9653 3.08098 27.0053C3.03337 26.9102 2.98326 26.815 2.94067 26.7274L2.93816 26.7299C2.93816 26.5997 2.75775 26.3694 2.67256 26.1666C2.645 26.0138 2.5974 25.8486 2.51472 25.6583C2.57235 25.7234 2.61493 25.7259 2.64249 25.6884ZM7.05996 6.26435C7.06247 6.26185 7.06247 6.25935 7.06498 6.25684C7.06498 6.25935 7.06247 6.26185 7.05996 6.26435ZM18.8015 2.64645L18.799 2.66899C18.7964 2.68902 18.7062 2.67399 18.7037 2.68651C18.7062 2.66648 18.799 2.66648 18.8015 2.64645ZM17.6539 2.48872C17.6163 2.48371 17.6539 2.48621 17.6363 2.48371C17.6163 2.48371 17.5436 2.48371 17.5436 2.48371L17.5812 2.4787C17.6564 2.46368 17.7842 2.46118 17.8969 2.46368C17.8393 2.4812 17.694 2.47119 17.6539 2.48872ZM17.8969 2.66147C17.8969 2.66398 17.8769 2.66648 17.8393 2.66147C17.8217 2.66398 17.8217 2.66398 17.8217 2.66398L17.7841 2.67399C17.7691 2.67399 17.7566 2.6765 17.7441 2.6765C17.7666 2.67149 17.8067 2.67399 17.8242 2.66648V2.66147L17.8418 2.66398C17.8969 2.66147 17.8794 2.66147 17.8969 2.66147ZM30.2623 24.8671C30.2698 24.8296 30.2999 24.787 30.3149 24.7745L30.325 24.7795C30.3049 24.8095 30.2573 24.9222 30.2623 24.8671ZM30.3024 24.9873L30.2874 25.0149L30.2899 24.9823C30.2849 24.9873 30.2798 24.9948 30.2748 24.9998C30.2748 24.9973 30.2748 24.9923 30.2748 24.9873C30.2798 24.9898 30.2874 24.9798 30.2949 24.9673C30.2924 24.9723 30.2899 24.9748 30.2874 24.9798L30.3024 24.9873ZM32.0814 19.9172C32.0739 19.9698 32.0714 19.9898 32.0614 20.06C32.0614 19.9873 32.0488 19.9873 32.0463 19.9673C32.0614 19.9147 32.0714 19.9348 32.0814 19.9172ZM31.7431 11.2017C31.7482 11.2092 31.7456 11.2067 31.7532 11.2243L31.7431 11.2067C31.7431 11.2017 31.7431 11.2017 31.7431 11.2017C31.7331 11.1842 31.7256 11.1667 31.7206 11.1542C31.7106 11.1141 31.7081 11.0966 31.7081 11.0966C31.7106 11.1116 31.7206 11.1517 31.7431 11.2017ZM31.6655 9.50169C31.673 9.51421 31.673 9.51421 31.673 9.51421C31.6705 9.5092 31.668 9.50419 31.6655 9.50169C31.6655 9.50169 31.6655 9.50169 31.663 9.49918L31.6529 9.48166C31.6529 9.48166 31.6605 9.48917 31.6655 9.50169ZM31.4249 9.28637L31.4174 9.29137C31.4174 9.29137 31.4174 9.29137 31.4074 9.27385C31.4224 9.28887 31.4249 9.28637 31.4249 9.28637ZM26.2207 4.69201C26.0854 4.61439 25.9827 4.56181 25.8899 4.52426C25.9676 4.54929 26.0628 4.58184 26.2207 4.69201ZM25.1808 4.20127C25.2009 4.20127 25.2259 4.20628 25.261 4.2188C25.261 4.2188 25.261 4.2188 25.2936 4.24133C25.256 4.22381 25.2084 4.20628 25.1808 4.20127ZM25.2936 4.12866C25.3111 4.10112 25.241 4.03603 25.1483 3.96091C25.2385 4.03603 25.3136 4.09361 25.2936 4.12866ZM23.3166 3.03453C23.3517 3.05206 23.3868 3.06708 23.4043 3.0771C23.3492 3.05707 23.259 3.02702 23.1838 3.00198C23.2615 3.01951 23.2966 3.02952 23.3166 3.03453ZM21.5627 1.97295C21.6404 1.99047 21.718 2.008 21.8358 2.03304C21.8358 2.03304 21.8558 2.03804 21.8734 2.04555C21.7782 2.01801 21.6404 1.99047 21.5602 1.98546L21.5627 1.97295ZM18.2702 0.155232C18.2527 0.160239 18.2427 0.165247 18.2126 0.170254V0.162743L18.2702 0.155232ZM15.3261 0.252878C15.3261 0.252878 15.3261 0.252878 15.3662 0.255381C15.3261 0.257885 15.2409 0.260389 15.1983 0.262893L15.3261 0.252878ZM3.47186 8.81316C3.47186 8.83069 3.46937 8.85572 3.46937 8.87826C3.46937 8.87826 3.46937 8.87826 3.46937 8.88076C3.46436 8.86324 3.46435 8.84321 3.47186 8.81316ZM3.44681 8.91581C3.44681 8.91832 3.4443 8.91832 3.4443 8.92082C3.42426 8.92833 3.3992 8.94336 3.37665 8.95337C3.40421 8.93584 3.42677 8.92833 3.44681 8.91581ZM0.184448 19.5617C0.176931 19.5867 0.169413 19.6093 0.151873 19.5893C0.151873 19.5893 0.151886 19.5893 0.14938 19.5517C0.16692 19.5918 0.176931 19.5817 0.184448 19.5617ZM0.592871 22.7865C0.592871 22.789 0.595379 22.789 0.595379 22.7915H0.592871C0.592871 22.7915 0.592871 22.789 0.592871 22.7865ZM2.40447 26.3268C2.35686 26.2116 2.31175 26.099 2.26664 25.9838C2.28669 26.0113 2.30424 26.0389 2.32429 26.0639C2.33681 26.149 2.39695 26.2792 2.45208 26.3944C2.43704 26.3744 2.42201 26.3493 2.40447 26.3268ZM3.58713 28.5902C3.28645 28.1646 3.02836 27.6863 2.87802 27.2257C2.86049 27.1681 2.83793 27.1105 2.81288 27.0529C2.86549 27.138 2.91561 27.2231 2.94317 27.3008C2.98326 27.431 3.11607 27.6137 3.21379 27.7715C3.23634 27.8015 3.26892 27.824 3.29648 27.8516C3.66481 28.3498 3.99305 28.8731 4.46662 29.3213C4.45659 29.3338 4.44657 29.3463 4.43404 29.3613C4.29874 29.4615 3.93291 29.0108 3.58713 28.5902ZM4.61695 25.2477C4.70966 25.2427 4.73471 25.1175 4.69211 24.8897C4.71968 25.0299 4.74724 25.1701 4.7723 25.2903C4.83494 25.5381 4.69963 25.3478 4.61695 25.2477ZM4.82241 28.3548C4.84246 28.3649 4.79986 28.2772 4.85248 28.3348C4.9051 28.3924 4.86501 28.3749 4.89007 28.4274C4.87504 28.4124 4.84747 28.3849 4.82241 28.3548ZM5.98504 28.3674L6.00258 28.3523C6.01762 28.3398 6.07274 28.4149 6.08276 28.4074C6.06773 28.4199 6.00007 28.3548 5.98504 28.3674ZM6.49619 29.1335C6.5463 29.1635 6.64402 29.2737 6.68411 29.2887C6.70917 29.3188 6.68162 29.2912 6.69414 29.3038C6.70667 29.3163 6.75928 29.3689 6.75928 29.3689L6.72921 29.3463C6.66908 29.3038 6.57386 29.2161 6.49619 29.1335ZM6.74926 32.5161C6.74926 32.5161 6.74926 32.5161 6.7217 32.486C6.75177 32.5135 6.81441 32.5686 6.84448 32.5987L6.74926 32.5161ZM7.44082 32.2181C7.44333 32.2131 7.43581 32.2031 7.43581 32.1981C7.31804 32.0679 7.25039 31.9577 7.13763 31.83L7.10257 31.8075C7.10257 31.8075 7.1226 31.815 7.10757 31.8025C7.1226 31.815 7.1226 31.815 7.14014 31.83C7.41576 32.0504 7.45335 32.138 7.43832 32.1981C7.46087 32.2231 7.47339 32.2457 7.50096 32.2732C7.47089 32.2457 7.47089 32.2457 7.44082 32.2181ZM8.68112 30.14C8.75128 30.1675 8.76882 30.1726 8.81893 30.1926C8.79388 30.1951 8.82645 30.2377 8.83146 30.2577C8.77884 30.2126 8.72873 30.1901 8.68112 30.14ZM9.58315 32.1655L9.58817 32.158L9.60069 32.173C9.58315 32.1655 9.58315 32.1655 9.58315 32.1655ZM11.4323 32.3107C11.515 32.3458 11.5351 32.3383 11.5902 32.3533C11.5376 32.3383 11.525 32.3608 11.4323 32.3107ZM12.3369 32.7865C12.3544 32.794 12.3544 32.7915 12.3544 32.7915V32.794L12.3369 32.7865C12.3243 32.784 12.3168 32.784 12.3043 32.7815C12.2316 32.8165 12.0863 32.784 11.9234 32.7239C11.8533 32.7063 11.7806 32.6788 11.6904 32.6287C11.6804 32.6237 11.6754 32.6262 11.6653 32.6187C11.6002 32.5887 11.6002 32.5887 11.5526 32.5661C11.5977 32.5862 11.6453 32.6062 11.6904 32.6262C11.7681 32.6613 11.8483 32.6938 11.9234 32.7214C12.0537 32.7539 12.164 32.7489 12.3043 32.7789C12.3093 32.7764 12.3168 32.7789 12.3218 32.7764C12.3293 32.7764 12.3168 32.7689 12.3243 32.7689C12.2717 32.7113 12.2316 32.6663 12.179 32.6062C12.1715 32.6012 12.164 32.5962 12.1565 32.5912C12.1715 32.5987 12.1715 32.5987 12.1715 32.5987C12.164 32.5887 12.1414 32.5711 12.1314 32.5586C11.956 32.4434 11.7906 32.3258 11.6628 32.2106L11.6578 32.2181C11.4799 32.1079 11.272 31.9777 11.272 31.9777C11.272 31.9777 11.4649 32.0954 11.6127 32.1856C11.6428 32.2031 11.6428 32.2031 11.6603 32.2106C11.9059 32.3408 12.0487 32.4635 12.1289 32.5586C12.1565 32.5761 12.174 32.5962 12.2016 32.6137C12.2016 32.6137 12.2016 32.6137 12.169 32.5987C12.1715 32.6012 12.174 32.6037 12.1765 32.6062C12.2943 32.6813 12.4095 32.7539 12.3218 32.7689C12.3293 32.7789 12.3319 32.7814 12.3369 32.7865ZM12.7854 32.8641L12.5924 32.7815C12.6576 32.8065 12.7353 32.8491 12.823 32.8716C12.8205 32.8691 12.8029 32.8666 12.7854 32.8641ZM13.7801 34.156L13.7826 34.151V34.1485L13.7801 34.156ZM14.7273 33.7078C14.7473 33.6978 14.6822 33.6778 14.6847 33.6653C14.6997 33.6803 14.7298 33.7003 14.7799 33.7229C14.7448 33.7128 14.7448 33.7128 14.7273 33.7078ZM16.0402 34.0133V34.0083L16.0753 34.0233L16.0402 34.0133ZM16.8997 34.136C16.8145 34.0909 16.7142 34.0458 16.614 34.0083C16.6842 34.0133 16.8245 34.0208 16.9498 34.0283C17.0174 34.0659 17.065 34.1034 16.8997 34.136ZM18.2678 33.0519C18.2853 33.0644 18.3329 33.0744 18.4005 33.0894C18.4005 33.0894 18.4156 33.1019 18.4482 33.1069V33.1119C18.4156 33.1019 18.4005 33.0894 18.4005 33.0894C18.3179 33.0719 18.2853 33.0669 18.2377 33.0569C18.2678 33.0569 18.2678 33.0519 18.2678 33.0519ZM18.4431 33.3147C18.4607 33.3147 18.4607 33.3147 18.4607 33.3147C18.4431 33.3273 18.393 33.3398 18.3429 33.3498C18.393 33.3398 18.4081 33.3273 18.4431 33.3147ZM21.2545 34.7769C21.252 34.7794 21.247 34.7819 21.2445 34.7869C21.237 34.8045 21.2194 34.822 21.1893 34.8395C21.2044 34.827 21.2269 34.8045 21.2445 34.7869C21.2495 34.7769 21.252 34.7669 21.2495 34.7569C21.252 34.7794 21.3096 34.792 21.3522 34.807C21.3146 34.797 21.2921 34.7794 21.2545 34.7769ZM22.7278 33.0569C22.6602 33.0794 22.5725 33.117 22.5624 33.0819C22.5299 33.0919 22.5599 33.0694 22.5098 33.0794C22.5123 33.0769 22.5148 33.0744 22.5173 33.0719C22.5299 33.0669 22.5449 33.0619 22.5574 33.0569L22.5649 33.0819L22.6677 33.0694C22.6852 33.0644 22.7053 33.0619 22.7278 33.0569C22.7403 33.0544 22.7529 33.0468 22.7629 33.0443V33.0494C22.7579 33.0494 22.7403 33.0544 22.7278 33.0569ZM26.133 31.497C25.9025 31.6072 25.6995 31.6898 25.6218 31.6473C25.5091 31.6122 25.7421 31.482 25.935 31.3568C26.0177 31.3017 26.1255 31.2216 26.0628 31.2116C25.9275 31.2391 25.7421 31.3819 25.6419 31.3693C25.8123 31.2366 26.0353 31.1615 26.2157 31.0163C26.1731 31.0263 26.1455 31.0313 26.133 31.0238C26.1255 31.0263 26.118 31.0288 26.1104 31.0313C26.1255 31.0213 26.1255 31.0213 26.1255 31.0213C26.1255 31.0238 26.1305 31.0213 26.133 31.0238C26.1731 31.0113 26.2082 31.0013 26.2157 31.0163C26.2407 30.9913 26.2808 30.9662 26.3284 30.9487C26.564 30.8586 26.8095 30.6332 27.0576 30.5256C27.4008 30.3553 27.6664 30.1024 27.9496 29.8245L27.9646 29.8145L27.9897 29.792C27.9772 29.802 27.9772 29.802 27.9772 29.802C28.1851 29.5141 27.9095 29.7494 27.7391 29.8746L27.664 29.9347L27.6188 29.9597C27.481 29.9948 27.2405 30.2176 27.1027 30.2477C27.6865 29.782 28.2879 29.3113 28.799 28.7629C28.8341 28.7279 28.8717 28.6903 28.9118 28.6528C28.9067 28.6628 28.9017 28.6703 28.9017 28.6753C28.8667 28.7429 28.9268 28.6979 28.9719 28.6378C29.007 28.5952 29.037 28.5476 29.037 28.5476C29.0345 28.5451 29.0295 28.5426 29.027 28.5401C29.1222 28.4425 29.2024 28.3498 29.2049 28.2772C29.2174 28.1846 29.2676 28.0844 29.3377 27.9768C29.473 27.9117 29.6735 27.7139 29.7637 27.7339C29.686 27.8616 29.6509 27.9317 29.6584 27.9818C29.3703 28.3774 29.2926 28.5777 29.1323 28.8656C28.9769 29.1335 28.9293 29.3213 28.6687 29.6518C28.5284 29.8095 28.4006 29.9647 28.2778 30.12C28.2427 30.145 28.2102 30.17 28.1751 30.1926C27.5311 30.6758 26.8371 31.0964 26.133 31.497ZM26.8872 31.3568C26.9022 31.3468 26.9624 31.3118 26.9624 31.3118C26.9849 31.3067 27.0075 31.2917 27.03 31.2792C27.0626 31.2592 27.0952 31.2417 27.1177 31.2391C27.0876 31.2467 27.0601 31.2642 27.03 31.2792C26.9849 31.3093 26.9348 31.3393 26.8872 31.3568Z" fill="white"/>
<path d="M18.6074 23.8906C18.5983 23.8952 18.5846 23.8975 18.5664 23.8975C18.5573 23.8975 18.5436 23.8975 18.5254 23.8975C18.5072 23.8975 18.4798 23.8815 18.4434 23.8496V23.8428L18.4297 23.8496L18.3818 23.8701C18.3727 23.8656 18.3659 23.8633 18.3613 23.8633L18.3135 23.8838L18.293 23.8633L18.2861 23.8906C18.2679 23.8997 18.2497 23.9043 18.2314 23.9043C18.1995 23.9043 18.1676 23.8883 18.1357 23.8564L18.1221 23.8359C18.1175 23.8405 18.1152 23.8451 18.1152 23.8496L18.0469 23.9111C18.0241 23.9066 18.0013 23.8952 17.9785 23.877C17.9648 23.8815 17.9512 23.8838 17.9375 23.8838C17.9147 23.8838 17.8965 23.8792 17.8828 23.8701L17.835 23.9111C17.8122 23.902 17.7894 23.8906 17.7666 23.877L17.7461 23.8975L17.7051 23.8906H17.6777C17.6322 23.8815 17.598 23.8587 17.5752 23.8223V23.7676C17.5524 23.7448 17.5296 23.7243 17.5068 23.7061L17.4727 23.6855C17.4772 23.6947 17.4818 23.7061 17.4863 23.7197L17.4727 23.7471L17.4795 23.7676H17.4727L17.5 23.7949L17.459 23.8975H17.3838L17.3291 23.8496C17.3291 23.8451 17.3245 23.8405 17.3154 23.8359L17.3018 23.8154C17.2835 23.82 17.2653 23.8223 17.2471 23.8223L17.2334 23.8359L17.2471 23.8633L17.2266 23.877C17.2311 23.8678 17.2334 23.8587 17.2334 23.8496L17.2061 23.8633V23.8838L17.1787 23.8701L17.1377 23.8906L17.124 23.8838L17.0967 23.9111C17.083 23.9066 17.0671 23.9043 17.0488 23.9043H17.0215L16.9668 23.9111H16.8984L16.8506 23.8906L16.7754 23.7881L16.7139 23.8291L16.6387 23.8975C16.6341 23.8883 16.6273 23.8815 16.6182 23.877V23.8906C16.6136 23.8952 16.6022 23.8997 16.584 23.9043H16.5635C16.5498 23.9043 16.5361 23.902 16.5225 23.8975C16.5088 23.9066 16.4928 23.9111 16.4746 23.9111H16.4404L16.4199 23.8906C16.4154 23.8997 16.4108 23.9066 16.4062 23.9111C16.388 23.9248 16.3675 23.9316 16.3447 23.9316C16.3311 23.9316 16.3174 23.9294 16.3037 23.9248C16.2809 23.9157 16.2604 23.9043 16.2422 23.8906C16.2331 23.8952 16.224 23.8975 16.2148 23.8975C16.2057 23.8975 16.1966 23.8952 16.1875 23.8906L16.167 23.8633L16.1533 23.8701C16.1077 23.8291 16.0645 23.7858 16.0234 23.7402H16.0166L16.0371 23.7676L16.0234 23.8359L16.0371 23.8633C16.0371 23.8815 16.0326 23.8952 16.0234 23.9043C16.0143 23.9134 16.0075 23.9202 16.0029 23.9248C15.9893 23.9294 15.9756 23.9316 15.9619 23.9316C15.9574 23.9316 15.9505 23.9294 15.9414 23.9248L15.9482 23.8975L15.9072 23.8838L15.8936 23.9043C15.8844 23.9089 15.8753 23.9111 15.8662 23.9111C15.8571 23.9111 15.8457 23.9089 15.832 23.9043C15.8229 23.8952 15.8115 23.8815 15.7979 23.8633L15.7842 23.8564H15.791C15.7956 23.8564 15.7979 23.8542 15.7979 23.8496L15.7158 23.7676V23.7744C15.7386 23.7972 15.7523 23.8223 15.7568 23.8496L15.7021 23.9248C15.6475 23.9202 15.5973 23.9043 15.5518 23.877L15.4834 23.9043L15.4219 23.8701C15.4128 23.8656 15.4036 23.8587 15.3945 23.8496L15.4082 23.8359L15.3877 23.8428V23.8359L15.374 23.8428L15.3398 23.8564H15.3535L15.3193 23.8838L15.292 23.8633V23.8701C15.2327 23.8656 15.1712 23.8337 15.1074 23.7744H15.0869V23.7676L15.0801 23.7949C15.0163 23.7858 14.9548 23.7288 14.8955 23.624L14.8818 23.6104C14.8454 23.6058 14.8158 23.5898 14.793 23.5625L14.7451 23.4736L14.7656 23.4531L14.7793 23.3916V23.3506L14.7656 23.3301C14.7565 23.3118 14.752 23.2936 14.752 23.2754L14.7793 23.2344C14.7656 23.2253 14.7542 23.2161 14.7451 23.207C14.7406 23.1979 14.736 23.1911 14.7314 23.1865C14.7314 23.1774 14.7314 23.1706 14.7314 23.166L14.7383 23.1455V23.125C14.7337 23.1204 14.7314 23.1159 14.7314 23.1113H14.7246H14.7314C14.736 23.1159 14.7406 23.1159 14.7451 23.1113L14.7246 23.0908C14.7201 23.0999 14.7178 23.109 14.7178 23.1182C14.7223 23.1227 14.7246 23.1273 14.7246 23.1318C14.7292 23.1364 14.7337 23.141 14.7383 23.1455L14.6973 23.1113L14.6836 23.0908L14.6904 23.0703H14.6836L14.6973 23.0088L14.6836 23.002V22.9746C14.6836 22.9792 14.6813 22.986 14.6768 22.9951C14.6768 23.0042 14.6768 23.0133 14.6768 23.0225C14.6813 23.027 14.6836 23.0316 14.6836 23.0361L14.6562 23.0088C14.638 22.9906 14.6289 22.9701 14.6289 22.9473L14.6494 22.9062L14.6631 22.8994C14.6403 22.8675 14.6289 22.8356 14.6289 22.8037L14.6904 22.7764L14.7041 22.749C14.6585 22.6943 14.6289 22.6442 14.6152 22.5986L14.6973 22.5371C14.6836 22.5189 14.6722 22.5007 14.6631 22.4824L14.6836 22.4688L14.6494 22.4209L14.6699 22.373C14.6562 22.3548 14.6449 22.3343 14.6357 22.3115L14.6494 22.3047L14.6084 22.2568L14.6016 22.1953C14.6107 22.1816 14.6198 22.1702 14.6289 22.1611L14.6494 22.1064H14.6631C14.7041 22.1064 14.7428 22.1224 14.7793 22.1543L14.8066 22.1064L14.7314 22.0381L14.7246 22.0107L14.6836 21.9834C14.6243 21.9333 14.5947 21.8717 14.5947 21.7988V21.7852L14.6016 21.7646L14.6152 21.751C14.6061 21.7373 14.6016 21.7191 14.6016 21.6963L14.6084 21.6826C14.5902 21.6644 14.5811 21.6393 14.5811 21.6074L14.5879 21.5732L14.6221 21.5596C14.6175 21.5505 14.6152 21.5413 14.6152 21.5322C14.6152 21.5231 14.6175 21.514 14.6221 21.5049L14.6084 21.4639L14.6016 21.3955L14.6289 21.3477C14.6152 21.3203 14.6084 21.293 14.6084 21.2656V21.2383L14.6562 21.2246L14.6494 21.1973C14.6357 21.1836 14.6266 21.1676 14.6221 21.1494L14.6426 21.0947C14.6289 21.0719 14.6198 21.0469 14.6152 21.0195L14.6973 20.958L14.7246 20.9717L14.7041 20.958C14.6768 20.9215 14.654 20.8874 14.6357 20.8555L14.7246 20.7939V20.7871C14.7018 20.7643 14.6859 20.7393 14.6768 20.7119L14.7383 20.6572L14.7178 20.6162C14.7223 20.6117 14.7292 20.6071 14.7383 20.6025L14.7246 20.5889C14.6882 20.557 14.6699 20.5205 14.6699 20.4795L14.7725 20.4385L14.8613 20.5273L14.8682 20.5068H14.8887V20.5L14.875 20.4932C14.7884 20.4385 14.7314 20.3838 14.7041 20.3291L14.7451 20.2607C14.7451 20.2516 14.7428 20.2448 14.7383 20.2402V20.2266C14.7383 20.2038 14.7474 20.181 14.7656 20.1582L14.7793 20.1309L14.8545 20.1104V20.1035L14.8818 20.083C14.859 20.0465 14.8385 20.0101 14.8203 19.9736L14.9092 19.9053L14.9297 19.8848H14.9092C14.9046 19.8802 14.8978 19.8757 14.8887 19.8711H14.875L14.8818 19.8643C14.8682 19.8551 14.859 19.8392 14.8545 19.8164V19.8027C14.8545 19.7799 14.8568 19.7594 14.8613 19.7412C14.8704 19.7093 14.8864 19.6865 14.9092 19.6729H14.9229C14.932 19.6683 14.9434 19.666 14.957 19.666C14.9753 19.666 14.9912 19.6729 15.0049 19.6865V19.6797C14.9821 19.6523 14.9616 19.625 14.9434 19.5977L14.9912 19.502C15.014 19.502 15.0345 19.5065 15.0527 19.5156C15.0482 19.5065 15.0459 19.4974 15.0459 19.4883V19.4473L15.0869 19.4062C15.0915 19.4062 15.0938 19.404 15.0938 19.3994L15.0869 19.3789L15.0664 19.3652C15.0618 19.3516 15.0596 19.3402 15.0596 19.3311C15.0596 19.3174 15.0618 19.3037 15.0664 19.29L15.0938 19.2627L15.0869 19.2422C15.1006 19.2285 15.1165 19.2194 15.1348 19.2148L15.1211 19.1943L15.1348 19.1533L15.1826 19.1123H15.21C15.2282 19.1123 15.2441 19.1146 15.2578 19.1191C15.235 19.0827 15.2236 19.0439 15.2236 19.0029L15.2783 18.9688L15.2646 18.9482C15.2646 18.93 15.2669 18.9163 15.2715 18.9072C15.276 18.8981 15.2829 18.8913 15.292 18.8867L15.2988 18.873L15.333 18.8115C15.3421 18.807 15.3535 18.8047 15.3672 18.8047H15.374C15.374 18.7956 15.3717 18.7887 15.3672 18.7842L15.4355 18.7568V18.7021C15.4447 18.6885 15.4561 18.6816 15.4697 18.6816V18.6611C15.4697 18.652 15.4674 18.6452 15.4629 18.6406L15.4834 18.627C15.488 18.6224 15.4925 18.6201 15.4971 18.6201L15.5654 18.5859L15.5996 18.6133C15.5951 18.6042 15.5905 18.5973 15.5859 18.5928L15.627 18.5518C15.6087 18.5244 15.5951 18.4993 15.5859 18.4766L15.6611 18.4014C15.6702 18.4059 15.6771 18.4105 15.6816 18.415C15.6771 18.3968 15.6748 18.3786 15.6748 18.3604L15.709 18.333C15.709 18.3057 15.7135 18.2874 15.7227 18.2783C15.7363 18.2646 15.75 18.2578 15.7637 18.2578L15.7568 18.251C15.7568 18.2327 15.7614 18.2191 15.7705 18.21C15.7796 18.1963 15.7887 18.1872 15.7979 18.1826L15.832 18.1895C15.8366 18.1895 15.8411 18.1872 15.8457 18.1826H15.8594C15.8548 18.1872 15.8525 18.1917 15.8525 18.1963L15.8594 18.1826H15.8867V18.1689C15.8776 18.1689 15.8708 18.1712 15.8662 18.1758V18.1279C15.889 18.1143 15.9095 18.1074 15.9277 18.1074C15.9596 18.1074 15.9893 18.1234 16.0166 18.1553L16.0303 18.1758C16.0029 18.1302 15.9756 18.0915 15.9482 18.0596L15.9551 17.9844C15.9596 17.9798 15.9665 17.9753 15.9756 17.9707C15.9893 17.9616 16.0029 17.957 16.0166 17.957L16.0781 17.9297V17.8887L16.1738 17.8545L16.167 17.8613C16.1624 17.8613 16.1556 17.8636 16.1465 17.8682C16.1374 17.8727 16.1305 17.8796 16.126 17.8887C16.126 17.8932 16.126 17.8978 16.126 17.9023L16.2217 17.834L16.2627 17.875C16.2581 17.8704 16.2559 17.8659 16.2559 17.8613L16.249 17.834L16.2627 17.8066V17.793H16.2695L16.2764 17.7451C16.2809 17.7451 16.2832 17.7428 16.2832 17.7383C16.2832 17.7246 16.2855 17.7109 16.29 17.6973L16.3242 17.6494L16.3652 17.6426H16.3926C16.3789 17.6426 16.3675 17.6471 16.3584 17.6562C16.3538 17.6654 16.3516 17.6722 16.3516 17.6768L16.4336 17.6084C16.4382 17.613 16.4427 17.6152 16.4473 17.6152L16.4814 17.5674H16.5156C16.5111 17.5674 16.5042 17.5719 16.4951 17.5811C16.486 17.5902 16.4814 17.6016 16.4814 17.6152L16.543 17.6016L16.5225 17.5605L16.5361 17.499C16.5498 17.4808 16.5658 17.4717 16.584 17.4717C16.5931 17.4717 16.6022 17.474 16.6113 17.4785V17.4717C16.625 17.4671 16.6387 17.4648 16.6523 17.4648H16.6729V17.4512C16.6774 17.4421 16.6797 17.4352 16.6797 17.4307L16.7207 17.376V17.3828L16.7822 17.3555L16.7891 17.3008C16.7936 17.2917 16.8005 17.2848 16.8096 17.2803C16.8232 17.262 16.8392 17.2484 16.8574 17.2393H16.8779C16.8916 17.2393 16.9076 17.2438 16.9258 17.2529L16.9326 17.2598L16.9736 17.2393L16.9531 17.2119C16.9577 17.2119 16.96 17.2096 16.96 17.2051L17.042 17.1982C17.0329 17.2028 17.0238 17.2074 17.0146 17.2119C17.0101 17.2165 17.0078 17.221 17.0078 17.2256H17.0146L17.0283 17.2188L17.0215 17.2256L17.083 17.2324L17.1104 17.2119C17.1012 17.2074 17.0944 17.2051 17.0898 17.2051H17.1035L17.1309 17.2119C17.14 17.2119 17.1468 17.2142 17.1514 17.2188L17.1445 17.1914L17.1172 17.1777L17.083 17.123V17.041L17.1377 17.0137V17L17.2061 16.9316V16.8975L17.2949 16.8496C17.2995 16.8542 17.304 16.8564 17.3086 16.8564C17.3086 16.8428 17.3132 16.8291 17.3223 16.8154H17.3291L17.3154 16.7881L17.3701 16.7129H17.3906V16.6992L17.459 16.6582C17.459 16.6263 17.4749 16.5967 17.5068 16.5693H17.5547C17.5684 16.5374 17.5889 16.5146 17.6162 16.501C17.6208 16.501 17.6253 16.4987 17.6299 16.4941C17.6436 16.4805 17.6595 16.4714 17.6777 16.4668L17.6914 16.3984V16.4053C17.6868 16.4098 17.6846 16.4144 17.6846 16.4189H17.6777L17.6709 16.3711C17.6709 16.362 17.6732 16.3506 17.6777 16.3369C17.6868 16.3232 17.6982 16.3073 17.7119 16.2891H17.7188V16.2344L17.7666 16.2002L17.7598 16.1797L17.7939 16.1455C17.7985 16.1455 17.8053 16.1478 17.8145 16.1523C17.8281 16.1523 17.8418 16.1546 17.8555 16.1592L17.876 16.1523L17.8965 16.1592C17.8965 16.1546 17.8988 16.1523 17.9033 16.1523C17.876 16.1296 17.8577 16.1068 17.8486 16.084C17.8395 16.0612 17.835 16.0407 17.835 16.0225L17.9033 15.9951C17.8896 15.9814 17.8783 15.9678 17.8691 15.9541C17.8372 15.9131 17.819 15.8766 17.8145 15.8447V15.8242C17.8145 15.806 17.819 15.7878 17.8281 15.7695L17.8213 15.7627L17.8555 15.7354L17.8486 15.6807C17.8304 15.6533 17.8213 15.6237 17.8213 15.5918V15.5713L17.8555 15.5576C17.8464 15.5439 17.8372 15.5326 17.8281 15.5234L17.8623 15.4346L17.8555 15.4277L17.835 15.3662L17.8623 15.3184L17.8418 15.291C17.8372 15.2728 17.835 15.2568 17.835 15.2432C17.835 15.2295 17.8372 15.2158 17.8418 15.2021L17.8623 15.1885C17.8532 15.1794 17.8486 15.1611 17.8486 15.1338C17.8486 15.1064 17.8555 15.0814 17.8691 15.0586L17.9375 15.0381L17.9102 15.0107C17.8737 14.9788 17.8486 14.9515 17.835 14.9287L17.8418 14.8809L17.8281 14.8672L17.8418 14.8467H17.8486L17.8555 14.833L17.8486 14.8262C17.8486 14.7715 17.8395 14.7214 17.8213 14.6758L17.8691 14.5938C17.8737 14.5846 17.8805 14.5778 17.8896 14.5732C17.8623 14.5368 17.8441 14.5003 17.835 14.4639L17.9238 14.4092L17.8896 14.4023C17.876 14.3887 17.8691 14.375 17.8691 14.3613C17.8691 14.3522 17.8714 14.3431 17.876 14.334C17.8805 14.3249 17.8919 14.3158 17.9102 14.3066C17.9193 14.3021 17.9307 14.2998 17.9443 14.2998H17.9717C17.9489 14.2679 17.9238 14.236 17.8965 14.2041L17.917 14.1836L17.8486 14.1289L17.8418 14.0947L17.8555 14.0264V14.04C17.8555 14.0492 17.8577 14.0583 17.8623 14.0674L17.8828 14.0537L17.8486 14.0127L17.8828 13.9854L17.876 13.9717L17.8828 13.9785L17.8896 13.9717L17.8623 13.9375C17.8623 13.9193 17.8646 13.9056 17.8691 13.8965C17.8646 13.8828 17.8623 13.8646 17.8623 13.8418V13.8008L17.876 13.7939C17.8669 13.7803 17.8623 13.7666 17.8623 13.7529V13.7393C17.8623 13.7301 17.8646 13.721 17.8691 13.7119C17.8737 13.6982 17.8851 13.6846 17.9033 13.6709V13.6572L17.917 13.6436V13.6162L17.9238 13.6094C17.8874 13.5638 17.8577 13.5114 17.835 13.4521L17.876 13.4248V13.418L17.8213 13.377V13.3496L17.8008 13.3154L17.8281 13.2881V13.2676L17.835 13.2402H17.8555L17.835 13.2197C17.8167 13.1969 17.7985 13.1787 17.7803 13.165L17.7666 13.1582H17.7598L17.7529 13.165L17.7324 13.1992C17.6686 13.1719 17.598 13.1309 17.5205 13.0762L17.459 13.0215C17.4499 13.026 17.4362 13.0283 17.418 13.0283C17.3997 13.0283 17.377 13.0192 17.3496 13.001L17.3223 12.9736H17.3154C17.2881 13.0146 17.2493 13.0397 17.1992 13.0488L17.1377 13.0146L17.1309 13.0283H17.124C17.1195 13.0329 17.1126 13.0374 17.1035 13.042H17.0693C17.0511 13.042 17.0306 13.0374 17.0078 13.0283L16.9395 13.0625C16.9121 13.0443 16.8848 13.0283 16.8574 13.0146H16.8506C16.8506 13.0192 16.8529 13.0238 16.8574 13.0283L16.8027 13.1104C16.7845 13.1104 16.7663 13.1081 16.748 13.1035V13.1172L16.7344 13.1719C16.7161 13.1855 16.6934 13.1969 16.666 13.2061L16.6045 13.1924L16.5566 13.2197C16.5658 13.2425 16.5703 13.2607 16.5703 13.2744L16.543 13.2949V13.3291L16.5225 13.3564C16.4997 13.3747 16.4655 13.3883 16.4199 13.3975C16.4199 13.4248 16.4062 13.4499 16.3789 13.4727L16.3584 13.5137C16.3402 13.5228 16.3219 13.5273 16.3037 13.5273C16.2809 13.5273 16.2559 13.5205 16.2285 13.5068L16.208 13.5273L16.2354 13.5479C16.29 13.5934 16.3174 13.639 16.3174 13.6846L16.249 13.7119L16.2422 13.7598C16.2331 13.7643 16.2262 13.7666 16.2217 13.7666C16.2217 13.7712 16.224 13.778 16.2285 13.7871L16.2764 13.8555V13.9238L16.2627 13.9375C16.2718 13.9512 16.2786 13.9648 16.2832 13.9785L16.249 14.0127L16.2627 14.0332V14.1221H16.249L16.2354 14.1836H16.2285C16.2559 14.2155 16.2764 14.252 16.29 14.293L16.2559 14.3135L16.2285 14.3545C16.2467 14.3636 16.2604 14.3727 16.2695 14.3818L16.2832 14.4434C16.2741 14.4753 16.2513 14.4935 16.2148 14.498C16.2422 14.5391 16.2581 14.5824 16.2627 14.6279L16.2354 14.6416H16.2422C16.2467 14.6507 16.2536 14.6621 16.2627 14.6758H16.2559C16.265 14.7031 16.2718 14.7282 16.2764 14.751L16.2559 14.7715L16.2627 14.8262C16.2536 14.8444 16.2445 14.8558 16.2354 14.8604C16.2354 14.8649 16.2376 14.8695 16.2422 14.874C16.2513 14.8831 16.2581 14.8968 16.2627 14.915L16.2695 14.9561L16.249 14.9902C16.2673 15.013 16.2764 15.0381 16.2764 15.0654L16.1807 15.1064L16.1533 15.0859L16.1602 15.1133C16.1647 15.1133 16.1693 15.1156 16.1738 15.1201C16.2057 15.1383 16.2262 15.1543 16.2354 15.168C16.2627 15.1999 16.2764 15.2295 16.2764 15.2568L16.1875 15.3115H16.1465L16.2217 15.3936L16.2354 15.4346L16.2217 15.4619H16.249C16.2581 15.471 16.265 15.487 16.2695 15.5098C16.2741 15.5326 16.2764 15.5645 16.2764 15.6055L16.208 15.6328C16.2171 15.6556 16.2217 15.6784 16.2217 15.7012L16.2012 15.7285C16.2103 15.7331 16.2171 15.7422 16.2217 15.7559L16.2285 15.7969L16.2217 15.8447L16.2148 15.8584C16.2057 15.8766 16.1943 15.8926 16.1807 15.9062C16.1761 15.9245 16.1624 15.9495 16.1396 15.9814L16.0781 15.9951L16.0098 16.0498L15.9824 16.0225V16.0498L15.9141 16.084V16.0977C15.9323 16.1296 15.9414 16.1569 15.9414 16.1797L15.9209 16.1865L15.9277 16.2275C15.9232 16.2367 15.9118 16.248 15.8936 16.2617C15.8753 16.2708 15.8503 16.2754 15.8184 16.2754L15.8115 16.2686L15.7432 16.3232C15.7295 16.3141 15.7181 16.3073 15.709 16.3027L15.6953 16.3232H15.6885V16.3369L15.6064 16.3711C15.5928 16.3665 15.5791 16.3551 15.5654 16.3369L15.4971 16.3779H15.4355L15.3945 16.3438C15.3763 16.3346 15.3604 16.3255 15.3467 16.3164H15.3398L15.2852 16.3916C15.2441 16.3825 15.2031 16.3643 15.1621 16.3369L15.1553 16.3574C15.1051 16.3574 15.0459 16.3346 14.9775 16.2891C14.932 16.2526 14.8955 16.2161 14.8682 16.1797H14.8477C14.8066 16.1797 14.7633 16.1546 14.7178 16.1045L14.6699 16.0293C14.6608 16.0111 14.6494 15.9951 14.6357 15.9814L14.6562 15.9131L14.6084 15.8721L14.6016 15.8379V15.8242L14.5879 15.7695L14.6016 15.7627C14.5742 15.7399 14.5492 15.7035 14.5264 15.6533L14.5811 15.5986C14.5719 15.5895 14.5628 15.5827 14.5537 15.5781L14.5605 15.4688C14.5332 15.4232 14.5195 15.3799 14.5195 15.3389L14.5742 15.2842L14.6016 15.1885C14.6107 15.1839 14.6198 15.1816 14.6289 15.1816L14.6221 15.1611L14.6016 15.1133C14.6107 15.1042 14.6221 15.0973 14.6357 15.0928L14.6221 15.0791L14.6016 15.0107L14.6221 14.9766C14.6175 14.9766 14.613 14.9743 14.6084 14.9697H14.6016V14.9629L14.5879 14.9492L14.5332 14.9014L14.5195 14.8604C14.5195 14.8467 14.5241 14.8353 14.5332 14.8262V14.7852L14.6152 14.7373L14.5742 14.6963C14.5423 14.6598 14.5241 14.6234 14.5195 14.5869L14.5469 14.5664L14.54 14.5186L14.5674 14.4912C14.5355 14.4593 14.5173 14.4297 14.5127 14.4023C14.5127 14.3704 14.515 14.3454 14.5195 14.3271L14.5605 14.3135C14.556 14.3089 14.5492 14.3021 14.54 14.293C14.5355 14.2839 14.5332 14.2747 14.5332 14.2656V14.2588H14.5879L14.6152 14.2314L14.5742 14.1904L14.5674 14.1836L14.5469 14.0811C14.5469 14.0765 14.5492 14.0742 14.5537 14.0742L14.5264 14.0332L14.5537 13.999C14.5446 13.9854 14.5378 13.9717 14.5332 13.958L14.5811 13.9307C14.5537 13.8942 14.5378 13.8577 14.5332 13.8213L14.5674 13.7939C14.5583 13.7803 14.5514 13.7643 14.5469 13.7461L14.5742 13.7256L14.6084 13.6709C14.5993 13.6572 14.5902 13.6481 14.5811 13.6436L14.5742 13.5547L14.5879 13.541C14.5742 13.5228 14.5651 13.5 14.5605 13.4727L14.6152 13.4316C14.6016 13.4134 14.5902 13.3929 14.5811 13.3701C14.5719 13.3564 14.5674 13.3405 14.5674 13.3223C14.5674 13.3086 14.5697 13.2949 14.5742 13.2812L14.6631 13.2471C14.6676 13.2516 14.6722 13.2539 14.6768 13.2539L14.6836 13.2334L14.6357 13.1855L14.6289 13.1035C14.6426 13.0898 14.6562 13.0807 14.6699 13.0762L14.6631 13.0693L14.6973 13.0146L14.6904 13.0078L14.6973 13.0146L14.7041 13.0078C14.695 12.9896 14.6882 12.9714 14.6836 12.9531L14.7383 12.9189V12.8984L14.7725 12.8848C14.7679 12.8802 14.7633 12.8757 14.7588 12.8711C14.7588 12.862 14.7565 12.8506 14.752 12.8369C14.752 12.8187 14.752 12.7959 14.752 12.7686L14.8066 12.7002C14.8158 12.7002 14.8294 12.7048 14.8477 12.7139H14.8613L14.8477 12.7002L14.8818 12.5977H14.8955C14.8955 12.584 14.8978 12.568 14.9023 12.5498L14.8955 12.543L14.9229 12.4951L14.9502 12.4746C14.9502 12.4701 14.9479 12.4655 14.9434 12.4609L14.9502 12.4541H14.9434V12.4131L15.0527 12.3926L15.0732 12.3994V12.3789C15.0869 12.3698 15.1074 12.3652 15.1348 12.3652L15.1416 12.3516C15.1507 12.3424 15.1576 12.3379 15.1621 12.3379V12.2832C15.1758 12.2786 15.1872 12.2764 15.1963 12.2764C15.2145 12.2764 15.2305 12.2809 15.2441 12.29L15.21 12.2764L15.1689 12.2217C15.1689 12.1852 15.1849 12.1579 15.2168 12.1396H15.2373C15.2373 12.1214 15.2396 12.1055 15.2441 12.0918L15.3057 12.0645L15.333 12.0234L15.4014 12.0166C15.4014 11.9756 15.415 11.9482 15.4424 11.9346L15.4492 11.9209V11.9277H15.4561L15.4629 11.9414L15.4834 11.9209H15.4902L15.5244 11.9004L15.5312 11.9141V11.8936C15.5449 11.8434 15.5677 11.8161 15.5996 11.8115C15.6042 11.7979 15.611 11.7842 15.6201 11.7705L15.6816 11.7568H15.6885L15.7705 11.6953L15.8662 11.6475L15.8867 11.668L15.8936 11.6611V11.6475H15.9072L15.9346 11.6133L15.9414 11.5791L15.9619 11.5859L16.0303 11.5381C16.0348 11.5426 16.0394 11.5449 16.0439 11.5449L16.0645 11.5244C16.0736 11.5199 16.0872 11.5176 16.1055 11.5176C16.1237 11.5176 16.1419 11.5221 16.1602 11.5312C16.1693 11.5267 16.1761 11.5221 16.1807 11.5176L16.2012 11.4902C16.2148 11.4857 16.2262 11.4834 16.2354 11.4834C16.2445 11.4834 16.2559 11.488 16.2695 11.4971C16.2878 11.5062 16.3037 11.5176 16.3174 11.5312L16.3242 11.5381C16.3288 11.5381 16.3356 11.5358 16.3447 11.5312C16.3402 11.5085 16.3379 11.488 16.3379 11.4697C16.3379 11.4515 16.3402 11.4355 16.3447 11.4219L16.4199 11.3877L16.4473 11.4014L16.4678 11.3672C16.4997 11.3672 16.5293 11.3786 16.5566 11.4014C16.5612 11.4014 16.5658 11.4036 16.5703 11.4082L16.5771 11.3672C16.5908 11.3626 16.6045 11.3604 16.6182 11.3604C16.6364 11.3604 16.6546 11.3649 16.6729 11.374V11.3535L16.7617 11.3057L16.7959 11.3262L16.8301 11.3057C16.8483 11.3057 16.8711 11.3148 16.8984 11.333L16.9258 11.3125C16.944 11.3171 16.9577 11.3216 16.9668 11.3262L16.9736 11.292H17.0146L17.0625 11.2988L17.124 11.3467L17.1719 11.3945H17.1924L17.1855 11.374L17.2061 11.3535L17.2949 11.2852C17.304 11.2943 17.3132 11.3011 17.3223 11.3057H17.3359C17.3724 11.3057 17.4111 11.3285 17.4521 11.374V11.3809L17.4863 11.3467L17.4932 11.3535L17.5137 11.292C17.5456 11.292 17.5843 11.3148 17.6299 11.3604L17.6641 11.3467L17.7324 11.415L17.7598 11.3398H17.7734C17.819 11.3398 17.8623 11.3604 17.9033 11.4014L17.9238 11.3809C17.9375 11.3854 17.9489 11.3923 17.958 11.4014C17.9717 11.3968 17.9854 11.3945 17.999 11.3945C18.0173 11.3945 18.04 11.4014 18.0674 11.415C18.0947 11.4242 18.1243 11.4447 18.1562 11.4766H18.1631L18.1699 11.4697L18.2041 11.4902L18.2314 11.4971C18.2725 11.5244 18.3021 11.5518 18.3203 11.5791H18.334L18.3477 11.5859L18.3818 11.5381L18.4297 11.5723C18.4479 11.5859 18.4684 11.5996 18.4912 11.6133C18.5003 11.6224 18.5117 11.6361 18.5254 11.6543C18.5436 11.668 18.5573 11.6862 18.5664 11.709H18.6143L18.6689 11.7363C18.71 11.7591 18.7533 11.7933 18.7988 11.8389C18.8444 11.8844 18.874 11.9163 18.8877 11.9346C18.9333 11.9437 18.9834 11.9688 19.0381 12.0098L19.168 12.1328V12.1943C19.1771 12.208 19.1908 12.2217 19.209 12.2354L19.2773 12.3037C19.3047 12.3402 19.3252 12.3743 19.3389 12.4062L19.2979 12.4609H19.3047V12.4678L19.2842 12.4951L19.3457 12.543L19.3525 12.5225L19.3457 12.5156L19.3525 12.5225C19.3525 12.527 19.3548 12.5339 19.3594 12.543C19.3639 12.5475 19.3685 12.5566 19.373 12.5703L19.4209 12.6318C19.4437 12.6592 19.4574 12.6888 19.4619 12.7207L19.4209 12.7412V12.7549C19.4209 12.7686 19.4163 12.7799 19.4072 12.7891C19.4072 12.7936 19.4095 12.7959 19.4141 12.7959L19.4756 12.8301C19.512 12.8665 19.5303 12.903 19.5303 12.9395V12.9463C19.5348 12.9554 19.5371 12.9622 19.5371 12.9668L19.5576 13.0146L19.5371 13.042C19.5462 13.0465 19.5531 13.0534 19.5576 13.0625L19.5371 13.1445C19.5326 13.1491 19.5257 13.1514 19.5166 13.1514L19.5371 13.1719C19.569 13.2038 19.5872 13.2425 19.5918 13.2881L19.5166 13.3359C19.5485 13.3678 19.5758 13.4157 19.5986 13.4795L19.5371 13.5342C19.5645 13.5661 19.5781 13.598 19.5781 13.6299C19.5827 13.6572 19.5827 13.68 19.5781 13.6982L19.5645 13.7051C19.5872 13.7324 19.5964 13.7575 19.5918 13.7803C19.5918 13.8031 19.5895 13.819 19.585 13.8281H19.5439C19.5485 13.8418 19.5508 13.8532 19.5508 13.8623L19.4756 13.8965C19.512 13.9238 19.5485 13.9466 19.585 13.9648L19.5918 14.0059L19.6055 14.0264C19.6146 14.0446 19.6191 14.0651 19.6191 14.0879L19.585 14.1084L19.5645 14.1904C19.5736 14.2087 19.5781 14.2314 19.5781 14.2588H19.5713C19.585 14.2816 19.5964 14.3021 19.6055 14.3203L19.5576 14.3613L19.5713 14.375C19.5804 14.375 19.5872 14.3818 19.5918 14.3955C19.6009 14.4046 19.6055 14.4183 19.6055 14.4365V14.4775L19.5508 14.5117C19.5462 14.5208 19.5371 14.5277 19.5234 14.5322V14.5391C19.5326 14.5436 19.5417 14.5527 19.5508 14.5664L19.5918 14.6143L19.5986 14.6826C19.5941 14.6963 19.5872 14.7054 19.5781 14.71C19.5964 14.7327 19.6055 14.7578 19.6055 14.7852L19.5713 14.8125C19.5758 14.8125 19.5781 14.8148 19.5781 14.8193C19.5964 14.8421 19.6055 14.8717 19.6055 14.9082L19.5576 14.9424V14.9902C19.5667 14.9902 19.5736 14.988 19.5781 14.9834C19.5827 14.9743 19.585 14.9674 19.585 14.9629V14.9697C19.585 14.9743 19.5872 14.9788 19.5918 14.9834L19.5576 15.0244C19.5622 15.0381 19.5645 15.0495 19.5645 15.0586V15.0723L19.5781 15.0791C19.5827 15.111 19.585 15.1429 19.585 15.1748L19.5781 15.2568V15.2979C19.5781 15.3343 19.5827 15.3662 19.5918 15.3936L19.4961 15.4551C19.4824 15.4414 19.471 15.4323 19.4619 15.4277L19.4756 15.5098H19.4688L19.5029 15.5508C19.5166 15.569 19.5257 15.5781 19.5303 15.5781L19.5439 15.6533C19.5622 15.6715 19.5781 15.6966 19.5918 15.7285L19.5508 15.8037H19.5439L19.5645 15.8447C19.5553 15.863 19.5439 15.8766 19.5303 15.8857C19.5212 15.8949 19.512 15.9017 19.5029 15.9062H19.4756L19.4893 15.9199C19.5303 15.9746 19.5553 16.0339 19.5645 16.0977L19.5439 16.1113C19.5485 16.125 19.5508 16.1364 19.5508 16.1455L19.5098 16.1865L19.5166 16.207V16.2139C19.5212 16.2184 19.5234 16.223 19.5234 16.2275L19.4824 16.3164H19.4209C19.4391 16.3392 19.4551 16.3551 19.4688 16.3643L19.4414 16.4463L19.4482 16.4668C19.4482 16.4622 19.4505 16.46 19.4551 16.46L19.4482 16.4668L19.4688 16.5078V16.4941L19.4756 16.4873L19.4688 16.4805C19.4688 16.4759 19.4665 16.4714 19.4619 16.4668C19.4619 16.4622 19.4596 16.46 19.4551 16.46L19.4688 16.4463C19.4733 16.4372 19.4756 16.4281 19.4756 16.4189C19.4756 16.4144 19.4733 16.4098 19.4688 16.4053L19.4893 16.4463C19.4938 16.4554 19.4961 16.4668 19.4961 16.4805C19.4961 16.4941 19.4938 16.5101 19.4893 16.5283L19.4141 16.5625H19.4072V16.6035H19.4004C19.4004 16.6172 19.3981 16.6309 19.3936 16.6445C19.3799 16.6628 19.3662 16.6742 19.3525 16.6787C19.3434 16.6833 19.3343 16.6855 19.3252 16.6855C19.3206 16.6855 19.3138 16.6833 19.3047 16.6787C19.332 16.7015 19.3571 16.7197 19.3799 16.7334L19.4141 16.7881L19.3936 16.8564V16.8359L19.4004 16.8291L19.3936 16.8154L19.3389 16.9043H19.332L19.2842 16.9521C19.2614 16.943 19.2363 16.9271 19.209 16.9043L19.2158 16.9248V16.9111L19.2295 16.9248L19.2637 16.9521L19.2773 16.9795C19.3001 17.0068 19.3161 17.0365 19.3252 17.0684L19.2979 17.1025L19.25 17.1299C19.2546 17.1436 19.2568 17.1595 19.2568 17.1777L19.2295 17.1914C19.234 17.2096 19.2363 17.2279 19.2363 17.2461C19.2363 17.278 19.2272 17.3099 19.209 17.3418L19.1543 17.3555L19.1406 17.3896C19.1178 17.3896 19.0928 17.3851 19.0654 17.376C19.0609 17.3714 19.0563 17.3691 19.0518 17.3691H19.0244V17.3828L19.0176 17.4033H19.0381C19.0609 17.4079 19.0768 17.4238 19.0859 17.4512L19.0928 17.5127L19.0107 17.5605L19.0039 17.5742C18.9902 17.5833 18.9697 17.5902 18.9424 17.5947C18.9424 17.5993 18.9401 17.6038 18.9355 17.6084C18.9264 17.6175 18.915 17.6243 18.9014 17.6289C18.8923 17.6426 18.8831 17.654 18.874 17.6631C18.8649 17.6676 18.8581 17.6699 18.8535 17.6699C18.849 17.6745 18.8444 17.6768 18.8398 17.6768V17.752C18.8353 17.7565 18.8262 17.7611 18.8125 17.7656H18.7646L18.7715 17.7793C18.7715 17.7839 18.7692 17.7907 18.7646 17.7998C18.7646 17.8089 18.7624 17.8158 18.7578 17.8203L18.751 17.834H18.7236C18.7236 17.8613 18.7031 17.8887 18.6621 17.916L18.6211 17.9365L18.6074 17.9502L18.5527 17.9434V17.957H18.5459C18.555 17.9753 18.5596 17.9935 18.5596 18.0117L18.5117 18.0322C18.5163 18.0505 18.5186 18.071 18.5186 18.0938L18.4229 18.1348C18.4092 18.1211 18.3887 18.1051 18.3613 18.0869L18.3271 18.0664C18.3454 18.0846 18.3659 18.1029 18.3887 18.1211L18.3613 18.2236H18.3271L18.3135 18.2988C18.3044 18.2988 18.293 18.2943 18.2793 18.2852L18.2725 18.3193C18.2542 18.3285 18.2337 18.333 18.2109 18.333C18.1973 18.333 18.1836 18.3307 18.1699 18.3262V18.3467L18.1836 18.3535C18.1654 18.39 18.1449 18.4128 18.1221 18.4219C18.1266 18.4355 18.1289 18.4492 18.1289 18.4629L18.0605 18.5312H18.0674L18.0264 18.5586L17.999 18.5449L17.9854 18.5791C17.9808 18.5791 17.9762 18.5814 17.9717 18.5859L17.9443 18.6406C17.9307 18.6452 17.9193 18.6475 17.9102 18.6475C17.8965 18.6475 17.8851 18.6452 17.876 18.6406L17.835 18.6201L17.8623 18.5996C17.8623 18.5951 17.86 18.5905 17.8555 18.5859H17.8486L17.8145 18.6064L17.8281 18.6201L17.8486 18.6885C17.8395 18.7021 17.8258 18.7181 17.8076 18.7363C17.7894 18.75 17.762 18.7591 17.7256 18.7637H17.6777L17.6641 18.832C17.6504 18.8366 17.6367 18.8389 17.623 18.8389H17.5957L17.5889 18.8662L17.5752 18.8799C17.5798 18.8753 17.582 18.8708 17.582 18.8662C17.582 18.8617 17.5798 18.8571 17.5752 18.8525C17.5706 18.8434 17.5615 18.8343 17.5479 18.8252L17.5752 18.9141C17.5661 18.9277 17.5524 18.9391 17.5342 18.9482C17.5205 18.9574 17.5 18.9619 17.4727 18.9619C17.4772 18.971 17.4795 18.9801 17.4795 18.9893L17.4043 19.0439C17.3906 19.0394 17.3792 19.0348 17.3701 19.0303C17.3747 19.0439 17.377 19.0576 17.377 19.0713L17.2744 19.1465L17.2812 19.167C17.2721 19.1852 17.2607 19.1989 17.2471 19.208C17.238 19.2126 17.2288 19.2148 17.2197 19.2148L17.1719 19.2559L17.165 19.2969H17.1445L17.1309 19.3311C17.1172 19.363 17.0876 19.3812 17.042 19.3857C17.0374 19.404 17.0283 19.4199 17.0146 19.4336C17.0192 19.4473 17.0215 19.4609 17.0215 19.4746C17.0215 19.4928 17.0169 19.5088 17.0078 19.5225L16.96 19.543C16.9189 19.543 16.8848 19.527 16.8574 19.4951L16.8438 19.4746L16.8369 19.4678V19.4746C16.8597 19.502 16.8757 19.5225 16.8848 19.5361C16.8984 19.5452 16.9076 19.5498 16.9121 19.5498L16.9463 19.5977C16.9463 19.6068 16.944 19.6159 16.9395 19.625C16.9349 19.6341 16.9281 19.6432 16.9189 19.6523L16.8916 19.6729C16.8962 19.6683 16.8984 19.6637 16.8984 19.6592L16.9053 19.6523L16.8984 19.6455L16.8848 19.6592L16.8916 19.6729L16.8779 19.6797L16.8711 19.666L16.8369 19.6865L16.8438 19.7139C16.8255 19.7321 16.8027 19.7412 16.7754 19.7412H16.7617V19.7822C16.7572 19.7868 16.7526 19.7891 16.748 19.7891C16.7572 19.8073 16.7617 19.8301 16.7617 19.8574V19.8779L16.6797 19.8984C16.6842 19.9121 16.6865 19.9258 16.6865 19.9395C16.6865 19.9531 16.6842 19.9668 16.6797 19.9805L16.6113 20.0146C16.6204 20.0329 16.625 20.0534 16.625 20.0762L16.5908 20.1035C16.5999 20.1172 16.6045 20.1309 16.6045 20.1445L16.5771 20.1855L16.584 20.1992C16.584 20.222 16.5794 20.2402 16.5703 20.2539C16.5703 20.2585 16.568 20.2653 16.5635 20.2744L16.5088 20.2949L16.5225 20.3086V20.3154L16.4404 20.3564L16.4336 20.377L16.4131 20.3701C16.3949 20.3701 16.3812 20.3656 16.3721 20.3564C16.3538 20.3656 16.3356 20.3701 16.3174 20.3701L16.3379 20.3906C16.3561 20.4089 16.3743 20.4225 16.3926 20.4316L16.3994 20.5342L16.4404 20.5684C16.4404 20.5775 16.4382 20.5843 16.4336 20.5889L16.4404 20.6094L16.4268 20.6641V20.6777L16.3721 20.7324L16.3789 20.7598C16.388 20.7826 16.3949 20.8053 16.3994 20.8281L16.3789 20.8555L16.3516 20.876L16.3447 20.8691L16.3105 20.8896C16.3516 20.9352 16.3766 20.9899 16.3857 21.0537L16.3447 21.0811C16.3447 21.0856 16.347 21.0879 16.3516 21.0879H16.3584C16.3584 21.0833 16.3607 21.0811 16.3652 21.0811V21.1084C16.3652 21.1038 16.363 21.0993 16.3584 21.0947L16.2832 21.1768C16.2878 21.1768 16.29 21.179 16.29 21.1836L16.3037 21.2656C16.29 21.2839 16.2741 21.293 16.2559 21.293H16.2354C16.2718 21.3294 16.2946 21.3727 16.3037 21.4229L16.2422 21.4434L16.2695 21.4775L16.2627 21.5459C16.249 21.5641 16.2331 21.5755 16.2148 21.5801C16.2832 21.6576 16.3242 21.7282 16.3379 21.792L16.3105 21.8193C16.3242 21.8376 16.3379 21.8535 16.3516 21.8672V21.9355C16.347 21.9401 16.3447 21.9447 16.3447 21.9492C16.3493 21.9629 16.3516 21.9743 16.3516 21.9834C16.3607 22.0016 16.3675 22.0221 16.3721 22.0449L16.3516 22.0586L16.3857 22.1133L16.3652 22.1475C16.3926 22.1794 16.4222 22.2113 16.4541 22.2432V22.1885C16.4723 22.1748 16.4951 22.1702 16.5225 22.1748C16.5544 22.1748 16.5885 22.1908 16.625 22.2227L16.6387 22.1816H16.6729C16.7321 22.1816 16.7913 22.2158 16.8506 22.2842L16.8711 22.3115C16.8665 22.3024 16.8643 22.2956 16.8643 22.291L16.8369 22.2432L16.8916 22.1543C16.9372 22.1589 16.9736 22.1794 17.001 22.2158L17.0283 22.2432L17.042 22.2158L17.0693 22.2295V22.209H17.0898C17.1081 22.209 17.124 22.2113 17.1377 22.2158L17.165 22.1816C17.1787 22.1908 17.1947 22.1999 17.2129 22.209C17.2311 22.1999 17.2493 22.1953 17.2676 22.1953C17.2858 22.1953 17.304 22.1999 17.3223 22.209L17.3633 22.1748V22.168C17.3724 22.1634 17.3815 22.1611 17.3906 22.1611C17.4134 22.1611 17.4385 22.1725 17.4658 22.1953L17.4932 22.1543C17.5205 22.1589 17.5479 22.1657 17.5752 22.1748L17.6025 22.1338C17.6162 22.1247 17.6322 22.1201 17.6504 22.1201L17.6982 22.1406C17.721 22.168 17.737 22.1862 17.7461 22.1953L17.7803 22.168C17.8076 22.168 17.835 22.1748 17.8623 22.1885L17.8828 22.1611L17.8965 22.1543L17.9307 22.1201C17.9489 22.1201 17.9671 22.1224 17.9854 22.127L18.0195 22.1543V22.1475C18.0286 22.1292 18.0423 22.1178 18.0605 22.1133H18.0811C18.0902 22.1133 18.1016 22.1156 18.1152 22.1201L18.1494 22.127C18.1494 22.1315 18.1471 22.1338 18.1426 22.1338C18.138 22.1338 18.1312 22.1361 18.1221 22.1406C18.1175 22.1452 18.1152 22.1497 18.1152 22.1543H18.1426L18.2178 22.1406C18.2314 22.168 18.2497 22.193 18.2725 22.2158C18.2633 22.1976 18.2588 22.1794 18.2588 22.1611L18.334 22.1064C18.3978 22.1247 18.4548 22.1589 18.5049 22.209L18.5391 22.25L18.5596 22.168C18.6097 22.168 18.6712 22.2021 18.7441 22.2705V22.2637C18.7624 22.2363 18.7829 22.2227 18.8057 22.2227H18.8398L18.8672 22.2432H18.874C18.8786 22.2432 18.8809 22.2454 18.8809 22.25H18.8877L18.9014 22.2158C18.9105 22.2067 18.9242 22.2021 18.9424 22.2021H18.9629C18.9766 22.2021 18.9902 22.2044 19.0039 22.209L19.0449 22.2295L19.0586 22.2158C19.0814 22.2158 19.0996 22.2204 19.1133 22.2295C19.127 22.234 19.1361 22.2409 19.1406 22.25L19.1748 22.2842C19.1702 22.2796 19.1657 22.2773 19.1611 22.2773C19.1566 22.2773 19.152 22.2773 19.1475 22.2773L19.209 22.3184C19.2272 22.3184 19.25 22.3298 19.2773 22.3525L19.332 22.4004V22.4824C19.3275 22.4961 19.3138 22.5029 19.291 22.5029C19.332 22.5531 19.373 22.5895 19.4141 22.6123L19.3867 22.6738C19.3913 22.6784 19.3936 22.6852 19.3936 22.6943C19.3936 22.708 19.389 22.724 19.3799 22.7422V22.749L19.4619 22.8242C19.4938 22.8516 19.5212 22.8812 19.5439 22.9131L19.4619 22.9951L19.4482 22.9814L19.4209 23.002V23.0225C19.4163 23.027 19.4095 23.0293 19.4004 23.0293C19.4186 23.0521 19.4277 23.0749 19.4277 23.0977L19.3799 23.1455L19.4004 23.1865C19.4551 23.2503 19.4893 23.3096 19.5029 23.3643L19.4688 23.3779C19.4779 23.3962 19.4824 23.4098 19.4824 23.4189C19.4824 23.4281 19.4801 23.4372 19.4756 23.4463L19.3867 23.4805L19.373 23.4668L19.3662 23.501C19.3617 23.501 19.3571 23.5033 19.3525 23.5078V23.5215L19.2979 23.5488L19.3389 23.6035C19.3252 23.6491 19.3001 23.681 19.2637 23.6992C19.25 23.7083 19.2363 23.7152 19.2227 23.7197C19.2181 23.7334 19.2113 23.7448 19.2021 23.7539L19.1611 23.7676C19.1475 23.7676 19.1292 23.763 19.1064 23.7539L19.0996 23.7607L19.0791 23.7334L19.0654 23.7949C19.0426 23.7904 19.013 23.779 18.9766 23.7607L18.9355 23.8086C18.9219 23.8086 18.9036 23.8018 18.8809 23.7881H18.8672C18.8626 23.7835 18.8558 23.779 18.8467 23.7744C18.8421 23.7699 18.8353 23.7607 18.8262 23.7471L18.833 23.7607C18.8467 23.7835 18.8535 23.8086 18.8535 23.8359L18.7578 23.8838L18.7305 23.8564L18.7168 23.8701V23.877C18.7077 23.8815 18.694 23.8861 18.6758 23.8906H18.6074Z" fill="#FAAE5D"/>
</svg>
