<svg width="20" height="20" viewBox="0 0 20 20" fill="none" xmlns="http://www.w3.org/2000/svg">
    <path d="M8.51886 10.7768C8.51886 10.1515 8.01198 9.64464 7.38665 9.64464H6.20997C5.58463 9.64464 5.07776 10.1515 5.07776 10.7768V18.6637C5.07776 19.289 5.58463 19.7959 6.20997 19.7959H7.38665C8.01198 19.7959 8.51886 19.289 8.51886 18.6637V10.7768Z" fill="#595888"/>
    <path d="M3.4411 13.5303C3.4411 12.8575 2.89568 12.3121 2.22286 12.3121H1.21823C0.545414 12.3121 0 12.8575 0 13.5303V18.5783C0 19.2511 0.545414 19.7965 1.21823 19.7965H2.22286C2.89568 19.7965 3.4411 19.2511 3.4411 18.5783V13.5303Z" fill="#595888"/>
    <path d="M13.5054 7.76517C13.5054 7.13984 12.9986 6.63297 12.3732 6.63297H11.1965C10.5712 6.63297 10.0643 7.13984 10.0643 7.76517V18.663C10.0643 19.2883 10.5712 19.7952 11.1965 19.7952H12.3732C12.9986 19.7952 13.5054 19.2883 13.5054 18.663V7.76517Z" fill="#595888"/>
    <path d="M19.8165 3.4194L17.6093 0.587889C17.4187 0.343399 17.1477 0.203175 16.8658 0.203175C16.5839 0.203175 16.3129 0.343399 16.1224 0.587889L13.9151 3.41931C13.7257 3.66217 13.6793 3.92876 13.7877 4.15063C13.9058 4.39254 14.1893 4.53689 14.5458 4.53689L15.1407 4.53853V18.6954C15.1407 19.3197 15.6493 19.7953 16.2736 19.7953H17.4582C18.0825 19.7953 18.5818 19.3197 18.5818 18.6954V4.52872L19.1804 4.53698C19.5376 4.53698 19.8237 4.39254 19.9418 4.15071C20.0502 3.92876 20.0059 3.66225 19.8165 3.4194Z" fill="#595888"/>
</svg>
