<svg width="18" height="18" viewBox="0 0 18 18" fill="none" xmlns="http://www.w3.org/2000/svg">
    <path d="M12 15.5C9.495 15.5 7.32 14.08 6.23498 12H12V9.99998H5.58502C5.535 9.675 5.50003 9.33998 5.50003 9C5.50003 8.66002 5.53505 8.325 5.58502 8.00002H12V6H6.23498C7.32 3.92002 9.48998 2.49998 12 2.49998C13.615 2.49998 15.09 3.09 16.225 4.065L18 2.30002C16.41 0.875016 14.305 0 12 0C8.085 0 4.76002 2.505 3.525 6H0V8.00002H3.06C3.02002 8.33002 3 8.66002 3 9C3 9.33998 3.02002 9.66998 3.06 9.99998H0V12H3.525C4.76002 15.495 8.085 18 12 18C14.305 18 16.41 17.125 18 15.7L16.225 13.93C15.09 14.905 13.615 15.5 12 15.5Z" fill="#595888"/>
</svg>
