<svg width="24" height="24" viewBox="0 0 24 24" fill="none" xmlns="http://www.w3.org/2000/svg">
<g clip-path="url(#clip0)">
<path d="M1.82279 8.06753C1.748 7.66666 1.71013 7.25977 1.70963 6.85198C1.7142 3.06458 4.78817 -0.00200211 8.57556 0.00256858C11.4587 0.00603427 14.0318 1.81246 15.0144 4.52298C16.7738 3.82261 18.7679 4.6811 19.4683 6.44051C19.5289 6.5928 19.5786 6.74921 19.6168 6.90858C22.4261 7.32873 24.3629 9.94674 23.9427 12.7561C23.5659 15.2756 21.4014 17.1396 18.8539 17.1386H14.5678C14.0944 17.1386 13.7106 16.7548 13.7106 16.2814C13.7106 15.8079 14.0944 15.4241 14.5678 15.4241H18.8539C20.7476 15.4241 22.2828 13.889 22.2828 11.9953C22.2828 10.1015 20.7476 8.56639 18.8539 8.56639C18.3804 8.56639 17.9967 8.1826 17.9967 7.70916C17.9951 6.76232 17.2263 5.996 16.2794 5.99756C15.8317 5.99831 15.4019 6.17421 15.0822 6.48763C14.745 6.81993 14.2022 6.81596 13.8699 6.47879C13.7452 6.35216 13.6628 6.18993 13.6344 6.01443C13.1691 3.21511 10.5226 1.32305 7.72325 1.78835C4.92393 2.25366 3.03187 4.90014 3.49717 7.69946C3.5249 7.86637 3.56091 8.03182 3.60496 8.19516C3.7035 8.55298 3.56061 8.93355 3.25091 9.13808C1.67296 10.1851 1.24256 12.313 2.2896 13.891C2.92332 14.8461 3.99231 15.4213 5.1385 15.424H7.71014C8.18359 15.424 8.56737 15.8078 8.56737 16.2813C8.56737 16.7547 8.18359 17.1385 7.71014 17.1385H5.1385C2.29794 17.1358 -0.0026226 14.8309 8.96454e-05 11.9903C0.00149727 10.4784 0.668114 9.0437 1.82279 8.06753Z" fill="#595888"/>
<path d="M6.26594 18.2472C6.59814 17.9264 7.12477 17.9264 7.45693 18.2472L10.2815 21.0701V8.5667C10.2815 8.09326 10.6653 7.70947 11.1387 7.70947C11.6121 7.70947 11.9959 8.09326 11.9959 8.5667V21.07L14.8188 18.2472C15.1593 17.9183 15.702 17.9277 16.0308 18.2682C16.3517 18.6004 16.3517 19.1271 16.0308 19.4593L11.7448 23.7453C11.4105 24.0805 10.8677 24.0812 10.5325 23.7468C10.532 23.7463 10.5315 23.7458 10.5309 23.7453L6.24489 19.4593C5.91595 19.1188 5.9254 18.5761 6.26594 18.2472Z" fill="#595888"/>
</g>
<defs>
<clipPath id="clip0">
<rect width="24" height="24" fill="white" transform="matrix(-1 0 0 1 24 0)"/>
</clipPath>
</defs>
</svg>
