<svg width="20" height="20" viewBox="0 0 20 20" fill="none" xmlns="http://www.w3.org/2000/svg">
    <path d="M18.2422 8.24219H1.75781C0.788516 8.24219 0 9.0307 0 10V13.5156C0 14.4849 0.788516 15.2734 1.75781 15.2734H4.14062V14.6875C4.14062 13.7182 4.92914 12.9297 5.89844 12.9297H14.1016C15.0709 12.9297 15.8594 13.7182 15.8594 14.6875V15.2734H18.2422C19.2115 15.2734 20 14.4849 20 13.5156V10C20 9.0307 19.2115 8.24219 18.2422 8.24219ZM12.3438 11.1719C12.0202 11.1719 11.7578 10.9095 11.7578 10.5859C11.7578 10.2623 12.0202 10 12.3438 10C12.6673 10 12.9297 10.2623 12.9297 10.5859C12.9297 10.9095 12.6673 11.1719 12.3438 11.1719ZM14.6875 11.1719C14.3639 11.1719 14.1016 10.9095 14.1016 10.5859C14.1016 10.2623 14.3639 10 14.6875 10C15.0111 10 15.2734 10.2623 15.2734 10.5859C15.2734 10.9095 15.0111 11.1719 14.6875 11.1719Z" fill="#595888"/>
    <path d="M12.9297 1.27049V3.55495H15.2141C14.9805 2.40874 14.0759 1.50409 12.9297 1.27049Z" fill="#595888"/>
    <path d="M5.3125 1.21094C4.98863 1.21094 4.72656 1.47301 4.72656 1.79688V7.07031H15.2734V4.72656H12.3438C12.0199 4.72656 11.7578 4.46449 11.7578 4.14062V1.21094H5.3125Z" fill="#595888"/>
    <path d="M14.1016 18.7891C14.4254 18.7891 14.6875 18.527 14.6875 18.2031V14.6875C14.6875 14.3636 14.4254 14.1016 14.1016 14.1016H5.89844C5.57457 14.1016 5.3125 14.3636 5.3125 14.6875V18.2031C5.3125 18.527 5.57457 18.7891 5.89844 18.7891H14.1016ZM7.65625 15.8594H12.3438C12.6676 15.8594 12.9297 16.1214 12.9297 16.4453C12.9297 16.7692 12.6676 17.0312 12.3438 17.0312H7.65625C7.33238 17.0312 7.07031 16.7692 7.07031 16.4453C7.07031 16.1214 7.33238 15.8594 7.65625 15.8594Z" fill="#595888"/>
</svg>
