<svg width="779" height="404" viewBox="0 0 779 404" fill="none" xmlns="http://www.w3.org/2000/svg">
<g filter="url(#filter0_d)">
<path d="M236.295 77.0464L184.517 25.5859L132.739 77.0464L184.517 128.507L236.295 77.0464Z" fill="#23202C" fill-opacity="0.9"/>
<path d="M236.295 189.087L184.517 137.627L132.739 189.087L184.517 240.548L236.295 189.087Z" fill="#23202C" fill-opacity="0.9"/>
<path d="M236.295 302.105L184.517 250.644L132.739 302.105L184.517 353.565L236.295 302.105Z" fill="#23202C" fill-opacity="0.9"/>
<path d="M180.257 245.433L128.151 193.647L76.0445 245.433L128.151 297.219L180.257 245.433Z" fill="#23202C" fill-opacity="0.9"/>
<path d="M180.257 133.067L128.151 184.853L76.0445 133.067L128.151 81.2805L180.257 133.067Z" fill="#23202C" fill-opacity="0.9"/>
<path d="M241.539 81.2805L189.433 133.067L241.539 184.853L293.645 133.067L241.539 81.2805Z" fill="#23202C" fill-opacity="0.9"/>
<path d="M297.25 137.627L245.471 189.087L297.25 240.548L349.028 189.087L297.25 137.627Z" fill="#23202C" fill-opacity="0.9"/>
<path d="M293.645 245.433L241.539 193.647L189.433 245.433L241.539 297.219L293.645 245.433Z" fill="#23202C" fill-opacity="0.9"/>
<path d="M71.7843 137.627L123.563 189.087L71.7843 240.548L20.0059 189.087L71.7843 137.627Z" fill="#23202C" fill-opacity="0.9"/>
<path d="M629.214 12.2341H573.503V367.246H629.214V257.811L646.255 226.219L700.328 366.921H758.005L680.337 170.198L757.677 12.2341H701.966L629.214 165.964V12.2341Z" fill="#23202C" fill-opacity="0.9"/>
<path fill-rule="evenodd" clip-rule="evenodd" d="M536.144 96.2645V282.565C536.144 312.855 526.641 371.689 453.561 371.155C367.282 370.524 367.592 298.498 367.693 274.968C367.697 274.188 367.7 273.462 367.7 272.794C367.7 272.621 410.597 272.761 419.275 272.789C420.192 272.792 420.726 272.794 420.789 272.794C420.135 293.964 421.446 320.671 449.629 320.02C477.643 319.372 479.123 299.477 480.063 286.847C480.178 285.293 480.286 283.849 480.434 282.565C481.043 277.261 480.82 255.811 480.618 236.309C480.523 227.253 480.434 218.617 480.434 212.213C476.283 222.962 460.115 244.262 428.655 243.481C390.301 242.528 379.067 218.339 376.407 212.612C376.34 212.467 376.278 212.334 376.221 212.213C376.146 212.053 376.066 211.884 375.982 211.706C373.524 206.501 367.701 194.169 367.701 171.175V89.0991C366.827 61.7404 380.153 8 452.25 8C534.178 8 536.144 79.3281 536.144 96.2645ZM480.434 89.0991C480.434 64.6065 461.645 58.9177 452.25 59.1348C429.703 59.1348 423.849 76.5054 423.74 85.1907C423.521 109.401 423.216 159.45 423.74 165.964C424.395 174.107 426.362 192.672 452.25 192.672C472.961 192.672 479.669 174.867 480.434 165.964V89.0991Z" fill="#23202C" fill-opacity="0.9"/>
</g>
<defs>
<filter id="filter0_d" x="0.00585938" y="0" width="777.999" height="403.158" filterUnits="userSpaceOnUse" color-interpolation-filters="sRGB">
<feFlood flood-opacity="0" result="BackgroundImageFix"/>
<feColorMatrix in="SourceAlpha" type="matrix" values="0 0 0 0 0 0 0 0 0 0 0 0 0 0 0 0 0 0 127 0"/>
<feOffset dy="12"/>
<feGaussianBlur stdDeviation="10"/>
<feColorMatrix type="matrix" values="0 0 0 0 0 0 0 0 0 0 0 0 0 0 0 0 0 0 0.25 0"/>
<feBlend mode="normal" in2="BackgroundImageFix" result="effect1_dropShadow"/>
<feBlend mode="normal" in="SourceGraphic" in2="effect1_dropShadow" result="shape"/>
</filter>
</defs>
</svg>
