<svg width="28" height="28" viewBox="0 0 28 28" fill="none" xmlns="http://www.w3.org/2000/svg">
<g clip-path="url(#clip0)">
<path d="M13.2932 0.229515C11.1265 0.255671 6.46812 0.611733 3.86262 3.00208C1.92453 4.92245 1.24784 7.76167 1.16853 11.2725C1.10272 14.7707 1.02341 21.3401 7.35575 23.1289V25.8534C7.35575 25.8534 7.31609 26.9435 8.03666 27.1671C8.92428 27.448 9.42969 26.6094 10.2734 25.7082L11.847 23.9288C16.1797 24.289 19.4982 23.4588 19.8804 23.3356C20.7596 23.0546 25.7115 22.4218 26.5207 15.8515C27.3509 9.06611 26.1165 4.79083 23.8882 2.85695H23.8747C23.2022 2.23764 20.4997 0.268327 14.4618 0.24639C14.4618 0.24639 14.0138 0.216015 13.2932 0.228671V0.229515ZM13.3675 2.13723C13.9826 2.13301 14.3563 2.15917 14.3563 2.15917C19.4669 2.17267 21.9062 3.71083 22.4817 4.22889C24.3582 5.83708 25.3251 9.69133 24.6172 15.3563C23.9447 20.8491 19.9285 21.1967 19.1851 21.4338C18.8687 21.535 15.946 22.2556 12.2638 22.0185C12.2638 22.0185 9.52166 25.3277 8.66441 26.1799C8.52856 26.3292 8.36994 26.3731 8.26869 26.3512C8.12356 26.3157 8.07969 26.136 8.08812 25.8896L8.11428 21.368C2.74381 19.883 3.06022 14.2796 3.11759 11.3527C3.18341 8.4257 3.73269 6.03114 5.36787 4.40945C7.56922 2.41905 11.5247 2.15073 13.3658 2.13723H13.3675ZM13.7725 5.06336C13.7283 5.06291 13.6844 5.07122 13.6434 5.0878C13.6025 5.10438 13.5652 5.12891 13.5337 5.15997C13.5023 5.19103 13.4773 5.22801 13.4602 5.26877C13.4431 5.30954 13.4342 5.35328 13.4341 5.39748C13.4341 5.58648 13.5877 5.73583 13.7725 5.73583C14.609 5.71992 15.4405 5.86979 16.2189 6.17679C16.9973 6.4838 17.7071 6.94187 18.3076 7.52458C19.5336 8.71511 20.131 10.3149 20.1537 12.4065C20.1537 12.5913 20.3031 12.7449 20.4921 12.7449V12.7314C20.5812 12.7316 20.6667 12.6966 20.7301 12.634C20.7935 12.5714 20.8295 12.4863 20.8304 12.3972C20.8714 11.4127 20.7117 10.4301 20.3612 9.50922C20.0106 8.58831 19.4764 7.74831 18.7911 7.04026C17.4554 5.73498 15.7629 5.06251 13.7725 5.06251V5.06336ZM9.32506 5.83708C9.08624 5.80218 8.84266 5.85012 8.63487 5.97292H8.61716C8.13475 6.25569 7.70018 6.61309 7.32959 7.03183C7.02162 7.38789 6.85456 7.74817 6.81069 8.09495C6.78453 8.30167 6.80225 8.50839 6.86384 8.70583L6.88578 8.71933C7.23256 9.73858 7.68566 10.719 8.23916 11.6421C8.95214 12.9389 9.82958 14.1382 10.8497 15.2103L10.8801 15.2542L10.9282 15.2896L10.9586 15.325L10.994 15.3554C12.07 16.3785 13.2722 17.2601 14.5715 17.9786C16.0565 18.787 16.9576 19.1692 17.4985 19.3278V19.3362C17.6571 19.3843 17.8014 19.4063 17.9465 19.4063C18.4074 19.3725 18.8438 19.1854 19.186 18.8747C19.6028 18.504 19.9562 18.0677 20.2322 17.5829V17.5745C20.4912 17.0868 20.4035 16.6253 20.0297 16.3131C19.2812 15.6587 18.4717 15.0776 17.6124 14.5775C17.0369 14.2653 16.4522 14.4543 16.2151 14.7707L15.7097 15.4077C15.4507 15.7241 14.9799 15.6803 14.9799 15.6803L14.9664 15.6887C11.4555 14.7918 10.519 11.2371 10.519 11.2371C10.519 11.2371 10.4751 10.7536 10.7999 10.5072L11.4327 9.99761C11.7357 9.75123 11.9466 9.16736 11.6217 8.59108C11.1251 7.73058 10.5452 6.92092 9.89037 6.17373C9.74722 5.99758 9.54638 5.87774 9.32337 5.83539L9.32506 5.83708ZM14.3563 6.83945C13.9083 6.83945 13.9083 7.51614 14.3606 7.51614C14.9177 7.52518 15.4675 7.64391 15.9787 7.86556C16.4899 8.08722 16.9525 8.40744 17.3398 8.80792C17.6932 9.19774 17.9648 9.65452 18.1384 10.1512C18.312 10.6479 18.3842 11.1744 18.3507 11.6995C18.3522 11.7883 18.3885 11.873 18.4517 11.9355C18.5149 11.9979 18.6001 12.0331 18.689 12.0336L18.7025 12.0513C18.792 12.0506 18.8777 12.0148 18.941 11.9515C19.0043 11.8882 19.0402 11.8025 19.0408 11.713C19.0712 10.3722 18.6544 9.24751 17.8368 8.34639C17.015 7.44526 15.8683 6.93986 14.4044 6.83945H14.3563ZM14.9107 8.65858C14.4492 8.64508 14.4314 9.33527 14.8887 9.34876C16.0008 9.40614 16.5408 9.96808 16.6117 11.124C16.6132 11.2118 16.6491 11.2954 16.7115 11.3571C16.774 11.4187 16.8581 11.4535 16.9458 11.4539H16.9593C17.0044 11.452 17.0487 11.4411 17.0896 11.4219C17.1304 11.4026 17.167 11.3754 17.1973 11.3419C17.2275 11.3084 17.2508 11.2691 17.2657 11.2265C17.2806 11.1839 17.2869 11.1387 17.2842 11.0936C17.2048 9.5867 16.383 8.73789 14.9242 8.65942H14.9107V8.65858Z" fill="white"/>
</g>
<defs>
<clipPath id="clip0">
<rect width="27" height="27" fill="white" transform="translate(0.469727 0.225586)"/>
</clipPath>
</defs>
</svg>
