<svg width="28" height="18" viewBox="0 0 28 18" fill="none" xmlns="http://www.w3.org/2000/svg">
<path fill-rule="evenodd" clip-rule="evenodd" d="M27.3583 1.93998C27.552 1.30298 27.3583 0.833984 26.4308 0.833984H23.3683C22.589 0.833984 22.2297 1.23882 22.0348 1.68565C22.0348 1.68565 20.4773 5.41432 18.2712 7.83632C17.5572 8.53865 17.2328 8.76149 16.8432 8.76149C16.6483 8.76149 16.3555 8.53865 16.3555 7.90049V1.93998C16.3555 1.17465 16.1408 0.833984 15.4922 0.833984H10.6762C10.1897 0.833984 9.89683 1.18865 9.89683 1.52582C9.89683 2.25032 11.0005 2.41832 11.1137 4.45765V8.88865C11.1137 9.86049 10.9352 10.0367 10.5455 10.0367C9.50717 10.0367 6.98133 6.29048 5.48217 2.00415C5.19167 1.16998 4.89767 0.833984 4.11483 0.833984H1.05C0.175 0.833984 0 1.23882 0 1.68565C0 2.48132 1.03833 6.43399 4.83583 11.6618C7.3675 15.2318 10.9317 17.1673 14.1785 17.1673C16.1257 17.1673 16.366 16.738 16.366 15.9972V13.2987C16.366 12.4388 16.5503 12.2673 17.1675 12.2673C17.6225 12.2673 18.4007 12.4913 20.2183 14.2122C22.295 16.2527 22.6368 17.1673 23.8058 17.1673H26.8683C27.7433 17.1673 28.182 16.738 27.93 15.8887C27.6523 15.044 26.6607 13.8178 25.3458 12.363C24.6318 11.5347 23.5608 10.6422 23.2353 10.1953C22.7815 9.62249 22.911 9.36699 23.2353 8.85715C23.2353 8.85715 26.9687 3.69348 27.3572 1.93998H27.3583Z" fill="#888888"/>
</svg>
