<svg width="101" height="27" fill="none" xmlns="http://www.w3.org/2000/svg"><path d="M96.69 14.08c.85-1.75 2.62-3.2 3.79-5.08-.44-.94-.44-.94-1.78-1.47-1.14.23-2.3.47-3.46.7-.32-.11-.62-.21-1-.34-.78.7-1.79.48-2.72.58-.2-.15-.37-.28-.53-.41-.3.17-.57.33-.8.46-.56 0-1.05-.01-1.53-.01-.85 0-1.7.03-2.55 0-.92-.03-1.85-.1-2.77-.15-1.41-.07-2.8-.19-4.23-.13-1.67.07-3.35-.07-5.04-.06-2.22.02-4.43-.37-6.67-.15-.48.05-.98-.06-1.46-.08-.54-.03-1.09-.04-1.63-.06-.49-.02-.99-.1-1.46-.02-.53.1-.99-.28-1.56-.03-.41.18-.96-.01-1.45 0-.54.01-1.08.06-1.62.08-.65.02-1.3.09-1.94-.27-1.01.64-2.19.28-3.29.46-.08-.24-.15-.48-.25-.78-.41.32-.75.58-1.14.89-.53-.26-1.09.26-1.61-.04-.24-.25.37-.48-.13-.74-.41.28-.86.57-1.26.84-.51-.01-.94-.04-1.38-.01-1.18.07-2.37.21-3.55.23-1.08.01-2.17-.06-3.25.08-.37.05-.77-.02-1.13-.12-.27-.07-.51-.03-.77-.02-1.3.05-2.6.05-3.9.04-1.19-.01-2.37-.05-3.59-.07-.07-.25-.16-.55-.25-.89-.41.04-.76.08-1.16.12-.1-.21-.28-.41-.26-.59.06-.7.1-1.41.3-2.07.11-.36.24-.7.27-1.08.03-.32.1-.64.17-.95.13-.57.27-1.15.42-1.79.14-.26.59-.4.56-.86-.15-.29-.41-.32-.77-.24-.91.94-2.14 1.53-3.32 2.2-1.22.69-2.34 1.57-3.61 2.08-.23-.07-.38-.11-.55-.16-.18.18-.38.36-.43.42-1.21.52-2.25.97-3.29 1.43-.49.22-.96.47-1.5.59-.56.13-1.07.51-1.62.69-.98.32-1.97.59-2.96.86-.58.15-1.09.41-1.47.8-.28-.11-.48-.19-.6-.23-1.15.38-2.24.69-3.3 1.1-1.71.67-3.62.74-5.22 1.75-.74.1-1.26.59-1.84.95v.78a8.7 8.7 0 00-.6.61c.2.19.35.33.5.46.57-.15 1.09-.29 1.59-.43.88.46 1.65 1.11 2.69 1.17.15.01.29.13.44.21.96.5 1.94.97 2.89 1.47 1.11.59 2.27.99 3.43 1.43.96.37 1.93.73 2.83 1.22 1.14.63 2.33 1.11 3.56 1.55 1.62.58 3.29 1.11 4.66 2.16.13.28.25.52.37.79.32.04.64.08 1.02.13.2.17.44.38.65.56-.1.38-.17.69-.26 1.02.18.17.33.31.51.49.32-.09.62-.17.93-.25.31-.67.6-1.31.82-1.8-.02-.62-.12-1.12-.02-1.57.41-1.79.95-3.56 1.04-5.41 0-.1.08-.2.16-.36.15-.05.34-.17.54-.18 1.62-.02 3.25-.03 4.87-.03.22 0 .45.06.65.01.97-.26 1.95-.11 2.92-.05 1.63.11 3.26.25 4.88.37.38.03.78.13 1.14.05 1.14-.22 2.28-.04 3.41-.03.32 0 .65-.01.97-.02.65-.02 1.3-.05 1.95-.07 1.19-.04 2.38-.07 3.56-.13 1.13-.06 2.26-.18 3.39-.25 1.19-.07 2.39-.01 3.57-.17.87-.12 1.73-.08 2.59-.15 1.89-.15 3.78-.34 5.67-.15.27.03.56.09.81.04 1.2-.25 2.39-.03 3.57.06 2.49.19 4.98.24 7.48.17.16 0 .32-.02.48-.04 1.62-.16 3.23-.3 4.86-.2 1.13.07 2.26.24 3.4 0 .41-.09.87.01 1.3.03.33.01.65.06.98.04 1.83-.13 3.67-.23 5.51-.22.1 0 .2-.06.3-.09.49-.49-.19-.93.08-1.67zm1.77-5.43l.09.05h-.1l.01-.05zm-.61 1.44c.05-.03.17.06.4.16-.45.46-.82.79-1.36 1.06.32-.79.39-.88.96-1.22zM4 13.31c.13-.22.3-.31.61.03-.26-.01-.44-.02-.61-.03zm66.14-4.26c-.38.17-.63.17-.9-.07.3.03.55.04.9.07zm-19.2 1.15c.42-.02.79-.06 1.16-.05.37.01.74.06 1.03.09.24.33.07.49-.07.64-.44.47-.89.94-1.34 1.41-.19.19-.38.39-.59.55-.56.41-1.14.81-1.9 1.35-.42-.05-.89-.11-1.36-.17.04-.19.02-.32.08-.39.99-1.15 1.98-2.29 2.99-3.43zm-2.76 4.79c-.46.01-.7.01-1.08.01.4-.23.4-.23 1.08-.01zm-.8-4.8c.76.03 1.46.05 2.13.07.19.46-.13.7-.3.88-.82.86-1.67 1.69-2.54 2.51-.71.67-1.52.69-2.45.31.86-1.4 2.16-2.34 3.16-3.77zm-7.8.31c.03-.06.07-.11.1-.17.13.2 0 .17-.1.17zM29.26 2.34c-.14.19-.24.32-.36.49-.17-.44-.17-.44.36-.49zm-3.54 2.52c.47-.28.88-.48 1.5-.54-.55.72-1.04 1.24-2.09 1.57.31-.54.46-.81.59-1.03zm-4.5 1.96c.95-.4 1.83-.78 2.72-1.16.03.16.08.28.05.32-.99 1.19-2.31 1.83-3.85 2.15.37-.45.74-.9 1.08-1.31zm-2.18 1.07c-.06.3-.03.49-.11.57-.41.41-.88.69-1.49.65.36-.55 1.02-.69 1.6-1.22zm-1.73 1.3c-.03.05-.05.1-.08.15l-.09-.09c.05-.02.11-.04.17-.06zm-1.08 1.35c-.09.03-.17.06-.25.09.01-.13.05-.24.25-.09zm-8 3.75c-.66.08-1.09-.23-1.65-.63.52-.51.98-.84 1.63-1 .25.12.51.28.8.38.23.08.49.1.8.16-.45.66-1.14.74-1.58 1.09zm1.56.47c0-.19-.04-.32.01-.38.84-1.08 1.93-1.89 3.01-2.68.81-.59 1.82-.92 2.84-1.07.08-.01.16.02.25.04-.13.14-.26.28-.38.42-.22.26-.43.52-.65.78-.64-.06-1.1.29-1.56.68-.91.76-1.83 1.51-2.78 2.3l-.74-.09zm1.59.68c.39-.64 1.01-1.01 1.52-1.47.71-.64 1.44-1.24 1.96-2.05.24-.08.51-.11.71-.26.74-.55 1.44-1.14 2.21-1.76.81-.4 1.72-.65 2.73-.67-.87.68-1.77 1.34-2.61 2.06-.85.74-1.64 1.56-2.46 2.34-.82.78-1.64 1.57-2.46 2.36-.63.09-1.18.03-1.6-.55zm3.26 1.59c-.22-.12-.41-.22-.59-.32 0-.11-.05-.24 0-.3 1.23-1.38 2.4-2.81 3.72-4.1 1.36-1.33 2.87-2.51 4.31-3.75.53-.46 1.1-.84 1.85-.84.01.16.06.3.01.34-.43.41-.87.8-1.31 1.2-.12.11-.27.19-.37.31-1.09 1.28-2.36 2.4-3.46 3.67-.98 1.14-2.11 2.17-3.2 3.22-.26.25-.64.38-.96.57zm1.47.44c.72-.86 1.37-1.66 2.04-2.44.95-1.11 1.93-2.2 2.86-3.33 1.07-1.31 2.37-2.37 3.55-3.57.38-.38.77-.75 1.15-1.13.31-.3.62-.59 1.02-.69.1.09.17.13.17.16-.08.42-.18.84-.28 1.33-.17.19-.36.47-.61.67-.43.34-.76.72-.83 1.27a.68.68 0 00-.68.25c-1.02 1.26-2.05 2.51-3.06 3.78-1.13 1.44-2.28 2.86-3.51 4.17-.71.11-1.18-.31-1.82-.47zm2.9.76c.36-.55.72-1.08 1.05-1.62 1.24-1.99 2.67-3.82 4.2-5.59.35-.4.64-.86.95-1.29.35-.28.7-.56 1.13-.9.1.33.18.6.28.91.27.11.55.23.83.35-.01.64-.37 1.06-.7 1.48-.92 1.14-1.84 2.27-2.8 3.38-.95 1.11-1.94 2.2-2.91 3.29-.11.12-.26.19-.41.3-.53.04-1.07.1-1.62-.31zm1.9 2.05c1.01-.21 1.63.24 2.13 1.11-.97.01-1.43-.23-2.13-1.11zm3.99 2.45c-.44-.01-.71-.25-1.09-.65.24-.25.41-.43.63-.65.24.35.45.65.67.96-.08.13-.15.24-.21.34zm-1.02-2.75l.03-.36c.04 0 .08.01.12.01-.02.12-.03.24-.05.36-.04-.01-.07-.01-.1-.01zm1.15.44c.14-.47.17-.59.21-.71.02.04.07.09.06.13-.03.08-.08.16-.27.58zm2.8-4.91c-.03-.17-.06-.31-.09-.49.16-.04.29-.08.53-.14v.5c-.13.03-.27.07-.44.13zm.23-2.06c-.65.01-1.27.15-1.88.62-.25.89-1.07 1.63-1.22 2.68-.67 1-1.38 1.94-2.41 2.57-.3.04-.57.07-.73-.37.47-.76.92-1.61 1.55-2.35.77-.91 1.54-1.82 2.29-2.74.82-1.01 1.62-2.03 2.44-3.04.2-.25.44-.47.74-.79.68.06 1.27.05 1.88.31-.29.75-1 1.05-1.39 1.62-.37.51-.83.97-1.27 1.49zm.46.5c.95-1.41 2-2.52 2.93-3.61.6-.12 1.06-.07 1.5.17-.44.69-1.99 2.32-3.27 3.43-.29 0-.65 0-1.16.01zm1.53 1.55c.05-.13.08-.22.14-.38.32.03.67.05 1.11.09-.4.56-.79.54-1.25.29zm3.06.01c-.09 0-.19 0-.28-.01-.03 0-.04-.06-.07-.1.09-.02.19-.05.29-.06.04 0 .08.06.12.09-.03.03-.05.08-.06.08zm-1.24-1.37c-.21-.03-.37-.05-.54-.08-.01-.1-.06-.21-.02-.28.69-1.25 1.74-2.19 2.69-3.27.82-.05 1.46-.09 2.23.18-1.68 1.02-2.78 2.56-4.36 3.45zm4.18-.08c-1.22.05-1.22.05-2.02-.26 1.06-1.24 2.18-2.38 3.42-3.38.72-.09 1.4-.03 2.08.11-.02.15-.01.34-.09.42-1.15 1.07-2.3 2.12-3.39 3.11zm1.8-.05c.01-.14-.02-.27.03-.32 1.12-1.09 2.09-2.34 3.38-3.33.35.03.71.05 1.08.08 0 .13.04.26-.01.31-.91 1.06-1.83 2.12-2.74 3.17-.58.25-1.15.23-1.74.09zm5.73-3.56c1.24-.28 1.24-.28 2.66.04-1.15 1.13-2.09 2.44-3.33 3.53-.67.38-1.41.28-2.19.08.69-1.5 2.1-2.37 2.86-3.65zm2.31 5.8c-.96-.06-1.93-.13-2.91.02-.68.1-1.39-.01-2.07-.31.95-.07 1.89-.18 2.84-.19.92-.01 1.86.24 2.75.1 1-.15 1.93.02 2.92.16-1.17.02-2.33.3-3.53.22zm5.36-.97c-.36-.03-.72-.06-1.32-.1.64-.64 1.13-.45 1.7-.33-.16.17-.26.28-.38.43zm1.2-.92c-.46.04-.93.09-1.36-.18.04-.14.04-.27.1-.33 1.07-1.14 2.14-2.28 3.16-3.36.73-.35 1.39-.4 2.1-.16-.63 1.05-2.5 2.92-4 4.03zm.96.68c.57-.06 1.14-.1 1.94.16-.83.12-1.39-.01-1.94-.16zm2.48-.71c-.37.06-.74.11-1.15.18-.17-.09-.36-.18-.56-.28.02-.11.01-.23.06-.28 1.09-1.2 2.19-2.39 3.32-3.61.61-.06 1.25-.07 1.92.15-1.1 1.42-2.22 2.74-3.59 3.84zm.9 1.05c-.04 0-.08-.06-.12-.09.02-.03.04-.09.06-.09.1 0 .2 0 .29.02.03.01.04.06.06.1-.09.02-.19.06-.29.06zm2.15-.14c-.31-.02-.61-.05-.92-.07 0-.05-.01-.09-.01-.14.16-.02.32-.06.48-.05.15.01.31.06.46.09 0 .06 0 .11-.01.17zm-1.6-.93c1.07-1.33 2.12-2.62 3.14-3.89.49-.29.98-.12 1.46-.1.48.02.96.07 1.5.11-.04.23-.02.41-.1.5-1.07 1.13-2.15 2.25-3.26 3.39-.9.01-1.77.51-2.74-.01zm4.64.2c-.24-.04-.48-.09-.77-.14.18-.66.71-.91 1.06-1.31.39-.45.83-.86 1.23-1.29.37-.4.72-.8 1.11-1.24.42.03.84.06 1.39.11-1.16 1.56-2.5 2.76-4.02 3.87zm4.04-.14c-.71.14-1.4.55-2.24.12.37-.84 1.08-1.35 1.64-1.98.57-.65 1.12-1.31 1.72-2.03.55 0 1.14-.03 1.72-.01.53.02 1.06.09 1.7.15-.61.94-1.5 1.35-2.24 1.94-.75.61-1.52 1.2-2.3 1.81zm2.53.3c-.34-.01-.66-.01-.98-.02 0-.15-.04-.28 0-.32.23-.23.47-.45.72-.65 1.2-1.01 2.39-2.02 3.37-3.16.58-.09 1.06-.08 1.52.06.01.13.05.28.01.32-.99.92-1.97 1.86-3 2.73-.49.42-1.09.7-1.64 1.04zm2.92-.07c-.23-.03-.38-.06-.56-.08.01-.11-.02-.22.03-.27.98-1.08 1.96-2.15 2.96-3.21.25-.27.58-.46.84-.66.39.03.71.05 1.01.08.03.15.08.25.06.34-.02.1-.09.2-.17.27-1.4 1.18-2.8 2.36-4.17 3.53zm2.95-.18c-.42.03-.84-.05-1.35-.09 1.48-1.38 2.89-2.7 4.37-4.08.54.01 1.13.02 1.72.05.09 0 .18.1.31.18-1.13 1.31-2.35 2.52-3.56 3.69-.54.09-1.01.22-1.49.25zm4.94-.69c-.41.37-.9.6-1.45.67-.2.02-.41-.07-.6-.11.01-.17-.02-.31.04-.37 1.16-1.19 2.12-2.58 3.45-3.7.7-.1 1.27-.05 1.86.1-.9 1.4-2.14 2.37-3.3 3.41zm.92.47c.38-.91 1.22-1.32 1.72-2.01.5-.69.9-1.46 1.6-2.12.75.02 1.54.05 2.3.08.18.34-.06.44-.18.58-1.1 1.36-2.58 2.27-3.98 3.26-.4.28-.86.49-1.46.21zm3.89.04c-.28.08-.62-.03-1.09-.06.75-.77 1.53-1.28 2.18-1.9.66-.63 1.27-1.31 1.89-1.96.51-.06.98-.12 1.42.18-.85 1.32-2.11 2.19-3.25 3.18-.32.27-.75.45-1.15.56zm3.64 0c-.5-.04-.98-.08-1.56-.12.42-.78 1.1-1.2 1.61-1.77.54-.6 1.1-1.18 1.69-1.81.47-.06 1.01-.07 1.51-.21.5-.14.94-.02 1.45.02-.07.16-.08.28-.15.33-1.47 1.16-2.95 2.32-4.55 3.56zm1.97-.3c1.29-1.38 2.79-2.42 4.36-3.39h.37c-1.21 1.11-2.41 2.24-3.64 3.34-.29.26-.67.31-1.09.05zm6.07-.23c-.1.06-.24.05-.49.08.2-.2.31-.29.49-.47.01.2.05.36 0 .39zm-2.43-.01c-.2-.03-.44-.06-.67-.09.18-.24.34-.49.55-.71.92-.95 1.85-1.9 2.83-2.89.05.23.08.38.12.55-.93 1.04-1.86 2.06-2.83 3.14z" fill="#CED0D1"/></svg>