<svg width="9" height="8" fill="none" xmlns="http://www.w3.org/2000/svg"><path d="M8.23 3.65c.26 1.11-.36 1.69-1.04 2.28-.16.06-.35.12-.5.18-.33.31-.63.59-.92.86-.55.3-1.17.3-1.75.41-.06.01-.12.03-.17.02-.59-.13-1.2-.15-1.76-.44C1.21 6.5.75 5.42.98 4.34c.12-.56.36-1.03.81-1.41.2-.16.38-.37.51-.59.36-.57.8-.99 1.51-1.07.14-.01.28-.08.4-.16.83-.56 1.65-.4 2.49-.02.08.04.16.08.23.12.32.17.56.4.66.77.1.33.22.66.35.98.09.25.2.49.29.69zm-3.8 1.49c-.14 0-.3-.03-.36.17-.15-.01-.28.02-.35.18-.14.02-.3-.02-.35.18-.09.01-.21-.04-.25.1.13.04.23.05.23-.12.14 0 .32.06.35-.18.14 0 .34.09.35-.17.15.01.3.03.35-.17.05-.02.1-.04.15-.07a.265.265 0 00-.06-.05c-.02.04-.04.08-.06.13zm.15-3.71c.1-.01.2-.02.34-.04-.17-.13-.25-.08-.31.06-.04.02-.07.05-.09.06 0-.01.03-.04.06-.08zm2.1 2.98c.18-.17.18-.17.05-.46-.01.2-.02.34-.03.48-.03.03-.06.05-.07.06.01 0 .03-.04.05-.08zM3.55 3.39c-.38-.06-.55.27-.81.39-.11.26-.34.46-.2.74l.54-.63c.15-.17.3-.35.44-.53.05-.02.1-.05.14-.07-.02-.02-.04-.03-.06-.05-.01.06-.03.11-.05.15zm.86 1.03c.41-.12.71-.36.83-.77-.06-.2-.11-.39-.17-.58-.07-.05-.15-.09-.22-.14-.07.06-.13.11-.22.18-.07.43-.14.88-.21 1.33-.06.01-.19-.02-.09.12.03-.05.05-.1.08-.14zm-.48-.82c-.84.49-1.19.96-1.1 1.51.35-.17.6-.45.85-.72.12-.13.23-.26.31-.41.07-.13.1-.28-.06-.38zm1.8-.72c-.15-.01-.25.04-.2.18.04.11.15.15.27.03-.02-.07-.05-.14-.07-.21zm2.29 1.64c.01-.16.12-.34-.03-.52-.1.18-.13.34.03.52zM3.63 6.58v.05h.21v-.05h-.21zm2.06-2.41h.06c0-.07.01-.13.01-.2h-.07c.01.07 0 .14 0 .2zM5.08 5.4c-.02-.02-.03-.05-.05-.05-.02 0-.04.03-.06.04.02.02.03.05.05.05.02 0 .04-.02.06-.04z" fill="#CED0D1"/></svg>