<svg width="102" height="27" viewBox="0 0 102 27" fill="none" xmlns="http://www.w3.org/2000/svg">
<path d="M4.58996 15.73C4.68996 15.76 4.78996 15.82 4.88996 15.82C6.72996 15.81 8.55996 15.91 10.4 16.04C10.72 16.06 11.05 16.01 11.38 16C11.81 15.98 12.27 15.88 12.68 15.97C13.82 16.21 14.95 16.04 16.08 15.97C17.71 15.87 19.33 16 20.94 16.17C21.1 16.19 21.26 16.21 21.42 16.21C23.92 16.29 26.41 16.24 28.9 16.04C30.09 15.95 31.27 15.73 32.47 15.98C32.73 16.03 33.01 15.97 33.28 15.94C35.18 15.74 37.07 15.94 38.95 16.09C39.81 16.16 40.67 16.12 41.54 16.24C42.71 16.4 43.92 16.34 45.11 16.41C46.24 16.47 47.37 16.6 48.5 16.66C49.69 16.72 50.88 16.75 52.06 16.79C52.71 16.81 53.36 16.84 54.01 16.86C54.33 16.87 54.66 16.89 54.98 16.88C56.12 16.87 57.25 16.69 58.39 16.91C58.75 16.98 59.15 16.88 59.53 16.86C61.16 16.74 62.78 16.6 64.41 16.49C65.38 16.43 66.36 16.28 67.33 16.54C67.53 16.59 67.76 16.53 67.98 16.53C69.6 16.54 71.23 16.54 72.85 16.56C73.05 16.56 73.25 16.69 73.39 16.74C73.47 16.91 73.55 17.01 73.55 17.1C73.64 18.95 74.18 20.72 74.59 22.51C74.69 22.96 74.58 23.46 74.57 24.08C74.79 24.57 75.08 25.21 75.39 25.88C75.69 25.96 76 26.05 76.32 26.13C76.5 25.95 76.65 25.81 76.83 25.64C76.75 25.31 76.67 25.01 76.57 24.62C76.78 24.44 77.02 24.23 77.22 24.06C77.6 24.01 77.92 23.97 78.24 23.93C78.37 23.66 78.48 23.42 78.61 23.14C79.99 22.09 81.65 21.56 83.27 20.98C84.5 20.54 85.69 20.06 86.83 19.43C87.73 18.94 88.7 18.57 89.66 18.21C90.82 17.77 91.98 17.36 93.09 16.78C94.04 16.28 95.02 15.8 95.98 15.31C96.12 15.24 96.27 15.11 96.42 15.1C97.45 15.04 98.23 14.4 99.11 13.93C99.61 14.07 100.13 14.21 100.7 14.36C100.84 14.23 100.99 14.09 101.2 13.9C100.98 13.67 100.81 13.48 100.6 13.26C100.6 13.04 100.6 12.78 100.6 12.48C100.02 12.12 99.5 11.63 98.76 11.53C97.16 10.53 95.25 10.45 93.54 9.77999C92.48 9.36999 91.39 9.05999 90.24 8.67999C90.12 8.72999 89.92 8.79999 89.64 8.90999C89.25 8.51999 88.74 8.25999 88.17 8.10999C87.18 7.84999 86.18 7.57999 85.21 7.24999C84.65 7.06999 84.15 6.67999 83.59 6.55999C83.04 6.43999 82.58 6.18999 82.09 5.96999C81.05 5.50999 80.01 5.05999 78.8 4.53999C78.75 4.48999 78.55 4.29999 78.37 4.11999C78.2 4.16999 78.05 4.20999 77.82 4.27999C76.55 3.76999 75.43 2.88999 74.21 2.19999C73.03 1.53999 71.8 0.939988 70.89 -1.21742e-05C70.52 -0.0800122 70.27 -0.0600122 70.12 0.239988C70.09 0.689988 70.54 0.839988 70.68 1.09999C70.83 1.73999 70.97 2.31999 71.1 2.88999C71.17 3.20999 71.24 3.51999 71.27 3.83999C71.3 4.21999 71.44 4.55999 71.54 4.91999C71.74 5.57999 71.79 6.28999 71.84 6.98999C71.85 7.16999 71.68 7.36999 71.58 7.57999C71.19 7.53999 70.83 7.49999 70.42 7.45999C70.32 7.79999 70.24 8.09999 70.17 8.34999C68.96 8.37999 67.77 8.41999 66.58 8.41999C65.28 8.42999 63.98 8.42999 62.68 8.37999C62.42 8.36999 62.18 8.32999 61.91 8.39999C61.55 8.49999 61.15 8.56999 60.78 8.51999C59.7 8.37999 58.61 8.45999 57.53 8.43999C56.35 8.42999 55.16 8.27999 53.98 8.20999C53.55 8.18999 53.11 8.21999 52.6 8.21999C52.2 7.94999 51.76 7.65999 51.34 7.37999C50.84 7.62999 51.45 7.85999 51.21 8.11999C50.69 8.41999 50.13 7.90999 49.6 8.15999C49.21 7.84999 48.87 7.58999 48.46 7.26999C48.36 7.57999 48.29 7.80999 48.21 8.04999C47.11 7.85999 45.93 8.22999 44.92 7.58999C44.28 7.94999 43.62 7.87999 42.98 7.85999C42.44 7.83999 41.9 7.78999 41.36 7.77999C40.87 7.76999 40.32 7.94999 39.91 7.77999C39.34 7.52999 38.87 7.89999 38.35 7.80999C37.88 7.71999 37.38 7.80999 36.89 7.82999C36.35 7.84999 35.8 7.85999 35.26 7.88999C34.77 7.90999 34.28 8.01999 33.8 7.96999C31.57 7.74999 29.35 8.13999 27.13 8.11999C25.45 8.10999 23.76 8.24999 22.09 8.17999C20.67 8.11999 19.27 8.23999 17.86 8.30999C16.94 8.35999 16.01 8.42999 15.09 8.45999C14.24 8.47999 13.39 8.45999 12.54 8.45999C12.05 8.45999 11.56 8.45999 11.01 8.46999C10.78 8.33999 10.5 8.17999 10.21 8.00999C10.05 8.13999 9.87996 8.25999 9.67996 8.41999C8.75996 8.31999 7.74996 8.53999 6.95996 7.83999C6.57996 7.96999 6.26996 8.06999 5.95996 8.17999C4.79996 7.94999 3.63996 7.70999 2.48996 7.47999C1.15996 8.00999 1.15996 8.00999 0.709961 8.94999C1.88996 10.82 3.65996 12.27 4.49996 14.03C4.79996 14.82 4.10996 15.26 4.58996 15.73ZM2.76996 8.70999H2.66996L2.75996 8.65999L2.76996 8.70999ZM4.32996 11.32C3.78996 11.05 3.41996 10.72 2.96996 10.26C3.19996 10.16 3.31996 10.07 3.36996 10.1C3.93996 10.43 3.99996 10.52 4.32996 11.32ZM96.6 13.34C96.92 13 97.08 13.09 97.21 13.31C97.04 13.32 96.86 13.33 96.6 13.34ZM31.97 8.97999C31.7 9.21999 31.45 9.21999 31.07 9.04999C31.43 9.01999 31.67 9.00999 31.97 8.97999ZM53.26 13.62C53.32 13.69 53.31 13.82 53.34 14.01C52.87 14.07 52.4 14.13 51.98 14.18C51.22 13.64 50.64 13.25 50.08 12.83C49.86 12.67 49.67 12.47 49.49 12.28C49.04 11.82 48.59 11.35 48.15 10.87C48.01 10.72 47.85 10.56 48.08 10.23C48.38 10.2 48.74 10.15 49.11 10.14C49.48 10.13 49.85 10.17 50.27 10.19C51.28 11.34 52.28 12.48 53.26 13.62ZM54.12 15C53.74 14.99 53.5 14.99 53.04 14.98C53.71 14.77 53.71 14.77 54.12 15ZM57 13.96C56.06 14.35 55.25 14.32 54.55 13.65C53.68 12.83 52.83 12.01 52.01 11.14C51.83 10.95 51.52 10.72 51.71 10.26C52.38 10.24 53.08 10.21 53.84 10.19C54.83 11.62 56.14 12.56 57 13.96ZM61.53 10.33C61.56 10.39 61.6 10.44 61.63 10.5C61.54 10.5 61.41 10.53 61.53 10.33ZM72.31 2.82999C72.18 2.65999 72.08 2.52999 71.95 2.33999C72.48 2.38999 72.48 2.38999 72.31 2.82999ZM76.08 5.87999C75.03 5.54999 74.54 5.03999 73.99 4.30999C74.61 4.36999 75.02 4.56999 75.49 4.84999C75.62 5.07999 75.78 5.34999 76.08 5.87999ZM81.08 8.12999C79.54 7.80999 78.21 7.16999 77.23 5.97999C77.2 5.93999 77.25 5.81999 77.28 5.65999C78.17 6.03999 79.05 6.40999 80 6.81999C80.33 7.22999 80.71 7.67999 81.08 8.12999ZM83.77 9.09999C83.17 9.13999 82.69 8.86999 82.28 8.44999C82.2 8.36999 82.22 8.18999 82.17 7.87999C82.75 8.41999 83.41 8.55999 83.77 9.09999ZM84.08 9.24999C84.05 9.27999 84.02 9.30999 83.99 9.33999C83.96 9.28999 83.94 9.23999 83.91 9.18999C83.96 9.20999 84.02 9.22999 84.08 9.24999ZM85.24 10.63C85.16 10.6 85.08 10.57 84.99 10.54C85.19 10.39 85.22 10.5 85.24 10.63ZM91.4 13.2C91.72 13.14 91.97 13.13 92.2 13.04C92.49 12.94 92.76 12.78 93 12.66C93.64 12.82 94.11 13.15 94.63 13.66C94.07 14.06 93.64 14.37 92.98 14.29C92.55 13.94 91.86 13.86 91.4 13.2ZM90.69 14.86C89.73 14.07 88.81 13.33 87.91 12.56C87.45 12.18 87 11.82 86.35 11.88C86.13 11.62 85.92 11.36 85.7 11.1C85.58 10.96 85.44 10.82 85.32 10.68C85.4 10.65 85.49 10.62 85.57 10.64C86.59 10.79 87.6 11.11 88.41 11.71C89.49 12.5 90.58 13.31 91.42 14.39C91.47 14.45 91.43 14.58 91.43 14.77C91.18 14.79 90.93 14.82 90.69 14.86ZM88.24 16C87.41 15.21 86.59 14.42 85.78 13.64C84.96 12.86 84.17 12.04 83.32 11.3C82.49 10.57 81.59 9.91999 80.71 9.23999C81.72 9.24999 82.64 9.50999 83.44 9.90999C84.21 10.52 84.91 11.12 85.65 11.67C85.84 11.81 86.11 11.85 86.36 11.93C86.88 12.74 87.61 13.34 88.32 13.98C88.83 14.44 89.45 14.8 89.84 15.45C89.42 16.02 88.86 16.08 88.24 16ZM85.61 16.45C84.52 15.4 83.4 14.38 82.41 13.23C81.31 11.95 80.05 10.84 78.95 9.55999C78.85 9.43999 78.7 9.35999 78.58 9.24999C78.14 8.84999 77.7 8.45999 77.27 8.04999C77.22 8.00999 77.27 7.86999 77.28 7.70999C78.03 7.70999 78.6 8.08999 79.13 8.54999C80.57 9.78999 82.08 10.97 83.44 12.3C84.76 13.59 85.93 15.02 87.16 16.4C87.21 16.45 87.16 16.58 87.16 16.7C86.98 16.8 86.79 16.9 86.57 17.02C86.25 16.84 85.87 16.71 85.61 16.45ZM83.28 17.93C82.06 16.62 80.91 15.2 79.77 13.76C78.77 12.49 77.74 11.23 76.71 9.97999C76.54 9.76999 76.3 9.67999 76.03 9.72999C75.95 9.17999 75.62 8.79999 75.2 8.45999C74.95 8.25999 74.77 7.98999 74.59 7.78999C74.48 7.29999 74.39 6.87999 74.31 6.45999C74.3 6.42999 74.38 6.38999 74.48 6.29999C74.88 6.39999 75.19 6.68999 75.5 6.98999C75.88 7.36999 76.28 7.72999 76.65 8.11999C77.82 9.31999 79.13 10.39 80.2 11.69C81.13 12.82 82.11 13.91 83.06 15.02C83.72 15.8 84.38 16.59 85.1 17.46C84.47 17.63 84 18.05 83.28 17.93ZM80.59 18.54C80.44 18.43 80.28 18.36 80.18 18.24C79.2 17.15 78.22 16.06 77.27 14.95C76.32 13.84 75.39 12.71 74.47 11.57C74.14 11.15 73.77 10.73 73.77 10.09C74.05 9.96999 74.34 9.84999 74.6 9.73999C74.69 9.42999 74.78 9.15999 74.88 8.82999C75.31 9.16999 75.66 9.44999 76.01 9.72999C76.33 10.16 76.61 10.62 76.96 11.02C78.49 12.79 79.92 14.62 81.16 16.61C81.5 17.15 81.85 17.68 82.21 18.23C81.65 18.64 81.12 18.58 80.59 18.54ZM78.18 21.4C78.68 20.53 79.29 20.08 80.31 20.29C79.6 21.16 79.15 21.4 78.18 21.4ZM76.11 22.39C76.33 22.07 76.53 21.78 76.78 21.43C77 21.65 77.17 21.83 77.41 22.08C77.04 22.48 76.77 22.72 76.32 22.73C76.26 22.63 76.19 22.52 76.11 22.39ZM77.24 19.99C77.22 19.87 77.21 19.75 77.19 19.63C77.23 19.63 77.27 19.62 77.31 19.62C77.32 19.74 77.33 19.86 77.34 19.98C77.31 19.98 77.27 19.98 77.24 19.99ZM75.92 19.84C75.91 19.81 75.96 19.76 75.98 19.71C76.01 19.83 76.05 19.95 76.19 20.42C75.99 20 75.95 19.92 75.92 19.84ZM72.94 15.38C72.94 15.25 72.94 15.15 72.94 14.88C73.18 14.94 73.32 14.98 73.47 15.02C73.44 15.2 73.41 15.34 73.38 15.51C73.21 15.45 73.07 15.41 72.94 15.38ZM71.89 11.94C71.5 11.37 70.79 11.07 70.5 10.32C71.11 10.06 71.7 10.08 72.38 10.01C72.68 10.33 72.92 10.55 73.12 10.8C73.94 11.81 74.73 12.84 75.56 13.84C76.31 14.76 77.08 15.67 77.85 16.58C78.48 17.32 78.93 18.17 79.4 18.93C79.24 19.37 78.97 19.34 78.67 19.3C77.64 18.68 76.92 17.73 76.26 16.73C76.11 15.68 75.29 14.94 75.04 14.05C74.43 13.58 73.81 13.44 73.16 13.43C72.71 12.93 72.25 12.47 71.89 11.94ZM71.53 13.93C70.26 12.82 68.71 11.19 68.26 10.5C68.7 10.26 69.16 10.21 69.76 10.33C70.69 11.43 71.74 12.54 72.69 13.94C72.18 13.94 71.82 13.94 71.53 13.93ZM69.92 15.2C70.36 15.17 70.7 15.14 71.03 15.11C71.09 15.27 71.12 15.37 71.17 15.49C70.71 15.75 70.31 15.77 69.92 15.2ZM68.06 15.43C68.1 15.4 68.14 15.34 68.18 15.34C68.28 15.34 68.37 15.38 68.47 15.4C68.45 15.43 68.43 15.49 68.4 15.5C68.31 15.52 68.21 15.52 68.12 15.51C68.09 15.51 68.07 15.46 68.06 15.43ZM64.98 10.69C65.75 10.42 66.39 10.46 67.21 10.51C68.17 11.59 69.21 12.54 69.9 13.78C69.94 13.84 69.89 13.95 69.88 14.06C69.71 14.08 69.56 14.11 69.34 14.14C67.76 13.25 66.66 11.71 64.98 10.69ZM61.78 10.95C61.69 10.87 61.71 10.68 61.69 10.53C62.37 10.38 63.05 10.33 63.77 10.42C65.01 11.43 66.13 12.56 67.19 13.8C66.39 14.11 66.39 14.11 65.17 14.06C64.08 13.07 62.92 12.02 61.78 10.95ZM61.61 13.92C60.7 12.87 59.78 11.82 58.87 10.75C58.82 10.7 58.86 10.57 58.86 10.44C59.23 10.41 59.6 10.38 59.94 10.36C61.23 11.35 62.2 12.6 63.32 13.69C63.37 13.74 63.34 13.86 63.35 14.01C62.78 14.15 62.21 14.17 61.61 13.92ZM60.49 14.09C59.7 14.29 58.97 14.39 58.3 14.01C57.06 12.92 56.12 11.62 54.97 10.48C56.39 10.16 56.39 10.16 57.63 10.44C58.4 11.73 59.8 12.6 60.49 14.09ZM51.81 16.03C52.8 15.88 53.73 15.71 54.73 15.87C55.62 16.01 56.56 15.76 57.48 15.77C58.43 15.78 59.37 15.89 60.32 15.96C59.64 16.27 58.92 16.37 58.25 16.27C57.27 16.12 56.3 16.19 55.34 16.25C54.13 16.33 52.97 16.05 51.81 16.03ZM49.59 14.84C50.15 14.73 50.65 14.53 51.29 15.17C50.69 15.22 50.33 15.24 49.97 15.27C49.84 15.13 49.74 15.02 49.59 14.84ZM44.75 10.32C45.46 10.08 46.12 10.13 46.85 10.48C47.87 11.56 48.95 12.7 50.01 13.84C50.07 13.91 50.07 14.04 50.11 14.17C49.68 14.44 49.21 14.39 48.75 14.35C47.26 13.25 45.39 11.38 44.75 10.32ZM45.86 15.2C46.66 14.94 47.23 14.98 47.8 15.04C47.25 15.19 46.7 15.32 45.86 15.2ZM41.73 10.48C42.4 10.26 43.04 10.27 43.65 10.33C44.78 11.55 45.88 12.75 46.97 13.94C47.02 14 47.01 14.11 47.03 14.22C46.83 14.32 46.64 14.42 46.47 14.5C46.07 14.44 45.7 14.38 45.32 14.32C43.96 13.23 42.83 11.91 41.73 10.48ZM44.13 15.32C44.15 15.29 44.17 15.23 44.19 15.22C44.29 15.2 44.39 15.2 44.48 15.2C44.5 15.2 44.52 15.26 44.54 15.29C44.5 15.32 44.46 15.38 44.42 15.38C44.32 15.38 44.22 15.34 44.13 15.32ZM42.26 15.07C42.41 15.04 42.56 14.98 42.72 14.98C42.88 14.97 43.04 15.01 43.2 15.03C43.2 15.08 43.19 15.12 43.19 15.17C42.88 15.19 42.58 15.22 42.27 15.24C42.27 15.18 42.26 15.13 42.26 15.07ZM41.15 14.33C40.05 13.19 38.96 12.07 37.89 10.94C37.81 10.85 37.83 10.67 37.79 10.44C38.33 10.4 38.81 10.35 39.29 10.33C39.77 10.31 40.26 10.14 40.75 10.43C41.77 11.7 42.81 12.99 43.89 14.32C42.9 14.83 42.03 14.33 41.15 14.33ZM35.22 10.63C35.77 10.59 36.18 10.56 36.61 10.52C37 10.96 37.35 11.37 37.72 11.76C38.12 12.2 38.56 12.61 38.95 13.05C39.3 13.45 39.83 13.7 40.01 14.36C39.72 14.41 39.47 14.46 39.24 14.5C37.71 13.4 36.37 12.2 35.22 10.63ZM32.88 12.56C32.14 11.97 31.25 11.56 30.64 10.62C31.28 10.56 31.81 10.49 32.34 10.47C32.93 10.45 33.52 10.47 34.06 10.48C34.67 11.2 35.22 11.86 35.78 12.51C36.33 13.15 37.05 13.65 37.42 14.49C36.59 14.93 35.89 14.52 35.18 14.37C34.41 13.76 33.64 13.17 32.88 12.56ZM31.03 13.63C30 12.76 29.02 11.82 28.03 10.9C27.98 10.86 28.03 10.71 28.04 10.58C28.5 10.44 28.98 10.44 29.56 10.52C30.54 11.65 31.73 12.67 32.93 13.68C33.18 13.89 33.42 14.1 33.65 14.33C33.69 14.37 33.65 14.5 33.65 14.65C33.32 14.66 33.01 14.66 32.67 14.67C32.12 14.33 31.52 14.05 31.03 13.63ZM25.59 11.06C25.51 10.99 25.44 10.89 25.42 10.79C25.4 10.7 25.45 10.6 25.48 10.45C25.78 10.43 26.09 10.4 26.49 10.37C26.75 10.57 27.08 10.76 27.33 11.03C28.33 12.09 29.31 13.16 30.29 14.24C30.34 14.29 30.31 14.41 30.32 14.51C30.15 14.54 29.99 14.56 29.76 14.59C28.37 13.43 26.98 12.25 25.59 11.06ZM25.31 14.16C24.11 12.99 22.88 11.79 21.75 10.47C21.88 10.39 21.97 10.29 22.06 10.29C22.65 10.26 23.24 10.25 23.78 10.24C25.26 11.62 26.67 12.94 28.15 14.32C27.64 14.36 27.21 14.44 26.8 14.41C26.32 14.39 25.85 14.26 25.31 14.16ZM18.56 10.33C19.15 10.18 19.72 10.12 20.42 10.23C21.75 11.35 22.71 12.74 23.87 13.93C23.93 13.99 23.89 14.13 23.91 14.3C23.71 14.34 23.5 14.43 23.31 14.41C22.77 14.34 22.28 14.12 21.86 13.74C20.7 12.69 19.46 11.72 18.56 10.33ZM19.48 13.99C18.08 13 16.6 12.09 15.5 10.73C15.38 10.58 15.14 10.49 15.32 10.15C16.07 10.13 16.86 10.1 17.62 10.07C18.32 10.73 18.72 11.5 19.22 12.19C19.73 12.88 20.56 13.29 20.94 14.2C20.33 14.48 19.87 14.27 19.48 13.99ZM15.9 13.67C14.76 12.69 13.51 11.81 12.65 10.49C13.08 10.19 13.55 10.25 14.07 10.31C14.69 10.95 15.3 11.64 15.96 12.27C16.62 12.9 17.39 13.4 18.14 14.17C17.67 14.21 17.33 14.31 17.05 14.23C16.64 14.13 16.21 13.95 15.9 13.67ZM8.83996 10.68C8.77996 10.63 8.75996 10.52 8.68996 10.35C9.18996 10.3 9.62996 10.19 10.14 10.33C10.64 10.47 11.18 10.48 11.65 10.54C12.24 11.17 12.81 11.75 13.34 12.35C13.85 12.92 14.53 13.34 14.95 14.12C14.38 14.16 13.9 14.2 13.39 14.24C11.81 13 10.32 11.84 8.83996 10.68ZM10.35 13.88C9.12996 12.78 7.91996 11.66 6.70996 10.54C6.82996 10.54 6.95996 10.54 7.07996 10.54C8.64996 11.51 10.15 12.56 11.44 13.93C11.02 14.2 10.64 14.15 10.35 13.88ZM5.35996 13.32C5.54996 13.5 5.64996 13.6 5.84996 13.79C5.59996 13.76 5.45996 13.77 5.35996 13.71C5.31996 13.68 5.35996 13.52 5.35996 13.32ZM4.95996 10.56C4.99996 10.39 5.02996 10.24 5.07996 10.01C6.05996 11.01 6.98997 11.95 7.90997 12.9C8.11997 13.11 8.27996 13.37 8.45996 13.61C8.21996 13.64 7.98996 13.67 7.78996 13.7C6.81996 12.62 5.89996 11.6 4.95996 10.56Z" fill="#CED0D1"/>
</svg>
