<svg width="268" height="38" viewBox="0 0 268 38" fill="none" xmlns="http://www.w3.org/2000/svg">
<path d="M267.248 36.7968H27.1918L0 18.8523L27.1918 1.18225H267.248V17.8073V36.7968Z" fill="#FAAE5D"/>
<path d="M266.662 37.0607C266.894 37.2296 266.975 37.0396 266.512 36.4801L265.913 36.2057L266.662 37.0607Z" fill="#FAAE5D"/>
<path d="M264.321 32.9651C263.681 32.3529 262.85 31.6879 262.905 32.2473C263.681 32.7856 263.681 32.9968 264.552 33.5668C265.015 34.1262 265.205 34.6118 265.028 34.559C265.26 34.7279 265.628 35.4773 266.05 35.699C265.723 34.8545 265.028 33.9045 264.103 33.0073C264.007 32.7751 264.239 32.944 264.321 32.9651Z" fill="#FAAE5D"/>
<path d="M232.137 0.812744L232.668 0.844411C232.532 0.8233 232.341 0.812744 232.137 0.812744Z" fill="#FAAE5D"/>
<path d="M180.458 0.66496C180.853 0.654405 181.017 0.633294 181.03 0.612183C180.676 0.622738 180.363 0.643849 180.458 0.66496Z" fill="#FAAE5D"/>
<path d="M171.636 0.380002C171.827 0.390557 171.99 0.390557 172.154 0.401113C171.95 0.369446 171.759 0.358891 171.636 0.380002Z" fill="#FAAE5D"/>
<path d="M232.137 0.812716L230.762 0.728271C230.667 0.812716 231.47 0.791605 232.137 0.812716Z" fill="#FAAE5D"/>
<path d="M257.854 25.5656C258.017 25.7556 258.167 25.9033 258.303 26.03C258.167 25.8717 258.045 25.7239 257.922 25.5761C257.895 25.5761 257.881 25.5761 257.854 25.5656Z" fill="#FAAE5D"/>
<path d="M254.913 0.60165H255.335C255.458 0.569983 255.58 0.538316 255.689 0.496094L254.913 0.60165Z" fill="#FAAE5D"/>
<path d="M265.069 4.85551C265.301 4.60218 265.137 4.39106 265.11 4.24329C265.083 4.43329 264.974 4.65495 264.797 4.88718C264.838 4.90829 264.933 4.89773 265.069 4.85551Z" fill="#FAAE5D"/>
<path d="M256.887 22.494L257.173 22.8107C257.092 22.7262 256.969 22.589 256.887 22.494Z" fill="#FAAE5D"/>
<path d="M242.402 0.5488C242.375 0.517133 242.307 0.485467 242.239 0.464355C242.252 0.496022 242.307 0.527689 242.402 0.5488Z" fill="#FAAE5D"/>
<path d="M246.976 35.7517C246.963 35.7728 246.976 35.7728 246.976 35.7939C247.085 35.7728 247.112 35.7517 246.976 35.7517Z" fill="#FAAE5D"/>
<path d="M267.248 36.8601L266.962 36.8707C266.935 36.9129 266.907 36.9551 266.907 36.9973L267.248 36.8601Z" fill="#FAAE5D"/>
<path d="M155.49 0.0949349C155.517 0.0949349 155.531 0.0949349 155.558 0.0949349C155.98 0.0738238 155.735 0.0738238 155.49 0.0949349Z" fill="#FAAE5D"/>
<path d="M36.7216 14.7884C36.0546 13.5745 38.4506 16.4562 37.3479 14.6723C37.3887 14.8729 35.7687 13.3423 36.7216 14.7884Z" fill="#FAAE5D"/>
<path d="M257.65 25.2489C257.527 25.0906 257.405 24.9323 257.282 24.7739C257.446 24.9956 257.554 25.1434 257.65 25.2489Z" fill="#FAAE5D"/>
<path d="M37.361 14.6722L37.2526 14.4928C37.2932 14.5667 37.3203 14.6089 37.361 14.6722Z" fill="#FAAE5D"/>
<path d="M118.283 0.22168C118.365 0.263902 118.501 0.295569 118.664 0.31668C118.651 0.295569 118.555 0.274458 118.283 0.22168Z" fill="#FAAE5D"/>
<path d="M146.001 0.538381L145.321 0.506714C145.579 0.538381 145.797 0.538381 146.001 0.538381Z" fill="#FAAE5D"/>
<path d="M103.879 0.538292C103.512 0.517181 103.376 0.485514 102.872 0.517181C102.913 0.527737 102.967 0.538292 103.022 0.548848C103.212 0.517181 103.457 0.506625 103.879 0.538292Z" fill="#FAAE5D"/>
<path d="M88.9041 0.53833C88.9858 0.548886 89.0947 0.569997 89.1764 0.580552C89.3261 0.580552 89.5031 0.569997 89.6529 0.569997L88.9041 0.53833Z" fill="#FAAE5D"/>
<path d="M201.451 35.8574C201.778 35.9207 201.982 35.984 202.145 36.0579C201.914 35.8996 204.12 35.8468 201.451 35.8574Z" fill="#FAAE5D"/>
<path d="M257.99 25.5022C257.881 25.4706 257.786 25.3967 257.663 25.2489C257.759 25.365 257.84 25.4706 257.922 25.5761C257.977 25.5972 258.017 25.5867 257.99 25.5022Z" fill="#FAAE5D"/>
<path d="M103.281 2.29058L100.898 2.25891C101.565 2.28002 102.423 2.29058 103.281 2.29058Z" fill="#FAAE5D"/>
<path d="M93.9957 35.889L94.5403 35.8573C94.3225 35.8573 94.1319 35.8679 93.9957 35.889Z" fill="#FAAE5D"/>
<path d="M93.8324 2.29066C93.4104 2.21677 92.9611 2.16399 92.4982 2.13232C92.4029 2.15344 92.2804 2.16399 92.226 2.1851L93.8324 2.29066Z" fill="#FAAE5D"/>
<path d="M217.829 35.5301C215.555 35.5195 216.767 35.8151 216.277 35.984C213.568 36.0684 215.024 35.7729 214.099 35.6145C212.41 35.6884 211.117 35.9629 209.851 35.9523C209.756 35.8995 209.511 35.889 209.797 35.8257C208.013 36.0579 204.487 35.8362 202.404 36.1318C202.254 36.1107 202.173 36.079 202.132 36.0579C202.472 36.2057 202.527 36.3534 202.445 36.459C201.424 36.459 200.553 36.649 200.171 36.4484C200.798 36.459 200.852 36.3745 201.138 36.3218L200.076 36.4062C199.123 36.1318 201.533 36.3112 201.533 36.1107C199.45 36.1951 197.04 36.4273 195.447 36.3534C195.121 36.0895 199.164 36.2584 197.04 36.0262L199.504 36.1318C197.626 35.7095 201.002 36.1634 199.273 35.7095C196.033 35.6357 195.652 35.8468 192.411 35.7729C191.69 35.9207 192.656 35.9945 191.921 36.1423C187.32 36.4062 188.3 35.4668 184.924 35.8257C184.052 36.0051 183.712 36.3429 181.302 36.1634L182.119 35.8573C178.988 35.8257 180.322 36.2901 177.041 36.0895C177.627 35.9734 179.505 35.984 179.029 35.9523C176.905 35.7095 177.518 36.1212 175.884 36.1212L175.544 35.8468C172.208 35.889 168.519 36.079 164.816 36.1318C165.02 36.0473 165.66 35.9629 164.789 35.889C160.119 36.0262 154.823 35.8573 150.331 35.699L148.615 35.9312C148.22 35.9312 147.866 35.8257 148.302 35.7834C146.546 35.699 148.207 35.9312 147.363 36.0262C146.369 36.0473 146.042 35.889 146.682 35.8257C143.592 36.0262 137.86 36.2479 134.606 36.0051L135.246 35.9312C132.7 35.8362 132.374 36.4062 130.018 36.1951L130.468 36.1529C124.954 36.0473 118.869 36.269 114.662 35.9101C113.859 36.2479 109.203 35.7623 108.849 36.2268C105.704 35.9945 106.602 35.9101 102.164 35.7518C100.98 35.7307 100.394 36.0473 98.9376 36.0895L98.8968 35.8468L96.9091 36.1001L95.8473 35.8045L94.4722 35.8679C95.0168 35.8784 95.6294 35.9734 95.5478 36.0473C93.3967 36.1529 90.32 35.8784 90.2655 35.7518L85.1875 35.9629C85.2964 35.8679 86.1541 35.8362 86.8212 35.7729C84.112 36.0262 86.3311 35.5195 83.8533 35.7412C84.18 35.794 83.6763 35.889 83.6219 35.9312C82.383 35.7834 79.5649 35.7834 77.482 35.8468L77.8768 35.6779C74.1193 35.6357 69.9398 35.7623 65.7195 35.7518C67.2306 35.8257 66.8903 36.1212 65.6514 36.1529L65.2293 35.889C64.4261 36.0473 66.5227 35.984 64.8754 36.1845C63.2962 36.1529 63.8135 35.889 64.7256 35.8045L62.8061 35.889C62.6971 35.8151 63.1464 35.7729 63.2553 35.6779C62.4657 35.8362 59.9471 35.414 58.8035 35.699L58.6946 35.6251C54.4743 35.6251 52.5547 35.7095 49.124 35.7201C49.0559 35.9418 47.7081 35.889 46.6871 36.0684C44.1549 35.9945 41.3504 35.8257 38.3145 35.8362C36.1771 35.9418 37.6882 36.0262 36.7216 36.1529C36.5582 35.9523 33.5223 35.9734 35.1015 35.8257C33.5223 35.8468 32.4332 35.8573 31.3032 35.8679C29.7785 35.889 29.9282 35.9207 29.0569 35.9734C29.0569 35.9523 29.125 35.8256 29.2203 35.6568C28.9752 35.8151 28.7302 36.0579 28.6621 35.9945C28.8663 35.6779 29.3564 35.2873 29.4245 35.3718L29.4109 35.4351L29.479 35.2979C29.5062 35.2557 29.5334 35.2134 29.6287 35.0762C29.7921 34.8545 29.9691 34.6223 30.146 34.3901C30.5 33.9362 30.8812 33.4718 31.276 33.0073C32.0656 32.0784 32.9097 31.1495 33.7265 30.2417C35.3738 28.4156 36.9258 26.674 37.7699 25.2067L37.6746 25.3756L39.6759 22.4306C40.7514 21.1428 39.2266 23.2962 40.1251 22.3884C40.5063 21.7867 40.8875 21.2378 41.2551 20.7312C41.4457 20.4778 41.6227 20.2351 41.7996 20.0028C42.1128 19.6123 42.4123 19.2323 42.6982 18.8628C41.9902 17.9551 41.3368 17.1106 40.6697 16.2556C40.1115 15.5484 39.5397 14.8517 38.8318 14.1023C37.9333 11.8434 33.2637 7.24113 31.5755 4.42279L31.5483 4.64446C30.854 4.04279 30.9765 3.7789 30.6225 3.27223C30.5545 3.3989 31.0718 4.07446 30.6498 3.69445C30.2005 3.16668 29.7512 2.62834 29.2884 2.09001C30.4319 2.10056 31.5755 2.11112 32.7191 2.12167C34.5706 2.15334 36.4493 2.19556 38.3145 2.22723C42.0583 2.30112 45.8022 2.38556 49.4916 2.45945C52.7589 2.50167 51.3431 1.73112 55.4545 2.06889L54.3109 2.32223C60.9001 2.00556 67.7888 2.33278 74.2282 2.06889C73.847 2.13223 73.8334 2.20612 73.2072 2.20612C74.5686 2.39612 78.2443 2.21667 78.2716 2.05834C79.279 2.07945 78.503 2.19556 79.1292 2.28001C80.4907 2.39612 82.56 2.03723 83.2815 2.22723C83.4041 2.25889 82.9003 2.29056 82.6417 2.30112C83.5266 2.21667 86.7803 2.33278 85.9363 2.11112C88.3596 2.21667 90.565 2.01612 92.4982 2.14278C93.7507 1.90001 96.6369 2.25889 97.0453 1.91056C96.8683 2.26945 101.293 2.19556 102.818 2.02667C102.3 2.13223 104.152 2.14278 103.553 2.29056C105.295 2.29056 106.902 2.21667 106.589 2.03723C109.802 2.47001 113.055 1.68889 114.866 2.23778C120.053 2.04778 124.859 1.91056 129.528 1.82612C129.365 2.18501 124.369 1.85778 124.573 2.23778C128.997 2.09001 131.557 1.78389 135.941 1.86834C137.084 1.92112 135.301 2.02667 134.906 2.07945C139.33 1.93167 143.455 2.11112 147.39 1.92112C147.376 1.95278 146.954 1.99501 146.559 2.01612C147.335 2.00556 148.37 2.06889 148.275 1.91056L147.512 1.95278C146.274 1.72056 150.589 1.45667 150.725 1.34056C149.405 1.805 154.619 1.45667 152.522 2.04778C153.04 2.01612 153.68 1.94223 153.557 1.83667C154.319 1.86834 154.551 1.93167 153.788 2.05834C156.566 1.97389 155.586 1.79445 158.091 1.805C158.077 1.87889 157.573 1.91056 157.315 2.00556C158.594 1.85778 159.874 1.69945 161.998 1.76278C161.875 1.805 162.12 1.86834 161.48 1.86834C165.129 1.84723 167.702 1.45667 171.718 1.60445C170.534 1.94223 173.08 1.72056 173.297 2.01612L175.448 1.93167L174.577 1.78389C176.469 1.78389 178.13 1.57278 179.75 1.66778L178.348 1.79445L181.888 1.74167L179.887 1.62556C181.792 1.47778 179.682 1.25611 182.201 1.33C181.684 1.36167 184.093 1.33 185.073 1.50945C186.013 1.41445 186.966 1.31945 188.368 1.39334C188.736 1.48834 188.082 1.72056 188.314 1.78389C189.239 1.54112 192.738 1.72056 193.895 1.45667C193.501 1.52 193.487 1.67834 193.609 1.71L194.385 1.50945C195.257 1.57278 195.393 1.60445 195.243 1.73112C197.871 1.76278 194.413 1.35111 197.53 1.52C197.285 1.54112 197.408 1.56223 196.89 1.59389C200.022 1.67834 202.949 1.46723 205.835 1.56223C206.679 1.85778 203.316 1.63612 204.296 1.88945C208.449 1.83667 212.901 1.53056 216.917 1.60445L216.168 1.57278C216.726 1.15056 219.163 1.78389 221.191 1.58334C220.688 1.615 220.538 1.81556 220.674 1.77334C223.424 1.83667 226.297 1.66778 230.476 1.54112L229.959 1.64667C231.579 1.74167 234.234 1.69945 235.99 1.75223C236.507 1.64667 237.515 1.65723 236.902 1.50945C242.307 2.12167 247.208 1.18223 252 1.68889C251.428 1.68889 250.639 1.78389 251.088 1.78389L255.172 1.68889C254.845 1.50945 254.641 1.58334 253.783 1.43556C254.301 1.33 255.458 1.24556 256.465 1.24556C254.627 1.36167 256.479 1.54112 257.269 1.64667C257.132 1.59389 257.405 1.53056 257.337 1.46723C259.474 1.79445 257.691 1.09778 260.604 1.31945L260.454 1.41445C261.543 1.36167 262.551 1.235 263.722 1.26667C264.212 1.47778 262.564 1.36167 262.483 1.54112C263.3 1.53056 264.144 1.43556 264.824 1.36167C265.546 1.28778 266.472 1.24556 266.894 1.35111L266.88 1.36167V1.35111C266.131 1.41445 265.274 1.41445 264.675 1.46723C265.532 1.66778 265.614 1.66778 266.09 1.67834C266.022 1.75223 265.941 1.83667 265.845 1.94223L265.9 1.88945L264.77 3.0189C264.947 2.85001 265.015 2.81834 265.124 2.72334C265.165 2.9239 264.865 3.40945 264.634 3.74723C264.389 4.11668 264.089 4.47557 263.776 4.84501C263.15 5.5839 262.442 6.36502 261.87 7.3678C263 5.42557 261.911 6.96669 261.761 6.7028C261.298 7.12502 260.618 7.77947 260.713 7.54724C260.196 8.5078 259.338 8.8878 258.616 10.2389C258.494 10.2495 257.827 11.1467 257.786 10.8406C256.901 11.9806 258.153 10.6506 258.181 10.7984C257.595 11.7273 256.656 12.6773 255.649 13.7434C255.145 14.2712 254.627 14.8306 254.124 15.4112C253.879 15.7067 253.634 16.0023 253.389 16.3189C253.116 16.6884 252.858 17.0578 252.585 17.4378C252.476 17.5856 252.368 17.7334 252.299 17.8178C252.572 18.145 252.83 18.4406 253.062 18.7151C253.239 18.9051 253.402 19.0845 253.566 19.2534C253.879 19.5806 254.165 19.8551 254.437 20.1401C254.995 20.6995 255.54 21.2484 256.329 22.1878C256.71 22.9373 255.594 21.7656 255.594 21.7656C256.302 22.9267 256.942 23.7501 257.827 24.7528C257.595 24.5734 257.691 24.8267 257.84 25.1856C258.494 26.009 258.576 25.6078 259.27 26.769C259.038 26.6212 258.698 26.4523 258.303 26.0828C259.12 27.0329 260.005 27.9406 260.849 28.9223C260.904 29.2601 260.155 28.4051 259.787 28.0884C260.713 29.2073 262.156 31.0018 262.66 31.2551L262.197 30.4845C262.524 30.8962 262.156 30.7906 261.884 30.5056C260.958 29.6084 260.904 29.049 260.944 28.954L261.543 29.6612C261.489 28.6901 259.27 26.769 258.208 25.2912L259.038 25.7345L257.609 24.3728C257.459 24.014 257.514 23.6973 258.099 24.394C257.5 23.2645 257.269 23.5178 256.806 22.5256C256.765 22.4095 256.819 22.4517 256.901 22.5362L256.03 21.5545C256.261 21.7234 256.166 21.2695 256.574 21.924C255.417 20.0028 254.056 19.0423 253.851 18.2823L253.974 18.3984C253.77 18.1662 253.62 17.9867 253.511 17.86C253.865 17.3534 253.783 17.3428 253.674 17.3323C253.566 17.3112 253.484 17.2373 254.056 16.3506L255.757 15.4323L255.703 15.0523C255.934 14.7989 256.384 14.3134 256.397 14.4612C257.024 13.4267 256.152 14.5667 256.452 13.9334C257.731 12.8356 259.229 10.5028 259.869 10.4395C260.046 9.90114 258.712 11.5267 259.692 10.1545C260.454 10.0067 260.904 8.6028 262.061 7.58947C261.993 8.05391 260.972 9.04614 262.129 8.0328C262.319 7.15669 264.076 5.90057 264.811 4.9189C264.675 4.8239 265.056 4.32779 265.614 3.66279C266.172 2.98723 267.193 1.83667 267.874 0.960558C267.751 0.960558 267.629 0.971114 267.506 0.971114C267.711 0.918336 266.39 0.886669 264.511 0.844447C262.905 0.802224 261.257 0.760002 260.087 0.707224L260.155 0.654446C259.719 0.950003 257.364 0.886669 255.649 0.950003C255.717 0.781113 256.03 0.707224 256.955 0.633335H255.349C254.968 0.728335 254.464 0.770558 253.429 0.81278L253.838 0.591113C251.7 0.601668 249.522 0.844447 246.772 0.696669C246.622 0.897225 248.964 1.25611 246.051 1.39334C245.942 1.28778 245.833 1.09778 246.595 1.05556C246.35 1.06611 245.71 1.15056 245.207 1.09778L246.364 0.918336C245.111 0.833891 245.71 1.07667 244.703 1.05556C244.716 0.897225 243.954 0.939447 244.104 0.823336C244.363 0.81278 244.975 0.886669 245.356 0.823336C244.226 0.791669 242.865 0.707224 242.402 0.580557C242.497 0.665002 242.402 0.791669 241.572 0.81278C239.434 0.823336 240.836 0.622779 239.598 0.54889C239.08 0.654446 237.719 0.54889 237.678 0.781113C237.052 0.781113 236.929 0.675557 236.698 0.612224C235.595 0.71778 231.524 0.643891 232.777 0.886669L233.063 0.90778C233.008 0.90778 232.954 0.918336 232.886 0.918336C232.899 0.918336 232.886 0.918336 232.9 0.918336H232.886C229.251 1.15056 225.344 0.781113 221.75 0.886669V0.81278C219.599 0.897225 216.957 0.865558 215.433 1.03445C214.793 1.03445 213.935 0.886669 214.207 0.802224C212.56 0.865558 212.383 0.950003 210.001 0.823336C211.648 0.686113 209.429 0.707224 211.689 0.728335C209.551 0.665002 209.075 0.538335 206.774 0.749446C207.55 0.54889 205.168 0.496112 204.147 0.559446L205.644 0.707224C204.501 0.738891 203.507 0.71778 202.486 0.696669L203.03 0.432779C198.66 0.116111 195.148 0.981669 191.826 0.443335C190.669 0.622779 194.195 0.570002 193.16 0.791669C191.145 0.760002 189.049 0.380001 188.423 0.380001C185.673 0.232223 185.849 0.760002 182.977 0.665002C183.345 0.760002 183.698 1.01334 181.534 1.09778C179.519 1.06611 179.056 0.707224 180.336 0.633335C180.812 0.62278 181.057 0.654446 181.03 0.686113C181.684 0.654446 182.528 0.612224 181.738 0.506668L181.479 0.601668C180.486 0.506668 177.708 0.517224 178.362 0.35889C176.837 0.443335 177.708 0.517224 178.838 0.559446C176.252 0.422223 174.809 0.559446 172.154 0.464446C172.576 0.517224 172.971 0.622779 172.549 0.622779C168.655 0.506668 170.833 0.802224 168.192 0.844447C166.695 0.696669 168.723 0.506668 166.068 0.622779C164.448 0.527779 165.728 0.369445 166.368 0.295556C163.945 0.475001 161.848 0.179445 160.459 0.147778L161.739 0C160.977 0.0422223 160.35 0.0422223 159.711 0.0422223L160.432 0.232223C159.683 0.200556 159.043 0.200556 159.057 0.116111C158.281 0.242778 159.643 0.432779 158.118 0.601668C157.124 0.506668 155.082 0.707224 154.728 0.45389C157.873 0.538335 154.387 0.200556 157.042 0.158334C156.525 0.190001 155.899 0.190001 155.15 0.158334C155.041 0.126667 155.259 0.105556 155.463 0.0950003C152.454 -0.126667 154.088 0.380001 150.97 0.369445C151.365 0.232223 150.249 0.105556 149.745 0.137223C150.998 0.137223 150.344 0.369445 149.201 0.475001C147.199 0.369445 147.036 0.559446 145.988 0.54889L147.186 0.601668C146.777 0.738891 145.783 0.728335 144.395 0.770558C144.272 0.665002 145.661 0.696669 145.157 0.643891C143.619 0.886669 141.672 0.390557 139.507 0.559446C138.514 0.464446 139.412 0.295556 138.541 0.232223C136.131 0.411668 135.927 0.0422224 133.395 0.190001C134.13 0.380001 134.252 0.337779 132.469 0.517224L136.635 0.369445L133.953 0.643891C135.205 0.643891 136.608 0.527779 137.37 0.559446C136.09 0.71778 136.226 0.665002 136.825 0.823336C135.096 0.538335 133.408 0.992225 131.421 0.802224L131.475 0.337779C128.48 0.126667 126.152 0.580557 122.272 0.464446L123.525 0.54889C123.007 0.738891 121.128 0.570002 119.862 0.654446C119.985 0.496112 119.195 0.443335 118.651 0.348334C118.719 0.464446 115.805 0.337779 115.451 0.654446L113.722 0.443335C110.578 0.35889 110.142 0.886669 107.12 0.833891C108.032 0.665002 106.657 0.54889 108.685 0.432779C107.678 0.432779 106.766 0.401112 106.752 0.506668C106.167 0.411668 103.961 0.71778 103.035 0.570002C102.6 0.62278 102.464 0.781113 101.334 0.770558C101.211 0.738891 101.334 0.696669 101.334 0.696669C101.334 0.770558 99.5639 0.802224 100.558 0.971114C97.4537 0.485557 91.8856 1.00278 89.1764 0.591113C86.9709 0.643891 84.3298 0.696669 82.3285 0.707224C82.4511 0.665002 82.3285 0.633335 82.7097 0.643891C79.9597 0.496112 81.0216 1.09778 77.8768 0.928891C76.2703 0.675557 79.5377 0.791669 78.5439 0.696669C78.1082 0.179445 74.7592 0.770558 72.649 0.464446L73.1663 0.432779C71.5599 0.253334 69.2319 0.622779 66.6044 0.591113C66.6044 0.591113 66.7269 0.54889 66.618 0.517224C64.8209 0.781113 61.4038 0.865558 58.8716 0.939447C59.6612 0.738891 60.0288 0.833891 59.5387 0.633335C58.4087 0.665002 59.8654 0.960558 57.6055 1.02389C56.8703 0.918336 55.2367 0.81278 55.0188 0.601668L57.1562 0.591113C56.0671 0.306112 54.3926 0.601668 53.2626 0.54889L53.4124 0.422223C50.1314 0.464446 50.0906 0.770558 46.5645 0.749446L46.9321 0.844447C45.0125 1.15056 45.3121 0.675557 43.3925 0.897225L42.8071 0.580557C41.541 0.654446 38.3553 0.886669 36.0818 0.939447C37.3751 0.707224 40.0434 0.591113 41.6907 0.45389C40.4382 0.45389 37.4159 0.475001 36.7625 0.633335C37.2662 0.601668 37.906 0.527779 38.4098 0.570002C36.8714 0.81278 34.8429 0.928891 32.3379 0.928891C32.4877 0.728335 31.8342 0.643891 30.8267 0.601668C30.5545 0.591113 30.255 0.591113 29.9418 0.580557C29.5198 0.580557 29.0705 0.570002 28.6077 0.570002C27.6683 0.559446 24.953 3.18779 24 3.18779C24.5037 3.83168 26.7017 1.81556 27.0965 2.38556C27.3007 2.67056 27.4777 2.93445 27.6275 3.18779C27.7091 3.31445 27.7772 3.43056 27.8453 3.54668C27.8997 3.64168 27.9133 3.69445 27.927 3.75779C30.5136 6.55502 32.474 9.60558 35.2513 12.9834C34.802 11.5267 36.0681 13.965 36.4221 13.5006C37.0892 14.2817 37.3206 14.5878 37.3479 14.6723L38.9543 17.2267C39.2538 17.8706 38.2328 16.53 38.1783 16.6567C39.5261 18.4089 38.5323 17.4906 39.3219 18.7045C39.3219 18.5884 39.4172 18.6201 39.5806 18.7467C39.6759 18.7995 39.7031 18.7889 39.7575 18.8523C39.7439 18.8734 39.7303 18.8945 39.7031 18.9051L39.6759 18.9367L39.6622 18.9473L39.5806 19.0423L39.6759 18.9578L39.7031 18.9473L39.7712 18.9262C39.812 18.9051 39.8665 18.8839 39.9209 18.8523C39.9345 18.7995 39.9345 18.7362 39.9073 18.6517C40.0026 18.7151 40.0843 18.7889 40.1387 18.8523C40.0979 18.9262 40.0298 19.0001 39.9754 19.0634C39.8392 19.2112 39.7303 19.3378 39.6214 19.4539C39.3627 19.7178 39.1313 19.9184 38.8862 20.1401C38.4098 20.5834 37.8924 21.0795 37.1436 22.2512L37.5929 21.3962C36.6944 22.7051 33.9171 26.0406 33.359 27.4762C33.1275 27.6662 32.7463 27.8984 33.1411 27.3179C31.9295 28.7851 30.7315 30.4951 29.5743 32.1101C29.0025 32.9123 28.4307 33.704 27.8725 34.4218C26.9876 35.5618 26.3849 32.9867 25.5 34C28.1616 27.6767 28.2416 29.1005 26 36.5L25.245 32.1101L24.5 27.4762C24.4455 27.5395 26.5966 21.995 27.0966 29.5C28.5669 29.4472 27.6002 37.5462 29.125 37.6518C29.0161 37.7045 28.4579 37.7679 29.1522 37.7784C29.3564 37.7679 29.6968 37.7468 30.146 37.7257C30.3911 37.7046 30.7042 37.6834 31.0173 37.6623C31.6708 37.6201 32.406 37.599 32.9641 37.6307L31.9976 37.7679C36.4357 37.9262 38.8182 37.4407 42.5348 37.3668C42.5212 37.7151 46.02 37.8312 47.7626 37.884L47.7081 37.9368C52.8814 37.979 56.4892 37.6518 61.2813 37.5145C64.2491 37.8946 71.3557 37.6729 76.1342 37.884C75.399 37.8207 76.2567 37.6095 77.1008 37.5779C78.2171 37.6518 80.2048 37.3351 80.0278 37.6518L79.633 37.6412C80.477 37.9579 82.7778 37.8734 84.5885 37.884L84.888 37.4618C89.5984 38.074 97.2223 37.2401 99.7953 37.7784C100.925 37.6729 102.341 37.6729 103.471 37.5673L103.417 37.789C106.561 37.8418 108.141 37.8734 112.021 37.8207L111.217 38.0001C113.409 38.0107 113.995 37.3562 116.01 37.3457L116.622 37.6834C120.448 37.6834 124.328 37.9684 128.112 37.6729C128.044 37.7257 127.935 37.8207 127.323 37.8312C129.12 37.8418 134.293 38.0529 133.64 37.599C133.681 37.8945 137.588 37.6307 139.657 37.4934L139.33 37.7151C141.073 37.4301 141.127 37.3562 143.564 37.2823C144.136 37.314 144.068 37.4618 143.306 37.3984C145.225 37.5145 144.803 37.1873 147.145 37.3034L146.274 37.4407C148.248 37.4618 148.098 37.3773 149.187 37.219C150.426 37.1345 152.944 37.2718 153.23 37.4723C153.503 37.3457 154.578 37.1873 155.749 37.2507C155.912 37.3246 155.477 37.3773 155.272 37.3984C158.581 37.5462 160.201 37.1451 162.474 37.3562C162.515 37.4301 162.665 37.4618 162.855 37.4829C160.228 37.4723 158.104 37.4618 158.308 37.4512C158.308 37.6518 160.432 37.694 158.744 37.9684C160.446 37.8101 163.359 37.4829 165.442 37.5779C165.537 37.599 165.646 37.6201 165.714 37.6518L165.497 37.6729C165.973 37.694 166.409 37.6729 166.803 37.6412C167.471 37.6729 167.879 37.7045 168.519 37.7045C168.764 37.8734 170.956 37.7995 172.018 37.7995C171.936 37.5779 173.311 37.6095 172.018 37.4301C172.181 37.4512 171.813 37.4618 171.119 37.4618C170.956 37.4723 170.779 37.4723 170.67 37.4829C170.697 37.4723 170.711 37.4723 170.738 37.4618C170.044 37.4618 169.131 37.4723 168.11 37.4723C168.941 37.3562 169.826 37.2612 170.997 37.3879C171.541 37.2401 172.14 37.1029 172.481 37.029C173.924 37.3351 176.728 37.504 177.109 37.694C180.349 37.5673 184.733 37.6095 186.762 37.1979C187.687 37.1451 187.824 37.314 188.164 37.3879C187.633 37.4301 187.007 37.4195 186.721 37.4829C188.559 37.3773 192.166 37.4407 192.602 37.1451C194.916 37.2718 191.295 37.409 194.481 37.3668L194.045 37.4512C200.308 37.9157 204.228 36.7018 211.172 37.3034C210.695 37.2718 210.45 37.2507 210.355 37.1979C218.278 37.4618 226.678 36.9551 234.492 37.3668C236.711 37.4512 236.956 37.2612 238.304 37.124L238.781 37.3668L241.095 37.0923C244.376 36.8918 246.786 37.6834 250.952 37.2929L250.421 37.1345C251.918 37.1662 255.158 37.0395 254.9 37.2295C255.049 37.1979 255.39 37.0607 255.975 37.1451L256.016 37.2718L259.692 37.0607C262.537 37.1557 259.243 37.5568 263.395 37.5779C264.933 37.5251 267.792 37.2084 267.207 37.1345C266.581 37.124 265.614 37.0607 265.573 36.934L266.989 36.8707C267.248 36.5012 268.337 36.1212 264.865 35.8679L262.456 36.0895L261.68 35.9101L263.708 35.8995C262.551 35.7307 261.829 35.8784 261.012 35.984C260.822 35.889 260.481 35.8257 260.005 35.7834L257.636 36.1318C257.35 35.984 258.698 35.8468 257.105 35.7623C255.989 35.9207 258.167 36.0895 256.329 36.1951C255.172 36.0262 255.512 35.889 254.151 36.0368C253.96 35.9418 254.246 35.8784 254.791 35.8362C253.579 35.9523 251.592 35.889 250.979 36.079C249.781 35.8679 246.908 36.1318 247.017 35.7834C246.636 35.8679 244.893 36.0579 243.777 36.0684C245.806 35.6462 239.625 36.0473 240.156 35.5934C238.658 35.9734 234.737 35.7623 232.083 35.9734C232.232 35.9418 232.518 35.8784 232.763 35.8995C231.266 35.8679 230.83 35.7518 229.877 35.6884C229.687 35.9945 227.359 36.0684 226.106 36.2584C224.268 35.9629 227.222 35.889 226.637 35.604C226.732 35.8573 223.451 35.8573 224.078 36.0684C222.675 35.8784 222.866 35.9734 222.144 35.7201C221.899 36.1107 220.837 35.7834 219.68 36.0262C217.652 35.8362 219.163 35.6673 216.93 35.7834C215.855 35.6673 217.829 35.5301 217.829 35.5301ZM164.857 36.2057C165.32 36.1951 165.701 36.1951 165.946 36.1845C165.728 36.1951 165.415 36.1951 164.857 36.2057ZM160.405 36.2057C160.949 36.2057 161.617 36.2162 162.338 36.2162C162.488 36.2901 162.324 36.3745 161.875 36.364C162.12 36.3218 161.072 36.269 160.405 36.2057ZM169.826 37.7468C169.118 37.7784 168.886 37.7362 168.791 37.694C169.118 37.6834 169.513 37.6834 170.03 37.6623C170.057 37.6518 170.084 37.6412 170.112 37.6307C170.044 37.6834 169.962 37.7257 169.826 37.7468Z" fill="#FAAE5D"/>
<path d="M171.092 37.4618C171.187 37.4513 171.255 37.4513 171.378 37.4407C171.228 37.4196 171.092 37.4091 170.956 37.3879C170.874 37.4091 170.779 37.4407 170.711 37.4618C170.847 37.4618 170.969 37.4618 171.092 37.4618Z" fill="#FAAE5D"/>
<path d="M232.763 0.844482H232.668C232.75 0.855038 232.818 0.865594 232.859 0.876149C232.804 0.865594 232.804 0.855038 232.763 0.844482Z" fill="#FAAE5D"/>
<path d="M98.9513 35.7834V35.8362L99.3461 35.794L98.9513 35.7834Z" fill="#FAAE5D"/>
<path d="M257.282 1.61499C257.323 1.6361 257.418 1.65721 257.609 1.66777C257.595 1.65721 257.459 1.6361 257.282 1.61499Z" fill="#FAAE5D"/>
<path d="M265.873 1.91064L265.233 2.51231C265.505 2.28009 265.723 2.06898 265.873 1.91064Z" fill="#FAAE5D"/>
<path d="M261.775 6.51282C261.761 6.59726 261.775 6.63948 261.788 6.67115L261.802 6.6606L261.775 6.51282Z" fill="#FAAE5D"/>
<path d="M146.559 2.02673C146.451 2.02673 146.342 2.03729 146.246 2.03729C145.511 2.09007 146.001 2.06896 146.559 2.02673Z" fill="#FAAE5D"/>
<path d="M185.087 1.50952C184.679 1.55174 184.27 1.59397 183.848 1.61508C184.529 1.63619 185.06 1.63619 185.087 1.50952Z" fill="#FAAE5D"/>
<path d="M182.051 1.61499C182.732 1.65721 183.304 1.64666 183.848 1.61499C183.276 1.60444 182.623 1.58332 182.051 1.61499Z" fill="#FAAE5D"/>
<path d="M261.462 30.4529L261.652 30.7168C261.666 30.7062 261.693 30.7168 261.72 30.7273L261.462 30.4529Z" fill="#FAAE5D"/>
<path d="M261.72 30.7273L261.965 31.0017C261.87 30.8751 261.775 30.759 261.72 30.7273Z" fill="#FAAE5D"/>
<path d="M262.483 31.5928L261.965 31.0017C262.129 31.2234 262.319 31.4873 262.483 31.5928Z" fill="#FAAE5D"/>
<path d="M256.179 23.1695L256.03 23.1273C256.071 23.159 256.125 23.1801 256.179 23.1695Z" fill="#FAAE5D"/>
<path d="M254.505 20.9845C254.873 21.5228 255.295 22.3884 255.894 23.0956L256.016 23.1273C255.635 22.8423 255.036 21.4173 254.505 20.9845Z" fill="#FAAE5D"/>
<path d="M258.644 11.949L257.064 13.6906C257.418 13.4268 257.895 13.089 257.228 13.9018C259.406 11.8012 256.615 14.2501 258.644 11.949Z" fill="#FAAE5D"/>
<path d="M263.477 6.51278C262.7 7.48389 263.626 6.56556 263.626 6.65C264.062 5.99556 264.171 5.83722 263.477 6.51278Z" fill="#FAAE5D"/>
<path d="M213.568 0.664912L213.717 0.464355C212.574 0.496022 213.704 0.5488 213.568 0.664912Z" fill="#FAAE5D"/>
<path d="M201.805 1.72056L202.921 1.83667L203.439 1.65723L201.805 1.72056Z" fill="#FAAE5D"/>
<path d="M194.862 0.274343L195.366 0.242676L193.46 0.316565L194.862 0.274343Z" fill="#FAAE5D"/>
<path d="M91.5724 0.348358L91.9128 0.601692C92.6752 0.548915 92.8385 0.274469 91.5724 0.348358Z" fill="#FAAE5D"/>
<path d="M46.973 0.601648C46.4829 0.474981 45.2304 0.401092 44.4544 0.517204C45.4618 0.538315 46.4693 0.633315 46.973 0.601648Z" fill="#FAAE5D"/>
<path d="M87.1207 37.7784L86.2222 37.8629L87.9103 37.7996L87.1207 37.7784Z" fill="#FAAE5D"/>
</svg>
