<svg width="67" height="62" viewBox="0 0 67 62" fill="none" xmlns="http://www.w3.org/2000/svg">
<path fill-rule="evenodd" clip-rule="evenodd" d="M56.809 34.8771C56.809 34.8604 56.809 34.8437 56.809 34.827C56.9314 34.0592 57.0416 33.283 56.9845 32.4568C56.9559 32.5152 56.9396 32.582 56.9192 32.6488C56.9273 32.4818 56.9314 32.3107 56.911 32.1647L56.8906 32.0562L56.9029 31.9143C56.911 31.2717 56.9192 30.6332 56.9233 29.9531C56.9029 29.8487 56.8866 29.7444 56.8539 29.565C56.6825 27.7247 56.3642 25.8052 55.8827 24.0109C55.8337 23.8731 55.7725 23.7146 55.7358 23.6103C55.291 22.0621 54.7973 20.6517 54.1852 19.0952C54.1281 19.0076 54.026 18.8615 53.9689 18.7739C53.9036 18.6111 53.8546 18.4818 53.8016 18.3566C53.7649 18.1104 53.6343 17.8642 53.4547 17.6013C52.9569 16.6499 52.5488 15.6025 51.9204 14.9348C51.0553 13.8457 50.0923 12.4352 49.0558 11.3837C48.5498 10.8328 48.256 10.2653 47.7378 9.76458C47.2358 9.30556 47.1502 9.485 46.4279 8.87575C45.6526 8.27903 44.9017 7.59467 44.0652 6.97709L44.0162 7.04385C44.004 7.00212 43.9713 6.93953 44.0652 6.97709L43.7387 6.7434L43.6898 6.81017C43.3348 6.5598 43.0083 6.32611 42.6778 6.09243C42.5839 6.05487 42.4289 5.98811 42.3024 5.93803L42.184 5.87961L42.1106 5.81285C41.8209 5.57916 41.4046 5.43729 41.2537 5.23699C41.4454 5.23699 42.0738 5.61672 42.131 5.52074C40.9721 4.78631 40.2457 4.49838 39.752 4.52759C39.5234 4.39406 39.2011 4.22297 39.2256 4.1729C39.4133 4.01433 38.9032 3.83907 38.2421 3.60956C37.7035 3.43012 37.5443 3.4802 37.5607 3.61373C37.4097 3.54696 37.3199 3.50941 37.1975 3.45933C37.0547 3.37587 36.8996 3.31745 36.8017 3.29659L36.8547 3.34249C36.7078 3.26738 36.5854 3.21313 36.463 3.1714C35.9978 3.00449 35.2633 2.81253 35.5081 2.69152C35.704 2.60806 35.402 2.47036 34.8593 2.29927C34.4104 2.16991 33.9779 1.96543 33.4882 2.01551C34.0309 2.19077 34.6593 2.50791 34.4553 2.62475C34.2227 2.58302 33.9534 2.51208 33.68 2.44532C33.5249 2.29509 33.4025 2.14904 33.1536 1.99465C33.0964 1.91536 33.0312 1.84859 32.77 1.78183C32.7374 1.59822 32.6068 1.41044 32.3211 1.231C32.5782 1.2477 32.8557 1.27691 33.1291 1.30612C33.9656 1.45217 34.8144 1.71089 35.5163 2.0781C35.9692 2.32013 36.5528 2.49539 37.0914 2.58302C37.8382 2.90851 38.5482 3.21313 39.2949 3.53862C41.1312 4.40241 42.8614 5.4039 44.4733 6.4054L44.4406 6.38871C45.3751 6.98126 46.1831 7.84922 47.089 8.54192C47.4399 8.77143 47.8561 9.19289 48.2601 9.6227C48.3866 9.74372 48.5376 9.88977 48.6845 10.0358C48.9701 10.2945 49.268 10.6367 49.5455 10.9497C50.4106 12.0388 51.239 12.9902 51.9653 14.0251C51.9245 13.925 51.9245 13.925 51.9 13.8624C51.9 13.8624 51.9 13.8624 51.9367 13.9208L51.9653 14.0251C52.202 14.3798 52.4631 14.8305 52.6835 15.0266L52.8059 15.2019L52.9079 15.3855C53.263 16.0406 53.5608 16.7917 53.9403 17.2758C54.0301 17.4302 54.0546 17.4552 54.1362 17.618C54.3321 18.0686 54.5443 18.5193 54.732 18.8615C54.7728 18.9616 54.7769 18.9616 54.7973 18.9533C54.8299 18.9783 54.8299 18.9408 54.8095 18.8323C54.5687 17.7432 54.0832 16.6499 53.3405 15.4773C53.1528 15.1727 52.8875 14.7512 52.6835 14.4174C51.4062 12.0221 49.7699 10.3071 47.9826 8.82985C47.7378 8.57948 47.5378 8.38335 47.3419 8.2832C47.1012 8.07873 46.8564 7.87843 46.685 7.81167C46.4442 7.61137 46.2565 7.45697 46.0688 7.30257C45.726 7.00212 45.4159 6.72671 45.0731 6.43044C43.6327 5.15353 41.9596 4.18959 40.2376 3.40091C39.4622 3.02535 38.6053 2.76246 37.7851 2.32013C37.1812 1.97378 36.3814 1.64412 36.6425 2.05307C36.6833 2.14487 36.1569 1.9863 35.8305 1.88198C35.2102 1.70254 34.5002 1.44382 33.831 1.30194C33.7616 1.29777 33.631 1.26856 33.5657 1.23518C33.4392 1.17676 33.3046 1.14755 33.1005 1.13503C33.0271 1.1392 32.9291 1.11834 32.7986 1.07243C32.2191 0.880481 31.6315 0.713566 31.0357 0.584206C30.848 0.521612 30.6032 0.467365 30.2686 0.41729C30.2318 0.342178 30.1217 0.283757 29.8075 0.246201C29.6605 0.212818 29.5585 0.196126 29.379 0.179435L29.2729 0.196126C29.2362 0.200299 29.2362 0.200299 29.2362 0.200299C29.2729 0.196126 29.3096 0.18778 29.3749 0.179435C29.3055 0.112668 29.1586 0.0751122 28.8036 0.0709393L28.7669 0.0584206V0.0667664C28.7302 0.0208645 28.5873 0.0041729 28.3343 0C28.265 0.0208645 28.0895 0.0333832 28.0487 0.0166916C27.3836 0.0667664 26.7184 0.166916 26.0573 0.283757C25.6901 0.250374 25.2861 0.271238 24.9148 0.31714C23.3029 0.413117 21.7808 0.655145 20.1731 1.01401L20.1772 1.02653L20.1812 1.03905L20.1731 1.00984C19.4671 1.0015 18.5735 1.40627 17.7737 1.58987C17.4146 1.60239 16.9575 1.76096 16.574 1.91119C16.3332 1.94874 16.0027 2.05724 15.6477 2.19494C15.2274 2.35351 15.3947 2.40359 15.1498 2.52878C14.9621 2.62058 14.7907 2.73742 14.7418 2.80419C14.6316 2.89182 14.1011 3.13385 14.2358 3.18809C14.297 3.234 14.4112 3.24234 14.6805 3.17558C14.7948 3.25903 15.109 3.2173 15.5661 3.08794L15.6517 3.0337L15.6558 3.04204C15.6232 3.05456 15.5905 3.06708 15.5661 3.08794C15.8762 3.14219 16.2189 3.20061 16.5291 3.25486C16.5699 3.36753 16.7005 3.4343 17.1167 3.34666C16.8923 3.48854 16.6678 3.63459 16.4638 3.79316C15.8558 4.15203 15.0356 4.43996 14.6969 4.90733C13.8726 5.52074 12.8973 6.1133 12.2403 6.82686L12.2934 6.78513C11.9057 7.20659 11.2691 7.59467 10.9957 7.98693L10.9917 7.98275C10.8203 8.16636 10.5142 8.40004 10.3469 8.63373L10.2898 8.72553L10.1837 8.81733C9.81236 9.18872 9.43693 9.56428 9.05335 9.94819C8.55551 10.353 8.05361 10.7869 7.66595 11.3711C7.14771 12.0889 6.14794 13.2114 5.58073 14.1169C5.00944 15.0809 4.12802 16.0072 3.81789 17.0213L3.8628 16.9795C3.83831 17.0379 3.83423 17.0338 3.83423 17.0338L3.81789 17.0213C3.23028 18.052 2.70798 19.1327 2.25503 20.2469C1.93266 20.8937 1.67556 21.6198 1.47153 22.4377C1.4144 22.6296 1.3532 22.8216 1.30015 23.0135C0.790068 24.4866 0.373841 26.0639 0.226938 27.6955C0.124922 28.5426 0.0310698 29.2979 0.177973 29.9948C0.198376 30.12 0.190224 30.1867 0.161659 30.2452C0.096369 30.4329 0.0759528 30.6875 0.0718722 31.0046C-0.0995144 31.7683 0.0841161 32.5862 0.124922 33.3707L0.145321 33.3999H0.149405H0.145321C0.14124 33.3999 0.129003 33.3957 0.124922 33.3707C0.0596323 33.6961 0.104512 34.2052 0.194286 34.6392H0.202455C0.157569 34.9355 0.312632 35.4863 0.328954 35.8744C0.361599 35.9662 0.369767 36.058 0.361606 36.1248C0.32488 36.2959 0.361607 36.5796 0.439139 36.9218C0.496268 37.4309 0.622768 37.9609 0.847203 38.3281C0.920654 38.6995 1.01451 39.05 1.17773 39.3504C1.30831 39.7969 1.43073 40.2059 1.55723 40.619C1.81431 41.2449 2.01426 42.1171 2.34479 42.6762C2.4468 42.9391 2.55289 43.2062 2.64267 43.4357C2.83038 43.8947 2.98138 44.3704 3.22213 44.65C3.30375 44.8086 3.38127 44.9671 3.44656 45.0965C3.49961 45.23 3.56082 45.3552 3.64651 45.4721C3.71588 45.5973 3.76486 45.6891 3.83423 45.8101C4.37287 46.9326 4.98497 47.9716 5.695 48.9481C5.88271 49.2068 6.01736 49.3278 6.07041 49.2903C6.12346 49.2527 6.0337 49.0524 5.85415 48.7937C5.31551 47.9299 4.70339 46.9451 4.18107 46.1063C4.00153 45.7642 3.80567 45.3886 3.6098 45.0172C3.09564 44.3203 2.89976 43.3272 2.50802 42.6095L2.51211 42.6846C2.35296 42.2548 2.2183 41.8876 2.05508 41.4577C1.87961 41.1072 1.78166 40.5814 1.62659 40.2226C1.57354 40.0264 1.52051 39.8345 1.46338 39.6425C1.4797 39.6759 1.49603 39.7135 1.51643 39.7427L1.50826 39.7469C1.55315 39.8303 1.58171 39.8846 1.63068 39.968C1.61027 39.8762 1.59803 39.8178 1.58171 39.7302C1.58171 39.7343 1.58171 39.7427 1.58171 39.7469V39.7176C1.58171 39.7218 1.58172 39.726 1.5858 39.7302C1.59804 39.6509 1.56539 39.5132 1.56131 39.3922C1.58172 39.2169 1.50826 38.9164 1.43073 38.6118L1.41442 38.616H1.40625L1.43073 38.6077C1.43481 38.5367 1.42665 38.4491 1.41033 38.3489C1.63885 39.2544 1.92449 40.1474 2.25094 41.0154C2.54067 41.8416 2.96505 42.647 3.23845 43.5525C3.42616 44.2369 3.76486 45.0464 3.8628 44.5665C3.89952 44.4747 4.1566 44.963 4.31574 45.2718C4.62995 45.8476 4.95231 46.5445 5.32773 47.1287C5.37262 47.1788 5.44608 47.2956 5.47057 47.3666C5.51954 47.5001 5.59297 47.6169 5.73171 47.7755C5.78476 47.8256 5.8419 47.9132 5.89903 48.0384C6.72332 49.6909 7.73939 51.2557 9.28595 52.5034C9.48998 52.6912 9.73075 52.9416 9.87765 53.1335C10.1184 53.5341 10.5469 53.9431 10.9509 54.2685C12.1587 55.366 13.3992 56.2966 14.7826 57.2021L14.7907 57.1896L14.7989 57.177L14.7826 57.2021C15.2722 57.7195 16.1863 58.0784 16.8841 58.5249C17.1453 58.7753 17.5778 58.9923 17.9573 59.1633C18.1532 59.3136 18.4633 59.4721 18.8061 59.6349C19.2141 59.8268 19.1284 59.6683 19.3896 59.7601C19.5855 59.831 19.7895 59.8727 19.867 59.8602C20.0058 59.8769 20.5485 60.0897 20.4914 59.9562C20.4832 59.8811 20.4057 59.7893 20.169 59.6432C20.1445 59.5055 19.8956 59.3052 19.4835 59.0632L19.3855 59.0382L19.3896 59.0298C19.4222 59.0423 19.4549 59.059 19.4835 59.059C19.3039 58.7961 19.0999 58.504 18.9203 58.2453C18.9775 58.116 18.9081 57.9407 18.3409 57.611C18.2878 57.4942 18.1695 57.3565 18.1205 57.2313C18.5327 57.4274 18.9856 57.611 19.3814 57.7529C19.8099 57.9031 20.0588 57.8906 20.0915 57.8072C20.1935 57.7154 19.716 57.5359 19.4304 57.3857C19.0876 57.2104 18.8224 57.0143 18.8061 56.91C18.7653 56.7681 19.2631 56.9851 19.512 57.0393C20.3771 57.2563 21.4748 57.8322 22.4583 57.9657C22.9153 58.07 23.4947 58.3496 23.8946 58.2954L23.866 58.2745L23.8987 58.2829L23.8946 58.2954C24.5679 58.4373 25.2575 58.6543 25.8329 58.6417C25.7717 58.6167 25.7146 58.6 25.686 58.5791C25.7187 58.5875 25.7187 58.5875 25.7187 58.5875L25.8329 58.6459C26.445 58.7461 27.1877 58.8838 27.6937 58.8087L27.6325 58.7878L27.6937 58.7961V58.8087C28.6812 58.8546 29.7014 59.13 30.795 58.9171C31.656 58.7836 33.1413 58.7127 34.1697 58.4832C35.2429 58.2161 36.5038 58.1994 37.426 57.7028L37.3648 57.6987C37.4219 57.6736 37.4219 57.682 37.4219 57.682L37.426 57.7028C39.4663 57.1478 41.474 56.3466 43.3511 55.2826C44.5671 54.69 45.7791 53.9764 46.8931 53.1001H46.8971C46.942 53.1502 47.0563 53.1252 47.2807 52.9541L47.3909 52.8164L47.395 52.8205C47.395 52.8205 47.3256 52.8998 47.2807 52.9541C47.3827 52.9541 47.5092 52.9332 47.6643 52.8706C47.3827 53.096 47.0767 53.3881 46.7992 53.5299L46.8237 53.5091C46.5217 53.6802 46.1014 54.014 45.8076 54.135C45.1384 54.3645 44.4488 55.028 43.7102 55.3744C43.547 55.4578 43.3184 55.5705 43.0981 55.6832C42.6859 55.8209 42.1718 56.1964 41.7229 56.3258C41.4944 56.4218 41.323 56.4927 41.1516 56.5636C40.4049 56.9267 39.6704 57.2772 38.8828 57.4483L38.7685 57.4984L38.6788 57.5192C36.3528 58.0993 34.6553 58.7294 32.8598 59.1592C36.2712 58.7961 39.5887 57.7487 42.6411 56.2298C42.8655 56.113 43.0614 56.0128 43.3103 55.8834C43.8734 55.7416 44.4814 55.341 45.0527 54.9404C45.371 54.7359 45.6607 54.5481 45.9831 54.3437C46.2932 54.1851 46.6646 53.893 46.9665 53.7094C47.089 53.6092 47.1665 53.555 47.2481 53.5049C47.5501 53.3755 47.8806 53.0709 48.2234 52.7872C48.3254 52.7079 48.4519 52.6119 48.5253 52.5493C48.6559 52.4617 48.8314 52.3699 48.9334 52.2906C49.0803 52.1445 49.2231 52.0027 49.3659 51.8566C49.4557 51.8232 49.5781 51.7356 49.7781 51.5353L49.8107 51.5144L49.8066 51.5103C49.8638 51.5186 49.9739 51.4226 50.1576 51.2432C50.1943 51.1806 50.3086 51.0429 50.3494 51.0262C51.2961 49.8953 52.1163 48.6184 52.8753 47.354C53.1691 46.9117 53.4303 46.4193 53.6465 45.9686C53.8628 45.6765 54.0587 45.3552 54.1729 45.0423C54.2668 44.9087 54.3606 44.7835 54.4627 44.6625C55.0503 43.1019 55.695 41.4911 55.9235 39.9722C56.1071 39.2795 56.4866 38.4825 56.405 37.9066C56.5642 36.8759 56.8457 35.7534 56.8131 34.7728L56.809 34.8771ZM51.3206 12.8567L51.3042 12.8692C51.3042 12.8692 51.3124 12.865 51.3042 12.8317L51.3206 12.8567ZM15.6028 2.64979C15.5946 2.62893 15.5538 2.61641 15.6436 2.56633C15.6721 2.54129 15.7374 2.52878 15.766 2.50374C15.6844 2.57468 15.5905 2.62893 15.6028 2.64979ZM19.1488 59.3803C19.1407 59.4012 19.1611 59.4388 19.0632 59.4054C19.0264 59.4054 18.9693 59.3636 18.9326 59.3595C19.0387 59.3762 19.1407 59.4054 19.1488 59.3803ZM55.0421 29.5984H55.0299V29.5316L55.0421 29.5984ZM54.8626 33.5584C54.8993 32.9283 54.9523 32.2941 54.8544 31.7265C54.9727 32.2315 54.9034 32.895 54.8626 33.5584ZM54.9074 21.6031C54.8789 21.5739 54.8177 21.4111 54.7809 21.3903C54.7646 21.3193 54.7401 21.2192 54.7238 21.1524C54.7932 21.3152 54.8707 21.5113 54.9074 21.6031ZM54.6748 25.246L54.6871 25.2419C54.6789 25.2794 54.6667 25.3796 54.6422 25.3211C54.6422 25.3211 54.6626 25.2836 54.6748 25.246ZM54.1199 31.2133H54.128L54.1199 31.2467V31.2133ZM53.4751 28.9641C53.4833 29.0893 53.5241 29.1519 53.5078 29.2478C53.4915 29.5024 53.4466 29.2228 53.4099 29.0934C53.4384 29.0893 53.467 29.0893 53.4751 28.9641ZM53.0915 33.404H53.112L53.0997 33.4666C53.0875 33.5 53.0915 33.404 53.0915 33.404ZM47.2073 48.9231C47.2522 48.8354 47.3012 48.7436 47.3501 48.656C47.3787 48.2262 47.9132 47.4625 48.3172 46.5862C48.154 47.2205 47.7296 47.9508 47.3501 48.656C47.346 48.6935 47.3256 48.7436 47.3297 48.7728C47.3134 48.802 47.2726 48.8521 47.2073 48.9231ZM10.9957 48.4891C10.9631 48.4682 10.9223 48.4223 10.8896 48.4098L10.8856 48.414L10.8692 48.3931C10.8039 48.3263 10.8243 48.3514 10.8039 48.3263L10.808 48.3222C10.808 48.3222 10.8325 48.343 10.8692 48.3889C10.8937 48.4056 10.8937 48.4056 10.8937 48.4056L10.9468 48.439C10.9631 48.4599 10.9794 48.4724 10.9957 48.4891ZM6.04593 46.9868C6.02552 46.9618 6.00919 46.9409 6.00919 46.9409C6.06224 46.9743 6.08265 46.9576 6.07041 46.895C6.06633 46.8867 6.05818 46.8783 6.0541 46.87C6.06226 46.8783 6.06633 46.8867 6.07449 46.895C5.81333 46.3818 5.58889 45.6974 5.80924 45.7642C6.07448 46.1523 6.35605 46.7156 6.6825 47.1037C6.82941 47.3248 6.99671 47.5752 7.16402 47.8214C7.4211 48.464 7.47006 48.5892 7.33948 48.7812C7.18034 48.5016 6.95183 48.2178 6.70699 47.8757C6.60089 47.5627 6.31932 47.2414 6.06632 46.8992C6.08265 46.9576 6.06633 46.9701 6.04593 46.9868ZM6.82532 37.6103L6.84982 37.6062V37.6687L6.82532 37.6103ZM6.45399 39.3379C6.40502 39.292 6.37237 39.2795 6.3438 39.2753C6.31524 39.4464 6.27036 39.5883 6.20099 39.6717C6.23364 39.5048 6.22547 39.2544 6.3438 39.2753C6.36013 39.171 6.38054 39.0625 6.37646 38.9248C6.42951 39.0959 6.39278 39.171 6.45399 39.3379ZM5.55216 44.4247C5.55216 44.4247 5.53586 44.3955 5.52362 44.3662C5.60115 44.5123 5.72764 44.7043 5.81741 44.8044L5.79701 44.8169C5.72356 44.7084 5.65418 44.5958 5.55216 44.4247ZM5.10739 41.6998C5.0421 41.5871 5.00944 41.5329 4.99312 41.5036C4.97271 41.4452 4.95231 41.3826 4.94007 41.3492C4.98495 41.441 5.05434 41.5829 5.10739 41.6998ZM4.22596 37.9567C4.20147 37.9609 4.16069 37.9066 4.11988 37.819C4.11988 37.819 4.11987 37.819 4.10763 37.7564C4.14027 37.8482 4.19331 37.965 4.22596 37.9567ZM1.66333 35.5614C1.64293 35.5322 1.62251 35.4488 1.62251 35.4488H1.63068C1.64292 35.5322 1.65109 35.5322 1.66333 35.5614ZM2.39784 38.3239C2.34479 38.3406 2.37337 38.52 2.43458 38.7537C2.37337 38.616 2.30398 38.4783 2.28765 38.2905C2.2999 38.1987 2.35703 38.2738 2.39784 38.3239ZM3.74853 36.7173C3.68324 36.6005 3.61794 36.4461 3.56081 36.1289C3.6261 36.3793 3.68732 36.5629 3.74853 36.7173ZM3.95664 38.2571C3.94032 38.061 3.91584 37.9024 3.98521 37.8857C3.92808 37.8983 3.93624 38.061 3.95664 38.2571ZM1.28383 29.1936L1.27975 29.252H1.2675V29.2228C1.27158 29.1936 1.27158 29.1936 1.27158 29.1936H1.28383ZM1.11243 30.3662V30.3954C1.10835 30.4037 1.10837 30.4163 1.10428 30.4288C1.08388 30.5873 1.07164 30.7167 1.05532 30.8544C1.05124 30.8961 1.05123 30.9337 1.04715 30.9754C1.04715 30.9128 1.04715 30.9128 1.04715 30.9128C1.05123 30.892 1.05124 30.8711 1.05532 30.8502C1.06348 30.6833 1.07572 30.5456 1.10428 30.4246C1.10837 30.4079 1.11243 30.387 1.11243 30.3662ZM0.643171 34.9564C0.667655 34.9605 0.692132 34.948 0.712535 34.923C0.720696 35.019 0.728856 35.0774 0.737018 35.1734C0.712534 35.0899 0.675816 35.0231 0.643171 34.9564C0.56972 34.948 0.488104 34.8187 0.410572 34.6851C0.488104 34.7394 0.56972 34.8354 0.643171 34.9564ZM4.30349 42.8139C4.3647 42.9683 4.40144 43.0601 4.45041 43.1853C4.4953 43.3481 4.56466 43.5025 4.6177 43.5859L4.61362 43.515C4.66667 43.6735 4.71564 43.7987 4.77277 43.9198C4.98496 44.3746 5.37672 45.0423 5.11555 44.9505C5.0421 44.9212 5.01352 44.9421 5.0176 45.0089C4.94007 44.8503 4.85846 44.6917 4.78908 44.5457L4.785 44.5499C4.785 44.3329 4.4912 43.949 4.35245 43.611C4.30757 43.3564 4.23006 43.081 4.0954 42.7639C4.18925 42.8724 4.2586 42.8765 4.30349 42.8139ZM11.4976 10.4406C11.5017 10.4364 11.5017 10.4322 11.5058 10.4281C11.5058 10.4322 11.5017 10.4364 11.4976 10.4406ZM30.6195 4.41075L30.6154 4.44831C30.6114 4.48169 30.4644 4.45666 30.4604 4.47752C30.4644 4.44414 30.6154 4.44414 30.6195 4.41075ZM28.7506 4.14786C28.6894 4.13951 28.7506 4.14369 28.722 4.13951C28.6894 4.13951 28.571 4.13951 28.571 4.13951L28.6322 4.13117C28.7546 4.10613 28.9628 4.10196 29.1464 4.10613C29.0525 4.13534 28.8159 4.11865 28.7506 4.14786ZM29.1464 4.43579C29.1464 4.43996 29.1138 4.44414 29.0525 4.43579C29.024 4.43996 29.024 4.43996 29.024 4.43996L28.9628 4.45666C28.9383 4.45666 28.9179 4.46083 28.8975 4.46083C28.9342 4.45248 28.9995 4.45666 29.0281 4.44414V4.43579L29.0566 4.43996C29.1464 4.43579 29.1178 4.43579 29.1464 4.43579ZM49.2843 41.4452C49.2966 41.3826 49.3455 41.3117 49.37 41.2908L49.3864 41.2992C49.3537 41.3492 49.2762 41.537 49.2843 41.4452ZM49.3496 41.6455L49.3251 41.6914L49.3292 41.6372C49.3211 41.6455 49.3129 41.658 49.3047 41.6664C49.3047 41.6622 49.3047 41.6539 49.3047 41.6455C49.3129 41.6497 49.3251 41.633 49.3374 41.6121C49.3333 41.6205 49.3292 41.6247 49.3251 41.633L49.3496 41.6455ZM52.2469 33.1954C52.2346 33.283 52.2305 33.3164 52.2142 33.4333C52.2142 33.3122 52.1938 33.3122 52.1897 33.2789C52.2142 33.1912 52.2306 33.2246 52.2469 33.1954ZM51.696 18.6695C51.7041 18.6821 51.7001 18.6779 51.7123 18.7071L51.696 18.6779C51.696 18.6695 51.696 18.6695 51.696 18.6695C51.6797 18.6403 51.6674 18.6111 51.6593 18.5903C51.6429 18.5235 51.6388 18.4943 51.6388 18.4943C51.6429 18.5193 51.6593 18.5861 51.696 18.6695ZM51.5695 15.8361C51.5817 15.857 51.5817 15.857 51.5817 15.857C51.5777 15.8487 51.5736 15.8403 51.5695 15.8361C51.5695 15.8361 51.5695 15.8361 51.5654 15.832L51.5491 15.8028C51.5491 15.8028 51.5613 15.8153 51.5695 15.8361ZM51.1777 15.4773L51.1655 15.4856C51.1655 15.4856 51.1655 15.4856 51.1492 15.4564C51.1737 15.4815 51.1777 15.4773 51.1777 15.4773ZM42.7023 7.82001C42.4819 7.69065 42.3146 7.60302 42.1636 7.54043C42.2901 7.58216 42.4452 7.6364 42.7023 7.82001ZM41.0088 7.00212C41.0414 7.00212 41.0823 7.01047 41.1394 7.03133C41.1394 7.03133 41.1394 7.03133 41.1924 7.06889C41.1312 7.03968 41.0537 7.01047 41.0088 7.00212ZM41.1924 6.88111C41.221 6.83521 41.1067 6.72671 40.9557 6.60152C41.1026 6.72671 41.2251 6.82269 41.1924 6.88111ZM37.9728 5.05755C38.0299 5.08676 38.0871 5.1118 38.1156 5.12849C38.0259 5.09511 37.879 5.04503 37.7565 5.0033C37.883 5.03252 37.9402 5.04921 37.9728 5.05755ZM35.1164 3.28824C35.2429 3.31745 35.3694 3.34666 35.5612 3.38839C35.5612 3.38839 35.5938 3.39674 35.6224 3.40926C35.4673 3.36336 35.2429 3.31745 35.1123 3.30911L35.1164 3.28824ZM29.7544 0.25872C29.7258 0.267065 29.7095 0.275411 29.6606 0.283757V0.271238L29.7544 0.25872ZM24.9597 0.421463C24.9597 0.421463 24.9597 0.421463 25.025 0.425636C24.9597 0.429808 24.8209 0.433981 24.7516 0.438154L24.9597 0.421463ZM5.65418 14.6886C5.65418 14.7178 5.65012 14.7595 5.65012 14.7971C5.65012 14.7971 5.65012 14.7971 5.65012 14.8013C5.64196 14.7721 5.64193 14.7387 5.65418 14.6886ZM5.61338 14.8597C5.61338 14.8639 5.6093 14.8639 5.6093 14.868C5.57665 14.8806 5.53584 14.9056 5.49911 14.9223C5.544 14.8931 5.58074 14.8806 5.61338 14.8597ZM0.300387 32.6029C0.288145 32.6446 0.275901 32.6821 0.247336 32.6488C0.247336 32.6488 0.247357 32.6488 0.243277 32.5862C0.271841 32.6529 0.288145 32.6362 0.300387 32.6029ZM0.965532 37.9775C0.965532 37.9817 0.969617 37.9817 0.969617 37.9859H0.965532C0.965532 37.9859 0.965532 37.9817 0.965532 37.9775ZM3.91585 43.878C3.83832 43.6861 3.76484 43.4983 3.69139 43.3063C3.72404 43.3522 3.75262 43.3981 3.78526 43.4399C3.80567 43.5817 3.90361 43.7987 3.99338 43.9907C3.9689 43.9573 3.94441 43.9156 3.91585 43.878ZM5.8419 47.6503C5.35222 46.9409 4.93191 46.1439 4.68707 45.3761C4.6585 45.2801 4.62177 45.1841 4.58097 45.0882C4.66666 45.23 4.74828 45.3719 4.79317 45.5013C4.85846 45.7183 5.07474 46.0229 5.23388 46.2858C5.27061 46.3359 5.32367 46.3734 5.36855 46.4193C5.96841 47.2497 6.50296 48.1219 7.2742 48.8688C7.25788 48.8897 7.24155 48.9105 7.22115 48.9356C7.0008 49.1025 6.40502 48.3514 5.8419 47.6503ZM7.51903 42.0795C7.67001 42.0712 7.71081 41.8625 7.64144 41.4828C7.68633 41.7165 7.73122 41.9501 7.77203 42.1504C7.87404 42.5636 7.65369 42.2464 7.51903 42.0795ZM7.85364 47.2581C7.88629 47.2748 7.81692 47.1287 7.90261 47.2247C7.9883 47.3207 7.92302 47.2915 7.96383 47.3791C7.93935 47.354 7.89445 47.3081 7.85364 47.2581ZM9.74706 47.2789L9.77563 47.2539C9.80012 47.233 9.88989 47.3582 9.90622 47.3457C9.88173 47.3666 9.77155 47.2581 9.74706 47.2789ZM10.5795 48.5558C10.6611 48.6059 10.8203 48.7895 10.8856 48.8146C10.9264 48.8646 10.8815 48.8187 10.9019 48.8396C10.9223 48.8605 11.008 48.9481 11.008 48.9481L10.959 48.9105C10.8611 48.8396 10.706 48.6935 10.5795 48.5558ZM10.9917 54.1934C10.9917 54.1934 10.9917 54.1934 10.9468 54.1434C10.9957 54.1893 11.0978 54.2811 11.1467 54.3311L10.9917 54.1934ZM12.1179 53.6969C12.122 53.6885 12.1097 53.6718 12.1097 53.6635C11.918 53.4465 11.8078 53.2629 11.6241 53.05L11.567 53.0125C11.567 53.0125 11.5997 53.025 11.5752 53.0041C11.5997 53.025 11.5997 53.025 11.6282 53.05C12.0771 53.4173 12.1383 53.5633 12.1138 53.6635C12.1506 53.7052 12.171 53.7428 12.2158 53.7887C12.1669 53.7428 12.1669 53.7428 12.1179 53.6969ZM14.1378 50.2333C14.2521 50.2792 14.2806 50.2876 14.3623 50.321C14.3215 50.3251 14.3745 50.3961 14.3827 50.4295C14.297 50.3544 14.2154 50.3168 14.1378 50.2333ZM15.6068 53.6092L15.615 53.5967L15.6354 53.6217C15.6069 53.6092 15.6068 53.6092 15.6068 53.6092ZM18.6184 53.8512C18.753 53.9097 18.7857 53.8972 18.8754 53.9222C18.7897 53.8972 18.7693 53.9347 18.6184 53.8512ZM20.0915 54.6441C20.12 54.6566 20.12 54.6524 20.12 54.6524V54.6566L20.0915 54.6441C20.0711 54.6399 20.0588 54.6399 20.0384 54.6358C19.9201 54.6942 19.6834 54.6399 19.4182 54.5398C19.3039 54.5106 19.1856 54.4647 19.0387 54.3812C19.0224 54.3729 19.0142 54.377 18.9979 54.3645C18.8918 54.3144 18.8918 54.3144 18.8142 54.2769C18.8877 54.3103 18.9652 54.3436 19.0387 54.377C19.1652 54.4355 19.2958 54.4897 19.4182 54.5356C19.6304 54.5899 19.8099 54.5815 20.0384 54.6316C20.0466 54.6274 20.0588 54.6316 20.067 54.6274C20.0792 54.6274 20.0588 54.6149 20.0711 54.6149C19.9854 54.5189 19.9201 54.4438 19.8344 54.3437C19.8221 54.3353 19.8099 54.327 19.7977 54.3186C19.8222 54.3311 19.8222 54.3311 19.8222 54.3311C19.8099 54.3144 19.7732 54.2852 19.7568 54.2644C19.4712 54.0724 19.2019 53.8763 18.9938 53.6843L18.9856 53.6969C18.6959 53.5132 18.3572 53.2962 18.3572 53.2962C18.3572 53.2962 18.6714 53.4924 18.9122 53.6426C18.9611 53.6718 18.9611 53.6718 18.9897 53.6843C19.3896 53.9013 19.6222 54.1058 19.7528 54.2644C19.7977 54.2936 19.8262 54.327 19.8711 54.3562C19.8711 54.3562 19.8711 54.3562 19.8181 54.3311C19.8221 54.3353 19.8262 54.3395 19.8303 54.3437C20.0221 54.4688 20.2098 54.5899 20.067 54.6149C20.0792 54.6316 20.0833 54.6357 20.0915 54.6441ZM20.8219 54.7735L20.5077 54.6358C20.6138 54.6775 20.7403 54.7484 20.8831 54.786C20.879 54.7818 20.8505 54.7776 20.8219 54.7735ZM22.4419 56.9267L22.446 56.9183V56.9142L22.4419 56.9267ZM23.9844 56.1797C24.017 56.163 23.9109 56.1297 23.915 56.1088C23.9395 56.1338 23.9885 56.1672 24.0701 56.2048C24.013 56.1881 24.013 56.1881 23.9844 56.1797ZM26.1227 56.6888V56.6805L26.1798 56.7055L26.1227 56.6888ZM27.5223 56.8933C27.3836 56.8182 27.2203 56.7431 27.0571 56.6805C27.1714 56.6888 27.3999 56.7013 27.6039 56.7139C27.7141 56.7765 27.7916 56.839 27.5223 56.8933ZM29.7503 55.0864C29.7789 55.1073 29.8564 55.124 29.9666 55.149C29.9666 55.149 29.9911 55.1699 30.0441 55.1782V55.1866C29.9911 55.1699 29.9666 55.149 29.9666 55.149C29.8319 55.1198 29.7789 55.1115 29.7014 55.0948C29.7503 55.0948 29.7503 55.0864 29.7503 55.0864ZM30.036 55.5246C30.0645 55.5246 30.0645 55.5246 30.0645 55.5246C30.036 55.5454 29.9544 55.5663 29.8728 55.583C29.9544 55.5663 29.9788 55.5454 30.036 55.5246ZM34.6145 57.9616C34.6104 57.9657 34.6022 57.9699 34.5981 57.9782C34.5859 58.0075 34.5573 58.0367 34.5084 58.0659C34.5328 58.045 34.5696 58.0075 34.5981 57.9782C34.6063 57.9616 34.6104 57.9449 34.6063 57.9282C34.6104 57.9657 34.7042 57.9866 34.7736 58.0116C34.7124 57.9949 34.6757 57.9657 34.6145 57.9616ZM37.0139 55.0948C36.9037 55.1323 36.7609 55.1949 36.7445 55.1365C36.6915 55.1532 36.7405 55.1156 36.6589 55.1323C36.6629 55.1282 36.667 55.124 36.6711 55.1198C36.6915 55.1115 36.716 55.1031 36.7364 55.0948L36.7486 55.1365L36.9159 55.1156C36.9445 55.1073 36.9771 55.1031 37.0139 55.0948C37.0343 55.0906 37.0547 55.0781 37.071 55.0739V55.0823C37.0628 55.0823 37.0343 55.0906 37.0139 55.0948ZM42.5594 52.4951C42.184 52.6787 41.8535 52.8164 41.727 52.7454C41.5434 52.687 41.9229 52.47 42.2371 52.2614C42.3717 52.1696 42.5472 52.036 42.4452 52.0193C42.2248 52.0652 41.9229 52.3031 41.7596 52.2822C42.0371 52.0611 42.4003 51.9359 42.6941 51.6939C42.6247 51.7105 42.5798 51.7189 42.5594 51.7064C42.5472 51.7105 42.535 51.7147 42.5227 51.7189C42.5472 51.7022 42.5472 51.7022 42.5472 51.7022C42.5472 51.7064 42.5554 51.7022 42.5594 51.7064C42.6247 51.6855 42.6819 51.6688 42.6941 51.6939C42.7349 51.6521 42.8002 51.6104 42.8777 51.5812C43.2613 51.431 43.6612 51.0554 44.0652 50.876C44.6242 50.5922 45.0568 50.1707 45.5179 49.7076L45.5424 49.6909L45.5832 49.6533C45.5628 49.67 45.5628 49.67 45.5628 49.67C45.9015 49.1901 45.4526 49.5824 45.1751 49.791L45.0527 49.8912L44.9792 49.9329C44.7548 49.9913 44.3631 50.3627 44.1386 50.4128C45.0894 49.6366 46.0688 48.8521 46.9012 47.9383C46.9584 47.8798 47.0196 47.8172 47.0849 47.7546C47.0767 47.7713 47.0686 47.7839 47.0686 47.7922C47.0114 47.9049 47.1093 47.8298 47.1828 47.7296C47.2399 47.6587 47.2889 47.5794 47.2889 47.5794C47.2848 47.5752 47.2767 47.571 47.2726 47.5669C47.4277 47.4041 47.5582 47.2497 47.5623 47.1287C47.5827 46.9743 47.6643 46.8074 47.7786 46.628C47.9989 46.5195 48.3254 46.1898 48.4723 46.2232C48.3458 46.436 48.2886 46.5528 48.3009 46.6363C47.8316 47.2956 47.7051 47.6295 47.444 48.1093C47.191 48.5558 47.1134 48.8688 46.689 49.4196C46.4605 49.6825 46.2524 49.9412 46.0525 50.2C45.9953 50.2417 45.9423 50.2834 45.8852 50.321C44.8364 51.1263 43.7061 51.8274 42.5594 52.4951ZM43.7877 52.2614C43.8122 52.2447 43.9101 52.1863 43.9101 52.1863C43.9468 52.1779 43.9836 52.1529 44.0203 52.132C44.0734 52.0986 44.1264 52.0694 44.1631 52.0652C44.1142 52.0778 44.0693 52.107 44.0203 52.132C43.9469 52.1821 43.8652 52.2322 43.7877 52.2614Z" fill="#FAAE5D"/>
<path fill-rule="evenodd" clip-rule="evenodd" d="M66.9162 51.1134C66.9162 51.1062 66.9162 51.0989 66.9162 51.0917C66.9699 50.759 67.0183 50.4226 66.9932 50.0646C66.9807 50.0899 66.9735 50.1189 66.9646 50.1478C66.9681 50.0755 66.9699 50.0013 66.961 49.938L66.952 49.891L66.9574 49.8295C66.961 49.5511 66.9646 49.2744 66.9663 48.9797C66.9574 48.9345 66.9502 48.8892 66.9359 48.8115C66.8608 48.0141 66.7212 47.1823 66.51 46.4047C66.4885 46.345 66.4616 46.2763 66.4455 46.2311C66.2505 45.5602 66.0339 44.9491 65.7654 44.2746C65.7404 44.2366 65.6956 44.1733 65.6706 44.1353C65.6419 44.0648 65.6205 44.0088 65.5972 43.9545C65.5811 43.8478 65.5238 43.7411 65.4451 43.6272C65.2267 43.2149 65.0477 42.7611 64.7721 42.4717C64.3927 41.9998 63.9703 41.3886 63.5157 40.9329C63.2938 40.6942 63.1649 40.4483 62.9376 40.2313C62.7175 40.0324 62.6799 40.1102 62.3631 39.8462C62.0231 39.5876 61.6937 39.291 61.3268 39.0234L61.3054 39.0523C61.3 39.0343 61.2857 39.0071 61.3268 39.0234L61.1837 38.9221L61.1622 38.9511C61.0065 38.8426 60.8633 38.7413 60.7183 38.6401C60.6772 38.6238 60.6091 38.5948 60.5537 38.5731L60.5018 38.5478L60.4695 38.5189C60.3425 38.4176 60.1599 38.3562 60.0937 38.2694C60.1778 38.2694 60.4534 38.4339 60.4785 38.3923C59.9702 38.0741 59.6516 37.9493 59.4351 37.962C59.3348 37.9041 59.1935 37.83 59.2042 37.8083C59.2865 37.7395 59.0628 37.6636 58.7729 37.5641C58.5366 37.4864 58.4668 37.5081 58.474 37.5659C58.4078 37.537 58.3684 37.5207 58.3147 37.499C58.2521 37.4629 58.184 37.4376 58.1411 37.4285L58.1643 37.4484C58.0999 37.4159 58.0462 37.3924 57.9925 37.3743C57.7885 37.3019 57.4663 37.2188 57.5737 37.1663C57.6596 37.1302 57.5272 37.0705 57.2892 36.9963C57.0923 36.9403 56.9026 36.8517 56.6878 36.8734C56.9258 36.9493 57.2015 37.0868 57.112 37.1374C57.01 37.1193 56.8918 37.0886 56.7719 37.0596C56.7039 36.9945 56.6502 36.9313 56.541 36.8643C56.516 36.83 56.4873 36.8011 56.3728 36.7721C56.3585 36.6926 56.3012 36.6112 56.1759 36.5334C56.2887 36.5407 56.4104 36.5533 56.5303 36.566C56.8972 36.6293 57.2695 36.7414 57.5773 36.9005C57.776 37.0054 58.0319 37.0813 58.2682 37.1193C58.5957 37.2604 58.9071 37.3924 59.2346 37.5334C60.04 37.9077 60.7989 38.3417 61.5058 38.7757L61.4915 38.7684C61.9014 39.0252 62.2557 39.4013 62.653 39.7015C62.807 39.801 62.9895 39.9836 63.1667 40.1698C63.2222 40.2223 63.2884 40.2856 63.3528 40.3489C63.4781 40.461 63.6088 40.6092 63.7305 40.7449C64.1099 41.2168 64.4732 41.6291 64.7918 42.0775C64.7739 42.0341 64.7739 42.0341 64.7632 42.007C64.7632 42.007 64.7632 42.007 64.7793 42.0323L64.7918 42.0775C64.8956 42.2312 65.0101 42.4265 65.1068 42.5115L65.1605 42.5875L65.2052 42.667C65.3609 42.9509 65.4916 43.2764 65.658 43.4862C65.6974 43.5531 65.7081 43.5639 65.7439 43.6345C65.8299 43.8297 65.9229 44.025 66.0053 44.1733C66.0231 44.2167 66.0249 44.2167 66.0339 44.2131C66.0482 44.2239 66.0482 44.2077 66.0393 44.1607C65.9337 43.6887 65.7207 43.2149 65.395 42.7068C65.3126 42.5748 65.1963 42.3922 65.1068 42.2475C64.5466 41.2096 63.8289 40.4664 63.045 39.8263C62.9376 39.7178 62.8499 39.6328 62.764 39.5894C62.6584 39.5008 62.551 39.414 62.4759 39.3851C62.3703 39.2983 62.2879 39.2314 62.2056 39.1644C62.0553 39.0343 61.9193 38.9149 61.7689 38.7865C61.1371 38.2332 60.4033 37.8155 59.648 37.4737C59.308 37.311 58.9322 37.1971 58.5724 37.0054C58.3075 36.8553 57.9567 36.7125 58.0713 36.8897C58.0892 36.9294 57.8583 36.8607 57.7151 36.8155C57.4431 36.7378 57.1317 36.6257 56.8381 36.5642C56.8077 36.5624 56.7504 36.5497 56.7218 36.5352C56.6663 36.5099 56.6073 36.4973 56.5178 36.4918C56.4856 36.4937 56.4426 36.4846 56.3853 36.4647C56.1312 36.3815 55.8735 36.3092 55.6122 36.2532C55.5298 36.226 55.4224 36.2025 55.2757 36.1808C55.2596 36.1483 55.2113 36.123 55.0734 36.1067C55.009 36.0922 54.9643 36.085 54.8855 36.0778L54.839 36.085C54.8229 36.0868 54.8229 36.0868 54.8229 36.0868C54.839 36.085 54.8551 36.0814 54.8837 36.0778C54.8533 36.0488 54.7889 36.0325 54.6332 36.0307L54.6171 36.0253V36.0289C54.601 36.009 54.5383 36.0018 54.4273 36C54.3969 36.009 54.32 36.0145 54.3021 36.0072C54.0103 36.0289 53.7186 36.0723 53.4287 36.123C53.2676 36.1085 53.0904 36.1175 52.9275 36.1374C52.2206 36.179 51.553 36.2839 50.8478 36.4394L50.8496 36.4448L50.8514 36.4503L50.8478 36.4376C50.5382 36.434 50.1463 36.6094 49.7955 36.6889C49.638 36.6944 49.4375 36.7631 49.2693 36.8282C49.1637 36.8445 49.0187 36.8915 48.863 36.9511C48.6787 37.0199 48.752 37.0416 48.6447 37.0958C48.5623 37.1356 48.4872 37.1862 48.4657 37.2151C48.4174 37.2531 48.1847 37.358 48.2438 37.3815C48.2706 37.4014 48.3207 37.405 48.4388 37.3761C48.4889 37.4122 48.6268 37.3942 48.8272 37.3381L48.8648 37.3146L48.8666 37.3182C48.8523 37.3236 48.838 37.3291 48.8272 37.3381C48.9632 37.3616 49.1136 37.3869 49.2496 37.4104C49.2675 37.4593 49.3248 37.4882 49.5073 37.4502C49.4089 37.5117 49.3105 37.575 49.221 37.6437C48.9543 37.7992 48.5945 37.924 48.446 38.1265C48.0845 38.3923 47.6567 38.6491 47.3686 38.9583L47.3918 38.9402C47.2218 39.1229 46.9426 39.291 46.8227 39.461L46.8209 39.4592C46.7457 39.5388 46.6115 39.64 46.5381 39.7413L46.5131 39.7811L46.4665 39.8208C46.3037 39.9818 46.139 40.1445 45.9708 40.3109C45.7524 40.4863 45.5323 40.6743 45.3623 40.9275C45.135 41.2385 44.6965 41.7249 44.4477 42.1173C44.1971 42.535 43.8105 42.9365 43.6745 43.3759L43.6942 43.3578C43.6835 43.3831 43.6817 43.3813 43.6817 43.3813L43.6745 43.3759C43.4168 43.8225 43.1877 44.2909 42.989 44.7737C42.8477 45.0539 42.7349 45.3686 42.6454 45.723C42.6203 45.8062 42.5935 45.8894 42.5702 45.9725C42.3465 46.6108 42.164 47.2944 42.0995 48.0014C42.0548 48.3685 42.0136 48.6958 42.0781 48.9977C42.087 49.052 42.0834 49.0809 42.0709 49.1062C42.0423 49.1876 42.0333 49.2979 42.0315 49.4353C41.9564 49.7663 42.0369 50.1207 42.0548 50.4606L42.0637 50.4733H42.0655H42.0637C42.0619 50.4733 42.0566 50.4715 42.0548 50.4606C42.0262 50.6017 42.0458 50.8223 42.0852 51.0103H42.0888C42.0691 51.1387 42.1371 51.3774 42.1443 51.5456C42.1586 51.5854 42.1622 51.6251 42.1586 51.6541C42.1425 51.7282 42.1586 51.8512 42.1926 51.9994C42.2177 52.2201 42.2731 52.4497 42.3716 52.6088C42.4038 52.7698 42.445 52.9217 42.5165 53.0519C42.5738 53.2453 42.6275 53.4225 42.683 53.6016C42.7957 53.8728 42.8834 54.2507 43.0284 54.493C43.0732 54.607 43.1197 54.7227 43.1591 54.8221C43.2414 55.021 43.3076 55.2272 43.4132 55.3483C43.449 55.4171 43.483 55.4858 43.5117 55.5418C43.5349 55.5997 43.5618 55.6539 43.5993 55.7046C43.6298 55.7588 43.6513 55.7986 43.6817 55.851C43.9179 56.3375 44.1864 56.7877 44.4978 57.2108C44.5801 57.323 44.6392 57.3754 44.6625 57.3591C44.6857 57.3428 44.6464 57.256 44.5676 57.1439C44.3314 56.7696 44.0629 56.3429 43.8338 55.9794C43.7551 55.8311 43.6692 55.6684 43.5832 55.5075C43.3577 55.2055 43.2718 54.7751 43.1 54.4641L43.1018 54.4966C43.032 54.3104 42.9729 54.1513 42.9014 53.965C42.8244 53.8131 42.7814 53.5853 42.7134 53.4298C42.6902 53.3448 42.6669 53.2616 42.6418 53.1784C42.649 53.1929 42.6562 53.2092 42.6651 53.2218L42.6615 53.2236C42.6812 53.2598 42.6937 53.2833 42.7152 53.3195C42.7063 53.2797 42.7009 53.2544 42.6937 53.2164C42.6937 53.2182 42.6937 53.2218 42.6937 53.2236V53.211C42.6937 53.2128 42.6937 53.2146 42.6955 53.2164C42.7009 53.182 42.6866 53.1224 42.6848 53.0699C42.6937 52.994 42.6615 52.8638 42.6275 52.7318L42.6204 52.7336H42.6168L42.6275 52.73C42.6293 52.6992 42.6257 52.6613 42.6186 52.6179C42.7188 53.0103 42.8441 53.3972 42.9873 53.7733C43.1143 54.1314 43.3005 54.4804 43.4204 54.8728C43.5027 55.1693 43.6513 55.5201 43.6942 55.3122C43.7103 55.2724 43.8231 55.484 43.8929 55.6178C44.0307 55.8673 44.1721 56.1693 44.3367 56.4224C44.3564 56.4441 44.3886 56.4948 44.3994 56.5255C44.4208 56.5834 44.4531 56.634 44.5139 56.7027C44.5372 56.7244 44.5622 56.7624 44.5873 56.8166C44.9488 57.5327 45.3945 58.2108 46.0728 58.7515C46.1623 58.8328 46.2679 58.9413 46.3323 59.0245C46.4379 59.1981 46.6258 59.3753 46.803 59.5164C47.3328 59.9919 47.8768 60.3952 48.4836 60.7876L48.4872 60.7821L48.4907 60.7767L48.4836 60.7876C48.6983 61.0118 49.0993 61.1673 49.4053 61.3608C49.5198 61.4693 49.7096 61.5633 49.876 61.6374C49.9619 61.7025 50.0979 61.7713 50.2483 61.8418C50.4273 61.925 50.3897 61.8563 50.5042 61.896C50.5901 61.9268 50.6796 61.9449 50.7136 61.9394C50.7745 61.9467 51.0125 62.0389 50.9874 61.981C50.9839 61.9485 50.9499 61.9087 50.8461 61.8454C50.8353 61.7857 50.7261 61.6989 50.5454 61.5941L50.5024 61.5832L50.5042 61.5796C50.5185 61.585 50.5328 61.5922 50.5454 61.5922C50.4666 61.4783 50.3771 61.3517 50.2984 61.2396C50.3234 61.1836 50.293 61.1076 50.0442 60.9648C50.021 60.9141 49.9691 60.8545 49.9476 60.8002C50.1284 60.8852 50.327 60.9648 50.5006 61.0263C50.6886 61.0914 50.7977 61.0859 50.812 61.0498C50.8568 61.01 50.6474 60.9322 50.5221 60.8671C50.3718 60.7912 50.2554 60.7062 50.2483 60.661C50.2304 60.5995 50.4487 60.6935 50.5579 60.717C50.9373 60.8111 51.4188 61.0606 51.8501 61.1185C52.0506 61.1637 52.3047 61.2848 52.4801 61.2613L52.4676 61.2523L52.4819 61.2559L52.4801 61.2613C52.7754 61.3228 53.0779 61.4168 53.3302 61.4114C53.3034 61.4006 53.2783 61.3933 53.2658 61.3843C53.2801 61.3879 53.2801 61.3879 53.2801 61.3879L53.3302 61.4132C53.5987 61.4566 53.9244 61.5163 54.1464 61.4837L54.1195 61.4747L54.1464 61.4783V61.4837C54.5795 61.5036 55.0269 61.623 55.5066 61.5308C55.8842 61.4729 56.5357 61.4422 56.9867 61.3427C57.4574 61.227 58.0104 61.2197 58.4149 61.0046L58.3881 61.0028C58.4131 60.9919 58.4131 60.9955 58.4131 60.9955L58.4149 61.0046C59.3098 60.7641 60.1903 60.4169 61.0136 59.9558C61.547 59.699 62.0785 59.3898 62.5671 59.0101H62.5689C62.5886 59.0318 62.6387 59.0209 62.7372 58.9468L62.7855 58.8871L62.7873 58.8889C62.7873 58.8889 62.7568 58.9233 62.7372 58.9468C62.7819 58.9468 62.8374 58.9377 62.9054 58.9106C62.7819 59.0082 62.6477 59.1348 62.526 59.1963L62.5367 59.1873C62.4043 59.2614 62.2199 59.4061 62.0911 59.4585C61.7975 59.558 61.4951 59.8455 61.1711 59.9956C61.0995 60.0317 60.9993 60.0805 60.9027 60.1294C60.7219 60.189 60.4964 60.3518 60.2995 60.4078C60.1993 60.4494 60.1241 60.4802 60.049 60.5109C59.7214 60.6682 59.3993 60.8201 59.0539 60.8943L59.0037 60.916L58.9644 60.925C57.9442 61.1763 57.1997 61.4494 56.4122 61.6356C57.9084 61.4783 59.3635 61.0245 60.7022 60.3662C60.8007 60.3156 60.8866 60.2722 60.9957 60.2162C61.2427 60.1547 61.5094 59.9811 61.76 59.8075C61.8996 59.7189 62.0266 59.6375 62.168 59.5489C62.304 59.4802 62.4669 59.3536 62.5994 59.2741C62.6531 59.2307 62.6871 59.2072 62.7229 59.1855C62.8553 59.1294 63.0003 58.9974 63.1506 58.8744C63.1953 58.8401 63.2508 58.7985 63.283 58.7714C63.3403 58.7334 63.4173 58.6936 63.462 58.6593C63.5264 58.596 63.5891 58.5345 63.6517 58.4712C63.6911 58.4567 63.7448 58.4188 63.8325 58.332L63.8468 58.3229L63.845 58.3211C63.8701 58.3247 63.9184 58.2831 63.9989 58.2054C64.015 58.1783 64.0652 58.1186 64.0831 58.1114C64.4983 57.6213 64.858 57.068 65.1909 56.5201C65.3198 56.3284 65.4343 56.115 65.5292 55.9197C65.624 55.7932 65.7099 55.6539 65.7601 55.5183C65.8012 55.4604 65.8424 55.4062 65.8871 55.3538C66.1449 54.6775 66.4276 53.9795 66.5279 53.3213C66.6084 53.0211 66.7748 52.6757 66.739 52.4262C66.8088 51.9796 66.9323 51.4931 66.918 51.0682L66.9162 51.1134ZM64.509 41.5712L64.5019 41.5767C64.5019 41.5767 64.5054 41.5749 64.5019 41.5604L64.509 41.5712ZM48.8433 37.1482C48.8397 37.1392 48.8218 37.1338 48.8612 37.1121C48.8737 37.1012 48.9024 37.0958 48.9149 37.085C48.8791 37.1157 48.8379 37.1392 48.8433 37.1482ZM50.3986 61.7315C50.395 61.7405 50.404 61.7568 50.361 61.7423C50.3449 61.7423 50.3199 61.7242 50.3038 61.7224C50.3503 61.7297 50.395 61.7423 50.3986 61.7315ZM66.1413 48.826H66.1359V48.797L66.1413 48.826ZM66.0625 50.542C66.0786 50.2689 66.1019 49.9941 66.0589 49.7482C66.1108 49.967 66.0804 50.2545 66.0625 50.542ZM66.0822 45.3613C66.0697 45.3487 66.0428 45.2782 66.0267 45.2691C66.0196 45.2384 66.0088 45.195 66.0017 45.166C66.0321 45.2366 66.0661 45.3216 66.0822 45.3613ZM65.9802 46.9399L65.9856 46.9381C65.982 46.9544 65.9766 46.9978 65.9659 46.9725C65.9659 46.9725 65.9748 46.9562 65.9802 46.9399ZM65.7368 49.5258H65.7404L65.7368 49.5402V49.5258ZM65.454 48.5511C65.4576 48.6054 65.4755 48.6325 65.4683 48.6741C65.4612 48.7844 65.4415 48.6632 65.4254 48.6072C65.4379 48.6053 65.4504 48.6054 65.454 48.5511ZM65.2858 50.4751H65.2947L65.2894 50.5022C65.284 50.5167 65.2858 50.4751 65.2858 50.4751ZM62.7049 57.2C62.7246 57.162 62.7461 57.1222 62.7676 57.0843C62.7801 56.898 63.0146 56.5671 63.1918 56.1874C63.1202 56.4622 62.934 56.7787 62.7676 57.0843C62.7658 57.1005 62.7568 57.1222 62.7586 57.1349C62.7515 57.1476 62.7336 57.1693 62.7049 57.2ZM46.8227 57.0119C46.8084 57.0029 46.7905 56.983 46.7762 56.9776L46.7744 56.9794L46.7672 56.9703C46.7386 56.9414 46.7475 56.9523 46.7386 56.9414L46.7404 56.9396C46.7404 56.9396 46.7511 56.9486 46.7672 56.9685C46.7779 56.9758 46.7779 56.9758 46.7779 56.9758L46.8012 56.9902C46.8084 56.9993 46.8155 57.0047 46.8227 57.0119ZM44.6517 56.361C44.6428 56.3501 44.6356 56.3411 44.6356 56.3411C44.6589 56.3555 44.6678 56.3483 44.6625 56.3212C44.6607 56.3176 44.6571 56.3139 44.6553 56.3103C44.6589 56.3139 44.6607 56.3176 44.6643 56.3212C44.5497 56.0988 44.4513 55.8022 44.5479 55.8311C44.6642 55.9993 44.7877 56.2434 44.9309 56.4116C44.9954 56.5074 45.0687 56.6159 45.1421 56.7226C45.2549 57.0011 45.2763 57.0553 45.2191 57.1385C45.1493 57.0174 45.049 56.8944 44.9417 56.7461C44.8951 56.6105 44.7716 56.4713 44.6607 56.323C44.6678 56.3483 44.6607 56.3537 44.6517 56.361ZM44.9936 52.2978L45.0043 52.296V52.3231L44.9936 52.2978ZM44.8307 53.0464C44.8092 53.0265 44.7949 53.0211 44.7824 53.0193C44.7698 53.0934 44.7502 53.1549 44.7197 53.1911C44.7341 53.1188 44.7305 53.0103 44.7824 53.0193C44.7895 52.9741 44.7985 52.9271 44.7967 52.8674C44.82 52.9415 44.8039 52.9741 44.8307 53.0464ZM44.4352 55.2507C44.4352 55.2507 44.428 55.238 44.4226 55.2254C44.4566 55.2887 44.5121 55.3718 44.5515 55.4152L44.5425 55.4207C44.5103 55.3737 44.4799 55.3248 44.4352 55.2507ZM44.2401 54.0699C44.2114 54.0211 44.1971 53.9976 44.19 53.9849C44.181 53.9596 44.1721 53.9325 44.1667 53.918C44.1864 53.9578 44.2168 54.0193 44.2401 54.0699ZM43.8535 52.4479C43.8428 52.4497 43.8249 52.4262 43.807 52.3882C43.807 52.3882 43.807 52.3882 43.8016 52.3611C43.8159 52.4009 43.8392 52.4515 43.8535 52.4479ZM42.7295 51.41C42.7206 51.3973 42.7116 51.3611 42.7116 51.3611H42.7152C42.7206 51.3973 42.7242 51.3973 42.7295 51.41ZM43.0517 52.607C43.0284 52.6143 43.0409 52.692 43.0678 52.7933C43.0409 52.7336 43.0105 52.6739 43.0034 52.5926C43.0087 52.5528 43.0338 52.5853 43.0517 52.607ZM43.6441 51.9108C43.6155 51.8602 43.5868 51.7933 43.5618 51.6559C43.5904 51.7644 43.6172 51.8439 43.6441 51.9108ZM43.7354 52.5781C43.7282 52.4931 43.7175 52.4244 43.7479 52.4172C43.7228 52.4226 43.7264 52.4931 43.7354 52.5781ZM42.5631 48.6506L42.5613 48.6759H42.5559V48.6632C42.5577 48.6506 42.5577 48.6506 42.5577 48.6506H42.5631ZM42.4879 49.1587V49.1713C42.4861 49.175 42.4861 49.1804 42.4843 49.1858C42.4754 49.2545 42.47 49.3106 42.4629 49.3702C42.4611 49.3883 42.4611 49.4046 42.4593 49.4227C42.4593 49.3956 42.4593 49.3956 42.4593 49.3956C42.4611 49.3865 42.4611 49.3775 42.4629 49.3684C42.4664 49.2961 42.4718 49.2364 42.4843 49.184C42.4861 49.1768 42.4879 49.1677 42.4879 49.1587ZM42.2821 51.1478C42.2928 51.1496 42.3036 51.1441 42.3125 51.1333C42.3161 51.1749 42.3197 51.2002 42.3233 51.2418C42.3125 51.2056 42.2964 51.1767 42.2821 51.1478C42.2499 51.1441 42.2141 51.0881 42.1801 51.0302C42.2141 51.0537 42.2499 51.0953 42.2821 51.1478ZM43.8875 54.5527C43.9143 54.6196 43.9305 54.6594 43.9519 54.7136C43.9716 54.7842 44.002 54.8511 44.0253 54.8872L44.0235 54.8565C44.0468 54.9252 44.0683 54.9795 44.0933 55.0319C44.1864 55.229 44.3582 55.5183 44.2437 55.4785C44.2114 55.4659 44.1989 55.4749 44.2007 55.5038C44.1667 55.4351 44.1309 55.3664 44.1005 55.3031L44.0987 55.3049C44.0987 55.2109 43.9698 55.0445 43.909 54.8981C43.8893 54.7878 43.8553 54.6684 43.7962 54.531C43.8374 54.578 43.8678 54.5798 43.8875 54.5527ZM47.0428 40.5243C47.0446 40.5224 47.0446 40.5206 47.0464 40.5188C47.0464 40.5206 47.0446 40.5224 47.0428 40.5243ZM55.4296 37.9113L55.4278 37.9276C55.426 37.9421 55.3616 37.9312 55.3598 37.9403C55.3616 37.9258 55.4278 37.9258 55.4296 37.9113ZM54.6099 37.7974C54.5831 37.7938 54.6099 37.7956 54.5974 37.7938C54.5831 37.7938 54.5312 37.7938 54.5312 37.7938L54.558 37.7902C54.6117 37.7793 54.703 37.7775 54.7835 37.7793C54.7423 37.792 54.6385 37.7847 54.6099 37.7974ZM54.7835 37.9222C54.7835 37.924 54.7692 37.9258 54.7423 37.9222C54.7298 37.924 54.7298 37.924 54.7298 37.924L54.703 37.9312C54.6922 37.9312 54.6833 37.933 54.6743 37.933C54.6904 37.9294 54.7191 37.9312 54.7316 37.9258V37.9222L54.7441 37.924C54.7835 37.9222 54.771 37.9222 54.7835 37.9222ZM63.6159 53.9596C63.6213 53.9325 63.6428 53.9017 63.6535 53.8927L63.6607 53.8963C63.6464 53.918 63.6124 53.9994 63.6159 53.9596ZM63.6446 54.0464L63.6338 54.0663L63.6356 54.0428C63.632 54.0464 63.6285 54.0518 63.6249 54.0554C63.6249 54.0536 63.6249 54.05 63.6249 54.0464C63.6285 54.0482 63.6338 54.041 63.6392 54.0319C63.6374 54.0355 63.6356 54.0373 63.6338 54.041L63.6446 54.0464ZM64.9153 50.3847C64.9099 50.4226 64.9081 50.4371 64.901 50.4877C64.901 50.4353 64.892 50.4353 64.8902 50.4208C64.901 50.3829 64.9081 50.3973 64.9153 50.3847ZM64.6737 44.0901C64.6773 44.0956 64.6755 44.0938 64.6808 44.1064L64.6737 44.0938C64.6737 44.0901 64.6737 44.0901 64.6737 44.0901C64.6665 44.0775 64.6612 44.0648 64.6576 44.0558C64.6504 44.0268 64.6486 44.0142 64.6486 44.0142C64.6504 44.025 64.6576 44.054 64.6737 44.0901ZM64.6182 42.8623C64.6236 42.8714 64.6236 42.8714 64.6236 42.8714C64.6218 42.8678 64.62 42.8641 64.6182 42.8623C64.6182 42.8623 64.6182 42.8623 64.6164 42.8605L64.6092 42.8479C64.6092 42.8479 64.6146 42.8533 64.6182 42.8623ZM64.4464 42.7068L64.441 42.7104C64.441 42.7104 64.441 42.7104 64.4339 42.6978C64.4446 42.7086 64.4464 42.7068 64.4464 42.7068ZM60.7291 39.3887C60.6324 39.3326 60.559 39.2946 60.4928 39.2675C60.5483 39.2856 60.6163 39.3091 60.7291 39.3887ZM59.9863 39.0343C60.0006 39.0343 60.0185 39.0379 60.0436 39.0469C60.0436 39.0469 60.0436 39.0469 60.0669 39.0632C60.04 39.0505 60.006 39.0379 59.9863 39.0343ZM60.0669 38.9818C60.0794 38.9619 60.0293 38.9149 59.963 38.8607C60.0275 38.9149 60.0812 38.9565 60.0669 38.9818ZM58.6547 38.1916C58.6798 38.2043 58.7049 38.2151 58.7174 38.2223C58.678 38.2079 58.6136 38.1862 58.5599 38.1681C58.6154 38.1808 58.6404 38.188 58.6547 38.1916ZM57.4019 37.4249C57.4574 37.4376 57.5129 37.4502 57.597 37.4683C57.597 37.4683 57.6113 37.4719 57.6238 37.4773C57.5558 37.4575 57.4574 37.4376 57.4001 37.4339L57.4019 37.4249ZM55.0502 36.1121C55.0376 36.1157 55.0305 36.1193 55.009 36.123V36.1175L55.0502 36.1121ZM52.9472 36.1826C52.9472 36.1826 52.9472 36.1826 52.9759 36.1844C52.9472 36.1863 52.8864 36.1881 52.8559 36.1899L52.9472 36.1826ZM44.4799 42.3651C44.4799 42.3777 44.4781 42.3958 44.4781 42.4121C44.4781 42.4121 44.4781 42.4121 44.4781 42.4139C44.4745 42.4012 44.4745 42.3868 44.4799 42.3651ZM44.462 42.4392C44.462 42.441 44.4602 42.441 44.4602 42.4428C44.4459 42.4482 44.428 42.4591 44.4119 42.4663C44.4316 42.4537 44.4477 42.4482 44.462 42.4392ZM42.1317 50.1279C42.1264 50.146 42.121 50.1623 42.1085 50.1478C42.1085 50.1478 42.1085 50.1478 42.1067 50.1207C42.1192 50.1496 42.1264 50.1424 42.1317 50.1279ZM42.4235 52.4569C42.4235 52.4587 42.4253 52.4587 42.4253 52.4606H42.4235C42.4235 52.4606 42.4235 52.4587 42.4235 52.4569ZM43.7175 55.0138C43.6835 54.9306 43.6512 54.8493 43.619 54.7661C43.6333 54.786 43.6459 54.8059 43.6602 54.8239C43.6692 54.8854 43.7121 54.9795 43.7515 55.0626C43.7407 55.0482 43.73 55.0301 43.7175 55.0138ZM44.5622 56.6485C44.3475 56.3411 44.1631 55.9957 44.0557 55.663C44.0432 55.6214 44.0271 55.5798 44.0092 55.5382C44.0468 55.5997 44.0826 55.6612 44.1023 55.7172C44.1309 55.8112 44.2258 55.9433 44.2956 56.0572C44.3117 56.0789 44.3349 56.0951 44.3546 56.115C44.6177 56.4749 44.8522 56.8528 45.1904 57.1765C45.1833 57.1855 45.1761 57.1946 45.1672 57.2054C45.0705 57.2777 44.8092 56.9523 44.5622 56.6485ZM45.2978 54.2345C45.364 54.2308 45.3819 54.1404 45.3515 53.9759C45.3712 54.0771 45.3909 54.1784 45.4088 54.2652C45.4535 54.4442 45.3569 54.3068 45.2978 54.2345ZM45.4446 56.4785C45.4589 56.4857 45.4285 56.4224 45.4661 56.464C45.5036 56.5056 45.475 56.493 45.4929 56.5309C45.4822 56.5201 45.4625 56.5002 45.4446 56.4785ZM46.275 56.4875L46.2876 56.4767C46.2983 56.4676 46.3377 56.5219 46.3448 56.5165C46.3341 56.5255 46.2858 56.4785 46.275 56.4875ZM46.6401 57.0409C46.6759 57.0626 46.7457 57.1421 46.7744 57.153C46.7923 57.1747 46.7726 57.1548 46.7815 57.1638C46.7905 57.1729 46.8281 57.2108 46.8281 57.2108L46.8066 57.1946C46.7636 57.1638 46.6956 57.1005 46.6401 57.0409ZM46.8209 59.4838C46.8209 59.4838 46.8209 59.4838 46.8012 59.4621C46.8227 59.482 46.8674 59.5218 46.8889 59.5435L46.8209 59.4838ZM47.3149 59.2686C47.3167 59.265 47.3113 59.2578 47.3113 59.2542C47.2272 59.1601 47.1788 59.0806 47.0983 58.9884L47.0733 58.9721C47.0733 58.9721 47.0876 58.9775 47.0768 58.9685C47.0876 58.9775 47.0876 58.9775 47.1001 58.9884C47.297 59.1475 47.3238 59.2108 47.3131 59.2542C47.3292 59.2723 47.3381 59.2885 47.3578 59.3084C47.3363 59.2885 47.3364 59.2885 47.3149 59.2686ZM48.2008 57.7678C48.2509 57.7877 48.2634 57.7913 48.2992 57.8058C48.2813 57.8076 48.3046 57.8383 48.3082 57.8528C48.2706 57.8202 48.2348 57.8039 48.2008 57.7678ZM48.8451 59.2307L48.8487 59.2252L48.8576 59.2361C48.8451 59.2307 48.8451 59.2307 48.8451 59.2307ZM50.1659 59.3355C50.225 59.3609 50.2393 59.3554 50.2787 59.3663C50.2411 59.3554 50.2322 59.3717 50.1659 59.3355ZM50.812 59.6791C50.8246 59.6845 50.8246 59.6827 50.8246 59.6827V59.6845L50.812 59.6791C50.8031 59.6773 50.7977 59.6773 50.7888 59.6755C50.7369 59.7008 50.6331 59.6773 50.5167 59.6339C50.4666 59.6212 50.4147 59.6014 50.3503 59.5652C50.3431 59.5616 50.3396 59.5634 50.3324 59.558C50.2859 59.5363 50.2859 59.5363 50.2519 59.52C50.2841 59.5345 50.3181 59.5489 50.3503 59.5634C50.4058 59.5887 50.463 59.6122 50.5167 59.6321C50.6098 59.6556 50.6886 59.652 50.7888 59.6737C50.7924 59.6719 50.7977 59.6737 50.8013 59.6719C50.8067 59.6719 50.7977 59.6665 50.8031 59.6665C50.7655 59.6249 50.7369 59.5923 50.6993 59.5489C50.6939 59.5453 50.6886 59.5417 50.6832 59.5381C50.6939 59.5435 50.6939 59.5435 50.6939 59.5435C50.6886 59.5363 50.6724 59.5236 50.6653 59.5146C50.54 59.4314 50.4219 59.3464 50.3306 59.2632L50.327 59.2686C50.2 59.1891 50.0514 59.095 50.0514 59.095C50.0514 59.095 50.1892 59.18 50.2948 59.2451C50.3163 59.2578 50.3163 59.2578 50.3288 59.2632C50.5042 59.3572 50.6062 59.4458 50.6635 59.5146C50.6832 59.5272 50.6957 59.5417 50.7154 59.5543C50.7154 59.5543 50.7154 59.5543 50.6921 59.5435C50.6939 59.5453 50.6957 59.5471 50.6975 59.5489C50.7816 59.6032 50.8639 59.6556 50.8013 59.6665C50.8067 59.6737 50.8085 59.6755 50.812 59.6791ZM51.1324 59.7352L50.9946 59.6755C51.0411 59.6936 51.0966 59.7243 51.1593 59.7406C51.1575 59.7388 51.1449 59.737 51.1324 59.7352ZM51.8429 60.6682L51.8447 60.6646V60.6628L51.8429 60.6682ZM52.5195 60.3445C52.5338 60.3373 52.4873 60.3228 52.489 60.3138C52.4998 60.3247 52.5213 60.3391 52.5571 60.3554C52.532 60.3482 52.532 60.3482 52.5195 60.3445ZM53.4573 60.5652V60.5615L53.4824 60.5724L53.4573 60.5652ZM54.0712 60.6538C54.0103 60.6212 53.9387 60.5887 53.8672 60.5615C53.9173 60.5652 54.0175 60.5706 54.107 60.576C54.1553 60.6031 54.1893 60.6303 54.0712 60.6538ZM55.0484 59.8708C55.0609 59.8798 55.0949 59.8871 55.1432 59.8979C55.1432 59.8979 55.154 59.907 55.1773 59.9106V59.9142C55.154 59.9069 55.1432 59.8979 55.1432 59.8979C55.0842 59.8853 55.0609 59.8816 55.0269 59.8744C55.0484 59.8744 55.0484 59.8708 55.0484 59.8708ZM55.1737 60.0606C55.1862 60.0606 55.1862 60.0606 55.1862 60.0606C55.1737 60.0697 55.1379 60.0787 55.1021 60.086C55.1379 60.0787 55.1486 60.0697 55.1737 60.0606ZM57.1818 61.1167C57.18 61.1185 57.1764 61.1203 57.1746 61.1239C57.1693 61.1366 57.1567 61.1492 57.1352 61.1619C57.146 61.1528 57.1621 61.1366 57.1746 61.1239C57.1782 61.1167 57.18 61.1094 57.1782 61.1022C57.18 61.1185 57.2212 61.1275 57.2516 61.1384C57.2247 61.1311 57.2086 61.1185 57.1818 61.1167ZM58.2342 59.8744C58.1858 59.8907 58.1232 59.9178 58.116 59.8925C58.0928 59.8997 58.1142 59.8834 58.0784 59.8907C58.0802 59.8889 58.082 59.8871 58.0838 59.8853C58.0928 59.8816 58.1035 59.878 58.1124 59.8744L58.1178 59.8925L58.1912 59.8834C58.2037 59.8798 58.218 59.878 58.2342 59.8744C58.2431 59.8726 58.2521 59.8672 58.2592 59.8654V59.869C58.2556 59.869 58.2431 59.8726 58.2342 59.8744ZM60.6664 58.7479C60.5018 58.8274 60.3568 58.8871 60.3013 58.8564C60.2208 58.831 60.3872 58.737 60.525 58.6466C60.5841 58.6068 60.6611 58.5489 60.6163 58.5417C60.5197 58.5616 60.3872 58.6647 60.3156 58.6556C60.4373 58.5598 60.5966 58.5056 60.7255 58.4007C60.6951 58.4079 60.6754 58.4115 60.6664 58.4061C60.661 58.4079 60.6557 58.4097 60.6503 58.4115C60.6611 58.4043 60.6611 58.4043 60.6611 58.4043C60.6611 58.4061 60.6646 58.4043 60.6664 58.4061C60.6951 58.3971 60.7201 58.3898 60.7255 58.4007C60.7434 58.3826 60.772 58.3645 60.806 58.3518C60.9743 58.2868 61.1497 58.124 61.3268 58.0463C61.572 57.9233 61.7617 57.7407 61.964 57.5399L61.9747 57.5327L61.9926 57.5164C61.9837 57.5237 61.9837 57.5237 61.9837 57.5237C62.1322 57.3157 61.9354 57.4857 61.8137 57.5761L61.76 57.6195L61.7277 57.6376C61.6293 57.6629 61.4575 57.8238 61.3591 57.8455C61.7761 57.5092 62.2056 57.1693 62.5707 56.7732C62.5958 56.7479 62.6226 56.7208 62.6513 56.6937C62.6477 56.7009 62.6441 56.7063 62.6441 56.71C62.619 56.7588 62.662 56.7262 62.6942 56.6828C62.7193 56.6521 62.7407 56.6177 62.7407 56.6177C62.739 56.6159 62.7354 56.6141 62.7336 56.6123C62.8016 56.5418 62.8589 56.4749 62.8607 56.4224C62.8696 56.3555 62.9054 56.2832 62.9555 56.2055C63.0522 56.1584 63.1953 56.0156 63.2598 56.03C63.2043 56.1223 63.1792 56.1729 63.1846 56.2091C62.9788 56.4948 62.9233 56.6394 62.8088 56.8474C62.6978 57.0409 62.6638 57.1765 62.4776 57.4152C62.3774 57.5291 62.2861 57.6412 62.1984 57.7533C62.1734 57.7714 62.1501 57.7895 62.1251 57.8058C61.6651 58.1547 61.1693 58.4585 60.6664 58.7479ZM61.2051 58.6466C61.2159 58.6394 61.2588 58.614 61.2588 58.614C61.2749 58.6104 61.291 58.5996 61.3072 58.5905C61.3304 58.5761 61.3537 58.5634 61.3698 58.5616C61.3483 58.567 61.3286 58.5797 61.3072 58.5905C61.2749 58.6122 61.2391 58.6339 61.2051 58.6466Z" fill="white"/>
<g clip-path="url(#clip0)">
<path d="M41.7674 22.2581H18.3111L17.9624 18.3738C17.9054 17.7385 17.373 17.2518 16.7353 17.2518H14.232C13.5516 17.2518 13 17.8034 13 18.4839C13 19.1643 13.5516 19.7159 14.232 19.7159H15.6089C16.3613 28.0987 14.4167 6.43238 17.0259 35.5031C17.1265 36.6409 17.7413 37.8756 18.8004 38.7146C16.8909 41.1531 18.6356 44.7481 21.7417 44.7481C24.3197 44.7481 26.1381 42.1768 25.254 39.7416H31.9972C31.1142 42.1737 32.9286 44.7481 35.5094 44.7481C37.5691 44.7481 39.2447 43.0724 39.2447 41.0128C39.2447 38.9532 37.5691 37.2775 35.5094 37.2775H21.75C20.8141 37.2775 19.9986 36.7129 19.6466 35.8902L39.3364 34.733C39.8739 34.7015 40.3287 34.3243 40.4593 33.802L42.9627 23.7889C43.1568 23.0125 42.5691 22.2581 41.7674 22.2581ZM21.7417 42.284C21.0408 42.284 20.4706 41.7137 20.4706 41.0128C20.4706 40.3119 21.0408 39.7416 21.7417 39.7416C22.4426 39.7416 23.0129 40.3119 23.0129 41.0128C23.0129 41.7137 22.4426 42.284 21.7417 42.284ZM35.5094 42.284C34.8085 42.284 34.2382 41.7137 34.2382 41.0128C34.2382 40.3119 34.8085 39.7416 35.5094 39.7416C36.2103 39.7416 36.7806 40.3119 36.7806 41.0128C36.7806 41.7137 36.2103 42.284 35.5094 42.284ZM38.2883 32.3263L19.3149 33.4413L18.5323 24.7221H40.1895L38.2883 32.3263Z" fill="white"/>
</g>
<defs>
<clipPath id="clip0">
<rect width="30" height="30" fill="white" transform="translate(13 16)"/>
</clipPath>
</defs>
</svg>
