<svg width="13" height="24" fill="none" xmlns="http://www.w3.org/2000/svg"><g filter="url(#filter0_d)" stroke="#fff" stroke-linecap="round" stroke-linejoin="round"><path d="M6.034 1.42c-.021.042-.297.65-.454.733-.134.07-.142-.359-.217-.353-.219.019-.162.858-.051.983.6.683 3.086-.078 1.848-1.122-.473-.399-1.363-.593-1.561.176-.169.656 1.261 1.145 1.65.695.73-.845-.882-1.05-1.326-1.019-.87.061-1.165 1.24-.204 1.437.446.09 2.886.152 1.826-.844-.59-.555-1.665-.519-2.428-.519m.751 11.677c-1.013 1.856 2.53 1.808 2.4.5-.115-1.146-2.38-1.02-3.035-.528-.948.71-.146 1.637.718 1.844.816.196 1.436.085 1.418-.852-.007-.366-.06-.777-.436-.945-.312-.141-.888-.213-1.093.13-.338.562-.185 1.01.454 1.01.417 0 .713-.096 1.038-.353.115-.09.218-.139.037-.139M6.618 1.003c.548 0 .738-.06 1.001.334"/><path d="M5.266 3.033c.05.32.042.786.465.857.648.108 1.504-.295 2.056-.604.17-.095-.48-.237-.597-.247-.39-.033-.91-.133-1.291-.03-.39.107-.345.794-.139 1.045.394.48 2.197.262 2.327-.408.28-1.442-1.917-1.212-2.702-.91m.831 11.034c0-.12-.065-.448.072-.531.33-.199.799.096 1.153.025.133-.027-.02-.202-.052-.235-.129-.133-.334-.174-.508-.204-.267-.045-.758-.13-.984.06-.152.129-.205.452-.104.623.161.27.67.253.931.227.362-.036.837-.227.869-.647.022-.295-.112-.642-.428-.705-.367-.072-.688.075-1.01.226-.08.038-.522.224-.357.389.135.135.496.098.657.052a.645.645 0 00.475-.566c.03-.325-.227-.354-.501-.377a2.48 2.48 0 00-1.163.176c-.206.08-.514.193-.534.456-.023.309.564.385.766.447"/></g><defs><filter id="filter0_d" x=".232" y=".5" width="12.54" height="23.162" filterUnits="userSpaceOnUse" color-interpolation-filters="sRGB"><feFlood flood-opacity="0" result="BackgroundImageFix"/><feColorMatrix in="SourceAlpha" values="0 0 0 0 0 0 0 0 0 0 0 0 0 0 0 0 0 0 127 0"/><feOffset dy="4"/><feGaussianBlur stdDeviation="2"/><feColorMatrix values="0 0 0 0 0 0 0 0 0 0 0 0 0 0 0 0 0 0 0.25 0"/><feBlend in2="BackgroundImageFix" result="effect1_dropShadow"/><feBlend in="SourceGraphic" in2="effect1_dropShadow" result="shape"/></filter></defs></svg>