<svg width="9" height="8" viewBox="0 0 9 8" fill="none" xmlns="http://www.w3.org/2000/svg">
<path d="M8.22996 3.64997C8.48996 4.75997 7.86996 5.33997 7.18996 5.92997C7.02996 5.98997 6.83996 6.04997 6.68996 6.10997C6.35996 6.41997 6.05995 6.69997 5.76995 6.96997C5.21995 7.26997 4.59995 7.26997 4.01995 7.37997C3.95995 7.38997 3.89995 7.40997 3.84995 7.39997C3.25995 7.26997 2.64995 7.24997 2.08995 6.95997C1.20995 6.49997 0.749959 5.41997 0.979959 4.33997C1.09996 3.77997 1.33996 3.30997 1.78996 2.92997C1.98996 2.76997 2.16996 2.55997 2.29996 2.33997C2.65996 1.76997 3.09995 1.34997 3.80995 1.26997C3.94995 1.25997 4.08995 1.18997 4.20995 1.10997C5.03995 0.549974 5.85995 0.709974 6.69995 1.08997C6.77995 1.12997 6.85996 1.16997 6.92996 1.20997C7.24996 1.37997 7.48995 1.60997 7.58995 1.97997C7.68995 2.30997 7.80996 2.63997 7.93996 2.95997C8.02996 3.20997 8.13996 3.44997 8.22996 3.64997ZM4.42996 5.13997C4.28996 5.13997 4.12995 5.10997 4.06995 5.30997C3.91995 5.29997 3.78996 5.32997 3.71996 5.48997C3.57996 5.50997 3.41996 5.46997 3.36996 5.66997C3.27996 5.67997 3.15996 5.62997 3.11996 5.76997C3.24996 5.80997 3.34995 5.81997 3.34995 5.64997C3.48995 5.64997 3.66995 5.70997 3.69995 5.46997C3.83995 5.46997 4.03996 5.55997 4.04996 5.29997C4.19996 5.30997 4.34996 5.32997 4.39996 5.12997C4.44996 5.10997 4.49996 5.08997 4.54996 5.05997C4.52996 5.03997 4.50995 5.01997 4.48995 5.00997C4.46995 5.04997 4.44996 5.08997 4.42996 5.13997ZM4.57996 1.42997C4.67996 1.41997 4.77995 1.40997 4.91995 1.38997C4.74995 1.25997 4.66996 1.30997 4.60996 1.44997C4.56996 1.46997 4.53995 1.49997 4.51995 1.50997C4.51995 1.49997 4.54996 1.46997 4.57996 1.42997ZM6.67996 4.40997C6.85996 4.23997 6.85996 4.23997 6.72996 3.94997C6.71996 4.14997 6.70995 4.28997 6.69995 4.42997C6.66995 4.45997 6.63995 4.47997 6.62995 4.48997C6.63995 4.48997 6.65996 4.44997 6.67996 4.40997ZM3.54996 3.38997C3.16996 3.32997 2.99995 3.65997 2.73995 3.77997C2.62995 4.03997 2.39996 4.23997 2.53996 4.51997C2.71996 4.30997 2.89996 4.09997 3.07996 3.88997C3.22996 3.71997 3.37995 3.53997 3.51995 3.35997C3.56995 3.33997 3.61996 3.30997 3.65996 3.28997C3.63996 3.26997 3.61995 3.25997 3.59995 3.23997C3.58995 3.29997 3.56996 3.34997 3.54996 3.38997ZM4.40996 4.41997C4.81996 4.29997 5.11995 4.05997 5.23995 3.64997C5.17995 3.44997 5.12995 3.25997 5.06995 3.06997C4.99995 3.01997 4.91995 2.97997 4.84995 2.92997C4.77995 2.98997 4.71995 3.03997 4.62995 3.10997C4.55995 3.53997 4.48995 3.98997 4.41995 4.43997C4.35995 4.44997 4.22996 4.41997 4.32996 4.55997C4.35996 4.50997 4.37996 4.45997 4.40996 4.41997ZM3.92996 3.59997C3.08996 4.08997 2.73996 4.55997 2.82996 5.10997C3.17996 4.93997 3.42996 4.65997 3.67996 4.38997C3.79996 4.25997 3.90995 4.12997 3.98995 3.97997C4.05995 3.84997 4.08996 3.69997 3.92996 3.59997ZM5.72996 2.87997C5.57996 2.86997 5.47995 2.91997 5.52995 3.05997C5.56995 3.16997 5.67996 3.20997 5.79996 3.08997C5.77996 3.01997 5.74996 2.94997 5.72996 2.87997ZM8.01995 4.51997C8.02995 4.35997 8.13995 4.17997 7.98995 3.99997C7.88995 4.17997 7.85995 4.33997 8.01995 4.51997ZM3.62995 6.57997C3.62995 6.59997 3.62995 6.61997 3.62995 6.62997C3.69995 6.62997 3.76995 6.62997 3.83995 6.62997C3.83995 6.60997 3.83995 6.58997 3.83995 6.57997C3.76995 6.57997 3.69995 6.57997 3.62995 6.57997ZM5.68996 4.16997C5.70996 4.16997 5.72996 4.16997 5.74996 4.16997C5.74996 4.09997 5.75996 4.03997 5.75996 3.96997C5.73996 3.96997 5.70996 3.96997 5.68996 3.96997C5.69996 4.03997 5.68996 4.10997 5.68996 4.16997ZM5.07996 5.39997C5.05996 5.37997 5.04995 5.34997 5.02995 5.34997C5.00995 5.34997 4.98996 5.37997 4.96996 5.38997C4.98996 5.40997 4.99995 5.43997 5.01995 5.43997C5.03995 5.43997 5.05996 5.41997 5.07996 5.39997Z" fill="#CED0D1"/>
</svg>
