<svg width="582" height="366" viewBox="0 0 582 366" fill="none" xmlns="http://www.w3.org/2000/svg">
<g clip-path="url(#clip0)">
<path d="M566.529 22.9425C566.302 22.0354 566.151 20.7503 566.321 18.5581C566.453 25.2669 566.793 14.9486 566.529 22.9425Z" fill="#FAAE5D"/>
<path d="M5.67054 299.063C5.61383 298.288 5.57603 297.475 5.55713 296.682V296.417C5.65164 297.532 5.68944 298.099 5.67054 299.063Z" fill="#FAAE5D"/>
<path d="M19.9415 12.9452C20.1873 12.9452 20.433 12.9452 20.6787 12.9263C20.5464 12.9641 20.3763 13.0019 20.1873 13.0208L19.3367 12.983C19.5446 12.9641 19.7525 12.9641 19.9415 12.9452Z" fill="#FAAE5D"/>
<path d="M155.185 365.471C155.506 365.471 155.828 365.452 156.13 365.452C155.544 365.546 155.147 365.603 155.185 365.471Z" fill="#FAAE5D"/>
<path d="M190.135 364.507C189.643 364.583 189.001 364.639 188.245 364.696C188.849 364.602 187.129 364.337 190.135 364.507Z" fill="#FAAE5D"/>
<path d="M281.828 0.283569C281.431 0.321366 281.11 0.359162 280.826 0.37806L281.828 0.283569Z" fill="#FAAE5D"/>
<path d="M335.131 0.774852C334.489 0.812649 333.695 0.831547 332.636 0.812649C333.884 0.755954 334.659 0.755954 335.131 0.774852Z" fill="#FAAE5D"/>
<path d="M431.796 0.755981C434.726 0.793778 431.701 1.07725 432.93 1.24733C435.349 0.982759 437.05 1.34182 438.96 1.43631C438.033 1.5497 437.958 1.70089 438.185 1.85207C438.109 1.83317 438.014 1.81428 437.92 1.79538C433.232 1.62529 429.206 1.09615 431.796 0.755981Z" fill="#FAAE5D"/>
<path d="M438.487 2.00324C438.374 1.96544 438.279 1.90875 438.204 1.85205C438.544 1.90875 438.62 1.96544 438.487 2.00324Z" fill="#FAAE5D"/>
<path d="M438.998 1.4363C439.659 1.3607 440.718 1.28511 442.381 1.24731C441.096 1.47409 440.018 1.49299 438.998 1.4363Z" fill="#FAAE5D"/>
<path d="M512.337 364.091C511.808 364.148 511.562 364.224 511.619 364.375C510.598 364.205 511.222 364.148 512.337 364.091Z" fill="#FAAE5D"/>
<path d="M544.924 6.72776C544.792 6.72776 544.452 6.59548 543.998 6.40649C544.3 6.51988 544.622 6.61437 544.924 6.72776Z" fill="#FAAE5D"/>
<path d="M581.121 324.009C581.083 318.32 581.046 312.575 581.008 306.906C580.913 295.567 580.762 284.512 580.403 274.704C580.516 273.721 580.611 274.93 580.724 275.516C580.1 263.289 581.386 250.476 580.176 241.519L579.666 238.287C579.874 235.414 580.214 235.641 580.403 233.411C580.063 231.011 580.308 222.261 579.855 220.844C580.063 219.54 580.119 221.373 580.271 221.335C580.384 215.704 579.628 209.203 579.798 203.892L580.025 205.574C580.875 177.681 581.556 141.566 580.441 118.662C580.252 112.407 581.102 115.884 581.027 113.125C580.573 101.294 580.705 88.2925 580.781 75.5174C580.819 69.1487 580.838 62.8367 580.743 56.7704C580.705 53.7278 580.649 50.7608 580.535 47.8694C580.403 44.9969 580.441 42.1244 579.911 39.592C579.231 35.5478 577.454 32.5241 575.621 30.5209C573.806 28.4799 571.992 27.346 570.574 26.6468C569.118 25.9854 568.06 25.7019 567.379 25.5885C566.699 25.4751 566.397 25.4562 566.397 25.4562C570.593 26.9681 574.165 30.0674 576.226 33.9415C577.284 35.8691 577.927 37.9857 578.21 40.1401C578.456 42.1811 578.343 44.789 578.38 47.208C578.38 57.0161 578.324 66.6542 578.229 76.2733C578.021 95.5305 577.662 114.693 577.246 134.857C577.36 148.464 577.605 166.285 577.341 178.815C577.416 205.177 577.152 231.597 576.925 258.149C576.849 271.434 576.755 284.757 576.679 298.118C576.679 304.789 576.679 311.479 576.66 318.188L576.679 323.215L576.698 324.481C576.698 324.916 576.698 325.313 576.679 325.615C576.679 326.296 576.604 326.957 576.528 327.637C576.131 330.283 575.129 332.853 573.523 335.064C574.959 333.25 574.014 335.556 572.426 337.275L571.897 337.54C571.16 338.447 570.309 339.279 569.364 340.016C569.005 340.242 568.721 340.431 568.457 340.545C568.098 340.715 567.833 340.828 567.644 340.904C567.058 341.149 566.888 341.131 567.153 340.942C567.304 340.866 567.512 340.715 567.814 340.526C567.965 340.412 568.154 340.28 568.381 340.129C568.74 339.827 569.27 339.524 569.818 339.071C569.307 339.467 568.721 339.77 568.173 340.091L567.644 340.375C567.323 340.545 566.982 340.696 566.623 340.847L564.601 341.735L563.599 342.189C563.561 342.529 563.599 342.926 563.58 343.285L563.599 345.496V348.614C563.599 350.372 563.618 352.091 563.618 353.754L563.372 353.773H561.86C560.045 353.792 558.25 353.792 556.454 353.792C554.186 353.792 551.937 353.811 549.687 353.811C549.007 354.246 548.421 354.907 547.797 355.474L547.23 355.966L546.795 356.306C546.209 356.759 545.604 357.175 544.962 357.534C542.41 359.046 539.48 359.821 536.513 359.84C532.902 359.84 529.292 359.821 525.606 359.821C524.226 360.407 514.738 359.84 514.019 360.463C513.055 360.35 513.963 360.331 514.549 360.199C500.051 360.501 499.049 360.52 485.855 359.764C429.509 359.273 375.166 359.689 319.67 359.518C263.531 359.783 208.337 360.048 150.762 360.312C141.954 361.257 129.856 360.822 119.422 361.635L120.084 361.352C111.181 361.767 108.913 361.257 97.6285 360.917C97.5151 361.238 93.3 360.992 94.9255 361.54C90.9939 362.013 87.8562 360.766 82.2234 361.011C82.0344 360.841 82.3557 361.352 81.1649 361.181C66.6104 361.843 83.9435 360.879 65.4763 360.35C61.2423 360.388 56.9893 360.426 52.7175 360.463L46.4421 360.52C44.6086 360.482 42.7751 360.161 41.055 359.575C39.316 358.989 37.6716 358.12 36.1783 357.024L35.6302 356.608L34.9119 355.966L33.9101 355.058C33.74 354.945 33.6076 354.699 33.3997 354.68L32.7193 354.699L28.7687 354.718C25.4042 354.756 22.0775 354.794 18.7507 354.813C18.7318 353.509 18.7318 352.205 18.7318 350.92L18.7129 347.65L18.7318 345.231V343.228C18.7129 343.115 18.7507 342.983 18.694 342.907L18.3916 342.775L15.9721 341.697C15.7642 341.603 15.5563 341.509 15.3673 341.414L14.9136 341.168C14.7057 341.074 14.4978 340.96 14.3088 340.828C13.496 340.356 12.721 339.827 12.0027 339.222C10.6796 338.126 9.50768 336.841 8.56258 335.423C9.11073 336.312 8.99732 336.746 7.86321 335.14C7.65528 334.006 6.71019 332.475 5.99191 330.548C5.23584 328.601 4.81999 326.428 5.02792 324.311C5.21693 324.727 5.25474 326.541 5.51937 327.505C5.33035 325.218 5.51937 322.289 5.48156 319.681C5.46266 317.054 5.46266 314.465 5.44376 311.914C5.40595 306.906 5.36815 301.936 5.55717 296.682C5.16023 286.553 5.97301 274.723 5.50046 267.938C5.8596 269.544 5.76509 263.403 5.93521 261.229C4.8767 253.878 6.31325 241.481 5.59497 232.277L5.78399 232.599C5.70838 205.083 5.95411 175.148 5.46266 146.442C5.34925 130.284 6.29434 112.085 5.8218 94.3399C5.68948 91.0894 5.46266 93.6596 5.34925 91.0138C5.38705 86.5539 5.68948 91.0894 5.80289 89.3319C5.38705 80.5821 5.8974 69.0731 5.8785 58.1122C5.70838 56.8082 5.67058 53.7467 5.42486 54.7861C5.59497 51.7435 5.67058 48.4175 5.68948 44.9591V42.3512C5.72729 41.5952 5.74619 40.8393 5.8407 40.0834C6.02972 38.5715 6.40776 37.0786 6.97481 35.6234C8.12783 32.7698 10.0558 30.1997 12.4375 28.3287C13.0423 27.8941 13.6472 27.4405 14.2899 27.0815C14.6112 26.8736 14.8947 26.7413 15.2917 26.5334C15.9154 26.2122 16.6526 25.9476 17.2953 25.6452L18.2782 25.2295L18.7696 25.0027C18.9397 24.9271 19.1477 24.9082 19.091 24.6814C19.091 23.9633 19.1099 23.264 19.1099 22.5648C19.1288 21.8656 19.1477 21.1664 19.1477 20.4671C19.1666 20.0514 19.1855 19.6356 19.2044 19.2199C18.8074 21.0341 18.6562 20.0325 18.5995 17.9348C18.5806 16.4796 18.5617 14.2874 18.5428 12.5488C18.9397 12.5299 19.28 12.511 19.5446 12.4732C19.8848 12.4921 20.0172 12.5299 20.3007 12.5677C20.6787 12.6055 20.9055 12.6622 20.9812 12.7C21.1135 12.7756 20.9811 12.8701 20.6787 12.9268C20.9055 12.9457 21.1324 12.9268 21.3592 12.9268C22.6256 12.9079 23.8164 12.9079 24.9506 12.889C27.3511 12.8701 29.5248 12.8701 31.7364 12.8512C32.5869 12.7945 33.5887 13.1347 34.1369 12.2653L35.1198 11.3582L35.7436 10.8291C36.4807 10.2432 37.2935 9.7141 38.1819 9.22274C39.9776 8.24004 42.1324 7.44632 44.7787 7.18175C45.9128 7.01166 46.6878 6.95497 47.6896 6.89827C48.6347 6.82268 49.4853 6.76599 50.3737 6.70929C52.1315 6.5959 54.0406 6.50141 57.1406 6.57701C60.9966 7.20064 70.0506 6.5959 76.1181 6.82268C74.587 6.29353 82.3368 5.83998 88.3855 6.08566L86.5142 6.86048C105.813 6.35023 133.618 7.23844 156.225 6.27464L157.926 6.72819C181.232 6.19904 204.16 6.74709 226.578 5.87778C232.645 6.12345 242.323 6.27464 248.296 6.27464C256.461 5.89667 259.372 5.93447 264.93 5.31083C267.992 5.27304 269.863 5.6321 271.035 5.78329C281.299 5.91557 291.128 6.53921 299.369 5.82108L299.69 6.19904C307.837 5.80218 319.651 5.34863 328.837 5.76439C331.408 5.42422 340.613 5.29193 336.436 4.85728C340.065 4.76279 338.779 5.49981 342.465 5.08405L339.006 5.651C359.647 5.78329 377.075 5.49981 397.016 5.21634C402.819 5.85888 416.051 5.14075 427.354 5.49981C433.988 5.14075 445.5 5.651 450.433 4.83838L450.754 5.21634C459.62 5.27304 471.584 5.27304 483.19 5.46202C489.976 5.55651 489.976 4.98956 495.306 4.80058L495.628 5.17854C501.487 4.95177 503.056 4.34703 505.23 3.96906C509.747 4.23364 510.258 3.95017 514.756 4.21474C510.39 4.42262 506.685 4.83838 503.774 5.34863C510.938 5.51871 518.159 4.55491 522.582 5.14075C528.366 5.27304 532.94 5.14075 533.829 4.70609C534.377 4.83838 537.25 4.95177 534.509 5.14075C538.913 4.98956 541.54 5.6132 543.998 6.40692C543.242 6.08566 542.183 5.6321 541.295 5.44312C542.372 5.49981 543.922 5.93447 545.094 6.38803C546.266 6.82268 547.06 7.16285 546.795 6.6526C545.775 6.16125 545.189 5.97227 544.546 5.72659C543.903 5.49981 543.204 5.19744 541.805 4.80058C542.448 4.74389 544.659 5.27304 546.72 6.42582C548.818 7.52191 550.557 9.18495 551.086 9.94087C551.577 10.0543 551.521 10.1488 551.162 10.2243C550.954 10.3377 550.765 10.1677 550.538 10.0165C550.311 9.86528 550.065 9.6763 549.82 9.50622C548.837 8.86368 548.043 8.42902 549.29 9.58181C549.763 9.90308 550.273 10.3377 550.727 10.7157C551.332 10.7346 551.974 10.6401 552.56 10.6212L555.755 10.3566L560.688 9.95977C558.193 10.0921 555.263 9.84638 556.246 9.50622L551.426 9.77079L551.766 9.33613C551.294 9.46842 551.029 9.10936 550.727 8.82588C550.443 8.59911 550.027 8.22114 549.63 7.93767C548.856 7.31403 548.043 6.78489 547.23 6.29353C545.623 5.32973 543.941 4.5927 542.183 4.08245C540.425 3.55331 538.592 3.26983 536.664 3.25094C534.774 3.25094 532.827 3.28873 530.691 3.38322L533.904 3.79898C528.914 3.81788 523.867 4.40372 519.293 3.91237C521.542 3.74229 519.936 3.53441 519.879 3.30763C518.726 3.38322 517.44 3.53441 516.061 3.47771L517.856 2.91077C514.813 3.6289 504.644 3.09975 502.527 3.25094L503.245 3.11865C495.817 2.81628 504.549 3.53441 499.54 3.53441C495.269 3.42102 497.934 2.75959 493.983 2.45722C486.46 2.47611 473.531 3.02416 465.101 2.47611C458.391 2.5895 450.962 2.85408 444.933 3.17534C438.941 3.17534 445.254 2.43832 439.187 2.75959C439.829 2.51391 439.016 2.24934 438.487 2.00366C437.693 2.28713 427.222 1.96586 432.023 2.6084C423.29 2.45722 413.461 2.40052 404.256 2.53281C407.318 2.49501 408.131 2.02256 405.541 1.79578C401.288 2.24934 393.841 2.51391 386.11 2.38162C386.261 2.85408 388.756 2.85408 387.962 3.30763C386.809 3.38322 384.938 3.5911 383.01 3.5722C381.895 3.08085 382.235 2.32493 375.298 2.30603C377.169 1.53121 387.093 2.40052 383.955 1.6446C387.017 1.02096 399.511 0.983161 402.328 1.36112C408.49 0.718588 397.508 1.28553 398.642 0.642995C393.085 0.699689 390.495 1.03986 381.857 1.13435C381.762 1.45561 384.673 1.51231 380.704 1.77688C373.03 2.45722 371.121 1.28553 369.193 1.26663C370.308 1.20994 371.839 1.13435 372.973 1.09655C367.907 0.869773 366.112 1.30443 360.725 1.26663C359.269 0.397319 369.325 1.17214 371.31 0.624097L367.416 0.000458779C359.137 -0.0751337 365.167 0.718588 356.623 0.49181L357.662 0.170542L352.313 0.378421C352.238 0.699689 353.391 1.19104 357.965 1.13435C354.959 1.98476 353.75 1.24774 346.491 1.41782C344.166 1.90917 349.572 1.38002 349.724 1.85248C350.442 2.28713 345.452 2.30603 341.823 2.38162C335.85 2.38162 338.742 1.87137 336.341 1.55011C337.475 1.45561 342.068 1.39892 341.577 1.68239C348.93 1.17214 338.382 0.680791 343.467 0.321727C337.834 0.038255 338.061 0.605199 335.131 0.775282C336.851 0.831976 334.262 1.26663 335.528 1.43672C325.756 2.74069 329.272 0.49181 319.896 0.718588C321.881 1.55011 307.364 1.89027 314.207 2.79738C311.958 2.94857 309.122 3.13755 306.778 3.04306C309.273 2.47611 302.582 2.6084 307.024 2.06035H303.603L308.763 1.38002C304.964 0.983161 298.669 0.605199 296.666 0.340625C291.714 0.586301 298.197 0.888671 292.47 1.02096C294.473 0.737486 290.939 0.49181 288.406 0.49181C293.49 0.718588 288.5 1.28553 285.287 1.43672C280.24 1.43672 276.233 0.907569 276.97 0.775282L280.656 0.397319C278.558 0.548504 279.711 0.0949494 276.422 0.246134C275.363 0.567403 273.02 1.03986 271.772 1.45561C268.578 1.5879 266.309 1.17214 265.194 1.24774L270.279 0.907569C263.588 1.03986 268.842 0.038255 261.962 0.265033L260.185 0.699689C259.089 0.642995 258.446 0.510708 258.938 0.359523C257.444 0.567403 254.307 0.529606 252.832 0.624097L252.36 0.340625C249.524 0.529606 245.914 1.17214 242.436 0.605199C245.177 1.30443 245.914 0.605199 250.829 0.926467C253.872 1.45561 245.971 1.41782 244.856 1.49341C245.177 0.737486 237.484 1.41782 234.025 1.41782C232.002 1.15324 230.245 1.02096 229.016 0.869773L227.674 1.36112C226.37 0.39732 220.775 1.5879 216.843 1.28553C218.847 0.983161 218.563 0.605199 215.803 0.454014C219.527 1.19104 209.755 1.36112 210.87 1.85248C203.838 1.5879 212.496 0.926467 210.416 0.416218C206.938 0.983161 202.61 0.0571531 200.304 0.775282C205.37 1.00206 199.51 1.24774 198.451 1.55011C192.063 1.49341 199.51 1.24774 194.992 0.983161C192.327 1.07765 188.83 1.6446 192.97 1.85248C189.246 1.68239 185.05 2.38162 180.873 1.92807C179.171 1.47451 188.679 1.72019 186.26 1.39892C177.395 1.36112 181.818 2.51391 173.576 2.66509C177.111 2.91077 173.728 3.70449 169.758 3.98796C160.629 3.78008 173.728 3.70449 170.25 3.13755L166.602 3.21314C161.555 2.43832 177.376 1.92807 172.537 1.28553L168.605 1.55011C169.475 1.32333 170.722 0.926467 169.116 0.699689C168.114 1.24774 159.891 0.850874 159.173 0.964263C158.36 1.43672 162.368 0.831976 161.744 1.20994C157.529 1.32333 155.676 2.09815 149.212 1.81468C152.765 1.47451 147.87 1.17214 149.325 0.907569C146.169 0.718588 148.342 1.45561 143.825 1.20994L144.335 0.926467C127.531 0.850874 106.55 0.888671 92.1091 2.02256C89.4818 1.569 84.2081 1.51231 76.0425 1.20994C79.0479 1.36112 75.7212 1.68239 73.6987 1.73909L69.6725 1.19104C64.758 0.888671 58.3881 1.39892 53.8516 1.70129C53.0388 1.5879 52.7931 1.43672 52.5663 1.30443C48.1999 0.945365 48.1243 1.5879 46.2908 1.73909C45.2323 1.6446 44.1549 1.6257 43.0775 1.68239L42.4538 2.17374C40.091 2.74069 37.4636 3.79898 35.5923 4.83838C33.7022 5.82108 32.4924 6.6715 32.5491 6.21794C32.3601 6.36913 32.19 6.53921 32.0199 6.69039C31.8498 6.86048 31.6607 7.03056 31.6607 7.04946C31.5851 7.16285 31.5284 7.25734 31.4906 7.33293C31.4339 7.46522 31.4717 7.52191 31.7364 7.37073C31.6418 7.44632 31.5284 7.55971 31.3772 7.57861C31.2827 7.55971 31.1693 7.54081 31.0559 7.54081C30.9047 7.52191 30.9236 7.52191 30.5266 7.50301C29.2602 7.46522 27.8048 7.44632 26.2359 7.40852C24.667 7.38963 22.9848 7.38963 21.2647 7.37073C18.6562 7.38963 16.0099 7.38963 13.4015 7.40852C13.4204 9.31723 13.4393 11.207 13.4582 13.0213C13.4771 14.2874 13.496 15.478 13.5149 16.6119C13.5527 15.6859 13.5905 15.0245 13.6472 14.5331C13.6661 14.2119 13.685 13.9473 13.7039 13.7394C13.7417 13.4748 13.7606 13.2669 13.7984 13.1158C13.9118 12.4732 14.0441 12.5299 14.2332 12.3409C14.4033 12.8134 14.4789 13.1725 14.4978 13.5315C14.4978 13.7205 14.5167 13.9095 14.4978 14.1174C14.4978 14.2685 14.4789 14.4386 14.46 14.6087C14.4033 15.3079 14.3088 16.2528 14.4978 17.8214C14.2521 17.9159 14.0063 21.4687 13.8362 17.6513C13.7228 18.8797 13.6472 20.6939 13.5905 20.8829L13.5338 21.2797C13.4771 21.3742 13.2881 21.3742 13.1557 21.4309C13.0234 21.4687 12.8911 21.5254 12.7777 21.5821C12.7399 21.5821 12.1728 21.8656 11.8326 22.0357C8.8272 23.6987 6.02972 26.1744 3.96941 29.2737C1.89019 32.3729 0.529254 36.0581 0.170117 39.8566C0.0378039 40.7826 0.0567058 41.7842 0.0189019 42.6535L0.0378039 45.1859C0.0189019 46.8678 0.0189019 48.5308 0 50.175C0.113412 52.8396 0.207921 52.027 0.378039 53.3121C-0.264627 61.6272 0.415843 71.7944 0.132314 80.7522C0.396941 78.7489 1.15302 81.5648 1.17192 86.5539C1.70117 91.9965 0.434745 88.7272 0.113412 93.6407C0.359137 96.0785 0.434745 100.671 0.396941 102.617L0.302431 102.466C0.58596 105.452 0.756077 110.177 0.49145 113.748L0.472548 113.181C0.415843 116.092 0.0756077 119.474 0.132314 122.517C0.623764 123.897 0.321333 131.324 0.756077 133.119C0.699372 133.497 0.661568 132.93 0.567058 133.761L0.982901 134.007L0.737176 140.054C0.567058 138.751 0.396941 138.429 0.283529 136.728C-0.0189019 143.192 0.661568 138.921 0.888391 142.322C1.19082 146.839 0.774979 146.574 0.604862 148.767C0.396941 146.896 0.699372 145.44 0.623764 144.325C0.283529 141.755 0.49145 147.066 0.245725 147.141C0.226823 148.105 0.756077 148.521 0.642666 151.828C0.604862 154.701 0.737176 161.428 0.264627 160.616C0.510352 163.072 0.472548 165.945 0.68047 167.797C0.756078 165.472 0.869489 161.183 1.17192 160.691C1.22863 162.808 1.34204 167.003 1.15302 167.665L1.03961 165.964C1.15302 167.589 1.0207 173.24 1.37984 171.066L0.850587 175.054C1.19082 176.679 1.17192 181.12 1.24753 184.749C0.774979 184.919 0.264627 181.989 0.151215 188.755L0.623764 194.576C0.661568 197.656 0.567058 198.45 0.283529 197.977C0.0189019 208.447 1.58776 208.711 1.17192 216.951C0.604862 213.455 0.567058 216.365 0.396941 220.069C0.49145 220.22 0.68047 220.56 0.699372 222.091C0.963999 221.033 0.321333 219.918 0.68047 217.083C1.03961 216.214 0.926195 220.466 1.03961 222.167C-0.170117 229.499 0.737176 246.545 0.170117 258.47C0.850587 257.658 0.359137 263.781 0.623764 266.199C-0.0945097 265.462 0.737176 272.908 0.321333 276.14L1.0018 274.363C0.604862 281.62 2.04141 286.175 1.20972 290.691C1.0018 294.773 0.718274 289.293 0.604862 287.592C-0.151216 293.224 1.20972 302.616 0.378039 307.114C0.661568 307.605 1.11521 305.923 1.36094 310.837C1.05851 314.787 0.699372 322.591 0.567058 321.873C0.661568 323.517 0.737176 324.557 0.793881 325.634C0.869489 326.787 0.907293 327.977 1.19082 329.886C0.926195 329.603 0.604862 327.921 0.453646 326.692C0.567058 329.811 1.43655 332.589 2.64627 334.989C3.8938 337.408 5.55717 339.467 7.56077 341.263C8.05223 341.924 8.95952 342.888 10.2449 343.852C10.8686 344.343 11.6247 344.797 12.4186 345.269C12.6832 345.42 12.9478 345.553 13.2314 345.704C13.4204 345.798 13.6094 345.874 13.7984 345.968C13.9307 345.987 13.9118 346.12 13.9118 346.214L13.8929 346.554V347.216C13.874 348.142 13.874 349.087 13.8551 350.013C13.8173 352.299 13.7606 354.51 13.7228 356.476C13.8362 357.402 13.8929 358.46 13.9307 359.632C15.3862 359.594 16.8605 359.594 18.3349 359.594C19.5257 359.613 20.6787 359.632 21.7372 359.651C23.3817 359.651 24.667 359.613 24.8939 359.292C24.8939 359.367 25.6121 359.462 25.9713 359.518C27.181 359.386 28.2773 359.197 29.4492 359.027C29.9974 358.951 30.5455 358.876 31.1504 358.8C31.3772 358.781 31.6229 358.763 31.8687 358.725C32.0766 358.781 32.2467 359.027 32.4546 359.178C32.19 359.178 31.9443 359.197 31.7364 359.254C31.604 359.348 31.7364 359.632 32.001 359.934C32.0388 359.991 32.568 360.482 32.9839 360.803C33.4375 361.181 33.9668 361.559 34.5149 361.918C36.424 363.204 38.7301 364.054 39.5429 364.451C38.6923 363.959 39.5429 364.281 40.7148 364.64C42.0001 365.037 43.7391 365.32 43.8903 365.112C45.1756 365.263 46.5555 365.226 47.7463 365.169C53.5114 365.018 48.4268 364.885 55.5339 364.81C59.56 364.791 56.8948 365.452 55.515 365.377C58.8228 365.66 62.1874 365.509 65.6086 365.396C64.4745 365.377 64.1532 365.339 65.3062 365.226C65.3818 365.301 65.6653 365.339 66.0812 365.377C65.9489 365.377 65.8165 365.396 65.6842 365.396H66.3647C66.2702 365.396 66.1946 365.377 66.119 365.377C67.4421 365.339 68.7841 365.282 70.1262 365.282C70.0884 365.301 70.0695 365.301 70.0506 365.32C68.7274 365.358 67.4988 365.377 66.5348 365.396C67.4232 365.434 68.6896 365.434 69.975 365.434C69.9939 365.434 69.9939 365.434 69.9939 365.434C70.1073 365.471 70.4664 365.471 70.9768 365.452H71.0713C72.2432 365.452 73.3395 365.49 74.0767 365.566L73.0938 366C75.5699 366.019 82.4314 365.528 82.2234 365.339C91.7689 365.698 107.476 365.415 114.262 365.169C113.26 365.282 113.279 365.377 114.432 365.245C117.778 365.15 121.558 364.791 121.88 365.074C125.15 364.885 124.923 365.377 129.932 365.415C130.008 365.49 130.367 365.226 130.026 365.093C138.438 365.622 148.985 364.64 158.965 365.037C158.153 365.056 156.943 365.301 156.13 365.452C163.918 365.226 171.289 365.056 178.283 364.545C177.546 364.734 177.754 364.923 175.92 365.037C180.268 365.018 185.163 364.942 188.244 364.697C188.112 364.715 187.847 364.715 187.394 364.715C183.5 364.337 190.456 363.941 194.028 364.054L194.142 364.148C199.548 364.13 199.793 363.884 205.199 363.884C208.432 364.13 202.383 363.997 203.668 364.281C204.935 364.961 216.011 364.715 217.108 364.791C218.412 364.64 220.245 364.526 220.019 364.337C224.271 364.167 221.965 364.753 224.895 364.715L236.482 363.449C235.991 363.619 240.263 364.035 236.728 364.262C245.517 364.167 250.507 363.374 255.951 362.939C258.56 363.052 267.122 362.769 270.052 362.75C271.47 363.109 267.557 362.731 266.914 363.015L271.337 363.43C265.478 363.506 272.074 364.092 268.918 364.356C273.606 364.111 284.758 364.375 291.789 364.489C286.931 363.695 301.24 364.111 300.938 363.411C309.179 363.279 305.039 363.978 308.158 364.13C316.721 363.865 324.868 364.054 332.655 363.978C332.655 363.978 332.769 364.073 332.353 364.13C339.498 363.903 351.103 364.111 358.267 363.487C357.946 363.619 358.589 363.752 356.736 363.865C364.429 364.13 358.154 362.958 367.057 363.393L364.978 363.733C370.497 363.393 375.695 364.054 381.989 363.506C382.216 363.714 380.817 363.77 379.929 363.865C385.694 363.714 392.196 363.789 397.073 363.317C397.829 363.544 397.073 363.733 394.786 363.903C400.494 364.167 400.986 363.279 406.184 363.506C407.488 363.544 409.737 363.752 409.737 363.827C412.497 363.544 420.096 363.544 422.893 363.43C423.63 363.657 425.691 363.733 428.942 363.978C457.54 363.959 486.819 364.073 515.229 363.449C517.913 363.865 515.418 363.941 513.32 364.054C515.437 363.997 519.501 364.13 525.058 363.997L525.417 364.092C529.103 363.959 531.163 364.356 535.152 364.167L535 363.997C537.099 363.865 539.518 363.903 541.654 363.487C543.771 363.109 545.604 362.391 546.436 361.484C547.476 361.087 548.496 360.596 549.479 360.048C549.838 359.651 550.179 359.292 550.519 358.951C550.802 358.687 551.029 358.309 551.332 358.158C552.069 358.12 552.787 358.158 553.732 358.196C555.49 358.252 557.399 358.347 559.951 358.063L559.365 358.177C560.707 358.233 562.03 358.252 563.448 358.233C565.036 358.196 566.567 358.158 567.947 358.082C567.758 353.206 567.493 350.183 567.833 348.463C567.814 347.783 567.814 347.065 567.795 346.346L567.776 345.345C567.795 345.194 567.72 344.967 567.814 344.872L568.268 344.664C569.421 344.173 570.687 343.398 571.765 342.642C573.844 341.074 575.091 339.486 575.224 338.901C576.226 338.088 575.942 338.901 575.488 339.694C579.307 335.593 581.443 329.773 581.121 324.009ZM75.551 365.169C76.326 365.131 77.0632 365.093 77.6492 365.112C77.0254 365.131 76.326 365.15 75.551 365.169Z" fill="#FAAE5D"/>
<path d="M566.567 10.8477C566.453 11.2823 566.359 11.5091 566.264 11.4713C566.283 11.3768 566.302 11.2445 566.321 11.0934C565.829 10.9611 564.809 10.8477 564.242 10.7154C563.694 10.602 563.561 10.4697 565.281 10.2618C565.47 10.4508 566.321 10.6587 566.567 10.8477Z" fill="#FAAE5D"/>
<path d="M446.161 1.64416C444.611 1.66306 444.838 1.81424 444.12 1.94653C443.969 2.04102 442.343 1.81424 441.946 1.75755C443.496 1.73865 444.933 1.47408 446.161 1.64416Z" fill="#FAAE5D"/>
<path d="M423.479 1.22839L412.119 1.75754C412.592 1.47407 419.434 1.26619 423.479 1.22839Z" fill="#FAAE5D"/>
<path d="M382.273 0.623713C379.683 0.396935 380.402 0.264648 383.879 0.264648C384.125 0.415833 382.991 0.491426 382.273 0.623713Z" fill="#FAAE5D"/>
<path d="M375.241 0.944946C375.393 0.963844 375.544 0.982742 375.695 1.00164C375.43 1.00164 375.26 0.982743 375.241 0.944946Z" fill="#FAAE5D"/>
<path d="M380.156 1.24738C378.001 1.24738 376.791 1.134 375.714 1.00171C377.075 1.0584 380.836 0.869422 380.156 1.24738Z" fill="#FAAE5D"/>
<path d="M315.379 0.453578C313.829 0.472476 310.445 0.699254 309.009 0.396884C310.634 0.604763 316.57 0.0378193 315.379 0.453578Z" fill="#FAAE5D"/>
<path d="M285.287 0.869318C284.304 0.85042 283.907 0.793726 282.773 0.869318C280.996 0.75593 282.868 0.54805 284.38 0.510254L285.287 0.869318Z" fill="#FAAE5D"/>
<path d="M0.642618 278.691L0.510304 281.469L0.377991 278.218L0.642618 278.691Z" fill="#FAAE5D"/>
<path d="M175.637 365.868C172.707 365.906 176.733 365.528 172.839 365.584C176.09 365.395 175.107 365.83 175.637 365.868Z" fill="#FAAE5D"/>
<path d="M302.318 364.205H301.335L301.656 363.638L302.318 364.205Z" fill="#FAAE5D"/>
<path d="M332.712 12.4916C333.77 12.5105 334.545 12.4916 335.188 12.4727C334.753 12.4538 334.016 12.4538 332.712 12.4916Z" fill="#FAAE5D"/>
<path d="M437.636 12.7562C436.427 12.9074 435.425 12.9074 434.461 12.8885C435.085 12.8318 436.087 12.794 437.636 12.7562Z" fill="#FAAE5D"/>
<path d="M262.264 12.1894C262.472 12.1705 262.642 12.1516 262.775 12.1138C262.529 12.1516 262.359 12.1705 262.264 12.1894Z" fill="#FAAE5D"/>
<path d="M402.649 353.187C402.592 353.187 402.517 353.187 402.479 353.206C402.592 353.206 402.649 353.187 402.649 353.187Z" fill="#FAAE5D"/>
<path d="M160.175 354.245C159.646 354.302 159.268 354.34 159.324 354.264C159.608 354.245 159.891 354.245 160.175 354.245Z" fill="#FAAE5D"/>
<path d="M283.34 12.1894C283.567 12.1705 283.831 12.1516 284.134 12.1327L283.34 12.1894Z" fill="#FAAE5D"/>
<path d="M433.61 13.1342C433.535 13.1342 433.459 13.1153 433.365 13.1153C428.904 13.0019 425.048 12.6617 427.505 12.4349C430.322 12.4727 427.43 12.6428 428.601 12.7562C430.945 12.5861 432.609 12.8129 434.461 12.8885C433.516 12.9452 433.403 13.0397 433.61 13.1342Z" fill="#FAAE5D"/>
<path d="M15.3104 289.576C15.3104 289.689 15.3104 289.803 15.3104 289.916C15.3293 290.653 15.3482 291.39 15.386 292.108C15.386 291.182 15.3482 290.653 15.3104 289.576Z" fill="#FAAE5D"/>
<path d="M556.227 334.062L555.509 334.365C555.509 334.383 555.509 334.383 555.509 334.402L555.736 334.308C556.341 334.043 556.983 333.741 557.702 333.439L556.227 334.062ZM570.158 303.372C570.101 292.524 570.007 281.96 569.78 272.587C569.856 271.642 569.912 272.813 569.988 273.361C569.572 261.682 570.423 249.436 569.629 240.857L569.307 237.776C569.421 235.017 569.667 235.244 569.78 233.108C569.553 230.822 569.704 222.45 569.421 221.089C569.553 219.842 569.591 221.618 569.685 221.562C569.761 216.176 569.27 209.977 569.383 204.893L569.534 206.5C570.082 179.835 570.517 145.308 569.799 123.405C569.667 117.433 570.215 120.759 570.177 118.113C569.572 95.53 570.593 68.2978 569.534 47.7367C569.194 43.7869 567.587 40.7821 565.981 38.7222C564.317 36.6624 562.635 35.434 561.274 34.678C560.858 34.4513 560.48 34.2623 560.121 34.1111L560.14 34.0166L557.796 33.1473C557.758 31.8055 557.456 22.6588 556.095 20.58C556.454 20.6178 556.775 20.6556 556.983 20.7123C557.418 20.5611 556.492 20.41 555.811 20.2588C555.793 20.2399 555.774 20.221 555.755 20.2021C554.677 19.6351 550.141 19.7485 547.306 19.8808C546.531 19.8241 546.134 19.7296 546.587 19.6351L544.243 19.7107C543.903 19.6918 543.487 19.843 543.223 19.654C542.939 19.4273 542.693 19.2005 542.372 18.9548L542.731 18.8981C539.65 16.2713 536.38 14.8728 532.978 14.3059C531.258 14.0035 529.519 14.0602 527.761 14.0602C525.965 14.0602 524.094 14.0791 522.053 14.1358L525.134 14.4193C520.37 14.4382 515.55 14.8161 511.165 14.476C513.32 14.3815 511.77 14.2492 511.713 14.098C510.617 14.1358 509.388 14.2492 508.065 14.2114L509.804 13.8334C506.912 14.3248 497.159 13.9657 495.136 14.0602L495.817 13.9846C488.728 13.7767 497.064 14.2303 492.282 14.2492C488.199 14.1736 490.732 13.7389 486.971 13.5499C479.769 13.5499 467.426 13.909 459.355 13.5499C452.947 13.6255 445.84 13.7956 440.075 14.0224C434.348 14.0224 440.377 13.531 434.593 13.7389C435.217 13.5877 434.423 13.4177 433.913 13.2476C433.006 13.4177 423.177 13.2287 427.732 13.6444C419.396 13.5499 409.983 13.5121 401.194 13.5877C404.123 13.5688 404.898 13.2665 402.422 13.1153C398.358 13.4177 391.232 13.5688 383.842 13.4932C383.974 13.7956 386.374 13.7956 385.599 14.098C384.503 14.1547 382.726 14.287 380.893 14.2681C379.815 13.9468 380.137 13.4555 373.502 13.4366C373.899 13.3232 374.712 13.2665 375.695 13.2287C370.78 13.3421 369.23 12.794 367.662 12.7751C368.739 12.7373 370.194 12.6806 371.291 12.6617C366.433 12.5105 364.732 12.794 359.572 12.7751C358.173 12.2082 367.794 12.7184 369.684 12.3594L365.979 11.9436C358.059 11.8869 363.806 12.4161 355.64 12.2649L356.642 12.057L351.538 12.1893C351.463 12.3972 352.559 12.7184 356.944 12.6806C354.071 13.2287 352.899 12.7562 345.962 12.8696C343.732 13.1909 348.911 12.8318 349.062 13.1531C349.743 13.4366 344.979 13.4366 341.501 13.4932C335.793 13.4932 338.571 13.1531 336.265 12.9452C337.343 12.9074 341.747 12.8507 341.274 13.0397C348.306 12.7184 338.212 12.3783 343.07 12.1704C337.74 11.9814 337.91 12.3405 335.188 12.4539C336.643 12.4916 334.3 12.7751 335.49 12.8885C326.134 13.72 329.499 12.2649 320.539 12.4161C322.429 12.9452 308.555 13.172 315.095 13.7578C312.94 13.8523 310.237 13.9846 308.007 13.9279C310.389 13.5499 304 13.6444 308.234 13.2854H304.964L309.897 12.8507C306.268 12.5861 300.257 12.3405 298.329 12.1704C293.604 12.3216 299.785 12.5294 294.322 12.605C296.231 12.4161 292.848 12.2649 290.428 12.2649C295.286 12.4161 290.523 12.794 287.442 12.8885C282.641 12.8885 278.804 12.5294 279.503 12.4539L283.019 12.2082C281.034 12.3027 282.111 12.0003 278.993 12.1137C277.953 12.3216 275.723 12.6239 274.551 12.8885C271.488 12.983 269.296 12.7184 268.237 12.7562L273.095 12.5294C266.706 12.6239 271.734 11.9625 265.156 12.1137L263.455 12.3972C262.434 12.3594 261.83 12.2838 262.264 12.1893C260.847 12.3216 257.822 12.2838 256.424 12.3594L255.97 12.1704C253.267 12.2838 249.808 12.7184 246.481 12.3405C249.109 12.794 249.808 12.3405 254.496 12.5483C257.425 12.8885 249.865 12.8696 248.806 12.9263C249.109 12.435 241.756 12.8696 238.448 12.8696C236.52 12.7184 234.838 12.605 233.666 12.5105L232.361 12.8318C231.133 12.2082 225.784 12.983 222.022 12.7751C223.931 12.5861 223.667 12.3405 221.039 12.246C224.574 12.7184 215.236 12.8318 216.295 13.1531C209.585 12.983 217.864 12.5483 215.879 12.2271C212.552 12.5861 208.413 11.9814 206.201 12.4539C211.059 12.605 205.445 12.7562 204.443 12.9641C198.338 12.9263 205.445 12.7562 201.135 12.5861C198.584 12.6428 195.238 13.0019 199.189 13.1531C195.635 13.0397 191.628 13.4932 187.621 13.2098C185.995 12.9074 195.106 13.0775 192.781 12.8696C184.313 12.8318 188.528 13.5877 180.665 13.6822C184.029 13.8334 180.797 14.3626 176.998 14.5326C168.284 14.4004 180.797 14.3626 177.47 13.9846L173.992 14.0413C169.153 13.531 184.275 13.1909 179.663 12.7751L175.901 12.9452C176.733 12.8129 177.924 12.5483 176.393 12.3972C175.429 12.7562 167.585 12.4916 166.885 12.5861C166.11 12.8885 169.947 12.4916 169.342 12.7373C165.316 12.8129 163.54 13.3043 157.377 13.1153C160.761 12.9074 156.073 12.7184 157.472 12.5294C154.467 12.4161 156.527 12.8885 152.217 12.7373L152.69 12.5483C136.623 12.4916 116.587 12.5294 102.77 13.2665C100.256 12.9641 95.2279 12.9263 87.4025 12.7373C90.2945 12.8507 87.119 13.0397 85.1721 13.0775L81.335 12.7184C76.6284 12.5294 70.5231 12.8507 66.1945 13.0397C65.4195 12.983 65.1927 12.8885 64.9659 12.794C60.8264 12.5672 60.6563 12.983 59.0307 13.0586L56.3277 12.8129L55.7229 13.0586C54.6643 13.0964 53.4924 13.1153 52.3772 13.1531C51.2053 13.2098 50.0523 13.3799 49.0883 13.5688C47.1414 13.9468 45.8371 14.4004 46.0451 14.098C44.514 14.7594 43.1342 15.6098 44.5707 15.0051C43.6445 15.3831 42.4726 16.0067 41.2251 16.8949C40.8848 17.1595 40.5068 17.4241 40.1477 17.7264C39.9586 17.8965 39.7507 18.0666 39.5428 18.2367C39.4861 18.2934 39.3916 18.2556 39.316 18.2745L38.919 18.2556H37.4636C32.9838 18.2745 27.9937 18.2934 23.8164 18.3123C23.8164 19.4084 23.8353 20.3155 23.8353 21.2037C23.8731 19.9753 23.892 19.0304 23.9109 18.4068C26.6706 18.5013 26.4627 18.6146 26.8785 18.8036C26.1413 19.0304 25.5554 18.9926 24.4401 18.9359C24.4212 19.3706 24.4023 19.8808 24.4023 20.5611C24.4023 21.1848 24.4212 22.1486 24.4779 22.9234C24.3078 22.999 24.1566 26.4007 24.0432 22.7533C23.9865 24.0006 23.9487 25.3235 23.892 26.6841C23.8542 27.818 23.8353 29.0086 23.7975 30.2181C23.9109 30.5583 23.4383 30.5394 23.2871 30.6527C22.6256 30.974 21.8506 31.3709 21.1512 31.8244C19.7525 32.7126 18.4104 33.8087 17.2385 35.056C14.8758 37.5695 13.1179 40.7632 12.2862 44.2027C11.8704 45.9035 11.7191 47.7178 11.7002 49.3997C11.7002 51.006 11.7002 52.5935 11.6813 54.1809C11.7569 56.7133 11.8326 55.9384 11.9271 57.1668C11.5112 65.104 11.9649 74.8366 11.7758 83.3974C11.946 81.4698 12.4374 84.1911 12.4563 88.9535C12.7966 94.1505 11.9649 91.0323 11.7569 95.7379C11.9271 98.0624 11.9649 102.447 11.946 104.299L11.8893 104.148C12.0594 107.02 12.1728 111.537 12.0027 114.938L11.9838 114.409C11.9649 117.187 11.738 120.419 11.7758 123.329C12.0972 124.633 11.8893 131.758 12.1728 133.459C12.135 133.837 12.1161 133.288 12.0405 134.063L12.324 134.309L12.1728 140.092C12.0594 138.845 11.946 138.542 11.8704 136.917C11.6813 143.097 12.1161 138.996 12.2673 142.265C12.4563 146.574 12.1917 146.328 12.0783 148.426C11.946 146.631 12.135 145.251 12.0972 144.174C11.8704 141.717 12.0027 146.782 11.8515 146.876C11.8326 147.783 12.1728 148.199 12.1161 151.355C12.0783 154.114 12.1539 160.521 11.8704 159.746C12.0216 162.089 11.9838 164.848 12.1161 166.625C12.1728 164.395 12.2484 160.294 12.4374 159.821C12.4752 161.844 12.5697 165.85 12.4374 166.492L12.3618 164.867C12.4374 166.417 12.3429 171.822 12.5886 169.743L12.2295 173.541C12.4563 175.11 12.4563 179.362 12.4941 182.82C12.1917 182.972 11.8515 180.175 11.7758 186.657L12.0972 192.232C12.1161 195.161 12.0594 195.917 11.8704 195.463C11.7002 205.479 12.7209 205.725 12.4374 213.606C12.0783 210.261 12.0405 213.039 11.946 216.591C12.0027 216.743 12.135 217.064 12.135 218.519C12.3051 217.517 11.8893 216.44 12.135 213.738C12.3618 212.887 12.2862 216.969 12.3618 218.595C11.5679 225.606 12.1728 241.896 11.7947 253.292C12.2295 252.517 11.9271 258.375 12.0783 260.7C11.6246 259.982 12.1728 267.106 11.8893 270.187L12.3429 268.486C12.0783 275.421 13.0234 279.787 12.4752 284.096C12.3429 288.007 12.1539 282.773 12.0783 281.147C11.5868 286.533 12.4752 295.51 11.9271 299.8C12.1161 300.272 12.4185 298.666 12.5697 303.372C12.3807 307.132 12.135 314.616 12.0594 313.917C12.1161 315.466 12.1539 316.449 12.1917 317.47C12.2295 318.452 12.1728 319.624 12.3429 321.4C12.1917 321.136 12.0027 319.7 11.946 318.585C11.946 324.33 14.2709 328.827 17.7867 332.267C18.2592 332.872 19.0909 333.779 20.3006 334.667C20.8866 335.139 21.567 335.574 22.3042 336.028C22.6823 336.217 23.0603 336.406 23.4383 336.613C23.6085 336.689 23.7975 336.784 23.9865 336.859C24.1188 336.878 24.0999 337.01 24.0999 337.105L24.081 337.426V338.428C24.081 339.335 24.0621 340.242 24.0621 341.149C24.0243 343.228 24.0054 345.231 23.9676 347.007C24.0243 347.612 24.0621 348.274 24.081 348.992C24.7804 348.973 25.5176 348.954 26.2736 348.935H28.3906C29.3925 348.935 30.3943 348.954 31.2826 348.954C33.0405 348.973 34.4204 348.954 34.6661 348.727C34.6661 348.784 35.3466 348.841 35.6868 348.878C36.8398 348.803 37.8983 348.67 39.0135 348.557C39.4483 348.557 39.8452 348.311 40.1477 348.689C40.6202 349.067 41.1306 349.445 41.6976 349.88L40.6958 349.559C40.2611 349.483 41.9433 351.014 44.136 352.11C45.9884 353.13 48.2188 353.678 49.0505 353.924C48.8615 353.849 48.748 353.811 48.7102 353.773C48.8236 353.773 49.4285 353.905 50.1468 354.038C51.3754 354.264 53.001 354.302 53.1333 354.17L56.5923 354.056C62.1117 353.962 57.2539 353.886 64.0397 353.83C67.65 353.811 65.6275 354.189 64.2854 354.189C67.4231 354.378 70.5987 354.283 73.8309 354.208C72.6212 354.208 72.2242 354.17 73.3962 354.094C73.4718 354.151 73.7364 354.17 74.1522 354.189C74.19 354.208 74.2468 354.189 74.3035 354.189C75.5132 354.17 76.7607 354.132 77.9893 354.132C77.9704 354.151 77.9515 354.151 77.9326 354.151C76.5339 354.17 75.2486 354.189 74.3035 354.189C75.154 354.227 76.4961 354.227 77.857 354.227C77.9893 354.264 78.4052 354.264 78.9911 354.245C80.0686 354.245 81.0892 354.264 81.7508 354.321L80.8246 354.586C83.2063 354.604 89.7652 354.283 89.5573 354.17C98.6303 354.397 113.487 354.208 120.027 354.075C119.252 354.132 119.29 354.189 120.349 354.113C123.543 354.056 127.172 353.811 127.475 354C130.593 353.886 130.386 354.189 135.168 354.208C135.243 354.264 135.64 354.056 135.13 354C143.163 354.359 153.257 353.716 162.802 353.981C162.027 354 160.931 354.151 160.175 354.245C167.622 354.113 174.692 353.981 181.383 353.641C180.684 353.773 180.891 353.886 179.134 353.962C183.141 353.962 187.639 353.905 190.588 353.773C190.456 353.773 190.305 353.773 190.097 353.773C186.392 353.527 193.027 353.263 196.448 353.319L196.542 353.395C201.721 353.376 201.948 353.225 207.127 353.225C210.227 353.376 204.424 353.3 205.653 353.471C206.882 353.924 217.467 353.754 218.506 353.811C219.754 353.716 221.512 353.641 221.304 353.527C225.349 353.395 223.156 353.792 225.954 353.754L237.049 352.941C236.596 353.055 240.641 353.319 237.257 353.471C245.668 353.414 250.451 352.885 255.63 352.601C258.144 352.677 266.309 352.507 269.126 352.488C270.468 352.715 266.744 352.469 266.12 352.658L270.335 352.923C264.741 352.979 271.054 353.357 268.029 353.527C272.509 353.376 283.17 353.546 289.918 353.622C285.249 353.111 298.934 353.376 298.651 352.923C306.533 352.828 302.563 353.282 305.55 353.395C313.753 353.206 321.522 353.338 328.988 353.282C328.988 353.282 329.083 353.338 328.686 353.376C335.528 353.244 346.605 353.376 353.466 352.96C353.145 353.055 353.769 353.149 351.992 353.206C359.345 353.376 353.353 352.62 361.859 352.904L359.874 353.13C365.148 352.904 370.119 353.338 376.149 352.979C376.356 353.112 375.014 353.149 374.164 353.206C379.664 353.111 385.902 353.168 390.552 352.847C391.289 352.998 390.552 353.13 388.378 353.225C393.841 353.414 394.294 352.828 399.266 352.979C400.494 352.998 402.649 353.149 402.649 353.187C405.295 352.998 412.573 352.998 415.238 352.923C415.937 353.074 417.922 353.112 421.022 353.282C448.354 353.263 476.348 353.357 503.51 352.941C506.307 353.225 503.264 353.263 501.185 353.338C503.056 353.282 507.139 353.395 512.923 353.3L513.244 353.357C516.779 353.282 518.745 353.527 522.544 353.414L522.431 353.3C524.434 353.168 526.665 353.3 528.668 353.395C530.653 353.546 532.543 353.452 533.545 352.979C534.603 352.885 535.643 352.696 536.683 352.412C538.516 351.486 539.915 350.73 541.351 349.748C542.032 349.275 542.864 348.633 543.355 348.122C543.998 347.99 545.132 348.047 546.36 347.933L545.793 348.009C547.948 348.066 550.141 348.047 552.22 347.99C554.394 347.915 556.435 347.858 558.155 347.801C558.117 345.779 558.117 344.286 558.231 343.436C558.212 342.018 558.193 340.563 558.174 339.146C558.174 338.465 558.155 337.785 558.136 337.124C558.136 336.821 558.117 336.519 558.117 336.217C558.212 335.971 558.59 335.933 558.817 335.801C560.972 334.818 562.465 333.476 562.748 333.061C563.75 332.38 563.334 333.042 562.711 333.646C566.982 330.453 569.875 325.256 570.196 319.737C570.271 314.276 570.177 308.795 570.158 303.372ZM568.362 82.8872C568.154 101.294 567.946 119.606 567.72 138.882C567.795 151.903 567.965 168.93 567.795 180.912C567.833 206.103 567.663 231.37 567.512 256.769C567.455 269.468 567.398 282.187 567.342 294.962V314.162C567.342 315.731 567.379 317.432 567.342 318.887C567.323 320.267 567.115 321.646 566.718 322.95C566.018 325.464 564.658 327.826 562.824 329.697C564.053 328.601 562.711 330.528 560.934 331.832L560.405 332.078C559.932 332.418 559.459 332.796 558.949 333.079L558.571 333.306C558.496 333.344 558.495 333.363 558.25 333.476L557.834 333.684L556.227 334.44C555.679 334.497 555.849 335.007 555.811 335.347V336.311C555.793 336.859 555.793 337.294 555.774 337.596C555.755 338.05 555.717 338.031 555.679 337.88C555.66 337.842 555.66 337.785 555.641 337.71C555.622 337.596 555.622 337.445 555.604 337.256C555.585 336.916 555.566 336.462 555.547 335.952C555.547 335.687 555.528 335.404 555.528 335.102C555.528 334.95 555.509 334.799 555.509 334.648V334.402C555.452 334.629 555.49 334.913 555.471 335.139V341.281C555.49 342.604 555.49 343.889 555.49 345.137C552.39 345.137 549.347 345.155 546.323 345.155H542.712C542.221 345.023 541.956 345.514 541.616 345.779C541.333 346.062 540.841 346.516 540.766 346.554C540.463 346.837 540.142 347.102 539.801 347.348C538.478 348.33 537.023 349.124 535.454 349.672C533.904 350.22 532.26 350.541 530.615 350.598H525.001C521.183 350.598 517.346 350.579 513.452 350.579C512.129 350.957 503.056 350.598 502.357 350.995C501.431 350.919 502.3 350.9 502.867 350.825C488.993 351.033 488.048 351.033 475.422 350.541C421.551 350.22 369.608 350.504 316.57 350.39C262.888 350.56 210.133 350.73 155.09 350.9C146.66 351.505 135.092 351.222 125.112 351.751L125.755 351.562C117.249 351.845 115.075 351.524 104.282 351.297C104.169 351.505 100.142 351.354 101.692 351.694C97.9498 352.015 94.9444 351.203 89.5573 351.354C89.3683 351.241 89.6896 351.581 88.5366 351.467C74.6248 351.902 91.2018 351.259 73.5474 350.919C69.4268 350.938 65.3061 350.976 61.1666 350.995L54.9668 351.052L53.4168 351.071C52.9443 351.052 52.4717 351.052 52.0181 351.014C51.0919 350.938 50.1657 350.806 49.2584 350.598C47.4627 350.145 45.7237 349.426 44.1549 348.406C43.7579 348.16 43.3799 347.896 43.0018 347.593C42.8317 347.461 42.6427 347.329 42.4726 347.159C42.2836 347.007 42.1513 346.913 41.7732 346.554C41.4519 346.289 41.1684 345.892 40.7903 345.76H37.8038C34.2692 345.798 30.7345 345.817 27.2376 345.836C27.2376 344.362 27.2187 342.907 27.2187 341.47V334.856L26.9352 334.743L26.3681 334.497L25.234 334.005L24.9505 333.873L24.7048 333.76L24.4023 333.609C23.9865 333.401 23.5896 333.174 23.2115 332.928C22.4365 332.456 21.7183 331.908 21.0378 331.322C19.7903 330.245 18.694 328.979 17.8245 327.58C18.3348 328.449 18.3159 328.809 17.2574 327.183C16.9739 326.125 16.1233 324.538 15.5562 322.591C14.9325 320.626 14.8191 318.396 14.9514 316.241C15.0837 316.544 15.0837 318.622 15.1971 319.53C15.216 316.865 15.2349 314.314 15.2538 311.838C15.2349 309.306 15.2349 306.849 15.216 304.392C15.1971 299.611 15.1782 294.905 15.2916 289.916C15.0459 280.221 15.5562 268.864 15.2538 262.344C15.4995 263.893 15.4239 258.016 15.5562 255.937C14.8569 248.907 15.7831 237.058 15.3294 228.252L15.4428 228.554C15.3861 202.267 15.5562 173.636 15.2349 146.196C15.1593 130.756 15.7831 113.351 15.4806 96.3804C15.3861 93.2811 15.2349 95.7379 15.1593 93.2244C15.1782 88.9535 15.3861 93.2811 15.4617 91.5992C15.1782 83.2462 15.5184 72.2286 15.5184 61.7591C15.405 60.5118 15.3672 57.5826 15.216 58.5653C15.3294 55.6739 15.3672 52.499 15.3861 49.1729C15.405 46.2059 16.1611 43.1444 17.7489 40.4609C19.3177 37.7962 21.6805 35.5852 24.3456 34.2056L24.856 33.941C25.2151 33.752 25.5176 33.6575 25.8578 33.5064L26.8407 33.0906L27.3321 32.8827C27.5212 32.826 27.3888 32.5615 27.4267 32.4103C27.4267 31.2197 27.4456 30.048 27.4456 28.8952C27.4834 27.2889 27.5023 25.7392 27.5401 24.2463C27.351 25.4936 27.2565 25.3613 27.1998 24.4542C27.162 24.0195 27.1431 23.3014 27.1431 22.6399C27.1242 22.3376 27.1242 21.9785 27.1242 21.6194C27.8236 21.6194 28.5797 21.6194 29.279 21.6005C30.5077 21.6005 31.6229 21.5816 32.4546 21.5627C34.8173 21.5816 35.0819 21.7517 34.3637 21.8651C35.838 21.8462 37.199 21.8462 38.4843 21.8273H40.6958C40.9415 21.884 41.0738 21.6383 41.2251 21.525L41.6976 21.0714L42.1513 20.6556L42.4159 20.4289C43.1153 19.843 43.8335 19.295 44.6085 18.8414C46.1396 17.9154 47.8407 17.1784 49.8443 16.7815C50.8462 16.5925 51.9047 16.4603 53.0577 16.4603C54.3241 16.4792 55.685 16.498 57.1594 16.5169C62.0739 16.4414 63.4159 16.1201 69.3322 16.2146C73.0181 16.6303 81.6941 16.2335 87.497 16.3847C86.0227 16.0256 93.4322 15.7421 99.1973 15.8933L97.4205 16.4036C115.869 16.0823 142.464 16.6492 164.069 16.0256L165.694 16.3091C187.98 15.9689 209.887 16.328 231.341 15.7799C237.125 15.9311 246.387 16.0256 252.076 16.0256C259.883 15.7799 262.68 15.7988 267.992 15.402C270.921 15.3642 272.698 15.6098 273.832 15.7043C283.642 15.7799 293.037 16.1957 300.919 15.7232L301.221 15.9878C309.009 15.7232 320.312 15.4209 329.102 15.7043C331.54 15.4776 340.348 15.3831 336.36 15.0996C339.819 15.0429 338.59 15.5153 342.125 15.2508L338.798 15.6098C358.551 15.7043 375.203 15.5153 394.275 15.3264C399.814 15.761 412.459 15.2886 423.271 15.5153C429.603 15.2886 440.623 15.6287 445.33 15.0807L445.651 15.3453C454.119 15.3831 465.555 15.4398 476.65 15.4964C483.133 15.5531 483.133 15.1941 488.237 15.0618L488.539 15.3075C494.153 15.1563 495.647 14.7783 497.726 14.5137C502.035 14.7027 502.527 14.5137 506.837 14.6838C502.659 14.8161 499.106 15.0996 496.327 15.4209C503.188 15.5342 510.069 14.9106 514.303 15.2886C519.879 15.3831 524.226 15.2886 525.039 15.0051C525.398 15.0807 528.423 15.1563 525.72 15.2886C528.101 15.3075 530.067 15.213 531.655 15.3264C533.129 15.4209 534.396 15.6665 535.624 15.9878C534.925 15.7799 533.488 15.3453 532.354 15.2319C533.394 15.2319 534.925 15.4964 536.078 15.8366C537.231 16.1579 538.006 16.4414 537.666 16.0823C535.605 15.3642 535.473 15.3264 532.732 14.7972C533.337 14.7405 535.492 15.024 537.533 15.8933C539.612 16.7437 541.465 18.1611 542.07 18.8414C542.788 19.654 541.786 18.8792 540.879 18.3501C539.953 17.802 539.14 17.4052 540.463 18.369C541.351 18.9359 542.051 19.4084 542.958 20.221C543.053 20.3533 543.204 20.3344 543.355 20.3344L543.79 20.3155L544.603 20.2588L544.981 20.2399L545 20.4856C546.946 20.3533 551.483 20.1265 553.978 20.3344C554.016 20.3722 554.243 20.41 554.602 20.4478C554.772 20.4667 554.961 20.4667 555.131 20.4856C555.301 20.5234 555.433 20.58 555.528 20.6178C556.738 21.2604 557.324 30.7283 557.324 33.2229V33.4875L559.875 34.4324C562.881 36.1521 565.357 38.7789 566.812 41.8782C567.739 43.8436 568.306 45.9791 568.4 48.1335C568.495 50.3257 568.438 52.8014 568.457 55.1069C568.419 64.4615 568.4 73.6838 568.362 82.8872ZM190.588 353.773C190.777 353.773 190.91 353.773 190.966 353.754C190.853 353.773 190.702 353.773 190.588 353.773ZM557.702 333.439L556.227 334.062L555.509 334.365C555.509 334.383 555.509 334.383 555.509 334.402L555.736 334.308C556.341 334.043 556.983 333.741 557.702 333.439ZM500.051 353.546C500.013 353.452 500.24 353.395 500.731 353.357C499.673 353.376 499.068 353.433 500.051 353.546ZM381.781 13.0208C384.692 12.6239 396.657 12.5861 399.36 12.8318C405.22 12.4161 394.729 12.794 395.825 12.3594C390.495 12.3972 388.038 12.6239 379.778 12.6806C379.683 12.9074 382.462 12.9263 378.681 13.0964C377.566 13.172 376.583 13.2098 375.695 13.2287C378.984 13.1531 384.106 13.3988 381.781 13.0208ZM191.004 353.754C191.684 353.716 192.252 353.678 192.705 353.622C190.04 353.527 191.288 353.678 191.004 353.754Z" fill="#FAAE5D"/>
<path d="M33.9101 21.9219C34.0991 21.903 34.2503 21.8841 34.3826 21.8652C33.3619 21.8652 32.3034 21.8841 31.1504 21.8841L33.9101 21.9219Z" fill="#FAAE5D"/>
<path d="M433.913 13.2475C433.78 13.2097 433.686 13.172 433.61 13.1342C433.969 13.1909 434.045 13.2286 433.913 13.2475Z" fill="#FAAE5D"/>
<path d="M535.624 15.9878C535.813 16.0445 535.945 16.0823 536.021 16.0823C535.889 16.0445 535.756 16.0256 535.624 15.9878Z" fill="#FAAE5D"/>
<path d="M441.247 13.0207C439.754 13.0396 439.981 13.1341 439.3 13.2097C439.149 13.2664 437.599 13.1341 437.221 13.0963C438.695 13.0774 440.075 12.9074 441.247 13.0207Z" fill="#FAAE5D"/>
<path d="M419.566 12.7562L408.698 13.0964C409.151 12.9074 415.71 12.7751 419.566 12.7562Z" fill="#FAAE5D"/>
<path d="M380.175 12.3594C377.698 12.2083 378.379 12.1138 381.706 12.1138C381.951 12.2083 380.855 12.265 380.175 12.3594Z" fill="#FAAE5D"/>
<path d="M378.152 12.7562C376.167 12.7562 375.033 12.6995 374.031 12.6051C375.43 12.6239 378.776 12.5106 378.152 12.7562Z" fill="#FAAE5D"/>
<path d="M374.031 12.605C373.691 12.605 373.464 12.5861 373.445 12.5483C373.634 12.5672 373.823 12.5861 374.031 12.605Z" fill="#FAAE5D"/>
<path d="M316.229 12.2461C314.736 12.2461 311.504 12.3972 310.124 12.2083C311.674 12.3405 317.363 11.9815 316.229 12.2461Z" fill="#FAAE5D"/>
<path d="M287.442 12.5106C286.515 12.4917 286.137 12.4728 285.06 12.5106C283.34 12.435 285.154 12.3027 286.591 12.2838L287.442 12.5106Z" fill="#FAAE5D"/>
<path d="M12.116 272.643L12.0215 275.289L11.9269 272.19L12.116 272.643Z" fill="#FAAE5D"/>
<path d="M178.869 354.51C176.166 354.529 179.606 354.321 176.601 354.321C179.209 354.227 178.378 354.491 178.869 354.51Z" fill="#FAAE5D"/>
<path d="M299.974 353.433H299.029L299.35 353.074L299.974 353.433Z" fill="#FAAE5D"/>
<path d="M0.642618 278.691L0.510304 281.469L0.377991 278.218L0.642618 278.691Z" fill="#FAAE5D"/>
<path d="M5.67054 299.063C5.61383 298.288 5.57603 297.475 5.55713 296.682V296.417C5.65164 297.532 5.68944 298.099 5.67054 299.063Z" fill="#FAAE5D"/>
<path d="M12.1162 272.643L12.0217 275.289L11.9272 272.19L12.1162 272.643Z" fill="#FAAE5D"/>
<path d="M19.9415 12.9452C20.1873 12.9452 20.433 12.9452 20.6787 12.9263C20.5464 12.9641 20.3763 13.0019 20.1873 13.0208L19.3367 12.983C19.5446 12.9641 19.7525 12.9641 19.9415 12.9452Z" fill="#FAAE5D"/>
<path d="M155.185 365.471C155.506 365.471 155.828 365.452 156.13 365.452C155.544 365.546 155.147 365.603 155.185 365.471Z" fill="#FAAE5D"/>
<path d="M159.325 354.264C159.608 354.245 159.892 354.245 160.175 354.245C159.646 354.302 159.268 354.34 159.325 354.264Z" fill="#FAAE5D"/>
<path d="M175.637 365.868C172.707 365.906 176.733 365.528 172.839 365.584C176.09 365.395 175.107 365.83 175.637 365.868Z" fill="#FAAE5D"/>
<path d="M176.601 354.321C179.209 354.227 178.378 354.491 178.869 354.51C176.166 354.529 179.606 354.321 176.601 354.321Z" fill="#FAAE5D"/>
<path d="M190.135 364.507C189.643 364.583 189.001 364.639 188.245 364.696C188.849 364.602 187.129 364.337 190.135 364.507Z" fill="#FAAE5D"/>
<path d="M191.004 353.754C191.288 353.678 190.04 353.527 192.705 353.622C192.252 353.678 191.685 353.716 191.004 353.754Z" fill="#FAAE5D"/>
<path d="M281.828 0.283447C281.431 0.321244 281.11 0.35904 280.826 0.377938L281.828 0.283447Z" fill="#FAAE5D"/>
<path d="M282.773 0.869318C280.996 0.75593 282.868 0.54805 284.38 0.510254L285.287 0.869318C284.304 0.85042 283.907 0.793726 282.773 0.869318Z" fill="#FAAE5D"/>
<path d="M285.06 12.5106C283.34 12.435 285.155 12.3027 286.591 12.2838L287.442 12.5106C286.516 12.4917 286.138 12.4728 285.06 12.5106Z" fill="#FAAE5D"/>
<path d="M299.029 353.433L299.35 353.074L299.974 353.433H299.029Z" fill="#FAAE5D"/>
<path d="M301.656 363.638L302.318 364.205H301.335L301.656 363.638Z" fill="#FAAE5D"/>
<path d="M309.009 0.396884C310.634 0.604763 316.57 0.0378192 315.379 0.453578C313.829 0.472476 310.445 0.699254 309.009 0.396884Z" fill="#FAAE5D"/>
<path d="M316.23 12.2459C314.736 12.2459 311.504 12.3971 310.124 12.2081C311.674 12.3404 317.364 11.9814 316.23 12.2459Z" fill="#FAAE5D"/>
<path d="M335.131 0.774852C334.489 0.812649 333.695 0.831547 332.636 0.812649C333.884 0.755954 334.659 0.755954 335.131 0.774852Z" fill="#FAAE5D"/>
<path d="M374.032 12.605C373.691 12.605 373.465 12.5861 373.446 12.5483C373.635 12.5672 373.824 12.5861 374.032 12.605Z" fill="#FAAE5D"/>
<path d="M375.695 1.00164C375.43 1.00164 375.26 0.982743 375.241 0.944946C375.393 0.963844 375.544 0.982742 375.695 1.00164Z" fill="#FAAE5D"/>
<path d="M378.152 12.7562C376.167 12.7562 375.033 12.6995 374.031 12.6051C375.43 12.6239 378.776 12.5106 378.152 12.7562Z" fill="#FAAE5D"/>
<path d="M380.156 1.24726C378.001 1.24726 376.791 1.13387 375.714 1.00159C377.075 1.05828 380.836 0.8693 380.156 1.24726Z" fill="#FAAE5D"/>
<path d="M380.175 12.3594C377.699 12.2083 378.379 12.1138 381.706 12.1138C381.952 12.2083 380.855 12.265 380.175 12.3594Z" fill="#FAAE5D"/>
<path d="M382.273 0.623713C379.683 0.396935 380.402 0.264648 383.879 0.264648C384.125 0.415833 382.991 0.491426 382.273 0.623713Z" fill="#FAAE5D"/>
<path d="M375.695 13.2287C376.583 13.2098 377.566 13.172 378.681 13.0964C382.462 12.9263 379.683 12.9074 379.778 12.6806C388.038 12.6239 390.495 12.3972 395.825 12.3594C394.729 12.794 405.22 12.4161 399.36 12.8318C396.657 12.5862 384.692 12.6239 381.781 13.0208C384.106 13.3988 378.984 13.1531 375.695 13.2287Z" fill="#FAAE5D"/>
<path d="M408.698 13.0964C409.151 12.9074 415.71 12.7751 419.566 12.7562L408.698 13.0964Z" fill="#FAAE5D"/>
<path d="M423.479 1.22839L412.119 1.75754C412.592 1.47407 419.434 1.26619 423.479 1.22839Z" fill="#FAAE5D"/>
<path d="M433.61 13.1342C433.535 13.1342 433.459 13.1153 433.365 13.1153C428.904 13.0019 425.048 12.6617 427.505 12.4349C430.322 12.4727 427.43 12.6428 428.601 12.7562C430.945 12.5861 432.609 12.8129 434.461 12.8885C433.516 12.9452 433.403 13.0397 433.61 13.1342Z" fill="#FAAE5D"/>
<path d="M433.913 13.2475C433.781 13.2097 433.686 13.172 433.61 13.1342C433.97 13.1909 434.045 13.2286 433.913 13.2475Z" fill="#FAAE5D"/>
<path d="M437.637 12.7562C436.427 12.9074 435.425 12.9074 434.461 12.8885C435.085 12.8318 436.087 12.794 437.637 12.7562Z" fill="#FAAE5D"/>
<path d="M431.796 0.755981C434.726 0.793778 431.701 1.07725 432.93 1.24733C435.349 0.982759 437.05 1.34182 438.96 1.43631C438.033 1.5497 437.958 1.70089 438.185 1.85207C438.109 1.83317 438.014 1.81428 437.92 1.79538C433.232 1.62529 429.206 1.09615 431.796 0.755981Z" fill="#FAAE5D"/>
<path d="M438.487 2.00324C438.374 1.96544 438.279 1.90875 438.204 1.85205C438.544 1.90875 438.62 1.96544 438.487 2.00324Z" fill="#FAAE5D"/>
<path d="M438.998 1.4363C439.659 1.3607 440.718 1.28511 442.381 1.24731C441.096 1.47409 440.018 1.49299 438.998 1.4363Z" fill="#FAAE5D"/>
<path d="M437.221 13.0963C438.695 13.0774 440.075 12.9074 441.247 13.0207C439.754 13.0396 439.981 13.1341 439.3 13.2097C439.149 13.2664 437.599 13.1341 437.221 13.0963Z" fill="#FAAE5D"/>
<path d="M441.946 1.75755C443.496 1.73865 444.933 1.47408 446.161 1.64416C444.611 1.66306 444.838 1.81424 444.12 1.94653C443.969 2.04102 442.343 1.81424 441.946 1.75755Z" fill="#FAAE5D"/>
<path d="M500.051 353.546C499.068 353.433 499.673 353.376 500.731 353.357C500.24 353.395 500.013 353.452 500.051 353.546Z" fill="#FAAE5D"/>
<path d="M512.337 364.091C511.808 364.148 511.562 364.224 511.619 364.375C510.598 364.205 511.222 364.148 512.337 364.091Z" fill="#FAAE5D"/>
<path d="M544.924 6.72776C544.792 6.72776 544.452 6.59548 543.998 6.40649C544.3 6.51988 544.622 6.61437 544.924 6.72776Z" fill="#FAAE5D"/>
<path d="M564.242 10.7153C563.694 10.6019 563.561 10.4696 565.281 10.2617C565.47 10.4507 566.321 10.6586 566.567 10.8476C566.453 11.2822 566.359 11.509 566.264 11.4712C566.283 11.3767 566.302 11.2444 566.321 11.0932C565.829 10.9609 564.809 10.8476 564.242 10.7153Z" fill="#FAAE5D"/>
<path d="M566.529 22.9422C566.302 22.0351 566.151 20.75 566.321 18.5579C566.453 25.2667 566.793 14.9483 566.529 22.9422Z" fill="#FAAE5D"/>
<path d="M190.966 353.754C190.91 353.773 190.777 353.773 190.588 353.773C190.702 353.773 190.853 353.773 190.966 353.754Z" fill="#FAAE5D"/>
<path d="M575.488 339.694C575.942 338.901 576.226 338.088 575.224 338.901C575.091 339.486 573.844 341.074 571.765 342.642C570.687 343.398 569.421 344.173 568.268 344.664L567.814 344.872C567.72 344.967 567.795 345.194 567.776 345.345L567.795 346.346C567.814 347.065 567.814 347.783 567.833 348.463C567.493 350.183 567.758 353.206 567.947 358.082C566.567 358.158 565.036 358.196 563.448 358.233C562.03 358.252 560.707 358.233 559.365 358.177L559.951 358.063C557.399 358.347 555.49 358.252 553.732 358.196C552.787 358.158 552.069 358.12 551.332 358.158C551.029 358.309 550.802 358.687 550.519 358.951C550.179 359.292 549.838 359.651 549.479 360.048C548.496 360.596 547.476 361.087 546.436 361.484C545.604 362.391 543.771 363.109 541.654 363.487C539.518 363.903 537.099 363.865 535 363.997L535.152 364.167C531.163 364.356 529.103 363.959 525.417 364.092L525.058 363.997C519.501 364.13 515.437 363.997 513.32 364.054C515.418 363.941 517.913 363.865 515.229 363.449C486.819 364.073 457.54 363.959 428.942 363.978C425.691 363.733 423.63 363.657 422.893 363.43C420.096 363.544 412.497 363.544 409.737 363.827C409.737 363.752 407.488 363.544 406.184 363.506C400.986 363.279 400.494 364.167 394.786 363.903C397.073 363.733 397.829 363.544 397.073 363.317C392.196 363.789 385.694 363.714 379.929 363.865C380.817 363.77 382.216 363.714 381.989 363.506C375.695 364.054 370.497 363.393 364.978 363.733L367.057 363.393C358.154 362.958 364.429 364.13 356.736 363.865C358.589 363.752 357.946 363.619 358.267 363.487C351.103 364.111 339.498 363.903 332.353 364.13C332.769 364.073 332.655 363.978 332.655 363.978C324.868 364.054 316.721 363.865 308.158 364.13C305.039 363.978 309.179 363.279 300.938 363.411C301.24 364.111 286.931 363.695 291.789 364.489C284.758 364.375 273.606 364.111 268.918 364.356C272.074 364.092 265.478 363.506 271.337 363.43L266.914 363.015C267.557 362.731 271.47 363.109 270.052 362.75C267.122 362.769 258.56 363.052 255.951 362.939C250.507 363.374 245.517 364.167 236.728 364.262C240.263 364.035 235.991 363.619 236.482 363.449L224.895 364.715C221.965 364.753 224.271 364.167 220.019 364.337C220.245 364.526 218.412 364.64 217.108 364.791C216.011 364.715 204.935 364.961 203.668 364.281C202.383 363.997 208.432 364.13 205.199 363.884C199.793 363.884 199.548 364.13 194.142 364.148L194.028 364.054C190.456 363.941 183.5 364.337 187.394 364.715C187.847 364.715 188.112 364.715 188.244 364.697C185.163 364.942 180.268 365.018 175.92 365.037C177.754 364.923 177.546 364.734 178.283 364.545C171.289 365.056 163.918 365.226 156.13 365.452C156.943 365.301 158.153 365.056 158.965 365.037C148.985 364.64 138.438 365.622 130.026 365.093C130.367 365.226 130.008 365.49 129.932 365.415C124.923 365.377 125.15 364.885 121.88 365.074C121.558 364.791 117.778 365.15 114.432 365.245C113.279 365.377 113.26 365.282 114.262 365.169C107.476 365.415 91.7689 365.698 82.2234 365.339C82.4314 365.528 75.5699 366.019 73.0938 366L74.0767 365.566C73.3395 365.49 72.2432 365.452 71.0713 365.452H70.9768C70.4664 365.471 70.1073 365.471 69.9939 365.434C69.9939 365.434 69.9939 365.434 69.975 365.434C68.6896 365.434 67.4232 365.434 66.5348 365.396H65.6086C62.1874 365.509 58.8228 365.66 55.515 365.377C56.8948 365.452 59.56 364.791 55.5339 364.81C48.4268 364.885 53.5114 365.018 47.7463 365.169C46.5555 365.226 45.1756 365.263 43.8903 365.112C43.7391 365.32 42.0001 365.037 40.7148 364.64C39.5429 364.281 38.6923 363.959 39.5429 364.451C38.7301 364.054 36.424 363.204 34.5149 361.918C33.9668 361.559 33.4375 361.181 32.9839 360.803C32.568 360.482 32.0388 359.991 32.001 359.934C31.7364 359.632 31.604 359.348 31.7364 359.254C31.9443 359.197 32.19 359.178 32.4546 359.178C32.2467 359.027 32.0766 358.781 31.8687 358.725C31.6229 358.763 31.3772 358.781 31.1504 358.8C30.5455 358.876 29.9974 358.951 29.4492 359.027C28.2773 359.197 27.181 359.386 25.9713 359.518C25.6121 359.462 24.8939 359.367 24.8939 359.292C24.667 359.613 23.3817 359.651 21.7372 359.651C20.6787 359.632 19.5257 359.613 18.3349 359.594C16.8605 359.594 15.3862 359.594 13.9307 359.632C13.8929 358.46 13.8362 357.402 13.7228 356.476C13.7606 354.51 13.8173 352.299 13.8551 350.013C13.874 349.087 13.874 348.142 13.8929 347.216V346.554L13.9118 346.214C13.9118 346.12 13.9307 345.987 13.7984 345.968C13.6094 345.874 13.4204 345.798 13.2314 345.704C12.9478 345.553 12.6832 345.42 12.4186 345.269C11.6247 344.797 10.8686 344.343 10.2449 343.852C8.95952 342.888 8.05223 341.924 7.56077 341.263C5.55717 339.467 3.8938 337.408 2.64627 334.989C1.43655 332.589 0.567058 329.811 0.453646 326.692C0.604862 327.921 0.926195 329.603 1.19082 329.886C0.907293 327.977 0.869489 326.787 0.793881 325.634C0.737176 324.557 0.661568 323.517 0.567058 321.873C0.699372 322.591 1.05851 314.787 1.36094 310.837C1.11521 305.923 0.661568 307.605 0.378039 307.114C1.20972 302.616 -0.151216 293.224 0.604862 287.592C0.718274 289.293 1.0018 294.773 1.20972 290.691C2.04141 286.175 0.604862 281.62 1.0018 274.363L0.321333 276.14C0.737176 272.908 -0.0945097 265.462 0.623764 266.199C0.359137 263.781 0.850587 257.658 0.170117 258.47C0.737176 246.545 -0.170117 229.499 1.03961 222.167C0.926195 220.466 1.03961 216.214 0.68047 217.083C0.321333 219.918 0.963999 221.033 0.699372 222.091C0.68047 220.56 0.49145 220.22 0.396941 220.069C0.567058 216.365 0.604862 213.455 1.17192 216.951C1.58776 208.711 0.0189019 208.447 0.283529 197.977C0.567058 198.45 0.661568 197.656 0.623764 194.576L0.151215 188.755C0.264627 181.989 0.774979 184.919 1.24753 184.749C1.17192 181.12 1.19082 176.679 0.850587 175.054L1.37984 171.066C1.0207 173.24 1.15302 167.589 1.03961 165.964L1.15302 167.665C1.34204 167.003 1.22863 162.808 1.17192 160.691C0.869489 161.183 0.756078 165.472 0.68047 167.797C0.472548 165.945 0.510352 163.072 0.264627 160.616C0.737176 161.428 0.604862 154.701 0.642666 151.828C0.756077 148.521 0.226823 148.105 0.245725 147.141C0.49145 147.066 0.283529 141.755 0.623764 144.325C0.699372 145.44 0.396941 146.896 0.604862 148.767C0.774979 146.574 1.19082 146.839 0.888391 142.322C0.661568 138.921 -0.0189019 143.192 0.283529 136.728C0.396941 138.429 0.567058 138.751 0.737176 140.054L0.982901 134.007L0.567058 133.761C0.661568 132.93 0.699372 133.497 0.756077 133.119C0.321333 131.324 0.623764 123.897 0.132314 122.517C0.0756077 119.474 0.415843 116.092 0.472548 113.181L0.49145 113.748C0.756077 110.177 0.58596 105.452 0.302431 102.466L0.396941 102.617C0.434745 100.671 0.359137 96.0785 0.113412 93.6407C0.434745 88.7272 1.70117 91.9965 1.17192 86.5539C1.15302 81.5648 0.396941 78.7489 0.132314 80.7522C0.415843 71.7944 -0.264627 61.6272 0.378039 53.3121C0.207921 52.027 0.113412 52.8396 0 50.175C0.0189019 48.5308 0.0189019 46.8678 0.0378039 45.1859L0.0189019 42.6535C0.0567058 41.7842 0.0378039 40.7826 0.170117 39.8566C0.529254 36.0581 1.89019 32.3729 3.96941 29.2737C6.02972 26.1744 8.8272 23.6987 11.8326 22.0357C12.1728 21.8656 12.7399 21.5821 12.7777 21.5821C12.8911 21.5254 13.0234 21.4687 13.1557 21.4309C13.2881 21.3742 13.4771 21.3742 13.5338 21.2797L13.5905 20.8829C13.6472 20.6939 13.7228 18.8797 13.8362 17.6513C14.0063 21.4687 14.2521 17.9159 14.4978 17.8214C14.3088 16.2528 14.4033 15.3079 14.46 14.6087C14.4789 14.4386 14.4978 14.2685 14.4978 14.1174C14.5167 13.9095 14.4978 13.7205 14.4978 13.5315C14.4789 13.1725 14.4033 12.8134 14.2332 12.3409C14.0441 12.5299 13.9118 12.4732 13.7984 13.1158C13.7606 13.2669 13.7417 13.4748 13.7039 13.7394C13.685 13.9473 13.6661 14.2119 13.6472 14.5331C13.5905 15.0245 13.5527 15.6859 13.5149 16.6119C13.496 15.478 13.4771 14.2874 13.4582 13.0213C13.4393 11.207 13.4204 9.31723 13.4015 7.40852C16.0099 7.38963 18.6562 7.38963 21.2647 7.37073C22.9848 7.38963 24.667 7.38963 26.2359 7.40852C27.8048 7.44632 29.2602 7.46522 30.5266 7.50301C30.9236 7.52191 30.9047 7.52191 31.0559 7.54081C31.1693 7.54081 31.2827 7.55971 31.3772 7.57861C31.5284 7.55971 31.6418 7.44632 31.7364 7.37073C31.4717 7.52191 31.4339 7.46522 31.4906 7.33293C31.5284 7.25734 31.5851 7.16285 31.6607 7.04946C31.6607 7.03056 31.8498 6.86048 32.0199 6.69039C32.19 6.53921 32.3601 6.36913 32.5491 6.21794C32.4924 6.6715 33.7022 5.82108 35.5923 4.83838C37.4636 3.79898 40.091 2.74069 42.4538 2.17374L43.0775 1.68239C44.1549 1.6257 45.2323 1.6446 46.2908 1.73909C48.1243 1.5879 48.1999 0.945365 52.5663 1.30443C52.7931 1.43672 53.0388 1.5879 53.8516 1.70129C58.3881 1.39892 64.758 0.888671 69.6725 1.19104L73.6987 1.73909C75.7212 1.68239 79.0479 1.36112 76.0425 1.20994C84.2081 1.51231 89.4818 1.569 92.1091 2.02256C106.55 0.888671 127.531 0.850874 144.335 0.926467L143.825 1.20994C148.342 1.45561 146.169 0.718588 149.325 0.907569C147.87 1.17214 152.765 1.47451 149.212 1.81468C155.676 2.09815 157.529 1.32333 161.744 1.20994C162.368 0.831976 158.36 1.43672 159.173 0.964263C159.891 0.850874 168.114 1.24774 169.116 0.699689C170.722 0.926467 169.475 1.32333 168.605 1.55011L172.537 1.28553C177.376 1.92807 161.555 2.43832 166.602 3.21314L170.25 3.13755C173.728 3.70449 160.629 3.78008 169.758 3.98796C173.728 3.70449 177.111 2.91077 173.576 2.66509C181.818 2.51391 177.395 1.36112 186.26 1.39892C188.679 1.72019 179.171 1.47451 180.873 1.92807C185.05 2.38162 189.246 1.68239 192.97 1.85248C188.83 1.6446 192.327 1.07765 194.992 0.983161C199.51 1.24774 192.063 1.49341 198.451 1.55011C199.51 1.24774 205.37 1.00206 200.304 0.775282C202.61 0.0571531 206.938 0.983161 210.416 0.416218C212.496 0.926467 203.838 1.5879 210.87 1.85248C209.755 1.36112 219.527 1.19104 215.803 0.454014C218.563 0.605199 218.847 0.983161 216.843 1.28553C220.775 1.5879 226.37 0.39732 227.674 1.36112L229.016 0.869773C230.245 1.02096 232.002 1.15324 234.025 1.41782C237.484 1.41782 245.177 0.737486 244.856 1.49341C245.971 1.41782 253.872 1.45561 250.829 0.926467C245.914 0.605199 245.177 1.30443 242.436 0.605199C245.914 1.17214 249.524 0.529606 252.36 0.340625L252.832 0.624097C254.307 0.529606 257.444 0.567403 258.938 0.359523C258.446 0.510708 259.089 0.642995 260.185 0.699689L261.962 0.265033C268.842 0.038255 263.588 1.03986 270.279 0.907569L265.194 1.24774C266.309 1.17214 268.578 1.5879 271.772 1.45561C273.02 1.03986 275.363 0.567403 276.422 0.246134C279.711 0.0949494 278.558 0.548504 280.656 0.397319L276.97 0.775282C276.233 0.907569 280.24 1.43672 285.287 1.43672C288.5 1.28553 293.49 0.718588 288.406 0.49181C290.939 0.49181 294.473 0.737486 292.47 1.02096C298.197 0.888671 291.714 0.586301 296.666 0.340625C298.669 0.605199 304.964 0.983161 308.763 1.38002L303.603 2.06035H307.024C302.582 2.6084 309.273 2.47611 306.778 3.04306C309.122 3.13755 311.958 2.94857 314.207 2.79738C307.364 1.89027 321.881 1.55011 319.896 0.718588C329.272 0.49181 325.756 2.74069 335.528 1.43672C334.262 1.26663 336.851 0.831976 335.131 0.775282C338.061 0.605199 337.834 0.038255 343.467 0.321727C338.382 0.680791 348.93 1.17214 341.577 1.68239C342.068 1.39892 337.475 1.45561 336.341 1.55011C338.742 1.87137 335.85 2.38162 341.823 2.38162C345.452 2.30603 350.442 2.28713 349.724 1.85248C349.572 1.38002 344.166 1.90917 346.491 1.41782C353.75 1.24774 354.959 1.98476 357.965 1.13435C353.391 1.19104 352.238 0.699689 352.313 0.378421L357.662 0.170542L356.623 0.49181C365.167 0.718588 359.137 -0.0751337 367.416 0.000458779L371.31 0.624097C369.325 1.17214 359.269 0.397319 360.725 1.26663C366.112 1.30443 367.907 0.869773 372.973 1.09655C371.839 1.13435 370.308 1.20994 369.193 1.26663C371.121 1.28553 373.03 2.45722 380.704 1.77688C384.673 1.51231 381.762 1.45561 381.857 1.13435C390.495 1.03986 393.085 0.699689 398.642 0.642995C397.508 1.28553 408.49 0.718588 402.328 1.36112C399.511 0.983161 387.017 1.02096 383.955 1.6446C387.093 2.40052 377.169 1.53121 375.298 2.30603C382.235 2.32493 381.895 3.08085 383.01 3.5722C384.938 3.5911 386.809 3.38322 387.962 3.30763C388.756 2.85408 386.261 2.85408 386.11 2.38162C393.841 2.51391 401.288 2.24934 405.541 1.79578C408.131 2.02256 407.318 2.49501 404.256 2.53281C413.461 2.40052 423.29 2.45722 432.023 2.6084C427.222 1.96586 437.693 2.28713 438.487 2.00366C439.016 2.24934 439.829 2.51391 439.187 2.75959C445.254 2.43832 438.941 3.17534 444.933 3.17534C450.962 2.85408 458.391 2.5895 465.101 2.47611C473.531 3.02416 486.46 2.47611 493.983 2.45722C497.934 2.75959 495.269 3.42102 499.54 3.53441C504.549 3.53441 495.817 2.81628 503.245 3.11865L502.527 3.25094C504.644 3.09975 514.813 3.6289 517.856 2.91077L516.061 3.47771C517.44 3.53441 518.726 3.38322 519.879 3.30763C519.936 3.53441 521.542 3.74229 519.293 3.91237C523.867 4.40372 528.914 3.81788 533.904 3.79898L530.691 3.38322C532.827 3.28873 534.774 3.25094 536.664 3.25094C538.592 3.26983 540.425 3.55331 542.183 4.08245C543.941 4.5927 545.623 5.32973 547.23 6.29353C548.043 6.78489 548.856 7.31403 549.63 7.93767C550.027 8.22114 550.443 8.59911 550.727 8.82588C551.029 9.10936 551.294 9.46842 551.766 9.33613L551.426 9.77079L556.246 9.50622C555.263 9.84638 558.193 10.0921 560.688 9.95977L555.755 10.3566L552.56 10.6212C551.974 10.6401 551.332 10.7346 550.727 10.7157C550.273 10.3377 549.763 9.90308 549.29 9.58181C548.043 8.42902 548.837 8.86368 549.82 9.50622C550.065 9.6763 550.311 9.86528 550.538 10.0165C550.765 10.1677 550.954 10.3377 551.162 10.2243C551.521 10.1488 551.577 10.0543 551.086 9.94087C550.557 9.18495 548.818 7.52191 546.72 6.42582C544.659 5.27304 542.448 4.74389 541.805 4.80058C543.204 5.19744 543.903 5.49981 544.546 5.72659C545.189 5.97227 545.775 6.16125 546.795 6.6526C547.06 7.16285 546.266 6.82268 545.094 6.38803C543.922 5.93447 542.372 5.49981 541.295 5.44312C542.183 5.6321 543.242 6.08566 543.998 6.40692C541.54 5.6132 538.913 4.98956 534.509 5.14075C537.25 4.95177 534.377 4.83838 533.829 4.70609C532.94 5.14075 528.366 5.27304 522.582 5.14075C518.159 4.55491 510.938 5.51871 503.774 5.34863C506.685 4.83838 510.39 4.42262 514.756 4.21474C510.258 3.95017 509.747 4.23364 505.23 3.96906C503.056 4.34703 501.487 4.95177 495.628 5.17854L495.306 4.80058C489.976 4.98956 489.976 5.55651 483.19 5.46202C471.584 5.27304 459.62 5.27304 450.754 5.21634L450.433 4.83838C445.5 5.651 433.988 5.14075 427.354 5.49981C416.051 5.14075 402.819 5.85888 397.016 5.21634C377.075 5.49981 359.647 5.78329 339.006 5.651L342.465 5.08405C338.779 5.49981 340.065 4.76279 336.436 4.85728C340.613 5.29193 331.408 5.42422 328.837 5.76439C319.651 5.34863 307.837 5.80218 299.69 6.19904L299.369 5.82108C291.128 6.53921 281.299 5.91557 271.035 5.78329C269.863 5.6321 267.992 5.27304 264.93 5.31083C259.372 5.93447 256.461 5.89667 248.296 6.27464C242.323 6.27464 232.645 6.12345 226.578 5.87778C204.16 6.74709 181.232 6.19904 157.926 6.72819L156.225 6.27464C133.618 7.23844 105.813 6.35023 86.5142 6.86048L88.3855 6.08566C82.3368 5.83998 74.587 6.29353 76.1181 6.82268C70.0506 6.5959 60.9966 7.20064 57.1406 6.57701C54.0406 6.50141 52.1315 6.5959 50.3737 6.70929C49.4853 6.76599 48.6347 6.82268 47.6896 6.89827C46.6878 6.95497 45.9128 7.01166 44.7787 7.18175C42.1324 7.44632 39.9776 8.24004 38.1819 9.22274C37.2935 9.7141 36.4807 10.2432 35.7436 10.8291L35.1198 11.3582L34.1369 12.2653C33.5887 13.1347 32.5869 12.7945 31.7364 12.8512C29.5248 12.8701 27.3511 12.8701 24.9506 12.889C23.8164 12.9079 22.6256 12.9079 21.3592 12.9268C21.1324 12.9268 20.9055 12.9457 20.6787 12.9268C20.9811 12.8701 21.1135 12.7756 20.9812 12.7C20.9055 12.6622 20.6787 12.6055 20.3007 12.5677C20.0172 12.5299 19.8848 12.4921 19.5446 12.4732C19.28 12.511 18.9397 12.5299 18.5428 12.5488C18.5617 14.2874 18.5806 16.4796 18.5995 17.9348C18.6562 20.0325 18.8074 21.0341 19.2044 19.2199C19.1855 19.6356 19.1666 20.0514 19.1477 20.4671C19.1477 21.1664 19.1288 21.8656 19.1099 22.5648C19.1099 23.264 19.091 23.9633 19.091 24.6814C19.1477 24.9082 18.9397 24.9271 18.7696 25.0027L18.2782 25.2295L17.2953 25.6452C16.6526 25.9476 15.9154 26.2122 15.2917 26.5334C14.8947 26.7413 14.6112 26.8736 14.2899 27.0815C13.6472 27.4405 13.0423 27.8941 12.4375 28.3287C10.0558 30.1997 8.12783 32.7698 6.97481 35.6234C6.40776 37.0786 6.02972 38.5715 5.8407 40.0834C5.74619 40.8393 5.72729 41.5952 5.68948 42.3512V44.9591C5.67058 48.4175 5.59497 51.7435 5.42486 54.7861C5.67058 53.7467 5.70838 56.8082 5.8785 58.1122C5.8974 69.0731 5.38705 80.5821 5.80289 89.3319C5.68948 91.0894 5.38705 86.5539 5.34925 91.0138C5.46266 93.6596 5.68948 91.0894 5.8218 94.3399C6.29434 112.085 5.34925 130.284 5.46266 146.442C5.95411 175.148 5.70838 205.083 5.78399 232.599L5.59497 232.277C6.31325 241.481 4.8767 253.878 5.93521 261.229C5.76509 263.403 5.8596 269.544 5.50046 267.938C5.97301 274.723 5.16023 286.553 5.55717 296.682C5.36815 301.936 5.40595 306.906 5.44376 311.914C5.46266 314.465 5.46266 317.054 5.48156 319.681C5.51937 322.289 5.33035 325.218 5.51937 327.505C5.25474 326.541 5.21693 324.727 5.02792 324.311C4.81999 326.428 5.23584 328.601 5.99191 330.548C6.71019 332.475 7.65528 334.006 7.86321 335.14C8.99732 336.746 9.11073 336.312 8.56258 335.423C9.50768 336.841 10.6796 338.126 12.0027 339.222C12.721 339.827 13.496 340.356 14.3088 340.828C14.4978 340.96 14.7057 341.074 14.9136 341.168L15.3673 341.414C15.5563 341.509 15.7642 341.603 15.9721 341.697L18.3916 342.775L18.694 342.907C18.7507 342.983 18.7129 343.115 18.7318 343.228V345.231L18.7129 347.65L18.7318 350.92C18.7318 352.205 18.7318 353.509 18.7507 354.813C22.0775 354.794 25.4042 354.756 28.7687 354.718L32.7193 354.699L33.3997 354.68C33.6076 354.699 33.74 354.945 33.9101 355.058L34.9119 355.966L35.6302 356.608L36.1783 357.024C37.6716 358.12 39.316 358.989 41.055 359.575C42.7751 360.161 44.6086 360.482 46.4421 360.52L52.7175 360.463C56.9893 360.426 61.2423 360.388 65.4763 360.35C83.9435 360.879 66.6104 361.843 81.1649 361.181C82.3557 361.352 82.0344 360.841 82.2234 361.011C87.8562 360.766 90.9939 362.013 94.9255 361.54C93.3 360.992 97.5151 361.238 97.6285 360.917C108.913 361.257 111.181 361.767 120.084 361.352L119.422 361.635C129.856 360.822 141.954 361.257 150.762 360.312C208.337 360.048 263.531 359.783 319.67 359.518C375.166 359.689 429.509 359.273 485.855 359.764C499.049 360.52 500.051 360.501 514.549 360.199C513.963 360.331 513.055 360.35 514.019 360.463C514.738 359.84 524.226 360.407 525.606 359.821C529.292 359.821 532.902 359.84 536.513 359.84C539.48 359.821 542.41 359.046 544.962 357.534C545.604 357.175 546.209 356.759 546.795 356.306L547.23 355.966L547.797 355.474C548.421 354.907 549.007 354.246 549.687 353.811C551.937 353.811 554.186 353.792 556.454 353.792C558.25 353.792 560.045 353.792 561.86 353.773H563.372L563.618 353.754C563.618 352.091 563.599 350.372 563.599 348.614V345.496L563.58 343.285C563.599 342.926 563.561 342.529 563.599 342.189L564.601 341.735L566.623 340.847C566.982 340.696 567.323 340.545 567.644 340.375L568.173 340.091C568.721 339.77 569.307 339.467 569.818 339.071C569.27 339.524 568.74 339.827 568.381 340.129C568.154 340.28 567.965 340.412 567.814 340.526C567.512 340.715 567.304 340.866 567.153 340.942C566.888 341.131 567.058 341.149 567.644 340.904C567.833 340.828 568.098 340.715 568.457 340.545C568.721 340.431 569.005 340.242 569.364 340.016C570.309 339.279 571.16 338.447 571.897 337.54L572.426 337.275C574.014 335.556 574.959 333.25 573.523 335.064C575.129 332.853 576.131 330.283 576.528 327.637C576.604 326.957 576.679 326.296 576.679 325.615C576.698 325.313 576.698 324.916 576.698 324.481L576.679 323.215L576.66 318.188C576.679 311.479 576.679 304.789 576.679 298.118C576.755 284.757 576.849 271.434 576.925 258.149C577.152 231.597 577.416 205.177 577.341 178.815C577.605 166.285 577.36 148.464 577.246 134.857C577.662 114.693 578.021 95.5305 578.229 76.2733C578.324 66.6542 578.38 57.0161 578.38 47.208C578.343 44.789 578.456 42.1811 578.21 40.1401C577.927 37.9857 577.284 35.8691 576.226 33.9415C574.165 30.0674 570.593 26.9681 566.397 25.4562C566.397 25.4562 566.699 25.4751 567.379 25.5885C568.06 25.7019 569.118 25.9854 570.574 26.6468C571.992 27.346 573.806 28.4799 575.621 30.5209C577.454 32.5241 579.231 35.5478 579.911 39.592C580.441 42.1244 580.403 44.9969 580.535 47.8694C580.649 50.7608 580.705 53.7278 580.743 56.7704C580.838 62.8367 580.819 69.1487 580.781 75.5174C580.705 88.2925 580.573 101.294 581.027 113.125C581.102 115.884 580.252 112.407 580.441 118.662C581.556 141.566 580.875 177.681 580.025 205.574L579.798 203.892C579.628 209.203 580.384 215.704 580.271 221.335C580.119 221.373 580.063 219.54 579.855 220.844C580.308 222.261 580.063 231.011 580.403 233.411C580.214 235.641 579.874 235.414 579.666 238.287L580.176 241.519C581.386 250.476 580.1 263.289 580.724 275.516C580.611 274.93 580.516 273.721 580.403 274.704C580.762 284.512 580.913 295.567 581.008 306.906C581.046 312.575 581.083 318.32 581.121 324.009C581.443 329.773 579.307 335.593 575.488 339.694Z" fill="#FAAE5D"/>
</g>
<defs>
<clipPath id="clip0">
<rect width="581.159" height="366" fill="white"/>
</clipPath>
</defs>
</svg>
