<svg width="20" height="20" viewBox="0 0 20 20" fill="none" xmlns="http://www.w3.org/2000/svg">
    <g clip-path="url(#clip0)">
        <path d="M18.5417 -7.62939e-06H13.9583C13.1542 -7.62939e-06 12.5 0.654159 12.5 1.45833V3.54166C12.5 4.34583 13.1542 4.99999 13.9583 4.99999H18.5417C19.3458 4.99999 20 4.34583 20 3.54166V1.45833C20 0.654159 19.3458 -7.62939e-06 18.5417 -7.62939e-06Z" fill="#595888"/>
        <path d="M18.5417 7.5H13.9583C13.1542 7.5 12.5 8.15417 12.5 8.95833V11.0417C12.5 11.8458 13.1542 12.5 13.9583 12.5H18.5417C19.3458 12.5 20 11.8458 20 11.0417V8.95833C20 8.15417 19.3458 7.5 18.5417 7.5Z" fill="#595888"/>
        <path d="M18.5417 15H13.9583C13.1542 15 12.5 15.6542 12.5 16.4583V18.5417C12.5 19.3458 13.1542 20 13.9583 20H18.5417C19.3458 20 20 19.3458 20 18.5417V16.4583C20 15.6542 19.3458 15 18.5417 15Z" fill="#595888"/>
        <path d="M0.625 1.66651H10.2083C10.5533 1.66651 10.8333 1.38651 10.8333 1.04151C10.8333 0.696512 10.5533 0.416512 10.2083 0.416512H0.625C0.28 0.416512 0 0.696512 0 1.04151C0 1.38651 0.28 1.66651 0.625 1.66651Z" fill="#595888"/>
        <path d="M0.625 4.16652H10.2083C10.5533 4.16652 10.8333 3.88652 10.8333 3.54152C10.8333 3.19652 10.5533 2.91652 10.2083 2.91652H0.625C0.28 2.91652 0 3.19652 0 3.54152C0 3.88652 0.28 4.16652 0.625 4.16652Z" fill="#595888"/>
        <path d="M0.625 9.16652H10.2083C10.5533 9.16652 10.8333 8.88652 10.8333 8.54152C10.8333 8.19652 10.5533 7.91652 10.2083 7.91652H0.625C0.28 7.91652 0 8.19652 0 8.54152C0 8.88652 0.28 9.16652 0.625 9.16652Z" fill="#595888"/>
        <path d="M0.625 11.6665H10.2083C10.5533 11.6665 10.8333 11.3865 10.8333 11.0415C10.8333 10.6965 10.5533 10.4165 10.2083 10.4165H0.625C0.28 10.4165 0 10.6965 0 11.0415C0 11.3865 0.28 11.6665 0.625 11.6665Z" fill="#595888"/>
        <path d="M0.625 16.6665H10.2083C10.5533 16.6665 10.8333 16.3865 10.8333 16.0415C10.8333 15.6965 10.5533 15.4165 10.2083 15.4165H0.625C0.28 15.4165 0 15.6965 0 16.0415C0 16.3865 0.28 16.6665 0.625 16.6665Z" fill="#595888"/>
        <path d="M0.625 19.1665H10.2083C10.5533 19.1665 10.8333 18.8865 10.8333 18.5415C10.8333 18.1965 10.5533 17.9165 10.2083 17.9165H0.625C0.28 17.9165 0 18.1965 0 18.5415C0 18.8865 0.28 19.1665 0.625 19.1665Z" fill="#595888"/>
    </g>
    <defs>
        <clipPath id="clip0">
            <rect width="20" height="20" fill="white"/>
        </clipPath>
    </defs>
</svg>
