<svg width="26" height="26" viewBox="0 0 26 26" fill="none" xmlns="http://www.w3.org/2000/svg">
    <path d="M13 16.25C14.7949 16.25 16.25 14.7949 16.25 13C16.25 11.2051 14.7949 9.75 13 9.75C11.2051 9.75 9.75 11.2051 9.75 13C9.75 14.7949 11.2051 16.25 13 16.25Z" stroke="#595888" stroke-width="2" stroke-linecap="round" stroke-linejoin="round"/>
    <path d="M21.0166 16.25C20.8724 16.5767 20.8294 16.9392 20.8931 17.2906C20.9569 17.642 21.1244 17.9663 21.3741 18.2216L21.4391 18.2866C21.6406 18.4879 21.8004 18.7268 21.9094 18.9899C22.0185 19.2529 22.0746 19.5348 22.0746 19.8196C22.0746 20.1043 22.0185 20.3862 21.9094 20.6493C21.8004 20.9123 21.6406 21.1513 21.4391 21.3525C21.2379 21.5539 20.999 21.7137 20.7359 21.8228C20.4729 21.9318 20.191 21.9879 19.9062 21.9879C19.6215 21.9879 19.3396 21.9318 19.0765 21.8228C18.8135 21.7137 18.5745 21.5539 18.3733 21.3525L18.3083 21.2875C18.053 21.0377 17.7287 20.8702 17.3773 20.8065C17.0259 20.7428 16.6634 20.7858 16.3366 20.93C16.0162 21.0673 15.743 21.2953 15.5505 21.586C15.358 21.8766 15.2547 22.2172 15.2533 22.5658V22.75C15.2533 23.3246 15.025 23.8757 14.6187 24.282C14.2124 24.6884 13.6613 24.9166 13.0866 24.9166C12.512 24.9166 11.9609 24.6884 11.5546 24.282C11.1483 23.8757 10.92 23.3246 10.92 22.75V22.6525C10.9116 22.2939 10.7955 21.9461 10.5869 21.6544C10.3782 21.3627 10.0866 21.1405 9.74998 21.0166C9.42323 20.8724 9.06077 20.8294 8.70934 20.8931C8.35791 20.9569 8.03363 21.1244 7.77831 21.3741L7.71331 21.4391C7.51209 21.6406 7.27313 21.8004 7.0101 21.9094C6.74707 22.0185 6.46513 22.0746 6.1804 22.0746C5.89566 22.0746 5.61372 22.0185 5.35069 21.9094C5.08766 21.8004 4.8487 21.6406 4.64748 21.4391C4.44603 21.2379 4.28622 20.999 4.17718 20.7359C4.06815 20.4729 4.01202 20.191 4.01202 19.9062C4.01202 19.6215 4.06815 19.3396 4.17718 19.0765C4.28622 18.8135 4.44603 18.5745 4.64748 18.3733L4.71248 18.3083C4.96223 18.053 5.12976 17.7287 5.19348 17.3773C5.2572 17.0259 5.21419 16.6634 5.06998 16.3366C4.93265 16.0162 4.70463 15.743 4.41398 15.5505C4.12334 15.358 3.78275 15.2547 3.43415 15.2533H3.24998C2.67534 15.2533 2.12424 15.025 1.71791 14.6187C1.31159 14.2124 1.08331 13.6613 1.08331 13.0866C1.08331 12.512 1.31159 11.9609 1.71791 11.5546C2.12424 11.1483 2.67534 10.92 3.24998 10.92H3.34748C3.70606 10.9116 4.05382 10.7955 4.34555 10.5869C4.63729 10.3782 4.8595 10.0866 4.98331 9.74998C5.12752 9.42323 5.17054 9.06077 5.10682 8.70934C5.0431 8.35791 4.87556 8.03363 4.62581 7.77831L4.56081 7.71331C4.35936 7.51209 4.19955 7.27313 4.09052 7.0101C3.98148 6.74707 3.92536 6.46513 3.92536 6.1804C3.92536 5.89566 3.98148 5.61372 4.09052 5.35069C4.19955 5.08766 4.35936 4.8487 4.56081 4.64748C4.76204 4.44603 5.001 4.28622 5.26403 4.17718C5.52705 4.06815 5.809 4.01202 6.09373 4.01202C6.37846 4.01202 6.6604 4.06815 6.92343 4.17718C7.18646 4.28622 7.42542 4.44603 7.62665 4.64748L7.69165 4.71248C7.94696 4.96223 8.27125 5.12976 8.62267 5.19348C8.9741 5.2572 9.33656 5.21419 9.66331 5.06998H9.74998C10.0704 4.93265 10.3437 4.70463 10.5361 4.41398C10.7286 4.12334 10.8319 3.78275 10.8333 3.43415V3.24998C10.8333 2.67534 11.0616 2.12424 11.4679 1.71791C11.8742 1.31159 12.4253 1.08331 13 1.08331C13.5746 1.08331 14.1257 1.31159 14.532 1.71791C14.9384 2.12424 15.1666 2.67534 15.1666 3.24998V3.34748C15.168 3.69608 15.2713 4.03667 15.4638 4.32732C15.6563 4.61796 15.9296 4.84599 16.25 4.98331C16.5767 5.12752 16.9392 5.17054 17.2906 5.10682C17.642 5.0431 17.9663 4.87556 18.2216 4.62581L18.2866 4.56081C18.4879 4.35936 18.7268 4.19955 18.9899 4.09052C19.2529 3.98148 19.5348 3.92536 19.8196 3.92536C20.1043 3.92536 20.3862 3.98148 20.6493 4.09052C20.9123 4.19955 21.1513 4.35936 21.3525 4.56081C21.5539 4.76204 21.7137 5.001 21.8228 5.26403C21.9318 5.52705 21.9879 5.809 21.9879 6.09373C21.9879 6.37846 21.9318 6.6604 21.8228 6.92343C21.7137 7.18646 21.5539 7.42542 21.3525 7.62665L21.2875 7.69165C21.0377 7.94696 20.8702 8.27125 20.8065 8.62267C20.7428 8.9741 20.7858 9.33656 20.93 9.66331V9.74998C21.0673 10.0704 21.2953 10.3437 21.586 10.5361C21.8766 10.7286 22.2172 10.8319 22.5658 10.8333H22.75C23.3246 10.8333 23.8757 11.0616 24.282 11.4679C24.6884 11.8742 24.9166 12.4253 24.9166 13C24.9166 13.5746 24.6884 14.1257 24.282 14.532C23.8757 14.9384 23.3246 15.1666 22.75 15.1666H22.6525C22.3039 15.168 21.9633 15.2713 21.6726 15.4638C21.382 15.6563 21.154 15.9296 21.0166 16.25Z" fill="#969CBA" fill-opacity="0.2" stroke="#595888" stroke-width="2" stroke-linecap="round" stroke-linejoin="round"/>
</svg>
