<svg width="38" height="38" fill="none" xmlns="http://www.w3.org/2000/svg"><path fill-rule="evenodd" clip-rule="evenodd" d="M20.333 37.55c.182-.086.864-.12 1.095-.237-1.118.082-1.118.04-1.095.238zM.425 17.85c-.139.7-.057 1.216-.01 1.652-.053-.486.092-1.207.01-1.651zm17.822 19.682c.04.027.118.045.2.04.08-.005.183-.01.283-.019l-.218-.042c-.14-.013-.26-.016-.265.021zm1.115-.002c-.04.015-.06.026-.102.042l.223.026c0-.018.102-.034.06-.047-.018-.01-.12-.016-.18-.021zM21.163.322c.63.14 1.344.302 1.958.436.233.072.49.148.745.228.544.079 1.074.433 1.57.573l-.037-.032.753.341c.236.077.515.27.746.357.407.235.83.438 1.183.679.205.137.352.24.486.285l.948.65c.125.056.325.243.43.29.097.062.173.112.239.14-.137-.192-.378-.364-.599-.525l-1.12-.772c-.331-.237-.643-.467-.977-.565l-.735-.394c-.396-.16-.874-.462-1.273-.56l-.475-.203c-.288-.12-.57-.264-.805-.278a12.576 12.576 0 01-.3-.097.964.964 0 00-.257-.077l-.236-.066A12.343 12.343 0 0021.165.18c-.2-.03-.315-.021-.322.02-.006.04.123.088.32.122zm7.04 2.606c.004.002.01.008.018.01.065.024.146.09.244.161a14.823 14.823 0 00-.244-.16l-.019-.009v-.002zm6.199 27.061l-.008.013c-.01.016-.016.032-.027.045l.035-.058z" fill="#444242"/><path fill-rule="evenodd" clip-rule="evenodd" d="M36.921 22.078v-.032c.08-.486.15-.977.113-1.5-.018.037-.029.079-.042.121a1.684 1.684 0 00-.005-.306l-.013-.069.008-.09c.005-.407.01-.811.013-1.242l-.045-.245a21.14 21.14 0 00-.625-3.517c-.031-.087-.07-.188-.094-.254a30.62 30.62 0 00-.997-2.859l-.14-.203c-.041-.103-.073-.185-.107-.264-.024-.156-.108-.312-.223-.479-.32-.602-.583-1.265-.987-1.688-.556-.69-1.176-1.583-1.843-2.248-.325-.35-.514-.708-.847-1.026-.323-.29-.378-.177-.843-.562-.498-.378-.982-.812-1.52-1.203l-.031.043c-.008-.027-.029-.066.031-.043l-.21-.147-.031.042-.65-.455c-.061-.023-.161-.066-.242-.097l-.076-.037-.048-.043c-.186-.148-.454-.238-.55-.364.122 0 .527.24.563.18-.745-.466-1.212-.648-1.53-.63-.147-.084-.354-.192-.338-.224.12-.1-.208-.211-.633-.357-.346-.113-.449-.082-.438.003a7.956 7.956 0 00-.234-.098.963.963 0 00-.254-.103l.034.03a1.898 1.898 0 00-.252-.11c-.3-.105-.772-.226-.614-.303.125-.053-.069-.14-.418-.248-.288-.082-.567-.212-.882-.18.35.11.754.312.622.386-.15-.027-.322-.072-.498-.114-.1-.095-.179-.188-.339-.285-.037-.05-.079-.093-.247-.135-.02-.116-.105-.235-.288-.349.165.01.344.03.52.048.537.103 1.08.267 1.535.5.291.152.666.263 1.013.319l1.417.605c1.181.547 2.294 1.18 3.33 1.815l-.02-.01c.601.375 1.12.924 1.703 1.363.226.145.494.412.754.684l.273.262c.183.164.375.38.553.578.557.69 1.09 1.292 1.557 1.948l-.042-.103.023.037.019.066c.152.224.32.51.462.634l.078.11.066.117c.229.415.42.89.664 1.197.058.098.074.114.126.217.126.285.263.57.383.787.027.063.03.063.042.058.021.016.021-.008.008-.076-.155-.69-.467-1.382-.945-2.125-.12-.193-.291-.46-.422-.67-.822-1.518-1.874-2.603-3.024-3.539-.157-.158-.286-.283-.412-.346-.155-.13-.312-.256-.422-.299l-.397-.322c-.22-.19-.42-.364-.64-.552-.927-.809-2.003-1.419-3.11-1.918-.5-.238-1.05-.405-1.578-.685-.388-.219-.903-.428-.735-.169.026.058-.312-.042-.522-.108-.4-.114-.856-.278-1.286-.367a.577.577 0 01-.17-.043.803.803 0 00-.3-.063.543.543 0 01-.194-.04A9.415 9.415 0 0020.34.367a3.032 3.032 0 00-.493-.105c-.024-.048-.095-.085-.297-.109a1.897 1.897 0 00-.275-.042l-.069.01-.02.003c.023-.002.047-.008.089-.013-.045-.042-.14-.066-.368-.069l-.023-.008V.04c-.021-.03-.113-.037-.276-.04a.499.499 0 01-.184.01c-.428.032-.855.096-1.28.17a3.605 3.605 0 00-.735.02 19.367 19.367 0 00-3.05.442l.002.008.003.008-.005-.016c-.454-.005-1.03.251-1.544.367-.23.008-.525.109-.771.204a3.237 3.237 0 00-.596.18c-.27.1-.163.132-.32.21a.886.886 0 00-.263.175c-.07.056-.412.209-.325.243.04.03.113.035.286-.008.073.053.275.027.57-.055l.054-.034.003.005c-.02.008-.042.016-.058.029l.62.106c.026.07.11.113.378.058a5.3 5.3 0 00-.42.282c-.391.228-.919.41-1.137.706-.53.388-1.157.763-1.58 1.215l.034-.026c-.249.267-.658.512-.834.76l-.003-.002c-.11.116-.307.264-.415.412l-.036.058-.069.059-.727.716c-.32.256-.643.53-.892.9-.333.455-.976 1.166-1.341 1.74-.368.61-.935 1.196-1.134 1.838l.029-.026c-.016.037-.019.034-.019.034l-.01-.008a17.117 17.117 0 00-1.005 2.043c-.208.41-.373.869-.504 1.387-.037.121-.076.243-.11.364-.329.933-.596 1.932-.69 2.965-.066.536-.127 1.014-.032 1.456.013.079.008.121-.01.158-.043.12-.056.28-.058.481-.11.484.007 1.002.034 1.498l.013.019H.48.478c-.003 0-.01-.003-.013-.019-.042.206-.013.529.044.803h.005c-.028.188.071.537.082.783.02.058.026.116.02.158-.023.108 0 .288.05.505.037.322.119.658.263.89.047.235.108.457.213.648.084.282.163.541.244.803.165.396.294.948.506 1.302l.192.481c.12.29.218.592.373.77l.144.282c.034.084.074.164.129.238l.12.214c.347.71.74 1.368 1.197 1.987.121.163.208.24.242.216.034-.024-.024-.15-.14-.314l-1.075-1.702-.368-.69c-.33-.44-.457-1.07-.709-1.524L2 27.03a72.809 72.809 0 00-.294-.777c-.113-.222-.176-.555-.275-.782a14.908 14.908 0 00-.105-.367c.01.02.02.044.034.063l-.006.002c.03.053.048.088.08.14a3.926 3.926 0 01-.032-.15v.01-.018c0 .003 0 .005.002.008.008-.05-.013-.137-.015-.214.013-.111-.035-.301-.084-.494l-.011.002h-.005l.016-.005a.771.771 0 00-.014-.164c.147.574.331 1.14.541 1.689.186.523.46 1.033.635 1.606.121.433.339.946.402.642.023-.058.189.251.291.447.202.364.41.806.651 1.176a.575.575 0 01.092.15.796.796 0 00.168.26c.034.03.07.086.108.166.53 1.046 1.183 2.037 2.178 2.827.131.119.286.277.38.399.155.253.431.512.69.718a19.276 19.276 0 002.465 1.858l.006-.008.005-.008-.01.016c.314.327.902.555 1.351.837.168.159.446.296.69.405.126.095.326.195.546.298.263.122.208.021.376.08a.872.872 0 00.307.063c.089.01.438.145.401.06-.005-.047-.055-.105-.207-.198-.016-.087-.176-.214-.44-.367l-.064-.016.003-.005c.02.008.042.019.06.019-.115-.167-.247-.352-.362-.516.037-.082-.008-.192-.373-.401-.034-.074-.11-.161-.142-.24.266.123.557.24.812.33.275.095.435.087.456.034.066-.058-.241-.172-.425-.267-.22-.11-.391-.235-.402-.301-.026-.09.294.047.454.082.557.137 1.263.502 1.896.586.293.066.666.243.923.21l-.018-.014.021.005-.003.008c.433.09.877.227 1.247.22-.04-.017-.076-.027-.094-.04l.02.005.074.037c.394.063.872.15 1.197.103l-.04-.013.04.005v.008c.635.03 1.291.204 1.995.069.553-.085 1.509-.13 2.17-.275.69-.17 1.502-.18 2.095-.494l-.04-.003c.037-.016.037-.01.037-.01l.003.013a16.69 16.69 0 003.81-1.533 12.755 12.755 0 002.282-1.382h.002c.03.032.103.016.247-.092l.07-.087.004.002s-.045.05-.074.085a.668.668 0 00.247-.053c-.181.143-.378.328-.557.418l.016-.014c-.194.109-.465.32-.654.397-.43.145-.874.565-1.349.785l-.393.195c-.265.087-.596.325-.885.407l-.367.15c-.48.23-.953.452-1.46.56l-.073.032-.058.014c-1.496.367-2.588.766-3.743 1.038 2.195-.23 4.329-.893 6.292-1.855.144-.074.27-.137.43-.22.362-.089.753-.343 1.12-.596.206-.13.392-.249.6-.378.199-.1.438-.285.632-.402a1.54 1.54 0 01.181-.13c.194-.081.407-.274.627-.454.066-.05.147-.11.195-.15.084-.056.196-.114.262-.164.094-.093.186-.182.278-.275.058-.021.137-.077.265-.203l.021-.014-.002-.002c.036.005.107-.056.225-.17a.53.53 0 01.124-.137c.609-.716 1.136-1.524 1.624-2.325a7.35 7.35 0 00.496-.877c.14-.185.265-.388.339-.587.06-.084.12-.163.186-.24.378-.988.793-2.008.94-2.97.118-.438.362-.943.31-1.308.102-.652.283-1.363.262-1.984l-.008.058zM33.394 8.135l-.01.008s.005-.002 0-.024l.01.016zM10.417 1.673c-.005-.014-.031-.022.027-.053.018-.016.06-.024.078-.04-.052.045-.11.08-.105.093zm2.281 35.92c-.005.013.008.037-.055.016-.024 0-.06-.026-.084-.03.068.011.134.03.14.014zm23.087-18.857h-.008v-.043l.008.043zm-.116 2.507c.024-.399.058-.8-.005-1.16.076.32.034.74.005 1.16zm.032-7.57c-.019-.018-.058-.121-.081-.134l-.037-.151c.042.103.092.227.118.285zm-.152 2.307l.008-.003c-.006.024-.014.087-.03.05 0 0 .014-.023.022-.047zm-.355 3.778h.005l-.005.021v-.02zm-.417-1.424c.005.08.032.12.021.18-.01.161-.04-.016-.063-.098.018-.003.037-.003.042-.082zm-.247 2.811h.013l-.008.04c-.007.021-.005-.04-.005-.04zm-3.782 9.827a4.72 4.72 0 01.092-.17c.018-.271.362-.755.622-1.31-.105.402-.378.864-.622 1.31-.003.024-.016.056-.013.075a1.77 1.77 0 01-.079.095zm-23.294-.275c-.02-.013-.047-.042-.068-.05v.002l-.01-.013c-.043-.042-.03-.026-.043-.042l.003-.003s.016.014.04.043l.015.01.034.021c.008.014.019.021.03.032zm-3.184-.951l-.023-.03c.034.022.047.011.04-.028-.003-.006-.009-.01-.011-.016l.013.016c-.168-.325-.313-.759-.17-.716.17.245.35.602.56.848l.31.454c.166.407.197.486.113.608-.102-.177-.249-.357-.406-.573-.069-.199-.25-.402-.412-.619.01.037 0 .045-.014.056zm.502-5.937l.015-.003v.04l-.015-.037zm-.24 1.094a.121.121 0 00-.07-.04.545.545 0 01-.092.251c.021-.106.016-.264.092-.251.01-.066.024-.135.021-.222.034.108.013.156.05.262zm-.58 3.22s-.01-.018-.018-.037c.05.093.132.215.19.278l-.014.008a5 5 0 01-.157-.248zm-.285-1.725l-.074-.124-.034-.098c.029.058.074.148.108.222zm-.567-2.37c-.016.003-.042-.032-.068-.087l-.008-.04c.023.058.057.132.076.127zm-1.65-1.516c-.013-.019-.026-.072-.026-.072h.006c.01.053.013.053.02.072zm.476 1.749c-.035.01-.016.124.023.272-.04-.087-.084-.175-.094-.294.005-.058.042-.01.07.022zm.866-1.018a1.174 1.174 0 01-.121-.372c.042.158.081.275.12.372zm.134.975c-.01-.124-.027-.224.018-.235-.037.008-.032.111-.018.235zm-1.72-5.738v.037H1.2v-.019l.002-.018h.005zm-.107.742v.018c-.003.006-.003.014-.005.022-.014.1-.021.182-.032.27-.003.026-.003.05-.005.076v-.04c.002-.013.002-.026.005-.04.005-.105.013-.192.032-.27.002-.01.002-.023.005-.036zm-.305 2.906c.016.003.032-.005.045-.02.005.06.01.097.016.158a.655.655 0 00-.06-.138c-.048-.005-.1-.087-.15-.171a.55.55 0 01.15.171zm2.355 4.976l.094.235c.029.103.074.2.108.253l-.003-.044c.034.1.066.18.102.256.137.288.389.71.221.652-.047-.018-.066-.005-.063.037-.05-.1-.102-.2-.147-.293l-.003.003c0-.138-.189-.38-.278-.595a2.409 2.409 0 00-.165-.536c.06.069.105.071.134.032zM7.78 6.605c.002-.002.002-.005.005-.007h.002c-.005.002-.007.005-.007.007zm12.296-3.817l-.002.023c-.003.021-.098.006-.1.019.002-.021.1-.021.102-.042zm-1.202-.167c-.04-.005 0-.003-.018-.005h-.097l.039-.006c.079-.015.213-.018.33-.015-.06.018-.212.008-.254.026zm.257.182c0 .003-.02.006-.06 0l-.018.003-.04.01c-.016 0-.029.003-.042.003.024-.005.066-.002.084-.01v-.006l.018.003c.056-.003.037-.003.058-.003zm12.95 23.434a.212.212 0 01.055-.098l.011.006c-.021.031-.07.15-.066.092zm.042.127l-.015.029.002-.035c-.005.006-.01.014-.016.019v-.013c.006.002.014-.008.021-.021l-.007.013.015.008zm1.864-5.35l-.021.15c0-.077-.013-.077-.016-.098.016-.055.026-.034.037-.053zm-.354-9.198c.005.008.002.005.01.024l-.01-.019v-.005a.4.4 0 01-.024-.05l-.013-.061a.51.51 0 00.037.11zm-.082-1.794l.008.013a.015.015 0 00-.008-.013l-.002-.003-.01-.018s.007.008.012.02zm-.252-.227l-.008.005-.01-.019c.016.016.018.014.018.014zm-5.451-4.849a2.873 2.873 0 00-.347-.177c.082.027.181.06.347.177zm-1.09-.518c.022 0 .048.006.085.019l.034.024a.536.536 0 00-.118-.043zm.119-.076c.018-.03-.055-.098-.152-.177.094.079.175.14.152.177zm-2.071-1.155c.037.019.073.034.092.045a10.728 10.728 0 00-.231-.08l.139.035zm-1.837-1.12l.286.066s.02.005.039.013a1.81 1.81 0 00-.328-.063l.003-.016zM19.519.159c-.018.005-.028.01-.06.015V.166l.06-.007zm-3.083.103l.042.002c-.042.003-.132.006-.176.008l.134-.01zM4.018 9.295l-.002.069v.003a.134.134 0 01.002-.072zm-.023.109c0 .002-.003.002-.003.005-.02.008-.047.024-.07.034.026-.018.05-.026.073-.04zM.575 20.638c-.008.027-.016.05-.034.03l-.003-.04c.021.042.029.031.037.01zm.428 3.403l.002.006h-.002v-.006zM2.9 27.777c-.05-.121-.097-.24-.144-.362.021.03.04.059.06.085.013.09.076.227.134.349-.016-.021-.031-.048-.05-.072zm1.24 2.389a5.605 5.605 0 01-.744-1.44 1.713 1.713 0 00-.068-.182c.055.09.108.18.137.261.039.138.18.33.283.497.024.032.058.055.087.085.386.525.73 1.078 1.225 1.55a.527.527 0 01-.034.043c-.141.105-.525-.37-.887-.814zm1.078-3.527c.097-.006.123-.138.079-.378.029.148.057.296.084.422.065.262-.076.061-.163-.044zm.215 3.279c.021.01-.023-.082.032-.022.055.061.013.043.039.098l-.07-.076zm1.218.013l.018-.016c.016-.013.074.066.084.058-.015.013-.084-.055-.102-.042zm.535.808c.053.032.155.148.197.164.027.032-.002.003.01.016l.069.069-.031-.024a1.954 1.954 0 01-.245-.225zm.266 3.57l-.03-.032c.032.03.098.087.13.119l-.1-.087zm.724-.315c.003-.005-.005-.015-.005-.02-.124-.138-.195-.254-.313-.39l-.036-.023s.02.008.005-.005l.034.029c.289.232.328.325.312.388.024.027.037.05.066.08l-.063-.059zm1.302-2.193c.073.03.092.035.144.056-.026.003.008.047.013.069-.058-.048-.107-.072-.157-.125zm.942 2.138l.005-.008.013.016c-.015-.008-.018-.008-.018-.008zm1.937.153c.087.037.108.03.165.045-.055-.016-.068.008-.165-.045zm.948.502c.018.008.018.005.018.005v.003l-.018-.008-.035-.005c-.076.037-.228.003-.399-.06a.973.973 0 01-.244-.101c-.01-.005-.015-.003-.026-.01l-.118-.056.144.063c.082.037.166.072.244.1.137.035.252.03.4.061.005-.002.012 0 .018-.002.008 0-.005-.008.002-.008l-.152-.172-.023-.016.015.008c-.008-.01-.031-.029-.042-.042a4.185 4.185 0 01-.49-.367l-.006.007-.404-.253.357.22a.417.417 0 00.05.026c.257.137.407.266.49.367.03.018.048.04.077.058l-.034-.016.008.008c.123.08.244.156.152.172.008.01.01.013.016.018zm.47.082l-.203-.087c.069.026.15.071.242.095-.003-.003-.021-.005-.04-.008zm1.041 1.363l.003-.005v-.002l-.003.008zm.995-.473c.021-.01-.047-.031-.044-.044a.35.35 0 00.1.06c-.04-.01-.04-.01-.056-.016zm1.373.323v-.005l.037.016-.037-.011zm.9.13a2.605 2.605 0 00-.3-.135l.353.02c.07.04.12.08-.053.114zm1.433-1.145c.018.014.068.024.14.04 0 0 .015.013.05.018v.006a.155.155 0 01-.05-.024c-.087-.019-.122-.024-.171-.034.031 0 .031-.006.031-.006zm.184.278h.018a.436.436 0 01-.123.037c.052-.01.068-.024.105-.037zm2.945 1.543c-.003.002-.008.005-.01.01a.142.142 0 01-.058.056.974.974 0 00.057-.056.07.07 0 00.008-.031c.003.023.063.037.108.053-.042-.011-.066-.03-.105-.032zm1.543-1.815c-.07.023-.163.063-.173.026-.034.01-.003-.013-.055-.003l.008-.008.042-.015.007.026.108-.013.063-.013c.013-.003.026-.011.037-.014v.006l-.037.008zm3.57-1.647c-.242.117-.454.204-.536.159-.118-.037.126-.174.328-.306.087-.059.2-.143.134-.154-.142.03-.336.18-.44.167.178-.14.411-.22.6-.373-.044.01-.073.016-.086.008l-.024.008.016-.01c0 .002.005 0 .008.002.042-.013.078-.024.086-.008a.335.335 0 01.118-.071c.247-.095.504-.333.764-.447.36-.18.638-.446.934-.74l.016-.01.026-.024-.013.01c.218-.303-.07-.055-.249.077l-.079.064-.047.026c-.144.037-.396.272-.54.304.61-.491 1.24-.988 1.776-1.567l.118-.116c-.005.01-.01.018-.01.024-.037.071.026.023.073-.04.037-.045.069-.095.069-.095-.003-.003-.008-.005-.01-.008.099-.103.183-.2.185-.277a.823.823 0 01.14-.317c.141-.07.351-.278.446-.257-.082.135-.118.209-.11.262-.302.417-.384.629-.552.932-.162.283-.212.481-.485.83-.147.167-.281.33-.41.494-.036.027-.07.053-.107.077-.677.51-1.404.954-2.14 1.377zm.787-.147c.016-.011.079-.048.079-.048.023-.005.047-.021.07-.034a.274.274 0 01.093-.043c-.032.008-.06.027-.092.043a.755.755 0 01-.15.082z" fill="#FAAE5D"/><path fill-rule="evenodd" clip-rule="evenodd" d="M5.05 7.14c-.066.19-.525.7-.606.948.73-.856.76-.827.606-.949zM.428 16.96c.06-.216.102-.557.18-.745.203-.41.224-1.022.402-1.514.04-.11.092-.267.142-.417.126-.251.194-.653.341-.917.06-.148.108-.26.155-.37.179-.505.357-.999.638-1.435l.029-.074.031-.05c.468-.774.83-1.456 1.174-2.093l.296-.444c.092-.155.166-.298.137-.317 0-.005-.003-.005-.005-.007.102-.18.207-.36.317-.537-1.241 1.54-2.205 3.292-2.903 5.126-.013-.063-.076.058-.126.206-.113.36-.257.727-.344 1.08-.139.305-.225.688-.296 1.06l-.158.695c-.07.214-.11.515-.165.735-.01.1-.021.16-.037.219-.079.195-.094.483-.123.766l-.032.246c-.02.1-.06.222-.068.301-.008.31-.01.595-.013.901 0 .021.013.06.013.06.013.022.021.022.037-.039a.884.884 0 00.058-.245H.102c.042-.14.034-.365.063-.547 0-.064 0-.122.01-.183.061-.14.077-.3.098-.52-.018.071-.037.13-.055.18l-.024.079.003-.021a.3.3 0 00.02-.058l.056-.18c.087-.235.063-.687.155-.96v.02zM32.966 6.896c-.394-.594-.811-.9-1.152-1.173.378.304.782.917 1.152 1.173zm2.01 2.894l.386.731c.068.12.142.262.19.317.11.125.067-.031-.017-.198-.252-.491-.467-1.036-.795-1.406-.037-.058-.076-.113-.126-.192-.105-.151-.215-.302-.254-.278-.056-.018.044.135.118.254.175.272.34.573.498.771zM6.538 5.665a.355.355 0 00-.17.114c-.056.06-.124.14-.19.214.084-.056.134-.093.184-.127.11-.085.197-.172.176-.201zm-.788.798c.016-.04.027-.06.045-.103l-.178.14c.013.013-.05.098-.01.076.02-.007.099-.074.144-.113zm29.754 21.774c-.042.056-.053-.053-.126.17-.013.044-.016.094-.005.1.034-.035.084-.111.136-.19.037-.085.05-.154-.005-.08zm1.475-12.276c.058.037.003-.206-.018-.343l-.163-.809c-.068-.147-.105-.137-.102.024l.157.803c.045.178.092.33.126.325zM28.433 4.196l.08.076-.04-.06-.04-.016z" fill="#444242"/><path d="M20.396 31.186V20.067h3.706l.554-4.333h-4.26V12.97c0-1.255.347-2.108 2.134-2.108h2.278V6.983c-.393-.053-1.748-.169-3.32-.169-3.286 0-5.535 2.019-5.535 5.726v3.194h-3.717v4.333h3.717v11.116h4.443v.003z" fill="#fff"/></svg>