<svg width="39" height="38" fill="none" xmlns="http://www.w3.org/2000/svg"><path fill-rule="evenodd" clip-rule="evenodd" d="M21.305 37.55c.18-.086.863-.12 1.094-.237-1.118.082-1.118.04-1.095.238zM1.394 17.85c-.14.7-.058 1.216-.01 1.652-.053-.486.091-1.207.01-1.651zm17.824 19.682c.04.027.118.045.2.04.08-.005.183-.01.283-.019l-.218-.042c-.14-.013-.262-.016-.265.021zm1.115-.002c-.039.015-.06.026-.102.042l.223.026c0-.018.102-.034.06-.047-.02-.01-.12-.016-.18-.021zM22.134.322c.63.14 1.344.302 1.958.436.234.072.49.148.745.228.544.076 1.074.43 1.57.573l-.037-.032.753.341c.237.077.515.27.746.357.407.235.83.438 1.183.679.203.137.352.24.486.285l.948.65c.126.056.325.243.43.29.097.062.173.112.239.14-.137-.192-.378-.364-.599-.525l-1.12-.772c-.331-.237-.643-.467-.977-.565l-.735-.394c-.396-.16-.874-.462-1.273-.56l-.475-.203c-.288-.12-.57-.264-.805-.278a14.107 14.107 0 01-.3-.097.962.962 0 00-.257-.077l-.236-.066A12.343 12.343 0 0022.137.18c-.2-.03-.315-.021-.323.02-.008.04.12.088.32.122zm7.04 2.606c.005.002.01.008.018.01.065.024.147.09.244.161a15.268 15.268 0 00-.244-.16l-.019-.009v-.002zm6.196 27.061l-.008.013c-.01.016-.015.032-.026.045l.035-.058z" fill="#444242"/><path fill-rule="evenodd" clip-rule="evenodd" d="M37.892 22.078v-.031c.08-.487.15-.978.113-1.501-.018.037-.029.079-.042.121a1.684 1.684 0 00-.005-.306l-.013-.069.008-.09c.005-.407.01-.811.013-1.242l-.045-.245a21.14 21.14 0 00-.624-3.517l-.095-.254a30.62 30.62 0 00-.997-2.859l-.14-.203c-.041-.103-.073-.185-.107-.264-.023-.156-.108-.312-.223-.479-.32-.602-.583-1.265-.987-1.688-.556-.69-1.176-1.583-1.842-2.248-.326-.35-.515-.708-.848-1.026-.323-.29-.378-.177-.843-.562-.498-.378-.981-.811-1.52-1.203l-.03.043c-.009-.027-.03-.066.03-.043l-.21-.147-.03.042c-.23-.159-.44-.307-.652-.455-.06-.023-.16-.066-.241-.097l-.076-.037-.048-.043c-.186-.148-.454-.237-.55-.364.123 0 .527.24.563.18-.745-.466-1.212-.648-1.53-.63-.147-.084-.354-.192-.338-.224.12-.1-.208-.211-.633-.357-.346-.113-.449-.082-.438.003a8.016 8.016 0 00-.234-.098.963.963 0 00-.254-.103l.034.03a1.892 1.892 0 00-.252-.11c-.3-.105-.772-.226-.614-.303.126-.053-.069-.14-.418-.248-.288-.082-.567-.212-.882-.18.35.11.754.312.623.386-.15-.027-.323-.072-.5-.114-.099-.095-.178-.188-.34-.285-.037-.05-.08-.093-.247-.135-.021-.116-.105-.235-.289-.349.166.01.344.03.52.048a5.447 5.447 0 011.535.489c.292.153.667.264 1.013.32.48.205.937.398 1.418.604 1.18.547 2.294 1.181 3.33 1.815l-.02-.01c.6.375 1.12.925 1.703 1.363.226.146.493.412.753.685.081.076.179.169.273.261.184.164.375.38.554.579.556.69 1.09 1.292 1.556 1.947l-.042-.103.024.037.018.066c.153.225.32.51.462.634l.079.111.066.116c.228.415.42.89.664 1.197.057.098.073.114.126.217.126.285.262.57.383.787.026.064.029.064.042.059.02.015.02-.008.008-.077-.155-.69-.467-1.382-.945-2.124-.12-.193-.291-.46-.423-.672-.821-1.516-1.874-2.602-3.023-3.537-.158-.159-.286-.283-.412-.347-.155-.129-.313-.256-.423-.298l-.396-.322c-.22-.19-.42-.365-.64-.553-.927-.808-2.003-1.419-3.111-1.918-.499-.238-1.05-.404-1.577-.684-.389-.22-.903-.428-.735-.17.026.059-.313-.042-.523-.108-.399-.113-.855-.277-1.286-.367a.577.577 0 01-.17-.042.803.803 0 00-.3-.064.542.542 0 01-.194-.04c-.372-.12-.75-.226-1.134-.308a3.03 3.03 0 00-.493-.106c-.024-.048-.095-.085-.297-.108a1.899 1.899 0 00-.275-.043l-.069.01-.023.004.09-.014c-.046-.042-.14-.066-.368-.068l-.024-.008v.005c-.024-.03-.115-.04-.278-.042a.5.5 0 01-.184.01c-.428.032-.855.095-1.28.17a3.605 3.605 0 00-.736.02 19.2 19.2 0 00-3.05.442l.003.008.003.008-.003-.019c-.454-.005-1.029.251-1.543.367-.231.008-.525.109-.772.204a3.237 3.237 0 00-.596.18c-.27.1-.162.132-.32.21a.886.886 0 00-.262.175c-.071.056-.412.209-.326.243.04.03.113.035.286-.008.074.053.276.027.57-.055l.055-.034.003.005a.197.197 0 00-.058.029l.62.106c.026.071.11.113.377.058-.144.09-.288.182-.42.282-.39.228-.918.41-1.136.706-.53.388-1.158.764-1.58 1.215l.034-.026c-.25.267-.659.513-.835.76l-.002-.002c-.11.116-.307.264-.415.412l-.037.059-.068.058-.727.716c-.32.256-.643.53-.892.9-.334.455-.977 1.166-1.342 1.74-.367.61-.934 1.196-1.134 1.838l.03-.026c-.016.037-.019.034-.019.034l-.01-.008a17.117 17.117 0 00-1.006 2.043 6.77 6.77 0 00-.504 1.387c-.036.121-.076.243-.11.364-.328.933-.596 1.932-.69 2.965-.066.536-.126 1.015-.032 1.456.013.08.008.121-.01.158-.042.12-.055.28-.058.481-.11.484.008 1.002.034 1.498l.013.019h.003-.003c-.002 0-.01-.003-.013-.019-.042.206-.013.529.045.804h.005c-.029.187.07.536.081.782a.345.345 0 01.021.158c-.023.109 0 .288.05.505.037.322.118.658.263.89.047.235.107.457.212.648.084.282.163.541.244.803.166.396.294.948.507 1.302l.192.481c.12.29.217.592.372.77.053.1.103.2.145.282.034.084.073.164.128.238.045.079.076.137.121.214.346.71.74 1.368 1.197 1.987.12.163.207.24.241.216.034-.024-.023-.15-.139-.314l-1.076-1.702-.367-.69c-.331-.44-.457-1.07-.71-1.524l.004.048c-.103-.272-.19-.505-.294-.777-.113-.222-.176-.555-.276-.782a15.043 15.043 0 00-.105-.367c.01.02.021.044.034.063l-.005.003c.029.052.047.087.079.14a3.864 3.864 0 01-.032-.151v.01-.018c0 .003 0 .005.003.008.008-.05-.013-.137-.016-.214.013-.111-.034-.301-.084-.494l-.01.003h-.006l.016-.006a.771.771 0 00-.013-.164c.147.574.33 1.14.54 1.689.187.523.46 1.033.636 1.606.12.434.338.946.401.642.024-.058.19.251.292.447.202.364.41.806.65 1.176a.577.577 0 01.092.15.795.795 0 00.168.26c.035.03.071.086.108.166.53 1.046 1.184 2.037 2.179 2.827.13.119.286.277.38.399.155.253.43.512.69.718a19.274 19.274 0 002.465 1.858l.005-.008.005-.008-.01.016c.315.328.903.555 1.352.837.168.159.446.296.69.405.126.095.325.195.546.298.262.122.207.021.375.08a.87.87 0 00.307.063c.09.01.439.145.402.06-.005-.047-.055-.105-.207-.197-.016-.088-.176-.214-.441-.368l-.063-.016.002-.005c.021.008.042.019.06.019-.115-.167-.246-.352-.362-.516.037-.082-.008-.193-.372-.401-.034-.074-.11-.161-.142-.24.265.124.556.24.811.33.276.095.436.087.457.034.065-.058-.242-.172-.425-.267-.221-.11-.392-.235-.402-.301-.026-.09.294.047.454.082.556.137 1.262.502 1.895.586.294.066.667.243.924.21l-.019-.014.021.005-.002.008c.433.09.877.227 1.247.22-.04-.016-.077-.027-.095-.04l.021.005.074.037c.393.063.871.15 1.196.103l-.039-.013.04.005v.008c.635.03 1.29.204 1.994.069.554-.085 1.51-.13 2.17-.275.691-.17 1.502-.18 2.095-.494l-.04-.003c.038-.015.038-.01.038-.01l.002.013a16.694 16.694 0 003.811-1.532 12.645 12.645 0 002.279-1.382h.002c.029.031.102.016.247-.093l.07-.087.003.003-.073.084a.668.668 0 00.247-.053c-.182.143-.378.328-.557.418l.016-.014c-.194.109-.465.32-.654.397-.43.145-.874.565-1.349.785l-.393.195c-.266.087-.596.325-.885.407l-.367.15c-.48.23-.953.452-1.46.56l-.073.032-.058.014c-1.496.367-2.588.766-3.743 1.038 2.195-.23 4.328-.893 6.292-1.855l.43-.219c.362-.09.753-.343 1.12-.597l.6-.378c.199-.1.438-.285.632-.402.078-.063.128-.097.18-.13.195-.081.408-.274.628-.454.066-.05.147-.11.194-.15.084-.056.197-.114.263-.164.094-.093.186-.182.278-.275.058-.02.137-.076.265-.203l.021-.013-.002-.003c.036.005.107-.056.225-.17a.536.536 0 01.124-.137c.608-.716 1.136-1.524 1.624-2.325.19-.28.357-.591.496-.877.14-.185.265-.388.339-.586.06-.085.12-.164.186-.24.378-.99.793-2.009.94-2.97.118-.44.362-.944.31-1.309.102-.652.283-1.363.262-1.984l-.003.066zm-3.53-13.943l-.01.008s.005-.002 0-.024l.01.016zM11.386 1.673c-.005-.014-.032-.022.026-.053.018-.016.06-.024.079-.04-.05.045-.11.08-.105.093zm2.283 35.92c-.005.013.008.037-.055.016-.023 0-.06-.026-.084-.03.069.011.134.03.14.014zm23.084-18.857h-.008v-.043l.008.043zm-.115 2.507c.023-.399.058-.8-.005-1.16.078.32.034.74.005 1.16zm.031-7.57c-.018-.018-.057-.121-.081-.134l-.037-.151.118.285zm-.15 2.307l.009-.003c-.006.024-.014.087-.03.05 0 0 .014-.023.022-.047zm-.356 3.778h.005l-.005.021v-.02zm-.415-1.424c.005.08.032.12.019.18-.011.161-.04-.016-.064-.098.019-.003.04-.003.045-.082zm-.247 2.811h.014l-.008.04c-.008.021-.006-.04-.006-.04zm-3.784 9.827l.091-.17c.019-.271.363-.755.623-1.31-.105.402-.378.864-.622 1.31-.003.024-.016.056-.014.075a.884.884 0 01-.078.095zm-23.292-.275c-.02-.013-.047-.042-.068-.05l-.003.002-.01-.013c-.042-.042-.029-.026-.042-.042l.003-.003s.015.014.039.043l.013.01.034.021c.013.014.024.021.034.032zm-3.186-.951l-.024-.03c.034.022.048.011.04-.028-.003-.006-.008-.01-.01-.016l.012.016c-.168-.325-.312-.759-.17-.716.17.245.351.602.561.848.095.14.202.298.31.454.165.407.197.486.113.608-.102-.177-.25-.357-.407-.573-.068-.199-.25-.402-.412-.619.013.037.003.045-.013.056zm.504-5.937l.016-.003v.04l-.016-.037zm-.239 1.094c-.031-.03-.052-.037-.07-.04a.545.545 0 01-.093.251c.021-.106.016-.264.092-.251.01-.066.024-.135.021-.222.032.108.01.156.05.262zm-.583 3.22s-.01-.018-.018-.037c.05.093.131.215.189.278l-.013.008-.158-.248zm-.283-1.725l-.074-.124-.034-.098c.03.058.071.148.108.222zm-.567-2.37c-.016.003-.042-.032-.068-.087l-.008-.04c.02.058.055.132.076.127zm-1.648-1.516c-.013-.019-.027-.072-.027-.072h.006c.008.053.013.053.02.072zm.472 1.749c-.034.01-.016.124.024.272-.04-.087-.084-.175-.095-.294.005-.058.042-.01.071.022zm.869-1.018a1.174 1.174 0 01-.12-.372c.041.158.08.275.12.372zm.131.975c-.01-.124-.026-.224.018-.235-.034.008-.028.111-.018.235zM2.18 18.48l-.003.037h-.008v-.019l.003-.018h.008zm-.11.742v.018c-.003.006-.003.014-.006.022-.013.1-.02.182-.031.27l-.006.076v-.04c.003-.013.003-.026.006-.04.005-.105.013-.192.031-.27a.156.156 0 00.005-.036zm-.305 2.906c.016.003.031-.005.044-.02.006.06.011.097.016.158a.654.654 0 00-.06-.138c-.047-.005-.1-.087-.15-.171a.516.516 0 01.15.171zm2.357 4.976c.04.097.063.155.094.235.03.103.074.2.108.253l-.003-.044c.034.1.066.18.103.256.136.288.388.71.22.652-.047-.018-.066-.005-.063.037-.05-.1-.102-.2-.147-.293l-.002.003c0-.138-.19-.38-.279-.595a2.409 2.409 0 00-.165-.536c.06.069.102.071.134.032zM8.748 6.605c.003-.002.003-.005.005-.007h.003a5.858 5.858 0 00-.008.007zm12.3-3.817l-.003.023c-.003.021-.097.006-.1.019.003-.021.1-.021.102-.042zm-1.203-.167c-.04-.005 0-.003-.018-.005h-.097l.04-.006c.078-.015.212-.018.33-.015-.06.018-.215.008-.255.026zm.255.182c0 .003-.021.006-.06 0l-.019.003-.04.01c-.015 0-.028.003-.041.003.023-.005.065-.002.084-.01v-.006l.018.003.058-.003zm12.953 23.434a.21.21 0 01.055-.098l.01.006c-.02.031-.07.15-.065.092zm.042.127l-.016.029.002-.035-.015.019v-.013c.005.002.013-.008.02-.021l-.007.013.016.008zm1.863-5.35l-.02.15c0-.077-.014-.077-.017-.098.014-.055.027-.034.037-.053zm-.354-9.198c.005.008.002.005.01.024l-.01-.019v-.005a.431.431 0 01-.024-.05l-.013-.061c0 .016.013.058.037.11zm-.082-1.794l.008.013-.008-.013-.002-.003-.01-.018.012.02zm-.252-.227l-.008.005-.01-.019c.013.016.018.014.018.014zm-5.45-4.849a2.88 2.88 0 00-.346-.177c.08.027.18.06.346.177zm-1.09-.518c.022 0 .048.006.085.019l.034.024a.585.585 0 00-.118-.043zm.116-.076c.019-.03-.055-.098-.152-.177.097.079.176.14.152.177zm-2.068-1.155c.037.019.073.034.092.045l-.231-.08.139.035zm-1.84-1.12c.081.018.163.037.286.063a1.828 1.828 0 00-.289-.05l.003-.013zM20.491.159c-.018.005-.029.01-.06.015V.166l.06-.007zm-3.087.103l.042.002c-.042.003-.131.006-.176.008l.134-.01zM4.99 9.295c0 .019-.003.045-.003.069v.003a.112.112 0 01.003-.072zm-.027.109c0 .002-.002.002-.002.005-.021.008-.048.024-.071.034.029-.018.05-.026.073-.04zM1.546 20.638c-.008.027-.016.05-.034.03l-.003-.04c.019.042.03.031.037.01zm.428 3.403l.002.006h-.002v-.006zm1.897 3.736c-.05-.121-.097-.24-.144-.362.021.03.04.059.06.085.014.09.077.227.134.349-.018-.021-.034-.048-.05-.072zm1.237 2.389a5.604 5.604 0 01-.743-1.44 1.713 1.713 0 00-.068-.182c.055.09.107.18.136.261.04.138.181.33.284.497.023.032.057.055.086.085.386.525.73 1.078 1.226 1.55l-.034.043c-.14.105-.525-.37-.887-.814zm1.081-3.527c.097-.006.123-.138.079-.378l.084.422c.063.262-.076.061-.163-.044zm.213 3.279c.02.01-.024-.082.031-.022.055.061.013.043.04.098l-.071-.076zm1.217.013l.019-.016c.016-.013.073.066.084.058-.013.013-.084-.055-.103-.042zm.539.808c.052.032.154.148.196.164.027.032-.002.003.01.016l.07.069-.032-.024a1.78 1.78 0 01-.244-.225zm.265 3.57l-.03-.032c.032.03.098.087.13.12l-.1-.088zm.724-.315c.003-.005-.005-.015-.005-.02-.124-.138-.194-.254-.313-.39l-.036-.023s.02.008.005-.005l.034.029c.289.232.328.325.312.388.024.027.037.05.066.08l-.063-.059zm1.3-2.193c.073.03.091.035.144.056-.027.003.008.047.013.069-.055-.048-.108-.072-.158-.125zm.944 2.138l.005-.008.013.016-.018-.008zm1.937.153c.087.037.108.03.165.045-.057-.016-.068.008-.165-.045zm.948.502c.018.008.018.005.018.005v.003l-.018-.008c-.014-.002-.021-.002-.034-.005-.077.037-.229.003-.4-.06a.975.975 0 01-.244-.101c-.01-.005-.015-.003-.026-.01l-.118-.056.144.063c.082.037.166.072.245.1.136.035.252.03.399.061.005-.002.013 0 .018-.002.008 0-.005-.008.002-.008a9.798 9.798 0 01-.152-.172l-.023-.016.015.008c-.007-.01-.031-.029-.042-.042a4.194 4.194 0 01-.49-.367l-.006.007-.404-.253.357.22a.417.417 0 00.05.026c.257.137.407.266.49.367.03.018.048.04.077.058l-.034-.016.008.008c.126.08.244.156.152.172.005.01.01.013.016.018zm.467.082l-.202-.087c.068.026.15.071.241.095 0-.003-.018-.005-.04-.008zm1.042 1.363l.002-.005v-.002l-.002.008zm.995-.473c.02-.01-.048-.031-.045-.044a.35.35 0 00.1.06l-.055-.016zm1.375.323v-.005l.037.016-.037-.011zm.9.13a2.424 2.424 0 00-.299-.135l.352.02c.068.04.12.08-.053.114zm1.433-1.145c.019.014.069.024.14.04 0 0 .015.013.05.018v.006a.154.154 0 01-.05-.024c-.087-.019-.121-.024-.171-.034.031 0 .031-.006.031-.006zm.184.278h.018a.437.437 0 01-.123.037c.052-.01.068-.024.105-.037zm2.945 1.543c-.003.002-.008.005-.01.01-.008.019-.027.037-.058.056a.974.974 0 00.057-.056.07.07 0 00.008-.031c.003.023.063.037.108.053-.045-.011-.066-.03-.105-.032zm1.543-1.815c-.07.023-.163.063-.173.026-.034.01-.003-.013-.055-.003a.592.592 0 00.008-.008l.042-.015.008.026.107-.013c.019-.005.04-.008.063-.013.013-.003.026-.011.037-.014v.006c-.005 0-.024.005-.037.008zm3.567-1.647c-.241.117-.454.204-.535.159-.118-.037.126-.174.328-.306.086-.059.2-.143.134-.154-.142.03-.336.18-.441.167.178-.14.412-.22.6-.373-.044.01-.073.016-.086.008a2.177 2.177 0 01-.024.008l.016-.01c0 .002.005 0 .008.002.042-.013.079-.024.087-.008a.335.335 0 01.118-.071c.247-.095.504-.333.764-.447.36-.18.637-.446.934-.74l.016-.01.026-.024-.013.01c.218-.303-.071-.055-.25.077l-.078.064-.047.026c-.145.037-.397.272-.541.304.611-.491 1.241-.988 1.777-1.567l.118-.116c-.005.01-.01.018-.01.024-.037.071.026.023.073-.04.037-.045.068-.095.068-.095-.002-.003-.008-.005-.01-.008.1-.103.183-.2.186-.277a.82.82 0 01.14-.317c.14-.07.35-.278.445-.257-.081.135-.118.209-.11.262-.302.417-.383.629-.551.932-.163.283-.213.481-.486.83-.147.167-.28.33-.41.494-.036.027-.07.053-.107.077-.674.51-1.404.954-2.139 1.377zm.79-.147c.016-.011.079-.048.079-.048.023-.005.047-.021.07-.034a.276.276 0 01.093-.043c-.032.008-.06.027-.092.043a.755.755 0 01-.15.082z" fill="#fff"/><path fill-rule="evenodd" clip-rule="evenodd" d="M6.018 7.14c-.065.19-.525.7-.606.948.732-.856.764-.827.606-.949z" fill="#444242"/><path fill-rule="evenodd" clip-rule="evenodd" d="M1.396 16.96c.06-.216.103-.557.181-.745.203-.41.224-1.022.402-1.514.04-.113.09-.267.142-.417.126-.251.194-.653.34-.917.061-.148.109-.26.156-.37.178-.505.357-.999.638-1.435l.028-.074.032-.05c.467-.774.83-1.456 1.173-2.093l.297-.443c.092-.156.165-.299.136-.317 0-.006-.002-.006-.005-.008.102-.18.207-.36.318-.537-1.242 1.54-2.205 3.292-2.903 5.126-.013-.063-.076.058-.126.206-.113.36-.257.727-.344 1.08-.14.305-.226.688-.297 1.06-.055.238-.102.455-.157.695-.071.214-.11.515-.166.735-.01.1-.02.16-.036.22-.079.195-.095.483-.124.765l-.031.246c-.021.1-.06.222-.068.301l-.008.901a.28.28 0 00.013.061c.013.021.02.021.037-.04a.884.884 0 00.057-.245h-.005c.042-.14.034-.365.063-.547 0-.064 0-.122.01-.183.061-.14.077-.3.098-.52-.019.071-.037.13-.055.18l-.024.079.003-.021a.3.3 0 00.02-.058c.019-.064.037-.125.056-.18.086-.235.063-.687.155-.96l-.006.02z" fill="#fff"/><path fill-rule="evenodd" clip-rule="evenodd" d="M33.934 6.896c-.393-.594-.81-.9-1.152-1.173.378.304.782.917 1.152 1.173zm2.014 2.894l.385.731c.069.12.142.262.19.317.11.125.068-.031-.016-.198-.252-.491-.468-1.036-.796-1.406-.036-.058-.076-.113-.126-.192-.105-.151-.215-.302-.254-.278-.055-.018.044.135.118.254.176.272.339.573.499.771zM7.507 5.665a.355.355 0 00-.171.114c-.055.06-.123.14-.189.214l.184-.127c.11-.085.2-.172.176-.201zm-.785.798l.044-.103-.178.14c.013.013-.05.098-.01.076.02-.007.097-.074.144-.113zm29.75 21.774c-.041.056-.052-.053-.126.17-.013.044-.015.094-.005.1.034-.035.084-.111.137-.19.04-.085.05-.154-.006-.08zm1.475-12.276c.058.037.003-.206-.018-.343l-.163-.809c-.068-.147-.105-.137-.102.024l.158.803c.044.178.094.33.125.325zM29.402 4.196l.082.076-.04-.06-.042-.016z" fill="#444242"/><path d="M23.399 28.792h-7.811c-3.467 0-6.286-2.84-6.286-6.328v-6.928c0-3.49 2.821-6.328 6.286-6.328h7.811c3.467 0 6.286 2.84 6.286 6.328v6.928c0 3.49-2.822 6.328-6.286 6.328zm-7.811-18.178c-2.696 0-4.89 2.209-4.89 4.922v6.928c0 2.713 2.194 4.922 4.89 4.922h7.811c2.695 0 4.89-2.209 4.89-4.922v-6.928c0-2.713-2.195-4.922-4.89-4.922h-7.811z" fill="#FAAE5D"/><path d="M19.494 24.633c-3.087 0-5.596-2.526-5.596-5.633s2.509-5.633 5.596-5.633c3.086 0 5.595 2.526 5.595 5.633s-2.511 5.633-5.595 5.633zm0-9.86c-2.316 0-4.2 1.897-4.2 4.227s1.884 4.227 4.2 4.227c2.314 0 4.199-1.897 4.199-4.227-.003-2.33-1.885-4.227-4.2-4.227zm6.671-1.234c0 .644-.52 1.168-1.16 1.168-.64 0-1.162-.524-1.162-1.168 0-.645.52-1.17 1.162-1.17.64.002 1.16.525 1.16 1.17z" fill="#FAAE5D"/></svg>