<svg width="39" height="38" fill="none" xmlns="http://www.w3.org/2000/svg"><path fill-rule="evenodd" clip-rule="evenodd" d="M21.317 37.55c.182-.086.864-.12 1.095-.237-1.115.082-1.118.04-1.095.238zM1.41 17.85c-.14.7-.058 1.216-.011 1.652-.053-.486.092-1.207.01-1.651zm17.823 19.682c.04.027.119.045.2.04.081-.005.184-.01.284-.019l-.218-.042c-.14-.013-.263-.016-.265.021zm1.116-.002c-.04.015-.06.026-.102.042l.223.026c0-.018.102-.034.06-.047-.02-.01-.123-.016-.181-.021zM22.147.322c.63.14 1.344.302 1.958.436.234.072.49.148.745.228.544.076 1.074.43 1.57.573l-.037-.032c.265.12.488.222.754.341.236.077.514.27.745.357.407.235.83.438 1.184.679.204.137.351.24.485.285l.948.65c.126.056.325.243.43.29.097.062.173.112.239.14-.136-.192-.378-.364-.598-.525l-1.121-.771c-.33-.238-.643-.468-.977-.566l-.735-.394c-.396-.16-.873-.462-1.272-.56l-.476-.203c-.288-.12-.57-.264-.805-.278a14.268 14.268 0 01-.3-.097.964.964 0 00-.257-.077l-.236-.066A12.343 12.343 0 0022.15.18c-.2-.03-.315-.021-.323.02-.006.04.123.088.32.122zm7.04 2.606c.005.002.01.008.018.01.065.024.147.09.244.161a14.876 14.876 0 00-.244-.16l-.019-.009v-.002zm6.199 27.061l-.008.013c-.01.016-.016.032-.026.045l.034-.058z" fill="#444242"/><path fill-rule="evenodd" clip-rule="evenodd" d="M37.908 22.078v-.031c.079-.487.15-.978.113-1.501-.018.037-.029.079-.042.121a1.684 1.684 0 00-.005-.306l-.013-.069.007-.09c.006-.407.01-.81.014-1.242-.014-.066-.024-.132-.045-.245a21.141 21.141 0 00-.625-3.517c-.031-.087-.07-.188-.094-.254a30.612 30.612 0 00-.998-2.859c-.036-.055-.102-.148-.139-.203-.042-.103-.073-.185-.107-.264-.024-.156-.108-.312-.223-.479-.32-.602-.583-1.265-.987-1.688-.557-.69-1.176-1.583-1.843-2.248-.325-.35-.514-.708-.848-1.026-.322-.29-.378-.177-.842-.562-.499-.378-.982-.811-1.52-1.203l-.031.043c-.008-.027-.03-.066.031-.043l-.21-.147-.031.042-.651-.455c-.06-.023-.16-.066-.242-.097l-.076-.037-.047-.043c-.186-.148-.454-.237-.551-.364.123 0 .527.24.564.18-.745-.466-1.212-.648-1.53-.63-.147-.084-.354-.192-.339-.224.121-.1-.207-.211-.632-.357-.347-.113-.449-.082-.439.003a8.072 8.072 0 00-.233-.098.964.964 0 00-.255-.103l.034.03a1.897 1.897 0 00-.252-.11c-.299-.105-.771-.226-.614-.303.126-.053-.068-.14-.417-.248-.289-.082-.567-.212-.882-.18.35.11.753.312.622.386-.15-.027-.323-.072-.499-.114-.1-.095-.178-.188-.338-.285-.037-.05-.079-.093-.247-.135-.02-.116-.105-.235-.289-.349.166.01.344.03.52.048a5.446 5.446 0 011.535.489c.292.153.667.264 1.014.32.48.205.937.398 1.417.604 1.181.547 2.294 1.181 3.33 1.816l-.02-.011c.6.375 1.12.925 1.703 1.363.226.146.494.412.753.685.082.076.179.169.273.261.184.164.373.38.554.579.557.69 1.09 1.292 1.557 1.947-.027-.063-.027-.063-.042-.103l.023.037.019.066c.152.225.32.51.462.634l.078.111.066.117c.228.414.42.89.664 1.196.058.098.073.114.126.217.126.285.262.57.383.787.026.064.029.064.042.059.021.015.021-.008.008-.077-.155-.69-.467-1.382-.945-2.124-.12-.193-.291-.46-.422-.671-.822-1.517-1.875-2.603-3.024-3.538-.158-.159-.286-.283-.412-.347-.155-.129-.313-.256-.423-.298A83.329 83.329 0 0031 4.619c-.22-.19-.42-.365-.64-.553-.927-.808-2.003-1.418-3.11-1.918-.5-.238-1.05-.404-1.578-.684-.389-.22-.903-.428-.735-.17.026.059-.312-.042-.522-.108-.4-.113-.856-.277-1.287-.367a.577.577 0 01-.17-.042.802.802 0 00-.3-.064.543.543 0 01-.194-.04 11.23 11.23 0 00-1.133-.308 3.03 3.03 0 00-.494-.106c-.023-.048-.094-.085-.296-.108a1.899 1.899 0 00-.276-.043l-.068.01-.024.004.09-.014c-.045-.042-.14-.066-.368-.068l-.024-.008v.005c-.023-.03-.115-.04-.278-.042a.499.499 0 01-.184.01c-.427.032-.855.095-1.28.17a3.605 3.605 0 00-.735.02 19.251 19.251 0 00-3.05.442l.002.008.003.008-.003-.019c-.454-.005-1.028.251-1.543.367-.23.008-.525.109-.772.204a3.241 3.241 0 00-.595.18c-.27.1-.163.132-.32.21a.886.886 0 00-.263.175c-.07.056-.412.209-.325.243.039.03.112.035.286-.008.073.053.275.027.57-.055l.054-.034.003.005c-.021.008-.042.016-.058.029l.62.106c.026.071.11.113.377.058-.144.09-.288.182-.42.282-.39.228-.918.41-1.136.706-.53.388-1.157.764-1.58 1.215l.034-.026c-.25.267-.659.513-.834.76L8.44 5.05c-.11.116-.307.264-.415.412l-.037.059-.068.058-.727.716c-.32.256-.643.53-.892.9-.334.455-.977 1.166-1.341 1.74-.368.61-.935 1.196-1.134 1.838l.029-.026c-.016.037-.019.034-.019.034l-.01-.008a17.124 17.124 0 00-1.006 2.043c-.207.41-.372.869-.503 1.387-.037.121-.077.243-.11.364-.329.933-.597 1.932-.691 2.965-.066.536-.126 1.015-.031 1.456.013.08.007.121-.011.158-.042.12-.055.28-.058.481-.11.484.008 1.002.034 1.498l.013.019h.003-.003c-.002 0-.01-.003-.013-.019-.042.206-.013.529.045.804H1.5c-.029.187.071.536.082.782a.358.358 0 01.02.158c-.023.109 0 .288.05.505.037.322.119.658.263.89.047.235.108.457.213.648.084.282.162.541.244.803.165.396.294.948.506 1.302l.192.481c.12.29.218.592.373.77l.144.282c.034.085.073.164.128.238l.121.214c.347.71.74 1.368 1.197 1.987.12.163.207.24.242.216.034-.024-.024-.15-.14-.314L4.06 29.188l-.367-.69c-.33-.44-.457-1.07-.709-1.524l.003.048c-.103-.272-.19-.505-.294-.777-.113-.222-.176-.555-.276-.782a14.908 14.908 0 00-.105-.367c.01.02.021.044.034.063l-.005.003c.029.053.047.087.079.14a3.882 3.882 0 01-.032-.151v.01-.018c0 .003 0 .005.003.008.008-.05-.013-.137-.016-.214.013-.11-.034-.301-.084-.494l-.01.003h-.005l.015-.006a.772.772 0 00-.013-.164c.147.574.33 1.14.54 1.689.187.523.46 1.033.636 1.606.12.434.339.946.402.642.023-.058.189.251.29.447.203.364.41.806.652 1.176a.578.578 0 01.092.15.796.796 0 00.168.26.52.52 0 01.107.166c.53 1.046 1.184 2.037 2.179 2.827.131.119.283.277.38.399.155.253.43.512.69.718a19.277 19.277 0 002.465 1.858l.005-.008.006-.008-.01.016c.314.328.902.555 1.35.837.169.159.447.296.691.405.126.095.326.195.546.298.263.122.207.021.375.08a.872.872 0 00.307.063c.09.01.439.145.402.06-.005-.047-.055-.105-.207-.197-.016-.088-.176-.214-.441-.368l-.063-.016.002-.005c.021.008.042.019.06.019-.115-.167-.246-.352-.361-.516.036-.082-.008-.192-.373-.401-.034-.074-.11-.161-.142-.24.265.124.557.24.811.33.276.095.436.087.457.034.066-.058-.242-.172-.425-.267-.22-.11-.391-.235-.402-.301-.026-.09.294.047.454.082.557.137 1.263.502 1.895.586.294.066.667.243.924.21l-.018-.014.02.005-.002.008c.433.09.877.227 1.247.22-.04-.016-.076-.027-.095-.04l.021.005.074.037c.394.063.871.15 1.197.103l-.04-.013.04.005v.008c.635.03 1.291.204 1.994.069.554-.085 1.51-.13 2.171-.275.69-.169 1.501-.18 2.095-.494l-.04-.003c.037-.015.037-.01.037-.01l.003.013a16.688 16.688 0 003.81-1.532 12.641 12.641 0 002.279-1.382h.002c.03.031.103.016.247-.093l.071-.087.003.003-.074.084a.668.668 0 00.247-.053c-.181.143-.378.328-.557.418l.016-.013c-.194.108-.464.32-.653.396-.43.145-.874.565-1.35.785l-.393.195c-.265.087-.596.325-.885.407l-.367.15c-.48.23-.953.453-1.46.56l-.073.032-.058.014c-1.496.367-2.588.766-3.742 1.038 2.194-.23 4.328-.893 6.29-1.855l.431-.219c.362-.09.754-.343 1.121-.597l.598-.378c.2-.1.439-.285.633-.402a1.54 1.54 0 01.181-.13c.194-.081.407-.274.627-.453.066-.05.147-.111.195-.151.084-.056.197-.114.262-.164.095-.092.186-.182.278-.275.058-.02.137-.076.265-.203l.021-.013-.002-.003c.037.005.107-.056.226-.17a.532.532 0 01.123-.136c.609-.717 1.136-1.525 1.624-2.326.19-.28.357-.591.497-.877.139-.185.265-.388.338-.586.06-.085.12-.164.186-.24.378-.99.793-2.009.94-2.97.118-.44.362-.944.31-1.309.102-.652.283-1.363.262-1.984l-.005.066zm-3.53-13.943l-.01.008s.005-.002 0-.024l.01.016zM11.4 1.673c-.005-.014-.031-.022.027-.053.018-.016.06-.024.079-.04-.053.045-.11.08-.105.093zm2.284 35.92c-.005.013.008.037-.055.016-.024 0-.06-.026-.084-.03.066.011.131.03.139.014zm23.084-18.857h-.008v-.043l.008.043zm-.115 2.507c.023-.399.057-.8-.006-1.16.076.32.034.74.005 1.16zm.031-7.57c-.018-.018-.058-.121-.081-.134l-.037-.151c.042.103.092.227.118.285zm-.152 2.307l.008-.003c-.006.024-.013.087-.03.05.003 0 .017-.023.022-.047zm-.355 3.778h.006l-.006.021v-.02zm-.417-1.424c.005.08.032.12.018.18-.01.161-.039-.016-.063-.098.021-.003.042-.003.045-.082zm-.247 2.811h.014l-.008.04c-.006.021-.006-.04-.006-.04zm-3.782 9.827c.03-.056.06-.114.092-.17.018-.271.362-.755.622-1.31-.105.402-.378.864-.622 1.31-.003.024-.016.056-.013.075a1.45 1.45 0 01-.079.095zM8.44 30.697c-.021-.013-.047-.042-.068-.05l-.003.002-.01-.013c-.042-.042-.03-.026-.042-.042l.002-.003s.016.014.04.043l.015.01.034.021c.01.014.021.021.032.032zm-3.186-.951l-.024-.03c.034.022.047.011.04-.028-.003-.006-.009-.01-.011-.016l.013.016c-.168-.325-.312-.759-.17-.716.17.245.351.602.561.848.094.14.202.298.31.454.165.407.197.486.113.608-.103-.177-.25-.357-.407-.573-.069-.199-.25-.402-.412-.619.01.037 0 .045-.013.056zm.503-5.937l.016-.003v.04l-.016-.037zm-.238 1.094c-.032-.03-.053-.037-.071-.04a.546.546 0 01-.092.251c.02-.106.016-.264.092-.251.01-.066.023-.135.02-.222.032.108.011.156.05.262zm-.583 3.22s-.01-.018-.018-.037c.05.093.13.215.189.278l-.014.008-.157-.248zm-.284-1.725c-.042-.071-.063-.105-.073-.124l-.034-.098c.026.058.07.148.107.222zm-.566-2.37c-.016.003-.042-.032-.069-.087l-.008-.04c.021.058.056.132.077.127zm-1.649-1.516a.311.311 0 01-.026-.072h.005c.008.053.013.053.021.072zm.473 1.749c-.034.01-.016.124.023.272-.04-.087-.084-.175-.094-.294.005-.058.042-.01.07.022zm.868-1.018a1.174 1.174 0 01-.12-.372c.04.158.078.275.12.372zm.132.975c-.01-.124-.027-.224.018-.235-.034.008-.029.111-.018.235zM2.194 18.48l-.002.037h-.008v-.019l.002-.018h.008zm-.11.742v.018c-.003.006-.003.014-.005.022-.013.1-.021.182-.032.27-.002.026-.002.05-.005.076v-.04c.003-.013.003-.026.005-.04a1.49 1.49 0 01.032-.269c.002-.01.002-.024.005-.037zm-.305 2.906c.016.003.032-.005.045-.02.005.06.01.097.016.158a.653.653 0 00-.06-.138c-.048-.005-.1-.087-.15-.171a.517.517 0 01.15.171zm2.357 4.976l.095.235c.029.103.073.2.108.253l-.003-.044c.034.1.066.18.102.256.137.288.389.71.22.652-.047-.018-.065-.005-.062.037-.05-.1-.103-.2-.147-.293l-.003.003c0-.138-.189-.38-.278-.595a2.408 2.408 0 00-.165-.536c.057.069.102.071.133.032zM8.764 6.606c.002-.003.002-.006.005-.008 0 .002-.003.005-.005.008zm12.299-3.818l-.003.023c-.002.021-.097.006-.1.019 0-.021.098-.021.103-.042zm-1.205-.167c-.04-.005 0-.003-.018-.005h-.097l.04-.005a1.73 1.73 0 01.33-.016c-.058.018-.213.008-.255.026zm.257.182c0 .003-.02.006-.06 0l-.018.003-.04.01c-.015 0-.029.003-.042.003.024-.005.066-.002.084-.01v-.006l.019.003c.057-.003.036-.003.057-.003zm12.953 23.434a.212.212 0 01.055-.098l.01.006c-.02.031-.073.15-.065.092zm.04.127l-.016.029.002-.035-.015.019v-.013c.005.002.013-.008.02-.021l-.007.013.016.008zm1.863-5.35l-.02.15c0-.077-.014-.077-.017-.098.016-.055.027-.034.037-.053zm-.354-9.198c.005.008.002.005.01.024l-.01-.019c.002-.005.002-.005 0-.005a.415.415 0 01-.024-.05l-.013-.061a.508.508 0 00.037.11zm-.079-1.794l.008.013-.008-.013-.003-.003-.01-.018.013.02zm-.252-.227l-.008.005-.01-.019c.013.016.018.014.018.014zm-5.451-4.849a2.874 2.874 0 00-.347-.177c.082.027.179.061.347.177zm-1.092-.518a.27.27 0 01.084.019l.034.024a.534.534 0 00-.118-.043zm.118-.076c.018-.03-.055-.098-.152-.177.097.079.175.14.152.177zm-2.068-1.155c.036.019.073.034.091.045-.057-.021-.152-.053-.23-.08l.139.035zm-1.84-1.12c.081.018.162.037.286.063a1.83 1.83 0 00-.289-.05l.003-.013zM20.506.159c-.018.005-.028.01-.06.015V.166l.06-.007zM17.42.262l.042.002c-.042.003-.131.006-.176.008l.134-.01zM5.003 9.295c0 .019-.003.045-.003.069v.003a.134.134 0 01.003-.072zm-.024.109c0 .002-.003.002-.003.005-.02.008-.047.024-.07.034.028-.018.05-.026.073-.04zM1.562 20.638c-.008.027-.016.05-.034.03l-.003-.04c.018.042.029.031.037.01zm.425 3.403l.002.006h-.002c.002 0 .002-.003 0-.006zm1.9 3.736c-.05-.121-.097-.24-.144-.362.02.03.04.059.06.085.013.09.076.227.134.349-.018-.021-.034-.048-.05-.072zm1.236 2.389a5.605 5.605 0 01-.742-1.44 1.72 1.72 0 00-.069-.182c.055.09.108.18.137.261.04.138.18.33.283.497.024.032.058.055.087.085.386.525.73 1.078 1.226 1.55a.556.556 0 01-.035.043c-.141.105-.524-.37-.887-.814zm1.079-3.527c.097-.006.123-.138.079-.378l.084.422c.065.262-.074.061-.163-.044zm.215 3.279c.021.01-.023-.082.032-.022.055.061.013.043.04.098-.017-.016-.043-.045-.072-.076zm1.218.013l.018-.016c.016-.013.074.066.084.058-.015.013-.084-.055-.102-.042zm.538.808c.053.032.155.148.197.164.026.032-.003.003.01.016l.069.069-.032-.024a1.647 1.647 0 01-.244-.225zm.263 3.57l-.03-.032c.032.03.098.087.13.12l-.1-.088zm.724-.314c.003-.006-.005-.016-.005-.022-.124-.137-.194-.253-.313-.388l-.036-.024s.02.008.005-.005l.034.029c.289.232.328.325.312.388.024.027.037.05.066.08-.029-.03-.029-.03-.063-.058zm1.302-2.194c.073.03.092.035.144.056-.026.003.008.047.013.069-.055-.048-.107-.072-.157-.125zm.942 2.138l.005-.008.013.016c-.015-.008-.018-.008-.018-.008zm1.94.153c.086.037.107.03.165.045-.058-.016-.07.008-.165-.045zm.945.502c.018.008.018.005.018.005v.003l-.018-.008c-.014-.002-.021-.002-.034-.005-.077.037-.229.003-.4-.06a.975.975 0 01-.244-.101c-.01-.005-.015-.003-.026-.01l-.118-.056.144.063c.082.037.166.072.245.1.136.035.252.03.399.061.005-.002.013 0 .018-.002.008 0-.005-.008.002-.008a9.798 9.798 0 01-.152-.172l-.023-.016.015.008c-.008-.01-.031-.029-.042-.042a4.183 4.183 0 01-.49-.367l-.006.008-.404-.254.357.22.05.026c.257.137.407.266.49.367.03.018.048.04.077.058l-.034-.016.008.008c.126.08.244.156.152.172.008.01.013.013.016.018zm.47.082l-.203-.087c.069.026.15.071.242.095 0-.003-.021-.005-.04-.008zM15.8 36.04l.003-.005v-.002l-.003.008zm.995-.472c.021-.011-.047-.032-.044-.045a.35.35 0 00.1.06l-.056-.015zm1.373.322v-.005l.037.016-.037-.011zm.903.13a2.622 2.622 0 00-.3-.135l.352.02c.069.04.121.08-.052.114zm1.43-1.145c.019.014.069.024.14.04 0 0 .015.013.05.018v.006a.151.151 0 01-.05-.024c-.087-.019-.121-.024-.171-.034.031 0 .031-.006.031-.006zm.184.278h.018a.434.434 0 01-.123.037c.053-.01.07-.024.105-.037zm2.948 1.543c-.003.002-.008.005-.011.01-.008.019-.026.037-.058.056a.739.739 0 00.058-.056c.005-.01.008-.02.005-.031.003.023.063.037.108.053-.042-.011-.066-.03-.102-.032zm1.543-1.815c-.071.023-.163.063-.173.026-.035.01-.003-.013-.056-.003a.592.592 0 00.008-.008l.042-.015.008.026.108-.013c.018-.005.04-.008.063-.013.013-.003.026-.011.037-.014v.006c-.006 0-.024.005-.037.008zm3.567-1.647c-.242.117-.454.204-.536.159-.118-.037.126-.174.328-.306.087-.059.2-.143.134-.154-.142.03-.336.18-.44.167.178-.14.411-.22.6-.373-.044.01-.073.016-.086.008l-.024.008.016-.01c0 .002.005 0 .008.002.042-.013.079-.024.086-.008a.337.337 0 01.118-.071c.247-.095.504-.333.764-.447.36-.18.638-.446.935-.74l.015-.01.027-.024-.014.01c.218-.303-.07-.055-.249.077l-.079.064-.047.026c-.144.037-.396.272-.54.304.611-.491 1.24-.988 1.776-1.567a4.51 4.51 0 01.119-.116c-.006.01-.011.018-.011.024-.037.071.026.023.073-.04.037-.045.069-.095.069-.095-.003-.003-.008-.005-.01-.008.099-.103.183-.2.186-.277a.82.82 0 01.139-.317c.141-.07.351-.278.446-.257-.081.135-.118.209-.11.262-.302.417-.384.629-.552.933-.162.282-.212.48-.485.83-.147.166-.281.33-.41.493-.036.027-.07.053-.107.077-.675.51-1.404.954-2.14 1.377zm.79-.147c.015-.011.078-.048.078-.048.024-.005.048-.021.071-.034a.272.272 0 01.092-.043c-.031.008-.06.027-.092.043a.84.84 0 01-.15.082z" fill="#FAAE5D"/><path fill-rule="evenodd" clip-rule="evenodd" d="M6.034 7.14c-.066.19-.525.7-.606.948.732-.856.764-.827.606-.949zm-4.622 9.82c.06-.216.102-.557.181-.745.202-.41.223-1.022.402-1.514.04-.113.089-.267.141-.417.126-.251.195-.653.342-.917.06-.148.107-.259.154-.37.179-.505.357-.999.638-1.435l.03-.074.03-.05c.468-.774.83-1.456 1.174-2.093l.296-.443c.092-.156.166-.299.137-.317 0-.006-.003-.006-.005-.008.102-.18.207-.36.317-.537-1.241 1.54-2.204 3.292-2.903 5.126-.013-.063-.076.058-.126.206-.112.36-.257.727-.343 1.08-.14.305-.226.688-.297 1.06-.055.238-.102.455-.157.695-.071.214-.11.515-.166.735-.01.1-.02.161-.037.22-.078.195-.094.483-.123.765l-.031.246c-.021.1-.06.222-.069.301l-.008.901c0 .021.014.061.014.061.013.021.02.021.036-.04a.884.884 0 00.058-.245h-.005c.04-.14.034-.365.063-.547 0-.064 0-.122.01-.183.06-.14.076-.3.097-.52-.018.071-.036.13-.055.18l-.023.079.002-.021a.298.298 0 00.021-.058 5.08 5.08 0 01.055-.18c.087-.235.063-.687.155-.96l-.005.02zM33.95 6.896c-.394-.594-.81-.9-1.152-1.173.378.304.782.917 1.152 1.173zm2.013 2.894l.386.731c.068.12.142.262.189.317.11.125.068-.031-.016-.198-.252-.491-.467-1.036-.795-1.405a7.137 7.137 0 00-.126-.193c-.105-.151-.215-.302-.255-.278-.055-.018.045.135.119.254.173.272.338.573.498.771zM7.522 5.665a.355.355 0 00-.17.114c-.055.06-.124.14-.19.214.085-.056.135-.093.184-.127.11-.085.2-.172.176-.201zm-.787.798l.044-.103-.178.14c.013.013-.05.098-.01.076a.925.925 0 00.144-.113zm29.753 21.774c-.042.056-.052-.053-.126.17-.013.044-.016.094-.005.1.034-.035.084-.111.136-.19.037-.085.05-.154-.005-.08zm1.475-12.276c.058.037.003-.206-.018-.343l-.163-.809c-.068-.147-.105-.137-.102.024l.157.803c.045.178.092.33.126.325zM29.417 4.196l.08.076-.037-.06-.043-.016z" fill="#444242"/><path d="M19.506 29.26a10.11 10.11 0 01-5.083-1.377L10.45 29.26l.817-4.233A10.196 10.196 0 019.315 19c0-5.657 4.572-10.26 10.191-10.26 5.62 0 10.192 4.603 10.192 10.26.003 5.657-4.57 10.26-10.192 10.26zm-4.9-3.055l.307.193a8.589 8.589 0 004.593 1.335c4.785 0 8.678-3.919 8.678-8.736 0-4.816-3.893-8.732-8.678-8.732-4.784 0-8.674 3.918-8.674 8.732 0 1.96.638 3.816 1.842 5.37l.213.274-.446 2.315 2.165-.75z" fill="#fff"/><path d="M14.362 15.058s.599-1.052 1.084-1.113c.488-.06 1.116-.06 1.284.262.168.32.926 2.185.926 2.185s.129.32-.07.632c-.2.311-.646.76-.646.76s-.25.323 0 .661c.249.341.635.967 1.433 1.77.798.804 2.328 1.377 2.328 1.377s.22.03.36-.11c.139-.141.894-1.095.894-1.095s.245-.314.649-.13c.404.186 2.15 1.063 2.15 1.063s.204.076.204.386c0 .311-.126 1.07-.38 1.329-.255.256-1.003 1.049-2.124 1.049-1.123 0-3.793-.92-5.218-2.352-1.422-1.432-2.688-2.888-2.987-4.209-.294-1.324-.254-1.92.113-2.465z" fill="#fff"/></svg>