<svg width="18" height="18" viewBox="0 0 18 18" fill="none" xmlns="http://www.w3.org/2000/svg">
<g clip-path="url(#clip0)">
<path d="M4.4998 0C4.14475 0 3.85693 0.287816 3.85693 0.642869V1.92857H5.14264V0.642869C5.14264 0.287816 4.85482 0 4.4998 0Z" fill="white"/>
<path d="M13.4998 0C13.1447 0 12.8569 0.287816 12.8569 0.642869V1.92857H14.1426V0.642869C14.1427 0.287816 13.8549 0 13.4998 0Z" fill="white"/>
<path d="M16.0714 1.92862H14.1429V4.50006C14.1429 4.85511 13.855 5.14293 13.5 5.14293C13.1449 5.14293 12.8571 4.85511 12.8571 4.50006V1.92862H5.14284V4.50006C5.14284 4.85511 4.85502 5.14293 4.49997 5.14293C4.14492 5.14293 3.8571 4.85511 3.8571 4.50006V1.92862H1.92857C0.863449 1.92862 0 2.79207 0 3.85719V16.0715C0 17.1366 0.863449 18 1.92857 18H16.0714C17.1365 18 18 17.1366 18 16.0715V3.85719C18 2.79207 17.1365 1.92862 16.0714 1.92862ZM16.7143 16.0715C16.7143 16.4265 16.4264 16.7143 16.0714 16.7143H1.92857C1.57352 16.7143 1.2857 16.4265 1.2857 16.0715V7.71433H16.7143V16.0715Z" fill="white"/>
<path d="M5.14293 8.99995H3.85723C3.50217 8.99995 3.21436 9.28777 3.21436 9.64283C3.21436 9.99788 3.50217 10.2857 3.85723 10.2857H5.14293C5.49798 10.2857 5.7858 9.99788 5.7858 9.64283C5.7858 9.28777 5.49798 8.99995 5.14293 8.99995Z" fill="white"/>
<path d="M9.64293 8.99995H8.35723C8.00217 8.99995 7.71436 9.28777 7.71436 9.64283C7.71436 9.99788 8.00217 10.2857 8.35723 10.2857H9.64293C9.99798 10.2857 10.2858 9.99788 10.2858 9.64283C10.2858 9.28777 9.99798 8.99995 9.64293 8.99995Z" fill="white"/>
<path d="M14.1429 8.99995H12.8572C12.5022 8.99995 12.2144 9.28777 12.2144 9.64283C12.2144 9.99788 12.5022 10.2857 12.8572 10.2857H14.1429C14.498 10.2857 14.7858 9.99788 14.7858 9.64283C14.7858 9.28777 14.4979 8.99995 14.1429 8.99995Z" fill="white"/>
<path d="M5.14293 11.5715H3.85723C3.50217 11.5715 3.21436 11.8593 3.21436 12.2143C3.21436 12.5694 3.50217 12.8572 3.85723 12.8572H5.14293C5.49798 12.8572 5.7858 12.5694 5.7858 12.2143C5.7858 11.8593 5.49798 11.5715 5.14293 11.5715Z" fill="white"/>
<path d="M9.64293 11.5715H8.35723C8.00217 11.5715 7.71436 11.8593 7.71436 12.2143C7.71436 12.5694 8.00217 12.8572 8.35723 12.8572H9.64293C9.99798 12.8572 10.2858 12.5694 10.2858 12.2143C10.2858 11.8593 9.99798 11.5715 9.64293 11.5715Z" fill="white"/>
<path d="M14.1429 11.5715H12.8572C12.5022 11.5715 12.2144 11.8593 12.2144 12.2143C12.2144 12.5694 12.5022 12.8572 12.8572 12.8572H14.1429C14.498 12.8572 14.7858 12.5694 14.7858 12.2143C14.7858 11.8593 14.4979 11.5715 14.1429 11.5715Z" fill="white"/>
<path d="M5.14293 14.1428H3.85723C3.50217 14.1428 3.21436 14.4306 3.21436 14.7857C3.21436 15.1407 3.50217 15.4285 3.85723 15.4285H5.14293C5.49798 15.4285 5.7858 15.1407 5.7858 14.7857C5.7858 14.4306 5.49798 14.1428 5.14293 14.1428Z" fill="white"/>
<path d="M9.64293 14.1428H8.35723C8.00217 14.1428 7.71436 14.4306 7.71436 14.7857C7.71436 15.1407 8.00217 15.4286 8.35723 15.4286H9.64293C9.99798 15.4286 10.2858 15.1407 10.2858 14.7857C10.2858 14.4306 9.99798 14.1428 9.64293 14.1428Z" fill="white"/>
<path d="M14.1429 14.1428H12.8572C12.5022 14.1428 12.2144 14.4306 12.2144 14.7857C12.2144 15.1407 12.5022 15.4286 12.8572 15.4286H14.1429C14.498 15.4286 14.7858 15.1407 14.7858 14.7857C14.7858 14.4306 14.4979 14.1428 14.1429 14.1428Z" fill="white"/>
</g>
<defs>
<clipPath id="clip0">
<rect width="18" height="18" fill="white"/>
</clipPath>
</defs>
</svg>
