<svg width="20" height="20" viewBox="0 0 20 20" fill="none" xmlns="http://www.w3.org/2000/svg">
    <path d="M10.006 16.2346C10.006 16.587 9.80245 16.9071 9.48387 17.0565C9.36069 17.1147 9.2287 17.1429 9.09757 17.1429C8.88992 17.1429 8.68419 17.0715 8.51802 16.9337L3.55274 12.8193H0.908231C0.406716 12.8197 0 12.4128 0 11.9113V8.29273C0 7.791 0.406716 7.38428 0.908231 7.38428H3.55296L8.51824 3.26984C8.78953 3.04498 9.16572 2.99704 9.48408 3.14752C9.80245 3.29692 10.0062 3.61722 10.0062 3.96934L10.006 16.2346ZM13.4964 14.8154C13.4743 14.8169 13.453 14.8178 13.4311 14.8178C13.1912 14.8178 12.9599 14.723 12.789 14.5519L12.6675 14.43C12.3489 14.1121 12.3115 13.6084 12.5798 13.2468C13.26 12.3298 13.619 11.2427 13.619 10.1023C13.619 8.87572 13.2114 7.72522 12.4401 6.77507C12.1464 6.41393 12.1735 5.88941 12.5026 5.56051L12.6239 5.43906C12.8053 5.25763 13.0484 5.15874 13.3116 5.17443C13.5678 5.18733 13.807 5.30793 13.9696 5.50656C15.0394 6.8157 15.6046 8.40516 15.6046 10.1025C15.6046 11.6834 15.1048 13.1881 14.1589 14.4534C14.0009 14.6643 13.7593 14.7967 13.4964 14.8154ZM17.2514 17.6223C17.0872 17.8164 16.8497 17.9329 16.5954 17.9436C16.5829 17.9441 16.5702 17.9445 16.5573 17.9445C16.3168 17.9445 16.0859 17.8495 15.915 17.6786L15.7957 17.5593C15.4623 17.2261 15.4397 16.6932 15.7428 16.3325C17.2076 14.5904 18.0146 12.3779 18.0146 10.1023C18.0146 7.73532 17.1506 5.45668 15.5824 3.68623C15.2645 3.3268 15.2806 2.78272 15.619 2.44308L15.7381 2.32377C15.9148 2.14621 16.1444 2.0484 16.4077 2.05678C16.6577 2.06388 16.8942 2.17437 17.0603 2.36139C18.9559 4.49557 20 7.24499 20 10.1023C20.0004 12.8515 19.0243 15.5222 17.2514 17.6223Z" fill="#595888"/>
</svg>
