<svg width="20" height="20" viewBox="0 0 20 20" fill="none" xmlns="http://www.w3.org/2000/svg">
    <path d="M1.17188 17.1403V1.68738H0V18.3122H20V17.1403H1.17188Z" fill="#595888"/>
    <path d="M19.0637 3.35791H15.8117V4.52979H17.0077L15.3061 6.54006C15.1367 6.48818 14.9569 6.4601 14.7706 6.4601C13.7595 6.4601 12.9369 7.28271 12.9369 8.29381C12.9369 8.64986 13.0392 8.98225 13.2155 9.26385L11.5942 11.376C11.3784 11.2866 11.1421 11.2369 10.8944 11.2369C10.4476 11.2369 10.0378 11.3977 9.71935 11.6642L7.8308 10.1948C7.79111 9.2185 6.98486 8.43643 5.99904 8.43643C4.98791 8.43643 4.16533 9.25904 4.16533 10.2701C4.16533 10.6666 4.29224 11.0338 4.50697 11.3341L1.92419 15.3736L2.91158 16.0048L5.45798 12.0223C5.62912 12.0753 5.81083 12.1038 5.99912 12.1038C6.59076 12.1038 7.11751 11.8219 7.45306 11.3856L9.10513 12.6711C9.07642 12.7998 9.06076 12.9334 9.06076 13.0706C9.06076 14.0817 9.88337 14.9044 10.8945 14.9044C11.9056 14.9044 12.7282 14.0817 12.7282 13.0706C12.7282 12.7346 12.6369 12.4197 12.4785 12.1486L14.1214 10.0083C14.3234 10.0851 14.5421 10.1275 14.7707 10.1275C15.7818 10.1275 16.6044 9.30486 16.6044 8.29377C16.6044 7.89584 16.4766 7.5274 16.2604 7.22654L17.9154 5.27127L17.9325 6.65772L19.1043 6.64326L19.0637 3.35791Z" fill="#595888"/>
</svg>
