<svg width="20" height="20" viewBox="0 0 20 20" fill="none" xmlns="http://www.w3.org/2000/svg">
    <g clip-path="url(#clip0)">
        <path d="M4.13342 15.966H17.7568C17.7985 15.966 17.8389 15.9601 17.8778 15.9508C17.8809 15.9508 17.8834 15.9513 17.8865 15.9513C18.1773 15.9513 18.4136 15.7153 18.4136 15.4243V0.527085C18.4136 0.236132 18.1773 0 17.8865 0H17.7578H4.9764H4.13416C2.73121 0 1.59004 1.14143 1.59004 2.54399C1.59004 2.5628 1.59375 2.58065 1.59557 2.59881C1.59375 3.89442 1.57768 15.7995 1.59375 17.3645C1.59274 17.3952 1.589 17.425 1.589 17.4559C1.589 18.8046 2.645 19.9087 3.97327 19.9921C3.99992 19.9962 4.02604 20.0001 4.05369 20.0001H17.8865C18.1773 20.0001 18.4136 19.7641 18.4136 19.473V17.4889C18.4136 17.1981 18.1773 16.9619 17.8865 16.9619C17.5957 16.9619 17.3594 17.1981 17.3594 17.4889V18.9459H4.13342C3.33245 18.9459 2.67861 18.31 2.64648 17.517C2.64726 17.5028 2.64983 17.4895 2.64957 17.4751C2.64905 17.4519 2.64826 17.4159 2.64774 17.368C2.69381 16.5875 3.34159 15.966 4.13342 15.966ZM4.49282 2.54399C4.49282 2.25303 4.72895 2.0169 5.0199 2.0169C5.31086 2.0169 5.54699 2.25303 5.54699 2.54399V13.2505C5.54699 13.5413 5.31086 13.7776 5.0199 13.7776C4.72895 13.7776 4.49282 13.5413 4.49282 13.2505V2.54399Z" fill="#595888"/>
    </g>
    <defs>
        <clipPath id="clip0">
            <rect width="20" height="20" fill="white"/>
        </clipPath>
    </defs>
</svg>
