<svg width="26" height="26" viewBox="0 0 26 26" fill="none" xmlns="http://www.w3.org/2000/svg">
    <g clip-path="url(#clip0)">
        <path d="M25.0765 3.58663C24.5179 3.5357 24.0238 3.94728 23.9729 4.50587L23.8383 5.98203C21.5552 2.39657 17.5921 0 13 0C8.05992 0 3.7064 2.81948 1.54525 7.05118C1.29012 7.55071 1.48827 8.16248 1.98781 8.4176C2.48744 8.67273 3.0991 8.47463 3.35423 7.97504C5.18322 4.39375 8.85607 2.03125 13 2.03125C16.7769 2.03125 20.1855 3.99806 22.1382 7.07931L20.6901 6.04505C20.2336 5.71909 19.5993 5.82481 19.2733 6.28123C18.9474 6.73771 19.0531 7.37196 19.5095 7.69798L23.9008 10.8343C24.5444 11.2931 25.4321 10.8731 25.5025 10.1L25.9957 4.69031C26.0466 4.13166 25.6351 3.63756 25.0765 3.58663Z" fill="#595888"/>
        <path d="M24.0123 17.5824C23.5127 17.3274 22.901 17.5255 22.6459 18.025C20.8169 21.6063 17.144 23.9688 13.0001 23.9688C9.22317 23.9688 5.81463 22.002 3.86189 18.9207L5.31002 19.955C5.76649 20.281 6.40075 20.1752 6.72676 19.7188C7.05273 19.2623 6.947 18.6281 6.49058 18.3021L2.09927 15.1658C1.46354 14.7116 0.568675 15.119 0.497581 15.9L0.00444404 21.3097C-0.0464896 21.8683 0.365093 22.3624 0.923635 22.4134C1.48294 22.4642 1.97638 22.0522 2.02726 21.4941L2.16183 20.018C4.44486 23.6035 8.40803 26 13.0001 26C17.9402 26 22.2937 23.1806 24.4549 18.9489C24.71 18.4493 24.5118 17.8376 24.0123 17.5824Z" fill="#595888"/>
    </g>
    <defs>
        <clipPath id="clip0">
            <rect width="26" height="26" fill="white"/>
        </clipPath>
    </defs>
</svg>
