<svg width="20" height="20" viewBox="0 0 20 20" fill="none" xmlns="http://www.w3.org/2000/svg">
    <path d="M14.9437 9.11625C14.8425 8.8925 14.62 8.75 14.375 8.75H11.875V0.625C11.875 0.28 11.595 0 11.25 0H8.74995C8.40495 0 8.12495 0.28 8.12495 0.625V8.75H5.62495C5.37995 8.75 5.15745 8.89375 5.0562 9.11625C4.9537 9.34 4.9937 9.60125 5.15495 9.78625L9.52995 14.7863C9.64871 14.9225 9.81995 15 9.99995 15C10.18 15 10.3512 14.9213 10.47 14.7863L14.845 9.78625C15.0075 9.6025 15.045 9.34 14.9437 9.11625Z" fill="#595888"/>
    <path d="M16.875 13.75V17.5H3.125V13.75H0.625V18.75C0.625 19.4412 1.185 20 1.875 20H18.125C18.8162 20 19.375 19.4412 19.375 18.75V13.75H16.875Z" fill="#595888"/>
</svg>
