<svg width="14" height="14" viewBox="0 0 14 14" fill="none" xmlns="http://www.w3.org/2000/svg">
    <g clip-path="url(#clip0)">
        <path d="M9.9305 12.1225L9.74173 12.8941C9.17542 13.1177 8.72305 13.2878 8.38619 13.4048C8.04897 13.5221 7.65714 13.5805 7.21071 13.5805C6.52513 13.5805 5.99187 13.4125 5.61155 13.0789C5.23122 12.744 5.041 12.3196 5.041 11.8048C5.041 11.6055 5.0548 11.4005 5.0835 11.1916C5.11244 10.9825 5.15845 10.747 5.22142 10.4837L5.92915 7.97874C5.99212 7.73887 6.04564 7.5116 6.0885 7.29667C6.13197 7.08308 6.15292 6.88656 6.15292 6.70966C6.15292 6.38975 6.08668 6.16599 5.95482 6.04018C5.82296 5.91474 5.57135 5.85105 5.1978 5.85105C5.01485 5.85105 4.8268 5.88035 4.63513 5.93702C4.4426 5.99393 4.27805 6.0489 4.13989 6.1L4.32915 5.32772C4.79278 5.13895 5.23595 4.97731 5.65986 4.84315C6.08378 4.70862 6.48432 4.6413 6.8632 4.6413C7.54405 4.6413 8.06944 4.80585 8.43838 5.13496C8.80732 5.46431 8.99173 5.89125 8.99173 6.41736C8.99173 6.52621 8.97962 6.71801 8.95359 6.99215C8.92816 7.26689 8.88082 7.51862 8.8118 7.74759L8.10709 10.2425C8.04934 10.4429 7.99739 10.672 7.95223 10.9298C7.90561 11.1859 7.88333 11.3816 7.88333 11.5128C7.88333 11.8441 7.95719 12.0703 8.10528 12.1905C8.25445 12.3108 8.51139 12.3706 8.87634 12.3706C9.04767 12.3706 9.24262 12.3402 9.45924 12.2805C9.67525 12.2208 9.83278 12.1684 9.9305 12.1225ZM10.1092 1.64798C10.1092 2.08267 9.94539 2.45391 9.61616 2.75917C9.28778 3.06551 8.89208 3.2188 8.42918 3.2188C7.96482 3.2188 7.56815 3.06551 7.23601 2.75917C6.90448 2.45379 6.73836 2.08267 6.73836 1.64798C6.73836 1.21413 6.90448 0.842284 7.23601 0.533156C7.56754 0.224513 7.96494 0.0702515 8.42918 0.0702515C8.89196 0.0702515 9.28778 0.224876 9.61616 0.533156C9.94563 0.842284 10.1092 1.21425 10.1092 1.64798Z" fill="#595888"/>
    </g>
    <defs>
        <clipPath id="clip0">
            <rect width="13.5102" height="13.5102" fill="white" transform="translate(0.369629 0.070282)"/>
        </clipPath>
    </defs>
</svg>
