<svg width="32" height="32" viewBox="0 0 32 32" fill="none" xmlns="http://www.w3.org/2000/svg">
    <path d="M30.6667 17.3057H1.33333C0.597331 17.3057 0 16.7084 0 15.9724C0 15.2364 0.597331 14.639 1.33333 14.639H30.6667C31.4027 14.639 32 15.2364 32 15.9724C32 16.7084 31.4027 17.3057 30.6667 17.3057Z" fill="white"/>
    <path d="M30.6667 7.08329H1.33333C0.597331 7.08329 0 6.48596 0 5.74996C0 5.01396 0.597331 4.41663 1.33333 4.41663H30.6667C31.4027 4.41663 32 5.01396 32 5.74996C32 6.48596 31.4027 7.08329 30.6667 7.08329Z" fill="white"/>
    <path d="M30.6667 27.5276H1.33333C0.597331 27.5276 0 26.9303 0 26.1943C0 25.4583 0.597331 24.861 1.33333 24.861H30.6667C31.4027 24.861 32 25.4583 32 26.1943C32 26.9303 31.4027 27.5276 30.6667 27.5276Z" fill="white"/>
</svg>
