<svg width="20" height="20" viewBox="0 0 20 20" fill="none" xmlns="http://www.w3.org/2000/svg">
    <g clip-path="url(#clip0)">
        <path d="M13.5842 8.40055C14.144 8.50774 14.6978 8.18883 14.8862 7.6509L15.8688 4.84393C15.9559 4.5951 15.6867 4.37202 15.4583 4.50385L14.7226 4.92862L12.7829 1.56888C12.5438 1.15478 12.102 0.899658 11.6238 0.899658H8.63852C8.16035 0.899658 7.71847 1.15478 7.47941 1.56888L5.39761 5.17467C5.21436 5.49206 5.32311 5.89792 5.6405 6.0812L7.89098 7.3805C8.20844 7.56379 8.61438 7.45496 8.79758 7.13746L10.1306 4.82702L11.3226 6.89164L10.5845 7.31777C10.3565 7.44945 10.4146 7.79359 10.6732 7.84312L13.5842 8.40055Z" fill="#595888"/>
        <path d="M19.8254 14.6589C20.0613 14.2429 20.0574 13.7327 19.8151 13.3204L17.7066 9.73231C17.521 9.4163 17.1144 9.31056 16.7983 9.49614L14.5576 10.8121C14.2415 10.9977 14.1358 11.4045 14.3215 11.7205L15.6729 14.0202L13.289 14.0379L13.2827 13.1856C13.2807 12.9223 12.9527 12.803 12.782 13.0034L10.8604 15.2601C10.4909 15.694 10.4949 16.3331 10.8698 16.7624L12.826 19.0024C12.9994 19.201 13.3263 19.077 13.3244 18.8133L13.3181 17.9638L17.1973 17.935C17.6755 17.9315 18.1156 17.6731 18.3515 17.257L19.8254 14.6589Z" fill="#595888"/>
        <path d="M6.99414 14.0534L4.32676 14.0426L5.52773 11.9831L6.26394 12.4125C6.4914 12.5451 6.7614 12.3239 6.67605 12.0748L5.71543 9.27084C5.5307 8.73166 4.97902 8.40908 4.41855 8.51251L1.49398 9.05228C1.23472 9.10013 1.17461 9.44455 1.40238 9.57736L2.13625 10.0053L0.18199 13.3564C-0.0589479 13.7696 -0.0610963 14.2799 0.176287 14.6951L1.6591 17.2882C1.89648 17.7034 2.33734 17.9603 2.81554 17.9622L6.97722 17.9791C7.34375 17.9807 7.64211 17.6849 7.64371 17.3184L7.655 14.7198C7.65664 14.3533 7.3607 14.0549 6.99414 14.0534Z" fill="#595888"/>
    </g>
    <defs>
        <clipPath id="clip0">
            <rect width="20" height="20" fill="white"/>
        </clipPath>
    </defs>
</svg>
