<svg width="28" height="28" viewBox="0 0 28 28" fill="none" xmlns="http://www.w3.org/2000/svg">
    <path d="M16.5652 14.0229L27.4679 3.1199C28.1774 2.41071 28.1774 1.26404 27.4679 0.554844C26.7587 -0.154349 25.612 -0.154349 24.9028 0.554844L13.9999 11.4578L3.0972 0.554844C2.38767 -0.154349 1.24134 -0.154349 0.532145 0.554844C-0.177382 1.26404 -0.177382 2.41071 0.532145 3.1199L11.4348 14.0229L0.532145 24.9259C-0.177382 25.635 -0.177382 26.7817 0.532145 27.4909C0.885579 27.8447 1.35029 28.0224 1.81467 28.0224C2.27905 28.0224 2.74343 27.8447 3.0972 27.4909L13.9999 16.5879L24.9028 27.4909C25.2566 27.8447 25.721 28.0224 26.1854 28.0224C26.6497 28.0224 27.1141 27.8447 27.4679 27.4909C28.1774 26.7817 28.1774 25.635 27.4679 24.9259L16.5652 14.0229Z" fill="white"/>
</svg>
