<svg width="18" height="17" viewBox="0 0 18 17" fill="none" xmlns="http://www.w3.org/2000/svg">
<path d="M16.0714 0.928619H14.1429V3.50006C14.1429 3.85511 13.855 4.14293 13.5 4.14293C13.1449 4.14293 12.8571 3.85511 12.8571 3.50006V0.928619H5.14284V3.50006C5.14284 3.85511 4.85502 4.14293 4.49997 4.14293C4.14492 4.14293 3.8571 3.85511 3.8571 3.50006V0.928619H1.92857C0.863449 0.928619 0 1.79207 0 2.85719V15.0715C0 16.1366 0.863449 17 1.92857 17H16.0714C17.1365 17 18 16.1366 18 15.0715V2.85719C18 1.79207 17.1365 0.928619 16.0714 0.928619ZM16.7143 15.0715C16.7143 15.4265 16.4264 15.7143 16.0714 15.7143H1.92857C1.57352 15.7143 1.2857 15.4265 1.2857 15.0715V6.71433H16.7143V15.0715Z" fill="white"/>
</svg>
