<svg width="26" height="26" viewBox="0 0 26 26" fill="none" xmlns="http://www.w3.org/2000/svg">
    <rect x="1" y="1" width="10" height="7" fill="#1C0C2C"/>
    <path d="M10.0208 8.66673H1.89577C0.850388 8.66673 0 7.81635 0 6.77077V1.89577C0 0.850388 0.850388 0 1.89577 0H10.0208C11.0663 0 11.9167 0.850388 11.9167 1.89577V6.77077C11.9167 7.81635 11.0663 8.66673 10.0208 8.66673ZM1.89577 1.625C1.7464 1.625 1.625 1.7464 1.625 1.89577V6.77077C1.625 6.92033 1.7464 7.04173 1.89577 7.04173H10.0208C10.1703 7.04173 10.2917 6.92033 10.2917 6.77077V1.89577C10.2917 1.7464 10.1703 1.625 10.0208 1.625H1.89577Z" fill="#595888"/>
    <rect x="1" y="12" width="10" height="13" fill="#1C0C2C"/>
    <path d="M10.0208 26H1.89577C0.850388 26 0 25.1496 0 24.1042V12.7292C0 11.6836 0.850388 10.8333 1.89577 10.8333H10.0208C11.0663 10.8333 11.9167 11.6836 11.9167 12.7292V24.1042C11.9167 25.1496 11.0663 26 10.0208 26ZM1.89577 12.4583C1.7464 12.4583 1.625 12.5797 1.625 12.7292V24.1042C1.625 24.2536 1.7464 24.375 1.89577 24.375H10.0208C10.1703 24.375 10.2917 24.2536 10.2917 24.1042V12.7292C10.2917 12.5797 10.1703 12.4583 10.0208 12.4583H1.89577Z" fill="#595888"/>
    <rect x="15" y="19" width="10" height="6" fill="#1C0C2C"/>
    <path d="M24.1042 26H15.9792C14.9336 26 14.0833 25.1496 14.0833 24.1042V19.2292C14.0833 18.1836 14.9336 17.3333 15.9792 17.3333H24.1042C25.1496 17.3333 26 18.1836 26 19.2292V24.1042C26 25.1496 25.1496 26 24.1042 26ZM15.9792 18.9583C15.8297 18.9583 15.7083 19.0797 15.7083 19.2292V24.1042C15.7083 24.2536 15.8297 24.375 15.9792 24.375H24.1042C24.2536 24.375 24.375 24.2536 24.375 24.1042V19.2292C24.375 19.0797 24.2536 18.9583 24.1042 18.9583H15.9792Z" fill="#595888"/>
    <rect x="15" y="1" width="10" height="13" fill="#1C0C2C"/>
    <path d="M24.1042 15.1667H15.9792C14.9336 15.1667 14.0833 14.3163 14.0833 13.2708V1.89577C14.0833 0.850388 14.9336 0 15.9792 0H24.1042C25.1496 0 26 0.850388 26 1.89577V13.2708C26 14.3163 25.1496 15.1667 24.1042 15.1667ZM15.9792 1.625C15.8297 1.625 15.7083 1.7464 15.7083 1.89577V13.2708C15.7083 13.4203 15.8297 13.5417 15.9792 13.5417H24.1042C24.2536 13.5417 24.375 13.4203 24.375 13.2708V1.89577C24.375 1.7464 24.2536 1.625 24.1042 1.625H15.9792Z" fill="#595888"/>
</svg>
