<svg width="37" height="38" viewBox="0 0 37 38" fill="none" xmlns="http://www.w3.org/2000/svg">
<path fill-rule="evenodd" clip-rule="evenodd" d="M36.5396 22.0834C36.5396 22.0729 36.5396 22.0623 36.5396 22.0517C36.6184 21.5656 36.6892 21.0741 36.6525 20.551C36.6341 20.588 36.6236 20.6302 36.6105 20.6725C36.6157 20.5668 36.6184 20.4585 36.6053 20.366L36.5921 20.2973L36.6 20.2075C36.6053 19.8006 36.6105 19.3963 36.6131 18.9657C36.6 18.8996 36.5895 18.8335 36.5685 18.7199C36.4583 17.5547 36.2535 16.3393 35.9438 15.2032C35.9123 15.116 35.873 15.0156 35.8494 14.9495C35.5633 13.9693 35.2457 13.0762 34.852 12.0907C34.8152 12.0352 34.7496 11.9427 34.7129 11.8872C34.6709 11.7842 34.6394 11.7023 34.6053 11.623C34.5816 11.4671 34.4976 11.3112 34.3822 11.1448C34.0619 10.5423 33.7995 9.87916 33.3953 9.4564C32.8388 8.76679 32.2194 7.87373 31.5528 7.2079C31.2273 6.85913 31.0383 6.49979 30.705 6.18273C30.3822 5.89209 30.327 6.0057 29.8625 5.61994C29.3638 5.24211 28.8808 4.80879 28.3428 4.41774L28.3113 4.46002C28.3034 4.4336 28.2824 4.39397 28.3428 4.41774L28.1328 4.26978L28.1013 4.31206C27.873 4.15353 27.663 4.00556 27.4504 3.8576C27.39 3.83382 27.2903 3.79155 27.2089 3.75984L27.1328 3.72285L27.0856 3.68057C26.8992 3.53261 26.6315 3.44278 26.5344 3.31595C26.6578 3.31595 27.062 3.55639 27.0987 3.49562C26.3533 3.03059 25.8861 2.84828 25.5685 2.86678C25.4215 2.78223 25.2142 2.6739 25.2299 2.64219C25.3507 2.54179 25.0226 2.43082 24.5974 2.2855C24.2509 2.17188 24.1486 2.20359 24.1591 2.28814C24.062 2.24586 24.0042 2.22208 23.9255 2.19038C23.8336 2.13753 23.7339 2.10054 23.6709 2.08733L23.705 2.1164C23.6105 2.06884 23.5318 2.03449 23.453 2.00807C23.1538 1.90238 22.6814 1.78084 22.8389 1.70421C22.9648 1.65137 22.7706 1.56418 22.4215 1.45585C22.1328 1.37394 21.8546 1.24447 21.5396 1.27618C21.8887 1.38715 22.2929 1.58796 22.1617 1.66194C22.0121 1.63552 21.8389 1.5906 21.663 1.54832C21.5633 1.45321 21.4845 1.36073 21.3244 1.26297C21.2877 1.21277 21.2457 1.17049 21.0777 1.12822C21.0567 1.01196 20.9727 0.893061 20.789 0.779447C20.9544 0.790015 21.1328 0.808511 21.3087 0.827006C21.8467 0.919483 22.3927 1.0833 22.8441 1.31581C23.1355 1.46906 23.5108 1.58003 23.8572 1.63552C24.3376 1.84161 24.7942 2.03449 25.2745 2.24058C26.4557 2.78751 27.5685 3.42164 28.6053 4.05576L28.5843 4.0452C29.1853 4.42039 29.705 4.96996 30.2877 5.40857C30.5134 5.55389 30.7811 5.82075 31.041 6.09289C31.1223 6.16952 31.2194 6.26199 31.3139 6.35447C31.4976 6.51829 31.6892 6.73495 31.8677 6.93311C32.4241 7.62272 32.957 8.22514 33.4242 8.88041C33.3979 8.81699 33.3979 8.81699 33.3822 8.77736C33.3822 8.77736 33.3822 8.77736 33.4058 8.81435L33.4242 8.88041C33.5764 9.10499 33.7444 9.39035 33.8861 9.51453L33.9648 9.6255L34.0305 9.74176C34.2588 10.1566 34.4504 10.6322 34.6945 10.9387C34.7522 11.0364 34.768 11.0523 34.8205 11.1553C34.9465 11.4407 35.0829 11.726 35.2037 11.9427C35.2299 12.0061 35.2326 12.0061 35.2457 12.0008C35.2667 12.0167 35.2667 11.9929 35.2535 11.9242C35.0987 11.2346 34.7864 10.5423 34.3087 9.79989C34.1879 9.60701 34.0173 9.34015 33.8861 9.12877C33.0646 7.61215 32.0121 6.52621 30.8625 5.59088C30.705 5.43235 30.5764 5.30816 30.4504 5.24475C30.2956 5.11528 30.1381 4.98846 30.0278 4.94618C29.873 4.81936 29.7522 4.7216 29.6315 4.62384C29.411 4.4336 29.2116 4.25921 28.9911 4.07162C28.0646 3.26311 26.9885 2.65276 25.8808 2.15339C25.3822 1.91559 24.831 1.74913 24.3034 1.46906C23.915 1.24976 23.4005 1.04102 23.5685 1.29996C23.5948 1.35809 23.2562 1.25768 23.0462 1.19163C22.6473 1.07801 22.1906 0.914198 21.7601 0.824364C21.7155 0.821722 21.6315 0.803226 21.5895 0.782089C21.5082 0.745098 21.4215 0.726603 21.2903 0.718676C21.2431 0.721318 21.1801 0.708107 21.0961 0.679043C20.7234 0.557502 20.3454 0.451815 19.9622 0.369907C19.8415 0.330274 19.684 0.295925 19.4688 0.264219C19.4452 0.21666 19.3743 0.179669 19.1722 0.155889C19.0777 0.134752 19.0121 0.124183 18.8966 0.113614L18.8284 0.124183C18.8047 0.126825 18.8047 0.126825 18.8047 0.126825C18.8284 0.124183 18.852 0.118899 18.894 0.113614C18.8494 0.0713392 18.7549 0.0475595 18.5265 0.0449173L18.5029 0.0369907V0.0422751C18.4793 0.013211 18.3874 0.00264219 18.2247 0C18.1801 0.013211 18.0672 0.0211375 18.041 0.0105688C17.6131 0.0422751 17.1853 0.105688 16.7601 0.179669C16.5239 0.158532 16.2641 0.171742 16.0252 0.200807C14.9885 0.261577 14.0095 0.414824 12.9754 0.642053L12.978 0.649979L12.9806 0.657906L12.9754 0.63941C12.5213 0.634126 11.9465 0.890419 11.432 1.00668C11.2011 1.0146 10.9071 1.115 10.6604 1.21012C10.5055 1.2339 10.2929 1.3026 10.0646 1.38979C9.79426 1.4902 9.90187 1.5219 9.74438 1.60117C9.62365 1.6593 9.51341 1.73328 9.48192 1.77555C9.41105 1.83104 9.06985 1.98429 9.15646 2.01863C9.19583 2.0477 9.26931 2.05298 9.44254 2.01071C9.51603 2.06355 9.71814 2.03713 10.0121 1.95522L10.0672 1.92087L10.0698 1.92616C10.0488 1.93408 10.0279 1.94201 10.0121 1.95522C10.2116 1.98957 10.432 2.02656 10.6315 2.06091C10.6578 2.13225 10.7418 2.17452 11.0095 2.11904C10.8651 2.20887 10.7208 2.30135 10.5895 2.40175C10.1985 2.62898 9.6709 2.81129 9.45305 3.10722C8.92287 3.49562 8.29557 3.87081 7.87299 4.32263L7.90712 4.2962C7.65777 4.56307 7.24833 4.80879 7.07247 5.05716L7.06985 5.05451C6.95961 5.17077 6.76276 5.31873 6.65514 5.46669L6.61841 5.52482L6.55017 5.58295C6.31132 5.81811 6.06985 6.0559 5.82313 6.29899C5.50292 6.55528 5.18009 6.83007 4.93075 7.19997C4.59742 7.65443 3.95436 8.36518 3.58953 8.93853C3.22208 9.54888 2.65515 10.1354 2.45567 10.7775L2.48456 10.7511C2.46881 10.7881 2.46618 10.7854 2.46618 10.7854L2.45567 10.7775C2.07772 11.4301 1.74177 12.1144 1.45044 12.8199C1.24309 13.2295 1.07772 13.6892 0.946488 14.2071C0.909743 14.3286 0.870377 14.4501 0.836256 14.5717C0.508173 15.5044 0.240455 16.5031 0.145967 17.5362C0.0803503 18.0726 0.0199842 18.5508 0.114472 18.9921C0.127596 19.0713 0.122352 19.1136 0.103979 19.1506C0.0619846 19.2695 0.048853 19.4307 0.0462283 19.6315C-0.0640078 20.115 0.0541036 20.6329 0.0803503 21.1296L0.0934704 21.1481H0.0960977H0.0934704C0.0908458 21.1481 0.082975 21.1455 0.0803503 21.1296C0.0383556 21.3357 0.0672225 21.658 0.124965 21.9328H0.13022C0.101348 22.1204 0.201085 22.4692 0.211584 22.7149C0.232581 22.773 0.237835 22.8312 0.232586 22.8735C0.208964 22.9818 0.232586 23.1615 0.282455 23.3781C0.3192 23.7005 0.400565 24.036 0.544922 24.2685C0.592166 24.5037 0.652533 24.7256 0.757519 24.9159C0.841509 25.1986 0.920247 25.4575 1.00161 25.7191C1.16697 26.1154 1.29557 26.6676 1.50817 27.0217C1.57379 27.1882 1.64202 27.3573 1.69977 27.5026C1.8205 27.7932 1.91763 28.0944 2.07248 28.2715C2.12497 28.3719 2.17484 28.4723 2.21684 28.5542C2.25096 28.6387 2.29032 28.718 2.34544 28.792C2.39006 28.8712 2.42156 28.9294 2.46618 29.006C2.81264 29.7167 3.20634 30.3746 3.66303 30.9929C3.78377 31.1567 3.87037 31.2333 3.9045 31.2096C3.93862 31.1858 3.88088 31.059 3.7654 30.8951C3.41894 30.3482 3.02523 29.7247 2.68927 29.1936C2.57379 28.9769 2.44781 28.7391 2.32183 28.504C1.99112 28.0627 1.86513 27.4339 1.61316 26.9794L1.61579 27.027C1.51343 26.7548 1.42682 26.5223 1.32183 26.2502C1.20897 26.0282 1.14596 25.6953 1.04623 25.4681C1.01211 25.3439 0.977995 25.2224 0.94125 25.1008C0.951748 25.122 0.962248 25.1457 0.975372 25.1642L0.970117 25.1669C0.998988 25.2197 1.01736 25.2541 1.04885 25.3069C1.03573 25.2488 1.02786 25.2118 1.01736 25.1563C1.01736 25.1589 1.01736 25.1642 1.01736 25.1669V25.1484C1.01736 25.151 1.01736 25.1537 1.01999 25.1563C1.02786 25.1061 1.00686 25.0189 1.00424 24.9423C1.01736 24.8313 0.970116 24.6411 0.920248 24.4482L0.909755 24.4508H0.9045L0.920248 24.4456C0.922872 24.4006 0.917626 24.3452 0.907128 24.2817C1.05411 24.8551 1.23784 25.4205 1.44781 25.9701C1.63416 26.4933 1.90712 27.0032 2.08297 27.5766C2.20371 28.0099 2.42156 28.5225 2.48456 28.2186C2.50818 28.1605 2.67353 28.4696 2.77589 28.6651C2.97799 29.0298 3.18533 29.471 3.4268 29.8409C3.45568 29.8726 3.50293 29.9466 3.51868 29.9915C3.55017 30.0761 3.5974 30.15 3.68664 30.2505C3.72076 30.2822 3.75752 30.3376 3.79426 30.4169C4.32445 31.4632 4.97799 32.454 5.97274 33.2441C6.10397 33.363 6.25883 33.5215 6.35332 33.643C6.50817 33.8967 6.78376 34.1556 7.04361 34.3617C7.82051 35.0566 8.61839 35.6458 9.50816 36.2192L9.51341 36.2112L9.51867 36.2033L9.50816 36.2192C9.82312 36.5468 10.4111 36.774 10.8599 37.0567C11.0278 37.2153 11.3061 37.3527 11.5502 37.461C11.6761 37.5561 11.8756 37.6565 12.0961 37.7596C12.3586 37.8811 12.3034 37.7807 12.4714 37.8388C12.5974 37.8837 12.7286 37.9102 12.7785 37.9022C12.8677 37.9128 13.2168 38.0476 13.1801 37.963C13.1748 37.9155 13.125 37.8573 12.9727 37.7648C12.957 37.6777 12.7969 37.5508 12.5318 37.3976L12.4688 37.3817L12.4714 37.3764C12.4924 37.3844 12.5134 37.3949 12.5318 37.3949C12.4163 37.2285 12.2851 37.0435 12.1696 36.8797C12.2063 36.7978 12.1617 36.6868 11.7969 36.4781C11.7628 36.4041 11.6866 36.3169 11.6552 36.2377C11.9202 36.3618 12.2116 36.4781 12.4662 36.5679C12.7418 36.6631 12.9019 36.6551 12.9229 36.6023C12.9885 36.5442 12.6814 36.4305 12.4977 36.3354C12.2772 36.2244 12.1066 36.1003 12.0961 36.0342C12.0698 35.9444 12.3901 36.0818 12.5502 36.1161C13.1066 36.2535 13.8126 36.6181 14.4452 36.7027C14.7391 36.7687 15.1118 36.9458 15.369 36.9114L15.3507 36.8982L15.3717 36.9035L15.369 36.9114C15.8021 37.0013 16.2457 37.1386 16.6158 37.1307C16.5764 37.1149 16.5397 37.1043 16.5213 37.0911C16.5423 37.0964 16.5423 37.0964 16.5423 37.0964L16.6158 37.1334C17.0095 37.1968 17.4872 37.284 17.8126 37.2364L17.7733 37.2232L17.8126 37.2285V37.2364C18.4478 37.2655 19.104 37.4399 19.8074 37.3051C20.3612 37.2206 21.3165 37.1756 21.978 37.0303C22.6683 36.8612 23.4793 36.8506 24.0725 36.5362L24.0331 36.5336C24.0698 36.5177 24.0698 36.523 24.0698 36.523L24.0725 36.5362C25.3848 36.1848 26.6761 35.6775 27.8835 35.0038C28.6656 34.6286 29.4451 34.1768 30.1617 33.6219H30.1643C30.1932 33.6536 30.2667 33.6377 30.411 33.5294L30.4819 33.4422L30.4845 33.4449C30.4845 33.4449 30.4399 33.4951 30.411 33.5294C30.4766 33.5294 30.558 33.5162 30.6577 33.4766C30.4766 33.6192 30.2798 33.8042 30.1013 33.894L30.1171 33.8808C29.9228 33.9892 29.6525 34.2005 29.4635 34.2772C29.0331 34.4225 28.5895 34.8426 28.1144 35.0619C28.0095 35.1147 27.8625 35.1861 27.7207 35.2574C27.4557 35.3446 27.1249 35.5824 26.8362 35.6643C26.6892 35.7251 26.579 35.77 26.4688 35.8149C25.9885 36.0448 25.516 36.2667 25.0095 36.3751L24.936 36.4068L24.8782 36.42C23.3822 36.7872 22.2903 37.1862 21.1355 37.4584C23.3297 37.2285 25.4635 36.5653 27.4268 35.6035C27.5711 35.5296 27.6971 35.4661 27.8572 35.3842C28.2194 35.2944 28.6105 35.0407 28.978 34.7871C29.1827 34.6576 29.369 34.5387 29.5764 34.4093C29.7759 34.3089 30.0147 34.1239 30.2089 34.0077C30.2877 33.9442 30.3376 33.9099 30.39 33.8782C30.5843 33.7963 30.7969 33.6034 31.0173 33.4237C31.0829 33.3735 31.1643 33.3128 31.2115 33.2731C31.2955 33.2176 31.4084 33.1595 31.474 33.1093C31.5685 33.0168 31.6604 32.927 31.7522 32.8345C31.81 32.8134 31.8887 32.7579 32.0173 32.6311L32.0383 32.6179L32.0357 32.6152C32.0724 32.6205 32.1433 32.5597 32.2614 32.4461C32.285 32.4065 32.3585 32.3193 32.3848 32.3087C32.9937 31.5927 33.5213 30.7842 34.0095 29.9836C34.1984 29.7035 34.3664 29.3917 34.5055 29.1064C34.6446 28.9214 34.7706 28.718 34.8441 28.5198C34.9045 28.4353 34.9648 28.356 35.0305 28.2794C35.4084 27.2912 35.8231 26.2713 35.9701 25.3096C36.0882 24.8709 36.3323 24.3663 36.2798 24.0017C36.3821 23.349 36.5633 22.6383 36.5423 22.0174L36.5396 22.0834ZM33.0095 8.14059L32.999 8.14852C32.999 8.14852 33.0042 8.14588 32.999 8.12474L33.0095 8.14059ZM10.0357 1.67779C10.0305 1.66458 10.0042 1.65665 10.062 1.62495C10.0803 1.60909 10.1223 1.60117 10.1407 1.58531C10.0882 1.63023 10.0278 1.66458 10.0357 1.67779ZM12.3166 37.5984C12.3113 37.6116 12.3244 37.6354 12.2614 37.6142C12.2378 37.6142 12.2011 37.5878 12.1775 37.5852C12.2457 37.5957 12.3113 37.6142 12.3166 37.5984ZM35.4032 18.7411H35.3953V18.6988L35.4032 18.7411ZM35.2877 21.2485C35.3113 20.8495 35.3454 20.4479 35.2824 20.0886C35.3585 20.4083 35.3139 20.8284 35.2877 21.2485ZM35.3165 13.6786C35.2982 13.6601 35.2588 13.5571 35.2352 13.5439C35.2247 13.499 35.2089 13.4355 35.1984 13.3933C35.243 13.4963 35.2929 13.6205 35.3165 13.6786ZM35.1669 15.9853L35.1748 15.9826C35.1696 16.0064 35.1617 16.0698 35.1459 16.0328C35.1459 16.0328 35.1591 16.009 35.1669 15.9853ZM34.81 19.7636H34.8152L34.81 19.7847V19.7636ZM34.3953 18.3395C34.4005 18.4187 34.4268 18.4583 34.4163 18.5191C34.4058 18.6803 34.3769 18.5033 34.3533 18.4214C34.3717 18.4187 34.39 18.4187 34.3953 18.3395ZM34.1486 21.1507H34.1617L34.1538 21.1904C34.1459 21.2115 34.1486 21.1507 34.1486 21.1507ZM30.3638 30.9771C30.3927 30.9216 30.4242 30.8634 30.4557 30.808C30.474 30.5358 30.8179 30.0523 31.0777 29.4974C30.9727 29.899 30.6998 30.3614 30.4557 30.808C30.453 30.8317 30.4399 30.8634 30.4425 30.8819C30.432 30.9004 30.4058 30.9321 30.3638 30.9771ZM7.07247 30.7023C7.05148 30.6891 7.02523 30.66 7.00423 30.6521L7.0016 30.6547L6.99111 30.6415C6.94911 30.5992 6.96223 30.6151 6.94911 30.5992L6.95173 30.5966C6.95173 30.5966 6.96749 30.6098 6.99111 30.6389C7.00686 30.6494 7.00686 30.6494 7.00686 30.6494L7.04098 30.6706C7.05148 30.6838 7.06197 30.6917 7.07247 30.7023ZM3.88875 29.7511C3.87562 29.7352 3.86512 29.722 3.86512 29.722C3.89924 29.7432 3.91237 29.7326 3.9045 29.6929C3.90187 29.6877 3.89663 29.6824 3.894 29.6771C3.89925 29.6824 3.90187 29.6877 3.90712 29.6929C3.73914 29.368 3.59478 28.9346 3.73651 28.9769C3.90712 29.2226 4.08822 29.5793 4.2982 29.8251C4.39268 29.9651 4.50029 30.1236 4.6079 30.2795C4.77326 30.6864 4.80475 30.7657 4.72076 30.8872C4.6184 30.7102 4.47142 30.5305 4.31394 30.3139C4.2457 30.1157 4.0646 29.9123 3.90187 29.6956C3.91237 29.7326 3.90187 29.7405 3.88875 29.7511ZM4.39005 23.8141L4.40582 23.8114V23.8511L4.39005 23.8141ZM4.15122 24.9079C4.11972 24.8789 4.09872 24.8709 4.08034 24.8683C4.06197 24.9766 4.03311 25.0665 3.98849 25.1193C4.00948 25.0136 4.00423 24.8551 4.08034 24.8683C4.09084 24.8023 4.10397 24.7336 4.10135 24.6464C4.13547 24.7547 4.11185 24.8023 4.15122 24.9079ZM3.57116 28.1288C3.57116 28.1288 3.56067 28.1103 3.5528 28.0918C3.60267 28.1843 3.68402 28.3058 3.74177 28.3692L3.72865 28.3771C3.6814 28.3084 3.63677 28.2371 3.57116 28.1288ZM3.28508 26.4034C3.24308 26.3321 3.22208 26.2977 3.21158 26.2792C3.19846 26.2422 3.18533 26.2026 3.17746 26.1815C3.20633 26.2396 3.25096 26.3294 3.28508 26.4034ZM2.71814 24.0334C2.70239 24.036 2.67616 24.0017 2.64991 23.9462C2.64991 23.9462 2.6499 23.9462 2.64203 23.9065C2.66303 23.9647 2.69714 24.0387 2.71814 24.0334ZM1.06986 22.5168C1.05673 22.4983 1.0436 22.4454 1.0436 22.4454H1.04885C1.05673 22.4983 1.06198 22.4983 1.06986 22.5168ZM1.54229 24.2659C1.50817 24.2765 1.52655 24.3901 1.56592 24.538C1.52655 24.4508 1.48192 24.3636 1.47142 24.2447C1.4793 24.1866 1.51605 24.2342 1.54229 24.2659ZM2.41106 23.2486C2.36906 23.1747 2.32706 23.0769 2.29032 22.8761C2.33231 23.0346 2.37169 23.1509 2.41106 23.2486ZM2.54492 24.2236C2.53442 24.0994 2.51867 23.999 2.56329 23.9885C2.52655 23.9964 2.5318 24.0994 2.54492 24.2236ZM0.825763 18.4848L0.823136 18.5218H0.815255V18.5033C0.817879 18.4848 0.817882 18.4848 0.817882 18.4848H0.825763ZM0.715516 19.2272V19.2457C0.712891 19.251 0.712902 19.2589 0.710277 19.2669C0.697154 19.3673 0.689281 19.4492 0.678783 19.5364C0.676158 19.5628 0.676153 19.5866 0.673528 19.613C0.673528 19.5734 0.673528 19.5734 0.673528 19.5734C0.676153 19.5601 0.676158 19.5469 0.678783 19.5337C0.684032 19.428 0.691905 19.3408 0.710277 19.2642C0.712902 19.2536 0.715516 19.2404 0.715516 19.2272ZM0.413688 22.1336C0.429436 22.1363 0.44518 22.1284 0.458303 22.1125C0.463553 22.1733 0.468801 22.2103 0.474051 22.271C0.458303 22.2182 0.434686 22.1759 0.413688 22.1336C0.366444 22.1284 0.313949 22.0464 0.26408 21.9619C0.313949 21.9962 0.366444 22.057 0.413688 22.1336ZM2.76801 27.1089C2.80738 27.2066 2.83101 27.2648 2.86251 27.344C2.89138 27.4471 2.93599 27.5448 2.97011 27.5977L2.96749 27.5528C3.00161 27.6532 3.03311 27.7324 3.06985 27.8091C3.20634 28.0971 3.45831 28.5198 3.29033 28.4617C3.24309 28.4432 3.2247 28.4564 3.22733 28.4987C3.17746 28.3983 3.12496 28.2979 3.08035 28.2054L3.07772 28.208C3.07772 28.0706 2.88874 27.8276 2.7995 27.6135C2.77063 27.4524 2.72078 27.278 2.63416 27.0772C2.69453 27.1459 2.73914 27.1485 2.76801 27.1089ZM7.3953 6.61076C7.39793 6.60812 7.39793 6.60548 7.40056 6.60284C7.40056 6.60548 7.39793 6.60812 7.3953 6.61076ZM19.6945 2.7928L19.6919 2.81658C19.6893 2.83771 19.5948 2.82186 19.5921 2.83507C19.5948 2.81393 19.6919 2.81393 19.6945 2.7928ZM18.4924 2.62634C18.453 2.62105 18.4924 2.6237 18.474 2.62105C18.453 2.62105 18.3769 2.62105 18.3769 2.62105L18.4163 2.61577C18.495 2.59992 18.6289 2.59727 18.747 2.59992C18.6866 2.61841 18.5344 2.60784 18.4924 2.62634ZM18.747 2.80865C18.747 2.81129 18.726 2.81393 18.6866 2.80865C18.6683 2.81129 18.6683 2.81129 18.6683 2.81129L18.6289 2.82186C18.6131 2.82186 18.6 2.8245 18.5869 2.8245C18.6105 2.81922 18.6525 2.82186 18.6709 2.81393V2.80865L18.6893 2.81129C18.747 2.80865 18.7286 2.80865 18.747 2.80865ZM31.6998 26.2422C31.7076 26.2026 31.7391 26.1577 31.7549 26.1445L31.7654 26.1498C31.7444 26.1815 31.6945 26.3004 31.6998 26.2422ZM31.7417 26.3691L31.726 26.3981L31.7286 26.3638C31.7234 26.3691 31.7181 26.377 31.7129 26.3823C31.7129 26.3796 31.7129 26.3744 31.7129 26.3691C31.7181 26.3717 31.726 26.3611 31.7339 26.3479C31.7312 26.3532 31.7286 26.3559 31.726 26.3611L31.7417 26.3691ZM33.6053 21.0186C33.5974 21.0741 33.5948 21.0953 33.5843 21.1692C33.5843 21.0926 33.5711 21.0926 33.5685 21.0715C33.5843 21.016 33.5948 21.0371 33.6053 21.0186ZM33.2509 11.8212C33.2562 11.8291 33.2535 11.8265 33.2614 11.8449L33.2509 11.8265C33.2509 11.8212 33.2509 11.8212 33.2509 11.8212C33.2404 11.8027 33.2326 11.7842 33.2273 11.771C33.2168 11.7287 33.2142 11.7102 33.2142 11.7102C33.2168 11.726 33.2273 11.7683 33.2509 11.8212ZM33.1696 10.0271C33.1774 10.0403 33.1774 10.0403 33.1774 10.0403C33.1748 10.035 33.1722 10.0298 33.1696 10.0271C33.1696 10.0271 33.1696 10.0271 33.1669 10.0245L33.1564 10.006C33.1564 10.006 33.1643 10.0139 33.1696 10.0271ZM32.9176 9.79989L32.9097 9.80517C32.9097 9.80517 32.9097 9.80517 32.8992 9.78668C32.915 9.80253 32.9176 9.79989 32.9176 9.79989ZM27.4662 4.95147C27.3244 4.86956 27.2168 4.81407 27.1197 4.77444C27.2011 4.80086 27.3008 4.83521 27.4662 4.95147ZM26.3769 4.4336C26.3979 4.4336 26.4242 4.43888 26.4609 4.45209C26.4609 4.45209 26.4609 4.45209 26.495 4.47587C26.4557 4.45738 26.4058 4.43888 26.3769 4.4336ZM26.495 4.35697C26.5134 4.32791 26.4399 4.25921 26.3428 4.17995C26.4373 4.25921 26.516 4.31998 26.495 4.35697ZM24.4242 3.20234C24.4609 3.22083 24.4977 3.23669 24.516 3.24725C24.4583 3.22612 24.3638 3.19441 24.2851 3.16799C24.3664 3.18648 24.4032 3.19705 24.4242 3.20234ZM22.5869 2.08205C22.6683 2.10054 22.7496 2.11904 22.873 2.14546C22.873 2.14546 22.894 2.15074 22.9123 2.15867C22.8126 2.12961 22.6683 2.10054 22.5843 2.09526L22.5869 2.08205ZM19.1381 0.163816C19.1197 0.1691 19.1092 0.174385 19.0777 0.179669V0.171742L19.1381 0.163816ZM16.0541 0.266861C16.0541 0.266861 16.0541 0.266861 16.0961 0.269504C16.0541 0.272146 15.9649 0.274788 15.9202 0.27743L16.0541 0.266861ZM3.63677 9.30052C3.63677 9.31901 3.63416 9.34543 3.63416 9.36921C3.63416 9.36921 3.63416 9.36921 3.63416 9.37185C3.62891 9.35336 3.6289 9.33222 3.63677 9.30052ZM3.61053 9.40884C3.61053 9.41149 3.60791 9.41149 3.60791 9.41413C3.58691 9.42206 3.56066 9.43791 3.53704 9.44848C3.56591 9.42998 3.58954 9.42206 3.61053 9.40884ZM0.193209 20.6434C0.185335 20.6699 0.17746 20.6936 0.159087 20.6725C0.159087 20.6725 0.159101 20.6725 0.156476 20.6329C0.174849 20.6751 0.185335 20.6646 0.193209 20.6434ZM0.621032 24.0466C0.621032 24.0492 0.623659 24.0492 0.623659 24.0519H0.621032C0.621032 24.0519 0.621032 24.0492 0.621032 24.0466ZM2.51868 27.7826C2.46881 27.6611 2.42155 27.5422 2.37431 27.4207C2.39531 27.4497 2.41369 27.4788 2.43469 27.5052C2.44781 27.595 2.51081 27.7324 2.56855 27.854C2.5528 27.8328 2.53705 27.8064 2.51868 27.7826ZM3.75751 30.1712C3.44255 29.722 3.17221 29.2174 3.01473 28.7312C2.99636 28.6704 2.97273 28.6096 2.94648 28.5489C3.0016 28.6387 3.0541 28.7285 3.08297 28.8105C3.12497 28.9478 3.26408 29.1407 3.36644 29.3072C3.39006 29.3389 3.42419 29.3627 3.45306 29.3917C3.83889 29.9175 4.18271 30.4698 4.67878 30.9427C4.66828 30.9559 4.65778 30.9691 4.64465 30.985C4.50292 31.0907 4.11972 30.6151 3.75751 30.1712ZM4.83625 26.6439C4.93336 26.6386 4.95961 26.5065 4.91499 26.266C4.94386 26.414 4.97273 26.562 4.99898 26.6888C5.06459 26.9504 4.92286 26.7495 4.83625 26.6439ZM5.05147 29.9228C5.07247 29.9334 5.02785 29.8409 5.08297 29.9017C5.13809 29.9625 5.0961 29.944 5.12235 29.9994C5.1066 29.9836 5.07772 29.9545 5.05147 29.9228ZM6.26933 29.936L6.2877 29.9202C6.30345 29.907 6.36119 29.9862 6.37169 29.9783C6.35594 29.9915 6.28507 29.9228 6.26933 29.936ZM6.80475 30.7445C6.85725 30.7762 6.95961 30.8925 7.0016 30.9084C7.02785 30.9401 6.99899 30.911 7.01211 30.9242C7.02523 30.9374 7.08034 30.9929 7.08034 30.9929L7.04884 30.9691C6.98585 30.9242 6.88612 30.8317 6.80475 30.7445ZM7.06985 34.3141C7.06985 34.3141 7.06985 34.3141 7.04098 34.2824C7.07247 34.3115 7.13809 34.3696 7.16958 34.4013L7.06985 34.3141ZM7.79426 33.9997C7.79688 33.9944 7.789 33.9839 7.789 33.9786C7.66564 33.8412 7.59478 33.7249 7.47667 33.5902L7.43993 33.5664C7.43993 33.5664 7.46092 33.5743 7.44517 33.5611C7.46092 33.5743 7.46092 33.5743 7.47929 33.5902C7.76801 33.8227 7.80738 33.9152 7.79163 33.9786C7.81525 34.005 7.82838 34.0288 7.85725 34.0579C7.82575 34.0288 7.82575 34.0288 7.79426 33.9997ZM9.09347 31.8067C9.16696 31.8358 9.18533 31.8411 9.23783 31.8622C9.21158 31.8648 9.2457 31.9097 9.25095 31.9309C9.19583 31.8833 9.14334 31.8595 9.09347 31.8067ZM10.0383 33.9442L10.0436 33.9363L10.0567 33.9522C10.0383 33.9442 10.0383 33.9442 10.0383 33.9442ZM11.9754 34.0975C12.062 34.1345 12.083 34.1265 12.1407 34.1424C12.0856 34.1265 12.0725 34.1503 11.9754 34.0975ZM12.9229 34.5995C12.9412 34.6074 12.9412 34.6048 12.9412 34.6048V34.6074L12.9229 34.5995C12.9097 34.5969 12.9019 34.5969 12.8887 34.5942C12.8126 34.6312 12.6604 34.5969 12.4898 34.5334C12.4163 34.5149 12.3402 34.4859 12.2457 34.433C12.2352 34.4278 12.2299 34.4304 12.2194 34.4225C12.1512 34.3908 12.1512 34.3908 12.1013 34.367C12.1486 34.3881 12.1985 34.4093 12.2457 34.4304C12.3271 34.4674 12.4111 34.5017 12.4898 34.5308C12.6263 34.5652 12.7418 34.5599 12.8887 34.5916C12.894 34.5889 12.9019 34.5916 12.9071 34.5889C12.915 34.5889 12.9019 34.581 12.9097 34.581C12.8546 34.5202 12.8126 34.4727 12.7575 34.4093C12.7496 34.404 12.7418 34.3987 12.7339 34.3934C12.7496 34.4013 12.7496 34.4013 12.7496 34.4013C12.7418 34.3908 12.7181 34.3723 12.7076 34.3591C12.5239 34.2375 12.3507 34.1133 12.2168 33.9918L12.2116 33.9997C12.0252 33.8835 11.8074 33.7461 11.8074 33.7461C11.8074 33.7461 12.0095 33.8703 12.1643 33.9654C12.1958 33.9839 12.1958 33.9839 12.2142 33.9918C12.4714 34.1292 12.621 34.2587 12.705 34.3591C12.7339 34.3776 12.7523 34.3987 12.7811 34.4172C12.7811 34.4172 12.7811 34.4172 12.747 34.4013C12.7496 34.404 12.7523 34.4066 12.7549 34.4093C12.8782 34.4885 12.999 34.5652 12.9071 34.581C12.915 34.5916 12.9176 34.5942 12.9229 34.5995ZM13.3927 34.6814L13.1906 34.5942C13.2588 34.6206 13.3402 34.6656 13.432 34.6893C13.4294 34.6867 13.4111 34.6841 13.3927 34.6814ZM14.4347 36.0448L14.4373 36.0395V36.0368L14.4347 36.0448ZM15.4268 35.5718C15.4478 35.5613 15.3795 35.5401 15.3822 35.5269C15.3979 35.5428 15.4294 35.5639 15.4819 35.5877C15.4452 35.5771 15.4452 35.5771 15.4268 35.5718ZM16.8021 35.8942V35.8889L16.8389 35.9047L16.8021 35.8942ZM17.7024 36.0236C17.6131 35.9761 17.5082 35.9285 17.4032 35.8889C17.4767 35.8942 17.6236 35.9021 17.7549 35.91C17.8257 35.9497 17.8756 35.9893 17.7024 36.0236ZM19.1355 34.8796C19.1538 34.8928 19.2037 34.9034 19.2746 34.9192C19.2746 34.9192 19.2903 34.9324 19.3244 34.9377V34.943C19.2903 34.9324 19.2746 34.9192 19.2746 34.9192C19.1879 34.9007 19.1538 34.8954 19.104 34.8849C19.1355 34.8849 19.1355 34.8796 19.1355 34.8796ZM19.3192 35.157C19.3375 35.157 19.3375 35.157 19.3375 35.157C19.3192 35.1702 19.2667 35.1834 19.2142 35.194C19.2667 35.1834 19.2824 35.1702 19.3192 35.157ZM22.2641 36.7C22.2614 36.7027 22.2562 36.7053 22.2536 36.7106C22.2457 36.7291 22.2273 36.7476 22.1958 36.7661C22.2116 36.7529 22.2352 36.7291 22.2536 36.7106C22.2588 36.7 22.2614 36.6895 22.2588 36.6789C22.2614 36.7027 22.3218 36.7159 22.3664 36.7318C22.3271 36.7212 22.3034 36.7027 22.2641 36.7ZM23.8074 34.8849C23.7365 34.9086 23.6446 34.9483 23.6341 34.9113C23.6 34.9218 23.6315 34.8981 23.579 34.9086C23.5816 34.906 23.5843 34.9034 23.5869 34.9007C23.6 34.8954 23.6158 34.8901 23.6289 34.8849L23.6368 34.9113L23.7444 34.8981C23.7628 34.8928 23.7837 34.8901 23.8074 34.8849C23.8205 34.8822 23.8336 34.8743 23.8441 34.8716V34.8769C23.8389 34.8769 23.8205 34.8822 23.8074 34.8849ZM27.3743 33.2388C27.1328 33.355 26.9202 33.4422 26.8389 33.3973C26.7207 33.3603 26.9648 33.2229 27.1669 33.0908C27.2536 33.0327 27.3664 32.9481 27.3008 32.9376C27.1591 32.9666 26.9648 33.1172 26.8599 33.104C27.0383 32.964 27.2719 32.8847 27.4609 32.7315C27.4163 32.742 27.3874 32.7473 27.3743 32.7394C27.3664 32.742 27.3585 32.7447 27.3507 32.7473C27.3664 32.7368 27.3664 32.7368 27.3664 32.7368C27.3664 32.7394 27.3717 32.7368 27.3743 32.7394C27.4163 32.7262 27.453 32.7156 27.4609 32.7315C27.4872 32.705 27.5291 32.6786 27.579 32.6601C27.8257 32.565 28.0829 32.3272 28.3428 32.2136C28.7024 32.0339 28.9806 31.7671 29.2772 31.4738L29.2929 31.4632L29.3192 31.4394C29.3061 31.45 29.3061 31.45 29.3061 31.45C29.5239 31.1462 29.2352 31.3945 29.0567 31.5266L28.978 31.59L28.9307 31.6165C28.7864 31.6535 28.5344 31.8886 28.39 31.9203C29.0016 31.4289 29.6315 30.9321 30.1669 30.3535C30.2037 30.3165 30.2431 30.2769 30.2851 30.2372C30.2798 30.2478 30.2746 30.2557 30.2746 30.261C30.2378 30.3324 30.3008 30.2848 30.348 30.2214C30.3848 30.1765 30.4163 30.1263 30.4163 30.1263C30.4137 30.1236 30.4084 30.121 30.4058 30.1183C30.5055 30.0153 30.5895 29.9175 30.5921 29.8409C30.6053 29.7432 30.6578 29.6375 30.7312 29.5238C30.873 29.4552 31.083 29.2464 31.1774 29.2676C31.0961 29.4023 31.0593 29.4763 31.0672 29.5291C30.7654 29.9466 30.684 30.158 30.516 30.4618C30.3533 30.7445 30.3034 30.9427 30.0304 31.2915C29.8835 31.4579 29.7496 31.6217 29.621 31.7856C29.5843 31.812 29.5501 31.8384 29.5134 31.8622C28.8389 32.3721 28.1118 32.816 27.3743 33.2388ZM28.1643 33.0908C28.1801 33.0802 28.243 33.0432 28.243 33.0432C28.2667 33.038 28.2903 33.0221 28.3139 33.0089C28.348 32.9878 28.3822 32.9693 28.4058 32.9666C28.3743 32.9746 28.3454 32.993 28.3139 33.0089C28.2667 33.0406 28.2142 33.0723 28.1643 33.0908Z" fill="#FAAE5D"/>
<path d="M26.2 24.6H11.8C11.3584 24.6 11 24.9584 11 25.4C11 25.8416 11.3584 26.2 11.8 26.2H26.2C26.6416 26.2 27 25.8416 27 25.4C27 24.9584 26.6416 24.6 26.2 24.6ZM11.8 13.4H26.2C26.6416 13.4 27 13.0416 27 12.6C27 12.1584 26.6416 11.8 26.2 11.8H11.8C11.3584 11.8 11 12.1584 11 12.6C11 13.0416 11.3584 13.4 11.8 13.4ZM26.2 18.2H11.8C11.3584 18.2 11 18.5584 11 19C11 19.4416 11.3584 19.8 11.8 19.8H26.2C26.6416 19.8 27 19.4416 27 19C27 18.5584 26.6416 18.2 26.2 18.2Z" fill="white"/>
</svg>
