<svg width="26" height="26" viewBox="0 0 26 26" fill="none" xmlns="http://www.w3.org/2000/svg">
    <path d="M25.8348 13.5057C25.6025 13.8234 20.0682 21.2857 12.9999 21.2857C5.93157 21.2857 0.397009 13.8234 0.164989 13.506C-0.0549962 13.2046 -0.0549962 12.7957 0.164989 12.4943C0.397009 12.1765 5.93157 4.71428 12.9999 4.71428C20.0682 4.71428 25.6025 12.1766 25.8348 12.494C26.055 12.7954 26.055 13.2046 25.8348 13.5057ZM12.9999 6.42855C7.79331 6.42855 3.28388 11.3814 1.94899 13.0006C3.28215 14.6212 7.78214 19.5714 12.9999 19.5714C18.2062 19.5714 22.7153 14.6194 24.0508 12.9994C22.7176 11.3789 18.2176 6.42855 12.9999 6.42855Z" fill="#595888"/>
    <path d="M12.9999 18.1428C10.1641 18.1428 7.85699 15.8357 7.85699 12.9999C7.85699 10.1642 10.1641 7.85706 12.9999 7.85706C15.8356 7.85706 18.1427 10.1642 18.1427 12.9999C18.1427 15.8357 15.8356 18.1428 12.9999 18.1428ZM12.9999 9.57139C11.1093 9.57139 9.57132 11.1094 9.57132 12.9999C9.57132 14.8905 11.1093 16.4285 12.9999 16.4285C14.8904 16.4285 16.4284 14.8905 16.4284 12.9999C16.4284 11.1094 14.8905 9.57139 12.9999 9.57139Z" fill="#595888"/>
</svg>
