<svg width="20" height="20" viewBox="0 0 20 20" fill="none" xmlns="http://www.w3.org/2000/svg">
    <g clip-path="url(#clip0)">
        <path d="M0 13.2889C0.00647863 13.8941 0.495236 14.3832 1.10042 14.3902H18.8996C19.5048 14.3832 19.9935 13.8941 20 13.2889V12.3415H0V13.2889Z" fill="#595888"/>
        <path d="M18.8996 0.634113H1.10042C0.502096 0.634113 0 1.09658 0 1.6949V11.6585H20V1.6949C20 1.09658 19.4979 0.634113 18.8996 0.634113Z" fill="#595888"/>
        <path d="M14.6412 18.3416H12.39V15.0733H7.60954V18.3416H5.61488C5.34544 18.3416 5.12708 18.56 5.12708 18.8294C5.12708 19.0989 5.34544 19.3172 5.61488 19.3172H14.6412C14.9106 19.3172 15.129 19.0989 15.129 18.8294C15.129 18.56 14.9106 18.3416 14.6412 18.3416Z" fill="#595888"/>
    </g>
    <defs>
        <clipPath id="clip0">
            <rect width="20" height="20" fill="white"/>
        </clipPath>
    </defs>
</svg>
