<svg width="20" height="20" viewBox="0 0 20 20" fill="none" xmlns="http://www.w3.org/2000/svg">
    <g clip-path="url(#clip0)">
        <path d="M19.5833 8.33325H0.41668C0.16668 8.33325 0 8.49993 0 8.74993V14.5832C0 15.7499 0.91668 16.6666 2.08332 16.6666H17.9166C19.0833 16.6666 20 15.7499 20 14.5832V8.74993C20 8.49993 19.8333 8.33325 19.5833 8.33325ZM2.91668 11.6666H6.25C6.5 11.6666 6.66668 11.8333 6.66668 12.0833C6.66668 12.3333 6.5 12.5 6.25 12.5H2.91668C2.66668 12.4999 2.5 12.3332 2.5 12.0832C2.5 11.8332 2.66668 11.6666 2.91668 11.6666ZM8.75 14.1666H2.91668C2.66668 14.1666 2.5 13.9999 2.5 13.7499C2.5 13.4999 2.66668 13.3332 2.91668 13.3332H8.75C9 13.3332 9.16668 13.4999 9.16668 13.7499C9.16668 13.9999 9 14.1666 8.75 14.1666ZM15.8333 14.1666C15.5 14.1666 15.25 14.0833 15 13.9166C14.75 14.0833 14.5 14.1666 14.1667 14.1666C13.25 14.1666 12.5 13.4166 12.5 12.4999C12.5 11.5832 13.25 10.8332 14.1667 10.8332C14.5 10.8332 14.75 10.9166 15 11.0832C15.25 10.9166 15.5 10.8332 15.8333 10.8332C16.75 10.8332 17.5 11.5832 17.5 12.4999C17.5 13.4166 16.75 14.1666 15.8333 14.1666Z" fill="#595888"/>
        <path d="M17.9167 3.33325H2.08332C0.91668 3.33325 0 4.24993 0 5.41661V6.24993C0 6.49993 0.16668 6.66661 0.41668 6.66661H19.5834C19.8334 6.66661 20 6.49993 20 6.24993V5.41661C20 4.24993 19.0833 3.33325 17.9167 3.33325Z" fill="#595888"/>
    </g>
    <defs>
        <clipPath id="clip0">
            <rect width="20" height="20" fill="white"/>
        </clipPath>
    </defs>
</svg>
