<svg width="20" height="20" viewBox="0 0 20 20" fill="none" xmlns="http://www.w3.org/2000/svg">
    <path d="M19.4973 0H15.1098C14.8321 0 14.6071 0.225057 14.6071 0.502744V2.41317H12.4498C11.3396 2.41435 10.44 3.31399 10.4388 4.42415V7.61422H8.90309C8.62541 7.61422 8.40035 7.83928 8.40035 8.11697V9.65269H5.39311V7.74226C5.39311 7.46458 5.16806 7.23952 4.89037 7.23952H0.502744C0.225057 7.23952 0 7.46458 0 7.74226V12.5686C0 12.8463 0.225057 13.0714 0.502744 13.0714H4.89037C5.16806 13.0714 5.39311 12.8463 5.39311 12.5686V10.6582H8.40035V12.1939C8.40035 12.4716 8.62541 12.6967 8.90309 12.6967H10.4388V15.8867C10.44 16.9969 11.3396 17.8965 12.4498 17.8977H14.6071V19.8081C14.6071 20.0858 14.8321 20.3109 15.1098 20.3109H19.4973C19.7749 20.3109 20 20.0858 20 19.8081V14.9818C20 14.7041 19.7749 14.479 19.4973 14.479H15.1098C14.8321 14.479 14.6071 14.7041 14.6071 14.9818V16.8922H12.4498C11.8946 16.8916 11.4449 16.4417 11.4443 15.8867V12.6967H12.7605C13.0382 12.6967 13.2632 12.4716 13.2632 12.1939V8.11697C13.2632 7.83928 13.0382 7.61422 12.7605 7.61422H11.4443V4.42415C11.4449 3.86917 11.8946 3.41925 12.4498 3.41866H14.6071V5.32909C14.6071 5.60678 14.8321 5.83184 15.1098 5.83184H19.4973C19.7749 5.83184 20 5.60678 20 5.32909V0.502744C20 0.225057 19.7749 0 19.4973 0Z" fill="#595888"/>
</svg>
