<svg width="38" height="38" fill="none" xmlns="http://www.w3.org/2000/svg"><path fill-rule="evenodd" clip-rule="evenodd" d="M21.289 37.55c.18-.086.863-.12 1.094-.237-1.118.082-1.118.04-1.094.238zM1.38 17.85c-.139.7-.057 1.216-.01 1.652-.055-.486.09-1.207.01-1.651zm17.822 19.682c.04.027.118.045.2.04.08-.005.183-.01.283-.019l-.218-.042c-.139-.013-.262-.016-.265.021zm1.116-.002c-.04.015-.063.026-.103.042l.223.026c0-.018.103-.034.06-.047-.02-.01-.12-.016-.18-.021zm1.8-37.208c.63.14 1.344.302 1.958.436.234.072.49.148.745.228.544.076 1.074.43 1.57.573l-.037-.032.754.341c.236.077.514.27.745.357.407.235.83.438 1.184.679.204.137.352.24.485.285l.948.65c.126.056.325.243.43.29.097.062.174.112.24.14-.137-.192-.379-.364-.6-.525l-1.12-.772c-.33-.237-.643-.467-.976-.565-.258-.137-.496-.267-.735-.394-.397-.16-.874-.462-1.273-.56l-.475-.203c-.29-.12-.57-.264-.806-.278a14.107 14.107 0 01-.3-.097.962.962 0 00-.257-.077l-.236-.066A12.343 12.343 0 0022.121.18c-.2-.03-.315-.021-.323.02-.005.04.123.088.32.122zm7.04 2.606c.005.002.01.008.018.01.066.024.147.09.244.161a15.268 15.268 0 00-.244-.16l-.018-.009v-.002zm6.199 27.061l-.008.013c-.01.016-.016.032-.026.045l.034-.058z" fill="#444242"/><path fill-rule="evenodd" clip-rule="evenodd" d="M37.877 22.078v-.031c.078-.487.15-.978.112-1.501-.018.037-.028.079-.041.121a1.684 1.684 0 00-.006-.306l-.013-.069.008-.09c.005-.407.01-.811.013-1.242-.013-.066-.024-.132-.044-.245a21.15 21.15 0 00-.625-3.517l-.095-.254a30.62 30.62 0 00-.997-2.859l-.14-.203c-.041-.103-.073-.185-.107-.264-.023-.156-.107-.312-.223-.479-.32-.602-.583-1.265-.987-1.688-.556-.69-1.176-1.583-1.842-2.248-.326-.35-.515-.708-.848-1.026-.323-.29-.378-.177-.843-.562-.498-.378-.981-.811-1.52-1.203l-.03.043c-.009-.027-.03-.066.03-.043l-.21-.147-.03.042-.652-.455c-.06-.023-.16-.066-.241-.097l-.076-.037-.047-.043c-.187-.148-.454-.237-.552-.364.124 0 .528.24.565.18-.746-.466-1.213-.648-1.53-.63-.147-.084-.355-.192-.34-.224.122-.1-.206-.211-.632-.357-.346-.113-.449-.082-.438.003a8.02 8.02 0 00-.233-.098.965.965 0 00-.255-.103l.034.03a1.898 1.898 0 00-.252-.11c-.3-.105-.772-.226-.614-.303.126-.053-.068-.14-.417-.248-.29-.082-.567-.212-.882-.18.349.11.753.312.622.386-.15-.027-.323-.072-.499-.114-.1-.095-.178-.188-.339-.285-.036-.05-.078-.093-.246-.135-.021-.116-.105-.235-.289-.349.165.01.344.03.52.048a5.447 5.447 0 011.535.489c.291.153.667.264 1.013.32.48.205.937.398 1.418.604 1.18.547 2.294 1.181 3.33 1.815l-.02-.01c.6.375 1.12.925 1.703 1.363.225.146.493.412.753.685.081.076.178.169.273.261.184.164.375.38.554.579.556.69 1.089 1.292 1.556 1.947l-.042-.103.024.037.018.066c.152.225.32.51.462.634l.079.111.065.116c.229.415.42.89.665 1.197.057.098.073.114.125.217.126.285.263.57.384.787.026.064.029.064.042.059.02.015.02-.008.008-.077-.155-.69-.468-1.382-.945-2.124-.121-.193-.292-.46-.423-.672-.822-1.516-1.874-2.602-3.023-3.537-.158-.159-.287-.283-.413-.347-.154-.129-.312-.256-.422-.298l-.396-.322c-.221-.19-.42-.365-.64-.553-.927-.808-2.004-1.419-3.111-1.918-.499-.238-1.05-.404-1.578-.684-.388-.22-.902-.428-.735-.17.027.059-.312-.042-.522-.108-.399-.113-.855-.277-1.286-.367a.558.558 0 01-.17-.042.803.803 0 00-.3-.064.542.542 0 01-.194-.04c-.373-.12-.75-.226-1.134-.308a3.03 3.03 0 00-.493-.106C20.782.21 20.71.174 20.509.15a1.899 1.899 0 00-.275-.043l-.069.01-.023.004.089-.014c-.045-.042-.14-.066-.368-.068L19.84.032v.005c-.024-.03-.116-.04-.278-.042a.5.5 0 01-.184.01c-.428.032-.856.095-1.28.17a3.605 3.605 0 00-.736.02 19.2 19.2 0 00-3.05.442l.003.008.003.008-.006-.019c-.454-.005-1.028.251-1.543.367-.231.008-.525.109-.772.204a3.237 3.237 0 00-.595.18c-.27.1-.163.132-.32.21a.886.886 0 00-.263.175c-.071.056-.412.209-.326.243.04.03.113.035.287-.008.073.053.275.027.57-.055l.054-.034.003.005a.197.197 0 00-.058.029l.62.106c.026.071.11.113.378.058-.145.09-.29.182-.42.282-.392.228-.92.41-1.137.706-.53.388-1.157.764-1.58 1.215l.034-.026c-.25.267-.659.513-.835.76l-.002-.002c-.11.116-.307.264-.415.412l-.037.059-.068.058-.727.716c-.32.256-.643.53-.892.9-.334.455-.977 1.166-1.341 1.74-.368.61-.935 1.196-1.134 1.838l.029-.026c-.016.037-.019.034-.019.034l-.01-.008a17.117 17.117 0 00-1.006 2.043 6.77 6.77 0 00-.504 1.387c-.036.121-.076.243-.11.364-.328.933-.596 1.932-.69 2.965-.066.536-.126 1.015-.032 1.456.014.08.008.121-.01.158-.042.12-.055.28-.058.481-.11.484.008 1.002.034 1.498l.013.019h.003-.003c-.002 0-.01-.003-.013-.019-.042.206-.013.529.045.804h.005c-.029.187.071.536.082.782.02.058.026.116.02.158-.023.109 0 .288.05.505.037.322.119.658.263.89.047.235.108.457.212.648.084.282.163.541.245.803.165.396.294.948.506 1.302l.192.481c.12.29.218.592.372.77.053.1.103.2.145.282.034.084.073.164.128.238l.121.214c.347.71.74 1.368 1.197 1.987.12.163.207.24.241.216.035-.024-.023-.15-.139-.314l-1.076-1.702-.367-.69c-.33-.44-.457-1.07-.709-1.524l.003.048c-.103-.272-.19-.505-.294-.777-.113-.222-.176-.555-.276-.782a14.999 14.999 0 00-.105-.367c.01.02.021.044.034.063l-.005.003c.029.052.047.087.079.14a3.882 3.882 0 01-.032-.151v.01-.018c0 .003 0 .005.003.008.008-.05-.013-.137-.016-.214.013-.111-.034-.301-.084-.494l-.01.003H2.24l.016-.006a.771.771 0 00-.013-.164c.147.574.33 1.14.54 1.689.187.523.46 1.033.636 1.606.12.434.339.946.402.642.023-.058.189.251.29.447.203.364.41.806.652 1.176a.577.577 0 01.092.15.795.795 0 00.168.26.52.52 0 01.107.166c.53 1.046 1.184 2.037 2.179 2.827.13.119.286.277.38.399.155.253.43.512.69.718a19.279 19.279 0 002.465 1.858l.005-.008.006-.008-.01.016c.314.328.902.555 1.35.837.169.159.447.296.691.405.126.095.326.195.546.298.262.122.207.021.375.08a.87.87 0 00.308.063c.089.01.438.145.401.06-.005-.047-.055-.105-.207-.197-.016-.088-.176-.214-.441-.368l-.063-.016.002-.005c.021.008.042.019.06.019-.115-.167-.246-.352-.361-.516.036-.082-.008-.193-.373-.401-.034-.074-.11-.161-.142-.24.265.124.556.24.811.33.276.095.436.087.457.034.065-.058-.242-.172-.425-.267-.22-.11-.391-.235-.402-.301-.026-.09.294.047.454.082.557.137 1.263.502 1.895.586.294.066.667.243.924.21l-.018-.014.02.005-.002.008c.433.09.877.227 1.247.22-.04-.016-.076-.027-.095-.04l.021.005.074.037c.393.063.871.15 1.197.103l-.04-.013.04.005v.008c.635.03 1.29.204 1.994.069.554-.085 1.51-.13 2.17-.275.691-.17 1.502-.18 2.095-.494l-.039-.003c.037-.015.037-.01.037-.01l.002.013a16.69 16.69 0 003.811-1.532 12.645 12.645 0 002.279-1.382h.002c.03.031.103.016.247-.093l.07-.087.003.003-.073.084a.668.668 0 00.247-.053c-.181.143-.378.328-.557.418l.016-.014c-.194.109-.465.32-.654.397-.43.145-.873.565-1.349.785l-.393.195c-.265.087-.596.325-.885.407l-.367.15c-.48.23-.953.452-1.46.56l-.073.032-.058.014c-1.496.367-2.588.766-3.743 1.038 2.195-.23 4.328-.893 6.292-1.855l.43-.219c.362-.09.754-.343 1.12-.597l.6-.378c.199-.1.438-.285.632-.402a1.77 1.77 0 01.181-.13c.194-.081.407-.274.627-.454.066-.05.147-.11.194-.15.084-.056.197-.114.263-.164.095-.093.186-.182.278-.275.058-.02.137-.076.265-.203l.021-.013-.002-.003c.036.005.107-.056.225-.17a.532.532 0 01.124-.137c.609-.716 1.136-1.524 1.624-2.325a7.36 7.36 0 00.497-.877c.139-.185.265-.388.338-.586.06-.085.12-.164.186-.24.378-.99.793-2.009.94-2.97.118-.44.362-.944.31-1.309.102-.652.283-1.363.262-1.984l-.002.066zm-3.53-13.943l-.011.008s.005-.002 0-.024l.01.016zM11.372 1.673c-.006-.014-.032-.022.026-.053.018-.016.06-.024.079-.04-.053.045-.113.08-.105.093zm2.28 35.92c-.005.013.008.037-.055.016-.023 0-.06-.026-.084-.03.069.011.134.03.14.014zM36.74 18.736h-.008v-.043l.008.043zm-.115 2.507c.023-.399.057-.8-.006-1.16.077.32.032.74.006 1.16zm.029-7.57c-.019-.018-.058-.121-.082-.134l-.037-.151c.045.103.095.227.119.285zm-.15 2.307l.008-.003c-.005.024-.013.087-.03.05 0 0 .014-.023.022-.047zm-.357 3.778h.005l-.005.021v-.02zm-.415-1.424c.005.08.032.12.021.18-.01.161-.04-.016-.063-.098.019-.003.037-.003.042-.082zm-.246 2.811h.013l-.008.04c-.008.021-.005-.04-.005-.04zM31.7 30.972a4.72 4.72 0 01.092-.17c.018-.271.362-.755.622-1.31-.105.402-.378.864-.622 1.31-.003.024-.016.056-.014.075a.643.643 0 01-.078.095zm-23.292-.275c-.02-.013-.047-.042-.068-.05l-.002.002-.01-.013c-.043-.042-.03-.026-.043-.042l.003-.003s.015.014.04.043l.015.01.034.021c.01.014.02.021.031.032zm-3.183-.951l-.024-.03c.034.022.047.011.04-.028l-.011-.016.013.016c-.168-.325-.312-.759-.17-.716.17.245.351.602.561.848.095.14.202.298.31.454.165.407.197.486.113.608-.103-.177-.25-.357-.407-.573-.068-.199-.25-.402-.412-.619.01.037 0 .045-.013.056zm.501-5.937l.016-.003v.04l-.016-.037zm-.239 1.094c-.031-.03-.052-.037-.07-.04a.545.545 0 01-.093.251c.021-.106.016-.264.092-.251.01-.066.024-.135.021-.222.034.108.01.156.05.262zm-.58 3.22s-.01-.018-.018-.037c.05.093.131.215.189.278l-.013.008a5.015 5.015 0 01-.158-.248zm-.286-1.725c-.042-.071-.063-.105-.073-.124l-.035-.098c.03.058.074.148.108.222zm-.567-2.37c-.016.003-.042-.032-.068-.087l-.008-.04c.021.058.055.132.076.127zm-1.648-1.516c-.013-.019-.026-.072-.026-.072h.005c.008.053.013.053.02.072zm.472 1.749c-.034.01-.015.124.024.272-.04-.087-.084-.175-.095-.294.008-.058.045-.01.071.022zm.869-1.018a1.11 1.11 0 01-.12-.372c.041.158.08.275.12.372zm.134.975c-.01-.124-.026-.224.018-.235-.036.008-.031.111-.018.235zm-1.72-5.738l-.002.037h-.008v-.019l.003-.018h.008zm-.11.742v.018c-.002.006-.002.014-.005.022-.013.1-.02.182-.031.27l-.006.076v-.04c.003-.013.003-.026.006-.04.005-.105.013-.192.031-.27a.156.156 0 00.005-.036zm-.301 2.906c.015.003.031-.005.044-.02l.016.158c-.016-.053-.04-.095-.06-.138-.048-.005-.1-.087-.15-.171a.59.59 0 01.15.171zm2.354 4.976c.04.097.063.155.094.235.03.103.074.2.108.253l-.003-.044c.035.1.066.18.103.256.136.288.388.71.22.652-.047-.018-.065-.005-.063.037-.05-.1-.102-.2-.147-.293l-.002.003c0-.138-.19-.38-.279-.595a2.409 2.409 0 00-.165-.536c.06.069.105.071.134.032zM8.732 6.605l.006-.007c0 .002-.003.005-.006.007zm12.3-3.817l-.003.023c-.003.021-.097.006-.1.019.003-.021.1-.021.103-.042zm-1.203-.167c-.039-.005 0-.003-.018-.005h-.097l.04-.006c.078-.015.212-.018.33-.015-.06.018-.213.008-.255.026zm.255.182c0 .003-.021.006-.06 0l-.019.003-.04.01c-.015 0-.028.003-.041.003.024-.005.066-.002.084-.01v-.006l.018.003.058-.003zm12.953 23.434a.212.212 0 01.055-.098l.01.006c-.02.031-.07.15-.065.092zm.042.127l-.016.029.003-.035c-.006.006-.01.014-.016.019v-.013c.005.002.013-.008.02-.021l-.007.013.016.008zm1.863-5.35l-.02.15c0-.077-.014-.077-.016-.098.015-.055.026-.034.036-.053zm-.354-9.198c.005.008.002.005.01.024l-.01-.019v-.005a.4.4 0 01-.024-.05l-.013-.061a.51.51 0 00.037.11zm-.081-1.794l.007.013-.008-.013-.002-.003-.01-.018s.007.008.013.02zm-.252-.227l-.008.005-.01-.019c.015.016.018.014.018.014zm-5.452-4.849a2.873 2.873 0 00-.346-.177c.081.027.18.06.346.177zm-1.09-.518c.022 0 .048.006.085.019l.034.024a.587.587 0 00-.118-.043zm.119-.076c.018-.03-.055-.098-.152-.177.094.079.173.14.152.177zm-2.07-1.155c.036.019.073.034.091.045a10.733 10.733 0 00-.231-.08l.14.035zm-1.838-1.12c.081.018.163.037.286.063a1.828 1.828 0 00-.289-.05l.003-.013zM20.475.159c-.018.005-.029.01-.06.015V.166l.06-.007zm-3.084.103l.042.002c-.042.003-.131.006-.176.008l.134-.01zM4.974 9.295c0 .019-.003.045-.003.069v.003a.134.134 0 01.003-.072zm-.026.109c0 .002-.003.002-.003.005-.021.008-.047.024-.071.034.029-.018.053-.026.074-.04zM1.53 20.638c-.008.027-.016.05-.034.03l-.003-.04c.019.042.03.031.037.01zm.428 3.403c0 .003.003.003.003.006h-.003v-.006zm1.898 3.736c-.05-.121-.097-.24-.145-.362.021.03.04.059.06.085.014.09.077.227.135.349-.016-.021-.032-.048-.05-.072zm1.238 2.389a5.604 5.604 0 01-.742-1.44 1.713 1.713 0 00-.069-.182c.056.09.108.18.137.261.042.138.181.33.283.497.024.032.058.055.087.085.386.525.73 1.078 1.226 1.55l-.034.043c-.142.105-.525-.37-.888-.814zm1.08-3.527c.096-.006.123-.138.078-.378l.084.422c.066.262-.076.061-.163-.044zm.214 3.279c.021.01-.023-.082.032-.022.055.061.013.043.04.098a1.54 1.54 0 01-.072-.076zm1.218.013l.019-.016c.015-.013.073.066.084.058-.016.013-.087-.055-.103-.042zm.536.808c.052.032.155.148.197.164.026.032-.003.003.01.016l.068.069-.031-.024a1.946 1.946 0 01-.244-.225zm.265 3.57l-.029-.032c.031.03.097.087.129.12l-.1-.088zm.724-.315c.003-.005-.005-.015-.005-.02-.123-.138-.194-.254-.312-.39l-.037-.023s.02.008.005-.005l.034.029c.289.232.328.325.313.388.023.027.036.05.065.08l-.063-.059zm1.3-2.193c.073.03.091.035.144.056-.026.003.008.047.013.069-.055-.048-.108-.072-.158-.125zm.944 2.138l.006-.008.013.016-.019-.008zm1.937.153c.087.037.108.03.166.045-.055-.016-.069.008-.166-.045zm.948.502c.018.008.018.005.018.005v.003l-.018-.008c-.013-.002-.021-.002-.034-.005-.076.037-.229.003-.4-.06a.975.975 0 01-.243-.101c-.01-.005-.016-.003-.027-.01l-.118-.056.145.063c.081.037.165.072.244.1.136.035.252.03.399.061.005-.002.013 0 .018-.002.008 0-.005-.008.003-.008a9.798 9.798 0 01-.152-.172l-.024-.016.016.008c-.008-.01-.032-.029-.042-.042a4.194 4.194 0 01-.491-.367l-.005.007a109.54 109.54 0 01-.405-.253l.357.22a.312.312 0 00.05.026c.257.137.407.266.491.367.029.018.047.04.076.058l-.034-.016.008.008c.123.08.244.156.152.172.008.01.01.013.016.018zm.47.082l-.202-.087c.068.026.15.071.241.095-.003-.003-.021-.005-.04-.008zm1.042 1.363l.002-.005v-.002l-.002.008zm.992-.473c.02-.01-.047-.031-.045-.044a.352.352 0 00.1.06l-.055-.016zm1.375.323v-.005l.037.016-.037-.011zm.9.13a2.615 2.615 0 00-.299-.135l.352.02c.07.04.12.08-.053.114zm1.433-1.145c.019.014.069.024.14.04 0 0 .015.013.05.018v.006a.155.155 0 01-.05-.024c-.087-.019-.121-.024-.171-.034.031 0 .031-.006.031-.006zm.184.278h.018a.435.435 0 01-.123.037c.053-.01.068-.024.105-.037zm2.945 1.543c-.003.002-.008.005-.01.01-.008.019-.027.037-.058.056a.738.738 0 00.057-.056.043.043 0 00.006-.031c.002.023.063.037.107.053-.039-.011-.063-.03-.102-.032zm1.543-1.815c-.07.023-.162.063-.173.026-.034.01-.003-.013-.055-.003a.592.592 0 01.008-.008l.042-.015.008.026.107-.013c.019-.005.04-.008.063-.013.014-.003.027-.011.037-.014v.006c-.005 0-.024.005-.037.008zm3.567-1.647c-.241.117-.454.204-.535.159-.118-.037.126-.174.328-.306.086-.059.2-.143.134-.154-.142.03-.336.18-.441.167.178-.14.412-.22.6-.373-.044.01-.073.016-.086.008a2.193 2.193 0 01-.023.008l.015-.01c0 .002.006 0 .008.002.042-.013.079-.024.087-.008a.333.333 0 01.118-.071c.247-.095.504-.333.764-.447.36-.18.638-.446.934-.74l.016-.01.026-.024-.013.01c.218-.303-.07-.055-.25.077l-.078.064-.047.026c-.145.037-.397.272-.541.304.612-.491 1.241-.988 1.777-1.567l.118-.116c-.005.01-.01.018-.01.024-.037.071.026.023.073-.04.037-.045.068-.095.068-.095-.002-.003-.008-.005-.01-.008.1-.103.184-.2.186-.277a.82.82 0 01.14-.317c.141-.07.35-.278.445-.257-.08.135-.118.209-.11.262-.302.417-.383.629-.551.932-.163.283-.213.481-.486.83-.147.167-.28.33-.409.494-.037.027-.07.053-.108.077-.674.51-1.401.954-2.139 1.377zm.79-.147c.016-.011.079-.048.079-.048.024-.005.047-.021.07-.034a.274.274 0 01.093-.043c-.032.008-.06.027-.092.043a.755.755 0 01-.15.082z" fill="#fff"/><path fill-rule="evenodd" clip-rule="evenodd" d="M6.005 7.14c-.065.19-.525.7-.606.948.73-.856.761-.827.606-.949z" fill="#444242"/><path fill-rule="evenodd" clip-rule="evenodd" d="M1.38 16.96c.06-.216.103-.557.182-.745.202-.41.223-1.022.401-1.514.04-.113.09-.267.142-.417.126-.251.194-.653.341-.917.06-.148.108-.26.155-.37.179-.505.357-.999.638-1.435l.029-.074.031-.05c.467-.774.83-1.456 1.173-2.093l.297-.443c.092-.156.165-.299.137-.317 0-.006-.003-.006-.006-.008.103-.18.208-.36.318-.537-1.242 1.54-2.205 3.292-2.903 5.126-.013-.063-.076.058-.126.206-.113.36-.257.727-.344 1.08-.139.305-.226.688-.296 1.06-.056.238-.103.455-.158.695-.07.214-.11.515-.165.735-.01.1-.021.16-.037.22-.079.195-.095.483-.123.765l-.032.246c-.02.1-.06.222-.068.301l-.008.901a.28.28 0 00.013.061c.013.021.021.021.037-.04a.885.885 0 00.058-.245H1.06c.042-.14.034-.365.063-.547 0-.064 0-.122.01-.183.061-.14.077-.3.098-.52-.018.071-.037.13-.055.18l-.024.079.003-.021a.3.3 0 00.02-.058l.056-.18c.087-.235.063-.687.155-.96l-.005.02z" fill="#fff"/><path fill-rule="evenodd" clip-rule="evenodd" d="M33.919 6.896c-.394-.594-.811-.9-1.153-1.173.381.304.785.917 1.153 1.173zm2.013 2.894l.386.731c.068.12.141.262.189.317.11.125.068-.031-.016-.198-.252-.491-.467-1.036-.795-1.406-.037-.058-.077-.113-.127-.192-.105-.151-.215-.302-.254-.278-.055-.018.045.135.118.254.176.272.339.573.499.771zM7.493 5.665a.355.355 0 00-.17.114c-.055.06-.124.14-.19.214.085-.056.135-.093.185-.127.11-.085.196-.172.175-.201zm-.787.798c.016-.04.026-.061.045-.103l-.179.14c.013.013-.05.098-.01.076.02-.007.097-.074.144-.113zM36.46 28.237c-.043.056-.053-.053-.127.17-.013.044-.015.094-.005.1.034-.035.084-.111.137-.19.036-.085.05-.154-.006-.08zm1.474-12.276c.058.037.003-.206-.018-.343l-.163-.809c-.068-.147-.105-.137-.102.024l.157.803c.045.178.092.33.126.325zM29.388 4.196l.08.076-.04-.06-.04-.016z" fill="#444242"/><path d="M28.173 13.037c-.443.124-.79.103-.79.103l.013-.085c.412-.333 1.45-1.35 1.588-1.826.06-.206-.01-.277-.01-.282l-1.326.568-1.11.504c-.766-.816-1.927-1.337-3.223-1.337-2.307 0-4.178 1.646-4.178 3.676 0 .37.055 1.049.17 1.387 0 .106.005-.106 0 0-1.485-.042-3.388-.655-5.086-1.52-3.344-1.706-3.554-2.887-3.554-2.887-.525.56-.796 2.42-.265 3.878.34.933 1.511 1.77 1.511 1.77s-.525.011-1.073-.176c-.549-.188-.756-.373-.756-.373-.325.8.328 2.233 1.46 3.258.658.6 1.863.975 1.863.975l-1.882.053c-.105 1.841 3.837 2.935 3.837 2.935-1.155.896-2.496 1.44-3.934 1.44-.746 0-1.465-.11-2.147-.317 1.897 1.575 4.338 2.663 6.992 2.523 7.04-.372 11.016-6.465 11.205-12.447l.007.013s.331-.166 1.035-.874a7.337 7.337 0 001.144-1.54s-1.05.459-1.49.58z" fill="#FAAE5D"/></svg>