<svg width="102" height="27" fill="none" xmlns="http://www.w3.org/2000/svg"><path d="M4.59 15.73c.1.03.2.09.3.09 1.84-.01 3.67.09 5.51.22.32.02.65-.03.98-.04.43-.02.89-.12 1.3-.03 1.14.24 2.27.07 3.4 0 1.63-.1 3.25.03 4.86.2.16.02.32.04.48.04 2.5.08 4.99.03 7.48-.17 1.19-.09 2.37-.31 3.57-.06.26.05.54-.01.81-.04 1.9-.2 3.79 0 5.67.15.86.07 1.72.03 2.59.15 1.17.16 2.38.1 3.57.17 1.13.06 2.26.19 3.39.25 1.19.06 2.38.09 3.56.13.65.02 1.3.05 1.95.07.32.01.65.03.97.02 1.14-.01 2.27-.19 3.41.03.36.07.76-.03 1.14-.05 1.63-.12 3.25-.26 4.88-.37.97-.06 1.95-.21 2.92.05.2.05.43-.01.65-.01 1.62.01 3.25.01 4.87.03.2 0 .4.13.54.18.08.17.16.27.16.36.09 1.85.63 3.62 1.04 5.41.1.45-.01.95-.02 1.57.22.49.51 1.13.82 1.8.3.08.61.17.93.25.18-.18.33-.32.51-.49-.08-.33-.16-.63-.26-1.02.21-.18.45-.39.65-.56.38-.05.7-.09 1.02-.13.13-.27.24-.51.37-.79 1.38-1.05 3.04-1.58 4.66-2.16 1.23-.44 2.42-.92 3.56-1.55.9-.49 1.87-.86 2.83-1.22 1.16-.44 2.32-.85 3.43-1.43.95-.5 1.93-.98 2.89-1.47.14-.07.29-.2.44-.21 1.03-.06 1.81-.7 2.69-1.17.5.14 1.02.28 1.59.43.14-.13.29-.27.5-.46-.22-.23-.39-.42-.6-.64v-.78c-.58-.36-1.1-.85-1.84-.95-1.6-1-3.51-1.08-5.22-1.75-1.06-.41-2.15-.72-3.3-1.1-.12.05-.32.12-.6.23-.39-.39-.9-.65-1.47-.8-.99-.26-1.99-.53-2.96-.86-.56-.18-1.06-.57-1.62-.69-.55-.12-1.01-.37-1.5-.59-1.04-.46-2.08-.91-3.29-1.43-.05-.05-.25-.24-.43-.42-.17.05-.32.09-.55.16-1.27-.51-2.39-1.39-3.61-2.08C73.03 1.54 71.8.94 70.89 0c-.37-.08-.62-.06-.77.24-.03.45.42.6.56.86.15.64.29 1.22.42 1.79.07.32.14.63.17.95.03.38.17.72.27 1.08.2.66.25 1.37.3 2.07.01.18-.16.38-.26.59-.39-.04-.75-.08-1.16-.12-.1.34-.18.64-.25.89-1.21.03-2.4.07-3.59.07-1.3.01-2.6.01-3.9-.04-.26-.01-.5-.05-.77.02-.36.1-.76.17-1.13.12-1.08-.14-2.17-.06-3.25-.08-1.18-.01-2.37-.16-3.55-.23-.43-.02-.87.01-1.38.01-.4-.27-.84-.56-1.26-.84-.5.25.11.48-.13.74-.52.3-1.08-.21-1.61.04-.39-.31-.73-.57-1.14-.89-.1.31-.17.54-.25.78-1.1-.19-2.28.18-3.29-.46-.64.36-1.3.29-1.94.27-.54-.02-1.08-.07-1.62-.08-.49-.01-1.04.17-1.45 0-.57-.25-1.04.12-1.56.03-.47-.09-.97 0-1.46.02-.54.02-1.09.03-1.63.06-.49.02-.98.13-1.46.08-2.23-.22-4.45.17-6.67.15-1.68-.01-3.37.13-5.04.06-1.42-.06-2.82.06-4.23.13-.92.05-1.85.12-2.77.15-.85.02-1.7 0-2.55 0-.49 0-.98 0-1.53.01-.23-.13-.51-.29-.8-.46-.16.13-.33.25-.53.41-.92-.1-1.93.12-2.72-.58-.38.13-.69.23-1 .34-1.16-.23-2.32-.47-3.47-.7-1.33.53-1.33.53-1.78 1.47 1.18 1.87 2.95 3.32 3.79 5.08.3.79-.39 1.23.09 1.7zM2.77 8.71h-.1l.09-.05.01.05zm1.56 2.61c-.54-.27-.91-.6-1.36-1.06.23-.1.35-.19.4-.16.57.33.63.42.96 1.22zm92.27 2.02c.32-.34.48-.25.61-.03-.17.01-.35.02-.61.03zM31.97 8.98c-.27.24-.52.24-.9.07.36-.03.6-.04.9-.07zm21.29 4.64c.06.07.05.2.08.39-.47.06-.94.12-1.36.17-.76-.54-1.34-.93-1.9-1.35-.22-.16-.41-.36-.59-.55-.45-.46-.9-.93-1.34-1.41-.14-.15-.3-.31-.07-.64.3-.03.66-.08 1.03-.09.37-.01.74.03 1.16.05 1.01 1.15 2.01 2.29 2.99 3.43zm.86 1.38c-.38-.01-.62-.01-1.08-.02.67-.21.67-.21 1.08.02zM57 13.96c-.94.39-1.75.36-2.45-.31-.87-.82-1.72-1.64-2.54-2.51-.18-.19-.49-.42-.3-.88.67-.02 1.37-.05 2.13-.07.99 1.43 2.3 2.37 3.16 3.77zm4.53-3.63c.03.06.07.11.1.17-.09 0-.22.03-.1-.17zm10.78-7.5c-.13-.17-.23-.3-.36-.49.53.05.53.05.36.49zm3.77 3.05c-1.05-.33-1.54-.84-2.09-1.57.62.06 1.03.26 1.5.54.13.23.29.5.59 1.03zm5 2.25c-1.54-.32-2.87-.96-3.85-2.15-.03-.04.02-.16.05-.32.89.38 1.77.75 2.72 1.16.33.41.71.86 1.08 1.31zm2.69.97c-.6.04-1.08-.23-1.49-.65-.08-.08-.06-.26-.11-.57.58.54 1.24.68 1.6 1.22zm.31.15l-.09.09c-.03-.05-.05-.1-.08-.15.05.02.11.04.17.06zm1.16 1.38c-.08-.03-.16-.06-.25-.09.2-.15.23-.04.25.09zm6.16 2.57c.32-.06.57-.07.8-.16.29-.1.56-.26.8-.38.64.16 1.11.49 1.63 1-.56.4-.99.71-1.65.63-.43-.35-1.12-.43-1.58-1.09zm-.71 1.66c-.96-.79-1.88-1.53-2.78-2.3-.46-.38-.91-.74-1.56-.68-.22-.26-.43-.52-.65-.78-.12-.14-.26-.28-.38-.42.08-.03.17-.06.25-.04 1.02.15 2.03.47 2.84 1.07 1.08.79 2.17 1.6 3.01 2.68.05.06.01.19.01.38-.25.02-.5.05-.74.09zM88.24 16c-.83-.79-1.65-1.58-2.46-2.36-.82-.78-1.61-1.6-2.46-2.34-.83-.73-1.73-1.38-2.61-2.06 1.01.01 1.93.27 2.73.67.77.61 1.47 1.21 2.21 1.76.19.14.46.18.71.26.52.81 1.25 1.41 1.96 2.05.51.46 1.13.82 1.52 1.47-.42.57-.98.63-1.6.55zm-2.63.45c-1.09-1.05-2.21-2.07-3.2-3.22-1.1-1.28-2.36-2.39-3.46-3.67-.1-.12-.25-.2-.37-.31-.44-.4-.88-.79-1.31-1.2-.05-.04 0-.18.01-.34.75 0 1.32.38 1.85.84 1.44 1.24 2.95 2.42 4.31 3.75 1.32 1.29 2.49 2.72 3.72 4.1.05.05 0 .18 0 .3-.18.1-.37.2-.59.32-.32-.18-.7-.31-.96-.57zm-2.33 1.48c-1.22-1.31-2.37-2.73-3.51-4.17-1-1.27-2.03-2.53-3.06-3.78a.68.68 0 00-.68-.25c-.08-.55-.41-.93-.83-1.27-.25-.2-.43-.47-.61-.67-.11-.49-.2-.91-.28-1.33-.01-.03.07-.07.17-.16.4.1.71.39 1.02.69.38.38.78.74 1.15 1.13 1.17 1.2 2.48 2.27 3.55 3.57.93 1.13 1.91 2.22 2.86 3.33.66.78 1.32 1.57 2.04 2.44-.63.17-1.1.59-1.82.47zm-2.69.61c-.15-.11-.31-.18-.41-.3-.98-1.09-1.96-2.18-2.91-3.29-.95-1.11-1.88-2.24-2.8-3.38-.33-.42-.7-.84-.7-1.48.28-.12.57-.24.83-.35.09-.31.18-.58.28-.91.43.34.78.62 1.13.9.32.43.6.89.95 1.29 1.53 1.77 2.96 3.6 4.2 5.59.34.54.69 1.07 1.05 1.62-.56.41-1.09.35-1.62.31zm-2.41 2.86c.5-.87 1.11-1.32 2.13-1.11-.71.87-1.16 1.11-2.13 1.11zm-2.07.99c.22-.32.42-.61.67-.96.22.22.39.4.63.65-.37.4-.64.64-1.09.65-.06-.1-.13-.21-.21-.34zm1.13-2.4c-.02-.12-.03-.24-.05-.36.04 0 .08-.01.12-.01l.03.36c-.03 0-.07 0-.1.01zm-1.32-.15c-.01-.03.04-.08.06-.13.03.12.07.24.21.71-.2-.42-.24-.5-.27-.58zm-2.98-4.46v-.5c.24.06.38.1.53.14-.03.18-.06.32-.09.49-.17-.06-.31-.1-.44-.13zm-1.05-3.44c-.39-.57-1.1-.87-1.39-1.62.61-.26 1.2-.24 1.88-.31.3.32.54.54.74.79.82 1.01 1.61 2.04 2.44 3.04.75.92 1.52 1.83 2.29 2.74.63.74 1.08 1.59 1.55 2.35-.16.44-.43.41-.73.37-1.03-.62-1.75-1.57-2.41-2.57-.15-1.05-.97-1.79-1.22-2.68-.61-.47-1.23-.61-1.88-.62-.45-.5-.91-.96-1.27-1.49zm-.36 1.99c-1.27-1.11-2.82-2.74-3.27-3.43.44-.24.9-.29 1.5-.17.93 1.1 1.98 2.21 2.93 3.61-.51 0-.87 0-1.16-.01zm-1.61 1.27c.44-.03.78-.06 1.11-.09.06.16.09.26.14.38-.46.26-.86.28-1.25-.29zm-1.86.23c.04-.03.08-.09.12-.09.1 0 .19.04.29.06-.02.03-.04.09-.07.1-.09.02-.19.02-.28.01-.03 0-.05-.05-.06-.08zm-3.08-4.74c.77-.27 1.41-.23 2.23-.18.96 1.08 2 2.03 2.69 3.27.04.06-.01.17-.02.28-.17.02-.32.05-.54.08-1.58-.89-2.68-2.43-4.36-3.45zm-3.2.26c-.09-.08-.07-.27-.09-.42.68-.15 1.36-.2 2.08-.11 1.24 1.01 2.36 2.14 3.42 3.38-.8.31-.8.31-2.02.26-1.09-.99-2.25-2.04-3.39-3.11zm-.17 2.97c-.91-1.05-1.83-2.1-2.74-3.17-.05-.05-.01-.18-.01-.31.37-.03.74-.06 1.08-.08 1.29.99 2.26 2.24 3.38 3.33.05.05.02.17.03.32-.57.14-1.14.16-1.74-.09zm-1.12.17c-.79.2-1.52.3-2.19-.08-1.24-1.09-2.18-2.39-3.33-3.53 1.42-.32 1.42-.32 2.66-.04.77 1.29 2.17 2.16 2.86 3.65zm-8.68 1.94c.99-.15 1.92-.32 2.92-.16.89.14 1.83-.11 2.75-.1.95.01 1.89.12 2.84.19-.68.31-1.4.41-2.07.31-.98-.15-1.95-.08-2.91-.02-1.21.08-2.37-.2-3.53-.22zm-2.22-1.19c.56-.11 1.06-.31 1.7.33-.6.05-.96.07-1.32.1-.13-.14-.23-.25-.38-.43zm-4.84-4.52c.71-.24 1.37-.19 2.1.16 1.02 1.08 2.1 2.22 3.16 3.36.06.07.06.2.1.33-.43.27-.9.22-1.36.18-1.49-1.1-3.36-2.97-4-4.03zm1.11 4.88c.8-.26 1.37-.22 1.94-.16-.55.15-1.1.28-1.94.16zm-4.13-4.72c.67-.22 1.31-.21 1.92-.15 1.13 1.22 2.23 2.42 3.32 3.61.05.06.04.17.06.28-.2.1-.39.2-.56.28-.4-.06-.77-.12-1.15-.18-1.36-1.09-2.49-2.41-3.59-3.84zm2.4 4.84c.02-.03.04-.09.06-.1.1-.02.2-.02.29-.02.02 0 .04.06.06.09-.04.03-.08.09-.12.09-.1 0-.2-.04-.29-.06zm-1.87-.25c.15-.03.3-.09.46-.09.16-.01.32.03.48.05 0 .05-.01.09-.01.14-.31.02-.61.05-.92.07 0-.06-.01-.11-.01-.17zm-1.11-.74c-1.1-1.14-2.19-2.26-3.26-3.39-.08-.09-.06-.27-.1-.5.54-.04 1.02-.09 1.5-.11.48-.02.97-.19 1.46.1 1.02 1.27 2.06 2.56 3.14 3.89-.99.51-1.86.01-2.74.01zm-5.93-3.7c.55-.04.96-.07 1.39-.11.39.44.74.85 1.11 1.24.4.44.84.85 1.23 1.29.35.4.88.65 1.06 1.31-.29.05-.54.1-.77.14-1.53-1.1-2.87-2.3-4.02-3.87zm-2.34 1.93c-.74-.59-1.63-1-2.24-1.94.64-.06 1.17-.13 1.7-.15.59-.02 1.18 0 1.72.01.61.72 1.16 1.38 1.72 2.03.55.64 1.27 1.14 1.64 1.98-.83.44-1.53.03-2.24-.12-.77-.61-1.54-1.2-2.3-1.81zm-1.85 1.07c-1.03-.87-2.01-1.81-3-2.73-.05-.04 0-.19.01-.32.46-.14.94-.14 1.52-.06.98 1.13 2.17 2.15 3.37 3.16.25.21.49.42.72.65.04.04 0 .17 0 .32-.33.01-.64.01-.98.02-.55-.34-1.15-.62-1.64-1.04zm-5.44-2.57a.52.52 0 01-.17-.27c-.02-.09.03-.19.06-.34.3-.02.61-.05 1.01-.08.26.2.59.39.84.66 1 1.06 1.98 2.13 2.96 3.21.05.05.02.17.03.27-.17.03-.33.05-.56.08-1.39-1.16-2.78-2.34-4.17-3.53zm-.28 3.1c-1.2-1.17-2.43-2.37-3.56-3.69.13-.08.22-.18.31-.18.59-.03 1.18-.04 1.72-.05 1.48 1.38 2.89 2.7 4.37 4.08-.51.04-.94.12-1.35.09-.48-.02-.95-.15-1.49-.25zm-6.75-3.83c.59-.15 1.16-.21 1.86-.1 1.33 1.12 2.29 2.51 3.45 3.7.06.06.02.2.04.37-.2.04-.41.13-.6.11-.54-.07-1.03-.29-1.45-.67-1.16-1.05-2.4-2.02-3.3-3.41zm.92 3.66c-1.4-.99-2.88-1.9-3.98-3.26-.12-.15-.36-.24-.18-.58.75-.02 1.54-.05 2.3-.08.7.66 1.1 1.43 1.6 2.12.51.69 1.34 1.1 1.72 2.01-.61.28-1.07.07-1.46-.21zm-3.58-.32c-1.14-.98-2.39-1.86-3.25-3.18.43-.3.9-.24 1.42-.18.62.64 1.23 1.33 1.89 1.96.66.63 1.43 1.13 2.18 1.9-.47.04-.81.14-1.09.06-.41-.1-.84-.28-1.15-.56zm-7.06-2.99c-.06-.05-.08-.16-.15-.33.5-.05.94-.16 1.45-.02.5.14 1.04.15 1.51.21.59.63 1.16 1.21 1.69 1.81.51.57 1.19.99 1.61 1.77-.57.04-1.05.08-1.56.12-1.58-1.24-3.07-2.4-4.55-3.56zm1.51 3.2c-1.22-1.1-2.43-2.22-3.64-3.34h.37c1.57.97 3.07 2.02 4.36 3.39-.42.27-.8.22-1.09-.05zm-4.99-.56c.19.18.29.28.49.47-.25-.03-.39-.02-.49-.08-.04-.03 0-.19 0-.39zm-.4-2.76c.04-.17.07-.32.12-.55.98 1 1.91 1.94 2.83 2.89.21.21.37.47.55.71-.24.03-.47.06-.67.09-.97-1.08-1.89-2.1-2.83-3.14z" fill="#CED0D1"/></svg>