<svg width="26" height="26" viewBox="0 0 26 26" fill="none" xmlns="http://www.w3.org/2000/svg">
    <g clip-path="url(#clip0)">
        <path d="M24.8073 23.6307H1.18159C0.52884 23.6307 0 24.1596 0 24.8129C0 25.4651 0.52884 25.9939 1.18159 25.9939H24.8068C25.4595 25.9939 25.9884 25.4651 25.9884 24.8129C25.9878 24.1596 25.459 23.6307 24.8073 23.6307Z" fill="#595888"/>
        <rect x="2.99994" y="9" width="19" height="13" fill="#1C0C2C"/>
        <path d="M2.65803 20.5589C2.00528 20.5589 1.47644 21.0878 1.47644 21.7405C1.47644 22.3933 2.00528 22.9227 2.65803 22.9227H23.3304C23.9831 22.9227 24.512 22.3933 24.512 21.7405C24.512 21.0878 23.9831 20.5589 23.3304 20.5589H23.0355V9.92682H23.3304C23.6573 9.92682 23.9206 9.6624 23.9206 9.33658C23.9206 9.01076 23.6562 8.74634 23.3304 8.74634H2.65803C2.33166 8.74634 2.06779 9.01076 2.06779 9.33658C2.06779 9.6624 2.33221 9.92682 2.65803 9.92682H2.95343V20.5584H2.65803V20.5589ZM20.6723 9.92682V20.5584H17.1287V9.92682H20.6723ZM14.7655 9.92682V20.5584H11.2218V9.92682H14.7655ZM5.31551 9.92682H8.85918V20.5584H5.31551V9.92682Z" fill="#595888"/>
        <path d="M1.18155 7.68421H24.8068C24.8106 7.68421 24.8151 7.68421 24.8184 7.68421C25.4717 7.68421 26 7.15537 26 6.50261C26 5.98373 25.6658 5.54395 25.2017 5.38464L13.4798 0.110069C13.1717 -0.0282261 12.8193 -0.0282261 12.5107 0.110069L0.696968 5.42557C0.188596 5.65459 -0.0907601 6.20666 0.026514 6.75099C0.143235 7.29532 0.624501 7.68421 1.18155 7.68421Z" fill="#595888"/>
    </g>
    <defs>
        <clipPath id="clip0">
            <rect width="26" height="26" fill="white"/>
        </clipPath>
    </defs>
</svg>
