<svg width="25" height="25" viewBox="0 0 25 25" fill="none" xmlns="http://www.w3.org/2000/svg">
<rect width="24" height="24" transform="translate(0.370605 0.494141)" fill="#259AE8"/>
<path d="M20.3706 12.4941V22.4941H4.37061V12.4941" stroke="white" stroke-linecap="round" stroke-linejoin="round"/>
<path d="M22.3706 7.49414H2.37061V12.4941H22.3706V7.49414Z" stroke="white" stroke-linecap="round" stroke-linejoin="round"/>
<path d="M12.3706 22.4941V7.49414" stroke="white" stroke-linecap="round" stroke-linejoin="round"/>
<path d="M12.3706 7.49414H7.87061C7.20756 7.49414 6.57168 7.23075 6.10284 6.76191C5.634 6.29307 5.37061 5.65718 5.37061 4.99414C5.37061 4.3311 5.634 3.69521 6.10284 3.22637C6.57168 2.75753 7.20756 2.49414 7.87061 2.49414C11.3706 2.49414 12.3706 7.49414 12.3706 7.49414Z" stroke="white" stroke-linecap="round" stroke-linejoin="round"/>
<path d="M12.3706 7.49414H16.8706C17.5336 7.49414 18.1695 7.23075 18.6384 6.76191C19.1072 6.29307 19.3706 5.65718 19.3706 4.99414C19.3706 4.3311 19.1072 3.69521 18.6384 3.22637C18.1695 2.75753 17.5336 2.49414 16.8706 2.49414C13.3706 2.49414 12.3706 7.49414 12.3706 7.49414Z" stroke="white" stroke-linecap="round" stroke-linejoin="round"/>
</svg>
