<svg width="25" height="15" viewBox="0 0 25 15" fill="none" xmlns="http://www.w3.org/2000/svg">
<path d="M12.4536 7.44336H19.4536M5.45361 7.44336C4.65796 7.44336 3.8949 7.12729 3.33229 6.56468C2.76968 6.00207 2.45361 5.23901 2.45361 4.44336C2.45361 3.64771 2.76968 2.88465 3.33229 2.32204C3.8949 1.75943 4.65796 1.44336 5.45361 1.44336C6.24926 1.44336 7.01232 1.75943 7.57493 2.32204C8.13754 2.88465 8.45361 3.64771 8.45361 4.44336C8.45361 5.23901 8.13754 6.00207 7.57493 6.56468C7.01232 7.12729 6.24926 7.44336 5.45361 7.44336ZM9.45361 13.4434V11.4434C9.45361 9.19336 7.66661 7.44336 5.41761 7.44336H5.47161C3.22161 7.44336 1.45361 9.19336 1.45361 11.4434V13.4434H9.45361ZM12.4536 2.44336H24.4536H12.4536ZM12.4536 12.4434H22.4536H12.4536Z" stroke="white" stroke-width="1.5"/>
</svg>
