<svg width="72" height="35" viewBox="0 0 72 35" fill="none" xmlns="http://www.w3.org/2000/svg">
<path d="M20.8614 6.6549L15.8687 1.69531L10.876 6.6549L15.8687 11.6145L20.8614 6.6549Z" fill="white"/>
<path d="M20.8614 17.453L15.8687 12.4934L10.876 17.453L15.8687 22.4126L20.8614 17.453Z" fill="white"/>
<path d="M20.8614 28.3453L15.8687 23.3857L10.876 28.3453L15.8687 33.3049L20.8614 28.3453Z" fill="white"/>
<path d="M15.4579 22.8834L10.4336 17.8925L5.40934 22.8834L10.4336 27.8744L15.4579 22.8834Z" fill="white"/>
<path d="M15.4579 12.054L10.4336 17.0449L5.40934 12.054L10.4336 7.06297L15.4579 12.054Z" fill="white"/>
<path d="M21.367 7.06297L16.3427 12.054L21.367 17.0449L26.3913 12.054L21.367 7.06297Z" fill="white"/>
<path d="M26.7388 12.4934L21.7462 17.453L26.7388 22.4126L31.7315 17.453L26.7388 12.4934Z" fill="white"/>
<path d="M26.3913 22.8834L21.367 17.8925L16.3427 22.8834L21.367 27.8744L26.3913 22.8834Z" fill="white"/>
<path d="M4.99855 12.4934L9.99123 17.453L4.99855 22.4126L0.00585938 17.453L4.99855 12.4934Z" fill="white"/>
<path d="M58.9514 0.408068H53.5796V34.623H58.9514V24.076L60.5946 21.0312L65.8085 34.5916H71.3699L63.8809 15.6321L71.3383 0.408068H65.9665L58.9514 15.2241V0.408068Z" fill="white"/>
<path fill-rule="evenodd" clip-rule="evenodd" d="M49.9772 8.50664V26.4616C49.9772 29.3809 49.0609 35.0511 42.0142 34.9997C33.6948 34.9389 33.7247 27.9973 33.7345 25.7295C33.7348 25.6544 33.7351 25.5844 33.7351 25.5199C33.7351 25.5033 37.8714 25.5168 38.7082 25.5195C38.7966 25.5198 38.8482 25.5199 38.8542 25.5199C38.7912 27.5603 38.9176 30.1342 41.635 30.0715C44.3363 30.0091 44.479 28.0916 44.5696 26.8743C44.5808 26.7246 44.5911 26.5854 44.6054 26.4616C44.6642 25.9505 44.6427 23.8832 44.6231 22.0037C44.614 21.1309 44.6054 20.2986 44.6054 19.6814C44.2051 20.7173 42.6462 22.7702 39.6127 22.6948C35.9144 22.603 34.8312 20.2718 34.5747 19.7199C34.5682 19.7059 34.5623 19.6931 34.5568 19.6814C34.5495 19.6659 34.5418 19.6496 34.5338 19.6326C34.2967 19.1308 33.7352 17.9423 33.7352 15.7263V7.81607C33.651 5.17932 34.9359 -5.56126e-08 41.8878 0C49.7876 6.3196e-08 49.9772 6.87437 49.9772 8.50664ZM44.6054 7.81607C44.6054 5.45555 42.7937 4.90728 41.8878 4.9282C39.7137 4.9282 39.1492 6.60233 39.1387 7.43939C39.1177 9.7727 39.0882 14.5963 39.1387 15.2241C39.2019 16.0088 39.3915 17.798 41.8878 17.798C43.8848 17.798 44.5316 16.0821 44.6054 15.2241V7.81607Z" fill="white"/>
</svg>
