<svg width="29" height="29" viewBox="0 0 29 29" fill="none" xmlns="http://www.w3.org/2000/svg">
<path fill-rule="evenodd" clip-rule="evenodd" d="M28.0547 14.002C28.0547 21.7335 21.7862 28.002 14.0547 28.002C6.32319 28.002 0.0546875 21.7335 0.0546875 14.002C0.0546875 6.27045 6.32319 0.00195312 14.0547 0.00195312C21.7862 0.00195312 28.0547 6.27045 28.0547 14.002ZM14.5564 10.3375C13.1949 10.9033 10.473 12.0758 6.39202 13.8538C5.72935 14.1175 5.38169 14.3753 5.35019 14.6273C5.29652 15.0543 5.83085 15.2223 6.55652 15.4498C6.65569 15.4813 6.75835 15.5128 6.86335 15.5478C7.57852 15.78 8.53985 16.0518 9.03919 16.0623C9.49302 16.0716 9.99935 15.885 10.5582 15.5023C14.3709 12.9275 16.339 11.6266 16.4627 11.5986C16.5502 11.5788 16.6715 11.5531 16.7532 11.6266C16.8349 11.699 16.8267 11.8366 16.8185 11.874C16.7649 12.0991 14.6719 14.0463 13.5869 15.0543C13.2485 15.3681 13.0094 15.591 12.9604 15.6423C12.8507 15.7555 12.7387 15.864 12.6314 15.9678C11.9664 16.6071 11.4694 17.0878 12.6594 17.8718C13.231 18.2486 13.6884 18.5601 14.1445 18.8705C14.6427 19.21 15.1397 19.5483 15.7837 19.9706C15.947 20.078 16.1034 20.1888 16.2562 20.2973C16.836 20.7115 17.3575 21.0825 18.0015 21.0241C18.3749 20.9891 18.7622 20.638 18.9582 19.5891C19.4214 17.1088 20.3337 11.7375 20.5449 9.52312C20.5577 9.33927 20.5499 9.15456 20.5215 8.97245C20.5045 8.82537 20.4329 8.69004 20.3209 8.59329C20.154 8.45679 19.895 8.42762 19.7784 8.42995C19.2522 8.43929 18.4449 8.72045 14.5564 10.3375Z" fill="white"/>
</svg>
