<svg width="28" height="28" viewBox="0 0 28 28" fill="none" xmlns="http://www.w3.org/2000/svg">
<path d="M23.7669 4.14688C22.5234 2.89758 21.0427 1.90714 19.4109 1.23326C17.7791 0.559373 16.0289 0.21553 14.2623 0.221763C6.85965 0.221763 0.826694 6.22587 0.819914 13.5968C0.819914 15.9577 1.44033 18.2543 2.61166 20.2878L0.711426 27.2217L7.83774 25.3621C9.80918 26.4301 12.0178 26.9899 14.2623 26.9905H14.2691C21.6734 26.9905 27.7046 20.9864 27.7114 13.6087C27.7131 11.8504 27.3653 10.1091 26.688 8.48522C26.0107 6.86133 25.0174 5.3869 23.7652 4.14688H23.7669ZM14.2623 24.7259C12.2603 24.7265 10.2952 24.1903 8.57343 23.1734L8.1666 22.9304L3.93895 24.034L5.0679 19.9283L4.80346 19.5048C3.68435 17.7334 3.09248 15.6826 3.09647 13.5901C3.09647 7.47124 8.10896 2.47963 14.2691 2.47963C15.7366 2.47701 17.1901 2.76359 18.5459 3.32286C19.9017 3.88212 21.1328 4.70301 22.1684 5.73818C23.2075 6.76933 24.0313 7.99508 24.5923 9.34475C25.1532 10.6944 25.4401 12.1413 25.4366 13.6019C25.4298 19.7427 20.4173 24.7259 14.2623 24.7259ZM20.3902 16.3998C20.0562 16.2327 18.4069 15.4244 18.0967 15.3097C17.7881 15.2 17.5627 15.1426 17.3423 15.4767C17.1169 15.8092 16.4727 16.5668 16.2795 16.7845C16.0862 17.009 15.8862 17.0343 15.5506 16.8689C15.2166 16.7001 14.1334 16.3492 12.8519 15.2067C11.8518 14.3208 11.1822 13.2239 10.9822 12.8915C10.789 12.5573 10.9636 12.3785 11.1314 12.2114C11.2789 12.0629 11.4653 11.8199 11.6331 11.6275C11.8026 11.4352 11.8586 11.2934 11.9688 11.0707C12.079 10.8445 12.0264 10.6522 11.9433 10.4851C11.8586 10.318 11.189 8.66936 10.9059 8.00449C10.6347 7.34805 10.3584 7.43918 10.1516 7.43074C9.95835 7.41893 9.7329 7.41893 9.50744 7.41893C9.33719 7.42314 9.16965 7.46234 9.01534 7.53407C8.86102 7.6058 8.72327 7.7085 8.61072 7.83574C8.30221 8.16986 7.43939 8.97817 7.43939 10.6269C7.43939 12.2755 8.64293 13.8601 8.81244 14.0845C8.97856 14.309 11.1754 17.6823 14.5471 19.1335C15.3438 19.4795 15.971 19.6836 16.4609 19.8389C17.266 20.0954 17.9933 20.0566 18.573 19.9739C19.2171 19.876 20.558 19.1639 20.8411 18.3826C21.1191 17.5996 21.1191 16.9313 21.0343 16.7913C20.9513 16.6495 20.7258 16.5668 20.3902 16.3998Z" fill="white"/>
</svg>
