<svg width="57" height="60" fill="none" xmlns="http://www.w3.org/2000/svg"><g clip-path="url(#clip0)"><path fill-rule="evenodd" clip-rule="evenodd" d="M56.809 34.877v-.05c.122-.768.233-1.544.175-2.37-.028.058-.044.125-.065.192a2.711 2.711 0 00-.008-.484l-.02-.109.012-.142c.008-.642.016-1.28.02-1.96-.02-.105-.036-.21-.07-.389-.17-1.84-.489-3.76-.97-5.554-.05-.138-.11-.296-.147-.4a48.868 48.868 0 00-1.55-4.516c-.058-.087-.16-.233-.217-.321-.065-.163-.114-.292-.167-.417-.037-.247-.168-.493-.347-.756-.498-.951-.906-1.998-1.535-2.666-.865-1.09-1.828-2.5-2.864-3.551-.506-.551-.8-1.119-1.318-1.62-.502-.458-.588-.279-1.31-.888-.775-.597-1.526-1.281-2.363-1.899l-.049.067c-.012-.042-.045-.104.05-.067l-.327-.234-.05.067c-.354-.25-.68-.484-1.011-.718-.094-.037-.25-.104-.376-.154l-.118-.058-.073-.067c-.29-.234-.706-.376-.857-.576.191 0 .82.38.877.284-1.159-.735-1.885-1.023-2.379-.993-.229-.134-.55-.305-.526-.355.187-.159-.323-.334-.984-.563-.538-.18-.698-.13-.681.004a12.4 12.4 0 00-.364-.155 1.484 1.484 0 00-.395-.162l.053.045a2.923 2.923 0 00-.392-.17c-.465-.168-1.2-.36-.955-.48.196-.084-.106-.222-.649-.393-.449-.13-.881-.334-1.37-.283.542.175 1.17.492.966.609-.232-.042-.502-.113-.775-.18-.155-.15-.277-.296-.526-.45-.058-.08-.123-.146-.384-.213-.033-.184-.163-.372-.449-.551.257.017.535.046.808.075.837.146 1.685.405 2.387.772.453.242 1.037.417 1.575.505.747.326 1.457.63 2.204.956 1.836.863 3.566 1.865 5.178 2.866l-.032-.016c.934.592 1.742 1.46 2.648 2.153.35.23.767.65 1.171 1.08.127.122.278.268.425.414.285.258.583.6.86.914.866 1.089 1.694 2.04 2.42 3.075l-.065-.163.037.059.028.104c.237.355.498.806.718 1.002l.123.175.102.184c.355.655.653 1.406 1.032 1.89.09.154.115.18.196.342.196.45.408.901.596 1.244.04.1.045.1.065.091.033.025.033-.012.013-.12-.241-1.09-.727-2.183-1.47-3.356-.187-.304-.453-.726-.657-1.06-1.277-2.395-2.913-4.11-4.7-5.587-.245-.25-.445-.447-.641-.547-.24-.204-.486-.405-.657-.471-.24-.2-.428-.355-.616-.51-.343-.3-.653-.575-.996-.872-1.44-1.276-3.113-2.24-4.835-3.03-.776-.375-1.633-.638-2.453-1.08-.604-.346-1.404-.676-1.142-.267.04.092-.486-.067-.813-.171-.62-.18-1.33-.438-1.999-.58a.856.856 0 01-.265-.067 1.232 1.232 0 00-.466-.1.832.832 0 01-.301-.063 17.26 17.26 0 00-1.763-.488 4.65 4.65 0 00-.767-.167c-.037-.075-.147-.133-.461-.17a2.913 2.913 0 00-.429-.068l-.106.017-.037.004c.037-.004.074-.012.139-.02-.07-.067-.216-.105-.571-.11l-.037-.012v.009C28.73.02 28.587.004 28.334 0a.763.763 0 01-.285.017c-.665.05-1.33.15-1.992.267a5.518 5.518 0 00-1.142.033c-1.612.096-3.134.338-4.742.697l.004.013.004.012-.008-.03c-.706-.007-1.6.397-2.4.58-.358.013-.816.172-1.199.322-.24.038-.571.146-.926.284-.42.159-.253.209-.498.334-.188.092-.36.208-.408.275-.11.088-.64.33-.506.384.061.046.175.054.444-.012.115.083.429.041.886-.088l.086-.054.004.008c-.033.013-.066.025-.09.046l.963.167c.04.113.172.18.588.092a8.25 8.25 0 00-.653.446c-.608.359-1.428.647-1.767 1.114-.824.614-1.8 1.206-2.457 1.92l.053-.042c-.387.422-1.024.81-1.297 1.202l-.004-.004c-.172.183-.478.417-.645.65l-.057.093-.106.091-1.13 1.131c-.498.405-1 .839-1.388 1.423-.518.718-1.518 1.84-2.085 2.746-.572.964-1.453 1.89-1.763 2.904l.045-.041c-.025.058-.029.054-.029.054l-.016-.013a27.203 27.203 0 00-1.563 3.226 10.69 10.69 0 00-.783 2.19c-.058.193-.119.385-.172.576-.51 1.474-.926 3.05-1.073 4.682-.102.848-.196 1.603-.049 2.3.02.125.012.192-.016.25-.066.188-.086.442-.09.76-.172.763.012 1.581.053 2.366l.02.029H.15.145c-.004 0-.016-.004-.02-.03-.065.326-.02.835.07 1.27h.007c-.044.295.11.846.127 1.234.033.092.04.184.033.25-.037.172 0 .456.077.798.057.509.184 1.039.408 1.406.074.371.168.722.33 1.022.131.447.254.856.38 1.269.257.626.457 1.498.788 2.057.102.263.208.53.298.76.187.459.338.934.58 1.214l.224.447c.053.133.114.258.2.375.069.125.118.217.187.338a20.035 20.035 0 001.861 3.138c.188.259.322.38.375.342.053-.037-.036-.238-.216-.496l-1.673-2.688-.571-1.089c-.514-.697-.71-1.69-1.102-2.408l.004.076c-.159-.43-.294-.797-.457-1.227-.175-.35-.273-.877-.428-1.235a23.9 23.9 0 00-.164-.58c.017.033.033.07.053.1l-.008.004c.045.083.074.138.123.221a6.22 6.22 0 01-.05-.238v.017-.03c0 .005 0 .009.005.013.012-.08-.02-.217-.025-.338.02-.175-.053-.476-.13-.78l-.017.004h-.008l.025-.008a1.239 1.239 0 00-.02-.26c.228.906.513 1.8.84 2.667.29.827.714 1.632.987 2.538.188.684.527 1.493.625 1.014.037-.092.294.396.453.705.314.576.636 1.273 1.012 1.857.045.05.118.167.143.238.049.133.122.25.26.409.054.05.11.137.168.262.824 1.653 1.84 3.218 3.387 4.465.204.188.445.439.592.63.24.401.669.81 1.073 1.136 1.208 1.097 2.448 2.028 3.832 2.933l.008-.012.008-.013-.016.025c.49.517 1.403.876 2.101 1.323.261.25.694.467 1.073.638.196.15.506.31.85.472.407.192.321.033.583.125.195.071.4.113.477.1.139.017.681.23.624.096-.008-.075-.085-.167-.322-.313-.024-.138-.273-.338-.686-.58l-.098-.025.005-.008c.032.012.065.029.093.029-.18-.263-.383-.555-.563-.814.057-.129-.012-.304-.58-.634-.052-.117-.17-.255-.22-.38.413.196.866.38 1.261.522.429.15.678.138.71.054.102-.092-.375-.271-.66-.421-.343-.176-.609-.372-.625-.476-.04-.142.457.075.706.13.865.216 1.963.792 2.946.926.457.104 1.037.384 1.437.33l-.029-.021.033.008-.004.012c.673.142 1.363.36 1.938.347-.061-.025-.118-.042-.147-.063l.033.008.114.059c.612.1 1.355.238 1.86.163l-.06-.021.06.008v.013c.988.046 2.008.321 3.102.108.861-.133 2.346-.204 3.375-.434 1.073-.267 2.334-.284 3.256-.78l-.061-.004c.057-.025.057-.017.057-.017l.004.02a25.722 25.722 0 005.925-2.42c1.216-.592 2.428-1.306 3.542-2.182h.004c.045.05.16.025.384-.146l.11-.138.004.005s-.07.079-.114.133c.102 0 .228-.02.383-.083-.281.225-.587.517-.865.659l.025-.02c-.302.17-.723.504-1.016.625-.67.23-1.36.893-2.098 1.24-.163.083-.392.196-.612.308-.412.138-.926.513-1.375.643l-.571.238c-.747.363-1.482.713-2.27.884l-.113.05-.09.021c-2.326.58-4.024 1.21-5.82 1.64 3.412-.363 6.73-1.41 9.782-2.93l.67-.346c.562-.141 1.17-.542 1.742-.943.318-.204.608-.392.93-.596.31-.159.682-.451.984-.635.122-.1.2-.154.281-.204.302-.13.633-.434.975-.718.102-.08.229-.175.302-.238.13-.087.306-.18.408-.258.147-.146.29-.288.433-.434.09-.034.212-.121.412-.322l.033-.02-.004-.005c.057.009.167-.087.35-.267.037-.062.152-.2.192-.217.947-1.13 1.767-2.408 2.526-3.672.294-.442.555-.935.772-1.385.216-.293.412-.614.526-.927.094-.133.188-.259.29-.38.587-1.56 1.232-3.17 1.46-4.69.184-.693.564-1.49.482-2.065.16-1.031.44-2.154.408-3.134l-.004.104zm-5.488-22.02l-.017.012s.008-.004 0-.037l.017.025zM15.603 2.65c-.008-.021-.05-.034.04-.084.03-.025.094-.037.123-.062-.082.07-.175.125-.163.146zm3.546 56.73c-.008.021.012.059-.086.025-.037 0-.094-.041-.13-.046.106.017.208.046.216.021zm35.893-29.782h-.012v-.066l.012.066zm-.18 3.96c.037-.63.09-1.264-.008-1.831.119.504.05 1.168.009 1.831zm.045-11.955c-.028-.03-.09-.192-.126-.213l-.057-.238c.07.163.147.36.183.451zm-.232 3.643l.012-.004c-.008.037-.02.138-.045.08 0 0 .02-.038.033-.076zm-.555 5.967h.008l-.008.034v-.034zm-.645-2.249c.008.125.05.188.033.284-.017.254-.061-.025-.098-.155.028-.004.057-.004.065-.129zm-.383 4.44h.02l-.012.063c-.013.033-.008-.063-.008-.063zm-5.885 15.52a7.69 7.69 0 01.143-.268c.029-.43.563-1.194.967-2.07-.163.635-.587 1.365-.967 2.07-.004.038-.024.088-.02.117a.995.995 0 01-.123.15zm-36.211-.435c-.033-.02-.074-.067-.106-.08l-.004.005-.017-.02c-.065-.068-.045-.043-.065-.068l.004-.004s.024.021.061.067l.025.017.053.033c.016.02.032.033.049.05zm-4.95-1.502l-.037-.046c.053.033.074.017.061-.046l-.016-.025c.008.008.012.017.02.025-.26-.513-.485-1.198-.265-1.13.265.387.547.95.873 1.339.147.22.315.471.482.717.257.643.306.768.175.96-.159-.28-.387-.563-.632-.905-.106-.313-.388-.635-.64-.977.016.059 0 .071-.021.088zm.78-9.377l.024-.004v.063l-.025-.059zm-.372 1.728c-.049-.046-.082-.059-.11-.063-.029.171-.074.313-.143.397.033-.167.024-.418.143-.397.016-.104.037-.212.032-.35.054.17.017.246.078.413zm-.902 5.087s-.016-.03-.028-.059c.077.146.204.338.293.438l-.02.013a7.896 7.896 0 01-.245-.392zM5.107 41.7l-.114-.196c-.02-.059-.04-.121-.053-.155.045.092.114.234.167.35zm-.881-3.743c-.025.004-.065-.05-.106-.138l-.012-.063c.032.092.085.209.118.2zM1.663 35.56c-.02-.029-.04-.112-.04-.112h.008c.012.083.02.083.032.112zm.735 2.763c-.053.017-.025.196.037.43-.062-.138-.131-.276-.147-.463.012-.092.069-.017.11.033zm1.35-1.607c-.065-.117-.13-.27-.187-.588.065.25.126.434.188.588zm.209 1.54c-.017-.196-.041-.355.028-.371-.057.012-.049.175-.028.371zm-2.673-9.063l-.004.058h-.012v-.03l.004-.028h.012zm-.172 1.172v.03c-.004.008-.004.02-.008.033-.02.158-.032.288-.049.425-.004.042-.004.08-.008.121v-.062c.004-.021.004-.042.008-.063a2.39 2.39 0 01.05-.425.251.251 0 00.007-.059zm-.469 4.59c.025.005.05-.008.07-.033.008.096.016.154.024.25-.024-.083-.061-.15-.094-.217-.073-.008-.155-.137-.232-.27.077.053.159.15.232.27zm3.66 7.858l.147.371c.045.163.115.317.168.4l-.004-.07c.053.158.102.284.159.405.212.455.604 1.122.343 1.03-.074-.029-.102-.008-.098.059-.078-.159-.16-.317-.229-.463l-.004.004c0-.217-.294-.601-.433-.939a3.847 3.847 0 00-.257-.847c.094.108.164.112.208.05zm7.195-32.373c.004-.005.004-.009.008-.013 0 .004-.004.008-.008.013zm19.121-6.03l-.004.037c-.004.034-.15.009-.155.03.004-.034.155-.034.16-.067zm-1.868-.263c-.062-.008 0-.004-.029-.008h-.151l.061-.009c.123-.025.33-.029.514-.025-.094.03-.33.013-.395.042zm.395.288c0 .004-.032.008-.094 0l-.028.004-.061.017c-.025 0-.045.004-.066.004.037-.009.103-.004.131-.017v-.008l.029.004c.09-.004.06-.004.09-.004zm20.138 37.01a.337.337 0 01.086-.155l.016.008c-.032.05-.11.238-.102.146zm.066.2l-.025.045.004-.054c-.008.008-.016.021-.024.03v-.022c.008.005.02-.012.032-.033l-.012.021.025.012zm2.897-8.45l-.033.237c0-.12-.02-.12-.024-.154.024-.088.04-.054.057-.084zm-.551-14.526c.008.012.004.008.016.037l-.016-.03v-.008a.645.645 0 01-.037-.079c-.016-.067-.02-.096-.02-.096a.82.82 0 00.057.175zm-.127-2.834l.013.021a.09.09 0 00-.013-.02l-.004-.005-.016-.03s.012.013.02.034zm-.391-.359l-.012.009-.017-.03c.025.026.029.021.029.021zM42.702 7.82a4.445 4.445 0 00-.538-.28c.126.042.281.096.538.28zm-1.693-.818a.39.39 0 01.13.03l.053.037a.903.903 0 00-.183-.067zm.183-.12c.029-.047-.085-.155-.236-.28.147.125.27.22.236.28zm-3.22-1.824c.058.029.115.054.144.07-.09-.033-.237-.083-.36-.125.127.03.184.046.217.055zm-2.856-1.77c.127.03.253.059.445.1 0 0 .033.009.061.021a2.803 2.803 0 00-.51-.1l.004-.02zM29.754.258c-.028.01-.045.017-.093.026V.27l.093-.012zM24.96.422l.065.005c-.065.004-.204.008-.273.012l.208-.017zM5.654 14.69c0 .029-.004.07-.004.108v.004a.215.215 0 01.004-.112zm-.04.17c0 .005-.005.005-.005.009-.032.013-.073.038-.11.054.045-.029.082-.041.114-.062zM.3 32.604c-.012.042-.024.08-.053.046l-.004-.063c.029.067.045.05.057.017zm.666 5.374c0 .005.004.005.004.009H.966v-.008zm2.95 5.901c-.078-.192-.151-.38-.225-.572.033.046.062.092.094.134.02.142.119.359.208.55-.024-.033-.049-.074-.077-.112zm1.926 3.772c-.49-.71-.91-1.506-1.155-2.274a2.728 2.728 0 00-.106-.288c.086.142.167.284.212.413.065.217.282.522.44.785.038.05.09.087.136.133.6.83 1.134 1.703 1.905 2.45a4.15 4.15 0 01-.053.067c-.22.166-.816-.585-1.38-1.286zm1.677-5.57c.151-.009.192-.218.122-.597.045.234.09.467.131.667.102.414-.118.096-.253-.07zm.335 5.178c.032.017-.037-.13.049-.033.085.096.02.066.06.154-.024-.025-.069-.07-.11-.12zm1.893.02l.029-.024c.024-.021.114.104.13.092-.024.02-.134-.088-.159-.067zm.832 1.278c.082.05.241.233.307.259.04.05-.004.004.016.025l.106.108-.049-.038a3.05 3.05 0 01-.38-.354zm.413 5.637l-.045-.05c.049.046.15.138.2.188l-.155-.138zm1.126-.496c.004-.009-.008-.025-.008-.034-.192-.216-.302-.4-.486-.613l-.057-.037s.033.012.008-.009l.053.046c.45.367.51.513.486.614.037.041.057.079.102.125l-.098-.092zm2.02-3.464c.114.046.143.055.224.088-.04.004.012.075.02.108-.085-.075-.167-.112-.244-.196zm1.469 3.376l.008-.012.02.025-.028-.013zm3.011.242c.135.059.168.046.257.071-.085-.025-.106.013-.257-.07zm1.474.793c.028.013.028.008.028.008v.005l-.029-.013-.053-.008c-.118.058-.355.004-.62-.096a1.497 1.497 0 01-.38-.159c-.016-.008-.024-.004-.04-.017l-.184-.087.225.1c.126.058.257.113.38.159.211.054.39.045.62.096.008-.005.02 0 .028-.005.012 0-.008-.012.004-.012a16.02 16.02 0 01-.237-.271l-.036-.025.024.012c-.012-.017-.049-.046-.065-.067a6.522 6.522 0 01-.763-.58l-.008.013-.629-.4.555.346a.51.51 0 00.078.041c.4.217.632.422.763.58.045.03.073.063.118.092l-.053-.025.012.013c.192.125.38.246.237.27.012.018.016.022.024.03zm.73.13l-.314-.138c.106.041.232.112.375.15a.24.24 0 00-.061-.013zm1.62 2.153l.004-.009v-.004l-.004.013zm1.542-.747c.033-.017-.073-.05-.069-.071a.548.548 0 00.155.096l-.086-.025zm2.139.509v-.008l.057.025-.057-.017zm1.4.204a4.048 4.048 0 00-.466-.212c.114.008.343.02.547.033.11.063.188.125-.082.18zm2.227-1.807c.029.021.106.038.217.063 0 0 .024.02.077.03v.008c-.053-.017-.077-.038-.077-.038-.135-.03-.188-.038-.266-.054.05 0 .05-.009.05-.009zm.286.439h.028a.67.67 0 01-.191.058c.081-.017.106-.038.163-.058zm4.578 2.437c-.004.004-.012.008-.016.016-.012.03-.04.059-.09.088.025-.021.062-.059.09-.088.008-.016.012-.033.008-.05.004.038.098.059.168.084-.062-.017-.098-.046-.16-.05zm2.4-2.867c-.11.037-.253.1-.27.041-.053.017-.004-.02-.085-.004l.012-.012.065-.025.013.041.167-.02c.029-.009.061-.013.098-.021.02-.004.04-.017.057-.021v.008c-.008 0-.037.009-.057.013zm5.545-2.6c-.375.184-.706.321-.832.25-.184-.058.196-.275.51-.484.135-.091.31-.225.208-.242-.22.046-.522.284-.685.263.277-.22.64-.346.934-.588-.07.017-.114.025-.135.012l-.036.013.024-.017c0 .004.008 0 .012.004.066-.02.123-.037.135-.012a.519.519 0 01.184-.113c.383-.15.783-.526 1.187-.705.56-.284.992-.705 1.453-1.168l.024-.017.041-.038-.02.017c.338-.48-.11-.088-.388.121l-.122.1-.074.042c-.224.058-.616.43-.84.48.95-.776 1.93-1.56 2.762-2.475.057-.058.119-.12.184-.183-.008.016-.016.029-.016.037-.058.113.04.038.114-.062.057-.071.106-.15.106-.15-.004-.005-.012-.009-.016-.013.155-.163.285-.317.29-.438.02-.155.101-.322.216-.501.22-.108.546-.438.693-.405-.126.213-.183.33-.171.413-.47.66-.596.993-.857 1.473-.253.447-.33.76-.755 1.31-.228.264-.437.522-.636.781-.058.042-.11.083-.168.121-1.049.805-2.179 1.506-3.326 2.174zm1.229-.234a4.72 4.72 0 01.122-.075c.037-.008.074-.033.11-.054a.422.422 0 01.143-.067c-.049.013-.094.042-.143.067-.073.05-.155.1-.232.13z" fill="#FAAE5D"/><g clip-path="url(#clip1)"><path d="M41.767 21.258H18.311l-.349-3.884a1.232 1.232 0 00-1.227-1.122h-2.503a1.232 1.232 0 000 2.464h1.377l1.417 15.787c.1 1.138.715 2.373 1.774 3.212-1.91 2.438-.164 6.033 2.942 6.033 2.578 0 4.396-2.571 3.512-5.006h6.743c-.883 2.432.932 5.006 3.512 5.006a3.74 3.74 0 003.736-3.735 3.74 3.74 0 00-3.736-3.735H21.75a2.288 2.288 0 01-2.103-1.388l19.69-1.157a1.232 1.232 0 001.122-.931l2.504-10.013a1.233 1.233 0 00-1.196-1.53zM21.742 41.284a1.272 1.272 0 01-.001-2.542 1.272 1.272 0 01.001 2.542zm13.767 0a1.272 1.272 0 010-2.542c.701 0 1.272.57 1.272 1.27 0 .702-.57 1.272-1.272 1.272zm2.78-9.958l-18.974 1.115-.783-8.719H40.19l-1.902 7.604z" fill="#fff"/></g></g><defs><clipPath id="clip0"><path fill="#fff" d="M0 0h57v60H0z"/></clipPath><clipPath id="clip1"><path fill="#fff" transform="translate(13 15)" d="M0 0h30v30H0z"/></clipPath></defs></svg>