<svg width="25" height="26" fill="none" xmlns="http://www.w3.org/2000/svg"><path fill-rule="evenodd" clip-rule="evenodd" d="M24.916 15.113v-.021c.054-.333.102-.67.077-1.027-.012.025-.02.054-.028.083a1.17 1.17 0 00-.004-.21l-.009-.047.005-.062c.004-.278.008-.555.01-.85-.01-.044-.017-.09-.031-.167a14.512 14.512 0 00-.426-2.407l-.065-.174a20.97 20.97 0 00-.68-1.956c-.025-.038-.07-.102-.094-.14-.03-.07-.05-.126-.074-.18a.815.815 0 00-.152-.328c-.218-.412-.397-.866-.673-1.155-.38-.472-.802-1.083-1.256-1.54-.222-.238-.351-.484-.578-.7-.22-.2-.258-.122-.575-.386-.34-.258-.67-.555-1.036-.823l-.022.03c-.005-.019-.02-.046.022-.03l-.143-.1-.022.028-.444-.311-.164-.067-.052-.025-.032-.03c-.127-.1-.31-.162-.376-.249.084 0 .36.165.384.123-.508-.318-.826-.443-1.043-.43-.1-.058-.241-.132-.23-.154.082-.068-.142-.144-.432-.244-.236-.078-.306-.056-.299.002a5.431 5.431 0 00-.16-.067.656.656 0 00-.173-.07l.023.02a1.288 1.288 0 00-.172-.075c-.204-.072-.526-.155-.418-.208.086-.036-.047-.096-.285-.17-.197-.056-.386-.144-.601-.123.238.076.513.214.424.264-.102-.018-.22-.048-.34-.077-.068-.065-.122-.129-.231-.196-.025-.034-.054-.063-.168-.092-.014-.08-.072-.16-.197-.239.113.008.234.02.354.033.367.063.74.175 1.047.335.199.104.455.18.691.218l.967.414c.805.375 1.564.809 2.27 1.243l-.014-.008c.41.257.765.633 1.162.933.154.1.337.283.514.469l.186.179c.125.112.256.26.377.396.38.472.743.884 1.062 1.333l-.029-.071.016.025.013.046c.104.153.218.349.315.434l.053.075.045.08c.156.284.287.61.453.82.04.066.05.077.086.147.086.196.179.391.261.54.018.043.02.043.029.04.014.01.014-.006.005-.053-.105-.472-.318-.946-.644-1.454-.082-.132-.199-.315-.288-.46-.56-1.037-1.278-1.78-2.062-2.42a1.243 1.243 0 00-.281-.238c-.106-.088-.213-.175-.288-.204l-.27-.22c-.15-.13-.287-.25-.437-.378-.632-.554-1.366-.972-2.121-1.313-.34-.163-.716-.277-1.076-.469-.264-.15-.615-.293-.5-.115.017.04-.214-.03-.357-.074-.272-.078-.583-.19-.877-.252a.379.379 0 01-.116-.029.546.546 0 00-.204-.043.37.37 0 01-.133-.027 7.636 7.636 0 00-.773-.212 2.064 2.064 0 00-.336-.072c-.016-.033-.065-.058-.203-.074a1.288 1.288 0 00-.188-.03l-.046.008-.016.002.06-.01c-.03-.028-.094-.044-.25-.046l-.016-.006V.03c-.016-.02-.079-.027-.19-.029a.338.338 0 01-.125.007 8.949 8.949 0 00-.873.116 2.45 2.45 0 00-.502.014 13.05 13.05 0 00-2.08.302l.003.006.001.005-.003-.012c-.31-.004-.702.171-1.053.25-.157.006-.357.075-.526.14-.105.016-.25.063-.406.123-.184.069-.111.09-.218.145a.604.604 0 00-.18.12c-.048.037-.28.142-.221.166.027.02.077.023.195-.006.05.036.188.018.388-.038l.038-.023.002.003a.135.135 0 00-.04.02l.423.072c.017.05.075.078.257.04a3.62 3.62 0 00-.286.194c-.267.155-.626.28-.775.483-.362.265-.79.522-1.077.831l.023-.018c-.17.183-.45.351-.57.521l-.001-.002c-.075.08-.21.181-.283.282l-.025.04-.046.04-.496.49c-.219.175-.439.363-.609.617-.227.31-.666.797-.914 1.19-.25.417-.637.818-.773 1.258l.02-.018c-.012.025-.013.023-.013.023l-.007-.005c-.258.447-.487.915-.686 1.398-.141.28-.254.595-.344.949-.025.083-.051.166-.075.25C.347 10.61.164 11.294.1 12c-.045.367-.086.695-.022.997.009.054.005.083-.007.108a1.09 1.09 0 00-.04.33c-.075.33.006.685.024 1.025l.009.012h.002-.002c-.002 0-.007-.002-.01-.012-.028.14-.008.361.031.55H.09c-.02.128.048.366.055.535.015.04.018.08.015.108-.017.074 0 .197.034.345.025.221.08.45.179.61.032.16.073.313.145.443.057.193.11.37.166.55.113.27.2.649.345.891l.131.33c.082.198.149.404.254.525l.099.194a.73.73 0 00.087.163c.03.054.052.094.083.146.236.486.504.937.816 1.36.082.112.141.164.164.148.024-.016-.016-.103-.094-.215-.237-.374-.505-.801-.734-1.165l-.25-.471c-.226-.302-.312-.733-.484-1.044l.002.033-.2-.532c-.078-.152-.12-.38-.189-.535a10.285 10.285 0 00-.071-.252c.007.015.014.031.023.044l-.003.002.053.096a2.67 2.67 0 01-.021-.104v.008-.013c0 .002 0 .004.002.005.005-.034-.01-.094-.011-.146.009-.076-.023-.206-.057-.338l-.008.002H.617l.01-.004a.53.53 0 00-.008-.112c.1.392.225.78.368 1.155.127.358.313.707.433 1.1.083.296.231.647.274.44.016-.04.13.171.199.305.138.25.28.551.444.804.02.022.052.073.062.104a.544.544 0 00.115.177c.023.021.048.06.073.114.362.716.807 1.394 1.486 1.934.09.082.195.19.26.273.105.174.293.351.47.492.53.476 1.074.88 1.68 1.272l.004-.006.004-.005-.007.01c.214.225.615.38.921.574.115.108.305.202.471.276.086.066.222.134.372.205.18.083.142.014.256.054a.59.59 0 00.21.043c.06.008.298.1.273.042-.003-.033-.037-.072-.141-.136-.01-.06-.12-.146-.3-.25l-.044-.012.002-.003c.015.005.029.012.041.012-.078-.114-.168-.24-.247-.352.025-.056-.005-.132-.254-.275-.023-.05-.075-.11-.096-.165.18.085.379.165.553.226.188.065.297.06.311.024.045-.04-.165-.118-.29-.183-.15-.076-.267-.16-.274-.206-.018-.062.2.032.31.056.38.094.86.344 1.292.402.2.045.455.166.63.142l-.012-.009.014.004-.002.005c.295.062.598.156.85.15-.027-.01-.052-.018-.064-.027l.014.004.05.025c.269.044.594.103.816.07l-.027-.008.027.003v.006c.433.02.88.139 1.36.047.378-.058 1.03-.089 1.48-.188.471-.116 1.024-.123 1.429-.338l-.027-.002c.025-.011.025-.008.025-.008l.002.01c.895-.24 1.775-.588 2.599-1.05a8.619 8.619 0 001.553-.945h.002c.02.022.07.01.168-.063l.049-.06.001.002-.05.058c.045 0 .1-.01.168-.036-.123.097-.257.224-.379.285l.01-.009c-.132.074-.316.22-.445.271-.294.1-.596.388-.92.538l-.268.133c-.181.06-.407.223-.604.279l-.25.103c-.328.157-.65.31-.995.383l-.05.022-.04.009c-1.02.251-1.764.524-2.552.71 1.496-.157 2.951-.61 4.29-1.269l.294-.15c.247-.061.513-.235.764-.409l.408-.258c.136-.069.299-.195.431-.275.054-.043.088-.067.124-.088.132-.057.277-.189.428-.312.044-.034.1-.075.132-.103.057-.038.134-.077.179-.112.064-.063.127-.124.19-.188a.584.584 0 00.18-.139l.015-.01h-.002c.025.003.073-.039.154-.117a.364.364 0 01.084-.094c.415-.49.775-1.043 1.108-1.59a5.18 5.18 0 00.338-.601c.095-.127.18-.266.231-.402.041-.058.082-.112.127-.164.258-.677.54-1.374.64-2.033.081-.3.248-.645.212-.895.07-.446.193-.933.179-1.358l-.002.045zM22.51 5.571l-.007.006s.003-.002 0-.017l.007.011zM6.843 1.148c-.003-.009-.021-.014.018-.036.013-.01.041-.016.054-.027-.036.03-.077.054-.072.063zM8.4 25.732c-.004.009.005.025-.038.01-.016 0-.041-.018-.057-.02.046.008.091.02.095.01zm15.74-12.906h-.005v-.029l.005.029zm-.078 1.716c.016-.273.039-.548-.004-.794.052.219.021.507.003.794zm.02-5.18c-.013-.013-.04-.084-.056-.093l-.025-.103c.03.07.064.156.08.195zm-.103 1.578l.006-.002c-.004.016-.01.06-.02.034 0 0 .009-.016.014-.032zm-.243 2.586h.003l-.003.014v-.014zm-.283-.975c.004.054.021.082.014.123-.007.11-.026-.01-.043-.067.013-.002.025-.002.029-.056zm-.168 1.924h.009l-.006.027c-.005.015-.003-.027-.003-.027zm-2.58 6.725c.02-.038.041-.078.063-.116.012-.186.247-.517.424-.897-.072.275-.258.592-.424.897-.002.017-.011.038-.01.05a.43.43 0 01-.053.066zm-15.882-.188c-.015-.01-.033-.029-.047-.034l-.002.001-.007-.009c-.028-.029-.02-.018-.028-.029l.001-.001s.011.009.027.028l.01.008.024.014c.007.01.015.015.022.022zm-2.171-.651a.117.117 0 01-.016-.02c.023.014.032.007.026-.02l-.007-.01.01.01c-.115-.222-.214-.519-.117-.49.116.168.24.412.383.58l.211.312c.113.278.134.332.077.416-.07-.122-.17-.245-.277-.393-.047-.136-.17-.275-.281-.423.007.025 0 .03-.01.038zm.342-4.063l.01-.002v.027l-.01-.025zm-.163.748c-.022-.02-.036-.025-.049-.027a.374.374 0 01-.062.172c.014-.072.01-.18.062-.172a.744.744 0 00.015-.152c.023.075.007.107.034.18zm-.396 2.205l-.012-.026c.034.064.09.147.128.19l-.008.006a3.425 3.425 0 01-.108-.17zM2.24 18.07l-.05-.085-.023-.067c.02.04.05.101.073.152zm-.387-1.622c-.01.002-.028-.022-.046-.06l-.005-.027c.014.04.037.09.051.087zM.73 15.41a.214.214 0 01-.018-.049h.003c.006.036.01.036.015.049zm.322 1.197c-.024.007-.011.085.016.186-.027-.06-.057-.12-.065-.2.006-.04.03-.008.049.014zm.592-.696a.76.76 0 01-.082-.255c.028.108.055.188.082.255zm.091.667c-.007-.085-.018-.154.013-.16-.025.005-.022.075-.013.16zM.563 12.651l-.002.025H.556v-.013l.002-.012h.005zm-.075.508v.012l-.004.015c-.009.069-.014.125-.021.184l-.004.053v-.027l.004-.028a1.023 1.023 0 01.025-.21zm-.206 1.989c.01.002.022-.004.03-.015.004.042.008.067.011.109-.01-.036-.027-.065-.04-.094-.033-.004-.069-.06-.103-.118.034.024.07.065.102.118zm1.605 3.405l.065.16a.7.7 0 00.073.174l-.001-.03c.023.068.044.123.07.175.092.197.264.486.15.447-.033-.013-.045-.004-.043.025l-.1-.2h-.002c0-.093-.13-.26-.19-.406-.02-.11-.054-.23-.113-.367.041.047.072.049.091.022zM5.043 4.524l.003-.005c0 .002-.001.003-.003.005zm8.387-2.613l-.002.017c-.002.014-.066.003-.068.012.002-.014.068-.014.07-.029zm-.82-.114c-.027-.003 0-.001-.013-.003h-.066l.027-.004c.054-.01.145-.012.226-.01-.042.012-.146.005-.174.017zm.174.125c0 .002-.015.004-.042 0l-.012.002-.027.007-.029.002c.016-.004.045-.002.058-.007v-.004l.012.002.04-.002zm8.832 16.038a.146.146 0 01.038-.067l.007.003c-.015.022-.049.103-.045.064zm.029.086l-.011.02.002-.023-.011.012v-.009c.003.002.009-.005.014-.014l-.005.009.01.005zm1.27-3.661l-.014.103c0-.053-.009-.053-.01-.067.01-.038.017-.024.024-.036zm-.241-6.295l.007.016-.007-.012V8.09a.276.276 0 01-.016-.034.476.476 0 01-.01-.042.39.39 0 00.026.076zm-.056-1.228l.006.01-.006-.01-.002-.001-.007-.013s.006.005.01.014zm-.172-.155l-.005.003-.007-.012c.01.01.012.009.012.009zM18.73 3.389a1.964 1.964 0 00-.236-.121.788.788 0 01.236.12zm-.743-.355c.015 0 .032.004.058.013l.023.016a.4.4 0 00-.08-.029zm.08-.052c.013-.02-.037-.067-.103-.121.064.054.118.095.104.12zm-1.411-.79c.025.012.05.023.062.03a7.404 7.404 0 00-.157-.054l.095.024zm-1.253-.767l.195.043s.014.004.027.01a1.241 1.241 0 00-.224-.044l.002-.01zM13.05.112c-.012.004-.02.007-.041.011V.118l.041-.006zm-2.103.07l.029.002-.12.006.091-.007zM2.48 6.366l-.002.047v.002a.092.092 0 01.002-.049zm-.018.074l-.002.004c-.014.005-.032.016-.048.023.02-.012.036-.018.05-.027zm-2.33 7.689c-.006.018-.011.034-.024.02l-.001-.027c.012.029.02.021.025.007zm.291 2.329l.002.004H.423v-.004zm1.294 2.557a14.237 14.237 0 01-.098-.248c.014.02.027.04.041.058.01.061.052.155.091.239-.01-.015-.021-.033-.034-.05zm.845 1.634a3.841 3.841 0 01-.506-.985 1.178 1.178 0 00-.047-.125.939.939 0 01.093.18c.029.093.124.225.194.34.016.02.039.037.059.057.263.36.497.738.835 1.062l-.023.028c-.096.073-.358-.253-.605-.556zm.736-2.413c.066-.004.084-.095.054-.26l.057.29c.045.18-.052.042-.111-.03zm.147 2.244c.014.007-.017-.057.021-.015.038.042.009.029.027.067a.782.782 0 01-.048-.052zm.83.009l.013-.011c.01-.01.05.045.057.04-.01.009-.06-.038-.07-.03zm.365.553c.036.022.106.101.134.112.018.022-.001.002.008.01.008.01.046.048.046.048l-.021-.016a1.343 1.343 0 01-.167-.154zm.18 2.443l-.019-.022c.022.02.066.06.088.082l-.068-.06zm.495-.215c.002-.004-.004-.011-.004-.015-.084-.094-.132-.173-.213-.266l-.025-.016s.015.005.004-.004l.023.02c.197.16.224.223.213.266.016.018.025.034.045.054l-.043-.04zm.886-1.501l.098.038c-.018.002.006.032.01.047-.038-.033-.074-.05-.108-.085zm.644 1.463l.004-.006.009.011-.013-.005zm1.321.104c.059.026.073.02.113.031-.038-.01-.047.006-.113-.03zm.646.344c.013.006.013.004.013.004v.002l-.013-.006-.023-.003c-.052.025-.156.001-.272-.042a.662.662 0 01-.167-.069c-.007-.003-.01-.002-.018-.007l-.08-.038.098.043c.056.026.113.05.167.07.093.023.172.019.272.04l.012-.001c.006 0-.003-.006.002-.006a6.842 6.842 0 01-.104-.117l-.016-.01.01.005c-.004-.008-.02-.02-.028-.03a2.857 2.857 0 01-.334-.25l-.004.005-.276-.174.244.15c.021.013.021.013.034.018.175.094.277.183.335.252.02.012.032.027.051.04l-.023-.011.006.005c.084.054.166.107.103.117.006.008.007.01.011.013zm.32.056l-.137-.06c.046.019.102.05.164.066a.109.109 0 00-.027-.006zm.71.933l.003-.003v-.002l-.002.005zm.678-.323c.014-.008-.033-.022-.031-.031a.24.24 0 00.068.041l-.037-.01zm.937.22v-.004l.025.011-.025-.007zm.614.089a1.8 1.8 0 00-.204-.093l.24.015c.048.027.082.054-.036.078zm.977-.783c.013.009.047.016.095.027 0 0 .011.009.034.013v.003a.106.106 0 01-.034-.016l-.116-.024c.021 0 .021-.003.021-.003zm.126.19h.012a.295.295 0 01-.084.025c.036-.007.047-.016.072-.025zm2.008 1.056c-.002.002-.006.003-.007.007-.006.013-.018.025-.04.038a.706.706 0 00.04-.038c.003-.007.005-.015.003-.022.002.017.043.026.074.036-.027-.007-.043-.02-.07-.021zm1.052-1.243c-.048.017-.11.044-.118.018-.023.008-.002-.009-.038-.001l.006-.006.028-.01.006.017.073-.009.043-.009c.01-.001.018-.007.025-.009v.004l-.025.005zm2.432-1.126c-.164.08-.31.14-.365.108-.08-.025.086-.119.224-.21.06-.04.136-.097.091-.104-.096.02-.229.123-.3.114.121-.096.28-.15.41-.255-.03.007-.05.01-.06.005l-.016.006.011-.008c0 .002.004 0 .005.002.03-.009.054-.016.06-.005a.229.229 0 01.08-.05c.168-.064.344-.227.52-.305.246-.123.436-.305.638-.506l.01-.007.019-.017-.01.008c.15-.208-.048-.038-.17.052l-.053.043-.032.019c-.099.025-.27.186-.369.207.417-.336.847-.676 1.212-1.072l.08-.08c-.003.008-.007.013-.007.017-.025.049.018.016.05-.027a.714.714 0 00.047-.065l-.007-.006c.068-.07.125-.137.127-.19a.561.561 0 01.095-.216c.096-.048.24-.19.304-.176-.056.092-.08.143-.075.18-.206.285-.262.43-.376.637-.111.194-.145.33-.331.568-.1.114-.192.226-.28.338-.025.018-.048.037-.073.053-.46.349-.956.652-1.459.942zm.54-.101c.01-.008.053-.033.053-.033a.18.18 0 00.048-.024.186.186 0 01.063-.028c-.022.005-.041.018-.063.028a.521.521 0 01-.102.057z" fill="#fff"/></svg>